<?xml version="1.0" encoding="UTF-8" standalone="no"?>
<!DOCTYPE svg PUBLIC "-//W3C//DTD SVG 1.1//EN"
 "http://www.w3.org/Graphics/SVG/1.1/DTD/svg11.dtd">
<!-- Generated by graphviz version 2.40.1 (20161225.0304)
 -->
<!-- Title: dependencies Pages: 1 -->
<svg width="1647pt" height="211pt"
 viewBox="0.00 0.00 1647.00 211.00" xmlns="http://www.w3.org/2000/svg" xmlns:xlink="http://www.w3.org/1999/xlink">
<g id="graph0" class="graph" transform="scale(1 1) rotate(0) translate(4 207)">
<title>dependencies</title>
<polygon fill="#ffffff" stroke="transparent" points="-4,4 -4,-207 1643,-207 1643,4 -4,4"/>
<text text-anchor="start" x="798.5091" y="-42.4" font-family="sans-serif" font-weight="bold" font-size="14.00" fill="#000000">Legend</text>
<polygon fill="#ffffb3" stroke="transparent" points="585.5,-10 585.5,-30 605.5,-30 605.5,-10 585.5,-10"/>
<text text-anchor="start" x="609.129" y="-15.4" font-family="sans-serif" font-size="14.00" fill="#000000"> &#160;Declarations</text>
<polygon fill="#8dd3c7" stroke="transparent" points="698.5,-10 698.5,-30 718.5,-30 718.5,-10 698.5,-10"/>
<text text-anchor="start" x="722.2251" y="-15.4" font-family="sans-serif" font-size="14.00" fill="#000000"> &#160;Module</text>
<polygon fill="#80b1d3" stroke="transparent" points="784.5,-10 784.5,-30 804.5,-30 804.5,-10 784.5,-10"/>
<text text-anchor="start" x="808.2812" y="-15.4" font-family="sans-serif" font-size="14.00" fill="#000000"> &#160;Bootstrap</text>
<polygon fill="#fdb462" stroke="transparent" points="881.5,-10 881.5,-30 901.5,-30 901.5,-10 881.5,-10"/>
<text text-anchor="start" x="905.1732" y="-15.4" font-family="sans-serif" font-size="14.00" fill="#000000"> &#160;Providers</text>
<polygon fill="#fb8072" stroke="transparent" points="977.5,-10 977.5,-30 997.5,-30 997.5,-10 977.5,-10"/>
<text text-anchor="start" x="1001.2258" y="-15.4" font-family="sans-serif" font-size="14.00" fill="#000000"> &#160;Exports</text>
<g id="clust1" class="cluster">
<title>cluster_CrmModule</title>
<polygon fill="none" stroke="#000000" stroke-dasharray="1,5" points="8,-70 8,-195 1631,-195 1631,-70 8,-70"/>
</g>
<g id="clust2" class="cluster">
<title>cluster_CrmModule_declarations</title>
<polygon fill="none" stroke="#000000" points="404,-78 404,-130 1623,-130 1623,-78 404,-78"/>
</g>
<g id="clust11" class="cluster">
<title>cluster_CrmModule_imports</title>
<polygon fill="none" stroke="#000000" points="16,-78 16,-130 396,-130 396,-78 16,-78"/>
</g>
<!-- LeadComponent -->
<g id="node1" class="node">
<title>LeadComponent</title>
<polygon fill="#ffffb3" stroke="#000000" points="1614.8147,-122 1505.1853,-122 1505.1853,-86 1614.8147,-86 1614.8147,-122"/>
<text text-anchor="middle" x="1560" y="-99.8" font-family="Times,serif" font-size="14.00" fill="#000000">LeadComponent</text>
</g>
<!-- CrmModule -->
<g id="node9" class="node">
<title>CrmModule</title>
<polygon fill="#8dd3c7" stroke="#000000" points="797.4387,-187 794.4387,-191 773.4387,-191 770.4387,-187 712.5613,-187 712.5613,-151 797.4387,-151 797.4387,-187"/>
<text text-anchor="middle" x="755" y="-164.8" font-family="Times,serif" font-size="14.00" fill="#000000">CrmModule</text>
</g>
<!-- LeadComponent&#45;&gt;CrmModule -->
<g id="edge1" class="edge">
<title>LeadComponent&#45;&gt;CrmModule</title>
<path fill="none" stroke="#000000" d="M1560,-122.0908C1560,-145.1328 1560,-182 1560,-182 1560,-182 807.429,-182 807.429,-182"/>
<polygon fill="#000000" stroke="#000000" points="807.429,-178.5001 797.429,-182 807.429,-185.5001 807.429,-178.5001"/>
</g>
<!-- CustomerComponent -->
<g id="node2" class="node">
<title>CustomerComponent</title>
<polygon fill="#ffffb3" stroke="#000000" points="1486.7702,-122 1351.2298,-122 1351.2298,-86 1486.7702,-86 1486.7702,-122"/>
<text text-anchor="middle" x="1419" y="-99.8" font-family="Times,serif" font-size="14.00" fill="#000000">CustomerComponent</text>
</g>
<!-- CustomerComponent&#45;&gt;CrmModule -->
<g id="edge2" class="edge">
<title>CustomerComponent&#45;&gt;CrmModule</title>
<path fill="none" stroke="#000000" d="M1419,-122.2843C1419,-143.3211 1419,-175 1419,-175 1419,-175 807.2928,-175 807.2928,-175"/>
<polygon fill="#000000" stroke="#000000" points="807.2928,-171.5001 797.2928,-175 807.2927,-178.5001 807.2928,-171.5001"/>
</g>
<!-- CustomerCommonComponent -->
<g id="node3" class="node">
<title>CustomerCommonComponent</title>
<polygon fill="#ffffb3" stroke="#000000" points="1332.8878,-122 1145.1122,-122 1145.1122,-86 1332.8878,-86 1332.8878,-122"/>
<text text-anchor="middle" x="1239" y="-99.8" font-family="Times,serif" font-size="14.00" fill="#000000">CustomerCommonComponent</text>
</g>
<!-- CustomerCommonComponent&#45;&gt;CrmModule -->
<g id="edge3" class="edge">
<title>CustomerCommonComponent&#45;&gt;CrmModule</title>
<path fill="none" stroke="#000000" d="M1239,-122.1061C1239,-141.3391 1239,-169 1239,-169 1239,-169 807.5276,-169 807.5276,-169"/>
<polygon fill="#000000" stroke="#000000" points="807.5276,-165.5001 797.5276,-169 807.5275,-172.5001 807.5276,-165.5001"/>
</g>
<!-- ContactComponent -->
<g id="node4" class="node">
<title>ContactComponent</title>
<polygon fill="#ffffb3" stroke="#000000" points="1127.3795,-122 1002.6205,-122 1002.6205,-86 1127.3795,-86 1127.3795,-122"/>
<text text-anchor="middle" x="1065" y="-99.8" font-family="Times,serif" font-size="14.00" fill="#000000">ContactComponent</text>
</g>
<!-- ContactComponent&#45;&gt;CrmModule -->
<g id="edge4" class="edge">
<title>ContactComponent&#45;&gt;CrmModule</title>
<path fill="none" stroke="#000000" d="M1065,-122.0225C1065,-139.3734 1065,-163 1065,-163 1065,-163 807.4542,-163 807.4542,-163"/>
<polygon fill="#000000" stroke="#000000" points="807.4542,-159.5001 797.4542,-163 807.4541,-166.5001 807.4542,-159.5001"/>
</g>
<!-- OpportunitiesComponent -->
<g id="node5" class="node">
<title>OpportunitiesComponent</title>
<polygon fill="#ffffb3" stroke="#000000" points="984.3215,-122 825.6785,-122 825.6785,-86 984.3215,-86 984.3215,-122"/>
<text text-anchor="middle" x="905" y="-99.8" font-family="Times,serif" font-size="14.00" fill="#000000">OpportunitiesComponent</text>
</g>
<!-- OpportunitiesComponent&#45;&gt;CrmModule -->
<g id="edge5" class="edge">
<title>OpportunitiesComponent&#45;&gt;CrmModule</title>
<path fill="none" stroke="#000000" d="M905,-122.2396C905,-137.5706 905,-157 905,-157 905,-157 807.5828,-157 807.5828,-157"/>
<polygon fill="#000000" stroke="#000000" points="807.5828,-153.5001 797.5828,-157 807.5827,-160.5001 807.5828,-153.5001"/>
</g>
<!-- CrmComponent -->
<g id="node6" class="node">
<title>CrmComponent</title>
<polygon fill="#ffffb3" stroke="#000000" points="808.2204,-122 701.7796,-122 701.7796,-86 808.2204,-86 808.2204,-122"/>
<text text-anchor="middle" x="755" y="-99.8" font-family="Times,serif" font-size="14.00" fill="#000000">CrmComponent</text>
</g>
<!-- CrmComponent&#45;&gt;CrmModule -->
<g id="edge6" class="edge">
<title>CrmComponent&#45;&gt;CrmModule</title>
<path fill="none" stroke="#000000" d="M755,-122.1061C755,-122.1061 755,-140.991 755,-140.991"/>
<polygon fill="#000000" stroke="#000000" points="751.5001,-140.9909 755,-150.991 758.5001,-140.991 751.5001,-140.9909"/>
</g>
<!-- ContractComponent -->
<g id="node7" class="node">
<title>ContractComponent</title>
<polygon fill="#ffffb3" stroke="#000000" points="683.5408,-122 554.4592,-122 554.4592,-86 683.5408,-86 683.5408,-122"/>
<text text-anchor="middle" x="619" y="-99.8" font-family="Times,serif" font-size="14.00" fill="#000000">ContractComponent</text>
</g>
<!-- ContractComponent&#45;&gt;CrmModule -->
<g id="edge7" class="edge">
<title>ContractComponent&#45;&gt;CrmModule</title>
<path fill="none" stroke="#000000" d="M619,-122.2396C619,-137.5706 619,-157 619,-157 619,-157 702.7142,-157 702.7142,-157"/>
<polygon fill="#000000" stroke="#000000" points="702.7143,-160.5001 712.7142,-157 702.7142,-153.5001 702.7143,-160.5001"/>
</g>
<!-- ProductComponent -->
<g id="node8" class="node">
<title>ProductComponent</title>
<polygon fill="#ffffb3" stroke="#000000" points="536.3809,-122 411.6191,-122 411.6191,-86 536.3809,-86 536.3809,-122"/>
<text text-anchor="middle" x="474" y="-99.8" font-family="Times,serif" font-size="14.00" fill="#000000">ProductComponent</text>
</g>
<!-- ProductComponent&#45;&gt;CrmModule -->
<g id="edge8" class="edge">
<title>ProductComponent&#45;&gt;CrmModule</title>
<path fill="none" stroke="#000000" d="M474,-122.0225C474,-139.3734 474,-163 474,-163 474,-163 702.6272,-163 702.6272,-163"/>
<polygon fill="#000000" stroke="#000000" points="702.6272,-166.5001 712.6272,-163 702.6272,-159.5001 702.6272,-166.5001"/>
</g>
<!-- SharedModule -->
<g id="node10" class="node">
<title>SharedModule</title>
<polygon fill="#8dd3c7" stroke="#000000" points="388.4231,-122 385.4231,-126 364.4231,-126 361.4231,-122 289.5769,-122 289.5769,-86 388.4231,-86 388.4231,-122"/>
<text text-anchor="middle" x="339" y="-99.8" font-family="Times,serif" font-size="14.00" fill="#000000">SharedModule</text>
</g>
<!-- SharedModule&#45;&gt;CrmModule -->
<g id="edge9" class="edge">
<title>SharedModule&#45;&gt;CrmModule</title>
<path fill="none" stroke="#000000" d="M339,-122.1061C339,-141.3391 339,-169 339,-169 339,-169 702.4357,-169 702.4357,-169"/>
<polygon fill="#000000" stroke="#000000" points="702.4357,-172.5001 712.4357,-169 702.4356,-165.5001 702.4357,-172.5001"/>
</g>
<!-- CrmRoutingModule -->
<g id="node11" class="node">
<title>CrmRoutingModule</title>
<polygon fill="#8dd3c7" stroke="#000000" points="271.5562,-122 268.5562,-126 247.5562,-126 244.5562,-122 142.4438,-122 142.4438,-86 271.5562,-86 271.5562,-122"/>
<text text-anchor="middle" x="207" y="-99.8" font-family="Times,serif" font-size="14.00" fill="#000000">CrmRoutingModule</text>
</g>
<!-- CrmRoutingModule&#45;&gt;CrmModule -->
<g id="edge10" class="edge">
<title>CrmRoutingModule&#45;&gt;CrmModule</title>
<path fill="none" stroke="#000000" d="M207,-122.2843C207,-143.3211 207,-175 207,-175 207,-175 702.4554,-175 702.4554,-175"/>
<polygon fill="#000000" stroke="#000000" points="702.4554,-178.5001 712.4554,-175 702.4553,-171.5001 702.4554,-178.5001"/>
</g>
<!-- WidgetModule -->
<g id="node12" class="node">
<title>WidgetModule</title>
<polygon fill="#8dd3c7" stroke="#000000" points="124.2605,-122 121.2605,-126 100.2605,-126 97.2605,-122 23.7395,-122 23.7395,-86 124.2605,-86 124.2605,-122"/>
<text text-anchor="middle" x="74" y="-99.8" font-family="Times,serif" font-size="14.00" fill="#000000">WidgetModule</text>
</g>
<!-- WidgetModule&#45;&gt;CrmModule -->
<g id="edge11" class="edge">
<title>WidgetModule&#45;&gt;CrmModule</title>
<path fill="none" stroke="#000000" d="M74,-122.0908C74,-145.1328 74,-182 74,-182 74,-182 702.6577,-182 702.6577,-182"/>
<polygon fill="#000000" stroke="#000000" points="702.6577,-185.5001 712.6577,-182 702.6577,-178.5001 702.6577,-185.5001"/>
</g>
</g>
</svg>
