<?xml version="1.0" encoding="UTF-8" standalone="no"?>
<!DOCTYPE svg PUBLIC "-//W3C//DTD SVG 1.1//EN"
 "http://www.w3.org/Graphics/SVG/1.1/DTD/svg11.dtd">
<!-- Generated by graphviz version 2.40.1 (20161225.0304)
 -->
<!-- Title: dependencies Pages: 1 -->
<svg width="1830pt" height="211pt"
 viewBox="0.00 0.00 1830.00 211.00" xmlns="http://www.w3.org/2000/svg" xmlns:xlink="http://www.w3.org/1999/xlink">
<g id="graph0" class="graph" transform="scale(1 1) rotate(0) translate(4 207)">
<title>dependencies</title>
<polygon fill="#ffffff" stroke="transparent" points="-4,4 -4,-207 1826,-207 1826,4 -4,4"/>
<text text-anchor="start" x="890.0091" y="-42.4" font-family="sans-serif" font-weight="bold" font-size="14.00" fill="#000000">Legend</text>
<polygon fill="#ffffb3" stroke="transparent" points="677,-10 677,-30 697,-30 697,-10 677,-10"/>
<text text-anchor="start" x="700.629" y="-15.4" font-family="sans-serif" font-size="14.00" fill="#000000"> &#160;Declarations</text>
<polygon fill="#8dd3c7" stroke="transparent" points="790,-10 790,-30 810,-30 810,-10 790,-10"/>
<text text-anchor="start" x="813.7251" y="-15.4" font-family="sans-serif" font-size="14.00" fill="#000000"> &#160;Module</text>
<polygon fill="#80b1d3" stroke="transparent" points="876,-10 876,-30 896,-30 896,-10 876,-10"/>
<text text-anchor="start" x="899.7812" y="-15.4" font-family="sans-serif" font-size="14.00" fill="#000000"> &#160;Bootstrap</text>
<polygon fill="#fdb462" stroke="transparent" points="973,-10 973,-30 993,-30 993,-10 973,-10"/>
<text text-anchor="start" x="996.6732" y="-15.4" font-family="sans-serif" font-size="14.00" fill="#000000"> &#160;Providers</text>
<polygon fill="#fb8072" stroke="transparent" points="1069,-10 1069,-30 1089,-30 1089,-10 1069,-10"/>
<text text-anchor="start" x="1092.7258" y="-15.4" font-family="sans-serif" font-size="14.00" fill="#000000"> &#160;Exports</text>
<g id="clust1" class="cluster">
<title>cluster_CrmModule</title>
<polygon fill="none" stroke="#000000" stroke-dasharray="1,5" points="8,-70 8,-195 1814,-195 1814,-70 8,-70"/>
</g>
<g id="clust2" class="cluster">
<title>cluster_CrmModule_declarations</title>
<polygon fill="none" stroke="#000000" points="404,-78 404,-130 1806,-130 1806,-78 404,-78"/>
</g>
<g id="clust12" class="cluster">
<title>cluster_CrmModule_imports</title>
<polygon fill="none" stroke="#000000" points="16,-78 16,-130 396,-130 396,-78 16,-78"/>
</g>
<!-- LeadComponent -->
<g id="node1" class="node">
<title>LeadComponent</title>
<polygon fill="#ffffb3" stroke="#000000" points="1797.8147,-122 1688.1853,-122 1688.1853,-86 1797.8147,-86 1797.8147,-122"/>
<text text-anchor="middle" x="1743" y="-99.8" font-family="Times,serif" font-size="14.00" fill="#000000">LeadComponent</text>
</g>
<!-- CrmModule -->
<g id="node10" class="node">
<title>CrmModule</title>
<polygon fill="#8dd3c7" stroke="#000000" points="872.4387,-187 869.4387,-191 848.4387,-191 845.4387,-187 787.5613,-187 787.5613,-151 872.4387,-151 872.4387,-187"/>
<text text-anchor="middle" x="830" y="-164.8" font-family="Times,serif" font-size="14.00" fill="#000000">CrmModule</text>
</g>
<!-- LeadComponent&#45;&gt;CrmModule -->
<g id="edge1" class="edge">
<title>LeadComponent&#45;&gt;CrmModule</title>
<path fill="none" stroke="#000000" d="M1743,-122.0908C1743,-145.1328 1743,-182 1743,-182 1743,-182 882.5076,-182 882.5076,-182"/>
<polygon fill="#000000" stroke="#000000" points="882.5076,-178.5001 872.5076,-182 882.5075,-185.5001 882.5076,-178.5001"/>
</g>
<!-- CustomerComponent -->
<g id="node2" class="node">
<title>CustomerComponent</title>
<polygon fill="#ffffb3" stroke="#000000" points="1669.7702,-122 1534.2298,-122 1534.2298,-86 1669.7702,-86 1669.7702,-122"/>
<text text-anchor="middle" x="1602" y="-99.8" font-family="Times,serif" font-size="14.00" fill="#000000">CustomerComponent</text>
</g>
<!-- CustomerComponent&#45;&gt;CrmModule -->
<g id="edge2" class="edge">
<title>CustomerComponent&#45;&gt;CrmModule</title>
<path fill="none" stroke="#000000" d="M1602,-122.2843C1602,-143.3211 1602,-175 1602,-175 1602,-175 882.3296,-175 882.3296,-175"/>
<polygon fill="#000000" stroke="#000000" points="882.3297,-171.5001 872.3296,-175 882.3296,-178.5001 882.3297,-171.5001"/>
</g>
<!-- CustomerCommonComponent -->
<g id="node3" class="node">
<title>CustomerCommonComponent</title>
<polygon fill="#ffffb3" stroke="#000000" points="1515.8878,-122 1328.1122,-122 1328.1122,-86 1515.8878,-86 1515.8878,-122"/>
<text text-anchor="middle" x="1422" y="-99.8" font-family="Times,serif" font-size="14.00" fill="#000000">CustomerCommonComponent</text>
</g>
<!-- CustomerCommonComponent&#45;&gt;CrmModule -->
<g id="edge3" class="edge">
<title>CustomerCommonComponent&#45;&gt;CrmModule</title>
<path fill="none" stroke="#000000" d="M1422,-122.1061C1422,-141.3391 1422,-169 1422,-169 1422,-169 882.5752,-169 882.5752,-169"/>
<polygon fill="#000000" stroke="#000000" points="882.5752,-165.5001 872.5752,-169 882.5751,-172.5001 882.5752,-165.5001"/>
</g>
<!-- ContactComponent -->
<g id="node4" class="node">
<title>ContactComponent</title>
<polygon fill="#ffffb3" stroke="#000000" points="1310.3795,-122 1185.6205,-122 1185.6205,-86 1310.3795,-86 1310.3795,-122"/>
<text text-anchor="middle" x="1248" y="-99.8" font-family="Times,serif" font-size="14.00" fill="#000000">ContactComponent</text>
</g>
<!-- ContactComponent&#45;&gt;CrmModule -->
<g id="edge4" class="edge">
<title>ContactComponent&#45;&gt;CrmModule</title>
<path fill="none" stroke="#000000" d="M1248,-122.0225C1248,-139.3734 1248,-163 1248,-163 1248,-163 882.3804,-163 882.3804,-163"/>
<polygon fill="#000000" stroke="#000000" points="882.3804,-159.5001 872.3804,-163 882.3804,-166.5001 882.3804,-159.5001"/>
</g>
<!-- ContactUpdateComponent -->
<g id="node5" class="node">
<title>ContactUpdateComponent</title>
<polygon fill="#ffffb3" stroke="#000000" points="1167.8061,-122 1002.1939,-122 1002.1939,-86 1167.8061,-86 1167.8061,-122"/>
<text text-anchor="middle" x="1085" y="-99.8" font-family="Times,serif" font-size="14.00" fill="#000000">ContactUpdateComponent</text>
</g>
<!-- ContactUpdateComponent&#45;&gt;CrmModule -->
<g id="edge5" class="edge">
<title>ContactUpdateComponent&#45;&gt;CrmModule</title>
<path fill="none" stroke="#000000" d="M1085,-122.2396C1085,-137.5706 1085,-157 1085,-157 1085,-157 882.3943,-157 882.3943,-157"/>
<polygon fill="#000000" stroke="#000000" points="882.3943,-153.5001 872.3943,-157 882.3943,-160.5001 882.3943,-153.5001"/>
</g>
<!-- OpportunitiesComponent -->
<g id="node6" class="node">
<title>OpportunitiesComponent</title>
<polygon fill="#ffffb3" stroke="#000000" points="984.3215,-122 825.6785,-122 825.6785,-86 984.3215,-86 984.3215,-122"/>
<text text-anchor="middle" x="905" y="-99.8" font-family="Times,serif" font-size="14.00" fill="#000000">OpportunitiesComponent</text>
</g>
<!-- OpportunitiesComponent&#45;&gt;CrmModule -->
<g id="edge6" class="edge">
<title>OpportunitiesComponent&#45;&gt;CrmModule</title>
<path fill="none" stroke="#000000" d="M849.0291,-122.1061C849.0291,-122.1061 849.0291,-140.991 849.0291,-140.991"/>
<polygon fill="#000000" stroke="#000000" points="845.5292,-140.9909 849.0291,-150.991 852.5292,-140.991 845.5292,-140.9909"/>
</g>
<!-- CrmComponent -->
<g id="node7" class="node">
<title>CrmComponent</title>
<polygon fill="#ffffb3" stroke="#000000" points="808.2204,-122 701.7796,-122 701.7796,-86 808.2204,-86 808.2204,-122"/>
<text text-anchor="middle" x="755" y="-99.8" font-family="Times,serif" font-size="14.00" fill="#000000">CrmComponent</text>
</g>
<!-- CrmComponent&#45;&gt;CrmModule -->
<g id="edge7" class="edge">
<title>CrmComponent&#45;&gt;CrmModule</title>
<path fill="none" stroke="#000000" d="M797.9457,-122.1061C797.9457,-122.1061 797.9457,-140.991 797.9457,-140.991"/>
<polygon fill="#000000" stroke="#000000" points="794.4457,-140.9909 797.9457,-150.991 801.4457,-140.991 794.4457,-140.9909"/>
</g>
<!-- ContractComponent -->
<g id="node8" class="node">
<title>ContractComponent</title>
<polygon fill="#ffffb3" stroke="#000000" points="683.5408,-122 554.4592,-122 554.4592,-86 683.5408,-86 683.5408,-122"/>
<text text-anchor="middle" x="619" y="-99.8" font-family="Times,serif" font-size="14.00" fill="#000000">ContractComponent</text>
</g>
<!-- ContractComponent&#45;&gt;CrmModule -->
<g id="edge8" class="edge">
<title>ContractComponent&#45;&gt;CrmModule</title>
<path fill="none" stroke="#000000" d="M619,-122.2396C619,-137.5706 619,-157 619,-157 619,-157 777.5548,-157 777.5548,-157"/>
<polygon fill="#000000" stroke="#000000" points="777.5549,-160.5001 787.5548,-157 777.5548,-153.5001 777.5549,-160.5001"/>
</g>
<!-- ProductComponent -->
<g id="node9" class="node">
<title>ProductComponent</title>
<polygon fill="#ffffb3" stroke="#000000" points="536.3809,-122 411.6191,-122 411.6191,-86 536.3809,-86 536.3809,-122"/>
<text text-anchor="middle" x="474" y="-99.8" font-family="Times,serif" font-size="14.00" fill="#000000">ProductComponent</text>
</g>
<!-- ProductComponent&#45;&gt;CrmModule -->
<g id="edge9" class="edge">
<title>ProductComponent&#45;&gt;CrmModule</title>
<path fill="none" stroke="#000000" d="M474,-122.0225C474,-139.3734 474,-163 474,-163 474,-163 777.7641,-163 777.7641,-163"/>
<polygon fill="#000000" stroke="#000000" points="777.7642,-166.5001 787.7641,-163 777.7641,-159.5001 777.7642,-166.5001"/>
</g>
<!-- SharedModule -->
<g id="node11" class="node">
<title>SharedModule</title>
<polygon fill="#8dd3c7" stroke="#000000" points="388.4231,-122 385.4231,-126 364.4231,-126 361.4231,-122 289.5769,-122 289.5769,-86 388.4231,-86 388.4231,-122"/>
<text text-anchor="middle" x="339" y="-99.8" font-family="Times,serif" font-size="14.00" fill="#000000">SharedModule</text>
</g>
<!-- SharedModule&#45;&gt;CrmModule -->
<g id="edge10" class="edge">
<title>SharedModule&#45;&gt;CrmModule</title>
<path fill="none" stroke="#000000" d="M339,-122.1061C339,-141.3391 339,-169 339,-169 339,-169 777.7127,-169 777.7127,-169"/>
<polygon fill="#000000" stroke="#000000" points="777.7127,-172.5001 787.7127,-169 777.7126,-165.5001 777.7127,-172.5001"/>
</g>
<!-- CrmRoutingModule -->
<g id="node12" class="node">
<title>CrmRoutingModule</title>
<polygon fill="#8dd3c7" stroke="#000000" points="271.5562,-122 268.5562,-126 247.5562,-126 244.5562,-122 142.4438,-122 142.4438,-86 271.5562,-86 271.5562,-122"/>
<text text-anchor="middle" x="207" y="-99.8" font-family="Times,serif" font-size="14.00" fill="#000000">CrmRoutingModule</text>
</g>
<!-- CrmRoutingModule&#45;&gt;CrmModule -->
<g id="edge11" class="edge">
<title>CrmRoutingModule&#45;&gt;CrmModule</title>
<path fill="none" stroke="#000000" d="M207,-122.2843C207,-143.3211 207,-175 207,-175 207,-175 777.6685,-175 777.6685,-175"/>
<polygon fill="#000000" stroke="#000000" points="777.6685,-178.5001 787.6685,-175 777.6684,-171.5001 777.6685,-178.5001"/>
</g>
<!-- WidgetModule -->
<g id="node13" class="node">
<title>WidgetModule</title>
<polygon fill="#8dd3c7" stroke="#000000" points="124.2605,-122 121.2605,-126 100.2605,-126 97.2605,-122 23.7395,-122 23.7395,-86 124.2605,-86 124.2605,-122"/>
<text text-anchor="middle" x="74" y="-99.8" font-family="Times,serif" font-size="14.00" fill="#000000">WidgetModule</text>
</g>
<!-- WidgetModule&#45;&gt;CrmModule -->
<g id="edge12" class="edge">
<title>WidgetModule&#45;&gt;CrmModule</title>
<path fill="none" stroke="#000000" d="M74,-122.0908C74,-145.1328 74,-182 74,-182 74,-182 777.7342,-182 777.7342,-182"/>
<polygon fill="#000000" stroke="#000000" points="777.7343,-185.5001 787.7342,-182 777.7342,-178.5001 777.7343,-185.5001"/>
</g>
</g>
</svg>
