<?xml version="1.0" encoding="UTF-8" standalone="no"?>
<!DOCTYPE svg PUBLIC "-//W3C//DTD SVG 1.1//EN"
 "http://www.w3.org/Graphics/SVG/1.1/DTD/svg11.dtd">
<!-- Generated by graphviz version 2.40.1 (20161225.0304)
 -->
<!-- Title: dependencies Pages: 1 -->
<svg width="1529pt" height="211pt"
 viewBox="0.00 0.00 1529.00 211.00" xmlns="http://www.w3.org/2000/svg" xmlns:xlink="http://www.w3.org/1999/xlink">
<g id="graph0" class="graph" transform="scale(1 1) rotate(0) translate(4 207)">
<title>dependencies</title>
<polygon fill="#ffffff" stroke="transparent" points="-4,4 -4,-207 1525,-207 1525,4 -4,4"/>
<text text-anchor="start" x="739.5091" y="-42.4" font-family="sans-serif" font-weight="bold" font-size="14.00" fill="#000000">Legend</text>
<polygon fill="#ffffb3" stroke="transparent" points="526.5,-10 526.5,-30 546.5,-30 546.5,-10 526.5,-10"/>
<text text-anchor="start" x="550.129" y="-15.4" font-family="sans-serif" font-size="14.00" fill="#000000"> &#160;Declarations</text>
<polygon fill="#8dd3c7" stroke="transparent" points="639.5,-10 639.5,-30 659.5,-30 659.5,-10 639.5,-10"/>
<text text-anchor="start" x="663.2251" y="-15.4" font-family="sans-serif" font-size="14.00" fill="#000000"> &#160;Module</text>
<polygon fill="#80b1d3" stroke="transparent" points="725.5,-10 725.5,-30 745.5,-30 745.5,-10 725.5,-10"/>
<text text-anchor="start" x="749.2812" y="-15.4" font-family="sans-serif" font-size="14.00" fill="#000000"> &#160;Bootstrap</text>
<polygon fill="#fdb462" stroke="transparent" points="822.5,-10 822.5,-30 842.5,-30 842.5,-10 822.5,-10"/>
<text text-anchor="start" x="846.1732" y="-15.4" font-family="sans-serif" font-size="14.00" fill="#000000"> &#160;Providers</text>
<polygon fill="#fb8072" stroke="transparent" points="918.5,-10 918.5,-30 938.5,-30 938.5,-10 918.5,-10"/>
<text text-anchor="start" x="942.2258" y="-15.4" font-family="sans-serif" font-size="14.00" fill="#000000"> &#160;Exports</text>
<g id="clust1" class="cluster">
<title>cluster_CrmModule</title>
<polygon fill="none" stroke="#000000" stroke-dasharray="1,5" points="8,-70 8,-195 1513,-195 1513,-70 8,-70"/>
</g>
<g id="clust2" class="cluster">
<title>cluster_CrmModule_declarations</title>
<polygon fill="none" stroke="#000000" points="286,-78 286,-130 1505,-130 1505,-78 286,-78"/>
</g>
<g id="clust11" class="cluster">
<title>cluster_CrmModule_imports</title>
<polygon fill="none" stroke="#000000" points="16,-78 16,-130 278,-130 278,-78 16,-78"/>
</g>
<!-- LeadComponent -->
<g id="node1" class="node">
<title>LeadComponent</title>
<polygon fill="#ffffb3" stroke="#000000" points="1496.8147,-122 1387.1853,-122 1387.1853,-86 1496.8147,-86 1496.8147,-122"/>
<text text-anchor="middle" x="1442" y="-99.8" font-family="Times,serif" font-size="14.00" fill="#000000">LeadComponent</text>
</g>
<!-- CrmModule -->
<g id="node9" class="node">
<title>CrmModule</title>
<polygon fill="#8dd3c7" stroke="#000000" points="754.4387,-187 751.4387,-191 730.4387,-191 727.4387,-187 669.5613,-187 669.5613,-151 754.4387,-151 754.4387,-187"/>
<text text-anchor="middle" x="712" y="-164.8" font-family="Times,serif" font-size="14.00" fill="#000000">CrmModule</text>
</g>
<!-- LeadComponent&#45;&gt;CrmModule -->
<g id="edge1" class="edge">
<title>LeadComponent&#45;&gt;CrmModule</title>
<path fill="none" stroke="#000000" d="M1442,-122.0109C1442,-144.4852 1442,-180 1442,-180 1442,-180 764.4032,-180 764.4032,-180"/>
<polygon fill="#000000" stroke="#000000" points="764.4032,-176.5001 754.4032,-180 764.4032,-183.5001 764.4032,-176.5001"/>
</g>
<!-- CustomerComponent -->
<g id="node2" class="node">
<title>CustomerComponent</title>
<polygon fill="#ffffb3" stroke="#000000" points="1368.7702,-122 1233.2298,-122 1233.2298,-86 1368.7702,-86 1368.7702,-122"/>
<text text-anchor="middle" x="1301" y="-99.8" font-family="Times,serif" font-size="14.00" fill="#000000">CustomerComponent</text>
</g>
<!-- CustomerComponent&#45;&gt;CrmModule -->
<g id="edge2" class="edge">
<title>CustomerComponent&#45;&gt;CrmModule</title>
<path fill="none" stroke="#000000" d="M1301,-122.1289C1301,-142.5724 1301,-173 1301,-173 1301,-173 764.3594,-173 764.3594,-173"/>
<polygon fill="#000000" stroke="#000000" points="764.3595,-169.5001 754.3594,-173 764.3594,-176.5001 764.3595,-169.5001"/>
</g>
<!-- CustomerCommonComponent -->
<g id="node3" class="node">
<title>CustomerCommonComponent</title>
<polygon fill="#ffffb3" stroke="#000000" points="1214.8878,-122 1027.1122,-122 1027.1122,-86 1214.8878,-86 1214.8878,-122"/>
<text text-anchor="middle" x="1121" y="-99.8" font-family="Times,serif" font-size="14.00" fill="#000000">CustomerCommonComponent</text>
</g>
<!-- CustomerCommonComponent&#45;&gt;CrmModule -->
<g id="edge3" class="edge">
<title>CustomerCommonComponent&#45;&gt;CrmModule</title>
<path fill="none" stroke="#000000" d="M1121,-122.2667C1121,-140.5552 1121,-166 1121,-166 1121,-166 764.2297,-166 764.2297,-166"/>
<polygon fill="#000000" stroke="#000000" points="764.2297,-162.5001 754.2297,-166 764.2297,-169.5001 764.2297,-162.5001"/>
</g>
<!-- ContactComponent -->
<g id="node4" class="node">
<title>ContactComponent</title>
<polygon fill="#ffffb3" stroke="#000000" points="1009.3795,-122 884.6205,-122 884.6205,-86 1009.3795,-86 1009.3795,-122"/>
<text text-anchor="middle" x="947" y="-99.8" font-family="Times,serif" font-size="14.00" fill="#000000">ContactComponent</text>
</g>
<!-- ContactComponent&#45;&gt;CrmModule -->
<g id="edge4" class="edge">
<title>ContactComponent&#45;&gt;CrmModule</title>
<path fill="none" stroke="#000000" d="M947,-122.0091C947,-138.0494 947,-159 947,-159 947,-159 764.2847,-159 764.2847,-159"/>
<polygon fill="#000000" stroke="#000000" points="764.2847,-155.5001 754.2847,-159 764.2847,-162.5001 764.2847,-155.5001"/>
</g>
<!-- OpportunitiesComponent -->
<g id="node5" class="node">
<title>OpportunitiesComponent</title>
<polygon fill="#ffffb3" stroke="#000000" points="866.3215,-122 707.6785,-122 707.6785,-86 866.3215,-86 866.3215,-122"/>
<text text-anchor="middle" x="787" y="-99.8" font-family="Times,serif" font-size="14.00" fill="#000000">OpportunitiesComponent</text>
</g>
<!-- OpportunitiesComponent&#45;&gt;CrmModule -->
<g id="edge5" class="edge">
<title>OpportunitiesComponent&#45;&gt;CrmModule</title>
<path fill="none" stroke="#000000" d="M731.0291,-122.1061C731.0291,-122.1061 731.0291,-140.991 731.0291,-140.991"/>
<polygon fill="#000000" stroke="#000000" points="727.5292,-140.9909 731.0291,-150.991 734.5292,-140.991 727.5292,-140.9909"/>
</g>
<!-- CrmComponent -->
<g id="node6" class="node">
<title>CrmComponent</title>
<polygon fill="#ffffb3" stroke="#000000" points="690.2204,-122 583.7796,-122 583.7796,-86 690.2204,-86 690.2204,-122"/>
<text text-anchor="middle" x="637" y="-99.8" font-family="Times,serif" font-size="14.00" fill="#000000">CrmComponent</text>
</g>
<!-- CrmComponent&#45;&gt;CrmModule -->
<g id="edge6" class="edge">
<title>CrmComponent&#45;&gt;CrmModule</title>
<path fill="none" stroke="#000000" d="M679.9457,-122.1061C679.9457,-122.1061 679.9457,-140.991 679.9457,-140.991"/>
<polygon fill="#000000" stroke="#000000" points="676.4457,-140.9909 679.9457,-150.991 683.4457,-140.991 676.4457,-140.9909"/>
</g>
<!-- ContractComponent -->
<g id="node7" class="node">
<title>ContractComponent</title>
<polygon fill="#ffffb3" stroke="#000000" points="565.5408,-122 436.4592,-122 436.4592,-86 565.5408,-86 565.5408,-122"/>
<text text-anchor="middle" x="501" y="-99.8" font-family="Times,serif" font-size="14.00" fill="#000000">ContractComponent</text>
</g>
<!-- ContractComponent&#45;&gt;CrmModule -->
<g id="edge7" class="edge">
<title>ContractComponent&#45;&gt;CrmModule</title>
<path fill="none" stroke="#000000" d="M501,-122.0091C501,-138.0494 501,-159 501,-159 501,-159 659.5548,-159 659.5548,-159"/>
<polygon fill="#000000" stroke="#000000" points="659.5549,-162.5001 669.5548,-159 659.5548,-155.5001 659.5549,-162.5001"/>
</g>
<!-- ProductComponent -->
<g id="node8" class="node">
<title>ProductComponent</title>
<polygon fill="#ffffb3" stroke="#000000" points="418.3809,-122 293.6191,-122 293.6191,-86 418.3809,-86 418.3809,-122"/>
<text text-anchor="middle" x="356" y="-99.8" font-family="Times,serif" font-size="14.00" fill="#000000">ProductComponent</text>
</g>
<!-- ProductComponent&#45;&gt;CrmModule -->
<g id="edge8" class="edge">
<title>ProductComponent&#45;&gt;CrmModule</title>
<path fill="none" stroke="#000000" d="M356,-122.2667C356,-140.5552 356,-166 356,-166 356,-166 659.7641,-166 659.7641,-166"/>
<polygon fill="#000000" stroke="#000000" points="659.7642,-169.5001 669.7641,-166 659.7641,-162.5001 659.7642,-169.5001"/>
</g>
<!-- SharedModule -->
<g id="node10" class="node">
<title>SharedModule</title>
<polygon fill="#8dd3c7" stroke="#000000" points="270.4231,-122 267.4231,-126 246.4231,-126 243.4231,-122 171.5769,-122 171.5769,-86 270.4231,-86 270.4231,-122"/>
<text text-anchor="middle" x="221" y="-99.8" font-family="Times,serif" font-size="14.00" fill="#000000">SharedModule</text>
</g>
<!-- SharedModule&#45;&gt;CrmModule -->
<g id="edge9" class="edge">
<title>SharedModule&#45;&gt;CrmModule</title>
<path fill="none" stroke="#000000" d="M221,-122.1289C221,-142.5724 221,-173 221,-173 221,-173 659.7127,-173 659.7127,-173"/>
<polygon fill="#000000" stroke="#000000" points="659.7127,-176.5001 669.7127,-173 659.7126,-169.5001 659.7127,-176.5001"/>
</g>
<!-- CrmRoutingModule -->
<g id="node11" class="node">
<title>CrmRoutingModule</title>
<polygon fill="#8dd3c7" stroke="#000000" points="153.5562,-122 150.5562,-126 129.5562,-126 126.5562,-122 24.4438,-122 24.4438,-86 153.5562,-86 153.5562,-122"/>
<text text-anchor="middle" x="89" y="-99.8" font-family="Times,serif" font-size="14.00" fill="#000000">CrmRoutingModule</text>
</g>
<!-- CrmRoutingModule&#45;&gt;CrmModule -->
<g id="edge10" class="edge">
<title>CrmRoutingModule&#45;&gt;CrmModule</title>
<path fill="none" stroke="#000000" d="M89,-122.0109C89,-144.4852 89,-180 89,-180 89,-180 659.6685,-180 659.6685,-180"/>
<polygon fill="#000000" stroke="#000000" points="659.6685,-183.5001 669.6685,-180 659.6684,-176.5001 659.6685,-183.5001"/>
</g>
</g>
</svg>
