<?xml version="1.0" encoding="UTF-8" standalone="no"?>
<!DOCTYPE svg PUBLIC "-//W3C//DTD SVG 1.1//EN"
 "http://www.w3.org/Graphics/SVG/1.1/DTD/svg11.dtd">
<!-- Generated by graphviz version 2.40.1 (20161225.0304)
 -->
<!-- Title: dependencies Pages: 1 -->
<svg width="1831pt" height="211pt"
 viewBox="0.00 0.00 1831.00 211.00" xmlns="http://www.w3.org/2000/svg" xmlns:xlink="http://www.w3.org/1999/xlink">
<g id="graph0" class="graph" transform="scale(1 1) rotate(0) translate(4 207)">
<title>dependencies</title>
<polygon fill="#ffffff" stroke="transparent" points="-4,4 -4,-207 1827,-207 1827,4 -4,4"/>
<text text-anchor="start" x="890.5091" y="-42.4" font-family="sans-serif" font-weight="bold" font-size="14.00" fill="#000000">Legend</text>
<polygon fill="#ffffb3" stroke="transparent" points="677.5,-10 677.5,-30 697.5,-30 697.5,-10 677.5,-10"/>
<text text-anchor="start" x="701.129" y="-15.4" font-family="sans-serif" font-size="14.00" fill="#000000"> &#160;Declarations</text>
<polygon fill="#8dd3c7" stroke="transparent" points="790.5,-10 790.5,-30 810.5,-30 810.5,-10 790.5,-10"/>
<text text-anchor="start" x="814.2251" y="-15.4" font-family="sans-serif" font-size="14.00" fill="#000000"> &#160;Module</text>
<polygon fill="#80b1d3" stroke="transparent" points="876.5,-10 876.5,-30 896.5,-30 896.5,-10 876.5,-10"/>
<text text-anchor="start" x="900.2812" y="-15.4" font-family="sans-serif" font-size="14.00" fill="#000000"> &#160;Bootstrap</text>
<polygon fill="#fdb462" stroke="transparent" points="973.5,-10 973.5,-30 993.5,-30 993.5,-10 973.5,-10"/>
<text text-anchor="start" x="997.1732" y="-15.4" font-family="sans-serif" font-size="14.00" fill="#000000"> &#160;Providers</text>
<polygon fill="#fb8072" stroke="transparent" points="1069.5,-10 1069.5,-30 1089.5,-30 1089.5,-10 1069.5,-10"/>
<text text-anchor="start" x="1093.2258" y="-15.4" font-family="sans-serif" font-size="14.00" fill="#000000"> &#160;Exports</text>
<g id="clust1" class="cluster">
<title>cluster_CrmModule</title>
<polygon fill="none" stroke="#000000" stroke-dasharray="1,5" points="8,-70 8,-195 1815,-195 1815,-70 8,-70"/>
</g>
<g id="clust2" class="cluster">
<title>cluster_CrmModule_declarations</title>
<polygon fill="none" stroke="#000000" points="405,-78 405,-130 1807,-130 1807,-78 405,-78"/>
</g>
<g id="clust12" class="cluster">
<title>cluster_CrmModule_imports</title>
<polygon fill="none" stroke="#000000" points="16,-78 16,-130 397,-130 397,-78 16,-78"/>
</g>
<!-- ContactComponent -->
<g id="node1" class="node">
<title>ContactComponent</title>
<polygon fill="#ffffb3" stroke="#000000" points="1799.3795,-122 1674.6205,-122 1674.6205,-86 1799.3795,-86 1799.3795,-122"/>
<text text-anchor="middle" x="1737" y="-99.8" font-family="Times,serif" font-size="14.00" fill="#000000">ContactComponent</text>
</g>
<!-- CrmModule -->
<g id="node10" class="node">
<title>CrmModule</title>
<polygon fill="#8dd3c7" stroke="#000000" points="899.4387,-187 896.4387,-191 875.4387,-191 872.4387,-187 814.5613,-187 814.5613,-151 899.4387,-151 899.4387,-187"/>
<text text-anchor="middle" x="857" y="-164.8" font-family="Times,serif" font-size="14.00" fill="#000000">CrmModule</text>
</g>
<!-- ContactComponent&#45;&gt;CrmModule -->
<g id="edge1" class="edge">
<title>ContactComponent&#45;&gt;CrmModule</title>
<path fill="none" stroke="#000000" d="M1737,-122.0908C1737,-145.1328 1737,-182 1737,-182 1737,-182 909.4442,-182 909.4442,-182"/>
<polygon fill="#000000" stroke="#000000" points="909.4443,-178.5001 899.4442,-182 909.4442,-185.5001 909.4443,-178.5001"/>
</g>
<!-- ContactUpdateComponent -->
<g id="node2" class="node">
<title>ContactUpdateComponent</title>
<polygon fill="#ffffb3" stroke="#000000" points="1656.8061,-122 1491.1939,-122 1491.1939,-86 1656.8061,-86 1656.8061,-122"/>
<text text-anchor="middle" x="1574" y="-99.8" font-family="Times,serif" font-size="14.00" fill="#000000">ContactUpdateComponent</text>
</g>
<!-- ContactUpdateComponent&#45;&gt;CrmModule -->
<g id="edge2" class="edge">
<title>ContactUpdateComponent&#45;&gt;CrmModule</title>
<path fill="none" stroke="#000000" d="M1574,-122.2843C1574,-143.3211 1574,-175 1574,-175 1574,-175 909.4392,-175 909.4392,-175"/>
<polygon fill="#000000" stroke="#000000" points="909.4393,-171.5001 899.4392,-175 909.4392,-178.5001 909.4393,-171.5001"/>
</g>
<!-- ContractComponent -->
<g id="node3" class="node">
<title>ContractComponent</title>
<polygon fill="#ffffb3" stroke="#000000" points="1473.5408,-122 1344.4592,-122 1344.4592,-86 1473.5408,-86 1473.5408,-122"/>
<text text-anchor="middle" x="1409" y="-99.8" font-family="Times,serif" font-size="14.00" fill="#000000">ContractComponent</text>
</g>
<!-- ContractComponent&#45;&gt;CrmModule -->
<g id="edge3" class="edge">
<title>ContractComponent&#45;&gt;CrmModule</title>
<path fill="none" stroke="#000000" d="M1409,-122.1061C1409,-141.3391 1409,-169 1409,-169 1409,-169 909.3979,-169 909.3979,-169"/>
<polygon fill="#000000" stroke="#000000" points="909.398,-165.5001 899.3979,-169 909.3979,-172.5001 909.398,-165.5001"/>
</g>
<!-- CrmComponent -->
<g id="node4" class="node">
<title>CrmComponent</title>
<polygon fill="#ffffb3" stroke="#000000" points="1326.2204,-122 1219.7796,-122 1219.7796,-86 1326.2204,-86 1326.2204,-122"/>
<text text-anchor="middle" x="1273" y="-99.8" font-family="Times,serif" font-size="14.00" fill="#000000">CrmComponent</text>
</g>
<!-- CrmComponent&#45;&gt;CrmModule -->
<g id="edge4" class="edge">
<title>CrmComponent&#45;&gt;CrmModule</title>
<path fill="none" stroke="#000000" d="M1273,-122.0225C1273,-139.3734 1273,-163 1273,-163 1273,-163 909.5643,-163 909.5643,-163"/>
<polygon fill="#000000" stroke="#000000" points="909.5644,-159.5001 899.5643,-163 909.5643,-166.5001 909.5644,-159.5001"/>
</g>
<!-- CustomerCommonComponent -->
<g id="node5" class="node">
<title>CustomerCommonComponent</title>
<polygon fill="#ffffb3" stroke="#000000" points="1201.8878,-122 1014.1122,-122 1014.1122,-86 1201.8878,-86 1201.8878,-122"/>
<text text-anchor="middle" x="1108" y="-99.8" font-family="Times,serif" font-size="14.00" fill="#000000">CustomerCommonComponent</text>
</g>
<!-- CustomerCommonComponent&#45;&gt;CrmModule -->
<g id="edge5" class="edge">
<title>CustomerCommonComponent&#45;&gt;CrmModule</title>
<path fill="none" stroke="#000000" d="M1108,-122.2396C1108,-137.5706 1108,-157 1108,-157 1108,-157 909.2949,-157 909.2949,-157"/>
<polygon fill="#000000" stroke="#000000" points="909.2949,-153.5001 899.2949,-157 909.2949,-160.5001 909.2949,-153.5001"/>
</g>
<!-- CustomerComponent -->
<g id="node6" class="node">
<title>CustomerComponent</title>
<polygon fill="#ffffb3" stroke="#000000" points="995.7702,-122 860.2298,-122 860.2298,-86 995.7702,-86 995.7702,-122"/>
<text text-anchor="middle" x="928" y="-99.8" font-family="Times,serif" font-size="14.00" fill="#000000">CustomerComponent</text>
</g>
<!-- CustomerComponent&#45;&gt;CrmModule -->
<g id="edge6" class="edge">
<title>CustomerComponent&#45;&gt;CrmModule</title>
<path fill="none" stroke="#000000" d="M879.6669,-122.1061C879.6669,-122.1061 879.6669,-140.991 879.6669,-140.991"/>
<polygon fill="#000000" stroke="#000000" points="876.167,-140.9909 879.6669,-150.991 883.167,-140.991 876.167,-140.9909"/>
</g>
<!-- LeadComponent -->
<g id="node7" class="node">
<title>LeadComponent</title>
<polygon fill="#ffffb3" stroke="#000000" points="841.8147,-122 732.1853,-122 732.1853,-86 841.8147,-86 841.8147,-122"/>
<text text-anchor="middle" x="787" y="-99.8" font-family="Times,serif" font-size="14.00" fill="#000000">LeadComponent</text>
</g>
<!-- LeadComponent&#45;&gt;CrmModule -->
<g id="edge7" class="edge">
<title>LeadComponent&#45;&gt;CrmModule</title>
<path fill="none" stroke="#000000" d="M828.2192,-122.1061C828.2192,-122.1061 828.2192,-140.991 828.2192,-140.991"/>
<polygon fill="#000000" stroke="#000000" points="824.7192,-140.9909 828.2192,-150.991 831.7192,-140.991 824.7192,-140.9909"/>
</g>
<!-- OpportunitiesComponent -->
<g id="node8" class="node">
<title>OpportunitiesComponent</title>
<polygon fill="#ffffb3" stroke="#000000" points="714.3215,-122 555.6785,-122 555.6785,-86 714.3215,-86 714.3215,-122"/>
<text text-anchor="middle" x="635" y="-99.8" font-family="Times,serif" font-size="14.00" fill="#000000">OpportunitiesComponent</text>
</g>
<!-- OpportunitiesComponent&#45;&gt;CrmModule -->
<g id="edge8" class="edge">
<title>OpportunitiesComponent&#45;&gt;CrmModule</title>
<path fill="none" stroke="#000000" d="M635,-122.2396C635,-137.5706 635,-157 635,-157 635,-157 804.721,-157 804.721,-157"/>
<polygon fill="#000000" stroke="#000000" points="804.721,-160.5001 814.721,-157 804.7209,-153.5001 804.721,-160.5001"/>
</g>
<!-- ProductComponent -->
<g id="node9" class="node">
<title>ProductComponent</title>
<polygon fill="#ffffb3" stroke="#000000" points="537.3809,-122 412.6191,-122 412.6191,-86 537.3809,-86 537.3809,-122"/>
<text text-anchor="middle" x="475" y="-99.8" font-family="Times,serif" font-size="14.00" fill="#000000">ProductComponent</text>
</g>
<!-- ProductComponent&#45;&gt;CrmModule -->
<g id="edge9" class="edge">
<title>ProductComponent&#45;&gt;CrmModule</title>
<path fill="none" stroke="#000000" d="M475,-122.0225C475,-139.3734 475,-163 475,-163 475,-163 804.6598,-163 804.6598,-163"/>
<polygon fill="#000000" stroke="#000000" points="804.6598,-166.5001 814.6598,-163 804.6597,-159.5001 804.6598,-166.5001"/>
</g>
<!-- CrmRoutingModule -->
<g id="node11" class="node">
<title>CrmRoutingModule</title>
<polygon fill="#8dd3c7" stroke="#000000" points="388.5562,-122 385.5562,-126 364.5562,-126 361.5562,-122 259.4438,-122 259.4438,-86 388.5562,-86 388.5562,-122"/>
<text text-anchor="middle" x="324" y="-99.8" font-family="Times,serif" font-size="14.00" fill="#000000">CrmRoutingModule</text>
</g>
<!-- CrmRoutingModule&#45;&gt;CrmModule -->
<g id="edge10" class="edge">
<title>CrmRoutingModule&#45;&gt;CrmModule</title>
<path fill="none" stroke="#000000" d="M324,-122.1061C324,-141.3391 324,-169 324,-169 324,-169 804.7309,-169 804.7309,-169"/>
<polygon fill="#000000" stroke="#000000" points="804.7309,-172.5001 814.7309,-169 804.7308,-165.5001 804.7309,-172.5001"/>
</g>
<!-- SharedModule -->
<g id="node12" class="node">
<title>SharedModule</title>
<polygon fill="#8dd3c7" stroke="#000000" points="241.4231,-122 238.4231,-126 217.4231,-126 214.4231,-122 142.5769,-122 142.5769,-86 241.4231,-86 241.4231,-122"/>
<text text-anchor="middle" x="192" y="-99.8" font-family="Times,serif" font-size="14.00" fill="#000000">SharedModule</text>
</g>
<!-- SharedModule&#45;&gt;CrmModule -->
<g id="edge11" class="edge">
<title>SharedModule&#45;&gt;CrmModule</title>
<path fill="none" stroke="#000000" d="M192,-122.2843C192,-143.3211 192,-175 192,-175 192,-175 804.6435,-175 804.6435,-175"/>
<polygon fill="#000000" stroke="#000000" points="804.6436,-178.5001 814.6435,-175 804.6435,-171.5001 804.6436,-178.5001"/>
</g>
<!-- WidgetModule -->
<g id="node13" class="node">
<title>WidgetModule</title>
<polygon fill="#8dd3c7" stroke="#000000" points="124.2605,-122 121.2605,-126 100.2605,-126 97.2605,-122 23.7395,-122 23.7395,-86 124.2605,-86 124.2605,-122"/>
<text text-anchor="middle" x="74" y="-99.8" font-family="Times,serif" font-size="14.00" fill="#000000">WidgetModule</text>
</g>
<!-- WidgetModule&#45;&gt;CrmModule -->
<g id="edge12" class="edge">
<title>WidgetModule&#45;&gt;CrmModule</title>
<path fill="none" stroke="#000000" d="M74,-122.0908C74,-145.1328 74,-182 74,-182 74,-182 804.6249,-182 804.6249,-182"/>
<polygon fill="#000000" stroke="#000000" points="804.6249,-185.5001 814.6249,-182 804.6249,-178.5001 804.6249,-185.5001"/>
</g>
</g>
</svg>
