<?xml version="1.0" encoding="UTF-8" standalone="no"?>
<!DOCTYPE svg PUBLIC "-//W3C//DTD SVG 1.1//EN"
 "http://www.w3.org/Graphics/SVG/1.1/DTD/svg11.dtd">
<!-- Generated by graphviz version 2.40.1 (20161225.0304)
 -->
<!-- Title: dependencies Pages: 1 -->
<svg width="1546pt" height="211pt"
 viewBox="0.00 0.00 1546.00 211.00" xmlns="http://www.w3.org/2000/svg" xmlns:xlink="http://www.w3.org/1999/xlink">
<g id="graph0" class="graph" transform="scale(1 1) rotate(0) translate(4 207)">
<title>dependencies</title>
<polygon fill="#ffffff" stroke="transparent" points="-4,4 -4,-207 1542,-207 1542,4 -4,4"/>
<text text-anchor="start" x="748.0091" y="-42.4" font-family="sans-serif" font-weight="bold" font-size="14.00" fill="#000000">Legend</text>
<polygon fill="#ffffb3" stroke="transparent" points="535,-10 535,-30 555,-30 555,-10 535,-10"/>
<text text-anchor="start" x="558.629" y="-15.4" font-family="sans-serif" font-size="14.00" fill="#000000"> &#160;Declarations</text>
<polygon fill="#8dd3c7" stroke="transparent" points="648,-10 648,-30 668,-30 668,-10 648,-10"/>
<text text-anchor="start" x="671.7251" y="-15.4" font-family="sans-serif" font-size="14.00" fill="#000000"> &#160;Module</text>
<polygon fill="#80b1d3" stroke="transparent" points="734,-10 734,-30 754,-30 754,-10 734,-10"/>
<text text-anchor="start" x="757.7812" y="-15.4" font-family="sans-serif" font-size="14.00" fill="#000000"> &#160;Bootstrap</text>
<polygon fill="#fdb462" stroke="transparent" points="831,-10 831,-30 851,-30 851,-10 831,-10"/>
<text text-anchor="start" x="854.6732" y="-15.4" font-family="sans-serif" font-size="14.00" fill="#000000"> &#160;Providers</text>
<polygon fill="#fb8072" stroke="transparent" points="927,-10 927,-30 947,-30 947,-10 927,-10"/>
<text text-anchor="start" x="950.7258" y="-15.4" font-family="sans-serif" font-size="14.00" fill="#000000"> &#160;Exports</text>
<g id="clust1" class="cluster">
<title>cluster_PageLayoutsModule</title>
<polygon fill="none" stroke="#000000" stroke-dasharray="1,5" points="8,-70 8,-195 1530,-195 1530,-70 8,-70"/>
</g>
<g id="clust2" class="cluster">
<title>cluster_PageLayoutsModule_declarations</title>
<polygon fill="none" stroke="#000000" points="478,-78 478,-130 1522,-130 1522,-78 478,-78"/>
</g>
<g id="clust9" class="cluster">
<title>cluster_PageLayoutsModule_imports</title>
<polygon fill="none" stroke="#000000" points="16,-78 16,-130 470,-130 470,-78 16,-78"/>
</g>
<!-- DemoContentComponent -->
<g id="node1" class="node">
<title>DemoContentComponent</title>
<polygon fill="#ffffb3" stroke="#000000" points="1513.8766,-122 1354.1234,-122 1354.1234,-86 1513.8766,-86 1513.8766,-122"/>
<text text-anchor="middle" x="1434" y="-99.8" font-family="Times,serif" font-size="14.00" fill="#000000">DemoContentComponent</text>
</g>
<!-- PageLayoutsModule -->
<g id="node7" class="node">
<title>PageLayoutsModule</title>
<polygon fill="#8dd3c7" stroke="#000000" points="823.8641,-187 820.8641,-191 799.8641,-191 796.8641,-187 692.1359,-187 692.1359,-151 823.8641,-151 823.8641,-187"/>
<text text-anchor="middle" x="758" y="-164.8" font-family="Times,serif" font-size="14.00" fill="#000000">PageLayoutsModule</text>
</g>
<!-- DemoContentComponent&#45;&gt;PageLayoutsModule -->
<g id="edge1" class="edge">
<title>DemoContentComponent&#45;&gt;PageLayoutsModule</title>
<path fill="none" stroke="#000000" d="M1434,-122.0109C1434,-144.4852 1434,-180 1434,-180 1434,-180 834.0486,-180 834.0486,-180"/>
<polygon fill="#000000" stroke="#000000" points="834.0486,-176.5001 824.0486,-180 834.0485,-183.5001 834.0486,-176.5001"/>
</g>
<!-- Fullwidth2Component -->
<g id="node2" class="node">
<title>Fullwidth2Component</title>
<polygon fill="#ffffb3" stroke="#000000" points="1336.2842,-122 1193.7158,-122 1193.7158,-86 1336.2842,-86 1336.2842,-122"/>
<text text-anchor="middle" x="1265" y="-99.8" font-family="Times,serif" font-size="14.00" fill="#000000">Fullwidth2Component</text>
</g>
<!-- Fullwidth2Component&#45;&gt;PageLayoutsModule -->
<g id="edge2" class="edge">
<title>Fullwidth2Component&#45;&gt;PageLayoutsModule</title>
<path fill="none" stroke="#000000" d="M1265,-122.1289C1265,-142.5724 1265,-173 1265,-173 1265,-173 834.0213,-173 834.0213,-173"/>
<polygon fill="#000000" stroke="#000000" points="834.0213,-169.5001 824.0213,-173 834.0213,-176.5001 834.0213,-169.5001"/>
</g>
<!-- FullwidthComponent -->
<g id="node3" class="node">
<title>FullwidthComponent</title>
<polygon fill="#ffffb3" stroke="#000000" points="1175.7842,-122 1040.2158,-122 1040.2158,-86 1175.7842,-86 1175.7842,-122"/>
<text text-anchor="middle" x="1108" y="-99.8" font-family="Times,serif" font-size="14.00" fill="#000000">FullwidthComponent</text>
</g>
<!-- FullwidthComponent&#45;&gt;PageLayoutsModule -->
<g id="edge3" class="edge">
<title>FullwidthComponent&#45;&gt;PageLayoutsModule</title>
<path fill="none" stroke="#000000" d="M1108,-122.2667C1108,-140.5552 1108,-166 1108,-166 1108,-166 834.2438,-166 834.2438,-166"/>
<polygon fill="#000000" stroke="#000000" points="834.2438,-162.5001 824.2438,-166 834.2438,-169.5001 834.2438,-162.5001"/>
</g>
<!-- LeftSidenavComponent -->
<g id="node4" class="node">
<title>LeftSidenavComponent</title>
<polygon fill="#ffffb3" stroke="#000000" points="1021.7534,-122 872.2466,-122 872.2466,-86 1021.7534,-86 1021.7534,-122"/>
<text text-anchor="middle" x="947" y="-99.8" font-family="Times,serif" font-size="14.00" fill="#000000">LeftSidenavComponent</text>
</g>
<!-- LeftSidenavComponent&#45;&gt;PageLayoutsModule -->
<g id="edge4" class="edge">
<title>LeftSidenavComponent&#45;&gt;PageLayoutsModule</title>
<path fill="none" stroke="#000000" d="M947,-122.0091C947,-138.0494 947,-159 947,-159 947,-159 834.103,-159 834.103,-159"/>
<polygon fill="#000000" stroke="#000000" points="834.1031,-155.5001 824.103,-159 834.103,-162.5001 834.1031,-155.5001"/>
</g>
<!-- LeftSidenavTabbedComponent -->
<g id="node5" class="node">
<title>LeftSidenavTabbedComponent</title>
<polygon fill="#ffffb3" stroke="#000000" points="853.7352,-122 662.2648,-122 662.2648,-86 853.7352,-86 853.7352,-122"/>
<text text-anchor="middle" x="758" y="-99.8" font-family="Times,serif" font-size="14.00" fill="#000000">LeftSidenavTabbedComponent</text>
</g>
<!-- LeftSidenavTabbedComponent&#45;&gt;PageLayoutsModule -->
<g id="edge5" class="edge">
<title>LeftSidenavTabbedComponent&#45;&gt;PageLayoutsModule</title>
<path fill="none" stroke="#000000" d="M758,-122.1061C758,-122.1061 758,-140.991 758,-140.991"/>
<polygon fill="#000000" stroke="#000000" points="754.5001,-140.9909 758,-150.991 761.5001,-140.991 754.5001,-140.9909"/>
</g>
<!-- RightSidenavComponent -->
<g id="node6" class="node">
<title>RightSidenavComponent</title>
<polygon fill="#ffffb3" stroke="#000000" points="643.5532,-122 486.4468,-122 486.4468,-86 643.5532,-86 643.5532,-122"/>
<text text-anchor="middle" x="565" y="-99.8" font-family="Times,serif" font-size="14.00" fill="#000000">RightSidenavComponent</text>
</g>
<!-- RightSidenavComponent&#45;&gt;PageLayoutsModule -->
<g id="edge6" class="edge">
<title>RightSidenavComponent&#45;&gt;PageLayoutsModule</title>
<path fill="none" stroke="#000000" d="M565,-122.0091C565,-138.0494 565,-159 565,-159 565,-159 682.1202,-159 682.1202,-159"/>
<polygon fill="#000000" stroke="#000000" points="682.1202,-162.5001 692.1202,-159 682.1201,-155.5001 682.1202,-162.5001"/>
</g>
<!-- BaseLayoutModule -->
<g id="node8" class="node">
<title>BaseLayoutModule</title>
<polygon fill="#8dd3c7" stroke="#000000" points="462.4187,-122 459.4187,-126 438.4187,-126 435.4187,-122 335.5813,-122 335.5813,-86 462.4187,-86 462.4187,-122"/>
<text text-anchor="middle" x="399" y="-99.8" font-family="Times,serif" font-size="14.00" fill="#000000">BaseLayoutModule</text>
</g>
<!-- BaseLayoutModule&#45;&gt;PageLayoutsModule -->
<g id="edge7" class="edge">
<title>BaseLayoutModule&#45;&gt;PageLayoutsModule</title>
<path fill="none" stroke="#000000" d="M399,-122.2667C399,-140.5552 399,-166 399,-166 399,-166 681.7355,-166 681.7355,-166"/>
<polygon fill="#000000" stroke="#000000" points="681.7355,-169.5001 691.7355,-166 681.7355,-162.5001 681.7355,-169.5001"/>
</g>
<!-- PageLayoutsRoutingModule -->
<g id="node9" class="node">
<title>PageLayoutsRoutingModule</title>
<polygon fill="#8dd3c7" stroke="#000000" points="317.4818,-122 314.4818,-126 293.4818,-126 290.4818,-122 140.5182,-122 140.5182,-86 317.4818,-86 317.4818,-122"/>
<text text-anchor="middle" x="229" y="-99.8" font-family="Times,serif" font-size="14.00" fill="#000000">PageLayoutsRoutingModule</text>
</g>
<!-- PageLayoutsRoutingModule&#45;&gt;PageLayoutsModule -->
<g id="edge8" class="edge">
<title>PageLayoutsRoutingModule&#45;&gt;PageLayoutsModule</title>
<path fill="none" stroke="#000000" d="M229,-122.1289C229,-142.5724 229,-173 229,-173 229,-173 682.0714,-173 682.0714,-173"/>
<polygon fill="#000000" stroke="#000000" points="682.0714,-176.5001 692.0714,-173 682.0713,-169.5001 682.0714,-176.5001"/>
</g>
<!-- SharedModule -->
<g id="node10" class="node">
<title>SharedModule</title>
<polygon fill="#8dd3c7" stroke="#000000" points="122.4231,-122 119.4231,-126 98.4231,-126 95.4231,-122 23.5769,-122 23.5769,-86 122.4231,-86 122.4231,-122"/>
<text text-anchor="middle" x="73" y="-99.8" font-family="Times,serif" font-size="14.00" fill="#000000">SharedModule</text>
</g>
<!-- SharedModule&#45;&gt;PageLayoutsModule -->
<g id="edge9" class="edge">
<title>SharedModule&#45;&gt;PageLayoutsModule</title>
<path fill="none" stroke="#000000" d="M73,-122.0109C73,-144.4852 73,-180 73,-180 73,-180 682.0084,-180 682.0084,-180"/>
<polygon fill="#000000" stroke="#000000" points="682.0085,-183.5001 692.0084,-180 682.0084,-176.5001 682.0085,-183.5001"/>
</g>
</g>
</svg>
