<?xml version="1.0" encoding="UTF-8" standalone="no"?>
<!DOCTYPE svg PUBLIC "-//W3C//DTD SVG 1.1//EN"
 "http://www.w3.org/Graphics/SVG/1.1/DTD/svg11.dtd">
<!-- Generated by graphviz version 2.40.1 (20161225.0304)
 -->
<!-- Title: dependencies Pages: 1 -->
<svg width="509pt" height="211pt"
 viewBox="0.00 0.00 509.00 211.00" xmlns="http://www.w3.org/2000/svg" xmlns:xlink="http://www.w3.org/1999/xlink">
<g id="graph0" class="graph" transform="scale(1 1) rotate(0) translate(4 207)">
<title>dependencies</title>
<polygon fill="#ffffff" stroke="transparent" points="-4,4 -4,-207 505,-207 505,4 -4,4"/>
<text text-anchor="start" x="229.5091" y="-42.4" font-family="sans-serif" font-weight="bold" font-size="14.00" fill="#000000">Legend</text>
<polygon fill="#ffffb3" stroke="transparent" points="16.5,-10 16.5,-30 36.5,-30 36.5,-10 16.5,-10"/>
<text text-anchor="start" x="40.129" y="-15.4" font-family="sans-serif" font-size="14.00" fill="#000000"> &#160;Declarations</text>
<polygon fill="#8dd3c7" stroke="transparent" points="129.5,-10 129.5,-30 149.5,-30 149.5,-10 129.5,-10"/>
<text text-anchor="start" x="153.2251" y="-15.4" font-family="sans-serif" font-size="14.00" fill="#000000"> &#160;Module</text>
<polygon fill="#80b1d3" stroke="transparent" points="215.5,-10 215.5,-30 235.5,-30 235.5,-10 215.5,-10"/>
<text text-anchor="start" x="239.2812" y="-15.4" font-family="sans-serif" font-size="14.00" fill="#000000"> &#160;Bootstrap</text>
<polygon fill="#fdb462" stroke="transparent" points="312.5,-10 312.5,-30 332.5,-30 332.5,-10 312.5,-10"/>
<text text-anchor="start" x="336.1732" y="-15.4" font-family="sans-serif" font-size="14.00" fill="#000000"> &#160;Providers</text>
<polygon fill="#fb8072" stroke="transparent" points="408.5,-10 408.5,-30 428.5,-30 428.5,-10 408.5,-10"/>
<text text-anchor="start" x="432.2258" y="-15.4" font-family="sans-serif" font-size="14.00" fill="#000000"> &#160;Exports</text>
<g id="clust1" class="cluster">
<title>cluster_PageLayoutsModule</title>
<polygon fill="none" stroke="#000000" stroke-dasharray="1,5" points="8,-70 8,-195 493,-195 493,-70 8,-70"/>
</g>
<g id="clust2" class="cluster">
<title>cluster_PageLayoutsModule_declarations</title>
<polygon fill="none" stroke="#000000" points="333,-78 333,-130 485,-130 485,-78 333,-78"/>
</g>
<g id="clust4" class="cluster">
<title>cluster_PageLayoutsModule_imports</title>
<polygon fill="none" stroke="#000000" points="16,-78 16,-130 325,-130 325,-78 16,-78"/>
</g>
<!-- FullwidthComponent -->
<g id="node1" class="node">
<title>FullwidthComponent</title>
<polygon fill="#ffffb3" stroke="#000000" points="476.7842,-122 341.2158,-122 341.2158,-86 476.7842,-86 476.7842,-122"/>
<text text-anchor="middle" x="409" y="-99.8" font-family="Times,serif" font-size="14.00" fill="#000000">FullwidthComponent</text>
</g>
<!-- PageLayoutsModule -->
<g id="node2" class="node">
<title>PageLayoutsModule</title>
<polygon fill="#8dd3c7" stroke="#000000" points="333.8641,-187 330.8641,-191 309.8641,-191 306.8641,-187 202.1359,-187 202.1359,-151 333.8641,-151 333.8641,-187"/>
<text text-anchor="middle" x="268" y="-164.8" font-family="Times,serif" font-size="14.00" fill="#000000">PageLayoutsModule</text>
</g>
<!-- FullwidthComponent&#45;&gt;PageLayoutsModule -->
<g id="edge1" class="edge">
<title>FullwidthComponent&#45;&gt;PageLayoutsModule</title>
<path fill="none" stroke="#000000" d="M340.8736,-104C331.8093,-104 325.5716,-104 325.5716,-104 325.5716,-104 325.5716,-140.8939 325.5716,-140.8939"/>
<polygon fill="#000000" stroke="#000000" points="322.0716,-140.8938 325.5716,-150.8939 329.0716,-140.8939 322.0716,-140.8938"/>
</g>
<!-- SharedModule -->
<g id="node3" class="node">
<title>SharedModule</title>
<polygon fill="#8dd3c7" stroke="#000000" points="317.4231,-122 314.4231,-126 293.4231,-126 290.4231,-122 218.5769,-122 218.5769,-86 317.4231,-86 317.4231,-122"/>
<text text-anchor="middle" x="268" y="-99.8" font-family="Times,serif" font-size="14.00" fill="#000000">SharedModule</text>
</g>
<!-- SharedModule&#45;&gt;PageLayoutsModule -->
<g id="edge2" class="edge">
<title>SharedModule&#45;&gt;PageLayoutsModule</title>
<path fill="none" stroke="#000000" d="M268,-122.1061C268,-122.1061 268,-140.991 268,-140.991"/>
<polygon fill="#000000" stroke="#000000" points="264.5001,-140.9909 268,-150.991 271.5001,-140.991 264.5001,-140.9909"/>
</g>
<!-- PageLayoutsRoutingModule -->
<g id="node4" class="node">
<title>PageLayoutsRoutingModule</title>
<polygon fill="#8dd3c7" stroke="#000000" points="200.4818,-122 197.4818,-126 176.4818,-126 173.4818,-122 23.5182,-122 23.5182,-86 200.4818,-86 200.4818,-122"/>
<text text-anchor="middle" x="112" y="-99.8" font-family="Times,serif" font-size="14.00" fill="#000000">PageLayoutsRoutingModule</text>
</g>
<!-- PageLayoutsRoutingModule&#45;&gt;PageLayoutsModule -->
<g id="edge3" class="edge">
<title>PageLayoutsRoutingModule&#45;&gt;PageLayoutsModule</title>
<path fill="none" stroke="#000000" d="M200.6309,-104C206.6737,-104 210.4285,-104 210.4285,-104 210.4285,-104 210.4285,-140.8939 210.4285,-140.8939"/>
<polygon fill="#000000" stroke="#000000" points="206.9285,-140.8938 210.4285,-150.8939 213.9285,-140.8939 206.9285,-140.8938"/>
</g>
</g>
</svg>
