<?xml version="1.0" encoding="UTF-8" standalone="no"?>
<!DOCTYPE svg PUBLIC "-//W3C//DTD SVG 1.1//EN"
 "http://www.w3.org/Graphics/SVG/1.1/DTD/svg11.dtd">
<!-- Generated by graphviz version 2.40.1 (20161225.0304)
 -->
<!-- Title: dependencies Pages: 1 -->
<svg width="559pt" height="284pt"
 viewBox="0.00 0.00 559.00 284.00" xmlns="http://www.w3.org/2000/svg" xmlns:xlink="http://www.w3.org/1999/xlink">
<g id="graph0" class="graph" transform="scale(1 1) rotate(0) translate(4 280)">
<title>dependencies</title>
<polygon fill="#ffffff" stroke="transparent" points="-4,4 -4,-280 555,-280 555,4 -4,4"/>
<text text-anchor="start" x="254.5091" y="-42.4" font-family="sans-serif" font-weight="bold" font-size="14.00" fill="#000000">Legend</text>
<polygon fill="#ffffb3" stroke="transparent" points="41.5,-10 41.5,-30 61.5,-30 61.5,-10 41.5,-10"/>
<text text-anchor="start" x="65.129" y="-15.4" font-family="sans-serif" font-size="14.00" fill="#000000"> &#160;Declarations</text>
<polygon fill="#8dd3c7" stroke="transparent" points="154.5,-10 154.5,-30 174.5,-30 174.5,-10 154.5,-10"/>
<text text-anchor="start" x="178.2251" y="-15.4" font-family="sans-serif" font-size="14.00" fill="#000000"> &#160;Module</text>
<polygon fill="#80b1d3" stroke="transparent" points="240.5,-10 240.5,-30 260.5,-30 260.5,-10 240.5,-10"/>
<text text-anchor="start" x="264.2812" y="-15.4" font-family="sans-serif" font-size="14.00" fill="#000000"> &#160;Bootstrap</text>
<polygon fill="#fdb462" stroke="transparent" points="337.5,-10 337.5,-30 357.5,-30 357.5,-10 337.5,-10"/>
<text text-anchor="start" x="361.1732" y="-15.4" font-family="sans-serif" font-size="14.00" fill="#000000"> &#160;Providers</text>
<polygon fill="#fb8072" stroke="transparent" points="433.5,-10 433.5,-30 453.5,-30 453.5,-10 433.5,-10"/>
<text text-anchor="start" x="457.2258" y="-15.4" font-family="sans-serif" font-size="14.00" fill="#000000"> &#160;Exports</text>
<g id="clust1" class="cluster">
<title>cluster_NotificaitonModule</title>
<polygon fill="none" stroke="#000000" stroke-dasharray="1,5" points="8,-70 8,-268 543,-268 543,-70 8,-70"/>
</g>
<g id="clust2" class="cluster">
<title>cluster_NotificaitonModule_declarations</title>
<polygon fill="none" stroke="#000000" points="214,-78 214,-130 535,-130 535,-78 214,-78"/>
</g>
<g id="clust6" class="cluster">
<title>cluster_NotificaitonModule_exports</title>
<polygon fill="none" stroke="#000000" points="212,-208 212,-260 370,-260 370,-208 212,-208"/>
</g>
<g id="clust8" class="cluster">
<title>cluster_NotificaitonModule_providers</title>
<polygon fill="none" stroke="#000000" points="16,-78 16,-130 206,-130 206,-78 16,-78"/>
</g>
<!-- NotificationComponent -->
<g id="node1" class="node">
<title>NotificationComponent</title>
<polygon fill="#ffffb3" stroke="#000000" points="527.4818,-122 378.5182,-122 378.5182,-86 527.4818,-86 527.4818,-122"/>
<text text-anchor="middle" x="453" y="-99.8" font-family="Times,serif" font-size="14.00" fill="#000000">NotificationComponent</text>
</g>
<!-- NotificaitonModule -->
<g id="node3" class="node">
<title>NotificaitonModule</title>
<polygon fill="#8dd3c7" stroke="#000000" points="354.6994,-187 351.6994,-191 330.6994,-191 327.6994,-187 227.3006,-187 227.3006,-151 354.6994,-151 354.6994,-187"/>
<text text-anchor="middle" x="291" y="-164.8" font-family="Times,serif" font-size="14.00" fill="#000000">NotificaitonModule</text>
</g>
<!-- NotificationComponent&#45;&gt;NotificaitonModule -->
<g id="edge1" class="edge">
<title>NotificationComponent&#45;&gt;NotificaitonModule</title>
<path fill="none" stroke="#000000" d="M453,-122.1061C453,-141.3391 453,-169 453,-169 453,-169 365.0267,-169 365.0267,-169"/>
<polygon fill="#000000" stroke="#000000" points="365.0267,-165.5001 355.0267,-169 365.0267,-172.5001 365.0267,-165.5001"/>
</g>
<!-- NotificationContainer -->
<g id="node2" class="node">
<title>NotificationContainer</title>
<polygon fill="#ffffb3" stroke="#000000" points="360.3571,-122 221.6429,-122 221.6429,-86 360.3571,-86 360.3571,-122"/>
<text text-anchor="middle" x="291" y="-99.8" font-family="Times,serif" font-size="14.00" fill="#000000">NotificationContainer</text>
</g>
<!-- NotificationContainer&#45;&gt;NotificaitonModule -->
<g id="edge2" class="edge">
<title>NotificationContainer&#45;&gt;NotificaitonModule</title>
<path fill="none" stroke="#000000" d="M291,-122.1061C291,-122.1061 291,-140.991 291,-140.991"/>
<polygon fill="#000000" stroke="#000000" points="287.5001,-140.9909 291,-150.991 294.5001,-140.991 287.5001,-140.9909"/>
</g>
<!-- NotificationContainer  -->
<g id="node4" class="node">
<title>NotificationContainer </title>
<polygon fill="#fb8072" stroke="#000000" points="362.3574,-252 219.6426,-252 219.6426,-216 362.3574,-216 362.3574,-252"/>
<text text-anchor="middle" x="291" y="-229.8" font-family="Times,serif" font-size="14.00" fill="#000000">NotificationContainer </text>
</g>
<!-- NotificaitonModule&#45;&gt;NotificationContainer  -->
<g id="edge3" class="edge">
<title>NotificaitonModule&#45;&gt;NotificationContainer </title>
<path fill="none" stroke="#000000" stroke-dasharray="5,2" d="M291,-187.1061C291,-187.1061 291,-205.991 291,-205.991"/>
<polygon fill="#000000" stroke="#000000" points="287.5001,-205.9909 291,-215.991 294.5001,-205.991 287.5001,-205.9909"/>
</g>
<!-- NotificationService -->
<g id="node5" class="node">
<title>NotificationService</title>
<ellipse fill="#fdb462" stroke="#000000" cx="111" cy="-104" rx="86.8107" ry="18"/>
<text text-anchor="middle" x="111" y="-99.8" font-family="Times,serif" font-size="14.00" fill="#000000">NotificationService</text>
</g>
<!-- NotificationService&#45;&gt;NotificaitonModule -->
<g id="edge4" class="edge">
<title>NotificationService&#45;&gt;NotificaitonModule</title>
<path fill="none" stroke="#000000" d="M111,-122.1061C111,-141.3391 111,-169 111,-169 111,-169 217.2854,-169 217.2854,-169"/>
<polygon fill="#000000" stroke="#000000" points="217.2855,-172.5001 227.2854,-169 217.2854,-165.5001 217.2855,-172.5001"/>
</g>
</g>
</svg>
