<?xml version="1.0" encoding="UTF-8" standalone="no"?>
<!DOCTYPE svg PUBLIC "-//W3C//DTD SVG 1.1//EN"
 "http://www.w3.org/Graphics/SVG/1.1/DTD/svg11.dtd">
<!-- Generated by graphviz version 2.40.1 (20161225.0304)
 -->
<!-- Title: dependencies Pages: 1 -->
<svg width="504pt" height="284pt"
 viewBox="0.00 0.00 504.00 284.00" xmlns="http://www.w3.org/2000/svg" xmlns:xlink="http://www.w3.org/1999/xlink">
<g id="graph0" class="graph" transform="scale(1 1) rotate(0) translate(4 280)">
<title>dependencies</title>
<polygon fill="#ffffff" stroke="transparent" points="-4,4 -4,-280 500,-280 500,4 -4,4"/>
<text text-anchor="start" x="227.0091" y="-42.4" font-family="sans-serif" font-weight="bold" font-size="14.00" fill="#000000">Legend</text>
<polygon fill="#ffffb3" stroke="transparent" points="14,-10 14,-30 34,-30 34,-10 14,-10"/>
<text text-anchor="start" x="37.629" y="-15.4" font-family="sans-serif" font-size="14.00" fill="#000000"> &#160;Declarations</text>
<polygon fill="#8dd3c7" stroke="transparent" points="127,-10 127,-30 147,-30 147,-10 127,-10"/>
<text text-anchor="start" x="150.7251" y="-15.4" font-family="sans-serif" font-size="14.00" fill="#000000"> &#160;Module</text>
<polygon fill="#80b1d3" stroke="transparent" points="213,-10 213,-30 233,-30 233,-10 213,-10"/>
<text text-anchor="start" x="236.7812" y="-15.4" font-family="sans-serif" font-size="14.00" fill="#000000"> &#160;Bootstrap</text>
<polygon fill="#fdb462" stroke="transparent" points="310,-10 310,-30 330,-30 330,-10 310,-10"/>
<text text-anchor="start" x="333.6732" y="-15.4" font-family="sans-serif" font-size="14.00" fill="#000000"> &#160;Providers</text>
<polygon fill="#fb8072" stroke="transparent" points="406,-10 406,-30 426,-30 426,-10 406,-10"/>
<text text-anchor="start" x="429.7258" y="-15.4" font-family="sans-serif" font-size="14.00" fill="#000000"> &#160;Exports</text>
<g id="clust1" class="cluster">
<title>cluster_WidgetModule</title>
<polygon fill="none" stroke="#000000" stroke-dasharray="1,5" points="116,-70 116,-268 380,-268 380,-70 116,-70"/>
</g>
<g id="clust2" class="cluster">
<title>cluster_WidgetModule_declarations</title>
<polygon fill="none" stroke="#000000" points="246,-78 246,-130 372,-130 372,-78 246,-78"/>
</g>
<g id="clust4" class="cluster">
<title>cluster_WidgetModule_imports</title>
<polygon fill="none" stroke="#000000" points="124,-78 124,-130 238,-130 238,-78 124,-78"/>
</g>
<g id="clust5" class="cluster">
<title>cluster_WidgetModule_exports</title>
<polygon fill="none" stroke="#000000" points="184,-208 184,-260 312,-260 312,-208 184,-208"/>
</g>
<!-- StateComponent -->
<g id="node1" class="node">
<title>StateComponent</title>
<polygon fill="#ffffb3" stroke="#000000" points="363.8259,-122 254.1741,-122 254.1741,-86 363.8259,-86 363.8259,-122"/>
<text text-anchor="middle" x="309" y="-99.8" font-family="Times,serif" font-size="14.00" fill="#000000">StateComponent</text>
</g>
<!-- WidgetModule -->
<g id="node2" class="node">
<title>WidgetModule</title>
<polygon fill="#8dd3c7" stroke="#000000" points="298.2605,-187 295.2605,-191 274.2605,-191 271.2605,-187 197.7395,-187 197.7395,-151 298.2605,-151 298.2605,-187"/>
<text text-anchor="middle" x="248" y="-164.8" font-family="Times,serif" font-size="14.00" fill="#000000">WidgetModule</text>
</g>
<!-- StateComponent&#45;&gt;WidgetModule -->
<g id="edge1" class="edge">
<title>StateComponent&#45;&gt;WidgetModule</title>
<path fill="none" stroke="#000000" d="M276.3587,-122.1061C276.3587,-122.1061 276.3587,-140.991 276.3587,-140.991"/>
<polygon fill="#000000" stroke="#000000" points="272.8588,-140.9909 276.3587,-150.991 279.8588,-140.991 272.8588,-140.9909"/>
</g>
<!-- StateComponent  -->
<g id="node4" class="node">
<title>StateComponent </title>
<polygon fill="#fb8072" stroke="#000000" points="304.3255,-252 191.6745,-252 191.6745,-216 304.3255,-216 304.3255,-252"/>
<text text-anchor="middle" x="248" y="-229.8" font-family="Times,serif" font-size="14.00" fill="#000000">StateComponent </text>
</g>
<!-- WidgetModule&#45;&gt;StateComponent  -->
<g id="edge3" class="edge">
<title>WidgetModule&#45;&gt;StateComponent </title>
<path fill="none" stroke="#000000" stroke-dasharray="5,2" d="M248,-187.1061C248,-187.1061 248,-205.991 248,-205.991"/>
<polygon fill="#000000" stroke="#000000" points="244.5001,-205.9909 248,-215.991 251.5001,-205.991 244.5001,-205.9909"/>
</g>
<!-- SharedModule -->
<g id="node3" class="node">
<title>SharedModule</title>
<polygon fill="#8dd3c7" stroke="#000000" points="230.4231,-122 227.4231,-126 206.4231,-126 203.4231,-122 131.5769,-122 131.5769,-86 230.4231,-86 230.4231,-122"/>
<text text-anchor="middle" x="181" y="-99.8" font-family="Times,serif" font-size="14.00" fill="#000000">SharedModule</text>
</g>
<!-- SharedModule&#45;&gt;WidgetModule -->
<g id="edge2" class="edge">
<title>SharedModule&#45;&gt;WidgetModule</title>
<path fill="none" stroke="#000000" d="M213.9155,-122.1061C213.9155,-122.1061 213.9155,-140.991 213.9155,-140.991"/>
<polygon fill="#000000" stroke="#000000" points="210.4156,-140.9909 213.9155,-150.991 217.4156,-140.991 210.4156,-140.9909"/>
</g>
</g>
</svg>
