<?xml version="1.0" encoding="UTF-8" standalone="no"?>
<!DOCTYPE svg PUBLIC "-//W3C//DTD SVG 1.1//EN"
 "http://www.w3.org/Graphics/SVG/1.1/DTD/svg11.dtd">
<!-- Generated by graphviz version 2.40.1 (20161225.0304)
 -->
<!-- Title: dependencies Pages: 1 -->
<svg width="504pt" height="284pt"
 viewBox="0.00 0.00 504.00 284.00" xmlns="http://www.w3.org/2000/svg" xmlns:xlink="http://www.w3.org/1999/xlink">
<g id="graph0" class="graph" transform="scale(1 1) rotate(0) translate(4 280)">
<title>dependencies</title>
<polygon fill="#ffffff" stroke="transparent" points="-4,4 -4,-280 500,-280 500,4 -4,4"/>
<text text-anchor="start" x="227.0091" y="-42.4" font-family="sans-serif" font-weight="bold" font-size="14.00" fill="#000000">Legend</text>
<polygon fill="#ffffb3" stroke="transparent" points="14,-10 14,-30 34,-30 34,-10 14,-10"/>
<text text-anchor="start" x="37.629" y="-15.4" font-family="sans-serif" font-size="14.00" fill="#000000"> &#160;Declarations</text>
<polygon fill="#8dd3c7" stroke="transparent" points="127,-10 127,-30 147,-30 147,-10 127,-10"/>
<text text-anchor="start" x="150.7251" y="-15.4" font-family="sans-serif" font-size="14.00" fill="#000000"> &#160;Module</text>
<polygon fill="#80b1d3" stroke="transparent" points="213,-10 213,-30 233,-30 233,-10 213,-10"/>
<text text-anchor="start" x="236.7812" y="-15.4" font-family="sans-serif" font-size="14.00" fill="#000000"> &#160;Bootstrap</text>
<polygon fill="#fdb462" stroke="transparent" points="310,-10 310,-30 330,-30 330,-10 310,-10"/>
<text text-anchor="start" x="333.6732" y="-15.4" font-family="sans-serif" font-size="14.00" fill="#000000"> &#160;Providers</text>
<polygon fill="#fb8072" stroke="transparent" points="406,-10 406,-30 426,-30 426,-10 406,-10"/>
<text text-anchor="start" x="429.7258" y="-15.4" font-family="sans-serif" font-size="14.00" fill="#000000"> &#160;Exports</text>
<g id="clust1" class="cluster">
<title>cluster_WidgetModule</title>
<polygon fill="none" stroke="#000000" stroke-dasharray="1,5" points="47,-70 47,-268 449,-268 449,-70 47,-70"/>
</g>
<g id="clust2" class="cluster">
<title>cluster_WidgetModule_declarations</title>
<polygon fill="none" stroke="#000000" points="177,-78 177,-130 441,-130 441,-78 177,-78"/>
</g>
<g id="clust5" class="cluster">
<title>cluster_WidgetModule_imports</title>
<polygon fill="none" stroke="#000000" points="55,-78 55,-130 169,-130 169,-78 55,-78"/>
</g>
<g id="clust6" class="cluster">
<title>cluster_WidgetModule_exports</title>
<polygon fill="none" stroke="#000000" points="113,-208 113,-260 383,-260 383,-208 113,-208"/>
</g>
<!-- StateComponent -->
<g id="node1" class="node">
<title>StateComponent</title>
<polygon fill="#ffffb3" stroke="#000000" points="432.8259,-122 323.1741,-122 323.1741,-86 432.8259,-86 432.8259,-122"/>
<text text-anchor="middle" x="378" y="-99.8" font-family="Times,serif" font-size="14.00" fill="#000000">StateComponent</text>
</g>
<!-- WidgetModule -->
<g id="node3" class="node">
<title>WidgetModule</title>
<polygon fill="#8dd3c7" stroke="#000000" points="295.2605,-187 292.2605,-191 271.2605,-191 268.2605,-187 194.7395,-187 194.7395,-151 295.2605,-151 295.2605,-187"/>
<text text-anchor="middle" x="245" y="-164.8" font-family="Times,serif" font-size="14.00" fill="#000000">WidgetModule</text>
</g>
<!-- StateComponent&#45;&gt;WidgetModule -->
<g id="edge1" class="edge">
<title>StateComponent&#45;&gt;WidgetModule</title>
<path fill="none" stroke="#000000" d="M349.375,-122.1061C349.375,-141.3391 349.375,-169 349.375,-169 349.375,-169 305.3531,-169 305.3531,-169"/>
<polygon fill="#000000" stroke="#000000" points="305.3532,-165.5001 295.3531,-169 305.3531,-172.5001 305.3532,-165.5001"/>
</g>
<!-- SwitchComponent -->
<g id="node2" class="node">
<title>SwitchComponent</title>
<polygon fill="#ffffb3" stroke="#000000" points="305.2176,-122 184.7824,-122 184.7824,-86 305.2176,-86 305.2176,-122"/>
<text text-anchor="middle" x="245" y="-99.8" font-family="Times,serif" font-size="14.00" fill="#000000">SwitchComponent</text>
</g>
<!-- SwitchComponent&#45;&gt;WidgetModule -->
<g id="edge2" class="edge">
<title>SwitchComponent&#45;&gt;WidgetModule</title>
<path fill="none" stroke="#000000" d="M245,-122.1061C245,-122.1061 245,-140.991 245,-140.991"/>
<polygon fill="#000000" stroke="#000000" points="241.5001,-140.9909 245,-150.991 248.5001,-140.991 241.5001,-140.9909"/>
</g>
<!-- StateComponent  -->
<g id="node5" class="node">
<title>StateComponent </title>
<polygon fill="#fb8072" stroke="#000000" points="375.3255,-252 262.6745,-252 262.6745,-216 375.3255,-216 375.3255,-252"/>
<text text-anchor="middle" x="319" y="-229.8" font-family="Times,serif" font-size="14.00" fill="#000000">StateComponent </text>
</g>
<!-- WidgetModule&#45;&gt;StateComponent  -->
<g id="edge4" class="edge">
<title>WidgetModule&#45;&gt;StateComponent </title>
<path fill="none" stroke="#000000" stroke-dasharray="5,2" d="M278.9837,-187.1061C278.9837,-187.1061 278.9837,-205.991 278.9837,-205.991"/>
<polygon fill="#000000" stroke="#000000" points="275.4838,-205.9909 278.9837,-215.991 282.4838,-205.991 275.4838,-205.9909"/>
</g>
<!-- SwitchComponent  -->
<g id="node6" class="node">
<title>SwitchComponent </title>
<polygon fill="#fb8072" stroke="#000000" points="244.7177,-252 121.2823,-252 121.2823,-216 244.7177,-216 244.7177,-252"/>
<text text-anchor="middle" x="183" y="-229.8" font-family="Times,serif" font-size="14.00" fill="#000000">SwitchComponent </text>
</g>
<!-- WidgetModule&#45;&gt;SwitchComponent  -->
<g id="edge5" class="edge">
<title>WidgetModule&#45;&gt;SwitchComponent </title>
<path fill="none" stroke="#000000" stroke-dasharray="5,2" d="M219.7393,-187.1061C219.7393,-187.1061 219.7393,-205.991 219.7393,-205.991"/>
<polygon fill="#000000" stroke="#000000" points="216.2394,-205.9909 219.7393,-215.991 223.2394,-205.991 216.2394,-205.9909"/>
</g>
<!-- SharedModule -->
<g id="node4" class="node">
<title>SharedModule</title>
<polygon fill="#8dd3c7" stroke="#000000" points="161.4231,-122 158.4231,-126 137.4231,-126 134.4231,-122 62.5769,-122 62.5769,-86 161.4231,-86 161.4231,-122"/>
<text text-anchor="middle" x="112" y="-99.8" font-family="Times,serif" font-size="14.00" fill="#000000">SharedModule</text>
</g>
<!-- SharedModule&#45;&gt;WidgetModule -->
<g id="edge3" class="edge">
<title>SharedModule&#45;&gt;WidgetModule</title>
<path fill="none" stroke="#000000" d="M141.1762,-122.1061C141.1762,-141.3391 141.1762,-169 141.1762,-169 141.1762,-169 184.6088,-169 184.6088,-169"/>
<polygon fill="#000000" stroke="#000000" points="184.6088,-172.5001 194.6088,-169 184.6087,-165.5001 184.6088,-172.5001"/>
</g>
</g>
</svg>
