<?xml version="1.0" encoding="UTF-8" standalone="no"?>
<!DOCTYPE svg PUBLIC "-//W3C//DTD SVG 1.1//EN"
 "http://www.w3.org/Graphics/SVG/1.1/DTD/svg11.dtd">
<!-- Generated by graphviz version 2.40.1 (20161225.0304)
 -->
<!-- Title: dependencies Pages: 1 -->
<svg width="559pt" height="284pt"
 viewBox="0.00 0.00 559.00 284.00" xmlns="http://www.w3.org/2000/svg" xmlns:xlink="http://www.w3.org/1999/xlink">
<g id="graph0" class="graph" transform="scale(1 1) rotate(0) translate(4 280)">
<title>dependencies</title>
<polygon fill="#ffffff" stroke="transparent" points="-4,4 -4,-280 555,-280 555,4 -4,4"/>
<text text-anchor="start" x="254.5091" y="-42.4" font-family="sans-serif" font-weight="bold" font-size="14.00" fill="#000000">Legend</text>
<polygon fill="#ffffb3" stroke="transparent" points="41.5,-10 41.5,-30 61.5,-30 61.5,-10 41.5,-10"/>
<text text-anchor="start" x="65.129" y="-15.4" font-family="sans-serif" font-size="14.00" fill="#000000"> &#160;Declarations</text>
<polygon fill="#8dd3c7" stroke="transparent" points="154.5,-10 154.5,-30 174.5,-30 174.5,-10 154.5,-10"/>
<text text-anchor="start" x="178.2251" y="-15.4" font-family="sans-serif" font-size="14.00" fill="#000000"> &#160;Module</text>
<polygon fill="#80b1d3" stroke="transparent" points="240.5,-10 240.5,-30 260.5,-30 260.5,-10 240.5,-10"/>
<text text-anchor="start" x="264.2812" y="-15.4" font-family="sans-serif" font-size="14.00" fill="#000000"> &#160;Bootstrap</text>
<polygon fill="#fdb462" stroke="transparent" points="337.5,-10 337.5,-30 357.5,-30 357.5,-10 337.5,-10"/>
<text text-anchor="start" x="361.1732" y="-15.4" font-family="sans-serif" font-size="14.00" fill="#000000"> &#160;Providers</text>
<polygon fill="#fb8072" stroke="transparent" points="433.5,-10 433.5,-30 453.5,-30 453.5,-10 433.5,-10"/>
<text text-anchor="start" x="457.2258" y="-15.4" font-family="sans-serif" font-size="14.00" fill="#000000"> &#160;Exports</text>
<g id="clust1" class="cluster">
<title>cluster_ChatWidgetModule</title>
<polygon fill="none" stroke="#000000" stroke-dasharray="1,5" points="8,-70 8,-268 543,-268 543,-70 8,-70"/>
</g>
<g id="clust2" class="cluster">
<title>cluster_ChatWidgetModule_declarations</title>
<polygon fill="none" stroke="#000000" points="214,-78 214,-130 535,-130 535,-78 214,-78"/>
</g>
<g id="clust6" class="cluster">
<title>cluster_ChatWidgetModule_exports</title>
<polygon fill="none" stroke="#000000" points="207,-208 207,-260 375,-260 375,-208 207,-208"/>
</g>
<g id="clust8" class="cluster">
<title>cluster_ChatWidgetModule_providers</title>
<polygon fill="none" stroke="#000000" points="16,-78 16,-130 206,-130 206,-78 16,-78"/>
</g>
<!-- ChatWidgetComponent -->
<g id="node1" class="node">
<title>ChatWidgetComponent</title>
<polygon fill="#ffffb3" stroke="#000000" points="527.4846,-122 378.5154,-122 378.5154,-86 527.4846,-86 527.4846,-122"/>
<text text-anchor="middle" x="453" y="-99.8" font-family="Times,serif" font-size="14.00" fill="#000000">ChatWidgetComponent</text>
</g>
<!-- ChatWidgetModule -->
<g id="node3" class="node">
<title>ChatWidgetModule</title>
<polygon fill="#8dd3c7" stroke="#000000" points="354.7022,-187 351.7022,-191 330.7022,-191 327.7022,-187 227.2978,-187 227.2978,-151 354.7022,-151 354.7022,-187"/>
<text text-anchor="middle" x="291" y="-164.8" font-family="Times,serif" font-size="14.00" fill="#000000">ChatWidgetModule</text>
</g>
<!-- ChatWidgetComponent&#45;&gt;ChatWidgetModule -->
<g id="edge1" class="edge">
<title>ChatWidgetComponent&#45;&gt;ChatWidgetModule</title>
<path fill="none" stroke="#000000" d="M453,-122.1061C453,-141.3391 453,-169 453,-169 453,-169 365.0267,-169 365.0267,-169"/>
<polygon fill="#000000" stroke="#000000" points="365.0267,-165.5001 355.0267,-169 365.0267,-172.5001 365.0267,-165.5001"/>
</g>
<!-- ChatWidgetContainer -->
<g id="node2" class="node">
<title>ChatWidgetContainer</title>
<polygon fill="#ffffb3" stroke="#000000" points="360.3599,-122 221.6401,-122 221.6401,-86 360.3599,-86 360.3599,-122"/>
<text text-anchor="middle" x="291" y="-99.8" font-family="Times,serif" font-size="14.00" fill="#000000">ChatWidgetContainer</text>
</g>
<!-- ChatWidgetContainer&#45;&gt;ChatWidgetModule -->
<g id="edge2" class="edge">
<title>ChatWidgetContainer&#45;&gt;ChatWidgetModule</title>
<path fill="none" stroke="#000000" d="M291,-122.1061C291,-122.1061 291,-140.991 291,-140.991"/>
<polygon fill="#000000" stroke="#000000" points="287.5001,-140.9909 291,-150.991 294.5001,-140.991 287.5001,-140.9909"/>
</g>
<!-- ChatWidgetComponent  -->
<g id="node4" class="node">
<title>ChatWidgetComponent </title>
<polygon fill="#fb8072" stroke="#000000" points="367.4854,-252 214.5146,-252 214.5146,-216 367.4854,-216 367.4854,-252"/>
<text text-anchor="middle" x="291" y="-229.8" font-family="Times,serif" font-size="14.00" fill="#000000">ChatWidgetComponent </text>
</g>
<!-- ChatWidgetModule&#45;&gt;ChatWidgetComponent  -->
<g id="edge3" class="edge">
<title>ChatWidgetModule&#45;&gt;ChatWidgetComponent </title>
<path fill="none" stroke="#000000" stroke-dasharray="5,2" d="M291,-187.1061C291,-187.1061 291,-205.991 291,-205.991"/>
<polygon fill="#000000" stroke="#000000" points="287.5001,-205.9909 291,-215.991 294.5001,-205.991 287.5001,-205.9909"/>
</g>
<!-- ChatWidgetService -->
<g id="node5" class="node">
<title>ChatWidgetService</title>
<ellipse fill="#fdb462" stroke="#000000" cx="111" cy="-104" rx="86.8146" ry="18"/>
<text text-anchor="middle" x="111" y="-99.8" font-family="Times,serif" font-size="14.00" fill="#000000">ChatWidgetService</text>
</g>
<!-- ChatWidgetService&#45;&gt;ChatWidgetModule -->
<g id="edge4" class="edge">
<title>ChatWidgetService&#45;&gt;ChatWidgetModule</title>
<path fill="none" stroke="#000000" d="M111,-122.1061C111,-141.3391 111,-169 111,-169 111,-169 217.2854,-169 217.2854,-169"/>
<polygon fill="#000000" stroke="#000000" points="217.2855,-172.5001 227.2854,-169 217.2854,-165.5001 217.2855,-172.5001"/>
</g>
</g>
</svg>
