<?xml version="1.0" encoding="utf-8"?>
<!-- Generator: Adobe Illustrator 16.0.0, SVG Export Plug-In . SVG Version: 6.00 Build 0)  -->
<!DOCTYPE svg PUBLIC "-//W3C//DTD SVG 1.1//EN" "http://www.w3.org/Graphics/SVG/1.1/DTD/svg11.dtd">
<svg version="1.1" id="Layer_1" xmlns="http://www.w3.org/2000/svg" xmlns:xlink="http://www.w3.org/1999/xlink" x="0px" y="0px"
	 width="724.464px" height="722.964px" viewBox="0 0 724.464 722.964" enable-background="new 0 0 724.464 722.964"
	 xml:space="preserve">
<g>
	<g>
		
			<linearGradient id="SVGID_1_" gradientUnits="userSpaceOnUse" x1="459.7324" y1="141.3809" x2="848.5955" y2="337.1721" gradientTransform="matrix(1 0 -0.1775 1 40.6825 0)">
			<stop  offset="0" style="stop-color:#CBE2E8"/>
			<stop  offset="1" style="stop-color:#FFFFFF"/>
		</linearGradient>
		<path fill="url(#SVGID_1_)" d="M691.434,213.224c4.483-6.158,7.677-13.234,9.012-20.762c4.225-23.8-11.644-43.094-35.443-43.094
			c-14.065,0-27.751,6.74-37.465,17.163c-4.909-11.246-15.988-18.747-30.153-18.747c-18.155,0-35.614,12.328-43.075,29.067
			c-2.596-0.992-5.461-1.559-8.572-1.559c-10.13,0-19.927,5.739-25.812,14.135c-0.96-0.133-1.938-0.225-2.953-0.225
			c-12.335,0-24.105,9.997-26.294,22.331h-0.004c-10.159,0-19.853,8.231-21.654,18.389c-0.623,3.519-0.223,6.815,1.003,9.601
			c0.315,0.734,0.686,1.434,1.108,2.103h28.403h164.971h28.405c1.161-1.163,2.218-2.452,3.102-3.838
			c1.554-2.387,2.664-5.046,3.165-7.865C700.492,222.506,697.233,216.124,691.434,213.224z"/>
		
			<linearGradient id="SVGID_2_" gradientUnits="userSpaceOnUse" x1="9.1602" y1="192.2007" x2="534.8968" y2="354.4538" gradientTransform="matrix(1 0 -0.1775 1 40.6825 0)">
			<stop  offset="0" style="stop-color:#CBE2E8"/>
			<stop  offset="1" style="stop-color:#FFFFFF"/>
		</linearGradient>
		<path fill="url(#SVGID_2_)" d="M37.598,256.054c-3.547-9.504-4.599-20.421-2.535-32.039c6.519-36.729,41.579-66.503,78.308-66.503
			c21.702,0,39.125,10.402,48.409,26.487c13.738-17.354,34.944-28.93,56.8-28.93c28.02,0,48.208,19.021,50.55,44.854
			c4.542-1.526,9.28-2.403,14.077-2.403c15.637,0,27.613,8.854,32.087,21.812c1.553-0.204,3.111-0.347,4.685-0.347
			c19.032,0,31.717,15.429,28.342,34.458h0.003c15.677,0,26.123,12.703,23.34,28.379c-0.963,5.43-3.39,10.515-6.807,14.816
			c-0.889,1.129-1.844,2.209-2.86,3.242h-43.834H63.59H19.755c-1.154-1.793-2.077-3.782-2.681-5.92
			c-1.091-3.685-1.346-7.791-0.574-12.138C18.53,270.376,27.056,260.53,37.598,256.054z"/>
	</g>
	<g>
		<path fill="#EEEEEE" d="M442.729,617.705c0.566,3.759-41.294,6.776-93.502,6.74c-52.208-0.038-94.993-3.116-95.563-6.875
			c-0.568-3.759,41.297-6.776,93.505-6.741C399.379,610.867,442.162,613.946,442.729,617.705z"/>
		<path fill="#1E81B9" d="M196.63,194.705c-3.856,2.865-7.176,26.088,4.783,29.864c11.956,3.774,16.037-31.194,4.843-27.474
			C195.063,200.813,196.63,194.705,196.63,194.705z"/>
		<path fill="#171556" d="M375.904,494.431c-0.292-2.715-0.966-5.745-1.477-7.805c-0.342-1.374,0.554-2.837,1.967-3.223
			c4.609-1.264,13.902-3.548,16.178-2.132c2.313,1.436,1.651,11.562,0.295,13.475c0,0,2.329,5.509,2.705,22.642
			c0.376,17.139-8.324-10.364-11.398-16.861c-1.877-3.956-4.491-4.573-6.243-4.453C376.889,496.144,376.02,495.465,375.904,494.431z
			"/>
		<path fill="#1E81B9" d="M378.815,485.533l-0.06-0.01c-12.667-2.181-25.2-5.172-37.586-8.713
			c-6.188-1.768-12.348-3.655-18.456-5.665c-4.846-1.603-9.717-3.31-14.436-5.056c-3.725-4.96-7.484-10.438-10.864-15.832
			c-3.836-6.162-7.421-12.45-10.509-18.835c-3.105-6.371-5.763-12.845-7.666-19.229c-1.218-4.035-2.047-8.022-2.518-11.838
			c0.28-14.836-5.054-28.556-5.054-28.556l-34.765,3.782c-0.437-0.332-0.839-0.694-1.323-0.984
			c-6.458-3.873-14.607-2.334-19.316,3.229l-11.224,1.222c0.651,4.222,1.551,8.51,2.507,12.522
			c-6.29,10.181-12.704,20.33-19.278,30.418c-9.109,13.951-18.423,27.89-27.835,41.601l0,0l-0.577,0.84
			c-1.927,2.818-2.359,6.555-0.822,9.876c7.985,17.223,15.721,34.768,23.036,52.34c3.651,8.803,7.159,17.642,10.458,26.522
			c3.246,8.854,6.377,17.894,8.263,26.612l0.058,0.269c0.56,2.547,2.97,4.313,5.622,4.013c2.833-0.319,4.866-2.879,4.547-5.712
			c-1.161-10.229-3.467-19.65-5.874-29.108c-2.457-9.415-5.112-18.739-7.904-28.003c-4.968-16.402-10.257-32.614-15.802-48.844
			c9.485-11.679,18.819-23.386,28.063-35.246c5.9-7.589,11.737-15.248,17.527-22.971c7.354,0.459,15.17-0.486,22.38-1.984
			c0.977,3.252,2.058,6.425,3.28,9.459c3.222,7.984,7.115,15.341,11.354,22.33c4.226,7.001,8.848,13.599,13.684,19.977
			c4.917,6.413,9.828,12.352,15.56,18.51l0.003,0.004l0.762,0.81c1.104,1.177,2.562,2.048,4.256,2.427
			c6.78,1.513,13.221,2.721,19.84,3.877c6.579,1.13,13.171,2.126,19.782,2.996c13.214,1.749,26.529,2.913,39.887,3.223
			c2.524,0.061,4.779-1.731,5.22-4.293C383.52,488.695,381.631,486.017,378.815,485.533z"/>
		<path fill="#171556" d="M200.803,577.878c2.607-0.807,5.457-2.042,7.387-2.935c1.282-0.593,2.887,0.011,3.534,1.323
			c2.115,4.286,6.115,12.979,5.155,15.482c-0.97,2.542-11.039,3.813-13.173,2.844c0,0-4.968,3.326-21.723,6.944
			c-16.755,3.615,8.603-10.136,14.399-14.388c3.531-2.589,3.642-5.276,3.192-6.976C199.308,579.164,199.809,578.183,200.803,577.878
			z"/>
		<path fill="#EA2276" d="M308.562,312.965c-0.214-2.812-0.586-5.622-1.03-8.442c-0.521-2.897-0.986-5.479-1.979-8.76
			c-0.128-0.421-0.326-0.85-0.584-1.232l-0.295-0.433c-3.568-5.258-7.109-9.626-11.083-14.072
			c-3.941-4.37-8.139-8.538-12.674-12.385c-4.497-3.887-9.331-7.456-14.446-10.688c-5.085-3.284-10.643-5.923-16.298-8.378
			c-0.165-0.071-0.363-0.151-0.534-0.213c-1.258-0.464-2.551-0.646-3.813-0.605c-14.158-7.673-36.38-1.615-45.758,12.913
			c-10.109,10.788-17.923,23.24-23.86,36.175c-3.622,7.846-6.545,15.921-8.958,24.109c-2.389,8.282-4.266,16.324-5.451,25.257
			l-0.051,0.382c-0.04,0.329-0.057,0.664-0.053,1.007c0.071,3.878,3.272,6.966,7.149,6.895h0.003
			c3.678-0.188,5.793-1.204,7.847-2.129c2.01-0.966,3.763-2.04,5.427-3.161c3.313-2.256,6.273-4.709,9.051-7.348
			c1.964-1.87,3.796-3.867,5.56-5.943c3.352,36.013,10.565,54.624,10.565,54.624c23.247,10.364,67.484-7.99,67.484-7.99
			c-7.461-35.874-12.798-71.773-15.949-107.904c3.782,2.087,7.504,4.363,11.052,6.964c4.179,3.043,8.293,6.276,12.153,9.821
			c3.658,3.325,7.323,7.107,10.324,10.638c0.604,1.607,1.226,3.578,1.736,5.38c0.637,2.369,1.225,4.781,1.675,7.232
			c0.922,4.896,1.524,9.898,1.762,14.941c0.215,5.038,0.215,10.133-0.309,15.208c-0.343,5.095-1.235,10.15-2.262,15.212l-0.03,0.15
			c-0.335,1.648,0.581,3.339,2.211,3.923c1.79,0.645,3.763-0.283,4.404-2.072c1.85-5.149,3.575-10.396,4.739-15.804
			c1.249-5.396,1.938-10.914,2.387-16.474C309.143,324.196,308.989,318.583,308.562,312.965z M192.341,327.435
			c-2.417,2.207-5.102,4.223-7.881,6.042c-1.765,1.155-3.587,2.185-5.42,3.142c1.027-3.625,2.181-7.255,3.426-10.756
			c2.635-7.354,5.713-14.533,9.345-21.341c1.037-1.958,2.127-3.875,3.252-5.773c0.007,9.014,0.275,17.394,0.741,25.111
			C194.771,325.094,193.58,326.303,192.341,327.435z"/>
		<path fill="#171556" d="M218.004,261.546c-2.444,1.027-1.706,8.354,1.138,11.317c2.846,2.964,4.51-0.439,5.937-3.25
			C226.506,266.801,227.439,257.582,218.004,261.546z"/>
		<path fill="#8DD4E5" d="M194.153,222.515c0.087,14.125-2.329,26.97,15.13,21.998c12.05-3.434,16.977-8.421,19.767-16.322
			c3.269-9.257,13.519-40.214-15.863-40.3C195.294,187.836,194.016,200.298,194.153,222.515z"/>
		<path fill="#8DD4E5" d="M204.988,305.939c-0.142,0.043-0.266,0.085-0.407,0.129c-2.208-1.293-4.855-1.797-7.333-0.201
			c-5.542,3.566-6.501,6.348-3.595,12.489c3.4,7.176,11.972,10.269,15.51-4.294C212.334,313.187,210.861,304.135,204.988,305.939z"
			/>
		<path fill="#8DD4E5" d="M298.483,349.438c-1.651-0.577-3.155-0.327-4.465,0.381c-4.336-3.569-10.096,5.064-6.102,6.131
			c0.471,0.125,0.887,0.336,1.279,0.578c-0.265,1.054-0.302,1.963-0.053,2.49c7.038,14.929,14.398,9.652,15.698,1.602
			C305.917,353.953,304.357,351.503,298.483,349.438z"/>
		<path fill="#8DD4E5" d="M223.089,214.087c5.521,14.924,5.359,29.371,13.392,37.233c7.145,6.993-12.872,11.546-18.84,8.917
			c-10.941-4.818,7.173-9.176-4.339-36.393C201.785,196.626,223.089,214.087,223.089,214.087z"/>
		<g>
			<path fill="#FFFFFF" d="M220.146,260.86c0,0,4.712,3.119,8.911,7.742c0,0,14.664-12.216,12.238-23.535
				c0,0-6.293-2.041-10.149-2.294C231.145,242.773,231.906,252.992,220.146,260.86z"/>
			<path fill="#FFFFFF" d="M220.146,260.86c0,0-7.421,4.08-2.289,10.14c0,0-13.134-6.553-8.035-20.394c0,0,3.289-2.498,6.826-3.729
				C216.648,246.878,215.148,255.591,220.146,260.86z"/>
		</g>
		<path fill="#1E81B9" d="M233.779,198.24c0.581-0.783,1.023-1.617,1.144-2.569c0.738-5.735-7.739-10.485-21.256-9.074
			c-10.083,0.846-7.874-2.856-7.874-2.856c-17.779,8.037-22.099,16.937-8.965,20.643c3.014,0.851,13.189,1.249,22.279-0.104
			c-2.44,7.257-3.061,16.812,4.648,19.246C235.545,227.248,244.268,195.563,233.779,198.24z"/>
		<path fill="#8DD4E5" d="M227.227,219.174c-2.399,3.389-4.994,6.085-1.275,7.592c2.568,1.041,3.779,0.979,5.588-0.48
			c2.118-1.707,6.68-5.232,4.111-11.344C234.05,211.126,231.003,213.845,227.227,219.174z"/>
		<path fill="#171556" d="M222.428,271.133c-1.437,3.749-1.997,7.819-2.168,11.85c-0.151,4.065-0.057,8.112,1.108,11.646
			c1.127,3.585,3.205,6.545,6.102,8.376c2.879,1.866,6.444,2.727,10.005,2.749c7.297,0.092,13.626-3.966,19.238-8.144
			c1.407-1.101,2.809-2.235,4.082-3.579c1.333-1.254,2.47-2.588,3.504-3.998c2.03-2.802,3.249-6.418,4.03-10.769
			c0.044-0.25,0.283-0.416,0.531-0.371c0.138,0.026,0.255,0.115,0.319,0.227c2.215,3.831,3.081,8.905,1.678,13.77
			c-1.407,4.851-4.091,8.787-7.431,12.209c-6.733,6.929-17.098,9.685-26.539,8.49c-4.726-0.593-9.458-2.29-13.274-5.453
			c-3.881-3.134-6.26-7.801-7.079-12.299c-0.907-4.59-0.446-9.026,0.208-13.229c0.745-4.235,1.896-8.453,3.978-12.286
			c0.251-0.46,0.825-0.629,1.285-0.379c0.423,0.229,0.601,0.734,0.433,1.171L222.428,271.133z"/>
	</g>
	<g>
		<path fill="#EA2276" d="M398.164,114.071c-6.928,2.039-23.666,33.084-8.757,44.618c14.909,11.533,38.82-35.687,21.099-36.249
			C392.784,121.878,398.164,114.071,398.164,114.071z"/>
		<path fill="#EA2276" d="M712.473,301.419c-0.293-0.269-0.7-0.396-1.084-0.368c-109.52,9.695-189.21,26.851-189.49,33.743v21.196
			c0,0.773,0.623,1.41,1.402,1.418c0.006,0,0.014,0,0.02,0c0.648,0,1.199-0.433,1.369-1.031
			c4.478-4.751,74.448-21.345,186.948-31.305c0.733-0.066,1.299-0.679,1.299-1.416v-21.189
			C712.937,302.069,712.769,301.688,712.473,301.419z"/>
		<path fill="#DA1E6C" d="M582.795,284.284c-0.406-0.306-0.926-0.41-1.433-0.269c-90.837,25.704-161.099,41.446-203.078,50.851
			c-43.038,9.643-47.002,10.791-47.16,13.732v21.194c0,0.894,0.712,1.618,1.604,1.636c0.011,0,0.02,0,0.03,0
			c0.657,0,1.229-0.39,1.487-0.955c2.456-1.738,20.238-5.723,44.663-11.196c42.023-9.418,112.355-25.176,203.345-50.925
			c0.705-0.199,1.189-0.842,1.189-1.574v-21.188C583.443,285.077,583.206,284.594,582.795,284.284z"/>
		<path fill="#EA2276" d="M608.359,505.323c-2.362-3.36-5.449-6.858-7.621-9.203c-1.445-1.559-1.328-4.136,0.245-5.666
			c5.152-5.014,15.719-14.771,19.742-14.564c4.089,0.209,10.58,14.015,10.188,17.521c0,0,7.065,5.552,20.014,27.83
			c12.952,22.281-18.487-7.592-27.257-13.903c-5.344-3.848-9.233-2.758-11.454-1.327
			C610.891,506.86,609.258,506.602,608.359,505.323z"/>
		<path fill="#EEEEEE" d="M516.643,696.998c0.808,5.36-58.893,9.663-133.347,9.61c-74.454-0.05-135.466-4.441-136.279-9.802
			c-0.81-5.358,58.891-9.664,133.346-9.608C454.817,687.249,515.832,691.636,516.643,696.998z"/>
		<path fill="#171556" d="M611.766,493.959c-2.945-3.119-7.858-3.26-10.977-0.313l-0.202,0.191
			c-8.556,8.076-19.885,14.422-31.311,20.07c-11.545,5.62-23.624,10.485-35.88,14.934c-12.264,4.444-24.736,8.463-37.303,12.163
			c-7.163,2.104-14.437,4.13-21.676,6.035c-1.547-5.947-3.018-11.981-4.353-17.934c-2.437-10.889-4.55-21.813-6.206-32.698
			c-1.662-10.876-2.884-21.729-3.417-32.346c-0.326-6.315-0.343-12.535-0.071-18.556c4.058-22.819-1.534-45.802-1.534-45.802
			l-52.412-1.191c-0.608-0.604-1.245-1.185-1.93-1.729c-8.882-7.049-21.381-6.387-29.497,1.018l-16.903-0.384
			c0.144,6.469,0.648,13.076,1.293,19.287c-11.348,13.903-22.972,27.714-34.729,41.425c-16.319,19.003-32.94,37.947-49.662,56.534
			l-1.054,1.167c-1.249,1.404-2.212,3.094-2.772,5.018c-4.065,13.938-8.311,27.996-12.624,41.948
			c-4.319,13.974-8.747,27.904-13.312,41.778c-4.572,13.867-9.284,27.676-14.282,41.315c-2.507,6.813-5.09,13.581-7.817,20.227
			c-2.729,6.615-5.611,13.22-8.81,19.118l-0.125,0.23c-1.862,3.464-0.843,7.844,2.484,10.097c3.548,2.407,8.378,1.483,10.785-2.068
			c4.483-6.615,8.119-13.194,11.67-19.835c3.521-6.636,6.854-13.303,10.096-19.995c6.464-13.387,12.6-26.86,18.594-40.381
			c5.981-13.524,11.817-27.095,17.547-40.706c5.159-12.253,10.213-24.497,15.214-36.873c17.812-16.787,35.32-33.66,52.735-50.813
			c10.294-10.156,20.521-20.405,30.674-30.788c10.563,2.069,22.042,2.242,32.809,1.509c0.4,4.269,0.869,8.502,1.46,12.666
			c1.765,12.299,4.25,24.206,7.144,35.9c2.899,11.688,6.229,23.152,9.873,34.474c3.695,11.396,7.542,22.327,12.103,33.791l0,0
			l0.623,1.528c3.084,7.575,11.608,11.465,19.405,8.72c13.181-4.646,25.633-9.543,38.246-14.778
			c12.549-5.236,24.972-10.789,37.232-16.803c12.251-6.021,24.351-12.486,36.084-19.865c11.653-7.509,23.251-15.49,33.034-26.906
			C614.547,501.361,614.511,496.864,611.766,493.959z"/>
		<path fill="#EA2276" d="M216.816,684.219c3.457,2.215,7.64,4.285,10.535,5.635c1.93,0.896,2.793,3.322,1.917,5.34
			c-2.873,6.588-8.964,19.619-12.768,20.947c-3.863,1.353-15.094-8.972-16.057-12.365c0,0-8.639-2.47-29.055-18.195
			c-20.415-15.724,19.986,0.038,30.492,2.564c6.401,1.539,9.593-0.942,11.107-3.104C213.889,683.752,215.5,683.376,216.816,684.219z
			"/>
		<path fill="#40B7D4" d="M549.88,91.27c-1.052-9.304-2.903-18.58-5.878-27.577c-1.526-4.491-3.332-8.894-5.437-13.166
			c-2.172-4.248-4.669-8.332-7.485-12.19c-1.529-2.107-4.437-2.768-6.749-1.445c-2.482,1.419-3.347,4.582-1.927,7.064l0.081,0.139
			c2.051,3.588,3.812,7.328,5.287,11.19c1.408,3.898,2.563,7.891,3.47,11.956c1.737,8.159,2.494,16.563,2.527,25.004
			c0,8.445-0.642,16.925-1.877,25.326c-0.61,4.2-1.356,8.382-2.229,12.519c-0.678,3.169-1.467,6.505-2.303,9.509
			c-5.651,7.104-12.16,14.387-18.718,21.115c-6.987,7.158-14.289,13.978-21.895,20.305c-13.502,11.23-28.043,21.063-43.228,27.866
			c-15.001-10.019-37.791-9.6-55.131-0.332c-6.582-0.816-13.073-2.547-19.315-5.349c-8.17-3.588-15.886-8.854-22.975-15.167
			c-7.045-6.375-13.513-13.748-19.215-21.808c-2.86-4.021-5.552-8.199-8.045-12.491c-1.235-2.152-2.447-4.32-3.578-6.51
			c-0.846-1.631-1.735-3.437-2.466-5.013c-0.333-7.975-0.104-15.635,1.107-23.352c1.255-8.52,3.699-17.032,6.707-25.471
			c3-8.449,6.759-16.769,10.797-24.992c3.998-8.25,8.532-16.307,13.104-24.358l0.066-0.112c1.279-2.274,0.665-5.198-1.511-6.75
			c-2.325-1.661-5.561-1.121-7.222,1.207c-5.487,7.691-10.965,15.427-15.994,23.543c-5.068,8.083-9.914,16.387-14.117,25.19
			c-4.195,8.783-7.941,18.003-10.458,27.797c-2.607,9.751-3.876,20.034-4.323,29.818c-0.044,1.027,0.097,2.107,0.453,3.138
			l0.252,0.732v0.003c1.131,3.133,2.144,5.55,3.306,8.237c1.138,2.615,2.353,5.174,3.598,7.722
			c2.518,5.077,5.266,10.039,8.25,14.891c5.955,9.706,12.952,18.937,21.132,27.388c8.229,8.386,17.748,15.985,28.693,21.722
			c3.162,1.688,6.455,3.171,9.828,4.493c-0.681,1.946-1.276,3.945-1.665,6.058c-20.9,113.089-5.592,175.868-5.592,175.868
			c32.614,20.014,102.159,1.346,102.159,1.346c-4.303-58.041-5.116-115.666-2.175-173.21c0.153-3.055,0.004-5.895-0.332-8.598
			c17.037-9.384,31.875-21.247,45.331-34.025c7.874-7.513,15.255-15.416,22.241-23.614c7.019-8.287,13.481-16.508,19.827-25.842
			l0.439-0.643c0.588-0.873,1.011-1.876,1.222-2.976c0.97-5.1,1.497-9.509,1.998-14.236c0.462-4.652,0.774-9.303,0.944-13.959
			C551.202,109.923,550.9,100.575,549.88,91.27z"/>
		<path fill="#171556" d="M400.379,225.216c-3.936,0.625-5.718,10.576-2.624,15.92c3.092,5.345,6.74,0.97,9.828-2.625
			S415.57,222.798,400.379,225.216z"/>
		<path fill="#8DD4E5" d="M380.231,152.022c-7.209,19.977-17.286,36.845,9.932,38.894c18.782,1.413,28.324-3.067,36.364-12.766
			c9.416-11.366,39.945-49.723-1.462-65.099C399.847,103.686,391.573,120.606,380.231,152.022z"/>
		<path fill="#8DD4E5" d="M348.53,18.717c-0.225,0.038-0.417,0.075-0.634,0.114c-3.035-2.363-6.888-3.633-10.895-1.744
			c-8.958,4.229-10.935,8.189-7.807,17.911c3.655,11.364,15.825,17.657,23.958-3.355C358.052,30.962,357.636,17.181,348.53,18.717z"
			/>
		<path fill="#8DD4E5" d="M526.559,15.681c-2.349-1.19-4.642-1.11-6.725-0.315c-5.767-6.169-16.048,5.565-10.306,7.939
			c0.68,0.278,1.257,0.673,1.792,1.114c-0.599,1.515-0.838,2.864-0.569,3.706c7.56,23.63,19.563,17.21,23.085,5.466
			C536.75,23.866,534.907,19.908,526.559,15.681z"/>
		<path fill="#8DD4E5" d="M417.416,155.083c5.297,23.329,2.22,44.831,12.647,58.129c9.276,11.828-21.457,14.681-29.835,9.591
			c-15.361-9.333,12.492-12.268,0.682-55.1C389.096,124.872,417.416,155.083,417.416,155.083z"/>
		<g>
			<path fill="#FFFFFF" d="M403.841,224.221c0,0,3.742,3.928,7.369,11.838c0,0,28.646-13.873,27.252-31.223
				c0,0-8.975-4.276-14.676-5.412C423.786,199.424,422.918,214.805,403.841,224.221z"/>
			<path fill="#FFFFFF" d="M403.841,224.221c0,0-6.603,5.304-8.291,11.103c0,0-15.406-8.788-5.088-28.413
				c0,0,5.394-3.081,10.911-4.216C401.373,202.695,397.426,215.385,403.841,224.221z"/>
		</g>
		<path fill="#DA1E6C" d="M583.504,366.074v-17.199c0.719,0.047,1.406-0.613,1.424-1.389c0.104-5.687-17.438-8.64-49.84-12.1
			c-4.34-0.467-7.832-0.835-9.786-1.132c-0.362-0.054-0.599-0.107-0.74-0.154c-0.237-0.424-0.688-0.719-1.211-0.726
			c-0.798,0.014-1.417,0.587-1.449,1.36c-0.003,0.05-0.003,0.098-0.003,0.148l0.003,21.058c-0.067,1.862,2.224,2.205,2.976,2.319
			c1.979,0.296,5.512,0.671,9.905,1.143c39.166,4.181,47.338,7.323,47.299,9.218c-0.014,0.782,0.607,1.435,1.392,1.451
			c0.011,0,0.021,0,0.031,0c0.772,0,1.406-0.618,1.424-1.395C584.947,367.738,584.436,366.879,583.504,366.074z"/>
		<path fill="#EA2276" d="M583.518,346.035c-0.004,0-0.01,0-0.014,0c-0.775,0-1.406,0.622-1.423,1.397
			c-0.014,0.825-2.585,5.303-51.767,12.264c-113.094,16.017-196.26-12.149-197.089-12.439c-0.429-0.146-0.917-0.079-1.292,0.188
			c-0.372,0.268-0.597,0.698-0.597,1.157v21.189c0,0.605,0.386,1.145,0.957,1.342c0.651,0.23,51.645,17.515,127.989,17.515
			c21.629,0,45.303-1.39,70.431-4.946c54.06-7.653,54.166-12.632,54.216-15.025c0-0.006,0-0.019,0-0.025v-21.192
			C584.928,346.68,584.296,346.042,583.518,346.035z"/>
		<path fill="#EA2276" d="M451.319,139.113c0.637-0.903,0.822-2.133,0.376-3.798c-0.748-2.779-2.034-5.506-3.743-8.094
			c3.525,0.097,6.639,0.477,6.639,0.477c-3.821-4.833-10.008-10.227-16.875-13.821c2.735-1.071,5.001-1.769,5.001-1.769
			c-7.829-4.085-20.551-7.235-30.832-5.136c0.947-5.264,2.98-8.649,2.98-8.649c-29.254,2.11-28.844,15.8-12.236,27.85
			c3.135,2.275,13.681,7.209,24.22,10.775c-7.998,8.868-15.843,23.771-5.371,31.871
			C435.235,179.463,461.302,144.951,451.319,139.113z"/>
		<path fill="#8DD4E5" d="M428.634,164.48c-5.149,3.536-10.207,5.995-5.743,10.051c3.085,2.8,4.823,3.341,8.133,2.223
			c3.876-1.309,12.141-3.915,11.693-13.87C442.438,156.667,436.726,158.919,428.634,164.48z"/>
		<path fill="#171556" d="M403.169,239.784c-1.014,2.028-1.967,5.05-2.732,7.667c-0.781,2.72-1.46,5.469-2.034,8.225
			c-1.138,5.492-1.983,11.086-1.832,16.385c0.08,2.623,0.429,5.19,1.195,7.238c0.781,2.081,1.858,3.345,3.128,3.734
			c1.254,0.488,3.176,0.483,5.354,0.021c2.205-0.528,4.544-1.392,6.873-2.525c10.234-4.774,20.471-11.287,32.346-13.812
			c5.896-1.341,12.224-2.167,18.712-1.482c6.536,0.563,12.677,3.083,17.573,6.782c0.313,0.225,0.38,0.66,0.156,0.972
			c-0.119,0.161-0.308,0.258-0.488,0.283c-6.189,0.666-11.565,1.244-16.552,2.699c-5.017,1.457-9.967,3.32-15.096,5.241
			c-10.195,4.102-21.275,6.407-32.355,10.318c-3.01,1.004-6.223,1.807-9.71,2.154c-3.479,0.254-7.602,0.076-11.465-2.196
			c-0.967-0.488-1.772-1.317-2.608-2.005c-0.722-0.789-1.43-1.637-1.98-2.502c-1.055-1.762-1.763-3.588-2.131-5.33
			c-0.782-3.505-0.715-6.762-0.437-9.878c0.628-6.223,2.273-11.96,4.203-17.548c1.006-2.778,2.114-5.507,3.321-8.188
			c0.603-1.342,1.246-2.67,1.914-3.989c0.738-1.354,1.278-2.536,2.439-4.058c0.471-0.615,1.35-0.731,1.964-0.262
			c0.544,0.415,0.698,1.15,0.402,1.739L403.169,239.784z"/>
	</g>
</g>
</svg>
