<?xml version="1.0" encoding="utf-8"?>
<!-- Generator: Adobe Illustrator 16.0.0, SVG Export Plug-In . SVG Version: 6.00 Build 0)  -->
<!DOCTYPE svg PUBLIC "-//W3C//DTD SVG 1.1//EN" "http://www.w3.org/Graphics/SVG/1.1/DTD/svg11.dtd">
<svg version="1.1" id="Layer_1" xmlns="http://www.w3.org/2000/svg" xmlns:xlink="http://www.w3.org/1999/xlink" x="0px" y="0px"
	 width="605px" height="580px" viewBox="0 0 605 580" enable-background="new 0 0 605 580" xml:space="preserve">
<g>
	
		<linearGradient id="SVGID_1_" gradientUnits="userSpaceOnUse" x1="5.813" y1="291.9199" x2="598.1865" y2="291.9199" gradientTransform="matrix(-1 0 0 1 604 0)">
		<stop  offset="3.380400e-004" style="stop-color:#FFFFFF"/>
		<stop  offset="1" style="stop-color:#EFE9FC"/>
	</linearGradient>
	<path opacity="0.65" fill="url(#SVGID_1_)" d="M19.491,129.656C80.833-12.939,281.492-20.645,319.152,80.879
		c37.659,101.522,39.245,192.25,181.505,217.617c142.26,25.369,161.646,286.826-167.173,272.265
		C71.375,559.153-3.962,465.227,11.673,350.574C27.308,235.921-14.384,208.4,19.491,129.656z"/>
	<polygon opacity="0.23" fill="#6176F9" points="462.976,498.653 346.09,532.221 300.403,526.576 242.557,552.529 179.187,535.975 
		117.152,558.082 47.86,533.664 118.965,509.056 72.96,498.611 204.629,448.781 	"/>
	<g>
		<g>
			<polygon fill="#AEC4FF" points="336.298,530.912 346.09,532.221 346.09,323.58 336.298,322.269 			"/>
			<polygon fill="#152274" points="356.415,529.285 346.09,532.221 346.09,323.58 356.415,320.643 			"/>
			<polygon fill="#AEC4FF" points="442.857,500.279 452.65,501.589 452.65,292.947 442.857,291.637 			"/>
			<polygon fill="#152274" points="462.976,498.653 452.65,501.589 452.65,292.947 462.976,290.012 			"/>
			<polygon fill="#7990CF" points="203.708,470.954 213.502,472.265 213.502,263.623 203.708,262.313 			"/>
			<polygon fill="#152274" points="223.827,469.327 213.502,472.265 213.502,263.623 223.827,260.686 			"/>
			<polygon fill="#7990CF" points="63.167,497.301 72.96,498.611 72.96,289.97 63.167,288.659 			"/>
			<polygon fill="#152274" points="83.285,495.676 72.96,498.611 72.96,289.97 83.285,287.033 			"/>
		</g>
		<g>
			<polygon fill="#AEC4FF" points="346.09,323.58 63.167,285.745 63.167,296.896 346.09,336.134 			"/>
			<polygon fill="#E7DDFB" points="63.167,285.745 213.508,259.448 462.976,290.012 346.09,323.58 			"/>
			<polygon fill="#152274" points="462.976,290.012 346.09,323.58 346.09,336.134 462.976,301.854 			"/>
		</g>
		<g>
			<polygon fill="#90ABF5" points="282.027,302.004 206.62,291.92 206.62,294.892 282.027,305.35 			"/>
			<polygon fill="#EAE8FF" points="206.62,291.92 244.573,282.734 313.181,293.057 282.027,302.004 			"/>
			<polygon fill="#152274" points="313.181,293.057 282.027,302.004 282.027,305.35 313.181,296.213 			"/>
		</g>
	</g>
	<g>
		<g>
			<path fill="#4FB8BC" d="M246.167,109.768c1.862,0.33,171.474,22.106,171.474,22.106v138.348l-168.418-27.078L246.167,109.768z"/>
			<path fill="#90ABF5" d="M238.186,111.905c1.862,0.33,173.091,21.734,173.091,21.734v138.347L238.186,246.24V111.905z"/>
			<path fill="#152274" d="M238.186,111.905c1.862,0.33,173.091,21.734,173.091,21.734v119.256l-173.091-25.746V111.905z"/>
			<path fill="#EBE1FF" d="M246.167,119.286c1.689,0.3,157.129,19.729,157.129,19.729v104.208l-157.129-23.372V119.286z"/>
			<polygon fill="#101B59" points="411.277,271.986 417.641,270.222 417.641,131.874 411.277,133.639 			"/>
			<polygon fill="#D6D2F5" points="417.641,131.874 411.277,133.639 238.186,111.905 246.167,109.768 			"/>
			<polygon fill="#90ABF5" points="294.764,272.597 294.764,254.656 339.343,261.287 339.343,280.871 339.343,280.872 
				317.016,287.033 271.216,279.345 			"/>
			<polygon fill="#101B59" points="339.343,261.287 339.343,270.091 294.764,263.244 294.764,254.656 			"/>
			<polygon fill="#101B59" points="339.343,280.872 317.016,287.033 271.216,279.345 271.216,281.481 317.053,289.217 
				339.343,282.835 			"/>
		</g>
		<g>
			<path fill="#F1F1F1" d="M381.482,145.609c-30.835-3.856-82.034-10.264-110.446-13.845c-7.323-0.923-13.789,4.787-13.789,12.168
				v57.741c0,6.076,4.449,11.236,10.459,12.13l110.44,16.427c7.41,1.102,14.068-4.639,14.068-12.13v-60.325
				C392.216,151.592,387.619,146.376,381.482,145.609z"/>
			<path fill="#6176F9" d="M392.216,161.274L257.288,143.2c0.414-7.02,6.672-12.328,13.749-11.436
				c28.412,3.581,79.611,9.988,110.446,13.845c6.137,0.767,10.733,5.983,10.733,12.167V161.274z"/>
			<g>
				<circle fill="#5062CF" cx="380.796" cy="153.883" r="1.41"/>
				<circle fill="#D6D2F5" cx="376.515" cy="153.135" r="1.41"/>
				<circle fill="#D6D2F5" cx="371.994" cy="152.369" r="1.41"/>
			</g>
		</g>
		<g>
			<path opacity="0.84" fill="#90ABF5" d="M281.728,30.848c24.04,3.025,64.853,8.133,86.696,10.865
				c8.481,1.061,14.839,8.271,14.839,16.818v45.36c0,10.354-9.203,18.289-19.444,16.766l-86.698-12.896
				c-8.307-1.235-14.456-8.367-14.456-16.766V47.667C262.665,37.465,271.605,29.575,281.728,30.848z"/>
			
				<line fill="none" stroke="#E7DDFB" stroke-width="6" stroke-linecap="round" stroke-miterlimit="10" x1="363.946" y1="61.261" x2="281.728" y2="50.956"/>
			
				<line fill="none" stroke="#E7DDFB" stroke-width="6" stroke-linecap="round" stroke-miterlimit="10" x1="363.946" y1="80.932" x2="281.728" y2="70.626"/>
			
				<line fill="none" stroke="#E7DDFB" stroke-width="6" stroke-linecap="round" stroke-miterlimit="10" x1="363.946" y1="100.604" x2="281.728" y2="90.299"/>
		</g>
		<g>
			<path opacity="0.76" fill="#90ABF5" d="M111.923,45.606c31.114,3.928,102.939,12.913,130.936,16.414
				c6.551,0.82,11.466,6.389,11.466,12.992v77.467c0,7.998-7.108,14.127-15.019,12.95l-130.943-19.478
				c-6.417-0.954-11.167-6.463-11.167-12.95V58.596C97.196,50.715,104.103,44.619,111.923,45.606z"/>
			<path fill="#E7DDFB" d="M154.532,68.586c1.187,0.211,87.548,10.281,87.548,10.281v73.22l-87.548-12.841V68.586z"/>
			<g>
				<path fill="#E7DDFB" d="M150.078,139.091l-42.012-6.205V99.627c21.006,2.476,42.012,4.942,42.012,4.942V139.091z"/>
				<path fill="#E7DDFB" d="M150.078,68.319v33.772c0,0-21.005-2.467-42.012-4.943V63.375
					C129.073,65.852,150.078,68.319,150.078,68.319z"/>
				<path fill="none" stroke="#6176F9" stroke-width="0.25" stroke-miterlimit="10" stroke-dasharray="2" d="M147.677,70.779
					c-6.596-0.775-21.542-2.532-37.211-4.378V94.69c15.306,1.803,30.067,3.538,37.211,4.377V70.779z"/>
			</g>
			<polygon fill="#6176F9" points="136.294,111.367 136.294,129.333 116.895,117.872 			"/>
			<g>
				<path fill="#6176F9" d="M233.09,121.313c0.717,0,1.339-0.534,1.43-1.265c0.1-0.791-0.46-1.513-1.253-1.612l-31.935-4.003
					c-0.788-0.099-1.513,0.462-1.612,1.253c-0.1,0.791,0.462,1.513,1.253,1.612l31.935,4.003
					C232.97,121.31,233.029,121.313,233.09,121.313z"/>
				<path fill="#6176F9" d="M233.09,128.955c0.717,0,1.339-0.534,1.43-1.265c0.1-0.791-0.46-1.512-1.253-1.611l-31.935-4.003
					c-0.788-0.1-1.513,0.461-1.612,1.253c-0.1,0.791,0.462,1.513,1.253,1.612l31.935,4.003
					C232.97,128.951,233.029,128.955,233.09,128.955z"/>
				<path fill="#6176F9" d="M233.09,136.596c0.717,0,1.339-0.535,1.43-1.264c0.1-0.792-0.46-1.514-1.253-1.613l-31.935-4.002
					c-0.788-0.102-1.513,0.461-1.612,1.252c-0.1,0.791,0.462,1.513,1.253,1.612l31.935,4.002
					C232.97,136.592,233.029,136.596,233.09,136.596z"/>
				<path fill="#6176F9" d="M233.09,98.391c0.717,0,1.339-0.534,1.43-1.265c0.1-0.791-0.46-1.513-1.253-1.612l-31.935-4.003
					c-0.788-0.099-1.513,0.462-1.612,1.253c-0.1,0.791,0.462,1.513,1.253,1.612l31.935,4.003
					C232.97,98.387,233.029,98.391,233.09,98.391z"/>
				<path fill="#6176F9" d="M233.09,106.032c0.717,0,1.339-0.534,1.43-1.265c0.1-0.791-0.46-1.513-1.253-1.612l-31.935-4.003
					c-0.788-0.1-1.513,0.462-1.612,1.253c-0.1,0.791,0.462,1.513,1.253,1.612l31.935,4.003
					C232.97,106.028,233.029,106.032,233.09,106.032z"/>
				<path fill="#6176F9" d="M233.09,113.673c0.717,0,1.339-0.534,1.43-1.265c0.1-0.792-0.46-1.513-1.253-1.612l-31.935-4.002
					c-0.788-0.101-1.513,0.461-1.612,1.253c-0.1,0.792,0.462,1.513,1.253,1.612l31.935,4.002
					C232.97,113.669,233.029,113.673,233.09,113.673z"/>
			</g>
			<g>
				<path fill="#6176F9" d="M195.461,116.729c0.716,0,1.339-0.534,1.43-1.265c0.1-0.792-0.461-1.513-1.252-1.612l-31.936-4.003
					c-0.788-0.099-1.513,0.461-1.613,1.253c-0.099,0.791,0.463,1.513,1.254,1.612l31.936,4.002
					C195.34,116.726,195.4,116.729,195.461,116.729z"/>
				<path fill="#6176F9" d="M195.461,124.371c0.716,0,1.339-0.535,1.43-1.265c0.1-0.792-0.461-1.513-1.252-1.612l-31.936-4.003
					c-0.788-0.1-1.513,0.461-1.613,1.253c-0.099,0.791,0.463,1.513,1.254,1.612l31.936,4.003
					C195.34,124.366,195.4,124.371,195.461,124.371z"/>
				<path fill="#6176F9" d="M195.461,132.011c0.716,0,1.339-0.534,1.43-1.265c0.1-0.791-0.461-1.513-1.252-1.612l-31.936-4.003
					c-0.788-0.101-1.513,0.461-1.613,1.253c-0.099,0.792,0.463,1.513,1.254,1.612L195.279,132
					C195.34,132.007,195.4,132.011,195.461,132.011z"/>
				<path fill="#6176F9" d="M195.461,93.807c0.716,0,1.339-0.535,1.43-1.265c0.1-0.792-0.461-1.513-1.252-1.612l-31.936-4.002
					c-0.788-0.1-1.513,0.461-1.613,1.252c-0.099,0.791,0.463,1.513,1.254,1.613l31.936,4.002
					C195.34,93.803,195.4,93.807,195.461,93.807z"/>
				<path fill="#6176F9" d="M195.461,101.448c0.716,0,1.339-0.535,1.43-1.265c0.1-0.792-0.461-1.513-1.252-1.612l-31.936-4.003
					c-0.788-0.1-1.513,0.461-1.613,1.253c-0.099,0.791,0.463,1.512,1.254,1.611l31.936,4.003
					C195.34,101.443,195.4,101.448,195.461,101.448z"/>
				<path fill="#6176F9" d="M195.461,109.088c0.716,0,1.339-0.534,1.43-1.265c0.1-0.791-0.461-1.513-1.252-1.612l-31.936-4.002
					c-0.788-0.101-1.513,0.461-1.613,1.252c-0.099,0.792,0.463,1.514,1.254,1.613l31.936,4.003
					C195.34,109.084,195.4,109.088,195.461,109.088z"/>
			</g>
		</g>
		<g>
			<g>
				<path opacity="0.77" fill="#90ABF5" d="M400.548,103.515c1.29,0.229,108.222,12.436,108.222,12.436v79.609l-108.222-15.218
					V103.515z"/>
				<path fill="#E7DDFB" d="M328.046,161.274c0.622,0.11,52.215,7.08,52.215,7.08v38.411l-52.215-7.343V161.274z"/>
				<path fill="#E7DDFB" d="M268.462,196.547c0.623,0.11,111.799,14.943,111.799,14.943v8.308l-111.799-15.206V196.547z"/>
				<path fill="#E7DDFB" d="M268.462,154.01c0.623,0.11,52.214,5.999,52.214,5.999v38.411l-52.214-7.343V154.01z"/>
				<g>
					<path fill="#152274" d="M431.453,126.074c2.822,0.295,6.401,0.667,10.334,1.074v-9.654c0.349,0.062,24.802,2.573,24.802,2.573
						v9.642c3.353,0.345,6.344,0.652,8.675,0.892c2.92,0.3,5.136,2.759,5.136,5.694v36.73c0,3.464-3.052,6.134-6.485,5.673
						l-43.816-5.887c-2.843-0.382-4.962-2.807-4.962-5.673v-35.37C425.136,128.37,428.074,125.72,431.453,126.074z"/>
					<path fill="#D7E4E5" d="M448.452,122.211c0.161,0.022,11.474,0.928,11.474,0.928l-0.002,4.684l-11.476-1.199L448.452,122.211z"
						/>
					<circle fill="#D7E4E5" cx="452.768" cy="152.396" r="9.213"/>
				</g>
			</g>
			<polyline fill="none" stroke="#6176F9" stroke-width="0.25" stroke-miterlimit="10" stroke-dasharray="2" points="
				448.448,187.079 448.448,198.206 376.946,186.11 			"/>
		</g>
		
			<line fill="none" stroke="#6176F9" stroke-width="0.25" stroke-miterlimit="10" stroke-dasharray="2" x1="317.053" y1="113.701" x2="317.053" y2="171.859"/>
		<polyline fill="none" stroke="#6176F9" stroke-width="0.25" stroke-miterlimit="10" stroke-dasharray="2" points="
			218.665,160.861 218.665,177.199 277.573,186.732 		"/>
	</g>
	<g>
		<g>
			<g>
				<path fill="#FAB28F" d="M130.64,250.345c5.758-1.502,9.802,1.432,9.802,1.432s10.561,30.512,12.209,32.352
					c1.647,1.838,34.67-2.404,38.818-2.097c6.761,0.043,23.207-1.013,25.067-1.625c1.859-0.612,6.992,0.547,9.076,1.476
					c2.085,0.931,3.177,5.751,2.66,7.019c-0.516,1.27-2.221,0.179-2.292-0.517c-0.77,0.867-2.063,1.003-2.463,0.238
					c-0.402-0.763-3.574-4.355-6.906-2.8c-3.85,1.796-6.164,1.28-13.969,3.003c-2.761,0.608-5.167,1.164-7.121,1.625
					c-0.618,0.197-2.569,0.67-5.362,1.306c-0.067,0.017-0.115,0.028-0.115,0.028v-0.003c-11.713,2.66-38.011,8.141-44.495,8.563
					c-8.064,0.525-25.319-40.297-25.319-40.297S124.883,251.847,130.64,250.345z"/>
				<path fill="#90ABF5" d="M176.979,279.731c-2.24,6.11-1.329,15.886-8.811,23.013c-4.631,12.22-7.89,27.9-6.057,35.029
					c-8.757,2.851-13.227,3.259-13.227,3.259l-9.583-19.959l18.838-44.805l10.027-4.276L176.979,279.731z"/>
				<path fill="#5E4FFF" d="M184.717,273.825c0,0-2.443,17.514-21.179,17.514C162.112,283.397,178.608,269.549,184.717,273.825z"/>
				<path fill="#FFB591" d="M171.692,270.338c5.48-2.319,9.905,0,9.905,0s14.861,28.666,16.757,30.246
					c1.897,1.582,33.961-7.389,38.108-7.686c6.697-0.934,22.818-4.356,24.569-5.231c1.752-0.874,6.997-0.469,9.195,0.149
					c2.197,0.619,3.974,5.231,3.646,6.562c-0.328,1.328-2.172,0.497-2.343-0.182c-0.637,0.97-1.896,1.29-2.404,0.593
					c-0.506-0.697-4.165-3.794-7.238-1.772c-3.549,2.334-5.913,2.156-13.388,4.989c-2.644,1.003-4.944,1.899-6.812,2.639
					c-0.583,0.284-2.446,1.033-5.116,2.065c-0.066,0.027-0.11,0.046-0.11,0.046v-0.003c-11.207,4.326-36.435,13.549-42.791,14.904
					c-7.903,1.688-30.876-36.213-30.876-36.213S166.211,272.658,171.692,270.338z"/>
				<path fill="#6176F9" d="M138.488,231.234c0,0,1.518,4.384,13.487,3.326c11.154-0.651,18.893,2.404,32.741,39.266
					c-8.959,1.63-22.605,12.016-21.179,17.514c-4.889-2.036-5.295-3.869-7.129,1.834c-1.832,5.702-10.363,34.825-7.523,47.859
					c-9.176,1.018-40.946,1.426-44-3.259c4.072-17.107-4.278-48.063-6.925-62.522c-2.647-14.46-0.815-31.293,9.369-37.947
					C117.511,230.65,138.488,231.234,138.488,231.234z"/>
				<g>
					<path fill="#FFB591" d="M199.995,169.878c4.674,7.792-0.705,25.502-7.564,30.779c-6.859,5.276-4.221,12.135-3.517,13.19
						c0.703,1.055-2.462,2.638-6.156,3.693c-3.694,1.055-11.784,13.542-15.829,11.081c-4.046-2.462-11.608-11.959-12.84-15.478
						c-1.23-3.517-6.155-34.12,12.488-45.728C185.22,155.808,197.884,166.36,199.995,169.878z"/>
					<path fill="#FFB591" d="M161.478,219.124c0,0-10.582,7.915-8.897,16.356c-9.219,2.111-18.893-3.869-18.893-3.869
						s16.401-31.676,19.754-42.377C156.794,178.533,161.478,219.124,161.478,219.124z"/>
					<path fill="#F46464" d="M198.911,191.044c13.394-13.856-3.137-52.648-35.499-47.372c-32.363,5.277-32.393,36.532-43.794,48.367
						c-25.425,26.392-34.285,61.217-11.959,60.502c19.106-0.612,26.029,16.767,26.029,16.767s-4.573-33.123,17.588-49.656
						c22.161-16.532,33.241-31.306,33.241-31.306S192.902,197.26,198.911,191.044z"/>
					<g>
						<path fill="#ED6161" d="M195.303,184.29c0,0,2.464,2.616,5.677,4.025c-0.588,0.987-1.272,1.905-2.069,2.729
							c-3.206,3.315-7.086,2.327-10.01,0.681C193.168,187.135,195.303,184.29,195.303,184.29z"/>
						<path fill="#ED6161" d="M119.618,192.039c11.049-11.468,11.42-41.174,40.883-47.803
							c-18.975,10.569-20.599,33.889-30.096,43.747c-25.426,26.392-29.324,49.432-6.988,49.591
							c12.1,0.086,6.009,20.761,9.892,23.314c-1.194,9.385,0.378,8.419,0.378,8.419s-6.923-17.378-26.029-16.767
							C85.333,253.256,94.193,218.43,119.618,192.039z"/>
					</g>
					<path fill="#FFB591" d="M174.315,201.712c0,0-0.352-7.211-4.397-4.045c-4.044,3.166-0.879,9.85-0.879,9.85L174.315,201.712z"/>
				</g>
				<g>
					<path fill="#FFB591" d="M216.107,495.157l1.425,22.198c0,0-5.295-14.459-14.052-15.478c0.61-4.073,0-6.721,0-6.721H216.107z"/>
					<path fill="#121C61" d="M191.464,397.81l8.146,99.792c0,0,17.312,3.055,20.569-1.63c-0.814-30.142-0.203-115.677-2.036-127.896
						c-1.832-12.22-61.885,3.462-61.885,3.462L191.464,397.81z"/>
					<path fill="#E5B6DB" d="M203.48,501.878c-3.788,0.128-7.536,5.702-8.656,10.183c4.48,0.408,21.282,19.856,25.354,37.778
						c2.343-4.685,0.713-23.522-2.647-32.483S209.488,501.674,203.48,501.878z"/>
					<path fill="#6176F9" d="M194.825,512.061c-1.859,3.438,5.396,14.054,8.656,21.385c3.259,7.331,2.851,16.903,16.699,16.394
						C219.314,544.328,210.524,513.277,194.825,512.061z"/>
				</g>
				<g>
					<path fill="#FFB591" d="M238.482,497.848l1.426,22.198c0,0-5.295-14.46-14.052-15.478c0.611-4.074,0-6.721,0-6.721H238.482z"/>
					<path fill="#152274" d="M104.885,337.773c-8.961,18.736-24.847,72.909,15.884,75.964c40.732,3.055,93.071-13.237,93.071-13.237
						l8.146,99.792c0,0,17.311,3.054,20.57-1.63c-0.815-30.142-0.204-115.678-2.038-127.896
						c-1.832-12.221-42.156-13.442-67.614-6.314c-2.646-9.775-10.793-26.679-10.793-26.679H104.885z"/>
					<path fill="#E5B6DB" d="M225.856,504.568c-3.788,0.128-7.536,5.701-8.656,10.182c4.48,0.407,21.282,19.857,25.356,37.779
						c2.341-4.685,0.712-23.522-2.648-32.483S231.865,504.364,225.856,504.568z"/>
					<path fill="#6176F9" d="M217.2,514.75c-1.857,3.437,5.398,14.053,8.656,21.384c3.259,7.332,2.851,16.904,16.701,16.396
						C241.691,547.018,232.9,515.968,217.2,514.75z"/>
				</g>
			</g>
			<path fill="#FFFFFF" d="M197.174,306.583c-1.793,0.488-3.669-0.428-4.385-2.143c-5.542-13.287-27.912-66.352-32.763-69.142
				c0.004,0.001,0.009,0.002,0.015,0.004l2.209,0.917c6.657,3.401,13.192,12.916,22.468,37.605c0,0-0.095,0.672-0.384,1.746
				c4.384,8.346,12.642,23.862,14.022,25.013c1.897,1.582,33.961-7.389,38.109-7.686c6.695-0.934,22.816-4.356,24.568-5.231
				c1.242-0.621,4.239-0.596,6.661-0.308L197.174,306.583z"/>
			<path opacity="0.09" fill="#FFFFFF" d="M198.911,191.044C198.911,191.044,198.911,191.044,198.911,191.044
				c-1.691,4.131-3.986,7.695-6.479,9.613c-6.859,5.276-4.221,12.135-3.517,13.19c0.268,0.403-0.03,0.883-0.705,1.381
				c-5.02-3.544-4.104-9.392,3.229-19.702c15.774-22.181-8.462-49.35-19.16-52.21C198.668,145.623,211.017,178.518,198.911,191.044z
				"/>
			<path opacity="0.38" fill="#FFFFFF" d="M192.94,193.176c12.578-21.707-10.337-47.1-20.661-49.859c0.001,0,0.003,0,0.004,0
				c1.43,0.126,2.811,0.356,4.157,0.653c0.222,0.049,0.452,0.086,0.672,0.139c0.509,0.125,1.005,0.275,1.504,0.422
				c0.288,0.085,0.58,0.162,0.864,0.255c0.471,0.153,0.929,0.328,1.388,0.501c0.295,0.113,0.591,0.221,0.882,0.34
				c0.444,0.184,0.875,0.381,1.308,0.583c0.289,0.135,0.577,0.27,0.859,0.412c0.421,0.212,0.835,0.433,1.244,0.662
				c0.277,0.154,0.55,0.312,0.821,0.474c0.401,0.239,0.797,0.484,1.184,0.739c0.261,0.17,0.517,0.348,0.771,0.525
				c0.383,0.267,0.763,0.535,1.132,0.815c0.241,0.182,0.474,0.374,0.709,0.562c0.368,0.295,0.736,0.588,1.09,0.896
				c0.21,0.183,0.411,0.375,0.617,0.563c0.362,0.33,0.727,0.658,1.072,1.001c0.134,0.132,0.259,0.271,0.39,0.406
				c0.833,0.849,1.624,1.731,2.364,2.648c0.061,0.076,0.128,0.147,0.188,0.223c0.288,0.362,0.557,0.736,0.831,1.107
				c0.177,0.24,0.36,0.477,0.53,0.72c0.246,0.349,0.475,0.705,0.708,1.061c0.18,0.276,0.364,0.551,0.538,0.83
				c0.213,0.346,0.416,0.697,0.617,1.048c0.171,0.299,0.344,0.597,0.507,0.898c0.186,0.345,0.363,0.692,0.539,1.041
				c0.158,0.316,0.313,0.632,0.462,0.95c0.161,0.343,0.315,0.688,0.464,1.034c0.143,0.329,0.279,0.66,0.411,0.992
				c0.136,0.339,0.268,0.679,0.394,1.021c0.126,0.346,0.243,0.692,0.357,1.04c0.108,0.329,0.22,0.658,0.319,0.987
				c0.111,0.37,0.207,0.739,0.305,1.108c0.082,0.309,0.17,0.619,0.243,0.928c0.1,0.422,0.18,0.843,0.262,1.265
				c0.049,0.255,0.11,0.51,0.153,0.765c0.113,0.664,0.206,1.326,0.276,1.984c0.021,0.202,0.027,0.401,0.044,0.602
				c0.039,0.466,0.078,0.932,0.094,1.392c0.009,0.257,0.003,0.511,0.006,0.766c0.003,0.398,0.006,0.796-0.007,1.188
				c-0.01,0.268-0.033,0.531-0.05,0.796c-0.025,0.372-0.054,0.744-0.096,1.108c-0.031,0.267-0.07,0.529-0.11,0.792
				c-0.054,0.354-0.112,0.706-0.182,1.053c-0.052,0.258-0.11,0.514-0.171,0.767c-0.082,0.341-0.173,0.677-0.271,1.008
				c-0.073,0.245-0.149,0.489-0.23,0.729c-0.112,0.329-0.237,0.65-0.368,0.968c-0.092,0.227-0.182,0.455-0.283,0.676
				c-0.149,0.323-0.313,0.634-0.479,0.944c-0.108,0.2-0.21,0.404-0.326,0.599c-0.197,0.333-0.416,0.648-0.636,0.962
				c-0.11,0.156-0.209,0.318-0.323,0.469c-0.347,0.457-0.717,0.895-1.116,1.309C197.042,192.977,194.944,193.446,192.94,193.176z"/>
		</g>
		<g>
			<g>
				<polygon fill="#152274" points="133.156,432.212 120.782,556.434 117.152,558.082 129.031,430.387 				"/>
				<polygon fill="#E7DDFB" points="129.031,430.387 123.752,430.387 110.223,555.112 117.152,558.082 				"/>
				<polygon fill="#152274" points="93.065,422.798 60.398,535.975 53.8,535.975 89.766,422.798 				"/>
				<path fill="#E7DDFB" d="M89.766,422.798c0,0-7.26-3.961-7.589-1.65c-0.331,2.311-34.317,112.517-34.317,112.517l5.94,2.311
					L89.766,422.798z"/>
				<polygon fill="#E7DDFB" points="156.417,427.746 173.577,535.975 179.187,535.975 160.378,426.098 				"/>
				<polygon fill="#152274" points="160.378,426.098 164.832,426.098 184.134,533.335 179.187,535.975 				"/>
				<polygon fill="#152274" points="121.113,426.098 107.583,518.486 101.974,521.787 117.152,426.098 				"/>
				<polygon fill="#E7DDFB" points="117.152,426.098 111.543,422.798 95.705,518.816 101.974,521.787 				"/>
			</g>
			<path fill="#E5B6DB" d="M200.625,415.286c4.601-1.975,3.347-8.792-1.656-9.035c-27.936-1.353-88.628,8.396-84.92-57.857
				c3.83-68.417-9.651-69.64-38.223-71.842c-43.171-3.329-57.561,122.52,12.483,150.707
				C131.324,444.567,176.696,425.56,200.625,415.286z"/>
			<path fill="#DEB0D4" d="M75.826,276.551c0.439,0.033,0.877,0.067,1.313,0.1c-26.77,27.763-27.097,119.209,31.329,142.721
				c31.503,12.678,64.259,5.873,88.942-2.712c-24.622,10.471-67.936,27.164-109.102,10.598
				C18.265,399.071,32.655,273.222,75.826,276.551z"/>
		</g>
	</g>
</g>
</svg>
