<?xml version="1.0" encoding="utf-8"?>
<!-- Generator: Adobe Illustrator 16.0.0, SVG Export Plug-In . SVG Version: 6.00 Build 0)  -->
<!DOCTYPE svg PUBLIC "-//W3C//DTD SVG 1.1//EN" "http://www.w3.org/Graphics/SVG/1.1/DTD/svg11.dtd">
<svg version="1.1" id="Layer_1" xmlns="http://www.w3.org/2000/svg" xmlns:xlink="http://www.w3.org/1999/xlink" x="0px" y="0px"
	 width="937.453px" height="871.456px" viewBox="0 0 937.453 871.456" enable-background="new 0 0 937.453 871.456"
	 xml:space="preserve">
<path opacity="0.2" fill="#110FAB" d="M446.401,813.341L14.21,624.551l434.814-239.407c0,0,449.718,192.961,416.533,201.902
	C832.37,595.984,446.401,813.341,446.401,813.341z"/>
<g>
	<g>
		<g>
			<path fill="#110FAB" d="M134.681,235.962l374.618-214.6c6.73-3.855,15.47-5.695,23.027-3.953
				c10.614,2.447,20.572,5.788,20.549,15.083l0.566,348.203l-32.958,19.471c10.785,5.25,339.625,165.308,340.17,165.699l0.79,13.434
				c0,5.798-3.063,11.141-8.079,14.045c-55.977,32.42-383.879,221.979-383.879,221.979c-10.787,6.235-24.083,6.233-34.871-0.002
				L122.957,635.183c-3.25-1.879-5.254-5.346-5.259-9.099l-0.541-359.973C117.188,253.651,123.869,242.156,134.681,235.962z"/>
			<g>
				<path fill="#92CDF9" d="M128.195,624.903l425.577-242.825l0.876-347.437c0.026-10.036-10.816-16.338-19.525-11.351
					L142.673,248.106c-8.544,4.895-13.825,13.979-13.85,23.826L128.195,624.903z"/>
				<g>
					<g>
						<polygon fill="#0553DD" points="486.327,214.508 486.678,214.645 487.059,214.115 487.094,226.516 486.362,226.939 						"/>
					</g>
					<g>
						<polygon fill="#0553DD" points="431.54,168.712 432.498,168.158 432.59,200.857 432.14,201.485 431.631,201.288 						"/>
					</g>
					<g>
						<polygon fill="#0262CD" points="246.339,452.978 246.35,456.78 185.458,491.937 185.447,488.134 						"/>
					</g>
					<g>
						<polygon fill="#0262CD" points="246.372,464.388 246.381,468.192 185.491,503.349 185.479,499.544 						"/>
					</g>
					<g enable-background="new    ">
						<g>
							<polygon fill="#0553DD" points="501.488,192.947 501.913,193.382 487.059,214.116 486.68,214.645 486.327,214.509 
								474.292,209.864 474.771,208.94 486.323,213.416 486.719,213.568 487.055,213.098 							"/>
						</g>
						<g>
							<polygon fill="#0553DD" points="486.246,186.071 486.598,186.207 486.978,185.678 487.055,213.098 486.719,213.568 
								486.323,213.416 							"/>
						</g>
						<g>
							<polygon fill="#0553DD" points="486.172,159.964 486.905,159.541 486.973,184.66 486.637,185.131 486.241,184.978 							"/>
						</g>
						<g>
							<path fill="#5BB59B" d="M507.628,184.376c4.261-0.028,5.927,5.494,4.618,11.503c-1.31,6.008-4.959,12.201-8.979,17.424
								c-4.778,6.202-10.567,11.367-16.242,14.645c-7.502,4.33-14.805,5.361-19.324,1.123c-2.299-2.154-3.676-6.055-3.021-10.58
								c0.317-1.016,0.589-2.032,0.81-3.042c0.04-0.179,0.076-0.355,0.11-0.532c0.152-0.409,0.32-0.821,0.506-1.234
								c1.303-2.909,3.371-5.658,4.265-8.606c1.761-5.784-1.76-8.728-4.631-11.091c-2.871-2.362-5.157-7.528-1.73-12.878
								c2.023-3.162,5.221-4.748,7.244-7.927c3.384-5.31,1.143-10.305,1.591-15.671c0.636-7.72,6.139-14.182,12.102-17.625
								c7.629-4.405,16.015-3.865,15.913,5.311c-0.021,2.152-0.496,4.678,0.215,6.263c0.993,2.231,3.842,1.705,5.96,2.282
								c4.985,1.418,5.393,10.861,0.786,18.303c-2.431,3.932-6.352,8.985-4.946,11.595
								C503.694,185.172,505.907,184.38,507.628,184.376z M501.488,192.947l-14.433,20.15l-0.077-27.419l14.853-20.733l-0.423-0.435
								l-14.435,20.15l-0.068-25.12l-0.732,0.423l0.068,25.014l-11.552-4.458l-0.479,0.907l12.035,4.645l0.077,27.344l-11.555-4.475
								l-0.476,0.923l12.034,4.644l0.035,12.431l0.732-0.423l-0.035-12.401l14.854-20.732L501.488,192.947"/>
						</g>
						<g>
							<polygon fill="#0553DD" points="451.483,211.636 452.035,212.209 432.699,239.203 432.192,239.91 431.741,239.734 
								416.078,233.667 416.695,232.483 431.737,238.305 432.246,238.501 432.694,237.873 							"/>
						</g>
						<g>
							<path fill="#5BB59B" d="M459.465,200.494c5.433-0.031,7.623,6.825,6.134,14.423c-0.034,0.177-0.07,0.354-0.11,0.532
								c-0.221,1.01-0.493,2.026-0.81,3.042c-2.137,6.848-6.323,13.723-10.877,19.642c-6.222,8.078-13.762,14.809-21.158,19.079
								c-9.763,5.637-19.275,6.982-25.159,1.469c-0.085-0.081-0.168-0.163-0.251-0.246c-2.455-2.472-4.034-6.521-3.875-11.283
								c0.089-2.664,0.722-5.552,2.051-8.512c1.711-3.792,4.395-7.368,5.555-11.183c2.292-7.549-2.289-11.388-6.022-14.453
								c-3.734-3.082-6.715-9.806-2.262-16.754c2.654-4.127,6.81-6.202,9.438-10.328c0.643-1.012,1.129-2.015,1.494-3.012
								c2.127-5.816,0.089-11.425,0.579-17.396c0.625-7.542,4.816-14.163,10.154-18.893c1.774-1.572,3.673-2.935,5.61-4.053
								c9.93-5.733,20.835-5.032,20.703,6.917c-0.035,2.808-0.645,6.096,0.277,8.141c1.292,2.918,5.016,2.211,7.754,2.997
								c6.496,1.827,7.024,14.118,1.027,23.807c-3.174,5.123-8.263,11.709-6.433,15.111
								C454.347,201.536,457.223,200.508,459.465,200.494z M451.483,211.636l-18.789,26.237l-0.101-35.685l19.337-26.994
								l-0.552-0.573l-18.788,26.237l-0.092-32.699l-0.958,0.554l0.092,32.576l-15.041-5.82l-0.619,1.183l15.664,6.068l0.101,35.586
								l-15.042-5.821l-0.617,1.184l15.664,6.067l0.045,16.167l0.958-0.553l-0.045-16.145l19.336-26.994L451.483,211.636"/>
						</g>
						<g>
							<polygon fill="#0553DD" points="431.741,239.734 432.192,239.91 432.699,239.203 432.744,255.348 431.787,255.901 							"/>
						</g>
						<g>
							<polygon fill="#0553DD" points="431.636,202.719 432.088,202.894 432.593,202.188 432.694,237.873 432.246,238.5 
								431.737,238.305 							"/>
						</g>
						<g>
							<polygon fill="#0553DD" points="399.692,231.875 400.017,232.207 388.648,248.073 388.368,248.465 388.1,248.361 
								378.905,244.817 379.256,244.113 388.097,247.541 388.394,247.656 388.647,247.303 							"/>
						</g>
						<g>
							<polygon fill="#0553DD" points="388.1,248.361 388.368,248.465 388.648,248.073 388.708,269.039 388.456,269.392 
								388.158,269.278 							"/>
						</g>
						<g>
							<polygon fill="#0553DD" points="399.753,253.613 400.08,253.943 388.71,269.825 388.43,270.218 388.161,270.114 
								378.966,266.555 379.317,265.849 388.159,269.278 388.456,269.392 388.708,269.04 							"/>
						</g>
						<g>
							<path fill="#5BB59B" d="M403.36,247.153c-0.16,4.762,1.42,8.811,3.875,11.283c-1.313,3.758-3.621,7.495-6.125,10.735
								c-3.654,4.744-8.083,8.698-12.426,11.206c-5.733,3.309-11.316,4.1-14.769,0.864c-2.348-2.21-3.448-6.813-1.219-11.763
								c0.996-2.229,2.584-4.33,3.255-6.581c1.355-4.43-1.332-6.688-3.538-8.479c-2.192-1.815-3.938-5.751-1.326-9.837
								c1.56-2.424,3.997-3.637,5.542-6.069c2.584-4.054,0.88-7.884,1.221-11.988c0.485-5.899,4.691-10.839,9.251-13.472
								c5.833-3.367,12.241-2.957,12.167,4.056c-0.023,1.651-0.386,3.579,0.154,4.791c0.767,1.698,2.953,1.295,4.562,1.76
								c3.812,1.074,4.116,8.291,0.604,13.982c-1.868,3.008-4.862,6.876-3.784,8.865
								C401.267,247.376,402.311,247.273,403.36,247.153z M399.753,253.612l-11.045,15.427l-0.06-20.966l11.369-15.866l-0.325-0.331
								l-11.046,15.427l-0.054-19.216l-0.549,0.317l0.054,19.137l-8.841-3.428l-0.351,0.705l9.195,3.544l0.058,20.917l-8.841-3.429
								l-0.351,0.706l9.195,3.559l0.027,9.484l0.549-0.317l-0.027-9.456l11.369-15.883L399.753,253.612"/>
						</g>
						<g>
							<polygon fill="#0553DD" points="388.161,270.114 388.43,270.218 388.71,269.825 388.738,279.281 388.188,279.598 							"/>
						</g>
						<g>
							<polygon fill="#0553DD" points="451.379,174.621 451.93,175.193 432.593,202.188 432.088,202.893 431.636,202.719 
								415.972,196.651 416.59,195.468 431.631,201.288 432.141,201.485 432.59,200.857 							"/>
						</g>
						<g>
							<path fill="#F9FBFC" d="M423.634,147.013c0.238-0.137,0.475-0.268,0.711-0.391c-5.338,4.73-9.529,11.351-10.154,18.893
								c-0.489,5.971,1.549,11.58-0.579,17.396c-3.034-1.416-4.945-4.878-4.959-9.951
								C408.626,163.426,415.337,151.803,423.634,147.013z"/>
						</g>
						<g>
							<path fill="#F9FBFC" d="M538.659,46.77L146.941,272.927l0.49,172.907l391.716-226.157L538.659,46.77z M171.389,336.694
								l-0.035-12.415l182.772-105.523l0.035,12.414L171.389,336.694 M171.891,309.768l-0.035-12.397l182.772-105.524l0.036,12.398
								L171.891,309.768 M512.247,195.879c-1.31,6.008-4.961,12.201-8.979,17.424c-4.778,6.202-10.567,11.367-16.242,14.645
								c-7.502,4.33-14.808,5.362-19.324,1.123c-2.299-2.154-3.676-6.055-3.021-10.58c-2.137,6.849-6.323,13.724-10.877,19.642
								c-6.223,8.078-13.762,14.809-21.158,19.079c-9.764,5.637-19.275,6.982-25.159,1.469c-0.085-0.08-0.168-0.162-0.251-0.246
								c-1.313,3.758-3.621,7.496-6.125,10.735c-3.654,4.744-8.083,8.698-12.427,11.206c-5.732,3.309-11.316,4.101-14.768,0.865
								c-2.349-2.211-3.448-6.813-1.219-11.764c0.995-2.228,2.584-4.328,3.255-6.581c1.355-4.43-1.332-6.688-3.538-8.479
								c-2.192-1.814-3.938-5.751-1.326-9.837c1.559-2.424,3.997-3.637,5.541-6.069c2.585-4.054,0.881-7.884,1.223-11.988
								c0.485-5.899,4.691-10.839,9.251-13.471c5.833-3.368,12.241-2.958,12.167,4.055c-0.023,1.652-0.386,3.579,0.154,4.792
								c0.767,1.697,2.953,1.295,4.562,1.759c3.812,1.074,4.115,8.291,0.604,13.982c-1.868,3.008-4.862,6.877-3.784,8.865
								c0.461,0.872,1.505,0.769,2.554,0.648c0.088-2.664,0.722-5.552,2.051-8.511c1.711-3.793,4.395-7.369,5.555-11.184
								c2.292-7.549-2.29-11.388-6.022-14.453c-3.734-3.081-6.715-9.806-2.263-16.754c2.655-4.125,6.811-6.202,9.438-10.328
								c0.643-1.012,1.129-2.015,1.494-3.012c-3.034-1.416-4.945-4.878-4.959-9.951c-0.027-9.532,6.683-21.157,14.979-25.946
								c0.238-0.138,0.476-0.269,0.712-0.392c1.773-1.572,3.673-2.935,5.61-4.053c9.93-5.733,20.835-5.03,20.703,6.918
								c-0.035,2.809-0.646,6.095,0.277,8.14c1.292,2.918,5.015,2.211,7.754,2.997c6.496,1.827,7.023,14.119,1.026,23.807
								c-3.173,5.123-8.262,11.709-6.432,15.111c1.063,1.996,3.938,0.968,6.181,0.953c5.433-0.031,7.624,6.825,6.135,14.423
								c0.151-0.409,0.32-0.821,0.506-1.234c1.303-2.909,3.37-5.658,4.265-8.606c1.761-5.784-1.76-8.728-4.631-11.09
								c-2.871-2.363-5.157-7.529-1.73-12.879c2.023-3.162,5.221-4.748,7.244-7.926c3.384-5.311,1.143-10.306,1.591-15.672
								c0.636-7.72,6.139-14.182,12.1-17.625c7.631-4.405,16.014-3.865,15.915,5.311c-0.023,2.152-0.496,4.679,0.213,6.263
								c0.995,2.231,3.844,1.705,5.962,2.282c4.985,1.418,5.393,10.861,0.786,18.303c-2.431,3.932-6.352,8.985-4.949,11.595
								c0.823,1.535,3.036,0.745,4.758,0.739C511.889,184.348,513.555,189.871,512.247,195.879"/>
						</g>
						<g>
							<polygon fill="#0553DD" points="501.408,164.51 501.831,164.945 486.978,185.678 486.598,186.207 486.246,186.071 
								474.21,181.426 474.689,180.52 486.241,184.978 486.637,185.131 486.973,184.66 							"/>
						</g>
						<g>
							<polygon fill="#0262CD" points="372.098,391.8 372.109,395.603 311.231,430.75 311.22,426.948 							"/>
						</g>
						<g>
							<polygon fill="#0262CD" points="372.065,380.39 372.076,384.193 311.2,419.341 311.189,415.536 							"/>
						</g>
						<g>
							<path fill="#0262CD" d="M147.433,445.834l391.714-226.157l0.405,142.64L147.836,588.475L147.433,445.834z M385.802,413.588
								l-0.244-85.929l-88.118,50.876l0.243,85.927L385.802,413.588 M260.062,486.184l-0.244-85.927l-88.105,50.867l0.245,85.927
								L260.062,486.184"/>
						</g>
						<g>
							<path fill="#0262CD" d="M341.537,366.37c5.845-3.375,10.607-0.662,10.627,6.056c0.019,6.716-4.712,14.912-10.558,18.287
								c-5.845,3.375-10.607,0.66-10.626-6.056C330.96,377.939,335.692,369.744,341.537,366.37z"/>
						</g>
						<g>
							<polygon fill="#0553DD" points="388.043,228.404 388.592,228.087 388.646,247.303 388.394,247.656 388.097,247.541 							
								"/>
						</g>
						<g>
							<path fill="#F9FBFC" d="M297.44,378.536l88.118-50.876l0.244,85.929l-88.119,50.875L297.44,378.536z M341.537,366.37
								c-5.845,3.375-10.577,11.569-10.558,18.287c0.02,6.716,4.782,9.43,10.626,6.056c5.845-3.375,10.577-11.57,10.558-18.287
								C352.145,365.708,347.382,362.995,341.537,366.37 M372.076,384.193l-0.011-3.803l-60.876,35.146l0.009,3.805L372.076,384.193
								 M372.109,395.603l-0.011-3.803l-60.877,35.148l0.011,3.802L372.109,395.603"/>
						</g>
						<g>
							<path fill="#0262CD" d="M215.797,438.965c5.859-3.382,10.607-0.661,10.627,6.057c0.018,6.718-4.699,14.904-10.558,18.287
								c-5.846,3.376-10.594,0.652-10.613-6.063C205.234,450.528,209.951,442.341,215.797,438.965z"/>
						</g>
						<g>
							<path fill="#F9FBFC" d="M171.713,451.123l88.105-50.867l0.244,85.927l-88.104,50.866L171.713,451.123z M215.796,438.965
								c-5.845,3.376-10.562,11.563-10.543,18.281c0.019,6.715,4.767,9.438,10.613,6.063c5.859-3.383,10.576-11.569,10.557-18.287
								C226.404,438.304,221.656,435.583,215.796,438.965 M246.35,456.78l-0.011-3.803l-60.892,35.156l0.011,3.803L246.35,456.78
								 M246.381,468.192l-0.011-3.805l-60.891,35.156l0.011,3.805L246.381,468.192"/>
						</g>
						<g>
							<polygon fill="#0262CD" points="354.126,218.756 354.162,231.17 171.389,336.694 171.354,324.279 							"/>
						</g>
						<g>
							<polygon fill="#0262CD" points="354.628,191.846 354.664,204.244 171.892,309.768 171.856,297.371 							"/>
						</g>
					</g>
				</g>
			</g>
			<g>
				<path fill="#FFF9FF" d="M128.438,624.871l425.353-245.299l300.812,173.856c8.688,5.022,8.688,17.563,0,22.585L463.005,802.311
					c-8.526,4.927-19.033,4.927-27.56,0L128.438,624.871z"/>
			</g>
			<g>
				<g>
					<path fill="#92CDF9" d="M246.164,632.418c-8.471,4.865-12.707,7.298-21.177,12.162c-8.565-4.841-12.847-7.263-21.412-12.104
						c8.471-4.865,12.707-7.297,21.178-12.162C233.317,625.156,237.6,627.577,246.164,632.418z"/>
					<path fill="#92CDF9" d="M277.422,614.47c-8.47,4.864-12.707,7.295-21.177,12.159c-8.565-4.841-12.848-7.262-21.412-12.104
						c8.471-4.862,12.707-7.295,21.178-12.159C264.576,607.207,268.858,609.627,277.422,614.47z"/>
					<path fill="#92CDF9" d="M308.683,596.519c-8.471,4.863-12.707,7.295-21.178,12.162c-8.565-4.843-12.847-7.263-21.412-12.105
						c8.471-4.862,12.708-7.295,21.179-12.16C295.836,589.257,300.119,591.676,308.683,596.519z"/>
					<path fill="#92CDF9" d="M339.945,578.566c-8.472,4.864-12.708,7.297-21.18,12.161c-8.563-4.841-12.847-7.26-21.411-12.102
						c8.472-4.866,12.708-7.299,21.18-12.163C327.098,571.304,331.38,573.725,339.945,578.566z"/>
					<path fill="#92CDF9" d="M371.207,560.615c-8.472,4.865-12.708,7.297-21.18,12.162c-8.565-4.841-12.847-7.263-21.411-12.104
						c8.472-4.865,12.708-7.297,21.179-12.162C358.359,553.353,362.642,555.774,371.207,560.615z"/>
					<path fill="#92CDF9" d="M402.469,542.662c-8.472,4.865-12.708,7.298-21.18,12.162c-8.565-4.841-12.847-7.261-21.411-12.102
						c8.472-4.867,12.708-7.299,21.18-12.164C389.622,535.399,393.904,537.821,402.469,542.662z"/>
					<path fill="#92CDF9" d="M433.731,524.712c-8.473,4.864-12.708,7.297-21.18,12.161c-8.564-4.841-12.847-7.262-21.411-12.104
						c8.473-4.864,12.708-7.297,21.18-12.161C420.884,517.449,425.167,519.868,433.731,524.712z"/>
					<path fill="#92CDF9" d="M464.993,506.759c-8.471,4.864-12.708,7.297-21.179,12.162c-8.565-4.841-12.847-7.261-21.412-12.102
						c8.472-4.867,12.709-7.3,21.18-12.164C452.146,499.496,456.429,501.918,464.993,506.759z"/>
					<path fill="#92CDF9" d="M496.254,488.808c-8.471,4.865-12.707,7.298-21.178,12.162c-8.566-4.841-12.848-7.263-21.413-12.104
						c8.472-4.864,12.709-7.297,21.181-12.162C483.408,481.546,487.689,483.967,496.254,488.808z"/>
					<path fill="#92CDF9" d="M527.515,470.857c-8.471,4.864-12.706,7.297-21.178,12.162c-8.566-4.842-12.847-7.263-21.411-12.104
						c8.472-4.865,12.707-7.298,21.179-12.162C514.668,463.595,518.952,466.015,527.515,470.857z"/>
					<path fill="#92CDF9" d="M558.777,452.906c-8.472,4.865-12.707,7.298-21.179,12.162c-8.565-4.843-12.849-7.263-21.413-12.104
						c8.472-4.865,12.709-7.297,21.179-12.162C545.929,445.644,550.21,448.065,558.777,452.906z"/>
					<path fill="#92CDF9" d="M590.033,434.958c-8.471,4.862-12.707,7.295-21.176,12.159c-8.566-4.841-12.847-7.262-21.411-12.104
						c8.47-4.864,12.705-7.297,21.177-12.161C577.186,427.695,581.469,430.115,590.033,434.958z"/>
					<path fill="#92CDF9" d="M276.217,649.408c-8.471,4.865-12.707,7.297-21.178,12.16c-8.565-4.842-12.848-7.263-21.413-12.104
						c8.471-4.864,12.707-7.297,21.178-12.161C263.368,642.146,267.652,644.565,276.217,649.408z"/>
					<path fill="#92CDF9" d="M307.476,631.457c-8.471,4.865-12.707,7.298-21.178,12.162c-8.565-4.843-12.848-7.263-21.413-12.105
						c8.471-4.865,12.707-7.297,21.178-12.162C294.627,624.195,298.911,626.616,307.476,631.457z"/>
					<path fill="#92CDF9" d="M338.736,613.507c-8.471,4.864-12.707,7.297-21.179,12.162c-8.565-4.844-12.848-7.263-21.413-12.106
						c8.471-4.864,12.708-7.297,21.179-12.159C325.889,606.244,330.171,608.666,338.736,613.507z"/>
					<path fill="#92CDF9" d="M369.999,595.556c-8.473,4.865-12.708,7.298-21.181,12.162c-8.566-4.843-12.848-7.263-21.413-12.105
						c8.471-4.865,12.707-7.298,21.18-12.162C357.15,588.291,361.432,590.713,369.999,595.556z"/>
					<path fill="#92CDF9" d="M401.259,577.604c-8.471,4.864-12.708,7.297-21.179,12.161c-8.566-4.841-12.848-7.263-21.414-12.104
						c8.472-4.864,12.708-7.297,21.18-12.162C388.412,570.341,392.694,572.762,401.259,577.604z"/>
					<path fill="#92CDF9" d="M432.522,559.652c-8.472,4.864-12.708,7.297-21.18,12.162c-8.565-4.842-12.848-7.263-21.413-12.104
						c8.472-4.867,12.708-7.3,21.18-12.164C419.674,552.388,423.956,554.81,432.522,559.652z"/>
					<path fill="#92CDF9" d="M463.784,541.699c-8.472,4.865-12.708,7.297-21.18,12.164c-8.565-4.843-12.848-7.265-21.413-12.105
						c8.471-4.865,12.708-7.297,21.179-12.162C450.936,534.437,455.218,536.858,463.784,541.699z"/>
					<path fill="#92CDF9" d="M495.046,523.749c-8.472,4.864-12.709,7.297-21.181,12.161c-8.565-4.841-12.847-7.263-21.413-12.105
						c8.473-4.864,12.708-7.297,21.181-12.162C482.199,516.486,486.482,518.905,495.046,523.749z"/>
					<path fill="#92CDF9" d="M526.307,505.796c-8.472,4.867-12.707,7.297-21.179,12.162c-8.565-4.842-12.849-7.263-21.412-12.104
						c8.471-4.864,12.706-7.297,21.178-12.161C513.46,498.533,517.743,500.955,526.307,505.796z"/>
					<path fill="#92CDF9" d="M557.568,487.845c-8.472,4.865-12.707,7.298-21.179,12.162c-8.565-4.841-12.849-7.263-21.412-12.104
						c8.471-4.865,12.706-7.297,21.178-12.162C544.721,480.582,549.003,483.004,557.568,487.845z"/>
					<path fill="#92CDF9" d="M588.829,469.895c-8.472,4.864-12.707,7.297-21.178,12.161c-8.566-4.841-12.85-7.262-21.413-12.104
						c8.471-4.864,12.707-7.297,21.178-12.161C575.98,462.632,580.262,465.054,588.829,469.895z"/>
					<path fill="#92CDF9" d="M620.087,451.945c-14.204,8.155-21.306,12.233-35.508,20.39c-8.565-4.843-12.849-7.265-21.412-12.105
						c14.201-8.156,21.303-12.232,35.507-20.39C607.238,444.684,611.521,447.103,620.087,451.945z"/>
					<path fill="#92CDF9" d="M320.262,658.362c-14.068,8.079-21.102,12.116-35.169,20.195c-8.566-4.841-12.849-7.263-21.414-12.104
						c14.067-8.079,21.102-12.119,35.17-20.195C307.414,651.1,311.697,653.521,320.262,658.362z"/>
					<path fill="#92CDF9" d="M337.529,648.447c-8.47,4.865-12.706,7.297-21.177,12.16c-8.565-4.842-12.849-7.263-21.414-12.104
						c8.471-4.864,12.707-7.297,21.178-12.161C324.682,641.183,328.964,643.604,337.529,648.447z"/>
					<path fill="#92CDF9" d="M368.79,630.497c-8.471,4.864-12.707,7.297-21.178,12.161c-8.566-4.843-12.848-7.265-21.414-12.105
						c8.471-4.865,12.708-7.297,21.179-12.162C355.942,623.234,360.225,625.653,368.79,630.497z"/>
					<path fill="#92CDF9" d="M400.052,612.544c-8.473,4.866-12.708,7.297-21.18,12.161c-8.565-4.841-12.848-7.262-21.413-12.104
						c8.472-4.864,12.708-7.297,21.18-12.161C387.204,605.281,391.487,607.703,400.052,612.544z"/>
					<path fill="#92CDF9" d="M431.313,594.593c-8.472,4.865-12.708,7.297-21.18,12.162c-8.565-4.841-12.848-7.263-21.413-12.105
						c8.473-4.863,12.707-7.298,21.179-12.162C418.465,587.33,422.748,589.75,431.313,594.593z"/>
					<path fill="#92CDF9" d="M462.576,576.64c-8.472,4.865-12.708,7.3-21.181,12.164c-8.565-4.843-12.848-7.263-21.413-12.105
						c8.472-4.864,12.708-7.297,21.18-12.162C449.728,569.378,454.011,571.799,462.576,576.64z"/>
					<path fill="#92CDF9" d="M493.837,558.689c-8.472,4.864-12.707,7.297-21.181,12.162c-8.564-4.842-12.847-7.263-21.413-12.104
						c8.472-4.866,12.708-7.299,21.18-12.163C480.989,551.427,485.271,553.846,493.837,558.689z"/>
					<path fill="#92CDF9" d="M525.1,540.736c-8.473,4.865-12.709,7.297-21.18,12.162c-8.566-4.841-12.85-7.263-21.413-12.104
						c8.471-4.865,12.707-7.298,21.18-12.162C512.251,533.474,516.535,535.896,525.1,540.736z"/>
					<path fill="#92CDF9" d="M556.361,522.786c-8.471,4.864-12.706,7.297-21.18,12.161c-8.564-4.841-12.847-7.263-21.413-12.104
						c8.472-4.864,12.709-7.299,21.181-12.164C543.514,515.523,547.795,517.944,556.361,522.786z"/>
					<path fill="#92CDF9" d="M587.623,504.835c-8.472,4.864-12.707,7.297-21.179,12.162c-8.565-4.844-12.849-7.263-21.415-12.106
						c8.474-4.864,12.709-7.297,21.181-12.161C574.773,497.572,579.056,499.992,587.623,504.835z"/>
					<path fill="#92CDF9" d="M618.883,486.884c-8.472,4.865-12.707,7.298-21.179,12.162c-8.565-4.843-12.849-7.263-21.415-12.105
						c8.472-4.865,12.707-7.297,21.179-12.162C606.034,479.621,610.317,482.043,618.883,486.884z"/>
					<path fill="#92CDF9" d="M650.139,468.934c-8.471,4.864-12.704,7.297-21.176,12.162c-8.565-4.842-12.849-7.263-21.415-12.106
						c8.472-4.862,12.707-7.295,21.178-12.159C637.292,461.671,641.576,464.093,650.139,468.934z"/>
					<path fill="#92CDF9" d="M336.324,683.386c-8.47,4.864-12.706,7.297-21.177,12.162c-8.565-4.844-12.848-7.265-21.413-12.106
						c8.47-4.864,12.707-7.297,21.178-12.159C323.477,676.123,327.758,678.545,336.324,683.386z"/>
					<path fill="#92CDF9" d="M367.583,665.436c-8.472,4.864-12.707,7.297-21.178,12.161c-8.565-4.841-12.848-7.263-21.413-12.104
						c8.47-4.864,12.707-7.297,21.178-12.162C354.735,658.173,359.018,660.594,367.583,665.436z"/>
					<path fill="#92CDF9" d="M398.844,647.484c-8.471,4.864-12.708,7.297-21.179,12.162c-8.565-4.842-12.848-7.263-21.413-12.104
						c8.471-4.865,12.707-7.298,21.179-12.162C385.996,640.222,390.279,642.644,398.844,647.484z"/>
					<path fill="#92CDF9" d="M430.105,629.533c-8.471,4.865-12.708,7.298-21.179,12.162c-8.565-4.841-12.848-7.263-21.413-12.104
						c8.471-4.867,12.708-7.297,21.18-12.162C417.258,622.271,421.541,624.692,430.105,629.533z"/>
					<path fill="#92CDF9" d="M461.367,611.583c-8.472,4.864-12.708,7.297-21.179,12.161c-8.566-4.843-12.848-7.262-21.413-12.105
						c8.471-4.864,12.707-7.297,21.179-12.162C448.519,604.318,452.802,606.739,461.367,611.583z"/>
					<path fill="#92CDF9" d="M492.628,593.63c-8.471,4.864-12.706,7.297-21.179,12.162c-8.565-4.841-12.848-7.263-21.413-12.104
						c8.471-4.865,12.708-7.298,21.181-12.162C479.782,586.367,484.065,588.789,492.628,593.63z"/>
					<path fill="#92CDF9" d="M523.892,575.679c-8.472,4.865-12.709,7.298-21.181,12.162c-8.563-4.843-12.847-7.263-21.413-12.105
						c8.472-4.865,12.707-7.297,21.181-12.162C511.044,568.414,515.326,570.836,523.892,575.679z"/>
					<path fill="#92CDF9" d="M555.155,557.727c-8.474,4.864-12.709,7.297-21.181,12.161c-8.565-4.841-12.849-7.263-21.412-12.104
						c8.471-4.864,12.706-7.297,21.18-12.161C542.306,550.464,546.588,552.885,555.155,557.727z"/>
					<path fill="#92CDF9" d="M586.416,539.775c-8.471,4.865-12.709,7.297-21.18,12.162c-8.564-4.844-12.848-7.263-21.413-12.105
						c8.471-4.865,12.709-7.298,21.18-12.162C573.569,532.513,577.849,534.933,586.416,539.775z"/>
					<path fill="#92CDF9" d="M617.676,521.825c-8.471,4.864-12.707,7.295-21.18,12.159c-8.564-4.841-12.848-7.263-21.413-12.104
						c8.473-4.865,12.709-7.297,21.18-12.162C604.828,514.563,609.111,516.981,617.676,521.825z"/>
					<path fill="#92CDF9" d="M662.441,496.118c-13.872,7.967-20.81,11.95-34.684,19.915c-8.564-4.841-12.848-7.262-21.413-12.104
						c13.874-7.967,20.81-11.95,34.685-19.917C649.592,488.855,653.875,491.277,662.441,496.118z"/>
					<path fill="#92CDF9" d="M680.194,485.923c-8.472,4.865-12.707,7.298-21.178,12.162c-8.564-4.841-12.848-7.263-21.413-12.105
						c8.471-4.865,12.707-7.295,21.178-12.16C667.347,478.661,671.627,481.082,680.194,485.923z"/>
					<path fill="#92CDF9" d="M370.531,702.722c-8.47,4.865-12.706,7.297-21.177,12.162c-8.564-4.841-12.847-7.263-21.412-12.104
						c8.471-4.865,12.707-7.297,21.178-12.162C357.685,695.461,361.967,697.881,370.531,702.722z"/>
					<path fill="#92CDF9" d="M401.791,684.773c-8.473,4.862-12.708,7.297-21.178,12.159c-8.565-4.841-12.847-7.26-21.412-12.104
						c8.471-4.862,12.707-7.295,21.178-12.159C388.943,677.511,393.225,679.933,401.791,684.773z"/>
					<path fill="#92CDF9" d="M433.05,666.82c-8.471,4.867-12.707,7.299-21.178,12.162c-8.564-4.842-12.847-7.261-21.412-12.102
						c8.471-4.865,12.708-7.3,21.179-12.162C420.204,659.56,424.486,661.979,433.05,666.82z"/>
					<path fill="#92CDF9" d="M620.622,559.111c-59.163,33.974-118.326,67.947-177.489,101.92
						c-8.565-4.841-12.847-7.261-21.412-12.104c59.164-33.974,118.327-67.946,177.489-101.92
						C607.775,551.849,612.058,554.271,620.622,559.111z"/>
					<path fill="#92CDF9" d="M651.882,541.161c-8.471,4.864-12.707,7.297-21.178,12.161c-8.564-4.841-12.848-7.263-21.413-12.104
						c8.474-4.864,12.709-7.297,21.18-12.161C639.036,533.898,643.319,536.32,651.882,541.161z"/>
					<path fill="#92CDF9" d="M683.141,523.21c-8.469,4.865-12.705,7.297-21.176,12.162c-8.566-4.841-12.847-7.263-21.413-12.104
						c8.471-4.865,12.707-7.298,21.178-12.162C670.296,515.947,674.578,518.369,683.141,523.21z"/>
					<path fill="#92CDF9" d="M714.4,505.262c-8.472,4.862-12.705,7.295-21.176,12.159c-8.564-4.841-12.848-7.263-21.411-12.104
						c8.472-4.864,12.705-7.297,21.176-12.159C701.555,497.999,705.835,500.421,714.4,505.262z"/>
				</g>
			</g>
			<polygon fill="#92CDF9" points="475.593,669.748 621.542,585.486 704.942,636.865 559.045,721.159 			"/>
		</g>
		<path opacity="0.2" fill="#FFF9FF" d="M535.123,23.291L142.673,248.106c-8.544,4.895-13.825,13.979-13.85,23.826l-0.628,352.971
			l12.802-7.306C217.315,504.809,504.876,79.669,542.585,21.611C540.117,21.417,537.541,21.906,535.123,23.291z"/>
	</g>
</g>
<g>
	<g enable-background="new    ">
		<g>
			<path fill="#CE9006" d="M280.329,314.977l4.665,2.711c-2.324-1.351-5.543-1.158-9.097,0.895l-4.666-2.711
				C274.785,313.819,278.005,313.627,280.329,314.977z"/>
		</g>
		<g>
			<polygon fill="#FCBD25" points="262.875,343.901 258.21,341.189 258.192,334.975 262.857,337.686 			"/>
		</g>
		<g>
			<polygon fill="#FCBD25" points="225.858,365.273 221.194,362.562 258.21,341.189 262.875,343.901 			"/>
		</g>
		<g>
			<polygon fill="#F9FBFC" points="225.841,359.057 221.176,356.347 258.193,334.975 262.857,337.686 			"/>
		</g>
		<g>
			<polygon fill="#F9FBFC" points="225.858,365.273 221.194,362.562 221.176,356.347 225.841,359.057 			"/>
		</g>
		<g>
			<path fill="#CE9006" d="M203.745,385.277l-4.666-2.71c-2.293-1.333-3.716-4.167-3.727-8.198
				c-0.024-8.109,5.677-17.966,12.72-22.032l4.664,2.711c-7.042,4.065-12.742,13.923-12.72,22.031
				C200.029,381.11,201.451,383.944,203.745,385.277z"/>
		</g>
		<g>
			<path fill="#FCBD25" d="M275.896,318.583c7.057-4.075,12.794-0.821,12.816,7.288c0.023,8.109-5.677,17.982-12.733,22.056
				l-63.16,36.465c-7.042,4.067-12.78,0.797-12.803-7.312c-0.022-8.108,5.677-17.966,12.72-22.031L275.896,318.583z
				 M262.875,343.901l-0.017-6.215l-37.017,21.372l0.017,6.216L262.875,343.901"/>
		</g>
		<g>
			<polygon fill="#F9FBFC" points="262.857,337.686 262.875,343.901 225.858,365.273 225.841,359.057 			"/>
		</g>
		<g>
			<polygon fill="#CE9006" points="212.736,355.048 208.072,352.336 271.23,315.872 275.896,318.583 			"/>
		</g>
	</g>
</g>
<g>
	<g enable-background="new    ">
		<g>
			<polygon fill="#F9FBFC" points="506.893,333.684 502.227,330.256 502.216,326.45 506.882,329.879 			"/>
		</g>
		<g>
			<polygon fill="#F9FBFC" points="445.969,348.055 441.304,344.627 502.195,318.839 506.861,322.268 			"/>
		</g>
		<g>
			<polygon fill="#0262CD" points="445.958,344.25 441.293,340.822 502.184,315.035 506.85,318.462 			"/>
		</g>
		<g>
			<polygon fill="#F9FBFC" points="506.861,322.268 502.195,318.839 502.184,315.035 506.85,318.462 			"/>
		</g>
		<g>
			<path fill="#F9FBFC" d="M482.268,304.015c-0.009-3.336-1.185-5.863-3.081-7.258l4.662,3.428c1.9,1.396,3.074,3.922,3.086,7.258
				c0.017,6.721-4.699,14.182-10.56,16.663c-2.938,1.245-5.6,0.991-7.522-0.422l-4.665-3.429c1.923,1.414,4.584,1.667,7.522,0.423
				C477.572,318.195,482.288,310.734,482.268,304.015z"/>
		</g>
		<g>
			<polygon fill="#F9FBFC" points="446.001,359.471 441.336,356.042 502.227,330.256 506.893,333.684 			"/>
		</g>
		<g>
			<polygon fill="#0262CD" points="506.882,329.879 506.893,333.684 446.001,359.471 445.991,355.666 			"/>
		</g>
		<g>
			<polygon fill="#0262CD" points="445.991,355.666 441.325,352.237 502.218,326.45 506.882,329.879 			"/>
		</g>
		<g>
			<polygon fill="#0262CD" points="446.001,359.471 441.336,356.042 441.325,352.237 445.991,355.666 			"/>
		</g>
		<g>
			<path fill="#0262CD" d="M479.187,296.756l4.662,3.428c-1.924-1.415-4.593-1.666-7.542-0.416l-4.665-3.429
				C474.594,295.09,477.261,295.341,479.187,296.756z"/>
		</g>
		<g>
			<polygon fill="#0262CD" points="506.85,318.462 506.861,322.268 445.969,348.056 445.958,344.25 			"/>
		</g>
		<g>
			<polygon fill="#0262CD" points="445.969,348.056 441.304,344.627 441.293,340.822 445.958,344.25 			"/>
		</g>
		<g>
			<path fill="#0262CD" d="M468.854,323.684l-4.664-3.429c-1.903-1.398-3.082-3.933-3.092-7.274
				c-0.02-6.72,4.699-14.166,10.543-16.641l4.665,3.429c-5.846,2.475-10.563,9.92-10.544,16.64
				C465.772,319.75,466.952,322.286,468.854,323.684z"/>
		</g>
		<g>
			<path fill="#0262CD" d="M476.307,299.769c5.859-2.482,10.608,0.954,10.628,7.675c0.017,6.72-4.699,14.181-10.56,16.663
				c-5.845,2.476-10.593-0.977-10.612-7.698C465.745,309.688,470.461,302.244,476.307,299.769z"/>
		</g>
		<g>
			<path fill="#F9FBFC" d="M432.224,305.127l88.105-37.313l0.243,85.965l-88.104,37.312L432.224,305.127z M476.307,299.769
				c-5.846,2.475-10.563,9.92-10.544,16.64c0.019,6.72,4.768,10.173,10.612,7.697c5.86-2.481,10.576-9.942,10.56-16.663
				C486.916,300.724,482.167,297.287,476.307,299.769 M506.893,333.684l-0.011-3.805l-60.892,25.787l0.011,3.805L506.893,333.684
				 M506.861,322.268l-0.011-3.806l-60.892,25.788l0.011,3.805L506.861,322.268"/>
		</g>
		<g>
			<polygon fill="#92CDF9" points="432.467,391.092 427.803,387.664 427.56,301.699 432.224,305.127 			"/>
		</g>
		<g>
			<polygon fill="#92CDF9" points="432.224,305.127 427.56,301.699 515.664,264.387 520.329,267.815 			"/>
		</g>
	</g>
</g>
<g>
	<g>
		<g enable-background="new    ">
			<g>
				<path fill="#CE9006" d="M661.394,111.644l-5.257,3.055c2.618-1.522,6.246-1.305,10.251,1.008l5.257-3.054
					C667.64,110.341,664.012,110.123,661.394,111.644z"/>
			</g>
			<g>
				<polygon fill="#FCBD25" points="681.06,144.234 686.315,141.179 686.336,134.177 681.08,137.231 				"/>
			</g>
			<g>
				<polygon fill="#FCBD25" points="722.767,168.313 728.022,165.259 686.315,141.179 681.06,144.234 				"/>
			</g>
			<g>
				<polygon fill="#F9FBFC" points="722.787,161.312 728.042,158.256 686.336,134.177 681.08,137.231 				"/>
			</g>
			<g>
				<polygon fill="#F9FBFC" points="722.767,168.314 728.022,165.259 728.042,158.256 722.787,161.312 				"/>
			</g>
			<g>
				<path fill="#CE9006" d="M747.683,190.854l5.255-3.055c2.586-1.502,4.188-4.696,4.201-9.236
					c0.026-9.137-6.396-20.243-14.331-24.824l-5.257,3.055c7.935,4.582,14.357,15.687,14.331,24.824
					C751.87,186.159,750.267,189.353,747.683,190.854z"/>
			</g>
			<g>
				<path fill="#FCBD25" d="M737.551,156.793c7.935,4.582,14.357,15.687,14.331,24.824c-0.025,9.137-6.489,12.82-14.424,8.238
					l-71.163-41.086c-7.952-4.59-14.374-15.714-14.349-24.851c0.026-9.137,6.491-12.803,14.441-8.211L737.551,156.793z
					 M681.06,144.234l41.707,24.079l0.02-7.002l-41.707-24.08L681.06,144.234"/>
			</g>
			<g>
				<polygon fill="#F9FBFC" points="681.08,137.231 681.06,144.234 722.767,168.314 722.787,161.312 				"/>
			</g>
			<g>
				<polygon fill="#CE9006" points="737.551,156.793 742.808,153.739 671.645,112.654 666.388,115.708 				"/>
			</g>
		</g>
	</g>
	<g>
		<path fill="#A04A58" d="M647.86,135.279l-4.688,15.371l0.59,12.213c0,0,1.64,3.004,2.458,2.186
			c0.819-0.82,7.114-9.517,7.243-9.948c0.132-0.431,0.677-18.184,0.677-18.184L647.86,135.279z"/>
		<path fill="#A04A58" d="M727.587,177.48c-0.274,1.365-1.713,18.09-1.713,18.09l0.894,13.045l5.571,6.472l5.352-9.203
			c0,0,1.491-3.947,0.528-6.049c-0.961-2.101-5.442-22.355-5.442-22.355H727.587z"/>
		<ellipse opacity="0.2" fill="#110FAB" cx="714.85" cy="430.841" rx="82.73" ry="43.02"/>
		<path fill="#110FAB" d="M673.758,286.46c0,0-10.632,44.294-15.076,68.003c-4.447,23.71,2.544,85.206,2.544,85.206
			s2.222,3.703,7.409,3.703c5.186,0,10.792-73.35,10.792-73.35s6.926-53.927,10.632-53.186c0.831,0.167,7.581,2.696,10.628,2.114
			c10.505-2.008,25.511-11.206,24.936-22.119c-0.741-14.077-11.854-14.818-11.854-14.818s-19.265-1.482-21.485-0.741
			C690.059,282.015,673.758,286.46,673.758,286.46z"/>
		<circle fill="#A04A58" cx="651.994" cy="135.982" r="6.322"/>
		<circle fill="#A04A58" cx="730.848" cy="177.176" r="6.322"/>
		<path fill="#110FAB" d="M698.433,302.428c0,0-3.578,48.464,1.607,58.096c5.186,9.631,34.126,38.926,34.126,38.926
			s8.497,1.112,6.273-4.816c-2.221-5.928-22.27-41.575-22.27-41.575l7.452-56.227l-16.301-20.005L698.433,302.428z"/>
		<path fill="#110FAB" d="M733.55,398.555c0,0,2.267,9.13,1.532,10.865c-0.732,1.732-3.303,10.125,1.167,10.956
			c4.473,0.829,7.311-3.366,7.773-7.746c0.464-4.382-3.466-17.894-3.466-17.894L733.55,398.555z"/>
		<path fill="#A04A58" d="M667.026,424.946c-2.262-0.354-4.828-1.073-7.398-1.547c0.849,9.676,1.599,16.271,1.599,16.271
			c0.586,6.064,2.499,5.548,7.534,3.975c1.603-0.502,3.272-7.967,4.835-18.355C671.158,425.248,668.833,425.229,667.026,424.946z"/>
		<path fill="#FBFEFF" d="M658.186,425.035c0,0,5.063,5.064,15.49,3.873c1.232-0.273,2.463-2.917,2.551-5.239
			c0.041-1.073-0.131-2.249-0.353-3.283c-0.296-1.37-1.866-2.038-3.075-1.323c-2.117,1.254-5.398,2.772-8.408,2.387
			c-4.953-0.631-5.434-6.008-5.434-6.008l-0.997,0.024c-1.45,2.126-1.287,4.632-0.66,7.127c0.119,0.472,0.271,0.937,0.457,1.394
			L658.186,425.035z"/>
		<path fill="#A04A58" d="M740.44,394.635c-0.545-1.458-2.171-4.715-4.311-8.793c-1.808,2.625-3.846,5.091-4.389,5.521
			c-1.185,0.936-2.374,1.505-3.574,1.908c3.57,3.721,6,6.181,6,6.181S742.664,400.563,740.44,394.635z"/>
		<path fill="#FBFEFF" d="M723.416,390.242l3.138,4.703c0,0,9.194,4.284,11.493-7.315l-2.926-5.957l-1.045,0.209
			c0,0,0.524,5.748-3.761,6.688s-6.166,0.418-6.166,0.418L723.416,390.242z"/>
		<path fill="#110FAB" d="M669.725,451.484c0.244-3.176,0.487-6.349,0.73-9.524c0.037-0.489,0.071-1.015-0.138-1.459
			c-0.597,0.63-1.54,0.755-2.408,0.802c-2.273,0.121-4.563-0.056-6.791-0.523c-0.151,3.44-2.604,6.159-4.96,8.672
			c-2.354,2.514-5.009,4.875-6.461,7.997c-0.263,0.563-0.479,1.228-0.207,1.784c0.343,0.691,1.245,0.851,2.017,0.863
			c3.394,0.063,6.73-1.021,9.723-2.622C664.223,455.873,667.076,453.606,669.725,451.484z"/>
		<circle fill="#A04A58" cx="681.909" cy="285.556" r="6.323"/>
		<path fill="#FBFEFF" d="M726.141,226.602c-2.964-2.963-46.565-19.28-53.233-19.28s-11.113,8.15-11.113,8.15
			s3.105,1.602,7.838,4.017l4.126,66.972c0,0,7.409,17.041,16.301,18.523c8.892,1.482,33.342-1.482,35.563-8.15
			C726.167,295.197,729.106,229.565,726.141,226.602z"/>
		<circle fill="#A04A58" cx="685.821" cy="193.263" r="17.375"/>
		<path fill="#A04A58" d="M680.073,198.604l5.916,17.874l0,0c3.497,2.945,8.438,3.458,12.462,1.292l1.887-1.016l-4.936-19.423
			L680.073,198.604z"/>
		<ellipse fill="#A04A58" cx="701.714" cy="193.961" rx="3.544" ry="6.733"/>
		<path fill="#471821" d="M685.821,175.887c-7.351,0-13.622,4.574-16.16,11.023c3.081,1.819,7.976,2.436,11.098,2.471
			c1.372,0.016,13.795-1.699,13.252-3.874c0.674,2.693,1.711,5.293,3.076,7.71c0.003-2.639,2.073-5.13,4.667-5.615
			c0.148-0.028,0.299-0.058,0.452-0.085C699.83,180.75,693.401,175.887,685.821,175.887z"/>
		<path fill="#FBFEFF" d="M677.113,208.626c-7.198-4.366-16.585-5.806-21.592-12.576c-3.33-4.506-3.928-10.462-3.735-16.063
			c0.193-5.602,2.579-19.354,1.678-24.886c-1.299,2.258-5.153,3.198-7.521,2.109c-2.366-1.089-3.642-4.104-2.771-6.56
			c-1.511,6.917-5.021,22.029-6.53,28.947c-1.741,7.969-3.49,16.048-3.126,24.198c0.168,3.754,0.874,7.691,3.3,10.562
			c1.677,1.985,4.019,3.272,6.332,4.451c13.002,6.616,27.02,11.233,41.406,13.64C685.365,223.711,684.617,213.175,677.113,208.626z"
			/>
		<path fill="#FBFEFF" d="M725.875,195.57c0,0,0.185,10.446,4.162,10.905c5.507,0.634,6.905-12.89,6.905-12.89
			s11.968,40.97,11.968,46.034s0.461,11.508-2.301,12.889c-2.763,1.381-39.59-4.143-39.129-7.365
			c0.461-3.222-5.432-28.37,1.933-26.068c7.365,2.302,16.977,11.082,16.729,7.527C725.894,223.047,725.875,195.57,725.875,195.57z"
			/>
	</g>
</g>
<g>
	<g>
		<ellipse opacity="0.2" fill="#110FAB" cx="721.04" cy="772.599" rx="82.73" ry="43.02"/>
		<g>
			<path fill="#110FAB" d="M721.011,754.999c0,0-2.492,5.964-2.385,9.43c0.108,3.469,1.842,4.771,1.842,4.771
				s6.505,1.734,8.457,1.844c1.949,0.108,8.346,5.203,13.006,5.528c4.662,0.323,10.624,1.734,11.274-1.952
				c0.65-3.686-22.979-18.318-22.979-18.318L721.011,754.999z"/>
			<path fill="#0B0B82" d="M747.92,559.965l4.925,5.532c0,0,12.889,46.717,12.492,50.675s-5.542,4.75-8.709,3.563
				c-3.167-1.188-11.875-30.085-11.875-30.085L747.92,559.965z"/>
			<path fill="#EEBCC5" d="M722.016,743.746l-0.964,12.709c0,0-0.261,3.017,3.824,3.213c4.085,0.193,5.35-3.367,5.35-3.367
				l2.879-18.975L722.016,743.746z"/>
			<path fill="#EEBCC5" d="M694.38,755.135l-2.389,11.397c0,0,0.734,4.046,4.412,3.494s4.78-5.516,4.78-5.516l2.206-12.134
				L694.38,755.135z"/>
			<path fill="#110FAB" d="M692.36,764.694c0,0,0.366,3.309,3.31,3.126c2.94-0.186,5.515-3.31,5.515-3.31l-0.736,11.766
				c0,0-1.654,17.649-6.802,19.487c-5.146,1.84-6.25-7.905-6.25-7.905L692.36,764.694z"/>
			<path fill="#F0C53B" d="M702.154,633.155c0,0,0.972,18.47,1.943,21.874c0.972,3.401-1.943,48.606-1.943,48.606
				s-10.208,53.469-9.723,56.386c0.486,2.915,8.749,1.456,10.694-1.459c1.943-2.917,14.097-47.149,16.04-59.787
				c1.945-12.639,7.777-41.803,7.777-41.803s0.487,35.483,0.487,38.4c0,2.915-6.319,55.896-6.319,55.896s0.239,1.554,5.143,2.282
				c1.603,0.236,4.414-0.309,5.58-2.218c2.897-4.75,3.858-15.132,3.858-15.132s14.097-60.272,13.125-66.592
				s1.943-48.606,1.943-48.606l-7.777-2.917L702.154,633.155z"/>
			<path fill="#110FAB" d="M720.665,561.46c0,0,16.146-5.203,22.764-3.549c6.619,1.655,8.825,6.067,9.376,8.273
				c0.552,2.206-2.206,55.705-2.206,55.705s-28.68,23.716-40.813,17.649c-8.764-4.383-9.473-9.34-9.188-11.755
				c0.17-1.463,0.316-2.928,0.268-4.401l-1.558-47.271L720.665,561.46z"/>
			<path fill="#0B0B82" d="M747.792,601.646l-33.465,6.694l-6.982-35.397l-0.771-1.816l-7.267,4.985l1.558,47.271
				c0.049,1.474-0.098,2.938-0.268,4.401c-0.237,2.019,0.237,5.813,5.511,9.562c11.117-5.716,33.48-18.037,42.458-27.204
				C753.699,604.897,747.792,601.646,747.792,601.646z"/>
			<path fill="#110FAB" d="M715.3,592.106c0,0,9.226-28.992,5.364-30.646c0,0-22.462,7.482-25.22,13.549
				c-2.758,6.067-2.165,11.447-4.646,20.823c0,0-5.792,20.131-4.964,25.37c0.827,5.24,6.343,7.997,19.304,2.758
				s45.226-17.925,45.226-17.925l-0.275-5.791l-38.057,4.137L715.3,592.106z"/>
			<path fill="#F7F7FB" d="M725.407,561.437c0,0-5.909,1.647-6.459,3.022c-0.55,1.374,3.848,7.695,8.519,11.13
				c4.673,3.434,7.695,4.397,7.695,4.397s5.358-6.459,5.223-15.39C740.247,555.664,725.407,561.437,725.407,561.437z"/>
			<circle fill="#EEBCC5" cx="737.746" cy="544.205" r="16.084"/>
			<path fill="#EEBCC5" d="M741.254,548.529l-5.477,16.546l0,0c-3.235,2.726-7.808,3.199-11.534,1.193l0,0
				c-1.025-0.552-1.545-1.732-1.259-2.863l4.083-16.057L741.254,548.529z"/>
			<path fill="#110FAB" d="M751.333,544.912c0.842-0.028,1.74-0.121,2.404-0.643c0.03-0.023,0.052-0.056,0.079-0.079
				c-0.006-6.666-4.171-12.895-10.825-15.191c-8.398-2.896-17.555,1.564-20.45,9.962c-0.235,0.677-0.403,1.359-0.541,2.045
				c0.664,0.351,1.364,0.582,2.068,0.645c1.64,0.144,7.054-2.052,6.558-4.288c0.242,1.095,0.485,2.187,0.727,3.281
				c1.202-0.472,2.126-1.592,2.359-2.861C738.255,542.462,744.814,545.116,751.333,544.912z"/>
			<path fill="#0B0B82" d="M760.843,625.063L760.843,625.063c-4.397,0-7.998-3.599-7.998-7.998l0,0c0-4.396,3.601-7.997,7.998-7.997
				l0,0c4.399,0,7.997,3.601,7.997,7.997l0,0C768.84,621.465,765.243,625.063,760.843,625.063z"/>
			<circle fill="#EEBCC5" cx="724.251" cy="540.101" r="4.896"/>
			<circle fill="#EEBCC5" cx="765.876" cy="618.626" r="5.942"/>
			<circle fill="#EEBCC5" cx="754.252" cy="602.318" r="5.942"/>
			<path fill="#EEBCC5" d="M763.803,607.636l-4.279-6.545c-0.504-0.771-1.538-0.989-2.31-0.484c-0.771,0.506-0.988,1.54-0.484,2.312
				l4.279,6.545c0.504,0.771,1.538,0.986,2.312,0.482C764.091,609.441,764.307,608.407,763.803,607.636z"/>
			<polygon fill="#E0E4ED" points="774.817,604.381 755.426,616.193 750.366,622.133 769.969,610.646 			"/>
		</g>
		<polygon fill="#110FAB" points="774.817,604.381 775.698,605.521 771.102,612.001 750.957,623.312 750.366,622.133 
			769.969,610.646 		"/>
	</g>
	<g>
		<path fill="#110FAB" d="M848.726,434.234L848.726,434.234c-41.832,0-75.741,33.908-75.741,75.739v0.002
			c0,41.828,33.909,75.739,75.741,75.739l0,0c41.831,0,75.739-33.911,75.739-75.739v-0.002
			C924.465,468.143,890.557,434.234,848.726,434.234z"/>
		<g>
			
				<rect x="793.245" y="559.287" transform="matrix(0.7278 0.6858 -0.6858 0.7278 616.7229 -385.6979)" fill="#110FAB" width="1.998" height="49.561"/>
		</g>
		<path fill="#FFF9FF" d="M848.726,439.595L848.726,439.595c-38.87,0-70.381,31.508-70.381,70.379v0.002
			c0,38.868,31.511,70.379,70.381,70.379l0,0c38.871,0,70.379-31.511,70.379-70.379v-0.002
			C919.105,471.103,887.597,439.595,848.726,439.595z"/>
	</g>
	<path fill="#110FAB" d="M874.283,558.935h-52.814c-2.199,0-3.981-1.781-3.981-3.979v-91.544c0-2.2,1.782-3.981,3.981-3.981h52.814
		c2.197,0,3.979,1.781,3.979,3.981v91.544C878.261,557.153,876.48,558.935,874.283,558.935z"/>
	<rect x="822.828" y="464.773" fill="#FFF9FF" width="50.093" height="88.82"/>
	<rect x="822.828" y="518.259" fill="#0262CD" width="50.093" height="35.335"/>
	<g>
		<g>
			<g>
				<g>
					<path fill="#5BB59B" d="M833.721,478.458c-0.075,0.73,0.288,1.627-0.268,2.105c-0.334,0.286-0.857,0.252-1.193,0.536
						c-0.564,0.48-0.191,1.404,0.278,1.978c0.469,0.573,1.045,1.284,0.754,1.965c-0.146,0.347-0.487,0.569-0.703,0.877
						c-0.48,0.683-0.249,1.661,0.255,2.327c1.297,1.717,4.014,1.82,5.838,0.679c0.662-0.414,1.263-0.996,1.48-1.745
						c0.218-0.75-0.054-1.675-0.752-2.021c-0.282-0.142-0.646-0.211-0.78-0.497c-0.228-0.489,0.416-0.888,0.817-1.248
						c0.758-0.683,0.695-2.063-0.121-2.676c-0.345-0.258-0.814-0.418-0.976-0.818c-0.116-0.282-0.037-0.604-0.032-0.909
						C838.357,476.691,833.966,476.069,833.721,478.458z"/>
					<g>
						<rect x="835.906" y="479.906" fill="#0553DD" width="0.118" height="9.572"/>
					</g>
					<g>
						<polygon fill="#0553DD" points="835.961,483.688 833.934,481.985 834.012,481.893 835.968,483.536 838.4,481.811 
							838.469,481.907 						"/>
					</g>
					<g>
						<polygon fill="#0553DD" points="835.961,487.752 833.934,486.048 834.012,485.958 835.968,487.602 838.4,485.874 
							838.469,485.973 						"/>
					</g>
				</g>
			</g>
			<g>
				<g>
					<path fill="#5BB59B" d="M854.134,475.813c-0.097,0.954,0.377,2.129-0.35,2.754c-0.435,0.374-1.122,0.329-1.56,0.702
						c-0.738,0.627-0.25,1.835,0.364,2.587c0.614,0.75,1.366,1.679,0.984,2.57c-0.191,0.452-0.638,0.741-0.92,1.145
						c-0.627,0.894-0.325,2.174,0.334,3.044c1.695,2.247,5.251,2.381,7.638,0.89c0.866-0.541,1.652-1.304,1.937-2.286
						c0.285-0.979-0.068-2.188-0.984-2.644c-0.368-0.183-0.845-0.273-1.019-0.648c-0.3-0.638,0.543-1.161,1.068-1.633
						c0.991-0.892,0.909-2.697-0.159-3.499c-0.453-0.338-1.064-0.547-1.278-1.07c-0.15-0.371-0.047-0.789-0.041-1.189
						C860.199,473.501,854.458,472.687,854.134,475.813z"/>
					<g>
						<rect x="856.993" y="477.706" fill="#0553DD" width="0.155" height="12.521"/>
					</g>
					<g>
						<polygon fill="#0553DD" points="857.066,482.653 854.415,480.425 854.515,480.305 857.075,482.455 860.257,480.197 
							860.347,480.324 						"/>
					</g>
					<g>
						<polygon fill="#0553DD" points="857.066,487.968 854.415,485.74 854.515,485.622 857.075,487.771 860.257,485.514 
							860.347,485.641 						"/>
					</g>
				</g>
			</g>
			<g>
				<g>
					<path fill="#5BB59B" d="M841.55,470.986c-0.127,1.243,0.491,2.771-0.455,3.585c-0.566,0.489-1.46,0.429-2.029,0.914
						c-0.963,0.816-0.327,2.392,0.475,3.367c0.799,0.976,1.777,2.187,1.281,3.348c-0.252,0.589-0.829,0.966-1.197,1.489
						c-0.817,1.165-0.423,2.828,0.433,3.964c2.21,2.924,6.836,3.101,9.944,1.157c1.127-0.705,2.148-1.698,2.521-2.976
						c0.37-1.275-0.093-2.849-1.282-3.44c-0.48-0.239-1.099-0.357-1.327-0.845c-0.39-0.832,0.707-1.511,1.39-2.126
						c1.29-1.162,1.185-3.512-0.205-4.553c-0.59-0.441-1.387-0.713-1.663-1.396c-0.195-0.482-0.063-1.027-0.054-1.549
						C849.446,467.979,841.97,466.917,841.55,470.986z"/>
					<g>
						<rect x="845.271" y="473.453" fill="#0553DD" width="0.204" height="16.299"/>
					</g>
					<g>
						<polygon fill="#0553DD" points="845.368,479.891 841.915,476.991 842.045,476.836 845.378,479.635 849.519,476.696 
							849.638,476.861 						"/>
					</g>
					<g>
						<polygon fill="#0553DD" points="845.368,486.811 841.915,483.911 842.045,483.756 845.378,486.555 849.519,483.616 
							849.638,483.782 						"/>
					</g>
				</g>
			</g>
		</g>
		<rect x="830.004" y="492.69" fill="#92CDF9" width="34.626" height="3.43"/>
		<rect x="830.004" y="499.24" fill="#92CDF9" width="34.626" height="3.432"/>
		<path fill="#F0C53B" d="M854.179,507.039h-13.724c-2.154,0-3.899,1.745-3.899,3.899c0,2.152,1.745,3.899,3.899,3.899h13.724
			c2.154,0,3.899-1.747,3.899-3.899C858.079,508.784,856.333,507.039,854.179,507.039z"/>
		<rect x="831.289" y="524.162" fill="#FFF9FF" width="32.056" height="24.587"/>
		<circle fill="#92CDF9" cx="847.317" cy="532.746" r="4.979"/>
		<rect x="833.962" y="541.747" fill="#92CDF9" width="26.708" height="3.432"/>
	</g>
</g>
<ellipse opacity="0.2" fill="#110FAB" cx="295.302" cy="624.557" rx="67.137" ry="34.91"/>
<ellipse opacity="0.2" fill="#110FAB" cx="537.977" cy="487.776" rx="67.137" ry="34.91"/>
<g>
	<ellipse opacity="0.2" fill="#110FAB" cx="185.401" cy="815.845" rx="98.511" ry="40.415"/>
	<g>
		<g>
			<path fill="#DCDEEF" d="M238.843,656.253l-90.941,30.543v114.438c0,23.167,30.828,41.944,68.855,41.944
				s68.854-18.777,68.854-41.944V686.796L238.843,656.253z"/>
			<ellipse fill="#DCDEEF" cx="216.757" cy="686.796" rx="68.855" ry="41.945"/>
			<path fill="#471821" d="M158.14,708.802c12.127,11.964,33.839,19.939,58.617,19.939c24.778,0,46.489-7.976,58.618-19.939
				c0.838-2.433,1.285-4.951,1.285-7.532c0-20.154-26.819-36.491-59.903-36.491c-33.083,0-59.902,16.337-59.902,36.491
				C156.855,703.851,157.302,706.369,158.14,708.802z"/>
			<path fill="#A04A58" d="M259.254,675.555c-10.852-6.655-25.883-10.776-42.497-10.776c-5.663,0-11.136,0.488-16.33,1.383
				c1.176,1.644,3.306,2.792,5.313,3.471c8.104,2.738,18.048,3.369,22.771,10.501c-0.649,1.87-2.936,2.499-4.891,2.813
				c-14.159,2.272-28.881,2.394-42.202,7.702c-4.421,1.763-9.195,4.955-9.298,9.712c-0.091,4.169,3.441,7.368,6.328,10.38
				c2.887,3.013,5.479,7.548,3.328,11.121c-0.179,0.298-0.404,0.557-0.63,0.814c10.394,3.838,22.569,6.065,35.612,6.065
				c3.09,0,6.133-0.125,9.115-0.366c-2.922-2.588-6.058-4.934-9.382-6.979c-3.318-2.04-7.396-5.173-6.092-8.844
				c1.003-2.824,4.553-3.604,7.53-3.953c7.155-0.836,14.309-1.672,21.463-2.511c2.261-0.263,4.638-0.57,6.465-1.926
				c1.829-1.357,2.815-4.134,1.471-5.972c-0.772-1.056-2.161-1.64-2.638-2.857c-0.764-1.945,1.341-3.858,3.354-4.423
				c2.013-0.563,4.322-0.584,5.866-1.99c3.129-2.853,0.364-7.952-2.435-11.128C254.105,677.184,256.699,676.427,259.254,675.555z
				 M200.163,695.936c-4.903,0.711-9.971,1.131-14.758-0.145c-0.52-0.138-1.125-0.398-1.201-0.931
				c-0.054-0.384,0.206-0.739,0.483-1.011c3.031-2.973,10.524-3.811,14.669-3.731c1.719,0.032,6.041,0.638,7.027,2.168
				C208.042,694.856,201.78,695.7,200.163,695.936z"/>
		</g>
		<path fill="#FFF9FF" d="M216.757,649.676c34.709,0,64.031,16.998,64.031,37.12c0,20.123-29.322,37.121-64.031,37.121
			c-34.708,0-64.03-16.998-64.03-37.121C152.727,666.674,182.049,649.676,216.757,649.676 M216.757,644.852
			c-38.027,0-68.855,18.778-68.855,41.944c0,23.165,30.828,41.945,68.855,41.945c38.028,0,68.854-18.78,68.854-41.945
			C285.611,663.63,254.785,644.852,216.757,644.852L216.757,644.852z"/>
		<g>
			<path fill="#DCDEEF" d="M275.494,733.041l-2.515-1.452v0.046l-0.039-0.021v0.043l-0.04-0.021v0.045l-0.04-0.023v0.045
				l-0.039-0.023v0.045l-0.041-0.021v0.045l-0.039-0.023v0.045l-0.04-0.023v0.045l-0.04-0.021v0.046l-0.039-0.024v0.046l-0.04-0.024
				v0.046l-0.04-0.023v0.045l-0.039-0.021v0.045l-0.04-0.023v0.045l-0.04-0.023v0.045l-0.04-0.021v0.046l-0.039-0.024v0.046
				l-0.04-0.024v0.046l-0.04-0.024v0.046l-0.04-0.021v0.045l-0.039-0.023v0.045l-0.04-0.021v0.043l-0.04-0.021v0.045l-0.039-0.023
				v0.045l-0.04-0.023v0.045l-0.039-0.021v0.046l-0.041-0.024v0.046l-0.039-0.023v0.045l-0.04-0.023v0.045l-0.04-0.021v0.045
				l-0.039-0.023v0.045l-0.04-0.023v0.045l-0.04-0.021v0.043l-0.039-0.021v0.046l-0.04-0.024v0.046l-0.04-0.024v0.046l-0.04-0.021
				v0.045l-0.039-0.023v0.045l-0.04-0.023v0.045l-0.039-0.021v0.045l-0.041-0.023v0.045l-0.039-0.023v0.046l-0.04-0.022v0.044
				l-0.04-0.021v0.045l-0.039-0.023v0.045l-0.04-0.023v0.045l-0.04-0.021v0.045l-0.039-0.023v0.045l-0.04-0.023v0.045l-0.04-0.021
				v0.046l-0.04-0.024v0.046l-0.04-0.023v0.045l-0.039-0.023v0.045l-0.04-0.021v0.045l-0.04-0.023v0.045l-0.039-0.023v0.045
				l-0.04-0.021v0.043l-0.04-0.021v0.046l-0.039-0.024v0.046l-0.04-0.024v0.048l-0.039-0.023v0.045l-0.04-0.023v0.045l-0.04-0.023
				v0.045l-0.04-0.021v0.045l-0.039-0.023v0.045l-0.04-0.023v0.046l-0.04-0.022v0.044l-0.039-0.021v0.045l-0.04-0.023v0.045
				l-0.04-0.023v0.045l-0.04-0.021v0.045l-0.04-0.023v0.045l-0.039-0.023v0.045l-0.04-0.023v0.048l-0.04-0.024v0.046l-0.04-0.024
				v0.046l-0.039-0.024v0.046l-0.04-0.021v0.045l-0.039-0.023v0.045l-0.04-0.023v0.045l-0.04-0.021v0.045l-0.04-0.023v0.046
				l-0.04-0.024v0.046l-0.039-0.024v0.046l-0.04-0.021v0.045l-0.04-0.023v0.045l-0.039-0.023v0.045l-0.04-0.021v0.045l-0.04-0.023
				v0.045l-0.039-0.023v0.045l-0.04-0.021v0.043l-0.04-0.021v0.046l-0.04-0.024v0.046l-0.039-0.024v0.046l-0.04-0.021v0.045
				l-0.04-0.023v0.045l-0.039-0.023v0.045l-0.04-0.021v0.043l-0.04-0.021v0.046l-0.039-0.024v0.046l-0.04-0.024v0.046l-0.04-0.021
				v0.045l-0.04-0.023v0.045l-0.039-0.023v0.045l-0.04-0.021v0.045l-0.04-0.023v0.045l-0.04-0.023v0.045l-0.039-0.021v0.044
				l-0.04-0.022v0.046l-0.04-0.023v0.045l-0.039-0.021v0.043l-0.04-0.021v0.043l-0.04-0.021v0.045l-0.04-0.023v0.045l-0.039-0.021
				v0.046l-0.04-0.024v0.046l-0.04-0.024v0.046l-0.039-0.024v0.046l-0.04-0.021v0.045l-0.04-0.023v0.045l-0.039-0.023v0.045
				l-0.04-0.021v0.045l-0.04-0.023v0.045l-0.04-0.023v0.046l-0.039-0.024v0.046l-0.04-0.021v0.045l-0.039-0.023v0.045l-0.041-0.023
				v0.045l-0.039-0.021v0.045l-0.04-0.023v0.045l-0.04-0.023v0.045l-0.039-0.021v0.043l-0.04-0.021v0.046l-0.04-0.024v0.046
				l-0.039-0.023v0.045l-0.04-0.021v0.045l-0.04-0.023v0.045l-0.04-0.023v0.045l-0.04-0.021v0.043l-0.039-0.021v0.046l-0.04-0.024
				v0.046l-0.04-0.024v0.046l-0.039-0.021v0.045l-0.04-0.023v0.045l-0.04-0.023v0.045l-0.039-0.021v0.045l-0.04-0.023v0.045
				l-0.04-0.023v0.046l-0.04-0.024v0.046l-0.039-0.021v0.045l-0.04-0.023v0.045l-0.039-0.023v0.045l-0.04-0.021v0.043l-0.04-0.021
				v0.045l-0.04-0.023v0.045l-0.039-0.023v0.045l-0.04-0.021v0.046l-0.04-0.024v0.046l-0.04-0.021v0.043l-0.039-0.021v0.045
				l-0.04-0.023v0.045l-0.04-0.023v0.045l-0.04-0.021v0.045l-0.039-0.023v0.046l-0.04-0.024v0.046l-0.04-0.024v0.046l-0.039-0.021
				v0.045l-0.04-0.023v0.045l-0.04-0.023v0.045l-0.04-0.021v0.045l-0.039-0.023v0.045l-0.04-0.023v0.045l-0.04-0.021v0.043
				l-0.039-0.021v0.046l-0.04-0.024v0.046l-0.04-0.024v0.046l-0.039-0.021v0.045l-0.04-0.023v0.045l-0.04-0.023v0.045l-0.04-0.021
				v0.043l-0.039-0.021v0.046l-0.04-0.024v0.046l-0.04-0.024v0.046l-0.04-0.021v0.045l-0.039-0.023v0.045l-0.04-0.023v0.045
				l-0.039-0.021v0.045l-0.04-0.023v0.045l-0.04-0.023v0.045l-0.04-0.023v0.045l-0.039-0.021v0.046l-0.04-0.024v0.046l-0.04-0.023
				v0.045l-0.04-0.021v0.045l-0.039-0.023v0.045l-0.04-0.023v0.045l-0.04-0.021v0.043l-0.04-0.021v0.046l-0.039-0.024v0.046
				l-0.04-0.024v0.046l-0.04-0.021v0.045l-0.039-0.023v0.045l-0.04-0.023v0.045l-0.04-0.021v0.045l-0.04-0.023v0.045l-0.039-0.023
				v0.046l-0.04-0.024v0.046l-0.039-0.021v0.045l-0.04-0.023v0.045l-0.04-0.023v0.045l-0.04-0.021v0.045l-0.039-0.023v0.045
				l-0.04-0.023v0.045l-0.039-0.021v0.043l-0.041-0.021v0.046l-0.039-0.024v0.046l-0.04-0.023v0.045l-0.04-0.021v0.043l-0.039-0.021
				v0.045l-0.04-0.023v0.045l-0.04-0.021v0.043l-0.039-0.021v0.046l-0.04-0.024v0.046l-0.04-0.024v0.046l-0.04-0.021v0.045
				l-0.04-0.023v0.045l-0.039-0.023v0.045l-0.04-0.021v0.045l-0.04-0.023v0.045l-0.039-0.023v0.045l-0.04-0.023v0.046l-0.04-0.022
				v0.046l-0.039-0.023v0.045l-0.04-0.023v0.045l-0.04-0.021v0.045l-0.04-0.023v0.045l-0.039-0.023v0.045l-0.04-0.021v0.046
				l-0.04-0.024v0.046l-0.039-0.024v0.046l-0.04-0.024v0.046l-0.04-0.021v0.045l-0.039-0.023v0.045l-0.04-0.023v0.045l-0.04-0.021
				v0.043l-0.04-0.021v0.045l-0.039-0.023v0.046l-0.04-0.024v0.046l-0.04-0.021v0.045l-0.04-0.023v0.045l-0.039-0.023v0.045
				l-0.04-0.023v0.047l-0.039-0.023v0.045l-0.04-0.023v0.045l-0.04-0.021v0.043l-0.04-0.021v0.046l-0.039-0.024v0.046l-0.04-0.024
				v0.046l-0.04-0.021v0.045l-0.04-0.023v0.045l-0.04-0.023v0.045l-0.039-0.021v0.043l-0.04-0.021v0.046l-0.039-0.024v0.046
				l-0.04-0.024v0.046l-0.04-0.021v0.043l-0.04-0.021v0.045l-0.039-0.023v0.045l-0.04-0.021v0.043l-0.04-0.021v0.045l-0.04-0.023
				v0.045l-0.039-0.023v0.045l-0.04-0.021v0.046l-0.04-0.024v0.046l-0.039-0.023v0.045l-0.04-0.021v0.043l-0.04-0.021v0.045
				l-0.039-0.023v0.045l-0.04-0.021v0.046l-0.04-0.024v0.046l-0.04-0.024v0.046l-0.039-0.024v0.046l-0.04-0.021v0.045l-0.04-0.023
				v0.045l-0.039-0.023v0.045l-0.04-0.021v0.043l-0.04-0.021v0.045l-0.04-0.023v0.045l-0.039-0.023v0.046l-0.04-0.022v0.044
				l-0.04-0.021v0.045l-0.04-0.023v0.045l-0.039-0.021v0.045l-0.04-0.023v0.045l-0.04-0.023v0.045l-0.039-0.023v0.045l-0.04-0.021
				v0.046l-0.04-0.024v0.046l-0.039-0.023v0.045l-0.04-0.021v0.045l-0.04-0.023v0.045l-0.04-0.023v11.641
				c11.676,7.861,18.819,21.144,18.819,35.33c0,4.503-1.546,8.687-4.293,11.994c-0.87,0.125-1.746,0.193-2.622,0.193v0.021
				c-0.013,0-0.026,0.003-0.039,0.003v0.019c-0.014,0-0.027,0.003-0.04,0.003v0.021c-0.014,0-0.027,0-0.04,0v0.021
				c-0.013,0-0.026,0.002-0.039,0.002v0.02c-0.014,0-0.027,0.002-0.041,0.002v0.021c-0.013,0-0.026,0-0.039,0v0.021
				c-0.013,0-0.027,0.002-0.04,0.002v0.02c-0.013,0-0.026,0.002-0.04,0.002v0.021c-0.013,0-0.026,0-0.039,0v0.022
				c-0.014,0-0.027,0-0.04,0v0.021c-0.013,0-0.026,0.002-0.04,0.002v0.021c-0.013,0-0.026,0-0.039,0v0.021c-0.014,0-0.027,0-0.04,0
				v0.021c-0.013,0-0.027,0.002-0.04,0.002v0.02c-0.013,0-0.026,0.002-0.04,0.002v0.021c-0.013,0-0.026,0-0.039,0v0.021
				c-0.013,0-0.027,0.003-0.04,0.003v0.019c-0.013,0-0.026,0.003-0.04,0.003v0.019c-0.013,0.003-0.026,0.003-0.04,0.003v0.021
				c-0.013,0-0.026,0-0.039,0v0.021c-0.013,0-0.026,0.002-0.04,0.002v0.02c-0.013,0-0.026,0.002-0.04,0.002v0.021
				c-0.013,0-0.026,0-0.039,0v0.021c-0.014,0-0.027,0-0.04,0v0.021c-0.013,0-0.026,0.003-0.039,0.003V798c-0.014,0-0.027,0-0.041,0
				v0.021c-0.012,0-0.026,0-0.039,0v0.021c-0.013,0-0.027,0.002-0.04,0.002v0.02c-0.013,0-0.026,0.002-0.04,0.002v0.021
				c-0.013,0-0.026,0-0.039,0v0.021c-0.014,0-0.027,0.002-0.04,0.002v0.02c-0.013,0-0.026,0.002-0.04,0.002v0.021
				c-0.013,0-0.026,0-0.039,0v0.021c-0.014,0-0.027,0-0.04,0v0.021c-0.014,0-0.026,0.003-0.04,0.003v0.02
				c-0.013,0-0.026,0.002-0.04,0.002v0.021c-0.013,0-0.026,0-0.039,0v0.021c-0.014,0-0.027,0.002-0.04,0.002v0.02
				c-0.013,0-0.026,0.002-0.039,0.002v0.021c-0.014,0-0.027,0-0.041,0v0.021c-0.013,0-0.026,0-0.039,0v0.021
				c-0.013,0-0.026,0.003-0.04,0.003v0.019c-0.013,0-0.026,0.003-0.04,0.003v0.021c-0.013,0-0.026,0-0.039,0v0.021
				c-0.014,0-0.027,0.002-0.04,0.002v0.02c-0.013,0-0.026,0.002-0.04,0.002v0.021c-0.013,0-0.026,0-0.039,0v0.021
				c-0.014,0-0.027,0-0.04,0v0.021c-0.013,0-0.027,0.002-0.04,0.002v0.021c-0.013,0-0.026,0-0.04,0v0.021c-0.013,0-0.026,0-0.04,0
				v0.022c-0.012,0-0.026,0.002-0.039,0.002v0.02c-0.013,0-0.026,0.002-0.04,0.002v0.021c-0.013,0-0.025,0-0.04,0v0.021
				c-0.013,0-0.026,0.002-0.039,0.002v0.02c-0.013,0-0.026,0.002-0.04,0.002v0.021c-0.013,0-0.027,0-0.04,0v0.021
				c-0.013,0-0.026,0.003-0.039,0.003v0.019c-0.013,0-0.027,0.003-0.04,0.003v0.02c-0.013,0-0.026,0.002-0.039,0.002v0.021
				c-0.014,0-0.027,0-0.04,0v0.021c-0.014,0-0.027,0.002-0.04,0.002v0.02c-0.013,0-0.027,0.002-0.04,0.002v0.021
				c-0.013,0-0.026,0-0.039,0v0.021c-0.014,0-0.027,0.002-0.04,0.002v0.02c-0.014,0-0.027,0.002-0.04,0.002v0.02
				c-0.013,0-0.026,0.002-0.039,0.002v0.022c-0.014,0-0.027,0-0.04,0v0.021c-0.014,0-0.027,0.002-0.04,0.002v0.02
				c-0.013,0-0.026,0.002-0.04,0.002v0.021c-0.013,0-0.026,0-0.04,0v0.021c-0.013,0-0.026,0.002-0.039,0.002v0.02
				c-0.013,0-0.027,0.002-0.04,0.002v0.021c-0.013,0-0.026,0-0.04,0v0.021c-0.013,0-0.026,0-0.04,0v0.022
				c-0.013,0-0.026,0.002-0.039,0.002v0.02c-0.013,0-0.025,0.002-0.04,0.002v0.021c-0.013,0-0.026,0-0.039,0v0.021
				c-0.014,0-0.027,0.002-0.04,0.002v0.02c-0.014,0-0.027,0.002-0.04,0.002v0.021c-0.013,0-0.026,0-0.04,0v0.021
				c-0.013,0-0.026,0.002-0.04,0.002v0.02c-0.012,0-0.026,0.003-0.039,0.003v0.019c-0.013,0-0.027,0.003-0.04,0.003v0.021
				c-0.013,0-0.026,0-0.04,0v0.021c-0.013,0-0.026,0.002-0.039,0.002v0.02c-0.014,0-0.027,0.002-0.04,0.002v0.021
				c-0.013,0-0.027,0-0.04,0v0.021c-0.013,0-0.026,0-0.039,0v0.021c-0.014,0-0.027,0.002-0.04,0.002v0.021c-0.013,0-0.025,0-0.04,0
				v0.022c-0.013,0-0.026,0-0.04,0v0.021c-0.013,0-0.026,0.002-0.039,0.002v0.02c-0.013,0-0.027,0.002-0.04,0.002v0.021
				c-0.013,0-0.026,0-0.04,0v0.021c-0.013,0-0.026,0-0.039,0v0.021c-0.014,0-0.027,0.002-0.04,0.002v0.021c-0.013,0-0.026,0-0.04,0
				v0.021c-0.013,0-0.026,0.003-0.039,0.003v0.019c-0.014,0-0.027,0.003-0.04,0.003v0.019c-0.014,0-0.027,0.003-0.04,0.003v0.021
				c-0.013,0-0.026,0-0.04,0v0.021c-0.013,0-0.026,0.002-0.039,0.002v0.02c-0.013,0-0.027,0.002-0.04,0.002v0.021
				c-0.013,0-0.027,0-0.04,0v0.021c-0.013,0-0.026,0.002-0.04,0.002v0.02c-0.013,0-0.026,0.002-0.039,0.002v0.02
				c-0.013,0-0.026,0.003-0.04,0.003v0.021c-0.013,0-0.027,0-0.04,0v0.021c-0.013,0-0.026,0.002-0.039,0.002v0.02
				c-0.014,0-0.027,0.002-0.04,0.002v0.021c-0.013,0-0.026,0-0.04,0v0.021c-0.013,0-0.026,0.002-0.04,0.002v0.02
				c-0.013,0-0.026,0.002-0.039,0.002v0.02c-0.013,0.002-0.027,0.002-0.04,0.002v0.021c-0.013,0-0.027,0-0.04,0v0.021
				c-0.013,0-0.026,0.003-0.039,0.003v0.02c-0.014,0-0.027,0.002-0.04,0.002v0.021c-0.013,0-0.027,0-0.04,0v0.021
				c-0.013,0-0.026,0.002-0.039,0.002v0.02c-0.014,0-0.027,0.002-0.04,0.002v0.021c-0.014,0-0.027,0-0.04,0v0.021
				c-0.013,0-0.027,0.002-0.04,0.002v0.02c-0.013,0-0.026,0.003-0.039,0.003v0.019c-0.014,0-0.027,0.003-0.04,0.003v0.021
				c-0.013,0-0.027,0-0.039,0v0.021c-0.014,0-0.027,0.002-0.041,0.002v0.02c-0.013,0-0.026,0.002-0.039,0.002v0.021
				c-0.013,0-0.026,0-0.04,0v0.021c-0.013,0-0.026,0.002-0.04,0.002v0.02c-0.013,0-0.026,0.002-0.039,0.002v0.021
				c-0.014,0-0.027,0-0.04,0v0.021c-0.013,0-0.027,0-0.04,0v0.022c-0.013,0-0.026,0.002-0.039,0.002v0.02
				c-0.014,0-0.027,0.002-0.04,0.002v0.021c-0.013,0-0.027,0-0.04,0v0.021c-0.013,0-0.026,0.002-0.04,0.002v0.02
				c-0.013,0-0.026,0.002-0.04,0.002v0.02c-0.012,0-0.026,0.002-0.039,0.002v0.021c-0.013,0-0.026,0-0.04,0v0.021
				c-0.013,0-0.026,0.003-0.04,0.003v0.021c-0.013,0-0.026,0-0.039,0v0.021c-0.013,0-0.026,0-0.04,0v0.021
				c-0.013,0-0.027,0.002-0.04,0.002v0.02c-0.013,0-0.026,0.002-0.039,0.002v0.02c-0.013,0-0.027,0.002-0.04,0.002v0.021
				c-0.013,0-0.026,0-0.04,0v0.021c-0.013,0-0.026,0.002-0.04,0.002v0.02c-0.012,0-0.026,0.002-0.039,0.002v0.022
				c-0.013,0-0.027,0-0.04,0v0.021c-0.013,0-0.026,0.002-0.039,0.002v0.02c-0.014,0-0.027,0.002-0.04,0.002v0.021
				c-0.014,0-0.027,0-0.04,0v0.021c-0.013,0-0.027,0-0.04,0v0.021c-0.013,0-0.026,0.002-0.039,0.002v0.02
				c-0.014,0.002-0.027,0.002-0.04,0.002v0.021c-0.014,0-0.027,0-0.04,0v0.022c-0.013,0-0.027,0.002-0.04,0.002v0.02
				c-0.013,0-0.026,0.002-0.039,0.002v0.021c-0.013,0-0.027,0-0.04,0v0.021c-0.013,0-0.026,0.002-0.04,0.002v0.02
				c-0.013,0-0.026,0.002-0.04,0.002v0.021c-0.013,0-0.026,0-0.039,0v0.021c-0.013,0-0.026,0-0.04,0v0.021
				c-0.013,0-0.025,0.002-0.04,0.002v0.02c-0.013,0-0.026,0.003-0.039,0.003v0.021c-0.014,0-0.027,0-0.04,0v0.021
				c-0.013,0-0.026,0.002-0.04,0.002v0.02c-0.013,0-0.026,0.002-0.04,0.002v0.021c-0.013,0-0.025,0-0.039,0v0.021
				c-0.013,0-0.027,0.002-0.04,0.002v0.02c-0.013,0-0.026,0.002-0.04,0.002v0.02c-0.013,0-0.026,0.002-0.039,0.002v0.022
				c-0.014,0-0.027,0-0.04,0v0.021c-0.013,0-0.027,0.002-0.04,0.002v0.02c-0.013,0-0.026,0.002-0.039,0.002v0.021
				c-0.014,0-0.027,0-0.04,0v0.021c-0.013,0-0.026,0.002-0.04,0.002v0.02c-0.013,0-0.027,0.002-0.04,0.002v0.021
				c-0.013,0-0.026,0-0.039,0v0.021c-0.013,0-0.027,0-0.04,0v0.021c-0.013,0-0.027,0.003-0.04,0.003v0.019
				c-0.013,0-0.026,0.003-0.04,0.003v0.021c-0.013,0-0.026,0-0.039,0v0.021c-0.013,0-0.026,0.002-0.04,0.002v0.02
				c-0.013,0-0.026,0.002-0.039,0.002v0.021c-0.014,0-0.027,0-0.04,0v0.021c-0.014,0-0.027,0.002-0.04,0.002v0.02
				c-0.013,0-0.026,0.002-0.04,0.002v0.022c-0.013,0-0.026,0-0.039,0v0.021c-0.014,0-0.027,0-0.04,0v0.021
				c-0.013,0-0.027,0.002-0.04,0.002v0.02c-0.013,0-0.025,0.002-0.04,0.002v0.02c-0.013,0-0.026,0.002-0.039,0.002v0.021
				c-0.013,0-0.027,0.002-0.04,0.002v0.02c-0.013,0-0.027,0.002-0.04,0.002v0.02c-0.013,0.002-0.026,0.002-0.04,0.002v0.021
				c-0.013,0-0.026,0-0.039,0v0.021c-0.013,0-0.026,0.003-0.04,0.003v0.019c-0.013,0-0.026,0.003-0.04,0.003v0.021
				c-0.013,0-0.026,0-0.039,0v0.021c-0.013,0-0.027,0-0.04,0v0.021c-0.013,0-0.027,0.002-0.04,0.002v0.021c-0.013,0-0.026,0-0.04,0
				v0.021c-0.012,0-0.026,0-0.039,0v0.021c-0.013,0-0.027,0.003-0.04,0.003v0.019c-0.013,0-0.026,0.003-0.039,0.003v0.021
				c-0.014,0-0.027,0-0.04,0v0.021c-0.014,0-0.027,0.002-0.04,0.002v0.02c-0.013,0-0.027,0.002-0.04,0.002v0.021
				c-0.013,0-0.026,0-0.039,0v0.021c-0.014,0-0.027,0-0.04,0v0.021c-0.013,0-0.027,0.002-0.039,0.002v0.02
				c-0.014,0-0.028,0.002-0.041,0.002v0.021c-0.013,0-0.026,0.003-0.039,0.003v0.02c-0.013,0-0.027,0.002-0.04,0.002v0.02
				c-0.013,0-0.026,0.002-0.04,0.002v0.021c-0.013,0-0.026,0-0.039,0v0.021c-0.014,0-0.027,0.002-0.04,0.002v0.02
				c-0.013,0-0.027,0.002-0.04,0.002v0.02c-0.013,0-0.026,0.002-0.039,0.002v0.021c-0.014,0-0.027,0-0.04,0v0.021
				c-0.014,0-0.027,0.003-0.04,0.003v0.019c-0.013,0-0.026,0.003-0.04,0.003v0.021c-0.013,0-0.026,0-0.04,0v0.021
				c-0.013,0-0.026,0-0.039,0v0.021c-0.013,0-0.026,0.002-0.04,0.002v0.021c-0.013,0-0.026,0-0.04,0v0.021
				c-0.013,0-0.026,0.002-0.039,0.002v0.02c-0.013,0-0.027,0.002-0.04,0.002v0.02c-0.013,0-0.027,0.002-0.04,0.002v0.022
				c-0.013,0-0.026,0-0.039,0v0.021c-0.013,0-0.027,0-0.04,0v0.021c-0.013,0-0.027,0.002-0.04,0.002v0.021c-0.013,0-0.026,0-0.04,0
				v0.021c-0.013,0-0.026,0.002-0.039,0.002v0.02c-0.013,0-0.027,0.002-0.04,0.002v0.021c-0.013,0-0.026,0-0.04,0v0.021
				c-0.013,0-0.026,0-0.039,0v0.021c-0.014,0-0.027,0.003-0.04,0.003v0.02c-0.013,0-0.027,0.002-0.04,0.002v0.021
				c-0.013,0-0.026,0-0.039,0v0.021c-0.014,0-0.027,0.002-0.04,0.002v0.02c-0.014,0-0.027,0.002-0.04,0.002v0.021
				c-0.013,0-0.027,0-0.04,0v0.021c-0.013,0-0.026,0-0.039,0v0.021c-0.014,0-0.027,0.002-0.04,0.002v0.02
				c-0.013,0-0.027,0.003-0.04,0.003v0.021c-0.013,0-0.026,0-0.04,0v0.021c-0.013,0-0.026,0.002-0.039,0.002v0.02
				c-0.013,0-0.027,0.002-0.04,0.002v0.021c-0.013,0-0.027,0-0.039,0v0.021c-0.014,0-0.027,0-0.04,0v0.021
				c-0.014,0-0.027,0.002-0.04,0.002v0.02c-0.013,0-0.027,0.002-0.04,0.002v0.021c-0.013,0-0.026,0-0.039,0v0.022
				c-0.014,0-0.027,0.002-0.04,0.002v0.02c-0.013,0-0.027,0.002-0.04,0.002v0.021c-0.013,0-0.026,0-0.04,0v0.021
				c-0.013,0-0.026,0.002-0.04,0.002v0.02c-0.012,0-0.026,0.002-0.039,0.002v0.02c-0.013,0-0.027,0.002-0.04,0.002v0.021
				c-0.013,0-0.026,0-0.039,0v0.021c-0.014,0-0.027,0.003-0.04,0.003v0.019c-0.013,0-0.027,0.003-0.04,0.003v0.021
				c-0.013,0-0.027,0-0.04,0v0.021c-0.013,0-0.025,0.002-0.039,0.002v0.02c-0.013,0-0.027,0.002-0.04,0.002v0.021
				c-0.013,0-0.027,0-0.04,0v0.021c-0.013,0-0.026,0-0.04,0v0.021c-0.013,0-0.026,0.002-0.039,0.002v0.02
				c-0.013,0-0.027,0.003-0.04,0.003v0.021c-0.013,0-0.026,0-0.04,0v0.021c-0.013,0-0.026,0.002-0.039,0.002v0.02
				c-0.014,0-0.027,0.002-0.04,0.002v0.021c-0.013,0-0.027,0-0.04,0v0.021c-0.013,0-0.026,0.002-0.039,0.002v0.02
				c-0.014,0-0.027,0.002-0.04,0.002v0.02c-0.014,0-0.027,0.002-0.04,0.002v0.021c-0.013,0-0.026,0-0.04,0v0.021
				c-0.013,0-0.025,0.003-0.039,0.003v0.019c-0.014,0-0.027,0.003-0.04,0.003v0.021c-0.014,0-0.027,0-0.04,0v0.021
				c-0.013,0-0.026,0.002-0.039,0.002v0.02c-0.014,0-0.027,0.002-0.04,0.002v0.021c-0.013,0-0.026,0-0.04,0v0.021
				c-0.013,0-0.027,0-0.04,0v0.021c-0.013,0-0.026,0.003-0.039,0.003v0.019c-0.013,0-0.027,0.003-0.04,0.003v0.021
				c-0.013,0-0.027,0-0.04,0v0.021c-0.013,0-0.026,0.002-0.04,0.002v0.02c-0.013,0-0.026,0.002-0.039,0.002v0.021
				c-0.013,0-0.027,0-0.04,0v0.021c-0.013,0-0.026,0-0.04,0v0.021c-0.013,0-0.025,0.002-0.039,0.002v0.021c-0.014,0-0.027,0-0.04,0
				v0.021c-0.013,0-0.027,0-0.04,0v0.021c-0.013,0-0.026,0.003-0.039,0.003v0.02c-0.014,0-0.027,0.002-0.04,0.002v0.021
				c-0.013,0-0.027,0-0.04,0v0.021c-0.013,0-0.027,0.002-0.04,0.002v9.992c4.947-0.002,9.896-1.306,14.404-3.912
				c0.004-0.002,0.008-0.005,0.012-0.007c0.01-0.006,0.019-0.011,0.028-0.015c0.003-0.002,0.006-0.005,0.011-0.007
				c0.01-0.006,0.019-0.011,0.029-0.015c0.003-0.003,0.008-0.007,0.012-0.009c0.008-0.004,0.018-0.009,0.027-0.016
				c0.004-0.002,0.007-0.004,0.012-0.006c0.009-0.007,0.018-0.009,0.028-0.016c0.004-0.002,0.008-0.004,0.012-0.006
				c0.008-0.007,0.018-0.011,0.028-0.016c0.003-0.002,0.006-0.006,0.011-0.008c0.01-0.005,0.02-0.009,0.029-0.016
				c0.003-0.002,0.007-0.004,0.011-0.007c0.01-0.004,0.019-0.008,0.028-0.015c0.003-0.002,0.007-0.004,0.011-0.007
				c0.01-0.006,0.02-0.011,0.029-0.015c0.004-0.002,0.007-0.007,0.012-0.009c0.009-0.004,0.018-0.009,0.027-0.013
				c0.004-0.002,0.008-0.007,0.012-0.009c0.01-0.004,0.02-0.009,0.028-0.015c0.004-0.003,0.007-0.005,0.012-0.007
				c0.01-0.007,0.019-0.011,0.028-0.015c0.004-0.003,0.008-0.005,0.011-0.007c0.01-0.007,0.02-0.011,0.029-0.015
				c0.004-0.003,0.007-0.007,0.012-0.009c0.009-0.005,0.019-0.009,0.027-0.016c0.004-0.002,0.008-0.004,0.011-0.006
				c0.01-0.005,0.02-0.009,0.029-0.016c0.004-0.002,0.009-0.004,0.012-0.006c0.01-0.007,0.019-0.011,0.028-0.016
				c0.003-0.002,0.007-0.004,0.011-0.007c0.01-0.006,0.019-0.011,0.029-0.017c0.003-0.002,0.008-0.005,0.012-0.007
				c0.008-0.004,0.018-0.009,0.027-0.015c0.004-0.002,0.007-0.005,0.012-0.007c0.009-0.004,0.018-0.011,0.028-0.015
				c0.004-0.003,0.008-0.005,0.012-0.009c0.009-0.004,0.018-0.009,0.028-0.013c0.003-0.003,0.006-0.005,0.011-0.009
				c0.009-0.005,0.02-0.009,0.028-0.016c0.004-0.002,0.009-0.004,0.013-0.006c0.009-0.007,0.018-0.009,0.027-0.016
				c0.004-0.002,0.007-0.004,0.011-0.006c0.01-0.007,0.02-0.011,0.029-0.016c0.003-0.002,0.007-0.006,0.012-0.009
				c0.008-0.004,0.018-0.008,0.028-0.015c0.003,0,0.008-0.004,0.011-0.007c0.009-0.004,0.02-0.008,0.028-0.015
				c0.004-0.002,0.008-0.004,0.012-0.007c0.01-0.006,0.02-0.011,0.028-0.015c0.004-0.002,0.008-0.005,0.011-0.007
				c0.01-0.006,0.02-0.011,0.029-0.015c0.003-0.002,0.007-0.007,0.012-0.009c0.009-0.004,0.019-0.009,0.027-0.015
				c0.004-0.003,0.008-0.005,0.012-0.007c0.008-0.005,0.019-0.009,0.028-0.015c0.004-0.003,0.007-0.005,0.012-0.007
				c0.009-0.007,0.019-0.011,0.028-0.016c0.003-0.002,0.007-0.006,0.011-0.006c0.01-0.007,0.019-0.011,0.029-0.016
				c0.003-0.004,0.008-0.006,0.012-0.009c0.008-0.004,0.018-0.008,0.027-0.015c0.004-0.002,0.007-0.004,0.011-0.007
				c0.01-0.006,0.019-0.011,0.029-0.015c0.004-0.002,0.008-0.004,0.012-0.009c0.009-0.004,0.018-0.009,0.028-0.013
				c0.004-0.004,0.007-0.007,0.012-0.009c0.009-0.004,0.019-0.009,0.027-0.015c0.004-0.003,0.008-0.005,0.011-0.007
				c0.01-0.004,0.02-0.009,0.029-0.015c0.004-0.003,0.007-0.005,0.012-0.007c0.01-0.007,0.019-0.011,0.028-0.015
				c0.003-0.003,0.007-0.005,0.011-0.007c0.009-0.007,0.019-0.011,0.029-0.018c0.003-0.002,0.008-0.004,0.011-0.006
				c0.01-0.007,0.019-0.009,0.028-0.016c0.004-0.002,0.007-0.004,0.012-0.006c0.009-0.007,0.018-0.011,0.028-0.016
				c0.004-0.002,0.008-0.004,0.012-0.009c0.008-0.004,0.018-0.008,0.028-0.013c0.003-0.004,0.006-0.004,0.01-0.009
				c0.01-0.004,0.021-0.009,0.029-0.015c0.004-0.002,0.009-0.005,0.012-0.007c0.009-0.006,0.019-0.011,0.028-0.015
				c0.004-0.002,0.007-0.005,0.011-0.007c0.01-0.006,0.02-0.011,0.029-0.015c0.003-0.002,0.007-0.007,0.011-0.009
				c0.009-0.005,0.019-0.009,0.028-0.016c0.004-0.002,0.007-0.004,0.012-0.006c0.009-0.007,0.02-0.011,0.028-0.016
				c0.004-0.002,0.008-0.004,0.012-0.006c0.01-0.007,0.018-0.011,0.028-0.016c0.003-0.002,0.008-0.004,0.011-0.006
				c0.01-0.007,0.02-0.011,0.029-0.016c0.004-0.002,0.007-0.006,0.012-0.009c0.009-0.004,0.019-0.008,0.027-0.015
				c0.004-0.002,0.008-0.004,0.012-0.007c0.008-0.006,0.019-0.011,0.028-0.015c0.004-0.002,0.007-0.007,0.012-0.007
				c0.009-0.006,0.019-0.011,0.028-0.015c0.003-0.002,0.008-0.007,0.011-0.009c0.009-0.004,0.019-0.009,0.029-0.015
				c0.003-0.003,0.008-0.005,0.012-0.007c0.009-0.004,0.019-0.011,0.027-0.015c0.004-0.003,0.007-0.005,0.012-0.007
				c0.009-0.007,0.018-0.011,0.028-0.016c0.004-0.002,0.008-0.006,0.012-0.008c0.009-0.005,0.019-0.009,0.028-0.016
				c0.003-0.002,0.007-0.004,0.011-0.006c0.01-0.005,0.02-0.009,0.028-0.016c0.004-0.002,0.008-0.004,0.012-0.006
				c0.01-0.005,0.02-0.012,0.028-0.016c0.004-0.002,0.007-0.004,0.012-0.006c0.009-0.007,0.019-0.012,0.028-0.018
				c0.003,0,0.007-0.005,0.012-0.007c0.008-0.004,0.018-0.009,0.028-0.015c0.003-0.002,0.006-0.005,0.011-0.007
				c0.009-0.004,0.019-0.011,0.028-0.015c0.004-0.002,0.008-0.005,0.012-0.009c0.01-0.005,0.019-0.009,0.028-0.013
				c0.004-0.003,0.008-0.007,0.011-0.009c0.01-0.005,0.02-0.009,0.029-0.016c0.003-0.002,0.007-0.004,0.012-0.006
				c0.009-0.005,0.019-0.009,0.027-0.016c0.004-0.002,0.008-0.004,0.012-0.006c0.009-0.005,0.018-0.011,0.028-0.016
				c0.004-0.002,0.007-0.006,0.012-0.009c0.01-0.004,0.019-0.008,0.028-0.015c0.003-0.002,0.007-0.004,0.011-0.007
				c0.009-0.004,0.019-0.008,0.028-0.015c0.004-0.002,0.009-0.005,0.013-0.007c0.009-0.006,0.019-0.011,0.027-0.015
				c0.004-0.002,0.008-0.005,0.012-0.009c0.01-0.004,0.018-0.009,0.028-0.013c0.003-0.002,0.006-0.007,0.011-0.009
				c0.01-0.004,0.02-0.009,0.029-0.015c0.004-0.003,0.007-0.005,0.012-0.007c0.009-0.007,0.019-0.009,0.027-0.016
				c0.004-0.002,0.008-0.004,0.012-0.006c0.009-0.007,0.019-0.011,0.028-0.016c0.004-0.002,0.007-0.006,0.012-0.008
				c0.01-0.005,0.019-0.009,0.028-0.016c0.003-0.002,0.008-0.004,0.011-0.006c0.009-0.005,0.019-0.009,0.029-0.016
				c0.003-0.002,0.007-0.004,0.011-0.006c0.01-0.007,0.019-0.012,0.028-0.016c0.004-0.002,0.008-0.004,0.011-0.007
				c0.009-0.006,0.019-0.011,0.029-0.015c0.004-0.004,0.008-0.007,0.012-0.009c0.009-0.004,0.019-0.009,0.028-0.015
				c0.003-0.002,0.006-0.005,0.011-0.007c0.009-0.004,0.02-0.009,0.028-0.015c0.004-0.003,0.009-0.005,0.012-0.007
				c0.01-0.007,0.02-0.011,0.028-0.015c0.003-0.003,0.007-0.007,0.011-0.007c0.01-0.007,0.02-0.011,0.029-0.018
				c0.004-0.002,0.008-0.004,0.012-0.006c0.008-0.005,0.018-0.009,0.028-0.016c0.003-0.002,0.008-0.004,0.011-0.006
				c0.009-0.007,0.02-0.011,0.028-0.016c0.004-0.002,0.008-0.004,0.012-0.009c0.01-0.004,0.018-0.008,0.028-0.013
				c0.003-0.004,0.008-0.007,0.011-0.009c0.01-0.004,0.02-0.008,0.029-0.015c0.003-0.002,0.007-0.005,0.012-0.007
				c0.009-0.006,0.018-0.011,0.027-0.015c0.004-0.002,0.008-0.005,0.012-0.007c0.009-0.006,0.019-0.011,0.028-0.015
				c0.004-0.002,0.007-0.007,0.012-0.009c0.009-0.004,0.02-0.009,0.028-0.016c0.003-0.002,0.008-0.004,0.011-0.006
				c0.009-0.005,0.019-0.009,0.028-0.016c0.004-0.002,0.008-0.004,0.013-0.006c0.009-0.007,0.019-0.011,0.027-0.016
				c0.004-0.002,0.008-0.004,0.011-0.006c0.01-0.007,0.02-0.011,0.029-0.018c0.004-0.002,0.008-0.004,0.012-0.007
				c0.009-0.004,0.019-0.008,0.028-0.015c0.003-0.002,0.007-0.004,0.011-0.007c0.01-0.006,0.02-0.008,0.028-0.015
				c0.004-0.002,0.008-0.004,0.012-0.007c0.01-0.006,0.019-0.011,0.028-0.017c0.004,0,0.007-0.005,0.012-0.007
				c0.009-0.004,0.019-0.009,0.028-0.015c0.003-0.003,0.008-0.005,0.012-0.007c0.009-0.007,0.018-0.009,0.028-0.015
				c0.003-0.003,0.006-0.005,0.011-0.007c0.01-0.007,0.019-0.011,0.028-0.015c0.004-0.003,0.008-0.007,0.012-0.009
				c0.01-0.005,0.019-0.009,0.028-0.014c0.004-0.002,0.007-0.006,0.011-0.008c0.01-0.005,0.02-0.009,0.029-0.016
				c0.003-0.002,0.007-0.004,0.011-0.006c0.01-0.007,0.019-0.011,0.028-0.016c0.004-0.002,0.009-0.007,0.012-0.007
				c0.009-0.006,0.019-0.01,0.028-0.015c0.004-0.002,0.007-0.007,0.012-0.009c0.01-0.004,0.019-0.009,0.028-0.015
				c0.003-0.002,0.007-0.005,0.011-0.007c0.01-0.004,0.02-0.011,0.028-0.015c0.004-0.003,0.008-0.005,0.012-0.007
				c0.01-0.006,0.02-0.011,0.028-0.015c0.004-0.005,0.009-0.007,0.012-0.009c0.01-0.005,0.018-0.009,0.028-0.016
				c0.003-0.002,0.008-0.004,0.011-0.006c0.01-0.005,0.02-0.009,0.029-0.016c0.004-0.002,0.007-0.004,0.012-0.006
				c0.009-0.007,0.018-0.011,0.027-0.016c0.004-0.002,0.008-0.004,0.012-0.006c0.009-0.007,0.019-0.011,0.028-0.016
				c0.004-0.004,0.007-0.006,0.012-0.009c0.009-0.004,0.018-0.008,0.028-0.015c0.003-0.002,0.008-0.004,0.011-0.007
				c0.01-0.006,0.02-0.011,0.028-0.015c0.004-0.002,0.008-0.004,0.013-0.009c0.009-0.004,0.019-0.009,0.027-0.013
				c0.004-0.002,0.008-0.005,0.012-0.009c0.008-0.004,0.018-0.009,0.028-0.015c0.004-0.003,0.007-0.005,0.012-0.007
				c0.009-0.005,0.019-0.009,0.028-0.015c0.003-0.003,0.007-0.005,0.011-0.007c0.01-0.007,0.019-0.011,0.028-0.016
				c0.004-0.002,0.008-0.006,0.012-0.008c0.01-0.005,0.02-0.009,0.028-0.016c0.003-0.002,0.007-0.004,0.012-0.006
				c0.009-0.005,0.019-0.009,0.028-0.016c0.003-0.002,0.008-0.004,0.012-0.007c0.008-0.006,0.018-0.011,0.028-0.015
				c0.003-0.002,0.006-0.004,0.011-0.007c0.009-0.006,0.018-0.011,0.028-0.015c0.004-0.004,0.009-0.007,0.012-0.009
				c0.009-0.004,0.019-0.009,0.028-0.015c0.003-0.003,0.007-0.005,0.011-0.007c0.01-0.006,0.02-0.009,0.029-0.015
				c0.003-0.003,0.007-0.005,0.011-0.007c0.01-0.007,0.019-0.011,0.028-0.015c0.004-0.003,0.009-0.007,0.012-0.009
				c0.009-0.005,0.019-0.009,0.028-0.016c0.004-0.002,0.007-0.004,0.012-0.006c0.01-0.005,0.018-0.009,0.028-0.016
				c0.003-0.002,0.007-0.004,0.011-0.006c0.01-0.007,0.02-0.011,0.028-0.016c0.004-0.002,0.008-0.006,0.013-0.009
				c0.009-0.004,0.019-0.008,0.027-0.013c0.004-0.004,0.008-0.006,0.012-0.009c0.01-0.004,0.018-0.009,0.028-0.015
				c0.003-0.002,0.007-0.005,0.011-0.007c0.01-0.006,0.02-0.011,0.029-0.015c0.003-0.002,0.007-0.005,0.011-0.007
				c0.009-0.006,0.019-0.011,0.028-0.015c0.004-0.002,0.009-0.007,0.012-0.009c0.01-0.005,0.02-0.009,0.028-0.015
				c0.004-0.003,0.007-0.005,0.011-0.007c0.01-0.005,0.019-0.009,0.029-0.016c0.003-0.002,0.008-0.004,0.012-0.006
				c0.008-0.007,0.018-0.011,0.028-0.016c0.003-0.002,0.006-0.004,0.011-0.006c0.01-0.007,0.018-0.011,0.028-0.018
				c0.004-0.002,0.008-0.004,0.012-0.007c0.008-0.004,0.018-0.008,0.028-0.015c0.004-0.002,0.007-0.004,0.011-0.007
				c0.01-0.004,0.02-0.011,0.029-0.015c0.003-0.002,0.007-0.004,0.012-0.009c0.009-0.004,0.018-0.009,0.027-0.013
				c0.004-0.002,0.007-0.005,0.011-0.007c0.01-0.006,0.02-0.011,0.029-0.017c0.004-0.003,0.007-0.005,0.012-0.007
				c0.009-0.007,0.018-0.009,0.028-0.015c0.004-0.003,0.008-0.005,0.012-0.007c0.009-0.007,0.019-0.011,0.027-0.016
				c0.004-0.002,0.007-0.004,0.011-0.006c0.01-0.007,0.021-0.011,0.029-0.018c0.004-0.002,0.009-0.004,0.012-0.006
				c0.009-0.007,0.018-0.009,0.028-0.016c0.003-0.002,0.007-0.004,0.011-0.006c0.01-0.007,0.02-0.011,0.029-0.016
				c0.003-0.002,0.007-0.004,0.012-0.006c0.008-0.007,0.018-0.012,0.027-0.016c0.004-0.002,0.007-0.007,0.012-0.009
				c0.009-0.004,0.019-0.009,0.028-0.015c0.004-0.002,0.007-0.005,0.012-0.007c0.01-0.006,0.018-0.011,0.028-0.015
				c0.003-0.002,0.008-0.005,0.011-0.007c0.01-0.007,0.02-0.011,0.028-0.015c0.004-0.002,0.008-0.007,0.013-0.009
				c0.009-0.005,0.019-0.009,0.027-0.016c0.004-0.002,0.008-0.004,0.012-0.006c0.008-0.005,0.018-0.009,0.028-0.016
				c0.003-0.002,0.007-0.004,0.012-0.006c0.009-0.007,0.019-0.011,0.028-0.016c0.003-0.002,0.006-0.004,0.011-0.006
				c0.008-0.007,0.019-0.011,0.028-0.016c0.004-0.004,0.009-0.006,0.013-0.009c0.009-0.004,0.019-0.008,0.027-0.015
				c0.004-0.002,0.007-0.004,0.011-0.007c0.009-0.004,0.019-0.008,0.029-0.015c0.003-0.002,0.008-0.005,0.012-0.007
				c0.009-0.006,0.019-0.011,0.028-0.015c0.003-0.005,0.006-0.005,0.011-0.009c0.01-0.004,0.018-0.009,0.028-0.015
				c0.004-0.003,0.008-0.005,0.012-0.007c0.008-0.004,0.019-0.009,0.028-0.016c0.003-0.002,0.007-0.004,0.012-0.006
				c0.009-0.007,0.019-0.011,0.028-0.016c0.003-0.002,0.008-0.006,0.012-0.008c0.008-0.005,0.018-0.009,0.027-0.016
				c0.004,0,0.007-0.004,0.012-0.006c0.009-0.005,0.019-0.009,0.028-0.016c0.004-0.002,0.007-0.004,0.012-0.006
				c0.01-0.007,0.018-0.012,0.028-0.016c0.003-0.002,0.008-0.004,0.011-0.007c0.01-0.006,0.02-0.011,0.028-0.015
				c0.004-0.002,0.007-0.007,0.012-0.009c0.01-0.004,0.02-0.009,0.028-0.015c0.004-0.002,0.008-0.005,0.011-0.007
				c0.011-0.004,0.02-0.009,0.029-0.015c0.004-0.003,0.007-0.005,0.012-0.007c0.009-0.007,0.019-0.011,0.028-0.015
				c0.003-0.003,0.006-0.007,0.011-0.007c0.009-0.007,0.018-0.011,0.028-0.018c0.004-0.002,0.009-0.004,0.012-0.006
				c0.01-0.005,0.02-0.009,0.028-0.016c0.004-0.002,0.007-0.004,0.011-0.006c0.009-0.007,0.019-0.011,0.029-0.016
				c0.003-0.002,0.008-0.004,0.011-0.006c0.01-0.007,0.02-0.011,0.028-0.016c0.004-0.002,0.007-0.007,0.012-0.009
				c0.01-0.004,0.02-0.008,0.028-0.015c0.004-0.002,0.008-0.005,0.012-0.007c0.009-0.004,0.018-0.011,0.028-0.015
				c0.003-0.002,0.006-0.005,0.011-0.007c0.01-0.006,0.02-0.011,0.028-0.015c0.004-0.002,0.009-0.007,0.013-0.009
				c0.008-0.004,0.018-0.009,0.027-0.016c0.004-0.002,0.009-0.004,0.012-0.006c0.01-0.005,0.019-0.011,0.028-0.016
				c0.003-0.002,0.007-0.004,0.011-0.006c0.009-0.007,0.019-0.011,0.029-0.016c0.003-0.002,0.008-0.006,0.012-0.008
				c0.009-0.005,0.019-0.009,0.027-0.016c0.004-0.002,0.007-0.004,0.012-0.006c0.008-0.005,0.02-0.009,0.028-0.016
				c0.004-0.002,0.008-0.004,0.012-0.007c0.009-0.004,0.02-0.011,0.028-0.015c0.003-0.002,0.007-0.004,0.011-0.007
				c0.01-0.006,0.02-0.011,0.028-0.015c0.004-0.002,0.009-0.007,0.013-0.009c0.008-0.004,0.018-0.009,0.027-0.015
				c0.004-0.003,0.007-0.005,0.012-0.007c0.009-0.004,0.019-0.009,0.028-0.015c0.004-0.003,0.008-0.005,0.012-0.009
				c0.008-0.005,0.018-0.009,0.028-0.013c0.003-0.003,0.008-0.005,0.011-0.009c0.01-0.005,0.02-0.009,0.028-0.014
				c0.004-0.004,0.007-0.006,0.012-0.008c0.01-0.005,0.02-0.009,0.028-0.016c0.004-0.002,0.008-0.004,0.012-0.006
				c0.009-0.005,0.019-0.011,0.028-0.016c0.004-0.002,0.007-0.007,0.012-0.009c0.01-0.004,0.019-0.008,0.028-0.013
				c0.003-0.002,0.007-0.007,0.011-0.009c0.01-0.004,0.019-0.009,0.028-0.015c0.004-0.002,0.007-0.005,0.012-0.007
				c0.01-0.006,0.02-0.011,0.028-0.015c0.004-0.002,0.007-0.005,0.011-0.007c0.009-0.006,0.019-0.011,0.029-0.015
				c0.003-0.003,0.008-0.005,0.012-0.009c0.009-0.005,0.019-0.009,0.028-0.016c0.003-0.002,0.006-0.004,0.011-0.006
				c0.01-0.005,0.018-0.009,0.028-0.016c0.004-0.002,0.008-0.004,0.012-0.006c0.01-0.007,0.019-0.011,0.028-0.016
				c0.003-0.002,0.006-0.004,0.011-0.006c0.01-0.007,0.02-0.011,0.029-0.016c0.003-0.004,0.008-0.006,0.012-0.009
				c0.008-0.004,0.018-0.008,0.027-0.015c0.004-0.002,0.007-0.004,0.012-0.007c0.009-0.004,0.019-0.011,0.028-0.015
				c0.003-0.002,0.008-0.004,0.011-0.007c0.01-0.006,0.02-0.011,0.029-0.015c0.003-0.002,0.008-0.005,0.011-0.009
				c0.01-0.004,0.02-0.009,0.028-0.015c0.004-0.003,0.008-0.005,0.012-0.007c0.01-0.007,0.02-0.011,0.028-0.015
				c0.004-0.003,0.008-0.005,0.011-0.007c0.01-0.007,0.02-0.011,0.029-0.016c0.004-0.002,0.007-0.006,0.012-0.008
				c0.01-0.005,0.019-0.009,0.027-0.016c0.004-0.002,0.008-0.004,0.012-0.006c0.01-0.005,0.02-0.009,0.028-0.016
				c0.004-0.002,0.007-0.004,0.012-0.007c0.009-0.006,0.019-0.01,0.028-0.015c0.004-0.002,0.008-0.004,0.011-0.007
				c0.009-0.006,0.019-0.011,0.029-0.015c0.003-0.004,0.007-0.007,0.012-0.009c0.009-0.004,0.019-0.009,0.027-0.015
				c0.004-0.003,0.008-0.005,0.012-0.007c0.008-0.004,0.019-0.009,0.028-0.015c0.004-0.003,0.008-0.005,0.012-0.007
				c0.01-0.007,0.019-0.011,0.028-0.015c0.004-0.003,0.007-0.007,0.012-0.009c0.01-0.005,0.019-0.009,0.028-0.016
				c0.003,0,0.007-0.004,0.011-0.006c0.009-0.005,0.019-0.009,0.028-0.016c0.004-0.002,0.008-0.004,0.012-0.006
				c0.01-0.007,0.02-0.011,0.028-0.016c0.004-0.002,0.008-0.004,0.012-0.009c0.008-0.004,0.018-0.008,0.028-0.013
				c0.003-0.002,0.008-0.006,0.012-0.009c0.009-0.004,0.019-0.009,0.027-0.015c0.004-0.002,0.009-0.004,0.012-0.007
				c0.008-0.004,0.018-0.009,0.028-0.015c0.004-0.002,0.008-0.005,0.012-0.007c0.01-0.006,0.02-0.011,0.028-0.015
				c0.003-0.002,0.006-0.007,0.011-0.009c0.01-0.005,0.019-0.009,0.028-0.015c0.004-0.003,0.009-0.005,0.013-0.007
				c0.008-0.005,0.018-0.009,0.027-0.016c0.004-0.002,0.007-0.004,0.012-0.006c0.01-0.007,0.019-0.011,0.028-0.016
				c0.003-0.002,0.008-0.004,0.012-0.006c0.008-0.007,0.018-0.011,0.028-0.016c0.003-0.002,0.007-0.006,0.011-0.009
				c0.01-0.004,0.02-0.008,0.028-0.015c0.004-0.002,0.009-0.004,0.012-0.007c0.01-0.006,0.019-0.011,0.028-0.015
				c0.004-0.002,0.008-0.004,0.011-0.007c0.01-0.006,0.02-0.011,0.029-0.015c0.004-0.002,0.007-0.007,0.012-0.009
				c0.01-0.004,0.019-0.009,0.028-0.015c0.003-0.003,0.007-0.005,0.011-0.007c0.01-0.004,0.02-0.011,0.028-0.015
				c0.004-0.003,0.007-0.005,0.012-0.007c0.01-0.007,0.018-0.011,0.028-0.015c0.004-0.003,0.008-0.005,0.011-0.009
				c0.01-0.005,0.02-0.009,0.029-0.014c0.003-0.004,0.007-0.006,0.012-0.008c0.009-0.005,0.019-0.009,0.027-0.016
				c0.004-0.002,0.008-0.004,0.011-0.006c0.011-0.005,0.019-0.011,0.029-0.016c0.004-0.002,0.007-0.004,0.012-0.009
				c0.01-0.004,0.019-0.009,0.028-0.013c0.003-0.002,0.007-0.004,0.011-0.009c0.01-0.004,0.019-0.009,0.028-0.015
				c0.004-0.002,0.009-0.005,0.012-0.007c0.01-0.006,0.02-0.011,0.028-0.015c0.004-0.002,0.007-0.005,0.012-0.007
				c0.009-0.007,0.019-0.011,0.028-0.015c0.004-0.002,0.008-0.007,0.012-0.009c0.008-0.005,0.018-0.009,0.028-0.013
				c0.003-0.005,0.006-0.007,0.011-0.009c0.01-0.005,0.02-0.009,0.028-0.016c0.004-0.002,0.009-0.004,0.012-0.006
				c0.009-0.007,0.019-0.011,0.028-0.016c0.004-0.002,0.008-0.004,0.011-0.006c0.01-0.007,0.02-0.011,0.029-0.016
				c0.003-0.004,0.007-0.006,0.012-0.009c0.009-0.004,0.018-0.008,0.027-0.015c0.004-0.002,0.007-0.004,0.012-0.007
				c0.009-0.004,0.02-0.011,0.028-0.015c0.004-0.002,0.007-0.005,0.012-0.007c0.009-0.006,0.02-0.011,0.028-0.015
				c0.003-0.002,0.008-0.005,0.012-0.009c0.008-0.004,0.018-0.009,0.028-0.015c0.003-0.003,0.007-0.005,0.012-0.007
				c0.009-0.004,0.019-0.011,0.027-0.016c0.004-0.002,0.008-0.004,0.012-0.006c0.008-0.007,0.019-0.011,0.028-0.016
				c0.004-0.002,0.007-0.006,0.012-0.008c0.009-0.005,0.019-0.009,0.028-0.016c0.004-0.002,0.007-0.004,0.012-0.006
				c0.009-0.005,0.018-0.009,0.028-0.016c0.003-0.002,0.007-0.004,0.011-0.006c0.01-0.005,0.019-0.012,0.028-0.016
				c0.004-0.002,0.007-0.004,0.012-0.009c0.01-0.004,0.02-0.009,0.028-0.013c0.004-0.004,0.008-0.007,0.012-0.009
				c0.008-0.004,0.018-0.009,0.028-0.015c0.003-0.002,0.007-0.005,0.012-0.007c0.009-0.004,0.019-0.011,0.027-0.015
				c0.004-0.002,0.008-0.005,0.012-0.007c0.009-0.007,0.018-0.011,0.028-0.015c0.004-0.003,0.007-0.007,0.013-0.009
				c0.009-0.005,0.018-0.009,0.027-0.016c0.003-0.002,0.006-0.004,0.011-0.006c0.01-0.005,0.018-0.009,0.028-0.016
				c0.004-0.002,0.009-0.004,0.013-0.006c0.008-0.007,0.018-0.011,0.027-0.016c0.004-0.002,0.007-0.004,0.012-0.006
				c0.01-0.007,0.018-0.011,0.028-0.016c0.004-0.002,0.008-0.006,0.012-0.009c0.008-0.004,0.018-0.008,0.028-0.015
				c0.003-0.002,0.006-0.005,0.011-0.007c0.01-0.006,0.02-0.009,0.028-0.015c0.004-0.002,0.009-0.005,0.012-0.007
				c0.009-0.006,0.019-0.011,0.028-0.015c0.004-0.002,0.007-0.005,0.011-0.007c0.01-0.006,0.02-0.011,0.029-0.018
				c0.004-0.002,0.007-0.004,0.012-0.006c0.01-0.004,0.018-0.009,0.027-0.016c0.004-0.002,0.007-0.004,0.012-0.006
				c0.01-0.007,0.02-0.011,0.028-0.016c0.004-0.002,0.007-0.004,0.012-0.006c0.009-0.007,0.018-0.011,0.028-0.016
				c0.004-0.002,0.008-0.006,0.012-0.008c0.008-0.005,0.018-0.009,0.027-0.016c0.004-0.002,0.008-0.004,0.013-0.007
				c0.009-0.006,0.019-0.011,0.027-0.015c0.004-0.002,0.008-0.004,0.011-0.007c0.01-0.006,0.021-0.011,0.029-0.015
				c0.004-0.002,0.007-0.007,0.012-0.009c0.009-0.004,0.019-0.009,0.028-0.015c0.003-0.003,0.007-0.005,0.011-0.007
				c0.01-0.004,0.019-0.009,0.029-0.015c0.003-0.003,0.006-0.005,0.011-0.007c0.01-0.007,0.02-0.011,0.028-0.015
				c0.004-0.003,0.007-0.005,0.012-0.007c0.008-0.007,0.018-0.011,0.028-0.015c0.004-0.005,0.008-0.007,0.012-0.009
				c0.009-0.005,0.019-0.009,0.028-0.016c0.003-0.002,0.006-0.004,0.011-0.006c0.01-0.005,0.02-0.009,0.028-0.016
				c0.004-0.002,0.009-0.004,0.012-0.009c0.009-0.004,0.019-0.008,0.028-0.013c0.003-0.002,0.007-0.007,0.011-0.009
				c0.01-0.004,0.02-0.009,0.029-0.015c0.003-0.002,0.007-0.005,0.012-0.007c0.008-0.004,0.018-0.011,0.027-0.015
				c0.004-0.002,0.009-0.005,0.012-0.007c0.009-0.006,0.02-0.011,0.028-0.015c0.004-0.003,0.007-0.007,0.012-0.009
				c0.009-0.005,0.02-0.009,0.028-0.016c0.003-0.002,0.006-0.004,0.011-0.006c0.01-0.005,0.02-0.009,0.029-0.016
				c0.003-0.002,0.007-0.004,0.012-0.006c0.009-0.007,0.019-0.011,0.027-0.016c0.004-0.002,0.009-0.006,0.012-0.008
				c0.009-0.005,0.019-0.009,0.028-0.014c0.004-0.002,0.007-0.004,0.011-0.009c0.01-0.004,0.02-0.008,0.029-0.015
				c0.003-0.002,0.007-0.004,0.012-0.007c0.008-0.006,0.018-0.011,0.028-0.015c0.003-0.002,0.008-0.004,0.011-0.007
				c0.01-0.006,0.019-0.011,0.028-0.015c0.004-0.002,0.007-0.007,0.012-0.009c0.01-0.004,0.02-0.009,0.028-0.013
				c0.003-0.005,0.008-0.007,0.012-0.009c0.009-0.004,0.019-0.009,0.028-0.015c0.003-0.003,0.007-0.005,0.012-0.007
				c0.009-0.007,0.019-0.011,0.027-0.016c0.004-0.002,0.008-0.004,0.011-0.006c0.01-0.007,0.02-0.011,0.029-0.018
				c0.004,0,0.007-0.004,0.012-0.006c0.01-0.005,0.019-0.009,0.028-0.016c0.003-0.002,0.008-0.004,0.011-0.007
				c0.009-0.006,0.019-0.01,0.028-0.015c0.004-0.002,0.007-0.004,0.012-0.007c0.01-0.006,0.019-0.011,0.028-0.015
				c0.004-0.002,0.007-0.004,0.012-0.007c0.008-0.006,0.018-0.011,0.028-0.017c0.004-0.002,0.008-0.005,0.012-0.007
				c0.01-0.004,0.019-0.011,0.028-0.015c0.003-0.003,0.006-0.005,0.011-0.007c0.01-0.007,0.02-0.011,0.028-0.015
				c0.004-0.003,0.009-0.007,0.012-0.009c0.01-0.005,0.02-0.009,0.028-0.016c0.004,0,0.007-0.004,0.011-0.006
				c0.01-0.005,0.02-0.009,0.029-0.016c0.003-0.002,0.007-0.004,0.012-0.006c0.008-0.007,0.018-0.011,0.027-0.016
				c0.004-0.002,0.009-0.004,0.012-0.006c0.009-0.007,0.02-0.011,0.028-0.016c0.004-0.002,0.008-0.006,0.012-0.009
				c0.01-0.004,0.018-0.009,0.028-0.015c0.003-0.002,0.008-0.004,0.011-0.007c0.01-0.004,0.02-0.009,0.029-0.015
				c0.003-0.002,0.007-0.005,0.012-0.007c0.009-0.006,0.019-0.011,0.027-0.015c0.004-0.002,0.008-0.007,0.012-0.007
				c0.009-0.006,0.018-0.011,0.028-0.017c0.004-0.003,0.007-0.005,0.012-0.007c0.009-0.005,0.019-0.009,0.028-0.016
				c0.004-0.002,0.008-0.004,0.011-0.006c0.01-0.007,0.02-0.011,0.028-0.016c0.004-0.002,0.009-0.004,0.012-0.008
				c0.01-0.005,0.02-0.009,0.028-0.014c0.004-0.002,0.007-0.006,0.011-0.009c0.009-0.004,0.019-0.008,0.029-0.015
				c0.003-0.002,0.008-0.004,0.012-0.007c0.009-0.004,0.019-0.008,0.027-0.015c0.004-0.002,0.007-0.004,0.012-0.007
				c0.01-0.006,0.019-0.011,0.028-0.015c0.004-0.002,0.008-0.007,0.012-0.009c0.009-0.004,0.02-0.009,0.028-0.015
				c0.004-0.003,0.007-0.005,0.012-0.007c0.009-0.004,0.019-0.009,0.028-0.015c0.003-0.003,0.008-0.005,0.012-0.007
				c0.008-0.007,0.018-0.011,0.027-0.015c0.004-0.003,0.007-0.005,0.012-0.007c0.009-0.007,0.02-0.011,0.028-0.016
				c0.004-0.004,0.009-0.006,0.012-0.008c0.01-0.005,0.018-0.009,0.028-0.016c9.012-5.209,14.393-14.533,14.393-24.943
				C301.776,759.843,291.705,742.4,275.494,733.041z"/>
			<path opacity="0.2" fill="#110FAB" d="M263.59,739.716l-2.515-1.452v11.641c11.676,7.861,18.819,21.144,18.819,35.33
				c0,6.806-3.516,12.9-9.407,16.307c-2.946,1.702-6.178,2.554-9.412,2.558v9.992c4.947-0.002,9.896-1.306,14.404-3.912
				c9.013-5.21,14.393-14.534,14.393-24.944C289.872,766.517,279.801,749.074,263.59,739.716z"/>
		</g>
	</g>
</g>
<g>
	<path fill="#E2A1D0" d="M522.047,501.347l20.543,13.957c0,0,8.658,8.889,11.716,11.657c3.055,2.769,5.093-0.254,3.225-3.822
		c-1.229-2.348-5.55-9.899-8.356-14.785c-1.53-2.661-4.296-4.438-7.099-4.572l-2.881-0.136l-4.46-2.885c0,0-1.99-1.354-2.499-1.447
		c-0.511-0.095-4.076-0.918-4.585-0.843C527.143,498.548,522.047,501.347,522.047,501.347z"/>
	<path fill="#110FAB" d="M539.824,510.912c0.877,1.972,2.438,3.629,3.96,5.225c1.551,1.627,3.104,3.256,4.655,4.885
		c1.452,1.525,2.904,3.051,4.356,4.573c0.752,0.789,1.525,1.595,2.463,2.093c0.939,0.495,2.09,0.618,2.777,0.025
		c0.599-0.518,0.715-1.465,0.515-2.344c-0.2-0.882-0.672-1.718-1.138-2.534c-2.667-4.688-5.334-9.376-7.999-14.063
		c-0.586-1.03-1.189-2.082-2.052-2.911c-1.415-1.359-5.493-3.104-7.056-2.199C538.456,504.735,538.977,509.015,539.824,510.912z"/>
	<path fill="#E2A1D0" d="M568.848,476.454l8.652,5.26l11.891,4.927c0,0,8.658,7.302,11.716,9.508
		c3.055,2.206,5.093-1.189,3.225-4.415c-1.229-2.122-5.55-8.882-8.356-13.252c-1.53-2.38-4.296-3.651-7.1-3.268l-2.88,0.392
		l-4.46-2.065c0,0-1.99-0.989-2.499-0.989c-0.511,0-4.076-0.17-4.585,0C573.944,472.719,568.848,476.454,568.848,476.454z"/>
	<path fill="#3636BF" d="M522.153,421.678l12.55-9.654l6.756,42.337l42.753,20.413c0,0-4.617-2.383-6.711,1.469
		c-2.615,4.805,0,5.471,0,5.471l-48.112-15.036c-2.095-0.655-3.695-2.354-4.221-4.485l-9.129-36.975L522.153,421.678z"/>
	<path fill="#110FAB" d="M496.41,411.703c-0.601,13.006-3.885,52.471-3.158,56.345c0.98,5.225,23.13,30.078,35.701,38.813
		c0.08-0.119,0.17-0.257,0.267-0.405c1.987-3.137,5.891-4.723,9.322-3.307l0.121,0.051c-7.041-15.669-13.743-23.127-25.843-35.323
		c1.515-5.994,1.002-29.514,2.517-35.51c6.188-0.939,20.247-9.749,20.247-9.749s1.564-8.519-0.956-14.247
		c-6.916-1.267-13.832-2.536-20.747-3.803C507.591,403.415,500.473,406.765,496.41,411.703z"/>
	<circle fill="#E2A1D0" cx="512.326" cy="333.692" r="15.845"/>
	<path fill="#FBFEFF" d="M537.13,369.81c0,0,6.807-17.839-0.45-22.852c-5.491-0.599-12.227,2.579-12.227,2.579
		s-14.262,9.183-23.77,13.936c-4.789,2.395-1.429,13.898-1.271,25.397c0.153,11.326-2.932,22.667-2.932,22.667
		s14.769,6.338,22.69,5.811c7.924-0.528,17.432-4.225,16.374-7.924c-1.056-3.697-5.811-17.43-3.697-22.182
		C533.961,382.489,537.13,369.81,537.13,369.81z"/>
	<path fill="#D7DAFF" d="M500.686,363.473c2.543-1.272,5.425-2.862,8.284-4.507c2.37,0.93,4.248,1.763,4.248,1.763l1.593,15.929
		c0,0-0.875,25.331-2.622,39.983c-7.472-1.571-15.708-5.104-15.708-5.104s3.266-12.25,3.101-23.512
		C499.413,376.475,495.872,365.879,500.686,363.473z"/>
	<circle fill="#E2A1D0" cx="460.646" cy="369.477" r="6.792"/>
	<path fill="#FBFEFF" d="M517.539,354.189l-16.854,9.283c0,0-4.753,1.693-9.505,13.259c-4.755,11.566-11.621,22.659-14.791,23.715
		c-3.169,1.056-12.726-23.809-14.838-25.394c-2.113-1.584-5.76-5.134-5.232,1.679c0.528,6.812,4.754,37.447,11.62,40.088
		c6.867,2.641,51.977-33.052,52.505-42.559C520.97,364.753,517.539,354.189,517.539,354.189z"/>
	<path fill="#E2A1D0" d="M461.814,373.732c2.112,1.584,11.405,27.77,14.574,26.714c0.177-0.061,0.369-0.16,0.569-0.28
		c0.058-0.034,0.116-0.075,0.175-0.116c0.159-0.104,0.322-0.227,0.491-0.366c0.056-0.047,0.111-0.088,0.172-0.138
		c0.216-0.189,0.439-0.4,0.672-0.638c0.073-0.075,0.151-0.159,0.225-0.239c0.168-0.179,0.34-0.369,0.517-0.571
		c0.102-0.116,0.203-0.235,0.307-0.36c0.168-0.2,0.34-0.416,0.513-0.635c0.177-0.224,0.357-0.461,0.538-0.703
		c0.151-0.207,0.306-0.411,0.461-0.629c0.16-0.222,0.323-0.454,0.482-0.687c0.104-0.151,0.209-0.303,0.315-0.458
		c0.629-0.93,1.275-1.945,1.932-3.036c0.03-0.048,0.059-0.096,0.089-0.146c0.974-1.619,1.958-3.388,2.935-5.26
		c0-0.002,0-0.004,0.002-0.007c2.251,3.295,6.513,8.936,11.343,12.65c-12.634,10.32-26.607,19.368-30.187,17.992
		c-6.866-2.641-11.092-33.276-11.62-40.088C455.79,369.919,459.702,372.147,461.814,373.732z"/>
	<path fill="#E2A1D0" d="M522.47,337.712l2.372,17.004l0,0c-1.67,3.818-5.505,6.229-9.67,6.083l-1.954-0.07l-3.798-17.876
		L522.47,337.712z"/>
	<path fill="#110FAB" d="M501.891,338.308c-0.078-2.349,3.156-4.008,5.02-2.579c1.327,1.018,1.62,2.973,1.144,4.576
		c-0.476,1.603-1.566,2.938-2.633,4.228c5.012,3.362,10.44,6.103,16.122,8.138c2.363-3.424,4.727-6.85,7.09-10.274
		c1.069-1.549,2.155-3.136,2.648-4.951c1.118-4.128-0.543-11.413-3.292-14.689c-3.872-4.612-9.135-6.646-15.135-7.129
		c-4.644-0.374-10.271,2.833-13.276,6.45C495.615,326.851,500.038,333.183,501.891,338.308z"/>
	<path fill="#110FAB" d="M537.32,346.055c0.125,0.475,0.25,0.97,0.155,1.452c-0.101,0.506-0.429,0.933-0.754,1.333
		c-1.629,1.997-3.458,3.835-5.482,5.426c-1.677,1.315-3.493,2.465-5.455,3.294c-6.516,2.756-13.929,1.779-20.927,0.755
		c0.487-4.59,0.646-9.215,0.479-13.828c2.941-1.082,5.087-4.048,5.192-7.181c0.073-2.172-0.743-4.356-0.313-6.487
		c1.234-6.106,9.82-7.389,14.872-6.634c4.979,0.742,6.545,5.065,8.168,9.293C534.834,337.595,536.191,341.794,537.32,346.055z"/>
	<circle fill="#E0E4FF" cx="505.328" cy="342.216" r="1.69"/>
	<path fill="#110FAB" d="M586.625,482.759c0.879,1.81,2.438,3.178,3.96,4.496c1.551,1.342,3.103,2.687,4.655,4.031
		c1.452,1.258,2.904,2.516,4.356,3.774c0.752,0.648,1.525,1.313,2.463,1.637c0.939,0.326,2.09,0.235,2.777-0.482
		c0.599-0.627,0.715-1.597,0.515-2.438c-0.2-0.845-0.672-1.593-1.138-2.325c-2.667-4.198-5.334-8.397-7.999-12.595
		c-0.586-0.922-1.189-1.863-2.052-2.533c-1.415-1.101-5.493-2.097-7.056-0.905C585.256,476.832,585.778,481.016,586.625,482.759z"/>
</g>
<g>
	<circle fill="#E9A4D7" cx="260.236" cy="360.369" r="5.22"/>
	<path fill="#E9A4D7" d="M262.848,362.665c0,0,14.334,29.687,15.657,34.931c1.018,4.04-6.464,9.753-9.426,6.621
		c-2.961-3.132-10.757-40.258-10.757-40.258L262.848,362.665z"/>
	<path fill="#CE9006" d="M290.713,414.635c-5.873-7.11-9.508-15.745-13.739-23.939c-0.519-1.007-1.17-2.108-2.268-2.388
		c-0.857-0.219-1.747,0.136-2.562,0.483c-3.26,1.39-7.065,3.576-6.99,7.117c0.023,1.105,0.452,2.157,0.879,3.176
		c6.509,15.542,14.115,30.625,22.74,45.099c1.353,2.271,3.104,4.771,5.734,5.023c2.795,0.266,5.075-2.16,6.583-4.528
		c2.535-3.975,7.031-11.929,4.677-16.798C303.319,422.812,294.517,419.235,290.713,414.635z"/>
	<circle fill="#E9A4D7" cx="224.099" cy="378.667" r="5.22"/>
	<path fill="#3636BF" d="M302.551,488.293c0,0,5.893,45.254,6.39,67.124c0.497,21.869,9.123,22.432,15.248,36.564
		c6.125,14.134,10.101,28.549,10.101,28.549l-3.281,1.851c0,0-29.026-35.649-32.506-39.129s-14.911-63.125-14.911-63.125
		L302.551,488.293z"/>
	<path fill="#110FAB" d="M331.008,622.381c0,0,1.353,4.057,2.48,7.211c1.127,3.156,0,10.143,1.803,13.073
		c1.803,2.93,6.762,0.452,6.537-2.027s-1.578-11.946-2.255-13.523c-0.675-1.579-5.284-6.584-5.284-6.584L331.008,622.381z"/>
	<circle fill="#E9A4D7" cx="279.853" cy="411.917" r="15.846"/>
	<path fill="#110FAB" d="M273.184,625.464c0,0-0.3,6.502-0.375,7.082c-0.075,0.581-2.83,1.978-6.862,1.167
		c-4.033-0.812-15.348-4.576-17.332-6.523c-1.982-1.947,4.283-1.529,8.115-1.176c3.832,0.351,11.261-0.55,11.261-0.55H273.184z"/>
	<path fill="#110FAB" d="M304.519,504.611l-17.446,14.348c0,0-10.229,35.106-11.276,43.49c-1.047,8.383-2.638,53.559-2.612,63.015
		c0.016,5.857-4.199,3.008-5.771,1.958c-1.572-1.047-8.384-58.111-8.384-73.069s6.605-67.106,6.605-67.106l36.917,0.145
		L304.519,504.611z"/>
	<path fill="#F0C53B" d="M299.375,465.467c2.112-4.753,5.282-17.432,5.282-17.432c3.564-10.709,2.458-16.649,0.866-19.777
		c-5.621-2.81-15.247,1.754-15.247,1.754s-13.858,4.929-22.064,11.688c-2.89,2.379-0.994,14.734-0.378,27.667
		c0.409,8.611-3.827,20.396-3.827,20.396s14.769,6.338,22.691,5.811c7.923-0.528,17.431-4.225,16.374-7.922
		C302.016,483.954,297.263,470.22,299.375,465.467z"/>
	<path fill="#E9A4D7" d="M226.71,380.963c0,0,14.335,29.686,15.657,34.93c1.019,4.037-6.463,9.753-9.425,6.62
		c-2.961-3.132-10.757-40.257-10.757-40.257L226.71,380.963z"/>
	<path fill="#CE9006" d="M268.315,441.894c2.358-1.591,1.85,3.16,4.709,1.515c2.368,0.931,3.518,0.67,3.518,0.67l1.675,11.054
		c0,0,3.246,25.082,1.499,39.734c-7.471-1.568-15.708-5.104-15.708-5.104s0.644-5.155,2.486-11.52
		C270.215,465.392,264.762,444.291,268.315,441.894z"/>
	<path fill="#E9A4D7" d="M289.996,415.938l2.373,17.003l0,0c-1.671,3.82-5.503,6.23-9.67,6.082l-1.953-0.069l-3.799-17.875
		L289.996,415.938z"/>
	<path fill="#110FAB" d="M269.417,416.533c-0.077-2.348,3.156-4.007,5.02-2.579c1.327,1.019,1.621,2.973,1.145,4.576
		c-0.478,1.604-1.568,2.941-2.634,4.229c5.011,3.36,10.439,6.102,16.121,8.137c2.364-3.423,4.728-6.849,7.091-10.274
		c1.068-1.549,2.155-3.134,2.647-4.951c1.118-4.128-0.542-11.412-3.293-14.689c-3.872-4.61-9.134-6.644-15.135-7.128
		c-4.643-0.374-10.269,2.832-13.274,6.449C263.142,405.076,267.565,411.408,269.417,416.533z"/>
	<circle fill="#F0C53B" cx="291.518" cy="399.464" r="11.925"/>
	<circle fill="#110FAB" cx="293.545" cy="397.438" r="12.808"/>
	<path fill="#F0C53B" d="M270.873,440.691c1.563,1.085,3.126,2.169,4.689,3.255c1.617,1.12,3.265,2.272,4.425,3.863
		c1.16,1.59,1.76,3.729,1.043,5.561c-0.977,2.501-3.898,3.557-6.521,4.128c-3.784,0.822-7.653,1.249-11.526,1.267
		c-3.823-1.435-7.6-3.055-11.016-5.294c-7.071-4.632-11.632-12.207-15.312-19.818c-1.889-3.903-3.61-7.888-5.16-11.938
		c2.495,0.241,4.538-0.545,6.905-1.368c2.367-0.823,4.454-3.012,4.313-5.516c2.803,5.524,5.474,10.824,8.275,16.346
		c0.989,1.95,1.989,3.917,3.376,5.608C257.696,440.844,265.69,441.538,270.873,440.691z"/>
</g>
</svg>
