<?xml version="1.0" encoding="utf-8"?>
<!-- Generator: Adobe Illustrator 22.1.0, SVG Export Plug-In . SVG Version: 6.00 Build 0)  -->
<svg version="1.1" id="Layer_1" xmlns="http://www.w3.org/2000/svg" xmlns:xlink="http://www.w3.org/1999/xlink" x="0px" y="0px"
	 viewBox="0 0 600 400" style="enable-background:new 0 0 600 400;" xml:space="preserve">
<style type="text/css">
	.st0{fill:#C9D4EC;}
	.st1{fill:#E0E4ED;}
	.st2{opacity:0.1;}
	.st3{fill:#455A64;}
	.st4{fill:#263238;}
	.st5{fill:#37474F;}
	.st6{fill:#CFD8DC;}
	.st7{clip-path:url(#SVGID_2_);}
	.st8{clip-path:url(#SVGID_4_);}
	.st9{clip-path:url(#SVGID_6_);}
	.st10{enable-background:new    ;}
	.st11{fill:#3D4185;}
	.st12{fill:#3A3D7F;}
	.st13{fill:#41487F;}
	.st14{fill:#7E8CF7;}
	.st15{fill:#444C85;}
	.st16{clip-path:url(#SVGID_8_);enable-background:new    ;}
	.st17{fill:#3C3F83;}
	.st18{clip-path:url(#SVGID_10_);enable-background:new    ;}
	.st19{fill:#232D32;}
	.st20{fill:#243035;}
	.st21{fill:#445862;}
	.st22{fill:#6D7274;}
	.st23{fill:#686D6F;}
	.st24{fill:#7178F7;}
	.st25{fill:#CBD4D8;}
	.st26{clip-path:url(#SVGID_12_);enable-background:new    ;}
	.st27{fill:#FFFFFF;}
	.st28{fill:#7279F8;}
	.st29{fill:#4B456F;}
	.st30{fill:#F7F9F9;}
	.st31{fill:#737AFB;}
	.st32{fill:#F4F5F7;}
	.st33{fill:#D36389;}
	.st34{fill:#ECEFF1;}
</style>
<g>
	<g>
		<g>
			<g>
				<polygon class="st0" points="568.7,236.7 507.7,272.2 264.4,131.8 325.5,96.3 				"/>
			</g>
		</g>
	</g>
	<g>
		<g>
			<g>
				<polygon class="st1" points="369.9,169.7 214,260.3 11.1,143.1 167.1,52.5 				"/>
			</g>
		</g>
	</g>
	<g>
		<g class="st2">
			<path d="M518.9,131.1c12.9,7.5,13,19.6,0.1,27C425.4,212.6,331.7,267,238,321.5c-12.8,7.5-33.7,7.5-46.7,0
				c-36.6-21.1-73.1-42.2-109.7-63.3c-12.9-7.5-13-19.6-0.2-27c93.7-54.4,187.4-108.9,281.1-163.3c12.8-7.5,33.7-7.5,46.7,0
				C445.8,88.9,482.4,110,518.9,131.1z"/>
			<path d="M531.9,147.9c-0.2-1.5-0.5-2.6-0.6-3.1c-0.2-0.8-0.5-1.6-1.2-3.2c-0.4-0.9-0.8-1.5-1.4-2.5c-0.4-0.7-1-1.5-1.5-2.1
				c-0.7-0.8-1.6-1.7-2.3-2.4c-0.9-0.8-2.1-1.7-3.1-2.4c-0.5-0.4-1.2-0.8-1.8-1.1c-0.3-0.2-0.6-0.2-1,0c12.9,7.5,13,19.6,0.1,27
				L238,321.5c-12.8,7.5-33.7,7.5-46.7,0l0,0L81.7,258.2c-12.9-7.5-13-19.6-0.2-27c-0.4-0.2-0.7-0.2-1,0c-1,0.6-2.3,1.5-3.2,2.2
				c-0.5,0.3-1.1,0.8-1.5,1.2c-0.6,0.6-1.5,1.4-2.1,2.1c-1.1,1.2-1.7,2.2-2,2.7c-1.4,2.3-2,4.1-2.4,5.5c-0.2,0.9-0.4,1.9-0.6,3.1
				c-0.1,1-0.1,1.7-0.2,2.8l0,1.5c0,1,0.1,2,0.4,3c-0.2-1-0.4-2-0.4-3c0,2.8,0.5,4.8,0.9,6.3c0.7,2.6,2,4.6,2.4,5.3
				c0.5,0.7,1.2,1.7,1.6,2.3c0.7,0.8,1.7,1.8,2.5,2.6c0.8,0.8,2.1,1.7,3,2.3c0.5,0.4,1.2,0.7,1.7,1.1h0l109.7,63.3
				c2.5,1.4,4.4,2.2,4.4,2.2c1.4,0.5,3.2,1.2,4.6,1.6c0.7,0.2,1.7,0.5,2.5,0.6c3.8,0.9,8.5,1.4,12.8,1.4c4.4,0,9-0.5,12.8-1.5
				c0.8-0.2,1.8-0.4,2.5-0.7c1.4-0.4,3.2-1.1,4.6-1.6c0.7-0.3,1.6-0.7,2.3-1.1c0.6-0.3,1.4-0.8,2-1.1c0.3-0.2,0.6-0.6,0.9-1.2
				c-0.2,0.6-0.5,1-0.9,1.2l112.4-65.3l168.6-98c1-0.6,2.2-1.4,3.1-2.1c0.9-0.7,2-1.7,2.8-2.4c0.6-0.5,1.2-1.3,1.7-1.9
				c0.5-0.7,1.1-1.6,1.5-2.3c0.8-1.3,1.6-3.3,2-4.7c0.2-0.9,0.5-1.7,0.6-3.1c0.2-1.2,0.2-2,0.2-3.1v0l0-1.5
				C532,149.9,532,149,531.9,147.9z"/>
			<path d="M452.7,114.7c1.3,0.8,1.3,2,0,2.8c-1.3,0.8-3.4,0.8-4.8,0l-23.9-13.8c-1.3-0.8-1.3-2,0-2.8c1.3-0.8,3.4-0.8,4.8,0
				L452.7,114.7z"/>
			<path d="M415,92.9c1.3,0.8,1.3,2,0,2.8c-1.3,0.8-3.4,0.8-4.8,0c-1.3-0.8-1.3-2,0-2.8C411.6,92.1,413.7,92.1,415,92.9z"/>
			<path d="M158.1,266.8c6.6,3.8,6.6,10,0.1,13.8c-6.6,3.8-17.2,3.8-23.8,0c-6.6-3.8-6.6-10-0.1-13.8
				C140.8,262.9,151.5,262.9,158.1,266.8z"/>
			<path d="M135.9,268.4c6.6-3.8,17.2-3.8,23.8,0c0.7,0.4,1.2,0.8,1.8,1.2c-0.8-1.1-2-2-3.5-2.9c-6.6-3.8-17.3-3.8-23.8,0
				c-5.9,3.4-6.4,8.8-1.7,12.6C129.8,275.7,130.9,271.4,135.9,268.4z"/>
			<path d="M489.3,161.1c2.2,1.3,2.2,3.3,0,4.6L247.2,306.4c-2.2,1.3-5.8,1.3-8,0L103,227.8c-2.2-1.3-2.2-3.3,0-4.6L345.1,82.5
				c2.2-1.3,5.8-1.3,8,0L489.3,161.1z"/>
			<path d="M103,225.5L345.1,84.8c2.2-1.3,5.8-1.3,8,0l136.2,78.6c0.6,0.3,1,0.7,1.3,1.2c0.8-1.2,0.3-2.5-1.3-3.5L353.1,82.5
				c-2.2-1.3-5.8-1.3-8,0L103,223.2c-1.6,0.9-2,2.3-1.3,3.5C102,226.2,102.4,225.8,103,225.5z"/>
		</g>
		<g>
			<g>
				<g>
					<path class="st3" d="M508.9,111.1c12.9,7.5,13,19.6,0.1,27C415.4,192.6,321.7,247,228,301.5c-12.8,7.5-33.7,7.5-46.7,0
						c-36.6-21.1-73.1-42.2-109.7-63.3c-12.9-7.5-13-19.6-0.2-27c93.7-54.4,187.4-108.9,281.1-163.3c12.8-7.5,33.7-7.5,46.7,0
						C435.8,68.9,472.4,90,508.9,111.1z"/>
				</g>
				<path class="st4" d="M521.9,127.9c-0.2-1.5-0.5-2.6-0.6-3.1c-0.2-0.8-0.5-1.6-1.2-3.2c-0.4-0.9-0.8-1.5-1.4-2.5
					c-0.4-0.7-1-1.5-1.5-2.1c-0.7-0.8-1.6-1.7-2.3-2.4c-0.9-0.8-2.1-1.7-3.1-2.4c-0.5-0.4-1.2-0.8-1.8-1.1c-0.3-0.2-0.6-0.2-1,0
					c12.9,7.5,13,19.6,0.1,27L228,301.5c-12.8,7.5-33.7,7.5-46.7,0l0,0L71.7,238.2c-12.9-7.5-13-19.6-0.2-27c-0.4-0.2-0.7-0.2-1,0
					c-1,0.6-2.3,1.5-3.2,2.2c-0.5,0.3-1.1,0.8-1.5,1.2c-0.6,0.6-1.5,1.4-2.1,2.1c-1.1,1.2-1.7,2.2-2,2.7c-1.4,2.3-2,4.1-2.4,5.5
					c-0.2,0.9-0.4,1.9-0.6,3.1c-0.1,1-0.1,1.7-0.2,2.8l0,1.5c0,1,0.1,2,0.4,3c-0.2-1-0.4-2-0.4-3c0,2.8,0.5,4.8,0.9,6.3
					c0.7,2.6,2,4.6,2.4,5.3c0.5,0.7,1.2,1.7,1.6,2.3c0.7,0.8,1.7,1.8,2.5,2.6c0.8,0.8,2.1,1.7,3,2.3c0.5,0.4,1.2,0.7,1.7,1.1h0
					l109.7,63.3c2.5,1.4,4.4,2.2,4.4,2.2c1.4,0.5,3.2,1.2,4.6,1.6c0.7,0.2,1.7,0.5,2.5,0.6c3.8,0.9,8.5,1.4,12.8,1.4
					c4.4,0,9-0.5,12.8-1.5c0.8-0.2,1.8-0.4,2.5-0.7c1.4-0.4,3.2-1.1,4.6-1.6c0.7-0.3,1.6-0.7,2.3-1.1c0.6-0.3,1.4-0.8,2-1.1
					c0.3-0.2,0.6-0.6,0.9-1.2c-0.2,0.6-0.5,1-0.9,1.2l112.4-65.3l168.6-98c1-0.6,2.2-1.4,3.1-2.1c0.9-0.7,2-1.7,2.8-2.4
					c0.6-0.5,1.2-1.3,1.7-1.9c0.5-0.7,1.1-1.6,1.5-2.3c0.8-1.3,1.6-3.3,2-4.7c0.2-0.9,0.5-1.7,0.6-3.1c0.2-1.2,0.2-2,0.2-3.1v0
					l0-1.5C522,129.9,522,129,521.9,127.9z"/>
				<g>
					<g>
						<path class="st5" d="M442.7,94.7c1.3,0.8,1.3,2,0,2.8c-1.3,0.8-3.4,0.8-4.8,0l-23.9-13.8c-1.3-0.8-1.3-2,0-2.8
							c1.3-0.8,3.4-0.8,4.8,0L442.7,94.7z"/>
					</g>
					<g>
						<path class="st5" d="M405,72.9c1.3,0.8,1.3,2,0,2.8c-1.3,0.8-3.4,0.8-4.8,0c-1.3-0.8-1.3-2,0-2.8
							C401.6,72.1,403.7,72.1,405,72.9z"/>
					</g>
				</g>
				<g>
					<path class="st5" d="M148.1,246.8c6.6,3.8,6.6,10,0.1,13.8c-6.6,3.8-17.2,3.8-23.8,0c-6.6-3.8-6.6-10-0.1-13.8
						C130.8,242.9,141.5,242.9,148.1,246.8z"/>
					<path class="st4" d="M125.9,248.4c6.6-3.8,17.2-3.8,23.8,0c0.7,0.4,1.2,0.8,1.8,1.2c-0.8-1.1-2-2-3.5-2.9
						c-6.6-3.8-17.3-3.8-23.8,0c-5.9,3.4-6.4,8.8-1.7,12.6C119.8,255.7,120.9,251.4,125.9,248.4z"/>
				</g>
				<g>
					<g>
						<path class="st6" d="M479.3,141.1c2.2,1.3,2.2,3.3,0,4.6L237.2,286.4c-2.2,1.3-5.8,1.3-8,0L93,207.8c-2.2-1.3-2.2-3.3,0-4.6
							L335.1,62.5c2.2-1.3,5.8-1.3,8,0L479.3,141.1z"/>
					</g>
				</g>
				<path class="st6" d="M93,205.5L335.1,64.8c2.2-1.3,5.8-1.3,8,0l136.2,78.6c0.6,0.3,1,0.7,1.3,1.2c0.8-1.2,0.3-2.5-1.3-3.5
					L343.1,62.5c-2.2-1.3-5.8-1.3-8,0L93,203.2c-1.6,0.9-2,2.3-1.3,3.5C92,206.2,92.4,205.8,93,205.5z"/>
			</g>
		</g>
	</g>
	<g>
		<g class="st2">
			<polygon points="352.7,274.5 352.7,276.1 335.6,286.1 335.6,284.4 			"/>
			<polygon points="387,294.3 387,296 352.7,276.1 352.7,274.5 			"/>
			<polygon points="369.9,304.3 369.9,305.9 335.6,286.1 335.6,284.4 			"/>
			<polygon points="387,294.3 369.9,304.3 335.6,284.4 352.7,274.5 			"/>
			<polygon points="387,294.3 387,296 369.9,305.9 369.9,304.3 			"/>
			<g>
				<defs>
					<path id="SVGID_1_" d="M294.9,300.3l0-1.6c0,2.4,1.6,4.8,4.8,6.7l0,1.6C296.4,305.1,294.8,302.7,294.9,300.3z"/>
				</defs>
				<clipPath id="SVGID_2_">
					<use xlink:href="#SVGID_1_"  style="overflow:visible;"/>
				</clipPath>
				<path class="st7" d="M299.6,305.3l0,1.6c-3.2-1.8-4.8-4.2-4.8-6.7l0-1.6C294.9,301.1,296.4,303.5,299.6,305.3"/>
			</g>
			<polygon points="398.5,301 398.5,302.6 381.4,312.5 381.4,310.9 			"/>
			<g>
				<defs>
					<path id="SVGID_3_" d="M544.3,331.8l0,1.6c0,2.4-1.6,4.8-4.7,6.6l0-1.6C542.7,336.6,544.3,334.2,544.3,331.8z"/>
				</defs>
				<clipPath id="SVGID_4_">
					<use xlink:href="#SVGID_3_"  style="overflow:visible;"/>
				</clipPath>
				<path class="st8" d="M544.3,331.8l0,1.6c0,2.4-1.6,4.8-4.7,6.6l0-1.6C542.7,336.6,544.3,334.2,544.3,331.8"/>
			</g>
			<polygon points="536.7,340 536.7,341.7 376.4,249.1 376.4,247.5 			"/>
			<polygon points="519.7,350 519.7,351.6 359.3,259 359.3,257.4 			"/>
			<polygon points="536.7,340 536.7,341.7 519.7,351.6 519.7,350 			"/>
			<polygon points="536.7,340 519.7,350 359.3,257.4 376.4,247.5 			"/>
			<polygon points="490.1,353.9 490.1,355.5 398.5,302.6 398.5,301 			"/>
			<polygon points="490.1,353.9 490.1,355.5 473,365.4 473,363.8 			"/>
			<polygon points="473,363.8 473,365.4 381.4,312.5 381.4,310.9 			"/>
			<path d="M539.6,338.4l-79.7,46.3c-6.3,3.7-16.5,3.6-22.8,0l-137.5-79.4c-6.3-3.6-6.4-9.6-0.1-13.2l59.7-34.7L519.7,350l17.1-9.9
				l-160.4-92.6l2.8-1.7c6.3-3.7,16.5-3.7,22.8,0l137.5,79.4C545.8,328.8,545.9,334.7,539.6,338.4z M473,363.8l17.1-9.9L398.5,301
				l-17.1,9.9L473,363.8 M335.6,284.4l34.4,19.8l17.1-9.9l-34.4-19.8L335.6,284.4"/>
			<polygon points="490.1,353.9 473,363.8 381.4,310.9 398.5,301 			"/>
			<polygon points="539.6,338.4 539.6,340 459.9,386.3 459.9,384.7 			"/>
			<polygon points="437.1,384.7 437.1,386.3 299.6,307 299.6,305.3 			"/>
			<g>
				<defs>
					<path id="SVGID_5_" d="M459.9,384.7l0,1.6c-6.3,3.7-16.5,3.6-22.8,0l0-1.6C443.4,388.3,453.6,388.3,459.9,384.7z"/>
				</defs>
				<clipPath id="SVGID_6_">
					<use xlink:href="#SVGID_5_"  style="overflow:visible;"/>
				</clipPath>
				<path class="st9" d="M459.9,384.7l0,1.6c-6.3,3.7-16.5,3.6-22.8,0l0-1.6C443.4,388.3,453.6,388.3,459.9,384.7"/>
			</g>
		</g>
		<g>
			<g class="st10">
				<g>
					<polygon class="st11" points="342.7,254.5 342.7,256.1 325.6,266.1 325.6,264.4 					"/>
				</g>
				<g>
					<polygon class="st12" points="377,274.3 377,276 342.7,256.1 342.7,254.5 					"/>
				</g>
				<g>
					<polygon class="st13" points="359.9,284.3 359.9,285.9 325.6,266.1 325.6,264.4 					"/>
				</g>
				<g>
					<polygon class="st14" points="377,274.3 359.9,284.3 325.6,264.4 342.7,254.5 					"/>
				</g>
				<g>
					<polygon class="st15" points="377,274.3 377,276 359.9,285.9 359.9,284.3 					"/>
				</g>
				<g class="st10">
					<defs>
						<path id="SVGID_7_" class="st10" d="M284.9,280.3l0-1.6c0,2.4,1.6,4.8,4.8,6.7l0,1.6C286.4,285.1,284.8,282.7,284.9,280.3z"/>
					</defs>
					<clipPath id="SVGID_8_">
						<use xlink:href="#SVGID_7_"  style="overflow:visible;"/>
					</clipPath>
					<g class="st16">
						<path class="st17" d="M289.6,285.3l0,1.6c-3.2-1.8-4.8-4.2-4.8-6.7l0-1.6C284.9,281.1,286.4,283.5,289.6,285.3"/>
					</g>
				</g>
				<g>
					<polygon class="st11" points="388.5,281 388.5,282.6 371.4,292.5 371.4,290.9 					"/>
				</g>
				<g class="st10">
					<defs>
						<path id="SVGID_9_" class="st10" d="M534.3,311.8l0,1.6c0,2.4-1.6,4.8-4.7,6.6l0-1.6C532.7,316.6,534.3,314.2,534.3,311.8z"/>
					</defs>
					<clipPath id="SVGID_10_">
						<use xlink:href="#SVGID_9_"  style="overflow:visible;"/>
					</clipPath>
					<g class="st18">
						<path class="st17" d="M534.3,311.8l0,1.6c0,2.4-1.6,4.8-4.7,6.6l0-1.6C532.7,316.6,534.3,314.2,534.3,311.8"/>
					</g>
				</g>
				<g>
					<polygon class="st12" points="526.7,320 526.7,321.7 366.4,229.1 366.4,227.5 					"/>
				</g>
				<g>
					<polygon class="st19" points="509.7,330 509.7,331.6 349.3,239 349.3,237.4 					"/>
				</g>
				<g>
					<polygon class="st20" points="526.7,320 526.7,321.7 509.7,331.6 509.7,330 					"/>
				</g>
				<g>
					<polygon class="st21" points="526.7,320 509.7,330 349.3,237.4 366.4,227.5 					"/>
				</g>
				<g>
					<polygon class="st12" points="480.1,333.9 480.1,335.5 388.5,282.6 388.5,281 					"/>
				</g>
				<g>
					<polygon class="st22" points="480.1,333.9 480.1,335.5 463,345.4 463,343.8 					"/>
				</g>
				<g>
					<polygon class="st23" points="463,343.8 463,345.4 371.4,292.5 371.4,290.9 					"/>
				</g>
				<g>
					<path class="st24" d="M529.6,318.4l-79.7,46.3c-6.3,3.7-16.5,3.6-22.8,0l-137.5-79.4c-6.3-3.6-6.4-9.6-0.1-13.2l59.7-34.7
						L509.7,330l17.1-9.9l-160.4-92.6l2.8-1.7c6.3-3.7,16.5-3.7,22.8,0l137.5,79.4C535.8,308.8,535.9,314.7,529.6,318.4z M463,343.8
						l17.1-9.9L388.5,281l-17.1,9.9L463,343.8 M325.6,264.4l34.4,19.8l17.1-9.9l-34.4-19.8L325.6,264.4"/>
				</g>
				<g>
					<polygon class="st25" points="480.1,333.9 463,343.8 371.4,290.9 388.5,281 					"/>
				</g>
				<g>
					<polygon class="st11" points="529.6,318.4 529.6,320 449.9,366.3 449.9,364.7 					"/>
				</g>
				<g>
					<polygon class="st12" points="427.1,364.7 427.1,366.3 289.6,287 289.6,285.3 					"/>
				</g>
				<g class="st10">
					<defs>
						<path id="SVGID_11_" class="st10" d="M449.9,364.7l0,1.6c-6.3,3.7-16.5,3.6-22.8,0l0-1.6C433.4,368.3,443.6,368.3,449.9,364.7
							z"/>
					</defs>
					<clipPath id="SVGID_12_">
						<use xlink:href="#SVGID_11_"  style="overflow:visible;"/>
					</clipPath>
					<g class="st26">
						<path class="st17" d="M449.9,364.7l0,1.6c-6.3,3.7-16.5,3.6-22.8,0l0-1.6C433.4,368.3,443.6,368.3,449.9,364.7"/>
					</g>
				</g>
			</g>
		</g>
	</g>
	<g>
		<g class="st2">
			<path d="M455.7,140.3c0.4,0.2,0.4,0.6,0,0.8c-0.4,0.2-1,0.2-1.4,0l-17.9-10.3c-0.4-0.2-0.4-0.6,0-0.8c0.4-0.2,1-0.2,1.4,0
				L455.7,140.3z"/>
			<path d="M504.4,169.3l-0.2,0.1c-0.3,0.2-0.3,0.4-0.1,0.6c0.1,0.2,0.2,0.3-0.1,0.4c-0.3,0.1-0.1,0-0.5,0.1
				c-0.4,0.1-0.3,0.1-0.5,0.1c-0.1,0-0.2,0-0.3,0c-0.1,0-0.1-0.1-0.2-0.2c-0.1-0.1-0.2-0.2-0.3-0.3c-0.1-0.1-0.3-0.1-0.5-0.1l-0.2,0
				c-0.4,0-0.6,0.2-0.8,0.4c-0.2,0.2-0.3,0.3-0.6,0.2c-0.3-0.1-0.1,0-0.5-0.1c-0.4-0.1-0.3-0.1-0.5-0.1c0,0-0.1,0-0.1,0
				c-0.1-0.1-0.1-0.2,0.1-0.4c0.1-0.2,0.2-0.4-0.1-0.6l-0.2-0.1c-0.3-0.2-0.6-0.2-1-0.1c-0.3,0.1-0.5,0.1-0.6,0c0,0-0.1,0-0.1-0.1
				c-0.1-0.2,0,0-0.2-0.3c-0.2-0.3-0.1-0.1-0.2-0.3c-0.1-0.2,0.1-0.2,0.5-0.3c0.4-0.1,0.6-0.2,0.7-0.5l0-0.1c0-0.1-0.1-0.2-0.2-0.3
				c-0.1-0.1-0.2-0.1-0.4-0.2c-0.2-0.1-0.3-0.1-0.4-0.1c-0.1,0-0.1-0.1,0-0.2c0.1-0.1,0,0,0.2-0.3c0.2-0.3,0.1-0.1,0.2-0.3
				c0.1-0.2,0.3-0.1,0.7,0c0.4,0.1,0.7,0.1,1-0.1l0.2-0.1c0.3-0.2,0.3-0.4,0.1-0.6c-0.1-0.2-0.2-0.3,0.1-0.4c0.3-0.1,0.1,0,0.5-0.1
				c0.4-0.1,0.3-0.1,0.5-0.1c0.1,0,0.2,0,0.3,0c0.1,0,0.2,0.1,0.2,0.2c0.1,0.1,0.2,0.2,0.3,0.3c0.1,0.1,0.3,0.1,0.5,0.1l0.2,0
				c0.4,0,0.6-0.2,0.8-0.4c0.2-0.2,0.3-0.3,0.6-0.2c0.3,0.1,0.1,0,0.5,0.1c0.4,0.1,0.3,0.1,0.5,0.1c0,0,0.1,0,0.1,0
				c0.1,0.1,0.1,0.2,0,0.4c-0.1,0.2-0.2,0.4,0.1,0.6l0.2,0.1c0.3,0.2,0.6,0.2,1,0.1c0.3-0.1,0.5-0.1,0.6,0c0,0,0.1,0,0.1,0.1
				c0.1,0.1,0,0,0.2,0.3c0.2,0.3,0.1,0.2,0.2,0.3c0.1,0.2-0.1,0.2-0.5,0.3c-0.4,0.1-0.6,0.2-0.7,0.5l0,0.1c0,0.1,0.1,0.2,0.2,0.3
				c0.1,0.1,0.2,0.1,0.4,0.2c0.2,0.1,0.3,0.1,0.4,0.1c0.1,0,0.1,0.1,0,0.2c-0.1,0.1,0,0-0.2,0.3c-0.2,0.2-0.1,0.1-0.2,0.3
				c-0.1,0.1-0.3,0.1-0.7,0C505.1,169.2,504.7,169.2,504.4,169.3z M500.9,168.7c1,0.3,2.1,0,2.6-0.6c0.3-0.4,0.2-0.9-0.4-1.3
				c-0.2-0.1-0.4-0.2-0.6-0.2c-1-0.3-2.1,0-2.6,0.6c-0.3,0.4-0.2,0.9,0.4,1.3C500.5,168.6,500.7,168.7,500.9,168.7"/>
			<path d="M520.5,164.8c1.4,0.8,1.4,2.2,0,3l-21.1,12.3L356,97.4l21.1-12.3c1.4-0.8,3.8-0.8,5.2,0L520.5,164.8z M488.1,164.6
				l8.1-4.7c0.7-0.4,0.7-1.1,0-1.5L393.6,99.1c-0.7-0.4-1.9-0.4-2.6,0l-8.1,4.7c-0.7,0.4-0.7,1.1,0,1.5l102.5,59.2
				C486.2,165,487.3,165,488.1,164.6 M505.5,169.3c0.4,0.1,0.6,0.1,0.7,0c0.1-0.2,0,0,0.2-0.3c0.2-0.2,0.1-0.1,0.2-0.3
				c0.1-0.1,0-0.1,0-0.2c-0.1,0-0.2-0.1-0.4-0.1c-0.1,0-0.3-0.1-0.4-0.2c-0.1-0.1-0.2-0.2-0.2-0.3l0-0.1c0-0.2,0.3-0.4,0.7-0.5
				c0.4-0.1,0.6-0.2,0.5-0.3c-0.1-0.1,0,0-0.2-0.3c-0.2-0.3-0.1-0.2-0.2-0.3c0,0,0-0.1-0.1-0.1c-0.1-0.1-0.3,0-0.6,0
				c-0.4,0.1-0.7,0.1-1-0.1l-0.1-0.1c-0.3-0.2-0.2-0.4-0.1-0.6c0.1-0.2,0.2-0.3,0-0.4c0,0-0.1,0-0.1,0c-0.3-0.1-0.1,0-0.5-0.1
				c-0.4-0.1-0.2-0.1-0.5-0.1c-0.3-0.1-0.4,0-0.6,0.2c-0.2,0.2-0.4,0.4-0.8,0.4l-0.2,0c-0.2,0-0.4-0.1-0.5-0.1
				c-0.1-0.1-0.2-0.2-0.3-0.3c-0.1-0.1-0.2-0.2-0.2-0.2c-0.1,0-0.2-0.1-0.3,0c-0.3,0.1-0.1,0-0.5,0.1c-0.4,0.1-0.3,0.1-0.5,0.1
				c-0.3,0.1-0.2,0.2-0.1,0.4c0.1,0.2,0.1,0.4-0.1,0.6l-0.2,0.1c-0.3,0.2-0.7,0.1-1,0.1c-0.4-0.1-0.6-0.1-0.7,0
				c-0.1,0.1,0,0-0.2,0.3c-0.2,0.2-0.1,0.1-0.2,0.3c-0.1,0.1,0,0.1,0,0.2c0.1,0,0.2,0.1,0.4,0.1c0.1,0,0.3,0.1,0.4,0.2
				c0.1,0.1,0.2,0.2,0.2,0.3l0,0.1c0,0.2-0.3,0.4-0.7,0.5c-0.4,0.1-0.5,0.2-0.5,0.3c0.1,0.2,0,0,0.2,0.3c0.2,0.3,0.1,0.1,0.2,0.3
				c0,0,0,0.1,0.1,0.1c0.1,0.1,0.3,0,0.6,0c0.4-0.1,0.8-0.1,1,0.1l0.1,0.1c0.3,0.2,0.2,0.4,0.1,0.6c-0.1,0.2-0.2,0.3-0.1,0.4
				c0,0,0.1,0,0.1,0c0.3,0.1,0.1,0,0.5,0.1c0.4,0.1,0.3,0.1,0.5,0.1c0.3,0.1,0.4,0,0.6-0.2c0.2-0.2,0.4-0.4,0.8-0.4l0.2,0
				c0.2,0,0.4,0.1,0.5,0.1c0.1,0.1,0.2,0.2,0.3,0.3c0.1,0.1,0.2,0.2,0.2,0.2c0.1,0,0.2,0.1,0.3,0c0.3-0.1,0.1,0,0.5-0.1
				c0.4-0.1,0.3-0.1,0.5-0.1c0.3-0.1,0.2-0.2,0.1-0.4c-0.1-0.2-0.1-0.4,0.1-0.6l0.2-0.1C504.7,169.2,505.1,169.2,505.5,169.3
				 M374.5,97.7l-0.3-3.3l6,0.3l0.1-0.6l-7.1-0.4l0.4,4L374.5,97.7"/>
			<path d="M503,166.9c0.6,0.3,0.7,0.8,0.4,1.3c-0.4,0.6-1.6,0.8-2.6,0.6c-0.2-0.1-0.4-0.1-0.6-0.2c-0.6-0.3-0.8-0.8-0.4-1.3
				c0.4-0.6,1.6-0.8,2.6-0.6C502.7,166.7,502.9,166.8,503,166.9z"/>
			<polygon points="380.3,94.1 380.2,94.7 374.2,94.3 374.5,97.7 373.5,97.7 373.1,93.7 			"/>
			<path d="M427.4,128.1c0,0.3-0.4,0.5-0.8,0.5c-0.2,0-0.4-0.1-0.6-0.1c-0.1-0.1-0.2-0.2-0.3-0.3l0-1.4c-0.8-0.1-1.5-0.3-2.1-0.7
				c-0.8-0.5-1.2-1.1-1.2-1.7c0-0.7,0.4-1.3,1.2-1.7c0.8-0.5,1.8-0.7,3-0.7c1.1,0,2.2,0.3,3,0.7c0.8,0.5,1.2,1.1,1.2,1.7
				c0,0.7-0.4,1.3-1.2,1.7c-0.6,0.3-1.3,0.6-2.1,0.7L427.4,128.1z M426.5,125.8c0.7,0,1.3-0.2,1.8-0.4c0.5-0.3,0.7-0.6,0.7-1
				c0-0.4-0.3-0.8-0.8-1c-0.5-0.3-1.1-0.4-1.8-0.4c-0.7,0-1.3,0.2-1.8,0.4c-0.5,0.3-0.7,0.6-0.7,1c0,0.4,0.3,0.8,0.8,1
				C425.2,125.6,425.8,125.8,426.5,125.8"/>
			<path d="M428.3,123.3c0.5,0.3,0.7,0.6,0.8,1c0,0.4-0.3,0.8-0.7,1c-0.5,0.3-1.1,0.4-1.8,0.4c-0.7,0-1.3-0.2-1.8-0.4
				c-0.5-0.3-0.8-0.6-0.8-1c0-0.4,0.3-0.8,0.7-1c0.5-0.3,1.1-0.4,1.8-0.4C427.2,122.9,427.8,123,428.3,123.3z"/>
			<path d="M496.2,158.3c0.7,0.4,0.7,1.1,0,1.5l-8.1,4.7c-0.7,0.4-1.9,0.4-2.6,0l-102.5-59.2c-0.7-0.4-0.7-1.1,0-1.5l8.1-4.7
				c0.7-0.4,1.9-0.4,2.6,0L496.2,158.3z M426.5,128.6c0.5,0,0.8-0.2,0.8-0.5l0-1.3c0.8-0.1,1.5-0.3,2.1-0.7c0.8-0.5,1.2-1.1,1.2-1.7
				c0-0.6-0.4-1.3-1.2-1.7c-0.8-0.5-1.9-0.7-3-0.7c-1.1,0-2.2,0.3-3,0.7c-0.8,0.5-1.2,1.1-1.2,1.7c0,0.6,0.4,1.3,1.2,1.7
				c0.6,0.3,1.3,0.6,2.1,0.7l0,1.4c0,0.1,0.1,0.3,0.3,0.3C426.1,128.5,426.3,128.5,426.5,128.6 M454.3,141.2c0.4,0.2,1,0.2,1.4,0
				c0.4-0.2,0.4-0.6,0-0.8L437.8,130c-0.4-0.2-1-0.2-1.4,0c-0.4,0.2-0.4,0.6,0,0.8L454.3,141.2"/>
		</g>
		<g>
			<g>
				<path class="st6" d="M445.7,120.3c0.4,0.2,0.4,0.6,0,0.8c-0.4,0.2-1,0.2-1.4,0l-17.9-10.3c-0.4-0.2-0.4-0.6,0-0.8
					c0.4-0.2,1-0.2,1.4,0L445.7,120.3z"/>
			</g>
			<g class="st10">
				<g>
					<path class="st27" d="M494.4,149.3l-0.2,0.1c-0.3,0.2-0.3,0.4-0.1,0.6c0.1,0.2,0.2,0.3-0.1,0.4c-0.3,0.1-0.1,0-0.5,0.1
						c-0.4,0.1-0.3,0.1-0.5,0.1c-0.1,0-0.2,0-0.3,0c-0.1,0-0.1-0.1-0.2-0.2c-0.1-0.1-0.2-0.2-0.3-0.3c-0.1-0.1-0.3-0.1-0.5-0.1
						l-0.2,0c-0.4,0-0.6,0.2-0.8,0.4c-0.2,0.2-0.3,0.3-0.6,0.2c-0.3-0.1-0.1,0-0.5-0.1c-0.4-0.1-0.3-0.1-0.5-0.1c0,0-0.1,0-0.1,0
						c-0.1-0.1-0.1-0.2,0.1-0.4c0.1-0.2,0.2-0.4-0.1-0.6l-0.2-0.1c-0.3-0.2-0.6-0.2-1-0.1c-0.3,0.1-0.5,0.1-0.6,0c0,0-0.1,0-0.1-0.1
						c-0.1-0.2,0,0-0.2-0.3c-0.2-0.3-0.1-0.1-0.2-0.3c-0.1-0.2,0.1-0.2,0.5-0.3c0.4-0.1,0.6-0.2,0.7-0.5l0-0.1
						c0-0.1-0.1-0.2-0.2-0.3c-0.1-0.1-0.2-0.1-0.4-0.2c-0.2-0.1-0.3-0.1-0.4-0.1c-0.1,0-0.1-0.1,0-0.2c0.1-0.1,0,0,0.2-0.3
						c0.2-0.3,0.1-0.1,0.2-0.3c0.1-0.2,0.3-0.1,0.7,0c0.4,0.1,0.7,0.1,1-0.1l0.2-0.1c0.3-0.2,0.3-0.4,0.1-0.6
						c-0.1-0.2-0.2-0.3,0.1-0.4c0.3-0.1,0.1,0,0.5-0.1c0.4-0.1,0.3-0.1,0.5-0.1c0.1,0,0.2,0,0.3,0c0.1,0,0.2,0.1,0.2,0.2
						c0.1,0.1,0.2,0.2,0.3,0.3c0.1,0.1,0.3,0.1,0.5,0.1l0.2,0c0.4,0,0.6-0.2,0.8-0.4c0.2-0.2,0.3-0.3,0.6-0.2c0.3,0.1,0.1,0,0.5,0.1
						c0.4,0.1,0.3,0.1,0.5,0.1c0,0,0.1,0,0.1,0c0.1,0.1,0.1,0.2,0,0.4c-0.1,0.2-0.2,0.4,0.1,0.6l0.2,0.1c0.3,0.2,0.6,0.2,1,0.1
						c0.3-0.1,0.5-0.1,0.6,0c0,0,0.1,0,0.1,0.1c0.1,0.1,0,0,0.2,0.3c0.2,0.3,0.1,0.2,0.2,0.3c0.1,0.2-0.1,0.2-0.5,0.3
						c-0.4,0.1-0.6,0.2-0.7,0.5l0,0.1c0,0.1,0.1,0.2,0.2,0.3c0.1,0.1,0.2,0.1,0.4,0.2c0.2,0.1,0.3,0.1,0.4,0.1c0.1,0,0.1,0.1,0,0.2
						c-0.1,0.1,0,0-0.2,0.3c-0.2,0.2-0.1,0.1-0.2,0.3c-0.1,0.1-0.3,0.1-0.7,0C495.1,149.2,494.7,149.2,494.4,149.3z M490.9,148.7
						c1,0.3,2.1,0,2.6-0.6c0.3-0.4,0.2-0.9-0.4-1.3c-0.2-0.1-0.4-0.2-0.6-0.2c-1-0.3-2.1,0-2.6,0.6c-0.3,0.4-0.2,0.9,0.4,1.3
						C490.5,148.6,490.7,148.7,490.9,148.7"/>
				</g>
				<g>
					<path class="st28" d="M510.5,144.8c1.4,0.8,1.4,2.2,0,3l-21.1,12.3L346,77.4l21.1-12.3c1.4-0.8,3.8-0.8,5.2,0L510.5,144.8z
						 M478.1,144.6l8.1-4.7c0.7-0.4,0.7-1.1,0-1.5L383.6,79.1c-0.7-0.4-1.9-0.4-2.6,0l-8.1,4.7c-0.7,0.4-0.7,1.1,0,1.5l102.5,59.2
						C476.2,145,477.3,145,478.1,144.6 M495.5,149.3c0.4,0.1,0.6,0.1,0.7,0c0.1-0.2,0,0,0.2-0.3c0.2-0.2,0.1-0.1,0.2-0.3
						c0.1-0.1,0-0.1,0-0.2c-0.1,0-0.2-0.1-0.4-0.1c-0.1,0-0.3-0.1-0.4-0.2c-0.1-0.1-0.2-0.2-0.2-0.3l0-0.1c0-0.2,0.3-0.4,0.7-0.5
						c0.4-0.1,0.6-0.2,0.5-0.3c-0.1-0.1,0,0-0.2-0.3c-0.2-0.3-0.1-0.2-0.2-0.3c0,0,0-0.1-0.1-0.1c-0.1-0.1-0.3,0-0.6,0
						c-0.4,0.1-0.7,0.1-1-0.1l-0.1-0.1c-0.3-0.2-0.2-0.4-0.1-0.6c0.1-0.2,0.2-0.3,0-0.4c0,0-0.1,0-0.1,0c-0.3-0.1-0.1,0-0.5-0.1
						c-0.4-0.1-0.2-0.1-0.5-0.1c-0.3-0.1-0.4,0-0.6,0.2c-0.2,0.2-0.4,0.4-0.8,0.4l-0.2,0c-0.2,0-0.4-0.1-0.5-0.1
						c-0.1-0.1-0.2-0.2-0.3-0.3c-0.1-0.1-0.2-0.2-0.2-0.2c-0.1,0-0.2-0.1-0.3,0c-0.3,0.1-0.1,0-0.5,0.1c-0.4,0.1-0.3,0.1-0.5,0.1
						c-0.3,0.1-0.2,0.2-0.1,0.4c0.1,0.2,0.1,0.4-0.1,0.6l-0.2,0.1c-0.3,0.2-0.7,0.1-1,0.1c-0.4-0.1-0.6-0.1-0.7,0
						c-0.1,0.1,0,0-0.2,0.3c-0.2,0.2-0.1,0.1-0.2,0.3c-0.1,0.1,0,0.1,0,0.2c0.1,0,0.2,0.1,0.4,0.1c0.1,0,0.3,0.1,0.4,0.2
						c0.1,0.1,0.2,0.2,0.2,0.3l0,0.1c0,0.2-0.3,0.4-0.7,0.5c-0.4,0.1-0.5,0.2-0.5,0.3c0.1,0.2,0,0,0.2,0.3c0.2,0.3,0.1,0.1,0.2,0.3
						c0,0,0,0.1,0.1,0.1c0.1,0.1,0.3,0,0.6,0c0.4-0.1,0.8-0.1,1,0.1l0.1,0.1c0.3,0.2,0.2,0.4,0.1,0.6c-0.1,0.2-0.2,0.3-0.1,0.4
						c0,0,0.1,0,0.1,0c0.3,0.1,0.1,0,0.5,0.1c0.4,0.1,0.3,0.1,0.5,0.1c0.3,0.1,0.4,0,0.6-0.2c0.2-0.2,0.4-0.4,0.8-0.4l0.2,0
						c0.2,0,0.4,0.1,0.5,0.1c0.1,0.1,0.2,0.2,0.3,0.3c0.1,0.1,0.2,0.2,0.2,0.2c0.1,0,0.2,0.1,0.3,0c0.3-0.1,0.1,0,0.5-0.1
						c0.4-0.1,0.3-0.1,0.5-0.1c0.3-0.1,0.2-0.2,0.1-0.4c-0.1-0.2-0.1-0.4,0.1-0.6l0.2-0.1C494.7,149.2,495.1,149.2,495.5,149.3
						 M364.5,77.7l-0.3-3.3l6,0.3l0.1-0.6l-7.1-0.4l0.4,4L364.5,77.7"/>
				</g>
			</g>
			<g>
				<path class="st28" d="M493,146.9c0.6,0.3,0.7,0.8,0.4,1.3c-0.4,0.6-1.6,0.8-2.6,0.6c-0.2-0.1-0.4-0.1-0.6-0.2
					c-0.6-0.3-0.8-0.8-0.4-1.3c0.4-0.6,1.6-0.8,2.6-0.6C492.7,146.7,492.9,146.8,493,146.9z"/>
			</g>
			<g>
				<polygon class="st27" points="370.3,74.1 370.2,74.7 364.2,74.3 364.5,77.7 363.5,77.7 363.1,73.7 				"/>
			</g>
			<g>
				<path class="st6" d="M417.4,108.1c0,0.3-0.4,0.5-0.8,0.5c-0.2,0-0.4-0.1-0.6-0.1c-0.1-0.1-0.2-0.2-0.3-0.3l0-1.4
					c-0.8-0.1-1.5-0.3-2.1-0.7c-0.8-0.5-1.2-1.1-1.2-1.7c0-0.7,0.4-1.3,1.2-1.7c0.8-0.5,1.8-0.7,3-0.7c1.1,0,2.2,0.3,3,0.7
					c0.8,0.5,1.2,1.1,1.2,1.7c0,0.7-0.4,1.3-1.2,1.7c-0.6,0.3-1.3,0.6-2.1,0.7L417.4,108.1z M416.5,105.8c0.7,0,1.3-0.2,1.8-0.4
					c0.5-0.3,0.7-0.6,0.7-1c0-0.4-0.3-0.8-0.8-1c-0.5-0.3-1.1-0.4-1.8-0.4c-0.7,0-1.3,0.2-1.8,0.4c-0.5,0.3-0.7,0.6-0.7,1
					c0,0.4,0.3,0.8,0.8,1C415.2,105.6,415.8,105.8,416.5,105.8"/>
			</g>
			<g>
				<path class="st27" d="M418.3,103.3c0.5,0.3,0.7,0.6,0.8,1c0,0.4-0.3,0.8-0.7,1c-0.5,0.3-1.1,0.4-1.8,0.4c-0.7,0-1.3-0.2-1.8-0.4
					c-0.5-0.3-0.8-0.6-0.8-1c0-0.4,0.3-0.8,0.7-1c0.5-0.3,1.1-0.4,1.8-0.4C417.2,102.9,417.8,103,418.3,103.3z"/>
			</g>
			<g>
				<path class="st27" d="M486.2,138.3c0.7,0.4,0.7,1.1,0,1.5l-8.1,4.7c-0.7,0.4-1.9,0.4-2.6,0L372.9,85.4c-0.7-0.4-0.7-1.1,0-1.5
					l8.1-4.7c0.7-0.4,1.9-0.4,2.6,0L486.2,138.3z M416.5,108.6c0.5,0,0.8-0.2,0.8-0.5l0-1.3c0.8-0.1,1.5-0.3,2.1-0.7
					c0.8-0.5,1.2-1.1,1.2-1.7c0-0.6-0.4-1.3-1.2-1.7c-0.8-0.5-1.9-0.7-3-0.7c-1.1,0-2.2,0.3-3,0.7c-0.8,0.5-1.2,1.1-1.2,1.7
					c0,0.6,0.4,1.3,1.2,1.7c0.6,0.3,1.3,0.6,2.1,0.7l0,1.4c0,0.1,0.1,0.3,0.3,0.3C416.1,108.5,416.3,108.5,416.5,108.6 M444.3,121.2
					c0.4,0.2,1,0.2,1.4,0c0.4-0.2,0.4-0.6,0-0.8L427.8,110c-0.4-0.2-1-0.2-1.4,0c-0.4,0.2-0.4,0.6,0,0.8L444.3,121.2"/>
			</g>
		</g>
	</g>
	<g>
		<g class="st2">
			<path d="M158.2,239.1c0.2,0.1,0.2,0.3,0,0.4c-0.2,0.1-0.5,0.1-0.7,0l-11.6-6.7c-0.2-0.1-0.2-0.3,0-0.4c0.2-0.1,0.5-0.1,0.7,0
				L158.2,239.1z"/>
			<path d="M232.1,281.8c0.2,0.1,0.2,0.3,0,0.4c-0.2,0.1-0.5,0.1-0.7,0l-11.6-6.7c-0.2-0.1-0.2-0.3,0-0.4c0.2-0.1,0.5-0.1,0.7,0
				L232.1,281.8z"/>
			<path d="M256.8,296c0.2,0.1,0.2,0.3,0,0.4c-0.2,0.1-0.5,0.1-0.7,0l-11.6-6.7c-0.2-0.1-0.2-0.3,0-0.4c0.2-0.1,0.5-0.1,0.7,0
				L256.8,296z"/>
			<path d="M142.2,215.7l143.4,82.8l-14,8.2c-1.4,0.8-3.8,0.8-5.2,0l-138.1-79.8c-1.4-0.8-1.4-2.2,0-3L142.2,215.7z M182.1,253.7
				c0.2,0.1,0.5,0.1,0.7,0c0.2-0.1,0.2-0.3,0-0.4l-11.6-6.7c-0.2-0.1-0.5-0.1-0.7,0c-0.2,0.1-0.2,0.3,0,0.4L182.1,253.7
				 M256.1,296.4c0.2,0.1,0.5,0.1,0.7,0c0.2-0.1,0.2-0.3,0-0.4l-11.6-6.7c-0.2-0.1-0.5-0.1-0.7,0c-0.2,0.1-0.2,0.3,0,0.4
				L256.1,296.4 M231.4,282.2c0.2,0.1,0.5,0.1,0.7,0c0.2-0.1,0.2-0.3,0-0.4l-11.6-6.7c-0.2-0.1-0.5-0.1-0.7,0
				c-0.2,0.1-0.2,0.3,0,0.4L231.4,282.2 M206.8,267.9c0.2,0.1,0.5,0.1,0.7,0c0.2-0.1,0.2-0.3,0-0.4l-11.6-6.7
				c-0.2-0.1-0.5-0.1-0.7,0c-0.2,0.1-0.2,0.3,0,0.4L206.8,267.9 M157.5,239.5c0.2,0.1,0.5,0.1,0.7,0c0.2-0.1,0.2-0.3,0-0.4
				l-11.6-6.7c-0.2-0.1-0.5-0.1-0.7,0c-0.2,0.1-0.2,0.3,0,0.4L157.5,239.5"/>
			<path d="M182.8,253.3c0.2,0.1,0.2,0.3,0,0.4c-0.2,0.1-0.5,0.1-0.7,0l-11.6-6.7c-0.2-0.1-0.2-0.3,0-0.4c0.2-0.1,0.5-0.1,0.7,0
				L182.8,253.3z"/>
			<path d="M207.5,267.5c0.2,0.1,0.2,0.3,0,0.4c-0.2,0.1-0.5,0.1-0.7,0l-11.6-6.7c-0.2-0.1-0.2-0.3,0-0.4c0.2-0.1,0.5-0.1,0.7,0
				L207.5,267.5z"/>
		</g>
		<g>
			<g>
				<path class="st27" d="M148.2,219.1c0.2,0.1,0.2,0.3,0,0.4c-0.2,0.1-0.5,0.1-0.7,0l-11.6-6.7c-0.2-0.1-0.2-0.3,0-0.4
					c0.2-0.1,0.5-0.1,0.7,0L148.2,219.1z"/>
			</g>
			<g>
				<path class="st27" d="M222.1,261.8c0.2,0.1,0.2,0.3,0,0.4c-0.2,0.1-0.5,0.1-0.7,0l-11.6-6.7c-0.2-0.1-0.2-0.3,0-0.4
					c0.2-0.1,0.5-0.1,0.7,0L222.1,261.8z"/>
			</g>
			<g>
				<path class="st27" d="M246.8,276c0.2,0.1,0.2,0.3,0,0.4c-0.2,0.1-0.5,0.1-0.7,0l-11.6-6.7c-0.2-0.1-0.2-0.3,0-0.4
					c0.2-0.1,0.5-0.1,0.7,0L246.8,276z"/>
			</g>
			<g>
				<path class="st29" d="M132.2,195.7l143.4,82.8l-14,8.2c-1.4,0.8-3.8,0.8-5.2,0l-138.1-79.8c-1.4-0.8-1.4-2.2,0-3L132.2,195.7z
					 M172.1,233.7c0.2,0.1,0.5,0.1,0.7,0c0.2-0.1,0.2-0.3,0-0.4l-11.6-6.7c-0.2-0.1-0.5-0.1-0.7,0c-0.2,0.1-0.2,0.3,0,0.4
					L172.1,233.7 M246.1,276.4c0.2,0.1,0.5,0.1,0.7,0c0.2-0.1,0.2-0.3,0-0.4l-11.6-6.7c-0.2-0.1-0.5-0.1-0.7,0
					c-0.2,0.1-0.2,0.3,0,0.4L246.1,276.4 M221.4,262.2c0.2,0.1,0.5,0.1,0.7,0c0.2-0.1,0.2-0.3,0-0.4l-11.6-6.7
					c-0.2-0.1-0.5-0.1-0.7,0c-0.2,0.1-0.2,0.3,0,0.4L221.4,262.2 M196.8,247.9c0.2,0.1,0.5,0.1,0.7,0c0.2-0.1,0.2-0.3,0-0.4
					l-11.6-6.7c-0.2-0.1-0.5-0.1-0.7,0c-0.2,0.1-0.2,0.3,0,0.4L196.8,247.9 M147.5,219.5c0.2,0.1,0.5,0.1,0.7,0
					c0.2-0.1,0.2-0.3,0-0.4l-11.6-6.7c-0.2-0.1-0.5-0.1-0.7,0c-0.2,0.1-0.2,0.3,0,0.4L147.5,219.5"/>
			</g>
			<g>
				<path class="st27" d="M172.8,233.3c0.2,0.1,0.2,0.3,0,0.4c-0.2,0.1-0.5,0.1-0.7,0l-11.6-6.7c-0.2-0.1-0.2-0.3,0-0.4
					c0.2-0.1,0.5-0.1,0.7,0L172.8,233.3z"/>
			</g>
			<g>
				<path class="st27" d="M197.5,247.5c0.2,0.1,0.2,0.3,0,0.4c-0.2,0.1-0.5,0.1-0.7,0l-11.6-6.7c-0.2-0.1-0.2-0.3,0-0.4
					c0.2-0.1,0.5-0.1,0.7,0L197.5,247.5z"/>
			</g>
		</g>
	</g>
	<g>
		<g class="st2">
			<path d="M268.7,161.5l143.4,82.8l-81.3,47.3l-143.4-82.8L268.7,161.5z M275.9,182.7c-0.8-0.5-2.1-0.5-2.8,0
				c-0.8,0.5-0.8,1.2,0,1.6l82.9,47.8c0.8,0.5,2,0.5,2.8,0c0.8-0.5,0.8-1.2,0-1.6L275.9,182.7 M266.5,186.6c-0.8,0.5-0.8,1.2,0,1.6
				l62.1,35.9c0.8,0.5,2.1,0.5,2.8,0c0.8-0.4,0.8-1.2,0-1.6l-62.1-35.9C268.5,186.1,267.2,186.1,266.5,186.6 M354,252.5
				c0.4,0.2,1,0.2,1.4,0c0.4-0.2,0.4-0.6,0-0.8L256,194.3c-0.4-0.2-1-0.2-1.4,0c-0.4,0.2-0.4,0.6,0,0.8L354,252.5 M324.7,240.7
				c0.4,0.2,1,0.2,1.4,0c0.4-0.2,0.4-0.6,0-0.8l-74.6-43.1c-0.4-0.2-1-0.2-1.4,0c-0.4,0.2-0.4,0.6,0,0.8L324.7,240.7 M334.9,235.6
				c0.4-0.2,0.4-0.6,0-0.8l-74.6-43.1c-0.4-0.2-1-0.2-1.4,0c-0.4,0.2-0.4,0.6,0,0.8l74.6,43.1C333.9,235.8,334.5,235.8,334.9,235.6"
				/>
			<path d="M331.4,222.4c0.8,0.5,0.8,1.2,0,1.6c-0.8,0.5-2.1,0.5-2.8,0l-62.1-35.9c-0.8-0.5-0.8-1.2,0-1.6c0.8-0.4,2-0.4,2.8,0
				L331.4,222.4z"/>
			<path d="M358.7,230.6c0.8,0.5,0.8,1.2,0,1.6s-2,0.5-2.8,0l-82.9-47.8c-0.8-0.5-0.8-1.2,0-1.6s2-0.4,2.8,0L358.7,230.6z"/>
			<path d="M334.9,234.8c0.4,0.2,0.4,0.6,0,0.8c-0.4,0.2-1,0.2-1.4,0L259,192.6c-0.4-0.2-0.4-0.6,0-0.8c0.4-0.2,1-0.2,1.4,0
				L334.9,234.8z"/>
			<path d="M326.1,239.9c0.4,0.2,0.4,0.6,0,0.8c-0.4,0.2-1,0.2-1.4,0l-74.6-43.1c-0.4-0.2-0.4-0.6,0-0.8c0.4-0.2,1-0.2,1.4,0
				L326.1,239.9z"/>
			<path d="M355.4,251.7c0.4,0.2,0.4,0.6,0,0.8c-0.4,0.2-1,0.2-1.4,0l-99.4-57.4c-0.4-0.2-0.4-0.6,0-0.8c0.4-0.2,1-0.2,1.4,0
				L355.4,251.7z"/>
		</g>
		<g>
			<g>
				<path class="st30" d="M258.7,141.5l143.4,82.8l-81.3,47.3l-143.4-82.8L258.7,141.5z M265.9,162.7c-0.8-0.5-2.1-0.5-2.8,0
					c-0.8,0.5-0.8,1.2,0,1.6l82.9,47.8c0.8,0.5,2,0.5,2.8,0c0.8-0.5,0.8-1.2,0-1.6L265.9,162.7 M256.5,166.6c-0.8,0.5-0.8,1.2,0,1.6
					l62.1,35.9c0.8,0.5,2.1,0.5,2.8,0c0.8-0.4,0.8-1.2,0-1.6l-62.1-35.9C258.5,166.1,257.2,166.1,256.5,166.6 M344,232.5
					c0.4,0.2,1,0.2,1.4,0c0.4-0.2,0.4-0.6,0-0.8L246,174.3c-0.4-0.2-1-0.2-1.4,0c-0.4,0.2-0.4,0.6,0,0.8L344,232.5 M314.7,220.7
					c0.4,0.2,1,0.2,1.4,0c0.4-0.2,0.4-0.6,0-0.8l-74.6-43.1c-0.4-0.2-1-0.2-1.4,0c-0.4,0.2-0.4,0.6,0,0.8L314.7,220.7 M324.9,215.6
					c0.4-0.2,0.4-0.6,0-0.8l-74.6-43.1c-0.4-0.2-1-0.2-1.4,0c-0.4,0.2-0.4,0.6,0,0.8l74.6,43.1C323.9,215.8,324.5,215.8,324.9,215.6
					"/>
			</g>
			<g class="st10">
				<g>
					<path class="st31" d="M321.4,202.4c0.8,0.5,0.8,1.2,0,1.6c-0.8,0.5-2.1,0.5-2.8,0l-62.1-35.9c-0.8-0.5-0.8-1.2,0-1.6
						c0.8-0.4,2-0.4,2.8,0L321.4,202.4z"/>
				</g>
				<g>
					<path class="st31" d="M348.7,210.6c0.8,0.5,0.8,1.2,0,1.6s-2,0.5-2.8,0l-82.9-47.8c-0.8-0.5-0.8-1.2,0-1.6s2-0.4,2.8,0
						L348.7,210.6z"/>
				</g>
				<g>
					<path class="st6" d="M324.9,214.8c0.4,0.2,0.4,0.6,0,0.8c-0.4,0.2-1,0.2-1.4,0L249,172.6c-0.4-0.2-0.4-0.6,0-0.8
						c0.4-0.2,1-0.2,1.4,0L324.9,214.8z"/>
				</g>
				<g>
					<path class="st6" d="M316.1,219.9c0.4,0.2,0.4,0.6,0,0.8c-0.4,0.2-1,0.2-1.4,0l-74.6-43.1c-0.4-0.2-0.4-0.6,0-0.8
						c0.4-0.2,1-0.2,1.4,0L316.1,219.9z"/>
				</g>
				<g>
					<path class="st6" d="M345.4,231.7c0.4,0.2,0.4,0.6,0,0.8c-0.4,0.2-1,0.2-1.4,0l-99.4-57.4c-0.4-0.2-0.4-0.6,0-0.8
						c0.4-0.2,1-0.2,1.4,0L345.4,231.7z"/>
				</g>
			</g>
		</g>
	</g>
	<g>
		<g class="st2">
			<path d="M193.2,189.6c1.1,0.6,1.3,1.3,0.3,1.9c-1,0.6-2.3,0.5-3.4-0.2c-0.3-0.2-0.6-0.4-0.7-0.5l2.9-1.7
				C192.5,189.2,192.8,189.4,193.2,189.6z"/>
			<path d="M195.4,190.7c0.1,0.4-0.2,0.9-0.9,1.3c-0.7,0.4-1.4,0.6-2.2,0.6c-1,0-2.2-0.3-3.1-0.8c-0.3-0.2-0.5-0.3-0.7-0.5l-3,1.7
				l-1-0.6l7.3-4.2c0.5,0.2,1.2,0.5,2,1C194.9,189.7,195.4,190.3,195.4,190.7z M190.1,191.3c1.2,0.7,2.4,0.8,3.4,0.2
				c1-0.6,0.8-1.2-0.3-1.9c-0.4-0.2-0.8-0.4-1-0.5l-2.9,1.7C189.5,191,189.8,191.1,190.1,191.3"/>
			<path d="M220.9,204.8l-6.8,1l-3.1,1.8l-1-0.6l3.1-1.8l1.9-3.8l1.1,0.6l-1,1.8c-0.3,0.5-0.5,0.9-0.8,1.3l0,0
				c0.7-0.2,1.4-0.3,2.3-0.5l3.1-0.6L220.9,204.8z"/>
			<path d="M206.6,196.5l-4.9,5.8l-1-0.6l1.5-1.8l-2.6-1.5l-3.1,0.9l-1-0.6l9.9-2.8L206.6,196.5z M200.5,198l2.2,1.3l1.4-1.7
				c0.3-0.4,0.6-0.7,1-1l0,0c-0.5,0.2-1.1,0.4-1.7,0.6L200.5,198"/>
			<path d="M205.2,196.7c-0.3,0.3-0.7,0.6-1,1l-1.4,1.7l-2.2-1.3l2.9-0.8C204,197,204.6,196.9,205.2,196.7L205.2,196.7z"/>
			<path d="M258.2,220.2c1.6,0.9,1.6,2.4,0,3.3l-10.8,6.3c-1.6,0.9-4.1,0.9-5.7,0L148,175.6c-1.6-0.9-1.6-2.4,0-3.3l10.8-6.3
				c1.6-0.9,4.1-0.9,5.7,0L258.2,220.2z M200.7,201.7l1,0.6l4.9-5.8l-1.2-0.7l-9.9,2.8l1,0.6l3.1-0.9l2.6,1.5L200.7,201.7
				 M214.1,205.8l6.8-1l-1.1-0.6l-3.1,0.6c-0.8,0.2-1.6,0.3-2.3,0.5l0,0c0.3-0.4,0.5-0.8,0.8-1.3l1-1.8l-1.1-0.6l-1.9,3.8l-3.1,1.8
				l1,0.6L214.1,205.8 M192.4,192.6c0.8,0,1.5-0.2,2.2-0.6c0.7-0.4,1-0.8,0.9-1.3c0-0.5-0.5-1-1.5-1.6c-0.8-0.4-1.4-0.8-2-1
				l-7.3,4.2l1,0.6l3-1.7c0.2,0.2,0.4,0.3,0.7,0.5C190.2,192.3,191.3,192.6,192.4,192.6"/>
		</g>
		<g>
			<g class="st10">
				<g>
					<path class="st31" d="M183.2,169.6c1.1,0.6,1.3,1.3,0.3,1.9c-1,0.6-2.3,0.5-3.4-0.2c-0.3-0.2-0.6-0.4-0.7-0.5l2.9-1.7
						C182.5,169.2,182.8,169.4,183.2,169.6z"/>
				</g>
				<g>
					<path class="st27" d="M185.4,170.7c0.1,0.4-0.2,0.9-0.9,1.3c-0.7,0.4-1.4,0.6-2.2,0.6c-1,0-2.2-0.3-3.1-0.8
						c-0.3-0.2-0.5-0.3-0.7-0.5l-3,1.7l-1-0.6l7.3-4.2c0.5,0.2,1.2,0.5,2,1C184.9,169.7,185.4,170.3,185.4,170.7z M180.1,171.3
						c1.2,0.7,2.4,0.8,3.4,0.2c1-0.6,0.8-1.2-0.3-1.9c-0.4-0.2-0.8-0.4-1-0.5l-2.9,1.7C179.5,171,179.8,171.1,180.1,171.3"/>
				</g>
			</g>
			<g>
				<path class="st27" d="M210.9,184.8l-6.8,1l-3.1,1.8l-1-0.6l3.1-1.8l1.9-3.8l1.1,0.6l-1,1.8c-0.3,0.5-0.5,0.9-0.8,1.3l0,0
					c0.7-0.2,1.4-0.3,2.3-0.5l3.1-0.6L210.9,184.8z"/>
			</g>
			<g>
				<path class="st27" d="M196.6,176.5l-4.9,5.8l-1-0.6l1.5-1.8l-2.6-1.5l-3.1,0.9l-1-0.6l9.9-2.8L196.6,176.5z M190.5,178l2.2,1.3
					l1.4-1.7c0.3-0.4,0.6-0.7,1-1l0,0c-0.5,0.2-1.1,0.4-1.7,0.6L190.5,178"/>
			</g>
			<g>
				<path class="st31" d="M195.2,176.7c-0.3,0.3-0.7,0.6-1,1l-1.4,1.7l-2.2-1.3l2.9-0.8C194,177,194.6,176.9,195.2,176.7
					L195.2,176.7z"/>
			</g>
			<g>
				<path class="st31" d="M248.2,200.2c1.6,0.9,1.6,2.4,0,3.3l-10.8,6.3c-1.6,0.9-4.1,0.9-5.7,0L138,155.6c-1.6-0.9-1.6-2.4,0-3.3
					l10.8-6.3c1.6-0.9,4.1-0.9,5.7,0L248.2,200.2z M190.7,181.7l1,0.6l4.9-5.8l-1.2-0.7l-9.9,2.8l1,0.6l3.1-0.9l2.6,1.5L190.7,181.7
					 M204.1,185.8l6.8-1l-1.1-0.6l-3.1,0.6c-0.8,0.2-1.6,0.3-2.3,0.5l0,0c0.3-0.4,0.5-0.8,0.8-1.3l1-1.8l-1.1-0.6l-1.9,3.8l-3.1,1.8
					l1,0.6L204.1,185.8 M182.4,172.6c0.8,0,1.5-0.2,2.2-0.6c0.7-0.4,1-0.8,0.9-1.3c0-0.5-0.5-1-1.5-1.6c-0.8-0.4-1.4-0.8-2-1
					l-7.3,4.2l1,0.6l3-1.7c0.2,0.2,0.4,0.3,0.7,0.5C180.2,172.3,181.3,172.6,182.4,172.6"/>
			</g>
		</g>
	</g>
	<g>
		<g class="st2">
			<path d="M291.8,119.8C291.8,119.8,291.8,119.8,291.8,119.8c0.4,0.2,0.4,0.6,0,0.8c-0.4,0.2-1,0.2-1.4,0c0,0,0,0,0,0l-6.6-3.8
				c0,0,0,0,0,0c-0.4-0.2-0.4-0.6,0-0.8c0.4-0.2,1-0.2,1.4,0c0,0,0,0,0,0L291.8,119.8z"/>
			<path d="M315.6,92.6c0.4,0.2,0.4,0.6,0,0.8s-1,0.2-1.4,0l-5.7-3.3c-1.2-0.7-3.1-0.8-4.5-0.3l-32.2,11.7c-3.2,0.2-6.4,1.1-8.8,2.5
				c-0.2,0.1-0.5,0.3-0.7,0.4c-0.1,0-0.1-0.1-0.2-0.1c-0.3-0.3-0.1-0.6,0.3-0.8l40.5-14.7c2.2-0.8,5.1-0.6,7,0.5L315.6,92.6z"/>
			<path d="M304,70.5l-74.1,43.1l-13.4-7.7c-1.3-0.7-1.3-2,0-2.7l1.8-1l65.9-38.3l1.8-1c1.3-0.7,3.4-0.7,4.7,0L304,70.5z"/>
			<path d="M337.8,105.4c1.9,1.1,2.2,2.8,0.8,4.1L313.4,133c-0.3,0.3-0.9,0.4-1.4,0.2c-0.1,0-0.1-0.1-0.2-0.1
				c0.2-0.1,0.5-0.3,0.7-0.4c2.5-1.4,3.9-3.2,4.3-5.1l20-18.7c0.9-0.8,0.7-1.9-0.5-2.6l-5.7-3.3c-0.4-0.2-0.4-0.6,0-0.8s1-0.2,1.4,0
				L337.8,105.4z"/>
			<path d="M316.9,127.5c-0.4,1.9-1.8,3.7-4.3,5.1c-0.2,0.1-0.5,0.3-0.7,0.4c-5.9,3-15,2.9-20.7-0.4c-5.7-3.3-6-8.6-0.7-12
				c0.4,0.2,1,0.2,1.4,0c0.4-0.2,0.4-0.6,0-0.8c5.9-3,15-2.9,20.7,0.4C316,122.2,317.4,124.9,316.9,127.5z M309.4,131.6
				c0.4,0.2,1,0.2,1.4,0c4.9-2.9,4.9-7.5-0.1-10.4c-0.4-0.2-1-0.2-1.4,0c-0.4,0.2-0.4,0.6,0,0.8c2.1,1.2,3.1,2.8,3.2,4.4
				s-1,3.2-3.1,4.4C309,131.1,309,131.4,309.4,131.6"/>
			<path d="M371.8,104.9c1.4,0.8,1.5,2.2,0,3l-1.5,0.9l-74.1,43.1l-1.5,0.9c-1.4,0.8-3.8,0.8-5.2,0l-61.1-35.3c-1.4-0.8-1.4-2.2,0-3
				l1.5-0.9L304,70.5l1.5-0.9c1.4-0.8,3.8-0.8,5.2,0L371.8,104.9z M312.1,133.2c0.5,0.2,1.1,0.1,1.4-0.2l25.2-23.5
				c1.4-1.3,1-3-0.8-4.1l-5.7-3.3c-0.4-0.2-1-0.2-1.4,0c-0.4,0.2-0.4,0.6,0,0.8l5.7,3.3c1.2,0.7,1.4,1.8,0.5,2.6l-20,18.7
				c0.5-2.6-0.9-5.3-4.4-7.3c-5.7-3.3-14.8-3.4-20.7-0.4l-6.7-3.8c5.2-3.5,4.9-8.7-0.8-12c-3.5-2-8.2-2.8-12.6-2.5l32.2-11.7
				c1.4-0.5,3.3-0.4,4.5,0.3l5.7,3.3c0.4,0.2,1,0.2,1.4,0c0.4-0.2,0.4-0.6,0-0.8l-5.7-3.3c-1.9-1.1-4.8-1.3-7-0.5l-40.5,14.7
				c-0.5,0.2-0.6,0.5-0.3,0.8c0,0,0.1,0.1,0.1,0.1c-5.2,3.5-4.9,8.7,0.8,12c5.7,3.3,14.8,3.4,20.7,0.4l6.7,3.8
				c-5.2,3.5-4.9,8.7,0.8,12c5.7,3.3,14.8,3.4,20.7,0.4C311.9,133.1,312,133.1,312.1,133.2"/>
			<path d="M283.7,116c-0.4,0.2-0.4,0.6,0,0.8c-5.9,3-15,2.9-20.7-0.4c-5.7-3.3-6-8.6-0.7-12c0.2-0.1,0.4-0.3,0.7-0.4
				c2.5-1.4,5.6-2.3,8.8-2.5c4.5-0.3,9.2,0.5,12.6,2.5c5.7,3.3,6,8.6,0.8,12C284.7,115.8,284.1,115.8,283.7,116z M281.2,115.4
				c0.4,0.2,1,0.2,1.4,0c4.9-2.9,4.9-7.5-0.1-10.4c-0.4-0.2-1-0.2-1.4,0c-0.4,0.2-0.4,0.6,0,0.8c2.1,1.2,3.1,2.8,3.2,4.4
				c0,1.6-1,3.2-3.1,4.4C280.8,114.8,280.8,115.2,281.2,115.4"/>
			<path d="M282.6,105c5,2.9,5,7.5,0.1,10.4c-0.4,0.2-1,0.2-1.4,0c-0.4-0.2-0.4-0.6,0-0.8c2.1-1.2,3.1-2.8,3.1-4.4
				c0-1.6-1.1-3.2-3.2-4.4c-0.4-0.2-0.4-0.6,0-0.8C281.6,104.8,282.2,104.8,282.6,105z"/>
			<path d="M240.7,134.1c0.9,0.5,0.9,1.4,0,1.9c-0.9,0.5-2.4,0.5-3.3,0c-0.9-0.5-0.9-1.4,0-1.9C238.3,133.6,239.8,133.6,240.7,134.1
				z"/>
			<path d="M245.7,137c0.9,0.5,0.9,1.4,0,1.9c-0.9,0.5-2.4,0.5-3.3,0c-0.9-0.5-0.9-1.4,0-1.9C243.3,136.4,244.8,136.4,245.7,137z"/>
			<path d="M250.7,139.9c0.9,0.5,0.9,1.4,0,1.9c-0.9,0.5-2.4,0.5-3.3,0c-0.9-0.5-0.9-1.4,0-1.9C248.3,139.3,249.8,139.3,250.7,139.9
				z"/>
			<path d="M260.7,145.6c0.9,0.5,0.9,1.4,0,1.9c-0.9,0.5-2.4,0.5-3.3,0c-0.9-0.5-0.9-1.4,0-1.9C258.3,145.1,259.7,145.1,260.7,145.6
				z"/>
			<path d="M384.9,117.2c1.3,0.7,1.3,2,0,2.7l-1.8,1l-65.9,38.3l-1.8,1c-1.3,0.7-3.4,0.7-4.7,0l-14.6-8.5l74.1-43.1L384.9,117.2z"/>
			<path d="M390.2,125c1.1,0.7,1.2,1.7,0,2.4l-61.7,35.9c-1.1,0.7-3,0.7-4.1,0l-7-4.1l65.9-38.3L390.2,125z"/>
			<path d="M286.4,36l143.4,82.8l-127.6,74.1l-143.4-82.8L286.4,36z M328.5,163.3l61.7-35.9c1.1-0.7,1.1-1.7,0-2.4l-7-4.1l1.8-1
				c1.3-0.7,1.3-2,0-2.7l-14.6-8.5l1.5-0.9c1.4-0.8,1.4-2.2,0-3l-61.1-35.3c-1.4-0.8-3.8-0.8-5.2,0l-1.5,0.9l-13.4-7.7
				c-1.3-0.7-3.4-0.7-4.7,0l-1.8,1l-7-4.1c-1.1-0.7-3-0.7-4.1,0l-61.7,35.9c-1.1,0.7-1.1,1.7,0,2.4l7,4.1l-1.8,1
				c-1.3,0.7-1.3,2,0,2.7l13.4,7.7l-1.5,0.9c-1.4,0.8-1.4,2.2,0,3l61.1,35.3c1.4,0.8,3.8,0.8,5.2,0l1.5-0.9l14.6,8.5
				c1.3,0.7,3.4,0.7,4.7,0l1.8-1l7,4.1C325.5,164,327.3,164,328.5,163.3 M247.4,141.8c0.9,0.5,2.4,0.5,3.3,0c0.9-0.5,0.9-1.4,0-1.9
				c-0.9-0.5-2.4-0.5-3.3,0C246.5,140.4,246.5,141.3,247.4,141.8 M252.4,144.7c0.9,0.5,2.4,0.5,3.3,0c0.9-0.5,0.9-1.4,0-1.9
				c-0.9-0.5-2.4-0.5-3.3,0S251.5,144.1,252.4,144.7 M257.4,147.5c0.9,0.5,2.4,0.5,3.3,0s0.9-1.4,0-1.9c-0.9-0.5-2.4-0.5-3.3,0
				C256.5,146.1,256.5,147,257.4,147.5 M242.4,138.9c0.9,0.5,2.4,0.5,3.3,0c0.9-0.5,0.9-1.4,0-1.9c-0.9-0.5-2.4-0.5-3.3,0
				C241.5,137.5,241.5,138.3,242.4,138.9 M237.4,136c0.9,0.5,2.4,0.5,3.3,0c0.9-0.5,0.9-1.4,0-1.9c-0.9-0.5-2.4-0.5-3.3,0
				C236.5,134.6,236.5,135.5,237.4,136"/>
			<path d="M284.1,63.8l-65.9,38.3l-7-4.1c-1.1-0.7-1.2-1.7,0-2.4l61.7-35.9c1.1-0.7,3-0.7,4.1,0L284.1,63.8z"/>
			<path d="M310.8,121.3c5,2.9,5,7.5,0.1,10.4c-0.4,0.2-1,0.2-1.4,0c-0.4-0.2-0.4-0.6,0-0.8c2.1-1.2,3.1-2.8,3.1-4.4
				c0-1.6-1.1-3.2-3.2-4.4c-0.4-0.2-0.4-0.6,0-0.8C309.7,121,310.4,121,310.8,121.3z"/>
			<path d="M255.7,142.7c0.9,0.5,0.9,1.4,0,1.9c-0.9,0.5-2.4,0.5-3.3,0c-0.9-0.5-0.9-1.4,0-1.9C253.3,142.2,254.8,142.2,255.7,142.7
				z"/>
		</g>
		<g>
			<g>
				<path class="st3" d="M281.8,99.8C281.8,99.8,281.8,99.8,281.8,99.8c0.4,0.2,0.4,0.6,0,0.8c-0.4,0.2-1,0.2-1.4,0c0,0,0,0,0,0
					l-6.6-3.8c0,0,0,0,0,0c-0.4-0.2-0.4-0.6,0-0.8c0.4-0.2,1-0.2,1.4,0c0,0,0,0,0,0L281.8,99.8z"/>
			</g>
			<g class="st10">
				<g>
					<path class="st3" d="M305.6,72.6c0.4,0.2,0.4,0.6,0,0.8s-1,0.2-1.4,0l-5.7-3.3c-1.2-0.7-3.1-0.8-4.5-0.3l-32.2,11.7
						c-3.2,0.2-6.4,1.1-8.8,2.5c-0.2,0.1-0.5,0.3-0.7,0.4c-0.1,0-0.1-0.1-0.2-0.1c-0.3-0.3-0.1-0.6,0.3-0.8l40.5-14.7
						c2.2-0.8,5.1-0.6,7,0.5L305.6,72.6z"/>
				</g>
				<g>
					<path class="st32" d="M294,50.5l-74.1,43.1l-13.4-7.7c-1.3-0.7-1.3-2,0-2.7l1.8-1l65.9-38.3l1.8-1c1.3-0.7,3.4-0.7,4.7,0
						L294,50.5z"/>
				</g>
				<g>
					<path class="st3" d="M327.8,85.4c1.9,1.1,2.2,2.8,0.8,4.1L303.4,113c-0.3,0.3-0.9,0.4-1.4,0.2c-0.1,0-0.1-0.1-0.2-0.1
						c0.2-0.1,0.5-0.3,0.7-0.4c2.5-1.4,3.9-3.2,4.3-5.1l20-18.7c0.9-0.8,0.7-1.9-0.5-2.6l-5.7-3.3c-0.4-0.2-0.4-0.6,0-0.8
						s1-0.2,1.4,0L327.8,85.4z"/>
				</g>
				<g>
					<path class="st33" d="M306.9,107.5c-0.4,1.9-1.8,3.7-4.3,5.1c-0.2,0.1-0.5,0.3-0.7,0.4c-5.9,3-15,2.9-20.7-0.4
						c-5.7-3.3-6-8.6-0.7-12c0.4,0.2,1,0.2,1.4,0c0.4-0.2,0.4-0.6,0-0.8c5.9-3,15-2.9,20.7,0.4C306,102.2,307.4,104.9,306.9,107.5z
						 M299.4,111.6c0.4,0.2,1,0.2,1.4,0c4.9-2.9,4.9-7.5-0.1-10.4c-0.4-0.2-1-0.2-1.4,0c-0.4,0.2-0.4,0.6,0,0.8
						c2.1,1.2,3.1,2.8,3.2,4.4c0,1.6-1,3.2-3.1,4.4C299,111.1,299,111.4,299.4,111.6"/>
				</g>
				<g>
					<path class="st34" d="M361.8,84.9c1.4,0.8,1.5,2.2,0,3l-1.5,0.9l-74.1,43.1l-1.5,0.9c-1.4,0.8-3.8,0.8-5.2,0l-61.1-35.3
						c-1.4-0.8-1.4-2.2,0-3l1.5-0.9L294,50.5l1.5-0.9c1.4-0.8,3.8-0.8,5.2,0L361.8,84.9z M302.1,113.2c0.5,0.2,1.1,0.1,1.4-0.2
						l25.2-23.5c1.4-1.3,1-3-0.8-4.1l-5.7-3.3c-0.4-0.2-1-0.2-1.4,0c-0.4,0.2-0.4,0.6,0,0.8l5.7,3.3c1.2,0.7,1.4,1.8,0.5,2.6
						l-20,18.7c0.5-2.6-0.9-5.3-4.4-7.3c-5.7-3.3-14.8-3.4-20.7-0.4l-6.7-3.8c5.2-3.5,4.9-8.7-0.8-12c-3.5-2-8.2-2.8-12.6-2.5
						l32.2-11.7c1.4-0.5,3.3-0.4,4.5,0.3l5.7,3.3c0.4,0.2,1,0.2,1.4,0c0.4-0.2,0.4-0.6,0-0.8l-5.7-3.3c-1.9-1.1-4.8-1.3-7-0.5
						l-40.5,14.7c-0.5,0.2-0.6,0.5-0.3,0.8c0,0,0.1,0.1,0.1,0.1c-5.2,3.5-4.9,8.7,0.8,12c5.7,3.3,14.8,3.4,20.7,0.4l6.7,3.8
						c-5.2,3.5-4.9,8.7,0.8,12c5.7,3.3,14.8,3.4,20.7,0.4C301.9,113.1,302,113.1,302.1,113.2"/>
				</g>
				<g>
					<path class="st33" d="M273.7,96c-0.4,0.2-0.4,0.6,0,0.8c-5.9,3-15,2.9-20.7-0.4c-5.7-3.3-6-8.6-0.7-12c0.2-0.1,0.4-0.3,0.7-0.4
						c2.5-1.4,5.6-2.3,8.8-2.5c4.5-0.3,9.2,0.5,12.6,2.5c5.7,3.3,6,8.6,0.8,12C274.7,95.8,274.1,95.8,273.7,96z M271.2,95.4
						c0.4,0.2,1,0.2,1.4,0c4.9-2.9,4.9-7.5-0.1-10.4c-0.4-0.2-1-0.2-1.4,0c-0.4,0.2-0.4,0.6,0,0.8c2.1,1.2,3.1,2.8,3.2,4.4
						c0,1.6-1,3.2-3.1,4.4C270.8,94.8,270.8,95.2,271.2,95.4"/>
				</g>
				<g>
					<path class="st27" d="M272.6,85c5,2.9,5,7.5,0.1,10.4c-0.4,0.2-1,0.2-1.4,0c-0.4-0.2-0.4-0.6,0-0.8c2.1-1.2,3.1-2.8,3.1-4.4
						c0-1.6-1.1-3.2-3.2-4.4c-0.4-0.2-0.4-0.6,0-0.8C271.6,84.8,272.2,84.8,272.6,85z"/>
				</g>
				<g>
					<path class="st33" d="M230.7,114.1c0.9,0.5,0.9,1.4,0,1.9s-2.4,0.5-3.3,0c-0.9-0.5-0.9-1.4,0-1.9
						C228.3,113.6,229.8,113.6,230.7,114.1z"/>
				</g>
				<g>
					<path class="st34" d="M235.7,117c0.9,0.5,0.9,1.4,0,1.9s-2.4,0.5-3.3,0c-0.9-0.5-0.9-1.4,0-1.9S234.8,116.4,235.7,117z"/>
				</g>
				<g>
					<path class="st34" d="M240.7,119.9c0.9,0.5,0.9,1.4,0,1.9c-0.9,0.5-2.4,0.5-3.3,0c-0.9-0.5-0.9-1.4,0-1.9
						C238.3,119.3,239.8,119.3,240.7,119.9z"/>
				</g>
				<g>
					<path class="st34" d="M250.7,125.6c0.9,0.5,0.9,1.4,0,1.9c-0.9,0.5-2.4,0.5-3.3,0c-0.9-0.5-0.9-1.4,0-1.9
						C248.3,125.1,249.7,125.1,250.7,125.6z"/>
				</g>
				<g>
					<path class="st32" d="M374.9,97.2c1.3,0.7,1.3,2,0,2.7l-1.8,1l-65.9,38.3l-1.8,1c-1.3,0.7-3.4,0.7-4.7,0l-14.6-8.5l74.1-43.1
						L374.9,97.2z"/>
				</g>
				<g>
					<path class="st30" d="M380.2,105c1.1,0.7,1.2,1.7,0,2.4l-61.7,35.9c-1.1,0.7-3,0.7-4.1,0l-7-4.1l65.9-38.3L380.2,105z"/>
				</g>
				<g>
					<path class="st27" d="M276.4,16l143.4,82.8l-127.6,74.1L148.9,90.2L276.4,16z M318.5,143.3l61.7-35.9c1.1-0.7,1.1-1.7,0-2.4
						l-7-4.1l1.8-1c1.3-0.7,1.3-2,0-2.7l-14.6-8.5l1.5-0.9c1.4-0.8,1.4-2.2,0-3l-61.1-35.3c-1.4-0.8-3.8-0.8-5.2,0l-1.5,0.9
						l-13.4-7.7c-1.3-0.7-3.4-0.7-4.7,0l-1.8,1l-7-4.1c-1.1-0.7-3-0.7-4.1,0l-61.7,35.9c-1.1,0.7-1.1,1.7,0,2.4l7,4.1l-1.8,1
						c-1.3,0.7-1.3,2,0,2.7l13.4,7.7l-1.5,0.9c-1.4,0.8-1.4,2.2,0,3l61.1,35.3c1.4,0.8,3.8,0.8,5.2,0l1.5-0.9l14.6,8.5
						c1.3,0.7,3.4,0.7,4.7,0l1.8-1l7,4.1C315.5,144,317.3,144,318.5,143.3 M237.4,121.8c0.9,0.5,2.4,0.5,3.3,0s0.9-1.4,0-1.9
						c-0.9-0.5-2.4-0.5-3.3,0S236.5,121.3,237.4,121.8 M242.4,124.7c0.9,0.5,2.4,0.5,3.3,0s0.9-1.4,0-1.9c-0.9-0.5-2.4-0.5-3.3,0
						S241.5,124.1,242.4,124.7 M247.4,127.5c0.9,0.5,2.4,0.5,3.3,0c0.9-0.5,0.9-1.4,0-1.9c-0.9-0.5-2.4-0.5-3.3,0
						C246.5,126.1,246.5,127,247.4,127.5 M232.4,118.9c0.9,0.5,2.4,0.5,3.3,0c0.9-0.5,0.9-1.4,0-1.9c-0.9-0.5-2.4-0.5-3.3,0
						C231.5,117.5,231.5,118.3,232.4,118.9 M227.4,116c0.9,0.5,2.4,0.5,3.3,0c0.9-0.5,0.9-1.4,0-1.9c-0.9-0.5-2.4-0.5-3.3,0
						C226.5,114.6,226.5,115.5,227.4,116"/>
				</g>
				<g>
					<path class="st30" d="M274.1,43.8l-65.9,38.3l-7-4.1c-1.1-0.7-1.2-1.7,0-2.4l61.7-35.9c1.1-0.7,3-0.7,4.1,0L274.1,43.8z"/>
				</g>
				<g>
					<path class="st27" d="M300.8,101.3c5,2.9,5,7.5,0.1,10.4c-0.4,0.2-1,0.2-1.4,0c-0.4-0.2-0.4-0.6,0-0.8c2.1-1.2,3.1-2.8,3.1-4.4
						c0-1.6-1.1-3.2-3.2-4.4c-0.4-0.2-0.4-0.6,0-0.8C299.7,101,300.4,101,300.8,101.3z"/>
				</g>
			</g>
			<g>
				<path class="st34" d="M245.7,122.7c0.9,0.5,0.9,1.4,0,1.9c-0.9,0.5-2.4,0.5-3.3,0c-0.9-0.5-0.9-1.4,0-1.9
					C243.3,122.2,244.8,122.2,245.7,122.7z"/>
			</g>
		</g>
	</g>
</g>
</svg>
