<?xml version="1.0" encoding="utf-8"?>
<!-- Generator: Adobe Illustrator 22.1.0, SVG Export Plug-In . SVG Version: 6.00 Build 0)  -->
<svg version="1.1" id="Layer_1" xmlns="http://www.w3.org/2000/svg" xmlns:xlink="http://www.w3.org/1999/xlink" x="0px" y="0px"
	 viewBox="0 0 600 600" style="enable-background:new 0 0 600 600;" xml:space="preserve">
<style type="text/css">
	.st0{fill:#707070;}
	.st1{fill:#486CC2;}
	.st2{fill:#537EE1;}
	.st3{fill:#4365B5;}
	.st4{fill:url(#SVGID_1_);}
	.st5{fill:#919191;}
	.st6{fill:#96063F;}
	.st7{fill:#CC0856;}
	.st8{fill:#800536;}
	.st9{fill:url(#SVGID_2_);}
	.st10{fill:url(#SVGID_3_);}
	.st11{fill:url(#SVGID_4_);}
	.st12{fill:url(#SVGID_5_);}
	.st13{fill:url(#SVGID_6_);}
	.st14{fill:#292D3D;}
	.st15{fill:url(#SVGID_7_);}
	.st16{fill:url(#SVGID_8_);}
	.st17{fill:#FFFFFF;}
	.st18{font-family:'Montserrat-Bold';}
	.st19{font-size:26.2824px;}
	.st20{fill:url(#SVGID_9_);}
	.st21{fill:url(#SVGID_10_);}
	.st22{fill:#586386;}
	.st23{font-family:'Montserrat-Regular';}
	.st24{font-size:5.4908px;}
	.st25{opacity:0.2;fill:#F7F7F7;}
	.st26{fill:url(#SVGID_11_);}
	.st27{fill:url(#SVGID_12_);}
	.st28{fill:url(#SVGID_13_);}
	.st29{fill:url(#SVGID_14_);}
	.st30{fill:url(#SVGID_15_);}
	.st31{fill:url(#SVGID_16_);}
	.st32{fill:url(#SVGID_17_);}
	.st33{fill:url(#SVGID_18_);}
	.st34{fill:url(#SVGID_19_);}
	.st35{fill:url(#SVGID_20_);}
	.st36{fill:url(#SVGID_21_);}
	.st37{fill:url(#SVGID_22_);}
	.st38{fill:url(#SVGID_23_);}
	.st39{fill:url(#SVGID_24_);}
	.st40{fill:#F12C6D;}
	.st41{fill:url(#SVGID_25_);}
	.st42{fill:url(#SVGID_26_);}
	.st43{fill:url(#SVGID_27_);}
	.st44{fill:url(#SVGID_28_);}
	.st45{fill:url(#SVGID_29_);}
	.st46{fill:url(#SVGID_30_);}
	.st47{fill:url(#SVGID_31_);}
	.st48{fill:url(#SVGID_32_);}
	.st49{fill:url(#SVGID_33_);}
	.st50{fill:url(#SVGID_34_);}
	.st51{fill:url(#SVGID_35_);}
	.st52{fill:url(#SVGID_36_);}
	.st53{fill:url(#SVGID_37_);}
	.st54{fill:#E1E5FC;}
	.st55{font-size:11.8388px;}
	.st56{fill:url(#SVGID_38_);}
	.st57{fill:url(#SVGID_39_);}
	.st58{fill:url(#SVGID_40_);}
	.st59{fill:#2A4685;}
	.st60{fill:#2D2F33;}
	.st61{fill:#484C52;}
	.st62{fill:url(#SVGID_41_);}
	.st63{fill:url(#SVGID_42_);}
	.st64{fill:url(#SVGID_43_);}
	.st65{fill:#3457A3;}
	.st66{fill:#3C65BD;}
	.st67{fill:url(#SVGID_44_);}
	.st68{fill:url(#SVGID_45_);}
	.st69{fill:url(#SVGID_46_);}
</style>
<g>
	<path class="st0" d="M481,311.1c-10-5.8-16.1,24.1-16.2,56.3l1.7,1c0.1-38,7.6-59.3,14.5-55.3c6.9,4,14.3,33.8,14.2,71.9l1.7,1
		C497,353.7,491.1,316.9,481,311.1z"/>
	<polygon class="st1" points="433.2,345.5 440.3,337.2 444.4,450.1 432.9,457 	"/>
	<polygon class="st2" points="418.8,349.7 433.2,345.5 432.9,457 414.8,464.6 	"/>
	<polygon class="st3" points="440.3,337.2 517.7,381.9 521.5,491.4 444.1,446.7 	"/>
	<polygon class="st1" points="517.7,381.9 521.5,491.4 502.9,497.5 503.3,386 	"/>
	<linearGradient id="SVGID_1_" gradientUnits="userSpaceOnUse" x1="414.8458" y1="429.4674" x2="496.2027" y2="429.4674">
		<stop  offset="0" style="stop-color:#A1B7FF"/>
		<stop  offset="1" style="stop-color:#5581E7"/>
	</linearGradient>
	<polygon class="st4" points="496.2,394.3 492.2,509.3 414.8,464.6 418.8,349.7 	"/>
	<polygon class="st2" points="503.3,386 502.9,497.5 492.2,509.3 496.2,394.3 	"/>
	<path class="st5" d="M457.1,323.5c-10-5.8-16.1,24.1-16.2,56.3l1.7,1c0.1-38,7.6-59.3,14.5-55.3c6.9,4,14.3,33.8,14.2,71.9l1.7,1
		C473.1,366.1,467.2,329.3,457.1,323.5z"/>
</g>
<g>
	<path class="st0" d="M406.8,311.1c-10-5.8-16.1,24.1-16.2,56.3l1.7,1c0.1-38,7.6-59.3,14.5-55.3c6.9,4,14.3,33.8,14.1,71.9l1.7,1
		C422.7,353.7,416.8,316.9,406.8,311.1z"/>
	<polygon class="st6" points="358.9,345.5 366,337.2 370.2,450.1 358.6,457 	"/>
	<polygon class="st7" points="344.5,349.7 358.9,345.5 358.6,457 340.6,464.6 	"/>
	<polygon class="st8" points="366,337.2 443.4,381.9 447.2,491.4 369.8,446.7 	"/>
	<polygon class="st6" points="443.4,381.9 447.2,491.4 428.7,497.5 429,386 	"/>
	<linearGradient id="SVGID_2_" gradientUnits="userSpaceOnUse" x1="340.5683" y1="429.4674" x2="421.9266" y2="429.4674">
		<stop  offset="0" style="stop-color:#FF4D87"/>
		<stop  offset="1" style="stop-color:#D6085A"/>
	</linearGradient>
	<polygon class="st9" points="421.9,394.3 418,509.3 340.6,464.6 344.5,349.7 	"/>
	<polygon class="st7" points="429,386 428.7,497.5 418,509.3 421.9,394.3 	"/>
	<path class="st5" d="M382.8,323.5c-10-5.8-16.2,24.1-16.2,56.3l1.7,1c0.1-38,7.6-59.3,14.5-55.3c6.9,4,14.3,33.8,14.2,71.9l1.7,1
		C398.8,366.1,392.9,329.3,382.8,323.5z"/>
</g>
<g>
	<linearGradient id="SVGID_3_" gradientUnits="userSpaceOnUse" x1="207.7189" y1="122.9183" x2="207.7189" y2="440.2992">
		<stop  offset="0" style="stop-color:#5E6A8F"/>
		<stop  offset="0.4637" style="stop-color:#576285"/>
		<stop  offset="1" style="stop-color:#4C5573"/>
	</linearGradient>
	<path class="st10" d="M321.2,86.4c0-8.8-3.2-15-8.2-17.9c0,0,0,0,0.1,0c-9.4-5.5-18.8-10.9-28.3-16.4c-5.1-3-12.1-2.5-19.9,1.9
		L121,137.1c-15.4,8.9-27.9,30.5-27.9,48.3l1,358.5c0,8.8,3.1,15,8.2,17.9c9.4,5.5,18.8,10.9,28.3,16.4c-0.3-0.2-0.6-0.4-0.8-0.6
		c5.1,3.5,12.5,3.4,20.7-1.4l143.9-83.1c15.4-8.9,27.9-30.5,27.9-48.3L321.2,86.4z"/>
	<linearGradient id="SVGID_4_" gradientUnits="userSpaceOnUse" x1="220.6456" y1="135.5075" x2="220.6456" y2="444.141">
		<stop  offset="0" style="stop-color:#8393C7"/>
		<stop  offset="0.1998" style="stop-color:#7C8BBD"/>
		<stop  offset="0.5434" style="stop-color:#6A77A1"/>
		<stop  offset="0.9867" style="stop-color:#4D5674"/>
		<stop  offset="1" style="stop-color:#4C5573"/>
	</linearGradient>
	<path class="st11" d="M321.2,86.4c0-8.8-3.2-15-8.2-17.9c0,0,0,0,0.1,0c-1.8-1-3.5-2-5.3-3.1c-4.7-1.4-10.6-0.5-17,3.2l-143.9,83.1
		c-15.4,8.9-27.9,30.5-27.9,48.3l1,358.5c0,8.8,3.1,15,8.2,17.9c1.7,1,3.4,2,5.1,3c4.7,1.5,10.7,0.6,17.2-3.1l143.9-83.1
		c15.4-8.9,27.9-30.5,27.9-48.3L321.2,86.4z"/>
	<linearGradient id="SVGID_5_" gradientUnits="userSpaceOnUse" x1="156.7619" y1="131.5408" x2="305.0963" y2="568.5249">
		<stop  offset="0" style="stop-color:#454E69"/>
		<stop  offset="0.5385" style="stop-color:#3E465F"/>
		<stop  offset="1" style="stop-color:#363D52"/>
	</linearGradient>
	<path class="st12" d="M321.2,86.4c-0.1-17.7-12.6-24.9-28-16l-143.9,83.1c-15.4,8.9-27.9,30.5-27.9,48.3l1,358.5
		c0.1,17.7,12.6,24.9,28,16l143.9-83.1c15.4-8.9,27.9-30.5,27.9-48.3L321.2,86.4z"/>
	<linearGradient id="SVGID_6_" gradientUnits="userSpaceOnUse" x1="188.996" y1="122.6632" x2="188.996" y2="438.927">
		<stop  offset="0" style="stop-color:#4B5573"/>
		<stop  offset="1" style="stop-color:#4C5573"/>
	</linearGradient>
	<path class="st13" d="M129.3,577.2c-8.5-4.9-17-9.9-25.5-14.8c-5-2.9-8.1-9.1-8.2-17.9l-1-358.5c-0.1-17.7,12.4-39.3,27.9-48.3
		l143.9-83.1c7.1-4.1,13.5-4.8,18.5-2.7c-5.1-2.9-12.1-2.5-19.9,2L121,137.1c-15.4,8.9-27.9,30.5-27.9,48.3l1,358.5
		c0,8.8,3.1,15,8.2,17.9c9.4,5.5,18.8,10.9,28.3,16.4c0,0,0,0-0.1-0.1C130.1,577.8,129.7,577.5,129.3,577.2z"/>
	<g>
		<g>
			<path class="st14" d="M222.3,492.5c7.5-4.3,13.6-0.8,13.7,7.8c0,8.6-6.1,19.2-13.6,23.5c-7.5,4.3-13.7,0.8-13.7-7.8
				C208.7,507.4,214.8,496.9,222.3,492.5z"/>
		</g>
		<g>
			<radialGradient id="SVGID_7_" cx="198.2773" cy="191.8131" r="323.2419" gradientUnits="userSpaceOnUse">
				<stop  offset="0" style="stop-color:#FFFFFF"/>
				<stop  offset="0.3825" style="stop-color:#F5F6FE"/>
				<stop  offset="1" style="stop-color:#DBE0FC"/>
			</radialGradient>
			<polygon class="st15" points="312.8,96.9 313.8,433.3 130.9,538.9 129.9,202.5 			"/>
		</g>
		<g>
			<path class="st14" d="M243.7,117.7l-29.1,16.8c-0.9,0.5-1.7,1.8-1.7,2.9c0,1.1,0.7,1.5,1.7,0.9l29.1-16.8
				c0.9-0.5,1.7-1.8,1.7-2.9C245.4,117.6,244.6,117.1,243.7,117.7z"/>
			<path class="st14" d="M200.3,141.2c-1.7,1-3,3.3-3,5.2c0,1.9,1.4,2.7,3,1.7c1.7-1,3-3.3,3-5.2C203.3,141,201.9,140.2,200.3,141.2
				z"/>
		</g>
	</g>
	<g>
		<g>
			<linearGradient id="SVGID_8_" gradientUnits="userSpaceOnUse" x1="225.7152" y1="488.2065" x2="225.7152" y2="416.3354">
				<stop  offset="0" style="stop-color:#FF4D87"/>
				<stop  offset="1" style="stop-color:#D6085A"/>
			</linearGradient>
			<path class="st16" d="M266.1,409.7c4.5-2.6,8.1-0.5,8.1,4.6l0.1,21.6c0,5.1-3.6,11.4-8,13.9l-80.9,46.7c-4.5,2.6-8.1,0.5-8.1-4.6
				l-0.1-21.6c0-5.1,3.6-11.3,8-13.9L266.1,409.7z"/>
		</g>
		<text transform="matrix(1 -0.5543 0 1 207.2139 474.1843)" class="st17 st18 st19">BUY</text>
	</g>
	<g>
		<linearGradient id="SVGID_9_" gradientUnits="userSpaceOnUse" x1="146.2693" y1="259.1676" x2="146.2693" y2="386.3708">
			<stop  offset="0" style="stop-color:#FF4D87"/>
			<stop  offset="1" style="stop-color:#D6085A"/>
		</linearGradient>
		<polygon class="st20" points="151.9,353.4 148.1,355.6 140.6,370.6 148.2,376.8 152,374.6 144.3,368.4 		"/>
		<linearGradient id="SVGID_10_" gradientUnits="userSpaceOnUse" x1="301.9423" y1="259.1675" x2="301.9423" y2="386.3706">
			<stop  offset="0" style="stop-color:#FF4D87"/>
			<stop  offset="1" style="stop-color:#D6085A"/>
		</linearGradient>
		<polygon class="st21" points="300,267.9 296.2,270.1 303.9,276.3 296.3,291.3 300.1,289.1 307.7,274.1 		"/>
	</g>
	<g>
		<g>
			<path class="st22" d="M281.3,378.7c1.1-0.6,2-0.1,2,1.2c0,1.3-0.9,2.9-2,3.5c-1.1,0.7-2,0.1-2.1-1.2
				C279.3,380.9,280.2,379.4,281.3,378.7z"/>
		</g>
		<g>
			<path class="st22" d="M289,374.3c1.1-0.6,2-0.1,2.1,1.2c0,1.3-0.9,2.9-2,3.5c-1.1,0.7-2,0.1-2.1-1.2
				C286.9,376.5,287.9,374.9,289,374.3z"/>
		</g>
		<g>
			<path class="st22" d="M296.6,369.9c1.1-0.7,2-0.1,2.1,1.2s-0.9,2.9-2,3.5c-1.1,0.7-2,0.1-2.1-1.2
				C294.6,372.1,295.5,370.5,296.6,369.9z"/>
		</g>
	</g>
	<g>
		<path class="st22" d="M281,196.8c1.6-0.9,2.9-0.2,2.9,1.7l0.5,165.6c0,1.9-1.3,4.1-2.9,5l-111,64.1c-1.6,0.9-2.9,0.2-2.9-1.7
			L167.1,266c0-1.9,1.3-4.1,2.9-5L281,196.8z"/>
	</g>
	<text transform="matrix(1 -0.5543 0 1 134.5957 468.0446)"><tspan x="0" y="0" class="st22 st23 st24">Product Code : 2318123</tspan><tspan x="0" y="6.6" class="st22 st23 st24">read more &gt;</tspan></text>
	<polygon class="st25" points="312.8,96.9 129.9,202.5 130,232 313.5,348 	"/>
	<g>
		<g>
			<linearGradient id="SVGID_11_" gradientUnits="userSpaceOnUse" x1="172.1115" y1="204.0215" x2="182.0948" y2="237.8111">
				<stop  offset="0" style="stop-color:#FFFFFF"/>
				<stop  offset="0.3825" style="stop-color:#F5F6FE"/>
				<stop  offset="1" style="stop-color:#DBE0FC"/>
			</linearGradient>
			<path class="st26" d="M171.5,226.6l0,15.8c0,4.3,3,6,6.7,3.8l3.2-1.9c3.7-2.1,6.7-7.3,6.7-11.6l0-15.8L171.5,226.6z"/>
			<linearGradient id="SVGID_12_" gradientUnits="userSpaceOnUse" x1="207.928" y1="193.439" x2="217.9116" y2="227.2294">
				<stop  offset="0" style="stop-color:#FFFFFF"/>
				<stop  offset="0.3825" style="stop-color:#F5F6FE"/>
				<stop  offset="1" style="stop-color:#DBE0FC"/>
			</linearGradient>
			<path class="st27" d="M204.8,207.4l0,15.8c0,4.3,3,6,6.7,3.8l3.2-1.9c3.7-2.1,6.7-7.3,6.7-11.6l0-15.8L204.8,207.4z"/>
			<linearGradient id="SVGID_13_" gradientUnits="userSpaceOnUse" x1="243.7445" y1="182.8566" x2="253.7282" y2="216.6475">
				<stop  offset="0" style="stop-color:#FFFFFF"/>
				<stop  offset="0.3825" style="stop-color:#F5F6FE"/>
				<stop  offset="1" style="stop-color:#DBE0FC"/>
			</linearGradient>
			<path class="st28" d="M238,188.2l0,15.8c0,4.3,3,6,6.7,3.8l3.2-1.9c3.7-2.1,6.7-7.3,6.7-11.6l0-15.8L238,188.2z"/>
			<linearGradient id="SVGID_14_" gradientUnits="userSpaceOnUse" x1="279.5648" y1="172.2746" x2="289.5479" y2="206.0638">
				<stop  offset="0" style="stop-color:#FFFFFF"/>
				<stop  offset="0.3825" style="stop-color:#F5F6FE"/>
				<stop  offset="1" style="stop-color:#DBE0FC"/>
			</linearGradient>
			<path class="st29" d="M271.3,169l0,15.8c0,4.3,3,6,6.7,3.8l3.2-1.9c3.7-2.1,6.7-7.3,6.7-11.6l0-15.8L271.3,169z"/>
			<linearGradient id="SVGID_15_" gradientUnits="userSpaceOnUse" x1="315.3812" y1="161.694" x2="325.3638" y2="195.4814">
				<stop  offset="0" style="stop-color:#FFFFFF"/>
				<stop  offset="0.3825" style="stop-color:#F5F6FE"/>
				<stop  offset="1" style="stop-color:#DBE0FC"/>
			</linearGradient>
			<path class="st30" d="M321.2,140.1l-16.6,9.6l0,15.8c0,4.3,3,6,6.7,3.8l3.2-1.9c3.7-2.1,6.7-7.3,6.7-11.6L321.2,140.1z"/>
		</g>
		<linearGradient id="SVGID_16_" gradientUnits="userSpaceOnUse" x1="129.6203" y1="226.6261" x2="154.9207" y2="226.6261">
			<stop  offset="0" style="stop-color:#AD1D4C"/>
			<stop  offset="1" style="stop-color:#A30644"/>
		</linearGradient>
		<polygon class="st31" points="129.7,202.6 154.9,236.3 154.9,250.7 129.6,236.1 		"/>
		<g>
			<linearGradient id="SVGID_17_" gradientUnits="userSpaceOnUse" x1="191.7421" y1="169.3664" x2="214.5238" y2="212.1146">
				<stop  offset="0" style="stop-color:#FFFFFF"/>
				<stop  offset="0.3825" style="stop-color:#F5F6FE"/>
				<stop  offset="1" style="stop-color:#DBE0FC"/>
			</linearGradient>
			<polygon class="st32" points="196.2,164.2 179.6,173.8 204.8,207.4 204.8,207.4 221.5,197.8 221.5,197.8 			"/>
			<linearGradient id="SVGID_18_" gradientUnits="userSpaceOnUse" x1="204.8761" y1="159.9653" x2="232.1372" y2="196.0573">
				<stop  offset="0" style="stop-color:#FF4D87"/>
				<stop  offset="1" style="stop-color:#E8024E"/>
			</linearGradient>
			<polygon class="st33" points="196.2,164.2 221.5,197.8 221.5,197.8 238.1,188.2 212.8,154.6 			"/>
			<linearGradient id="SVGID_19_" gradientUnits="userSpaceOnUse" x1="225.6288" y1="151.307" x2="248.4107" y2="194.0555">
				<stop  offset="0" style="stop-color:#FFFFFF"/>
				<stop  offset="0.3825" style="stop-color:#F5F6FE"/>
				<stop  offset="1" style="stop-color:#DBE0FC"/>
			</linearGradient>
			<polygon class="st34" points="212.8,154.6 238.1,188.2 254.7,178.6 229.5,145 			"/>
			<linearGradient id="SVGID_20_" gradientUnits="userSpaceOnUse" x1="157.8542" y1="187.4249" x2="180.6367" y2="230.1746">
				<stop  offset="0" style="stop-color:#FFFFFF"/>
				<stop  offset="0.3825" style="stop-color:#F5F6FE"/>
				<stop  offset="1" style="stop-color:#DBE0FC"/>
			</linearGradient>
			<polygon class="st35" points="146.3,193 171.6,226.7 171.6,226.7 188.2,217 162.9,183.4 			"/>
			<linearGradient id="SVGID_21_" gradientUnits="userSpaceOnUse" x1="144.0226" y1="205.9294" x2="171.2831" y2="242.0207">
				<stop  offset="0" style="stop-color:#FF4D87"/>
				<stop  offset="1" style="stop-color:#E8024E"/>
			</linearGradient>
			<polygon class="st36" points="146.3,193 129.7,202.6 154.9,236.3 171.6,226.7 171.6,226.7 			"/>
			<linearGradient id="SVGID_22_" gradientUnits="userSpaceOnUse" x1="174.4496" y1="182.9467" x2="201.7105" y2="219.0386">
				<stop  offset="0" style="stop-color:#FF4D87"/>
				<stop  offset="1" style="stop-color:#E8024E"/>
			</linearGradient>
			<polygon class="st37" points="179.6,173.8 162.9,183.4 188.2,217 204.8,207.4 204.8,207.4 			"/>
			<linearGradient id="SVGID_23_" gradientUnits="userSpaceOnUse" x1="235.3037" y1="136.983" x2="262.5647" y2="173.0749">
				<stop  offset="0" style="stop-color:#FF4D87"/>
				<stop  offset="1" style="stop-color:#E8024E"/>
			</linearGradient>
			<polygon class="st38" points="246.1,135.4 229.5,145 254.7,178.6 271.4,169 271.4,169 			"/>
			<linearGradient id="SVGID_24_" gradientUnits="userSpaceOnUse" x1="296.1579" y1="91.019" x2="323.4185" y2="127.1104">
				<stop  offset="0" style="stop-color:#FF4D87"/>
				<stop  offset="1" style="stop-color:#E8024E"/>
			</linearGradient>
			<polygon class="st39" points="296,106.5 321.3,140.2 337.9,130.6 312.6,96.9 			"/>
			<polygon class="st40" points="312.6,96.9 337.9,130.6 312.7,96.9 			"/>
			<linearGradient id="SVGID_25_" gradientUnits="userSpaceOnUse" x1="293.4035" y1="115.1869" x2="316.185" y2="157.9346">
				<stop  offset="0" style="stop-color:#FFFFFF"/>
				<stop  offset="0.3825" style="stop-color:#F5F6FE"/>
				<stop  offset="1" style="stop-color:#DBE0FC"/>
			</linearGradient>
			<polygon class="st41" points="279.4,116.1 304.6,149.8 321.3,140.2 296,106.5 			"/>
			<linearGradient id="SVGID_26_" gradientUnits="userSpaceOnUse" x1="259.5167" y1="133.2467" x2="282.2977" y2="175.9935">
				<stop  offset="0" style="stop-color:#FFFFFF"/>
				<stop  offset="0.3825" style="stop-color:#F5F6FE"/>
				<stop  offset="1" style="stop-color:#DBE0FC"/>
			</linearGradient>
			<polygon class="st42" points="246.1,135.4 271.4,169 271.4,169 288,159.4 262.7,125.8 			"/>
			<linearGradient id="SVGID_27_" gradientUnits="userSpaceOnUse" x1="265.7298" y1="113.9998" x2="292.9912" y2="150.0923">
				<stop  offset="0" style="stop-color:#FF4D87"/>
				<stop  offset="1" style="stop-color:#E8024E"/>
			</linearGradient>
			<polygon class="st43" points="262.7,125.8 288,159.4 304.6,149.8 279.4,116.1 			"/>
		</g>
		<g>
			<linearGradient id="SVGID_28_" gradientUnits="userSpaceOnUse" x1="196.4846" y1="207.3761" x2="196.4846" y2="237.5199">
				<stop  offset="0" style="stop-color:#FF4D87"/>
				<stop  offset="1" style="stop-color:#D6085A"/>
			</linearGradient>
			<path class="st44" d="M188.1,217l0,15.8c0,4.3,3,6,6.7,3.8l3.2-1.9c3.7-2.1,6.7-7.3,6.7-11.6l0-15.8L188.1,217z"/>
			<linearGradient id="SVGID_29_" gradientUnits="userSpaceOnUse" x1="163.2166" y1="226.5833" x2="163.2166" y2="256.7275">
				<stop  offset="0" style="stop-color:#FF4D87"/>
				<stop  offset="1" style="stop-color:#D6085A"/>
			</linearGradient>
			<path class="st45" d="M154.9,236.2l0,15.8c0,4.3,3,6,6.7,3.8l3.2-1.9c3.7-2.1,6.7-7.3,6.7-11.6l0-15.8L154.9,236.2z"/>
			<linearGradient id="SVGID_30_" gradientUnits="userSpaceOnUse" x1="229.7533" y1="188.1677" x2="229.7533" y2="218.3116">
				<stop  offset="0" style="stop-color:#FF4D87"/>
				<stop  offset="1" style="stop-color:#D6085A"/>
			</linearGradient>
			<path class="st46" d="M221.4,197.8l0,15.8c0,4.3,3,6,6.7,3.8l3.2-1.9c3.7-2.1,6.7-7.3,6.7-11.6l0-15.8L221.4,197.8z"/>
			<linearGradient id="SVGID_31_" gradientUnits="userSpaceOnUse" x1="263.0246" y1="168.9564" x2="263.0246" y2="199.1021">
				<stop  offset="0" style="stop-color:#FF4D87"/>
				<stop  offset="1" style="stop-color:#D6085A"/>
			</linearGradient>
			<path class="st47" d="M254.7,178.6l0,15.8c0,4.3,3,6,6.7,3.8l3.2-1.9c3.7-2.1,6.7-7.3,6.7-11.6l0-15.8L254.7,178.6z"/>
			<linearGradient id="SVGID_32_" gradientUnits="userSpaceOnUse" x1="329.5602" y1="130.5409" x2="329.5602" y2="160.687">
				<stop  offset="0" style="stop-color:#FF4D87"/>
				<stop  offset="1" style="stop-color:#D6085A"/>
			</linearGradient>
			<path class="st48" d="M337.9,130.5l-16.6,9.6l0,15.8c0,4.3,3,6,6.7,3.8l3.2-1.9c3.7-2.1,6.7-7.3,6.7-11.6L337.9,130.5z"/>
			<linearGradient id="SVGID_33_" gradientUnits="userSpaceOnUse" x1="296.2926" y1="149.7494" x2="296.2926" y2="179.8948">
				<stop  offset="0" style="stop-color:#FF4D87"/>
				<stop  offset="1" style="stop-color:#D6085A"/>
			</linearGradient>
			<path class="st49" d="M288,159.4l0,15.8c0,4.3,3,6,6.7,3.8l3.2-1.9c3.7-2.1,6.7-7.3,6.7-11.6l0-15.8L288,159.4z"/>
		</g>
	</g>
</g>
<linearGradient id="SVGID_34_" gradientUnits="userSpaceOnUse" x1="90.6166" y1="369.3159" x2="100.5686" y2="533.0088">
	<stop  offset="0" style="stop-color:#FF4D87"/>
	<stop  offset="1" style="stop-color:#D6085A"/>
</linearGradient>
<path class="st50" d="M110.1,407.3L97.5,386c-0.8-1.3-1.8-2.3-2.8-2.9c-1-0.6-2-0.7-2.8-0.3l-12.7,6.6c-1.6,0.8-2.8,3.5-2.8,5.9
	l-0.2,56.2c0,2.5,1.7,5.5,3.9,6.7l28.8,16.6c2.1,1.2,3.9,0.2,3.9-2.2l0.2-56.2C112.9,414,111.7,409.9,110.1,407.3z M92.5,399.9
	c-1.8-1-3.2-3.5-3.2-5.5c0-2,1.4-2.8,3.2-1.8c1.7,1,3.2,3.5,3.2,5.5C95.7,400.1,94.3,400.9,92.5,399.9z"/>
<g>
	<radialGradient id="SVGID_35_" cx="83.7359" cy="410.443" r="50.1352" gradientUnits="userSpaceOnUse">
		<stop  offset="0" style="stop-color:#FFFFFF"/>
		<stop  offset="0.3825" style="stop-color:#F5F6FE"/>
		<stop  offset="1" style="stop-color:#DBE0FC"/>
	</radialGradient>
	<path class="st51" d="M102.8,438c-2.8-1.6-5.4-1.5-5.4,1.9l0,3.4c0,3.4,2.6,6.5,5.4,8.1c2.8,1.6,5.4,1.5,5.4-1.9l0-3.4
		C108.2,442.7,105.7,439.6,102.8,438z M104.1,447c0,1-0.5,1.1-1.3,0.7c-0.7-0.4-1.2-1.1-1.2-2.1l0-3.1c0-1,0.5-1.1,1.2-0.7
		c0.7,0.4,1.3,1.1,1.2,2.1L104.1,447z"/>
	<radialGradient id="SVGID_36_" cx="83.7355" cy="410.442" r="50.1354" gradientUnits="userSpaceOnUse">
		<stop  offset="0" style="stop-color:#FFFFFF"/>
		<stop  offset="0.3825" style="stop-color:#F5F6FE"/>
		<stop  offset="1" style="stop-color:#DBE0FC"/>
	</radialGradient>
	<path class="st52" d="M91.7,427.3l0-3.4c0-3.4-2.6-6.5-5.4-8.1c-2.8-1.6-5.4-1.5-5.4,1.9l0,3.4c0,3.4,2.6,6.5,5.4,8.1
		C89.1,430.8,91.6,430.7,91.7,427.3z M85,423.4l0-3.1c0-1,0.5-1.1,1.3-0.7c0.7,0.4,1.2,1.1,1.2,2.1l0,3.1c0,1-0.5,1.1-1.2,0.7
		C85.6,425.1,85,424.4,85,423.4z"/>
	<radialGradient id="SVGID_37_" cx="83.7355" cy="410.442" r="50.137" gradientUnits="userSpaceOnUse">
		<stop  offset="0" style="stop-color:#FFFFFF"/>
		<stop  offset="0.3825" style="stop-color:#F5F6FE"/>
		<stop  offset="1" style="stop-color:#DBE0FC"/>
	</radialGradient>
	<polygon class="st53" points="98.4,423 86.2,441.6 90.7,444.2 102.9,425.6 	"/>
</g>
<g>
	<g>
		<path class="st54" d="M248,20.5c2.2-1.3,4-0.2,4,2.3l0.1,29.1c0,2.5-1.8,5.6-4,6.9l-103.5,59.8l-10.2,16c-0.6,0.9-1.2,1.6-1.6,1.8
			c-0.8,0.5-1.4-0.1-1.4-1.7l0-8.5l-1.3,0.7c-2.2,1.3-4,0.2-4-2.3L126,95.6c0-2.5,1.8-5.6,4-6.9L248,20.5z"/>
	</g>
	<text transform="matrix(1 -0.5543 0 1 137.4485 109.1254)" class="st22 st23 st55">Store Rate :       /4.5</text>
	<g>
		<linearGradient id="SVGID_38_" gradientUnits="userSpaceOnUse" x1="212.9843" y1="49.8018" x2="229.7424" y2="93.4272">
			<stop  offset="0" style="stop-color:#FF4D87"/>
			<stop  offset="1" style="stop-color:#D6085A"/>
		</linearGradient>
		<polygon class="st56" points="216.4,52.8 214.3,58.8 209.7,62.3 212.9,64.2 212.3,69.9 216.5,65.1 220.6,65.1 220,60.2 
			223.2,54.5 218.6,56.3 		"/>
	</g>
</g>
<g>
	<linearGradient id="SVGID_39_" gradientUnits="userSpaceOnUse" x1="311.53" y1="302.7442" x2="304.6439" y2="295.7235">
		<stop  offset="0" style="stop-color:#484A61"/>
		<stop  offset="1" style="stop-color:#636685"/>
	</linearGradient>
	<path class="st57" d="M306.7,307.2c0,0-4.2,0.9-5.3-3.5c-1-4.4,1-11.1,5.9-14.3C312.3,286.1,316.1,298.3,306.7,307.2z"/>
	<linearGradient id="SVGID_40_" gradientUnits="userSpaceOnUse" x1="304.5757" y1="311.1822" x2="334.1432" y2="311.1822">
		<stop  offset="0" style="stop-color:#FFB799"/>
		<stop  offset="1" style="stop-color:#FFCEB9"/>
	</linearGradient>
	<path class="st58" d="M304.9,300c0,0-0.5,6.7-0.3,9.9c0.3,3.2,2.4,13.7,3.1,15.1c0.7,1.3,4.9,0.6,4.9,0.6l0.7,5.5H327v-11.6
		c0,0,6-5.1,7-13c1-7.9-4.4-14.8-10.4-15.2C317.7,290.9,306.2,292.4,304.9,300z"/>
	<path class="st59" d="M316.4,328.2c0,0,1.7-2.5,3.6-3.4c1.9-0.8,5.5-1.8,8.4-2.1c2.9-0.4,4.6,0.2,5.4,1.9L316.4,328.2z"/>
	<path class="st60" d="M340.6,544.5c0.7-1.6,1.2-1.9,2-2.8c-1.1,3.4-1.4,7.7-1.4,11.6c-0.1,0-0.6,0-1.2,0
		C340.1,550.4,340.1,547.1,340.6,544.5L340.6,544.5z"/>
	<path class="st61" d="M341.5,532.4c-0.8-0.6-2.1-0.8-4.1-0.4c-0.1,0-0.2,0-0.3,0.1c-1.7,0.5-2.9,2.8-3.7,5.1
		c-0.6,1.5-1,3.1-1.3,4.1c0,0,0,0.1,0,0.1c-0.6,2.2-0.9,4.3-1.2,6.1c-2.6,0.2-4.1,3.5-3,6.4c1.9,0.5,3.7,0.3,5.8,0.1l0-0.1
		c0.6-2,1.1-8.7,2-11.3c0.7,3.2,1.3,7.4,1.1,11c0,1-0.2,2-0.4,2.9c1.3,0.5,2.8,0.5,3.7-0.4c0-0.8,0-1.8,0-2.8c0-2.9,0-6.2,0.5-8.8
		l0,0c0.7-1.6,1.2-1.9,2-2.8c0,0,0-0.1,0-0.1C342.8,538.5,343.7,534.1,341.5,532.4z"/>
	<linearGradient id="SVGID_41_" gradientUnits="userSpaceOnUse" x1="323.3244" y1="502.8246" x2="344.7843" y2="502.8246">
		<stop  offset="0" style="stop-color:#FFB799"/>
		<stop  offset="1" style="stop-color:#FFCEB9"/>
	</linearGradient>
	<path class="st62" d="M343.3,484.8c-0.5-2-1.9-4.9-2.8-7.8c-0.7-2-1.7-5.8-1.5-7.4c0-0.4,0-0.8,0-1.2c-2.6,2.2-6.3,4.5-10.3,6.3
		c-1.7,0.8-3.5,1.5-5.3,2c3,14.3,10.8,50.7,10,60.2l0.2,0.1c0.8-2.3,2-4.5,3.7-5.1c0.1,0,0.2,0,0.3-0.1c1.9-0.4,3.2-0.2,4.1,0.4
		l0.4-0.1c1.2-11,2.9-23,2.9-34.1C344.8,492.7,344.8,490.4,343.3,484.8z"/>
	<path class="st60" d="M335.7,542.5c0.7,3.2,1.3,7.4,1.1,11c-1.5,0.1-2.8,0.2-3.1,0.3C334.3,551.8,334.8,545.2,335.7,542.5z"/>
	<linearGradient id="SVGID_42_" gradientUnits="userSpaceOnUse" x1="300.7894" y1="517.5248" x2="322.6468" y2="517.5248">
		<stop  offset="0" style="stop-color:#FFB799"/>
		<stop  offset="1" style="stop-color:#FFCEB9"/>
	</linearGradient>
	<path class="st63" d="M320.8,479.5c0-0.8,0-1.6,0-2.4c-6.3,1.5-12.5,1.2-16.6-2.3c0,0.2,0,0.5,0,0.7c0.2,12.5,4.2,67.1,0.4,75.9
		l0.1,0c-0.9,2.2-1.8,4.6-2.8,6.7c-0.3,0.8-0.7,1.5-1.1,2.2c3.3-0.6,4.4-2.7,5.4-6.9c0.5-2.7,0.6-5.8,1.7-8.1
		c1.2-1.9,2.7-3.4,4.8-4.2c0.9-0.3,1.9-0.6,3.1-0.7c-2-11.4,5.6-25.3,6.7-36.4C323.2,496.3,321.2,486.9,320.8,479.5z"/>
	<path class="st61" d="M300.8,560.3c3.3-0.6,4.4-2.7,5.4-6.9c0.5-2.7,0.6-5.8,1.7-8.1c1.2-1.9,2.7-3.4,4.8-4.2
		c0.9-0.3,1.9-0.6,3.1-0.7c0.2,0,0.4,0,0.6,0c3.7,7.7-0.6,17.5,1.6,24.9c-1.7,1.3-5.1,0.9-3.9-1.6c-0.1-3.2-0.3-6.5-0.3-9.7
		c0-0.1,0-0.1,0-0.2c-3.1,2-8.5,8.8-9,12.6c-0.2,0.1-0.4,0.2-0.6,0.3c-3.9,0.5-7.5,0.7-11.1-0.4c-0.3-2,0-4.4,0.6-6.1
		c2.2-0.3,6.2-0.7,8.2-2C301.5,558.9,301.2,559.6,300.8,560.3z"/>
	<path class="st60" d="M313.8,553.7c0,0.1,0,0.2,0,0.2c-2.4,2.7-3.9,6.7-3.8,10.5c-1.7,0.1-3.6,1.1-5.2,1.9
		C305.2,562.4,310.6,555.7,313.8,553.7z"/>
	<path class="st59" d="M304.7,396.6l35.3,1.2c0,0,7.4,9,3.7,30.6c-3.7,21.6-4.2,41.9-4.2,41.9s-6.6,7.1-18.1,9
		c-11.5,1.9-18.5-2.7-18.5-2.7s-4.1-35.2-4.7-50.1C297.6,409.2,304.7,396.6,304.7,396.6z"/>
	<g>
		<path class="st0" d="M310,429.7c-5.1-2.4-6.7,10.1-5.3,23.6l0.9,0.4c-1.6-15.9,1-24.9,4.5-23.2c3.5,1.7,8.3,14.2,9.9,30.1l0.9,0.4
			C319.5,447.6,315.1,432.2,310,429.7z"/>
		<polygon class="st6" points="290.5,441.8 293.8,437.8 295.8,491.8 290.3,495.1 		"/>
		<polygon class="st7" points="283.6,443.8 290.5,441.8 290.3,495.1 281.7,498.7 		"/>
		<polygon class="st8" points="293.8,437.8 330.8,459.2 332.6,511.5 295.7,490.1 		"/>
		<polygon class="st6" points="330.8,459.2 332.6,511.5 323.8,514.4 323.9,461.1 		"/>
		<linearGradient id="SVGID_43_" gradientUnits="userSpaceOnUse" x1="281.6989" y1="481.905" x2="320.5662" y2="481.905">
			<stop  offset="0" style="stop-color:#FF4D87"/>
			<stop  offset="1" style="stop-color:#D6085A"/>
		</linearGradient>
		<polygon class="st64" points="320.6,465.1 318.7,520 281.7,498.7 283.6,443.8 		"/>
		<polygon class="st7" points="323.9,461.1 323.8,514.4 318.7,520 320.6,465.1 		"/>
		<path class="st5" d="M308.3,431.3c-4.3-2.8-9.8,11.5-12.6,26.9l0.7,0.5c3.3-18.2,8.7-28.3,11.7-26.4c3,1.9,3.9,16.2,0.6,34.3
			l0.7,0.5C312.3,451.6,312.6,434.1,308.3,431.3z"/>
	</g>
	<path class="st59" d="M278.7,362.6c4.2-0.4,22,1.7,26.4,1.6c-0.1,2.9,0,5.5,0.4,6.7c0.5,1.5,1.5,3.3,2.8,5.1
		c-4.7-1-24.7-3.2-30.6-5.7c0,0,0,0,0,0c-0.9-1.7-0.2-5.9,0.8-7.6C278.6,362.6,278.7,362.6,278.7,362.6
		C278.7,362.6,278.7,362.6,278.7,362.6z"/>
	<path class="st65" d="M342,354.9c0.4-1,0.8-2,1.2-2.9c0,0,0,0,0,0c3.9-10.5,3.2-17.3,1.4-21.7c-1.8-4.4-5.8-7-11.6-6.1
		c-0.5,0.1-1.1,0.2-1.6,0.3c-0.5,0.1-1.1,0.2-1.6,0.3c-0.3,0.1-0.7,0.1-1,0.2c-3.8,0.7-7.5,1.4-11.1,2.5c-0.7,0.2-1.5,0.5-2.2,0.7
		c-1.9,0.7-3.8,1.6-5.7,2.6l0,0l-2.3,1.3c0,0-5.5,7.4-6.1,10.5c-0.7,1.7-1.4,3.6-2.1,5.4c-0.9,2.7-1.6,5.2-1.6,6.5
		c0,1.6,0.4,3.6,1.2,5.7c1,2.7,2.5,5.6,4.1,7.9c0.6,6,1.2,17,2.5,23c0,0.2,0.1,0.3,0.1,0.5c-0.7,3.3-4.3,6.6-7.8,7.4
		c1.1,1.7,2.6,3,4.4,3.7c9,3.4,18.3,2.7,18.3,2.7c0.5-0.1,1.1-0.1,1.6-0.2c1.9-0.3,3.7-0.7,5.5-1.2c1.2-1.9,1.9-4.3,2.2-6.3
		c0.8,1.6,2.1,3.3,3.3,4.7c2.5-0.9,4.7-1.9,6.3-2.8c1.4-0.8,2.3-1.5,2.6-2.1c-3-2-5.5-4.8-6.7-8.1c-0.2-0.9-0.2-1.9-0.3-2.9
		c-0.1-2.5,0.1-5.1,0.4-7.5C336,370.2,339.1,362.8,342,354.9z"/>
	<path class="st66" d="M319.1,391.6c-0.5-14.6-2.7-29.5-4.4-43.3c0-4.5-0.3-13.3-3.5-15.5c-1-0.7-2.4-0.9-3.9-0.8
		c-1.2,0.7-2.3,1.4-3.3,2.1c-0.6,0.6-1.1,1.3-1.4,2.2c-0.7,1.6-1.2,3.7-1.3,6.1c-0.9,12.9,5.4,35,6,45.2c0,0,0.1,1.4,0.3,3.6
		c0.2,3.2,0.5,8.3,0.6,13.8c0.1,6.1,0,12.7-0.6,17.8c0,0.2-0.1,0.4-0.1,0.6v0c0.2,0.2,0.3,0.5,0.5,0.7c1.7,1.6,5.3,2.3,7.7,1.9
		c0.1,0,0.1,0,0.2,0c1.8-6.6,2.8-13.5,3.2-20.5C319.2,400.9,319.2,396.3,319.1,391.6z"/>
	<linearGradient id="SVGID_44_" gradientUnits="userSpaceOnUse" x1="303.5783" y1="434.8047" x2="315.5607" y2="434.8047">
		<stop  offset="0" style="stop-color:#FFB799"/>
		<stop  offset="1" style="stop-color:#FFCEB9"/>
	</linearGradient>
	<path class="st67" d="M307.9,424.2c-0.2,0.3-0.4,0.6-0.5,1c-0.6,1.1-1.3,2.4-2,3.7c-0.1,0.2-0.2,0.5-0.3,0.7
		c-0.3,0.6-0.5,1.2-0.7,1.8c-0.3,1-0.6,2.1-0.7,3.1c0,0,0,0,0,0c0.1,2,0.6,5.1,1,7.3c0,0.1,0,0.2,0.1,0.2c0.1,0.4,0.3,0.9,0.4,1.3
		c1.7-0.1,1-5.3,0.6-7.8c0.3-1,0.8-1.6,1.3-2.5c0.1,0,0.2,0.1,0.3,0.1c-0.3,1.8-0.5,4-0.4,5.7c0,0,0,0.1,0,0.1
		c-0.1,2.1,0.6,4.5,1.1,6.5l0,0c1.8-0.1,1.1-2.7,1.1-4c0.2,0.9,0.4,1.8,0.6,2.7l0.2,0c1.4-0.7,1-3.9,0.7-5.8
		c0.3-1.1,0.8-2.8,1.1-3.6c0-0.1,0.1-0.1,0.1-0.2c0,0.1,0,0.1,0,0.2c-0.2,0.9-0.5,1.8-0.4,2.9l0,0c0.2,1.1,0.4,2.2,0.6,3.3h0.2
		c1.6,0,1.2-4.2,1.4-5.8c0-0.1,0-0.2,0.1-0.4v0c0.1-0.2,0.2-0.4,0.2-0.7c0.1-0.2,0.2-0.5,0.2-0.8c0.7-2.4,1.3-5.1,1.6-7.1
		C313.2,426.5,309.6,425.8,307.9,424.2z"/>
	
		<linearGradient id="SVGID_45_" gradientUnits="userSpaceOnUse" x1="315.477" y1="288.8255" x2="335.7743" y2="288.8255" gradientTransform="matrix(0.9543 -0.2988 0.2988 0.9543 -128.0525 187.6027)">
		<stop  offset="0" style="stop-color:#FFB799"/>
		<stop  offset="1" style="stop-color:#FFCEB9"/>
	</linearGradient>
	<path class="st68" d="M278.6,362.5c-2.9-1.4-4.5-2.6-6-5.2c-2.2,0.6-0.3,3.4,1,5.6c-1.3,0.8-2.9,1.4-4.5,2c-3.1,1.1-6.4,1.7-8.6,2
		c-0.1,0-0.1,0-0.2,0c-0.7,0.2-0.8,0.5-0.5,0.8c-0.7,0.9-0.6,1.3,0.2,1.6c0.2,1.5,2.1,1.4,3.2,1.5c2.2,0.3,4.6,0.2,6.8,0.5
		c0,0,0.1,0,0.1,0c0,0-0.1,0-0.1,0c-1.1,0.1-2.8,0.6-3.6,0.7c-0.6,0.1-4,0.2-2.8,1.3c2.8,0.4,5,0.1,7.1-0.5c2.3-0.7,4.5-1.7,7.1-2.7
		c0,0,0,0,0.1,0C276.9,368.5,277.5,364.2,278.6,362.5z"/>
	<linearGradient id="SVGID_46_" gradientUnits="userSpaceOnUse" x1="354.6602" y1="351.808" x2="312.6983" y2="309.0259">
		<stop  offset="0" style="stop-color:#484A61"/>
		<stop  offset="1" style="stop-color:#636685"/>
	</linearGradient>
	<path class="st69" d="M348.6,331.1c-5.9-8.5-9.1-15.1-9.8-26.1c0,0,0,0,0,0c0.4-2.3,0.4-4.6-0.1-6.9c-1.8-8.8-10.1-15-18.5-13.9
		c-8.4,1-11.4,3.6-14,6.3c-2.8,2.9-3.6,14.9,2.4,22.1c0,0-0.4-3.7,1.7-4.3c2.1-0.6,3.3,5.2,1.1,8.4c0,0,0,10.7,1.2,20.4
		c1.2,10,0.4,13.9,8.1,21.3c6.5,6.2,19,6.5,26.1-0.7C354.6,349.7,354.5,339.6,348.6,331.1z"/>
</g>
</svg>
