<?xml version="1.0" encoding="utf-8"?>
<!-- Generator: Adobe Illustrator 22.1.0, SVG Export Plug-In . SVG Version: 6.00 Build 0)  -->
<svg version="1.1" id="Layer_1" xmlns="http://www.w3.org/2000/svg" xmlns:xlink="http://www.w3.org/1999/xlink" x="0px" y="0px"
	 viewBox="0 0 800 800" style="enable-background:new 0 0 800 800;" xml:space="preserve">
<style type="text/css">
	.st0{opacity:0.5;fill:#E0E4ED;}
	.st1{fill:#4D4B7E;}
	.st2{fill:#E4C38C;}
	.st3{fill:#737AFB;}
	.st4{fill:url(#SVGID_1_);}
	.st5{fill:#3E5384;}
	.st6{fill:#DCDFE7;}
	.st7{fill:#AAC7FD;}
	.st8{fill:#AA3964;}
	.st9{fill:#74A1E8;}
	.st10{fill:#D36389;}
	.st11{fill:none;stroke:#74A1E8;stroke-miterlimit:10;}
	.st12{enable-background:new    ;}
	.st13{fill:#4B456F;}
	.st14{fill:#F7F7FB;}
	.st15{fill:#E48F9B;}
	.st16{fill:#221E49;}
	.st17{fill:#818FFC;}
	.st18{fill:#F1F1F2;}
	.st19{fill:#E0E4ED;}
	.st20{fill:#0F0F49;}
	.st21{fill:none;stroke:#74A1E8;stroke-linecap:round;stroke-linejoin:round;stroke-miterlimit:10;}
	.st22{fill:#EEBCC5;}
	.st23{fill:url(#SVGID_2_);}
</style>
<g>
	<ellipse class="st0" cx="231" cy="585.6" rx="183.4" ry="95.4"/>
	<g>
		<path class="st1" d="M231,546.6c0,0-5.5,13.2-5.3,20.9c0.2,7.7,4.1,10.6,4.1,10.6s14.4,3.8,18.7,4.1c4.3,0.2,18.5,11.5,28.8,12.3
			c10.3,0.7,23.6,3.8,25-4.3c1.4-8.2-51-40.6-51-40.6L231,546.6z"/>
		<path class="st2" d="M233.2,521.6l-2.1,28.2c0,0-0.6,6.7,8.5,7.1c9.1,0.4,11.9-7.5,11.9-7.5l6.4-42.1L233.2,521.6z"/>
		<path class="st2" d="M171.9,546.9l-5.3,25.3c0,0,1.6,9,9.8,7.7c8.2-1.2,10.6-12.2,10.6-12.2l4.9-26.9L171.9,546.9z"/>
		<path class="st1" d="M167.4,568.1c0,0,0.8,7.3,7.3,6.9c6.5-0.4,12.2-7.3,12.2-7.3l-1.6,26.1c0,0-3.7,39.1-15.1,43.2
			c-11.4,4.1-13.9-17.5-13.9-17.5L167.4,568.1z"/>
		<path class="st1" d="M189.1,276.4c0,0,2.2,41,4.3,48.5c2.2,7.5-4.3,107.8-4.3,107.8s-22.6,118.6-21.6,125
			c1.1,6.5,19.4,3.2,23.7-3.2c4.3-6.5,31.3-104.5,35.6-132.6c4.3-28,17.2-92.7,17.2-92.7s1.1,78.7,1.1,85.1c0,6.5-14,123.9-14,123.9
			s0.5,3.4,11.4,5.1c3.6,0.5,9.8-0.7,12.4-4.9c6.4-10.5,8.6-33.6,8.6-33.6s31.3-133.6,29.1-147.7c-2.2-14,4.3-107.8,4.3-107.8
			l-17.2-6.5L189.1,276.4z"/>
		<path class="st3" d="M230.2,117.4c0,0,35.8-11.5,50.5-7.9c14.7,3.7,19.6,13.5,20.8,18.3c1.2,4.9-4.9,123.5-4.9,123.5
			S233,304,206.1,290.5c-19.4-9.7-21-20.7-20.4-26.1c0.4-3.2,0.7-6.5,0.6-9.8l-3.5-104.8L230.2,117.4z"/>
		<linearGradient id="SVGID_1_" gradientUnits="userSpaceOnUse" x1="227.9004" y1="286.2441" x2="209.1481" y2="205.9352">
			<stop  offset="0.2281" style="stop-color:#737AFB;stop-opacity:0"/>
			<stop  offset="0.8354" style="stop-color:#4D4B7E;stop-opacity:0.7"/>
		</linearGradient>
		<path class="st4" d="M232.8,278.5c4.7,1.8,10,3,14.8,1.5c8.1-2.4,12.5-11.7,12-20.1c-0.5-8.4-14-5.6-18.5-12.7
			c-8.9-13.9-22.1-22.1-28.9-37.1c-4.3-9.3,5-34.5-0.2-43.4C207,157.9,199,150,189,148.1c-2.6,1.1-4.6,3-6,5.3l3.3,101.2
			c0.1,3.3-0.2,6.5-0.6,9.8c-0.1,1.3-0.2,2.8,0.1,4.6c6.8,7,16.3,11.8,25.2,16.9C215.8,288.7,227.7,276.5,232.8,278.5z"/>
		<g>
			<g>
				<g>
					<path class="st5" d="M523.7,588.3c2,12.3-2.6,23.3-10.3,24.6c-7.7,1.2-15.5-7.8-17.4-20.1c-2-12.3,2.6-23.3,10.3-24.6
						S521.8,575.9,523.7,588.3z"/>
				</g>
				<g>
					<path class="st6" d="M515.9,589.5c0.9,5.4-1.1,10.1-4.5,10.7c-3.3,0.5-6.7-3.4-7.6-8.7c-0.9-5.4,1.1-10.1,4.5-10.7
						C511.6,580.3,515,584.2,515.9,589.5z"/>
				</g>
			</g>
			<g>
				<g>
					<path class="st5" d="M656.9,679.6c2,12.3-2.6,23.3-10.3,24.6c-7.7,1.2-15.5-7.8-17.4-20.1c-2-12.3,2.6-23.3,10.3-24.6
						S654.9,667.3,656.9,679.6z"/>
				</g>
				<g>
					<path class="st6" d="M649,680.8c0.9,5.4-1.1,10.1-4.5,10.7s-6.7-3.4-7.6-8.7c-0.9-5.4,1.1-10.1,4.5-10.6
						C644.8,671.6,648.1,675.5,649,680.8z"/>
				</g>
			</g>
			<g>
				<path class="st7" d="M600.8,731.3c-0.4,0-0.7-0.1-1.1-0.2L355.4,620c-1.1-0.5-1.7-1.7-1.5-2.9l5.1-25.5l-1.3-26.8l5.2-0.2
					l1.3,27.1c0,0.2,0,0.4,0,0.6l-4.8,23.8l241.3,109.8l82.9-43.9L503.7,562.9c-0.7-0.4-1.1-1.2-1.2-2l-3.5-61.4l5.2-0.3l3.5,60.1
					l182.5,120.8c0.8,0.5,1.2,1.4,1.2,2.3c0,0.9-0.6,1.7-1.4,2.2L602,731C601.6,731.2,601.2,731.3,600.8,731.3z"/>
			</g>
			<g>
				<path class="st8" d="M473.2,249.7l29.9,29c1.5,1.5,2.7,3.4,3.3,5.5l10.8,38.6c2.7,9.6-6.6,18.1-15.9,14.8l-4.5-1.6
					c-3.5-1.3-6.2-4-7.4-7.5l-12.8-37.3c-0.5-1.6-1.4-3-2.5-4.3l-18.4-20.2c-3.5-3.8-4.2-9.4-1.8-13.9l0,0
					C457.8,245.5,467.4,244,473.2,249.7z"/>
			</g>
			<g>
				<path class="st9" d="M385.8,557.4c-11.3-62.2-32.7-180.5-33.4-183.3l3.6-0.9c0.8,3.3,32.1,176.2,33.5,183.6L385.8,557.4z"/>
			</g>
			<g>
				
					<rect x="419.2" y="350.3" transform="matrix(0.9853 -0.171 0.171 0.9853 -69.1765 78.4665)" class="st9" width="3.7" height="181.2"/>
			</g>
			<g>
				
					<rect x="459.5" y="329" transform="matrix(0.9939 -0.1104 0.1104 0.9939 -43.7025 53.5225)" class="st9" width="3.7" height="184.6"/>
			</g>
			<g>
				<path class="st10" d="M467.6,252l29.9,29c1.5,1.5,2.7,3.4,3.3,5.5l10.8,38.6c2.7,9.6-6.6,18.1-15.9,14.8l-4.5-1.6
					c-3.5-1.3-6.2-4-7.4-7.5L471,293.4c-0.5-1.6-1.4-3-2.5-4.3L450.1,269c-3.5-3.8-4.2-9.4-1.8-13.9l0,0
					C452.1,247.8,461.8,246.3,467.6,252z"/>
			</g>
			<g>
				
					<rect x="357.5" y="533" transform="matrix(0.8935 -0.4491 0.4491 0.8935 -194.3799 251.4363)" class="st9" width="150.6" height="4.9"/>
			</g>
			<g>
				<g>
					<path class="st5" d="M377.4,647.5c2,12.3-2.6,23.3-10.3,24.6s-15.5-7.8-17.4-20.1c-2-12.3,2.6-23.3,10.3-24.6
						C367.6,626.1,375.4,635.1,377.4,647.5z"/>
				</g>
				<g>
					<path class="st6" d="M369.5,648.7c0.9,5.4-1.1,10.1-4.5,10.7c-3.3,0.5-6.7-3.4-7.6-8.7s1.1-10.1,4.5-10.7
						C365.3,639.5,368.7,643.4,369.5,648.7z"/>
				</g>
			</g>
			<g>
				<g>
					<path class="st5" d="M580.2,737.3c2,12.3-2.6,23.3-10.3,24.6c-7.7,1.2-15.5-7.8-17.4-20.1c-2-12.3,2.6-23.3,10.3-24.6
						S578.2,725,580.2,737.3z"/>
				</g>
				<g>
					<path class="st6" d="M572.3,738.6c0.9,5.4-1.1,10.1-4.5,10.7c-3.3,0.5-6.7-3.4-7.6-8.7s1.1-10.1,4.5-10.7
						C568.1,729.3,571.5,733.2,572.3,738.6z"/>
				</g>
			</g>
			<line class="st11" x1="397.5" y1="581.5" x2="515.6" y2="513.8"/>
			<line class="st11" x1="443.9" y1="600.3" x2="562" y2="532.6"/>
			<line class="st11" x1="486.3" y1="618.2" x2="604.4" y2="550.5"/>
			<g>
				<path class="st9" d="M592.2,545.2c-0.1,0-0.1,0-0.2,0c-0.7-0.1-1.2-0.7-1.1-1.4L609,398.2c0.1-0.7,0.7-1.2,1.4-1.1
					c0.7,0.1,1.2,0.7,1.1,1.4l-18.1,145.6C593.4,544.8,592.8,545.2,592.2,545.2z"/>
			</g>
			<g>
				<path class="st9" d="M552.5,525.4c0,0-0.1,0-0.1,0c-0.7-0.1-1.2-0.7-1.2-1.4L565,367.2c0.1-0.7,0.7-1.2,1.4-1.2
					c0.7,0.1,1.2,0.7,1.2,1.4l-13.8,156.8C553.7,524.9,553.2,525.4,552.5,525.4z"/>
			</g>
			<g>
				<path class="st9" d="M675.7,586.6c-0.1,0-0.1,0-0.2,0c-0.7-0.1-1.2-0.7-1.1-1.4l16.4-128.4c0.1-0.7,0.7-1.2,1.4-1.1
					c0.7,0.1,1.2,0.7,1.1,1.4L677,585.5C676.9,586.1,676.4,586.6,675.7,586.6z"/>
			</g>
			<g>
				<path class="st9" d="M509.4,500.4C509.4,500.4,509.4,500.4,509.4,500.4c-0.7,0-1.3-0.6-1.3-1.3l2.6-169.7c0-0.7,0.6-1.3,1.3-1.3
					c0,0,0,0,0,0c0.7,0,1.3,0.6,1.3,1.3l-2.6,169.7C510.7,499.9,510.1,500.4,509.4,500.4z"/>
			</g>
			<line class="st11" x1="525.5" y1="640.2" x2="643.6" y2="572.6"/>
			<path class="st7" d="M487.9,314.5l237.5,169.6l0,0l10.8-0.7c-0.2-0.8-0.6-1.6-1.4-2.1L490.6,306.8c-1.1-0.8-2.7-1-3.9-0.3
				l0.1,8.5L487.9,314.5z"/>
			<g>
				<path class="st9" d="M633.5,569.4c-0.1,0-0.1,0-0.2,0c-0.7-0.1-1.2-0.8-1.1-1.5c0.9-5.5,21.6-133.7,22.4-137.1
					c0.2-0.7,0.9-1.1,1.6-0.9c0.7,0.2,1.1,0.9,0.9,1.6c-0.7,2.7-14.9,90.7-22.4,136.9C634.7,568.9,634.1,569.4,633.5,569.4z"/>
			</g>
			<g>
				<path class="st7" d="M710.6,608.6c-0.5,0-1-0.1-1.5-0.3L499,508.7c-1.4-0.6-2.3-1.8-2.4-3.3l-13.4-191.2l7.7-0.6l13.3,188.8
					l203.5,96.8L726.2,489l7.4-2.6l-19.1,118.9c-0.2,1.2-0.9,2.2-1.9,2.7C711.9,608.4,711.3,608.6,710.6,608.6z"/>
			</g>
			<g>
				
					<rect x="588" y="633.8" transform="matrix(0.8653 -0.5013 0.5013 0.8653 -231.5802 413.6644)" class="st7" width="131.5" height="7.8"/>
			</g>
			<g>
				<path class="st7" d="M308,359.9l-3.8-2.3c-5.7-3.4-8.9-9.4-8.7-16.1c0.3-6.6,4-12.4,10-15.3l129.9-63.5
					c14.3-7,31.6-4.3,43.1,6.6c6.1,5.8,10.1,13.7,11.2,22.1l2.4,18.1l-7.7,1l-2.4-18.1c-0.9-6.7-4-12.9-8.9-17.5
					c-9.2-8.7-23-10.8-34.4-5.3l-129.9,63.5c-3.4,1.7-5.5,4.9-5.7,8.6c-0.2,3.8,1.7,7.2,4.9,9.1l3.8,2.3L308,359.9z"/>
			</g>
			<g>
				<path class="st10" d="M335.4,324.4c-3.4,0-6.6-1.9-8.2-5.1c-2.2-4.5-0.3-9.9,4.2-12.1l91.5-44c4.5-2.2,9.9-0.3,12.1,4.2
					c2.2,4.5,0.3,9.9-4.2,12.1l-91.5,44C338,324.1,336.7,324.4,335.4,324.4z"/>
			</g>
			<g>
				<g class="st12">
					<g>
						<path class="st13" d="M521.3,454.3c4.6,2.7,9.1,3.1,12.9,1.6l-6.8,2.6c-3.8,1.5-8.3,1-12.9-1.6c-10.6-6.1-17.7-21.5-15.9-34.5
							c2.3-0.9,4.5-1.8,6.8-2.6c-2.3,0.9-4.5,1.8-6.8,2.6c0.8-5.7,3.1-9.9,6.4-12.4l6.8-2.6c-3.3,2.5-5.6,6.7-6.4,12.4
							C503.7,432.8,510.8,448.2,521.3,454.3z"/>
					</g>
					<g>
						<path class="st13" d="M509.5,390c-0.8,5.7,0.2,11.8,2.3,17.4c-1.1,0.4-2.3,0.9-3.4,1.3c-0.9,0.3-1.7,0.7-2.6,1l-0.8,0.3
							c-2.2-5.6-3.1-11.8-2.3-17.4C504.9,391.8,507.2,390.9,509.5,390c-2.3,0.9-4.5,1.8-6.8,2.6c1-7.3,4.5-12.2,9.3-14.1l6.8-2.6
							C514,377.8,510.4,382.7,509.5,390z"/>
					</g>
					<g>
						<path class="st14" d="M514.8,405.7c-1.1,0.4-2.1,1-3,1.7l-6.8,2.6c0.9-0.7,1.9-1.3,3-1.7C510,407.6,512.7,406.5,514.8,405.7z"
							/>
					</g>
					<g>
						<path class="st15" d="M508,408.4l6.8-2.6c3.8-1.5,8.3-1,12.9,1.6l-6.8,2.6C516.3,407.4,511.7,406.9,508,408.4z"/>
					</g>
					<g>
						<path class="st15" d="M534.3,455.9l-6.8,2.6c4.8-1.9,8.4-6.8,9.3-14c0.8-5.7-0.2-11.8-2.3-17.5c-2.8-7.2-7.6-13.6-13.6-17
							l6.8-2.6c5.9,3.4,10.8,9.8,13.6,17c2.2,5.6,3.1,11.8,2.3,17.5C542.6,449.1,539.1,454.1,534.3,455.9z"/>
					</g>
					<g>
						<path class="st15" d="M520.9,410c5.9,3.4,10.8,9.8,13.6,17c2.2,5.6,3.1,11.8,2.3,17.5c-1.7,12.9-11.7,18.5-22.3,12.4
							c-10.6-6.1-17.7-21.5-15.9-34.5c0.8-5.7,3.1-9.9,6.4-12.4C509.2,406.9,514.9,406.6,520.9,410z"/>
					</g>
					<g>
						<path class="st14" d="M518.8,375.9c3.8-1.5,8.3-1,12.9,1.6l-6.8,2.6c-4.6-2.7-9.2-3.1-12.9-1.6
							C514,377.8,516.7,376.7,518.8,375.9z"/>
					</g>
					<g>
						<path class="st13" d="M573.1,495l6.8-2.6c-1.6,0.6-2.5,2.1-2.8,4.4c-0.3,2.2,0.1,4.4,1.2,6.5c1.1,2.1,2.7,3.8,4.6,4.9
							c2,1.2,3.7,1.4,5.1,0.9l-6.8,2.6c-1.4,0.5-3.1,0.3-5.1-0.9c-2-1.1-3.5-2.8-4.6-4.9c-1.1-2.1-1.5-4.3-1.2-6.5
							C570.6,497.2,571.5,495.7,573.1,495z"/>
					</g>
					<g>
						<path class="st14" d="M573.8,497.1l6.8-2.6c-1.2,0.5-1.9,1.5-2.1,3.1c-0.2,1.6,0.1,3.3,1.1,4.9l-6.8,2.6
							c-0.9-1.6-1.3-3.2-1.1-4.9C571.9,498.6,572.6,497.6,573.8,497.1z"/>
					</g>
					<g>
						<path class="st13" d="M573.8,497.1l6.8-2.6c0.1,0,0.1,0,0.2-0.1l-6.8,2.6C573.9,497.1,573.8,497.1,573.8,497.1z"/>
					</g>
					<g>
						<path class="st13" d="M573.3,495l6.8-2.6c-0.1,0-0.1,0-0.2,0.1l-6.8,2.6C573.2,495,573.3,495,573.3,495z"/>
					</g>
					<g>
						<path class="st14" d="M572.8,505.1l6.8-2.6c0.9,1.6,2.1,2.8,3.6,3.7c1.6,0.9,3,1.2,4.1,0.8l-6.8,2.6c-1.1,0.4-2.5,0.1-4.1-0.8
							C574.9,507.9,573.7,506.7,572.8,505.1z"/>
					</g>
					<g>
						<path class="st13" d="M573.9,497.1l6.8-2.6c1.2-0.5,2.8-0.1,4.8,1l-6.8,2.6C576.8,496.9,575.2,496.6,573.9,497.1z"/>
					</g>
					<g>
						<polygon class="st13" points="578.7,498 585.5,495.4 587,496.2 580.2,498.9 						"/>
					</g>
					<g>
						<path class="st14" d="M573.3,495l6.8-2.6c1.5-0.6,3.5-0.2,5.8,1.1l-6.8,2.6C576.8,494.7,574.9,494.3,573.3,495z"/>
					</g>
					<g>
						<path class="st13" d="M579.7,477.1c-0.3,2.5,0,4.7,1.1,6.7l-6.8,2.6c-1.1-1.9-1.4-4.2-1.1-6.7c0.2-0.1,0.6-0.2,0.8-0.3
							c0.3-0.1,0.6-0.2,0.8-0.3c0.3-0.1,0.6-0.2,0.9-0.3c0.3-0.1,0.6-0.2,0.9-0.3c0.3-0.1,0.6-0.2,0.9-0.3c0.3-0.1,0.6-0.2,0.9-0.3
							c0.3-0.1,0.6-0.2,0.8-0.3C579.2,477.3,579.5,477.2,579.7,477.1z"/>
					</g>
					<g>
						<path class="st14" d="M524.9,380.2c10.5,6.1,17.7,21.5,15.9,34.5c-0.8,5.7-3.1,9.9-6.4,12.4c-2.8-7.2-7.6-13.6-13.6-17
							c-5.9-3.4-11.7-3.2-15.9,0c-2.2-5.6-3.1-11.8-2.3-17.4C504.4,379.7,514.4,374.1,524.9,380.2z"/>
					</g>
					<g>
						<path class="st14" d="M547.6,412c-0.8,5.7-3.1,9.9-6.4,12.4l-6.8,2.6c3.3-2.5,5.6-6.7,6.4-12.4c1.8-13-5.4-28.4-15.9-34.5
							l6.8-2.6C542.2,383.7,549.4,399.1,547.6,412z"/>
					</g>
					<g>
						<path class="st13" d="M582.1,502.3l6.8-2.6c0.5,1.3,0.6,2.7,0.4,4.1c-0.2,1.8-0.9,2.9-2,3.3l-6.8,2.6c1.1-0.4,1.8-1.5,2-3.3
							C582.7,505,582.6,503.6,582.1,502.3z"/>
					</g>
					<g>
						<path class="st13" d="M580.2,498.9l6.8-2.6c0.9,0.9,1.5,2,1.9,3.4l-6.8,2.6C581.7,500.9,581,499.8,580.2,498.9z"/>
					</g>
					<g>
						<path class="st14" d="M583.6,503.7l6.8-2.6c0.3,1.3,0.4,2.6,0.2,3.9c-0.3,2.2-1.2,3.6-2.6,4.2l-6.8,2.6c1.4-0.6,2.3-2,2.6-4.2
							C584,506.2,583.9,505,583.6,503.7z"/>
					</g>
					<g>
						<polygon class="st13" points="582.3,500.1 589.1,497.4 590.8,498.5 584,501.1 						"/>
					</g>
					<g>
						<path class="st14" d="M582.3,500.1l6.8-2.6c0.6,1.1,1.1,2.3,1.4,3.6l-6.8,2.6C583.4,502.4,582.9,501.2,582.3,500.1z"/>
					</g>
					<g>
						<polygon class="st13" points="588.1,514.8 594.9,512.2 596.1,513.5 589.3,516.1 						"/>
					</g>
					<g>
						<path class="st13" d="M589,513.3l6.8-2.6c-0.2,0.5-0.5,1-0.9,1.5l-6.8,2.6C588.4,514.3,588.7,513.8,589,513.3z"/>
					</g>
					<g>
						<path class="st13" d="M584,501.1l6.8-2.6c1.9,1.1,3.3,2.6,4.3,4.5l-6.8,2.6C587.4,503.7,585.9,502.2,584,501.1z"/>
					</g>
					<g>
						<path class="st13" d="M588.4,505.6l6.8-2.6c1,1.9,1.3,3.7,1.1,5.6c-0.1,0.9-0.3,1.6-0.5,2.2l-6.8,2.6c0.2-0.5,0.4-1.3,0.5-2.2
							C589.7,509.3,589.4,507.5,588.4,505.6z"/>
					</g>
					<g>
						<path class="st14" d="M589.5,504.7l6.8-2.6c1.3,2.5,1.7,4.9,1.4,7.2c-0.1,0.8-0.3,1.7-0.6,2.4c-0.3,0.8-0.6,1.3-1,1.8
							l-6.8,2.6c0.4-0.5,0.7-1.1,1-1.8c0.3-0.7,0.4-1.5,0.6-2.4C591.2,509.6,590.8,507.1,589.5,504.7z"/>
					</g>
					<g>
						<polygon class="st14" points="579.1,496.1 585.9,493.4 590.9,496.3 584.2,499 						"/>
					</g>
					<g>
						<path class="st13" d="M581.8,472.8c-1.1,0.8-1.8,2.2-2.1,4.3c-2.3,0.9-4.5,1.8-6.8,2.6c0.3-2.1,1-3.5,2.1-4.3
							C577.1,474.7,579.8,473.6,581.8,472.8z"/>
					</g>
					<g>
						<path class="st14" d="M576.3,477.3l6.8-2.6c-0.1,0-0.2,0.1-0.3,0.2l-6.8,2.6C576.1,477.4,576.2,477.3,576.3,477.3z"/>
					</g>
					<g>
						<path class="st13" d="M575.7,475.1l6.8-2.6c-0.2,0.1-0.4,0.2-0.6,0.3l-6.8,2.6C575.2,475.3,575.4,475.2,575.7,475.1z"/>
					</g>
					<g>
						<path class="st13" d="M585.4,488.5c1.9,1.1,3.6,1.4,4.9,0.9l-6.8,2.6c-1.3,0.5-3,0.2-4.9-0.9c-2.1-1.2-3.6-2.7-4.6-4.7
							l6.8-2.6C581.8,485.7,583.4,487.3,585.4,488.5z"/>
					</g>
					<g>
						<path class="st14" d="M576,477.4l6.8-2.6c-0.8,0.5-1.4,1.6-1.6,3.2c-0.2,1.8,0,3.5,0.8,4.9c0.8,1.4,2,2.6,3.7,3.6
							c1.5,0.9,2.7,1.1,3.8,0.7l-6.8,2.6c-1,0.4-2.3,0.1-3.8-0.7c-1.7-1-3-2.2-3.7-3.6c-0.8-1.4-1.1-3.1-0.8-4.9
							C574.6,479,575.1,478,576,477.4z"/>
					</g>
					<g>
						<path class="st13" d="M591.4,484.1c-0.2,1.6-0.9,2.6-1.9,3l-6.8,2.6c1-0.4,1.7-1.4,1.9-3c0.2-1.6,0.2-2.9-0.1-4l6.8-2.6
							C591.5,481.2,591.6,482.6,591.4,484.1z"/>
					</g>
					<g>
						<path class="st14" d="M586.1,484.6l6.8-2.6c0.1,0.9,0.1,2,0,3.3c-0.3,2.1-1.1,3.5-2.4,4.1l-6.8,2.6c1.3-0.6,2.2-2,2.4-4.1
							C586.2,486.6,586.2,485.5,586.1,484.6z"/>
					</g>
					<g>
						<path class="st14" d="M590.3,489.4l-6.8,2.6c0,0,0.1,0,0.1,0l6.8-2.6C590.4,489.3,590.4,489.3,590.3,489.4z"/>
					</g>
					<g>
						<path class="st14" d="M584.2,499l6.8-2.6c2.3,1.4,4.1,3.2,5.4,5.7l-6.8,2.6C588.3,502.2,586.5,500.3,584.2,499z"/>
					</g>
					<g>
						<path class="st13" d="M576.3,477.3l6.8-2.6c0.8-0.3,1.8-0.1,3,0.5l-6.8,2.6C578.1,477.1,577.1,477,576.3,477.3z"/>
					</g>
					<g>
						<path class="st14" d="M575.7,475.1l6.8-2.6c1-0.4,2.2-0.2,3.6,0.7l-6.8,2.6C577.8,475,576.6,474.8,575.7,475.1z"/>
					</g>
					<g>
						<path class="st14" d="M579.2,475.8l6.8-2.6c0,0,0.1,0.1,0.2,0.1l-6.8,2.6C579.3,475.9,579.3,475.8,579.2,475.8z"/>
					</g>
					<g>
						<polygon class="st14" points="579.4,475.9 586.2,473.2 586.3,473.3 579.5,476 						"/>
					</g>
					<g>
						<polygon class="st14" points="579.5,476 586.3,473.3 586,475.1 579.2,477.8 						"/>
					</g>
					<g>
						<polygon class="st13" points="575.5,463.4 582.3,460.8 582,462.8 575.2,465.5 						"/>
					</g>
					<g>
						<path class="st13" d="M582.8,479.9l6.8-2.6c0.8,0.8,1.3,1.8,1.6,2.9l-6.8,2.6C584.1,481.7,583.6,480.8,582.8,479.9z"/>
					</g>
					<g>
						<polygon class="st13" points="579.7,472.3 586.5,469.6 588,470.4 581.2,473.1 						"/>
					</g>
					<g>
						<polygon class="st13" points="583.3,478.4 590.1,475.8 589.6,477.3 582.8,479.9 						"/>
					</g>
					<g>
						<path class="st14" d="M585.3,481.9l6.8-2.6c0.4,0.9,0.6,1.8,0.8,2.6l-6.8,2.6C585.9,483.7,585.6,482.8,585.3,481.9z"/>
					</g>
					<g>
						<polygon class="st13" points="575.2,465.5 582,462.8 587.1,465.8 580.3,468.4 						"/>
					</g>
					<g>
						<polygon class="st13" points="580.3,468.4 587.1,465.8 586.5,469.6 579.7,472.3 						"/>
					</g>
					<g>
						<polygon class="st13" points="585.3,481.9 592.1,479.3 599.1,484.3 592.3,487 						"/>
					</g>
					<g>
						<polygon class="st13" points="592.3,487 599.1,484.3 597.7,494.6 590.9,497.2 						"/>
					</g>
					<g>
						<polygon class="st14" points="594.1,486.1 600.9,483.5 599.2,495.5 592.5,498.1 						"/>
					</g>
					<g>
						<polygon class="st13" points="590.9,497.2 597.7,494.6 599.2,495.5 592.5,498.1 						"/>
					</g>
					<g>
						<polygon class="st14" points="575.5,463.4 582.3,460.8 587.3,463.7 580.5,466.4 						"/>
					</g>
					<g>
						<polygon class="st14" points="581.7,469.2 588.5,466.6 588,470.4 581.2,473.1 						"/>
					</g>
					<g>
						<polygon class="st13" points="579.5,433.8 586.3,431.1 584.2,446.5 577.4,449.1 						"/>
					</g>
					<g>
						<polygon class="st14" points="580.5,437.2 587.3,434.6 585.6,447.3 578.8,449.9 						"/>
					</g>
					<g>
						<polygon class="st13" points="577.4,449.1 584.2,446.5 585.6,447.3 578.8,449.9 						"/>
					</g>
					<g>
						<path class="st14" d="M579.2,475.8c0,0,0.1,0.1,0.2,0.1l0.1,0.1l-0.2,1.8c-1.3-0.8-2.4-0.9-3.3-0.4c-0.8,0.5-1.4,1.6-1.6,3.2
							c-0.2,1.8,0,3.5,0.8,4.9c0.8,1.4,2,2.6,3.7,3.6c1.5,0.9,2.7,1.1,3.8,0.7c1-0.4,1.7-1.4,1.9-3c0.2-1.6,0.2-2.9-0.1-4
							c-0.3-1.1-0.8-2.1-1.6-2.9l0.4-1.5l10.8,7.7l-1.6,12l-1.5-0.9l1.4-10.2l-7-5.1c0.4,0.9,0.6,1.8,0.8,2.6c0.1,0.9,0.1,2,0,3.3
							c-0.3,2.1-1.1,3.5-2.4,4.1c-1.4,0.6-3,0.3-5-0.8c-2.1-1.2-3.6-2.7-4.6-4.7c-1.1-1.9-1.4-4.2-1.1-6.7c0.3-2.1,1-3.5,2.1-4.3
							C576.1,474.7,577.5,474.8,579.2,475.8z"/>
					</g>
					<g>
						<polygon class="st14" points="583.3,478.4 590.1,475.8 600.9,483.5 594.1,486.1 						"/>
					</g>
					<g>
						<polygon class="st13" points="582.1,454.8 588.9,452.2 587.3,463.7 580.5,466.4 						"/>
					</g>
					<g>
						<polygon class="st14" points="583.2,458 590,455.4 588.7,464.5 581.9,467.2 						"/>
					</g>
					<g>
						<polygon class="st14" points="582.1,454.8 588.9,452.2 589.8,452.7 583,455.3 						"/>
					</g>
					<g>
						<polygon class="st14" points="595.6,474.9 602.4,472.2 602.1,474.4 595.3,477.1 						"/>
					</g>
					<g>
						<polygon class="st13" points="581.7,469.2 588.5,466.6 602.1,474.4 595.3,477.1 						"/>
					</g>
					<g>
						<polygon class="st13" points="592,472 598.8,469.3 600.2,471.1 593.4,473.7 						"/>
					</g>
					<g>
						<polygon class="st13" points="593.4,473.7 600.2,471.1 600.2,471.2 593.4,473.8 						"/>
					</g>
					<g>
						<polygon class="st14" points="581.9,467.2 588.7,464.5 600.2,471.2 593.4,473.8 						"/>
					</g>
					<g>
						<polygon class="st13" points="583.2,458 590,455.4 598.8,469.3 592,472 						"/>
					</g>
					<g>
						<polygon class="st14" points="583,455.3 589.8,452.7 602.4,472.2 595.6,474.9 						"/>
					</g>
					<g>
						<polygon class="st13" points="580.6,437.2 587.4,434.6 592.7,445 585.9,447.6 						"/>
					</g>
					<g>
						<path class="st13" d="M603,454.6l-6.8,2.6c-1.1,0.4-2.3,0.2-3.8-0.7c-1.1-0.6-2.2-1.7-3.2-3.2c-1-1.5-2.1-3.4-3.3-5.8l6.8-2.6
							c1.2,2.3,2.3,4.3,3.3,5.8c1,1.5,2.1,2.6,3.2,3.2C600.7,454.8,602,455,603,454.6z"/>
					</g>
					<g>
						<path class="st14" d="M602.4,452.4l-6.8,2.6c-0.8,0.3-1.8,0.1-3-0.5c-0.9-0.5-1.7-1.3-2.5-2.5c-0.9-1.2-1.9-2.9-3-5.2l6.8-2.6
							c1.2,2.3,2.2,4,3,5.2c0.8,1.1,1.7,1.9,2.5,2.5C600.6,452.6,601.6,452.7,602.4,452.4z"/>
					</g>
					<g>
						<polygon class="st14" points="580.8,434.6 587.6,431.9 593.9,444.3 587.1,446.9 						"/>
					</g>
					<g>
						<polygon class="st13" points="593.9,441.6 600.6,439 600.4,440.9 593.6,443.5 						"/>
					</g>
					<g>
						<path class="st13" d="M593.6,443.5l6.8-2.6c1.4,0.8,2.5,2,3.2,3.4l-6.8,2.6C596.1,445.5,595,444.3,593.6,443.5z"/>
					</g>
					<g>
						<path class="st13" d="M602.7,452.3c-0.1,0-0.1,0.1-0.2,0.1l-6.8,2.6c0.1,0,0.1-0.1,0.2-0.1c0.9-0.4,1.4-1.4,1.6-3
							c0.3-1.9,0-3.5-0.7-5l6.8-2.6c0.7,1.4,0.9,3.1,0.7,5C604.1,450.9,603.5,451.9,602.7,452.3z"/>
					</g>
					<g>
						<path class="st14" d="M594.1,441.7c1.6,0.9,2.9,2.4,3.8,4.4c1,2,1.3,4.3,1,6.6c-0.3,2.1-1,3.5-2.2,4.3
							c-1.2,0.7-2.6,0.6-4.3-0.4c-1.1-0.6-2.2-1.7-3.2-3.2c-1-1.5-2.1-3.4-3.3-5.8l-5.3-10.4l-0.1,0l-1.7,12.7l-1.4-0.8l2.1-15.3
							l1.3,0.8l6.3,12.3c1.2,2.3,2.2,4,3,5.2c0.8,1.1,1.7,1.9,2.5,2.5c1.2,0.7,2.3,0.9,3.2,0.4c0.9-0.4,1.4-1.4,1.6-3
							c0.3-1.9,0-3.5-0.7-5c-0.7-1.5-1.8-2.6-3.2-3.4l0.3-1.9l0.1,0C594,441.7,594,441.7,594.1,441.7z"/>
					</g>
					<g>
						<polygon class="st13" points="581.9,436.7 580.5,437.2 580.6,437.2 581.9,436.7 						"/>
					</g>
					<g>
						<path class="st14" d="M583,455.3l12.5,19.5l-0.3,2.2l-13.6-7.9l-0.5,3.8l-1.4-0.8l0.5-3.8l-5.1-2.9l0.3-2l5.1,2.9l1.6-11.6
							L583,455.3z M593.4,473.8l0-0.1L592,472l-8.9-14l-1.2,9.2L593.4,473.8"/>
					</g>
					<g>
						<polygon class="st14" points="579.5,433.8 586.3,431.1 587.6,431.9 580.8,434.6 						"/>
					</g>
					<g>
						<polygon class="st14" points="593.9,441.6 600.6,439 600.7,439 593.9,441.7 						"/>
					</g>
					<g>
						<path class="st14" d="M593.9,441.7l6.8-2.6c0,0,0.1,0.1,0.1,0.1l-6.8,2.6C594,441.7,594,441.7,593.9,441.7z"/>
					</g>
					<g>
						<polygon class="st13" points="584.3,397.7 591.1,395 589.1,410.3 582.3,413 						"/>
					</g>
					<g>
						<polygon class="st14" points="585.4,401.1 592.2,398.5 590.5,411.1 583.7,413.8 						"/>
					</g>
					<g>
						<polygon class="st13" points="582.3,413 589.1,410.3 590.5,411.1 583.7,413.8 						"/>
					</g>
					<g>
						<path class="st14" d="M603,454.6l-6.8,2.6c0.2-0.1,0.3-0.1,0.5-0.2c1.1-0.7,1.9-2.1,2.2-4.3c0.3-2.3,0-4.6-1-6.6
							c-1-2-2.2-3.4-3.8-4.4l6.8-2.6c1.6,0.9,2.9,2.4,3.8,4.4c1,2,1.3,4.3,1,6.6c-0.3,2.1-1,3.5-2.2,4.3
							C603.4,454.4,603.2,454.5,603,454.6z"/>
					</g>
					<g>
						<polygon class="st13" points="585.4,401.1 592.2,398.5 592.3,398.4 585.5,401.1 						"/>
					</g>
					<g>
						<polygon class="st14" points="584.3,397.7 591.1,395 592.5,395.8 585.7,398.4 						"/>
					</g>
					<g>
						<polygon class="st13" points="585.5,401.1 592.3,398.4 597.6,408.8 590.8,411.5 						"/>
					</g>
					<g>
						<path class="st13" d="M597.6,408.8c1.2,2.3,2.3,4.3,3.3,5.8c-2.3,0.9-4.5,1.8-6.8,2.6c-1-1.5-2.1-3.4-3.3-5.8
							C592.9,410.7,595.6,409.6,597.6,408.8z"/>
					</g>
					<g>
						<polygon class="st14" points="585.7,398.4 592.5,395.8 598.8,408.2 592,410.8 						"/>
					</g>
					<g>
						<polygon class="st13" points="585.9,385.5 592.7,382.8 592.4,384.9 585.6,387.5 						"/>
					</g>
					<g>
						<path class="st13" d="M604.1,417.8c1.5,0.8,2.7,1.1,3.8,0.6l-6.8,2.6c-1.1,0.4-2.4,0.2-3.8-0.6c-1.1-0.6-2.2-1.7-3.2-3.2
							c0.2-0.1,0.6-0.2,0.8-0.3c0.3-0.1,0.6-0.2,0.8-0.3c0.3-0.1,0.6-0.2,0.9-0.3c0.3-0.1,0.6-0.2,0.9-0.3c0.3-0.1,0.6-0.2,0.9-0.3
							c0.3-0.1,0.6-0.2,0.9-0.3c0.3-0.1,0.6-0.2,0.8-0.3c0.2-0.1,0.6-0.2,0.8-0.3C602,416.1,603,417.2,604.1,417.8z"/>
					</g>
					<g>
						<path class="st14" d="M607.3,416.3l-6.8,2.6c-0.8,0.3-1.8,0.1-3-0.5c-0.9-0.5-1.7-1.3-2.5-2.5c-0.9-1.2-1.9-2.9-3-5.1l6.8-2.6
							c1.2,2.3,2.2,4,3,5.1c0.8,1.1,1.7,1.9,2.5,2.5C605.5,416.4,606.5,416.6,607.3,416.3z"/>
					</g>
					<g>
						<path class="st13" d="M601.7,410.8l6.8-2.6c0.7,1.5,0.9,3.1,0.7,5c-0.2,1.6-0.8,2.6-1.6,3l-6.8,2.6c0.9-0.4,1.4-1.4,1.6-3
							C602.6,414,602.4,412.3,601.7,410.8z"/>
					</g>
					<g>
						<path class="st13" d="M607.3,416.3l-6.8,2.6c0.1,0,0.1-0.1,0.2-0.1l6.8-2.6C607.5,416.2,607.4,416.3,607.3,416.3z"/>
					</g>
					<g>
						<path class="st13" d="M598.5,407.4l6.8-2.6c1.4,0.8,2.5,2,3.2,3.4l-6.8,2.6C600.9,409.4,599.9,408.2,598.5,407.4z"/>
					</g>
					<g>
						<path class="st14" d="M602.8,410l6.8-2.6c1,2.1,1.3,4.3,1,6.7c-0.3,2.1-1,3.5-2.2,4.3l-6.8,2.6c1.1-0.7,1.9-2.1,2.2-4.3
							C604.1,414.3,603.8,412.1,602.8,410z"/>
					</g>
					<g>
						<path class="st14" d="M607.9,418.5l-6.8,2.6c0.2-0.1,0.3-0.1,0.5-0.2l6.8-2.6C608.3,418.3,608.1,418.4,607.9,418.5z"/>
					</g>
					<g>
						<polygon class="st13" points="646.1,549 652.9,546.4 663.3,552.4 656.5,555 						"/>
					</g>
					<g>
						<polygon class="st13" points="598.7,405.5 605.5,402.9 605.3,404.7 598.5,407.4 						"/>
					</g>
					<g>
						<polygon class="st14" points="598.7,405.5 605.5,402.9 605.6,402.9 598.8,405.5 						"/>
					</g>
					<g>
						<path class="st14" d="M598.8,405.5l6.8-2.6c0,0,0.1,0.1,0.1,0.1l-6.8,2.6C598.9,405.6,598.9,405.6,598.8,405.5z"/>
					</g>
					<g>
						<path class="st14" d="M599,405.6l6.8-2.6c1.6,0.9,2.9,2.4,3.8,4.4l-6.8,2.6C601.8,408,600.6,406.5,599,405.6z"/>
					</g>
					<g>
						<polygon class="st13" points="537.6,258.9 544.4,256.2 554.8,262.2 548,264.9 						"/>
					</g>
					<g>
						<path class="st13" d="M591.2,361.3l6.8-2.6c-1.6,0.6-2.6,2.1-2.9,4.5c-0.3,2.5,0.1,4.8,1.3,7c1.2,2.2,3.1,4,5.7,5.5l-6.8,2.6
							c-2.6-1.5-4.5-3.3-5.7-5.5c-1.2-2.2-1.6-4.5-1.3-7C588.7,363.4,589.6,361.9,591.2,361.3z"/>
					</g>
					<g>
						<path class="st14" d="M590.9,371.9l6.8-2.6c1,1.6,2.5,3.1,4.6,4.3l-6.8,2.6C593.4,375,591.8,373.5,590.9,371.9z"/>
					</g>
					<g>
						<polygon class="st13" points="585.6,387.5 592.4,384.9 612.7,396.6 605.9,399.2 						"/>
					</g>
					<g>
						<polygon class="st14" points="585.9,385.5 592.7,382.8 611.2,393.5 604.4,396.2 						"/>
					</g>
					<g>
						<path class="st14" d="M591.7,363.4l6.8-2.6c-1.1,0.4-1.8,1.5-2,3.2c-0.3,1.9,0.1,3.7,1.1,5.3l-6.8,2.6c-1-1.6-1.4-3.4-1.1-5.3
							C590,364.9,590.6,363.8,591.7,363.4z"/>
					</g>
					<g>
						<polygon class="st13" points="595.4,378.3 602.2,375.7 606.7,378.3 599.9,380.9 						"/>
					</g>
					<g>
						<polygon class="st14" points="595.4,376.2 602.2,373.5 607.2,376.4 600.4,379 						"/>
					</g>
					<g>
						<polygon class="st13" points="604.6,389.6 611.4,386.9 611.2,393.5 604.4,396.2 						"/>
					</g>
					<g>
						<polygon class="st14" points="605.8,390.2 605.9,399.2 585.6,387.5 585.9,385.5 604.4,396.2 604.6,389.6 						"/>
					</g>
					<g>
						<polygon class="st14" points="605.8,390.2 612.6,387.6 612.7,396.6 605.9,399.2 						"/>
					</g>
					<g>
						<polygon class="st14" points="604.6,389.6 611.4,386.9 612.6,387.6 605.8,390.2 						"/>
					</g>
					<g>
						<path class="st13" d="M591.7,363.4l6.8-2.6c0.1,0,0.2-0.1,0.3-0.1c1.3-0.3,2.9,0.1,5,1.3l-6.8,2.6c-2.1-1.2-3.7-1.6-5-1.3
							C591.9,363.3,591.8,363.4,591.7,363.4z"/>
					</g>
					<g>
						<path class="st14" d="M591.2,361.3l6.8-2.6c1.6-0.6,3.7-0.1,6.2,1.4l-6.8,2.6C594.9,361.2,592.8,360.7,591.2,361.3z"/>
					</g>
					<g>
						<path class="st13" d="M606.7,378.3c2.6,1.5,4.7,2,6.3,1.4l-6.8,2.6c-1.6,0.6-3.7,0.1-6.3-1.4
							C601.9,380.1,604.6,379.1,606.7,378.3z"/>
					</g>
					<g>
						<path class="st14" d="M600.4,379l6.8-2.6c2.1,1.2,3.7,1.6,4.9,1.2l-6.8,2.6C604.1,380.6,602.5,380.2,600.4,379z"/>
					</g>
					<g>
						<path class="st14" d="M612.4,377.6l-6.8,2.6c-0.1,0-0.1,0.1-0.2,0.1l6.8-2.6C612.2,377.6,612.3,377.6,612.4,377.6z"/>
					</g>
					<g>
						<path class="st13" d="M591.7,342.6l6.8-2.6c-0.3,0.8-0.5,1.6-0.6,2.5c-0.3,2.5,0.1,4.8,1.1,7.1c1.1,2.2,2.8,4,5.1,5.4
							l-6.8,2.6c-2.3-1.3-4-3.1-5.1-5.4c-1.1-2.3-1.5-4.6-1.1-7.1C591.3,344.2,591.4,343.4,591.7,342.6z"/>
					</g>
					<g>
						<polygon class="st13" points="597,364.6 603.8,361.9 608.8,364.8 602,367.5 						"/>
					</g>
					<g>
						<path class="st14" d="M593.1,343.5l6.8-2.6c-0.2,0.7-0.4,1.5-0.5,2.4c-0.3,1.9,0.1,3.7,0.9,5.4c0.9,1.7,2.3,3.1,4.2,4.2
							l-6.8,2.6c-1.9-1.1-3.3-2.5-4.2-4.2c-0.8-1.7-1.2-3.5-0.9-5.4C592.7,345,592.8,344.2,593.1,343.5z"/>
					</g>
					<g>
						<polygon class="st14" points="597.5,362.7 604.3,360 608.8,362.6 602,365.3 						"/>
					</g>
					<g>
						<path class="st13" d="M592.7,340.4l6.8-2.6c-0.4,0.6-0.7,1.4-1,2.2l-6.8,2.6C592,341.8,592.3,341.1,592.7,340.4z"/>
					</g>
					<g>
						<polygon class="st14" points="597.7,355.5 604.4,352.8 606.4,354 599.6,356.6 						"/>
					</g>
					<g>
						<path class="st13" d="M614.4,374.3c-0.2,1.8-0.9,2.9-2,3.3l-6.8,2.6c1.1-0.4,1.8-1.5,2-3.3c0.2-0.1,0.6-0.2,0.8-0.3
							c0.3-0.1,0.6-0.2,0.8-0.3c0.3-0.1,0.6-0.2,0.9-0.3c0.3-0.1,0.6-0.2,0.9-0.3c0.3-0.1,0.6-0.2,0.9-0.3c0.3-0.1,0.6-0.2,0.9-0.3
							c0.3-0.1,0.6-0.2,0.8-0.3C613.9,374.5,614.2,374.3,614.4,374.3z"/>
					</g>
					<g>
						<path class="st14" d="M594,341.6l6.8-2.6c-0.4,0.6-0.7,1.2-1,1.9l-6.8,2.6C593.3,342.9,593.6,342.2,594,341.6z"/>
					</g>
					<g>
						<polygon class="st14" points="592.7,340.4 599.5,337.8 600.8,339 594,341.6 						"/>
					</g>
					<g>
						<path class="st13" d="M608.8,364.8c2.1,1.2,3.6,2.6,4.6,4.2l-6.8,2.6c-1-1.6-2.5-3-4.6-4.2C604,366.7,606.8,365.6,608.8,364.8
							z"/>
					</g>
					<g>
						<path class="st13" d="M613.3,369c1,1.6,1.3,3.4,1.1,5.3c-2.3,0.9-4.5,1.8-6.8,2.6c0.3-1.9-0.1-3.6-1.1-5.3
							C608.6,370.9,611.3,369.8,613.3,369z"/>
					</g>
					<g>
						<polygon class="st13" points="597.4,357.6 604.2,354.9 610.1,358.4 603.3,361 						"/>
					</g>
					<g>
						<path class="st13" d="M600.4,345l6.8-2.6c-1.4,0.7-2.3,2.1-2.6,4.3c-0.2,1.2-0.1,2.5,0.2,3.8c0.3,1.3,0.9,2.5,1.6,3.6
							l-6.8,2.6c-0.8-1.1-1.3-2.2-1.6-3.6c-0.3-1.3-0.4-2.5-0.2-3.8C598.1,347,599,345.6,600.4,345z"/>
					</g>
					<g>
						<path class="st14" d="M599.6,354.3l6.8-2.6c0.5,1.3,1.1,2.5,2,3.4l-6.8,2.6C600.7,356.8,600.1,355.7,599.6,354.3z"/>
					</g>
					<g>
						<path class="st14" d="M602,365.3l6.8-2.6c2.6,1.5,4.5,3.3,5.7,5.5l-6.8,2.6C606.5,368.6,604.6,366.8,602,365.3z"/>
					</g>
					<g>
						<path class="st14" d="M607.7,370.8l6.8-2.6c1.2,2.2,1.7,4.5,1.3,6.9c-0.3,2.5-1.3,4-2.9,4.6l-6.8,2.6c1.6-0.6,2.5-2.1,2.9-4.6
							C609.4,375.3,608.9,372.9,607.7,370.8z"/>
					</g>
					<g>
						<polygon class="st14" points="601.6,357.7 608.4,355.1 610.5,356.3 603.7,359 						"/>
					</g>
					<g>
						<polygon class="st13" points="563.6,273.9 570.4,271.3 580.8,277.3 574,279.9 						"/>
					</g>
					<g>
						<path class="st14" d="M601.2,347.1l6.8-2.6c-1.1,0.4-1.8,1.4-2,3c-0.2,1.5-0.1,2.9,0.4,4.2l-6.8,2.6c-0.5-1.4-0.6-2.8-0.4-4.2
							C599.4,348.5,600.1,347.5,601.2,347.1z"/>
					</g>
					<g>
						<path class="st13" d="M601.2,347.1l6.8-2.6c0,0,0.1,0,0.1,0l-6.8,2.6C601.2,347.1,601.2,347.1,601.2,347.1z"/>
					</g>
					<g>
						<path class="st13" d="M607.3,342.3C607.3,342.3,607.2,342.3,607.3,342.3l-6.9,2.7c0,0,0.1,0,0.1,0
							C602.5,344.1,605.3,343.1,607.3,342.3z"/>
					</g>
					<g>
						<path class="st13" d="M610.1,358.4c2.3,1.3,4.1,1.7,5.5,1.1l-6.8,2.6c-1.4,0.5-3.3,0.2-5.5-1.1
							C605.3,360.2,608.1,359.2,610.1,358.4z"/>
					</g>
					<g>
						<path class="st14" d="M603.7,359l6.8-2.6c1.9,1.1,3.4,1.4,4.6,1l-6.8,2.6C607.2,360.4,605.6,360.1,603.7,359z"/>
					</g>
					<g>
						<path class="st13" d="M617.1,354c-0.2,1.7-0.9,2.8-2,3.3l-6.8,2.6c1.1-0.4,1.8-1.6,2-3.3c0.2-0.1,0.6-0.2,0.8-0.3
							c0.3-0.1,0.6-0.2,0.8-0.3c0.3-0.1,0.6-0.2,0.9-0.3c0.3-0.1,0.6-0.2,0.9-0.3c0.3-0.1,0.6-0.2,0.9-0.3c0.3-0.1,0.6-0.2,0.9-0.3
							c0.3-0.1,0.6-0.2,0.8-0.3C616.6,354.3,616.9,354.1,617.1,354z"/>
					</g>
					<g>
						<path class="st14" d="M615.1,357.3l-6.8,2.6c0,0,0,0,0,0L615.1,357.3C615.1,357.3,615.1,357.3,615.1,357.3z"/>
					</g>
					<g>
						<path class="st13" d="M608.1,344.4c1.2-0.4,2.5-0.1,4.1,0.8c-2.3,0.9-4.5,1.8-6.8,2.6c-1.5-0.9-2.9-1.2-4.1-0.8
							C603.3,346.3,606,345.1,608.1,344.4z"/>
					</g>
					<g>
						<path class="st13" d="M612.1,345.2c1.6,0.9,2.9,2.2,3.9,3.9l-6.8,2.6c-1-1.7-2.3-3-3.9-3.9c0.2-0.1,0.6-0.2,0.8-0.3
							c0.3-0.1,0.6-0.2,0.8-0.3c0.3-0.1,0.6-0.2,0.9-0.3c0.3-0.1,0.6-0.2,0.9-0.3c0.3-0.1,0.6-0.2,0.9-0.3c0.3-0.1,0.6-0.2,0.9-0.3
							c0.3-0.1,0.6-0.2,0.8-0.3C611.6,345.5,611.9,345.3,612.1,345.2z"/>
					</g>
					<g>
						<path class="st13" d="M616,349.1c1,1.7,1.4,3.3,1.2,4.9c-2.3,0.9-4.5,1.8-6.8,2.6c0.2-1.6-0.2-3.2-1.2-4.9
							C611.2,351,614,349.9,616,349.1z"/>
					</g>
					<g>
						<path class="st13" d="M609.2,351.8c1,1.7,1.4,3.3,1.2,4.9c-0.2,1.7-0.9,2.9-2.1,3.3c-1.1,0.5-2.7,0.1-4.6-1l-2.1-1.2
							c-0.8-0.9-1.5-2.1-2-3.4c-0.5-1.4-0.6-2.8-0.4-4.2c0.2-1.6,0.9-2.6,2.1-3c1.2-0.4,2.5-0.1,4.1,0.8
							C606.9,348.8,608.2,350.1,609.2,351.8z"/>
					</g>
					<g>
						<path class="st14" d="M600.5,344.9l6.8-2.6c1.4-0.6,3.1-0.3,5.1,0.8c2,1.2,3.7,2.9,4.8,5.1l-6.8,2.6c-1.1-2.2-2.8-3.9-4.8-5.1
							C603.6,344.6,601.9,344.4,600.5,344.9z"/>
					</g>
					<g>
						<path class="st14" d="M615.6,359.5l-6.8,2.6c0.1,0,0.2-0.1,0.2-0.1c1.5-0.7,2.4-2.2,2.7-4.7c0.3-2.1-0.2-4.3-1.3-6.5l6.8-2.6
							c1.2,2.3,1.6,4.4,1.3,6.5c-0.3,2.4-1.2,3.9-2.7,4.7C615.8,359.4,615.7,359.5,615.6,359.5z"/>
					</g>
					<g>
						<path class="st13" d="M600,296.2l6.8-2.6c-0.3,0.1-0.5,0.2-0.8,0.4c-1.2,0.9-1.9,2.5-2.2,4.9c-0.3,2.3-0.1,4.5,0.7,6.6
							c0.8,2,2,3.6,3.9,4.6c1.2,0.7,2.2,0.8,3.2,0.4l-6.8,2.6c-1,0.4-2.1,0.2-3.2-0.4c-1.8-1-3.1-2.6-3.9-4.6
							c-0.8-2.1-1-4.2-0.7-6.6c0.3-2.4,1.1-4,2.2-4.9C599.5,296.4,599.8,296.3,600,296.2z"/>
					</g>
					<g>
						<path class="st14" d="M607.2,310.6l6.8-2.6c-0.6,1.3-1.4,2.1-2.4,2.5l-6.8,2.6C605.9,312.7,606.6,311.9,607.2,310.6z"/>
					</g>
					<g>
						<path class="st14" d="M611.6,310.5l-6.8,2.6c0,0,0,0,0.1,0L611.6,310.5C611.6,310.5,611.6,310.5,611.6,310.5z"/>
					</g>
					<g>
						<path class="st13" d="M612,308.1c-0.2,0.1-0.4,0.2-0.6,0.3l-6.8,2.6c0.2-0.1,0.4-0.2,0.6-0.3C607.2,310,609.9,308.9,612,308.1
							z"/>
					</g>
					<g>
						<path class="st14" d="M600.7,298.4l6.8-2.6c-0.2,0.1-0.4,0.2-0.5,0.3c-0.9,0.7-1.5,1.9-1.7,3.6c-0.2,1.7-0.1,3.4,0.6,4.9
							c0.6,1.5,1.6,2.7,2.9,3.5c1,0.6,1.9,0.7,2.8,0.4l-6.8,2.6c-0.8,0.3-1.7,0.2-2.8-0.4c-1.3-0.8-2.3-1.9-2.9-3.5
							c-0.6-1.5-0.8-3.1-0.6-4.9c0.2-1.8,0.8-3,1.7-3.6C600.3,298.6,600.5,298.5,600.7,298.4z"/>
					</g>
					<g>
						<path class="st13" d="M614,307.9c0.2,1.5,0.7,2.9,1.4,4.1c-2.3,0.9-4.5,1.8-6.8,2.6c-0.7-1.2-1.2-2.6-1.4-4.1
							C609.3,309.8,612,308.7,614,307.9z"/>
					</g>
					<g>
						<path class="st13" d="M607.5,295.7c0.8-0.3,1.7-0.2,2.8,0.4l-6.8,2.6c-1.1-0.6-2-0.7-2.8-0.4
							C602.7,297.6,605.4,296.5,607.5,295.7z"/>
					</g>
					<g>
						<path class="st13" d="M613.7,304.6c-0.2,1.7-0.8,2.9-1.8,3.6l-6.8,2.6c0.9-0.7,1.5-1.9,1.8-3.6c0.2-0.1,0.6-0.2,0.8-0.3
							c0.3-0.1,0.6-0.2,0.8-0.3c0.3-0.1,0.6-0.2,0.9-0.3c0.3-0.1,0.6-0.2,0.9-0.3c0.3-0.1,0.6-0.2,0.9-0.3c0.3-0.1,0.6-0.2,0.9-0.3
							c0.3-0.1,0.6-0.2,0.8-0.3C613.2,304.8,613.5,304.6,613.7,304.6z"/>
					</g>
					<g>
						<path class="st13" d="M615.4,312.1c0.7,1.2,1.6,2.2,2.7,2.8c-2.3,0.9-4.5,1.8-6.8,2.6c-1.1-0.6-2-1.6-2.7-2.8
							c0.2-0.1,0.6-0.2,0.8-0.3c0.3-0.1,0.6-0.2,0.8-0.3c0.3-0.1,0.6-0.2,0.9-0.3c0.3-0.1,0.6-0.2,0.9-0.3c0.3-0.1,0.6-0.2,0.9-0.3
							c0.3-0.1,0.6-0.2,0.9-0.3c0.3-0.1,0.6-0.2,0.8-0.3C614.8,312.3,615.1,312.2,615.4,312.1z"/>
					</g>
					<g>
						<path class="st13" d="M610.3,296.2c1.3,0.7,2.2,1.9,2.9,3.5c-2.3,0.9-4.5,1.8-6.8,2.6c-0.7-1.6-1.6-2.7-2.9-3.5
							C605.5,298,608.2,297,610.3,296.2z"/>
					</g>
					<g>
						<path class="st13" d="M613.1,299.7c0.6,1.5,0.9,3.2,0.6,4.9c-2.3,0.9-4.5,1.8-6.8,2.6c0.2-1.7,0-3.4-0.6-4.9
							c0.2-0.1,0.6-0.2,0.8-0.3c0.3-0.1,0.6-0.2,0.8-0.3c0.3-0.1,0.6-0.2,0.9-0.3c0.3-0.1,0.6-0.2,0.9-0.3c0.3-0.1,0.6-0.2,0.9-0.3
							c0.3-0.1,0.6-0.2,0.9-0.3c0.3-0.1,0.6-0.2,0.8-0.3C612.6,299.9,612.9,299.7,613.1,299.7z"/>
					</g>
					<g>
						<path class="st14" d="M600,296.2l6.8-2.6c1-0.4,2.3-0.2,3.7,0.6c1.2,0.7,2.2,1.7,2.9,3.1l-6.8,2.6c-0.7-1.4-1.7-2.4-2.9-3.1
							C602.3,296,601.1,295.8,600,296.2z"/>
					</g>
					<g>
						<path class="st14" d="M606.6,300l6.8-2.6c0.8,1.4,1.3,3,1.4,4.7l-6.8,2.6C607.9,302.9,607.4,301.3,606.6,300z"/>
					</g>
					<g>
						<path class="st13" d="M618.1,314.9c1.4,0.8,2.6,1,3.6,0.6l-6.8,2.6c-1,0.4-2.2,0.2-3.6-0.6c0.2-0.1,0.6-0.2,0.8-0.3
							c0.3-0.1,0.6-0.2,0.8-0.3c0.3-0.1,0.6-0.2,0.9-0.3c0.3-0.1,0.6-0.2,0.9-0.3c0.3-0.1,0.6-0.2,0.9-0.3c0.3-0.1,0.6-0.2,0.9-0.3
							c0.3-0.1,0.6-0.2,0.8-0.3C617.5,315.1,617.8,315,618.1,314.9z"/>
					</g>
					<g>
						<polygon class="st13" points="600.4,279.1 607.2,276.5 606.9,278.5 600.1,281.2 						"/>
					</g>
					<g>
						<path class="st13" d="M621.4,313.1c-0.1,0.1-0.3,0.2-0.4,0.2l-6.8,2.6c0.2-0.1,0.3-0.1,0.4-0.2c0.2-0.1,0.6-0.2,0.8-0.3
							c0.3-0.1,0.6-0.2,0.8-0.3c0.3-0.1,0.6-0.2,0.9-0.3c0.3-0.1,0.6-0.2,0.9-0.3c0.3-0.1,0.6-0.2,0.9-0.3c0.3-0.1,0.6-0.2,0.9-0.3
							c0.3-0.1,0.6-0.2,0.8-0.3C620.9,313.3,621.2,313.2,621.4,313.1z"/>
					</g>
					<g>
						<path class="st14" d="M610.4,304.7l6.8-2.6c-0.2,0.1-0.3,0.1-0.5,0.2c-0.8,0.6-1.4,1.6-1.6,3.1c-0.2,1.5,0,3,0.6,4.3
							c0.6,1.4,1.5,2.5,2.7,3.2c1,0.6,1.9,0.7,2.6,0.4l-6.8,2.6c-0.8,0.3-1.7,0.2-2.6-0.4c-1.2-0.7-2.1-1.7-2.7-3.2
							c-0.6-1.4-0.8-2.8-0.6-4.3c0.2-1.5,0.8-2.6,1.6-3.1C610.1,304.8,610.2,304.7,610.4,304.7z"/>
					</g>
					<g>
						<polygon class="st13" points="600.1,281.2 606.9,278.5 608.5,279.7 601.7,282.3 						"/>
					</g>
					<g>
						<path class="st13" d="M616.8,300c-0.8,0.3-1.5,1-2,2l-6.8,2.6c0.5-1,1.2-1.7,2-2C612.1,301.8,614.8,300.8,616.8,300z"/>
					</g>
					<g>
						<path class="st14" d="M610,302.6l6.8-2.6c0.1,0,0.1,0,0.2-0.1l-6.8,2.6C610.2,302.6,610.1,302.6,610,302.6z"/>
					</g>
					<g>
						<polygon class="st14" points="600.4,279.1 607.2,276.5 608.8,277.7 602,280.3 						"/>
					</g>
					<g>
						<path class="st13" d="M617.2,302c0.8-0.3,1.6-0.2,2.6,0.4l-6.8,2.6c-1-0.6-1.9-0.7-2.6-0.4C612.4,303.9,615.1,302.8,617.2,302
							z"/>
					</g>
					<g>
						<path class="st13" d="M623.1,310c-0.2,1.5-0.7,2.5-1.7,3.1c-2.3,0.9-4.5,1.8-6.8,2.6c0.9-0.6,1.5-1.6,1.7-3.1
							c0.2-0.1,0.6-0.2,0.8-0.3c0.3-0.1,0.6-0.2,0.8-0.3c0.3-0.1,0.6-0.2,0.9-0.3c0.3-0.1,0.6-0.2,0.9-0.3c0.3-0.1,0.6-0.2,0.9-0.3
							c0.3-0.1,0.6-0.2,0.9-0.3c0.3-0.1,0.6-0.2,0.8-0.3C622.5,310.2,622.9,310.1,623.1,310z"/>
					</g>
					<g>
						<path class="st13" d="M619.8,302.4c1.2,0.7,2.1,1.8,2.7,3.2l-6.8,2.6c-0.6-1.4-1.5-2.4-2.7-3.2
							C615,304.3,617.7,303.2,619.8,302.4z"/>
					</g>
					<g>
						<path class="st13" d="M622.5,305.6c0.6,1.4,0.8,2.9,0.6,4.4c-2.3,0.9-4.5,1.8-6.8,2.6c0.2-1.5,0-3-0.6-4.4
							C617.8,307.4,620.5,306.4,622.5,305.6z"/>
					</g>
					<g>
						<path class="st13" d="M613,305.1c1.2,0.7,2.1,1.8,2.7,3.2c0.6,1.4,0.8,2.9,0.6,4.4c-0.2,1.5-0.7,2.5-1.7,3.1
							c-0.9,0.6-1.9,0.5-3.1-0.2c-1.2-0.7-2.1-1.7-2.7-3.2c-0.6-1.4-0.8-2.8-0.6-4.3c0.2-1.5,0.8-2.6,1.6-3.1
							C610.8,304.3,611.8,304.4,613,305.1z"/>
					</g>
					<g>
						<path class="st13" d="M615.8,286.1c-2.3,0.9-4.5,1.8-6.8,2.6c-2.1-2.3-4.5-4.4-7.3-6.4l6.8-2.6
							C611.3,281.7,613.7,283.8,615.8,286.1z"/>
					</g>
					<g>
						<path class="st14" d="M610.2,302.6l6.8-2.6c0.9-0.3,1.9-0.1,3,0.5c1.7,1,3,2.4,3.8,4.3l-6.8,2.6c-0.8-1.9-2-3.3-3.8-4.3
							C612.2,302.4,611.1,302.3,610.2,302.6z"/>
					</g>
					<g>
						<path class="st14" d="M621.7,315.5l-6.8,2.6c0.2-0.1,0.5-0.2,0.7-0.4c1.1-0.8,1.9-2.3,2.1-4.4c0.3-2.1,0.1-4.1-0.7-6l6.8-2.6
							c0.8,1.9,1,3.9,0.7,6c-0.3,2.1-1,3.6-2.1,4.4C622.2,315.3,621.9,315.4,621.7,315.5z"/>
					</g>
					<g>
						<path class="st13" d="M617.3,287.8c2.5,3,4.8,6.5,7,10.7l-6.8,2.6c-2.2-4.2-4.5-7.7-7-10.7c-0.5-0.6-1-1.2-1.5-1.7
							c0.2-0.1,0.4-0.2,0.6-0.2c0.2-0.1,0.5-0.2,0.7-0.3c0.2-0.1,0.5-0.2,0.7-0.3c0.2-0.1,0.5-0.2,0.7-0.3c0.2-0.1,0.5-0.2,0.7-0.3
							c0.2-0.1,0.5-0.2,0.7-0.3c0.2-0.1,0.5-0.2,0.7-0.3c0.2-0.1,0.4-0.2,0.6-0.2c0,0,0.1,0,0.2-0.1c0.1,0,0.1,0,0.2-0.1
							c0.1,0,0.1,0,0.2-0.1c0.1,0,0.1,0,0.2-0.1c0.1,0,0.1,0,0.2-0.1c0.1,0,0.1,0,0.2-0.1c0,0,0.1,0,0.2-0.1c0,0,0.1,0,0.2-0.1
							C616.3,286.6,616.9,287.2,617.3,287.8z"/>
					</g>
					<g>
						<path class="st14" d="M602,280.3l6.8-2.6c3.3,2.4,6.3,5.2,8.9,8.3c2.6,3.1,4.9,6.6,7,10.4l-6.8,2.6c-2.1-3.9-4.4-7.3-7-10.4
							C608.3,285.5,605.4,282.7,602,280.3z"/>
					</g>
					<g>
						<polygon class="st13" points="619.7,284.9 626.5,282.3 624.6,296.3 617.8,299 						"/>
					</g>
					<g>
						<polygon class="st14" points="621.1,285.7 627.9,283.1 625.8,299.3 619,301.9 						"/>
					</g>
					<g>
						<polygon class="st13" points="617.6,301.1 624.4,298.5 625.8,299.3 619,301.9 						"/>
					</g>
					<g>
						<path class="st13" d="M619.8,273.5l-6.8,2.6c-1.4,0.6-3.1,0.3-5.1-0.9c-2-1.1-3.5-2.8-4.6-4.9c-1.1-2.1-1.5-4.3-1.2-6.5
							c0.3-2.3,1.2-3.7,2.9-4.4l6.8-2.6c-1.6,0.7-2.5,2.1-2.9,4.4c-0.3,2.2,0.1,4.4,1.2,6.5c1.1,2.2,2.7,3.8,4.6,4.9
							C616.7,273.7,618.4,274,619.8,273.5z"/>
					</g>
					<g>
						<path class="st13" d="M605.6,261.5l6.8-2.6c0.1,0,0.1,0,0.2-0.1l-6.8,2.6C605.7,261.4,605.7,261.5,605.6,261.5z"/>
					</g>
					<g>
						<path class="st13" d="M605.1,259.3l6.8-2.6c0,0-0.1,0-0.1,0l-6.8,2.6C605,259.4,605.1,259.4,605.1,259.3z"/>
					</g>
					<g>
						<path class="st14" d="M605.6,261.5l6.8-2.6c-1.2,0.5-1.9,1.5-2.1,3.2c-0.2,1.6,0.1,3.3,1.1,4.9c0.9,1.6,2.1,2.8,3.6,3.7
							c1.6,0.9,3,1.2,4.1,0.8l-6.8,2.6c-1.1,0.4-2.5,0.1-4.1-0.8c-1.5-0.9-2.7-2.1-3.6-3.7c-0.9-1.6-1.3-3.2-1.1-4.9
							C603.8,263,604.4,261.9,605.6,261.5z"/>
					</g>
					<g>
						<path class="st13" d="M619.2,271.3l-6.8,2.6c1.1-0.4,1.7-1.5,2-3.2c0.2-1.4,0.1-2.7-0.4-4.1l6.8-2.6c0.5,1.4,0.6,2.7,0.4,4.1
							C620.9,269.8,620.2,270.9,619.2,271.3z"/>
					</g>
					<g>
						<path class="st14" d="M619.2,271.3l-6.8,2.6c0,0,0,0-0.1,0L619.2,271.3C619.1,271.4,619.2,271.4,619.2,271.3z"/>
					</g>
					<g>
						<path class="st14" d="M615.5,268l6.8-2.6c0.3,1.3,0.4,2.6,0.2,3.9c-0.3,2.2-1.2,3.6-2.6,4.2l-6.8,2.6c1.4-0.6,2.3-2,2.6-4.2
							C615.8,270.6,615.8,269.3,615.5,268z"/>
					</g>
					<g>
						<path class="st14" d="M619.8,273.5l-6.8,2.6c0,0,0,0,0.1,0L619.8,273.5C619.9,273.5,619.8,273.5,619.8,273.5z"/>
					</g>
					<g>
						<path class="st13" d="M605.8,261.4l6.8-2.6c1.2-0.4,2.8-0.1,4.7,1l-6.8,2.6C608.6,261.3,607,261,605.8,261.4z"/>
					</g>
					<g>
						<polygon class="st13" points="665.7,404.1 672.5,401.4 652.9,546.4 646.1,549 						"/>
					</g>
					<g>
						<polygon class="st13" points="610.5,262.4 617.3,259.8 618.8,260.6 612,263.3 						"/>
					</g>
					<g>
						<path class="st14" d="M605.1,259.3l6.8-2.6c1.6-0.6,3.5-0.3,5.8,1.1l-6.8,2.6C608.6,259.1,606.6,258.7,605.1,259.3z"/>
					</g>
					<g>
						<path class="st13" d="M611.6,241.5c-0.3,2.5,0,4.7,1.1,6.7c-2.3,0.9-4.5,1.8-6.8,2.6c-1-2-1.4-4.2-1.1-6.7
							c0.2-0.1,0.6-0.2,0.8-0.3c0.3-0.1,0.6-0.2,0.8-0.3c0.3-0.1,0.6-0.2,0.9-0.3c0.3-0.1,0.6-0.2,0.9-0.3
							C609.3,242.4,610.4,241.9,611.6,241.5z"/>
					</g>
					<g>
						<polygon class="st14" points="619.7,284.9 626.5,282.3 627.9,283.1 621.1,285.7 						"/>
					</g>
					<g>
						<path class="st13" d="M612,263.3l6.8-2.6c0.9,0.9,1.5,2,1.9,3.4l-6.8,2.6C613.5,265.3,612.9,264.2,612,263.3z"/>
					</g>
					<g>
						<path class="st13" d="M612.7,248.2c1,1.9,2.6,3.5,4.6,4.7c-2.3,0.9-4.5,1.8-6.8,2.6c-2.1-1.2-3.6-2.8-4.6-4.7
							c0.2-0.1,0.6-0.2,0.8-0.3c0.3-0.1,0.6-0.2,0.8-0.3c0.3-0.1,0.6-0.2,0.9-0.3c0.3-0.1,0.6-0.2,0.9-0.3c0.3-0.1,0.6-0.2,0.9-0.3
							c0.3-0.1,0.6-0.2,0.9-0.3c0.3-0.1,0.6-0.2,0.8-0.3C612.1,248.4,612.4,248.3,612.7,248.2z"/>
					</g>
					<g>
						<polygon class="st13" points="614.1,264.5 620.9,261.8 622.7,262.9 615.9,265.5 						"/>
					</g>
					<g>
						<path class="st14" d="M614.1,264.5l6.8-2.6c0.6,1.1,1.1,2.3,1.4,3.6l-6.8,2.6C615.2,266.8,614.7,265.6,614.1,264.5z"/>
					</g>
					<g>
						<polygon class="st13" points="619.9,279.2 626.7,276.5 628,277.8 621.2,280.5 						"/>
					</g>
					<g>
						<path class="st13" d="M620.8,277.6l6.8-2.6c-0.2,0.6-0.6,1.1-0.9,1.5l-6.8,2.6C620.3,278.7,620.6,278.2,620.8,277.6z"/>
					</g>
					<g>
						<polygon class="st13" points="557.2,114 564,111.3 544.4,256.2 537.6,258.9 						"/>
					</g>
					<g>
						<polygon class="st14" points="610.9,260.4 617.7,257.8 622.8,260.7 616,263.3 						"/>
					</g>
					<g>
						<path class="st13" d="M613.7,237.2c-1.1,0.8-1.8,2.3-2.1,4.3c-2.3,0.9-4.5,1.8-6.8,2.6c0.3-2,1-3.5,2.1-4.3
							C608.9,239.1,611.6,238,613.7,237.2z"/>
					</g>
					<g>
						<path class="st14" d="M607.8,241.8l6.8-2.6c-0.8,0.5-1.4,1.6-1.6,3.1c-0.2,1.8,0,3.5,0.8,4.9l-6.8,2.6
							c-0.8-1.4-1.1-3.1-0.8-4.9C606.4,243.4,606.9,242.3,607.8,241.8z"/>
					</g>
					<g>
						<path class="st14" d="M608.2,241.6l6.8-2.6c-0.1,0-0.2,0.1-0.4,0.2l-6.8,2.6C607.9,241.8,608,241.7,608.2,241.6z"/>
					</g>
					<g>
						<path class="st13" d="M607.5,239.5l6.8-2.6c-0.2,0.1-0.4,0.2-0.6,0.3l-6.8,2.6C607.1,239.7,607.3,239.6,607.5,239.5z"/>
					</g>
					<g>
						<path class="st13" d="M615.9,265.5l6.8-2.6c1.9,1.1,3.3,2.5,4.4,4.4l-6.8,2.6C619.2,268.1,617.8,266.6,615.9,265.5z"/>
					</g>
					<g>
						<path class="st13" d="M620.2,269.9l6.8-2.6c1,1.9,1.3,3.7,1.1,5.6c-0.1,0.9-0.3,1.6-0.5,2.2l-6.8,2.6c0.2-0.5,0.4-1.3,0.5-2.2
							C621.6,273.6,621.2,271.8,620.2,269.9z"/>
					</g>
					<g>
						<path class="st13" d="M617.3,252.9c1.9,1.1,3.5,1.4,4.8,0.9l-6.8,2.6c-1.3,0.5-2.9,0.2-4.8-0.9c0.2-0.1,0.6-0.2,0.8-0.3
							c0.3-0.1,0.6-0.2,0.8-0.3c0.3-0.1,0.6-0.2,0.9-0.3c0.3-0.1,0.6-0.2,0.9-0.3c0.3-0.1,0.6-0.2,0.9-0.3c0.3-0.1,0.6-0.2,0.9-0.3
							c0.3-0.1,0.6-0.2,0.8-0.3C616.7,253.1,617,253,617.3,252.9z"/>
					</g>
					<g>
						<path class="st14" d="M607,249.9l6.8-2.6c0.7,1.4,2,2.6,3.7,3.6c1.5,0.9,2.7,1.1,3.8,0.7l-6.8,2.6c-1,0.4-2.3,0.2-3.8-0.7
							C609,252.5,607.8,251.3,607,249.9z"/>
					</g>
					<g>
						<path class="st13" d="M623.2,248.5c-0.2,1.6-0.9,2.6-1.9,3l-6.8,2.6c1-0.4,1.7-1.4,1.9-3c0.2-0.1,0.6-0.2,0.8-0.3
							c0.3-0.1,0.6-0.2,0.8-0.3c0.3-0.1,0.6-0.2,0.9-0.3c0.3-0.1,0.6-0.2,0.9-0.3c0.3-0.1,0.6-0.2,0.9-0.3c0.3-0.1,0.6-0.2,0.9-0.3
							c0.3-0.1,0.6-0.2,0.8-0.3C622.6,248.7,623,248.6,623.2,248.5z"/>
					</g>
					<g>
						<path class="st13" d="M623.1,244.5c0.3,1.1,0.4,2.4,0.1,4c-2.3,0.9-4.5,1.8-6.8,2.6c0.2-1.6,0.2-2.9-0.1-4
							c0.2-0.1,0.6-0.2,0.8-0.3c0.3-0.1,0.6-0.2,0.8-0.3c0.3-0.1,0.6-0.2,0.9-0.3c0.3-0.1,0.6-0.2,0.9-0.3c0.3-0.1,0.6-0.2,0.9-0.3
							c0.3-0.1,0.6-0.2,0.9-0.3c0.3-0.1,0.6-0.2,0.8-0.3C622.5,244.7,622.8,244.6,623.1,244.5z"/>
					</g>
					<g>
						<path class="st14" d="M617.9,249l6.8-2.6c0.2,0.9,0.1,1.9,0,3.3c-0.3,2.1-1.1,3.5-2.4,4.1l-6.8,2.6c1.3-0.6,2.1-1.9,2.4-4.1
							C618,250.9,618,249.9,617.9,249z"/>
					</g>
					<g>
						<path class="st14" d="M622.1,253.8l-6.8,2.6c0.1,0,0.1,0,0.2-0.1l6.8-2.6C622.2,253.7,622.2,253.7,622.1,253.8z"/>
					</g>
					<g>
						<polygon class="st14" points="665.7,404.1 672.5,401.4 682.9,407.4 676.1,410.1 						"/>
					</g>
					<g>
						<polygon class="st14" points="676.1,410.1 682.9,407.4 663.3,552.4 656.5,555 						"/>
					</g>
					<g>
						<polygon class="st14" points="676.1,410.1 656.5,555 646.1,549 665.7,404.1 						"/>
					</g>
					<g>
						<path class="st14" d="M616,263.3l6.8-2.6c2.3,1.4,4.1,3.2,5.4,5.7l-6.8,2.6C620.1,266.6,618.3,264.7,616,263.3z"/>
					</g>
					<g>
						<path class="st13" d="M608.2,241.6l6.8-2.6c0.8-0.3,1.8-0.1,2.9,0.6l-6.8,2.6C609.9,241.5,608.9,241.3,608.2,241.6z"/>
					</g>
					<g>
						<path class="st14" d="M621.3,269.1l6.8-2.6c1.2,2.5,1.7,4.9,1.4,7.2c-0.1,0.8-0.3,1.7-0.6,2.4c-0.3,0.7-0.6,1.3-1,1.8
							l-6.8,2.6c0.4-0.5,0.7-1.1,1-1.8c0.3-0.8,0.4-1.6,0.6-2.4C623,274,622.6,271.5,621.3,269.1z"/>
					</g>
					<g>
						<path class="st14" d="M607.5,239.5l6.8-2.6c0.9-0.4,2.1-0.2,3.4,0.6l-6.8,2.6C609.6,239.3,608.4,239.1,607.5,239.5z"/>
					</g>
					<g>
						<path class="st14" d="M610.9,240.1l6.8-2.6c0.1,0.1,0.2,0.1,0.3,0.2l-6.8,2.6C611.1,240.2,611,240.2,610.9,240.1z"/>
					</g>
					<g>
						<polygon class="st14" points="611.3,240.4 618.1,237.7 617.9,239.5 611.1,242.2 						"/>
					</g>
					<g>
						<polygon class="st14" points="611.2,240.3 618,237.6 618.1,237.7 611.3,240.4 						"/>
					</g>
					<g>
						<path class="st13" d="M621.5,241.7c0.8,0.9,1.3,1.8,1.6,2.9c-2.3,0.9-4.5,1.8-6.8,2.6c-0.3-1.1-0.8-2-1.6-2.9
							C616.7,243.5,619.4,242.5,621.5,241.7z"/>
					</g>
					<g>
						<polygon class="st13" points="615.1,242.8 621.9,240.1 621.5,241.7 614.7,244.3 						"/>
					</g>
					<g>
						<polygon class="st14" points="557.2,114 564,111.3 574.4,117.3 567.6,120 						"/>
					</g>
					<g>
						<polygon class="st14" points="567.6,120 548,264.9 537.6,258.9 557.2,114 						"/>
					</g>
					<g>
						<polygon class="st14" points="567.6,120 574.4,117.3 554.8,262.2 548,264.9 						"/>
					</g>
					<g>
						<path class="st14" d="M617.1,246.3l6.8-2.6c0.4,0.9,0.6,1.8,0.8,2.7l-6.8,2.6C617.8,248.1,617.5,247.2,617.1,246.3z"/>
					</g>
					<g>
						<polygon class="st13" points="617.1,246.3 623.9,243.7 630.9,248.7 624.1,251.4 						"/>
					</g>
					<g>
						<polygon class="st13" points="624.1,251.4 630.9,248.7 629.6,258.9 622.8,261.6 						"/>
					</g>
					<g>
						<polygon class="st14" points="625.9,250.5 632.7,247.9 631.1,259.8 624.3,262.5 						"/>
					</g>
					<g>
						<polygon class="st13" points="622.8,261.6 629.6,258.9 631.1,259.8 624.3,262.5 						"/>
					</g>
					<g>
						<polygon class="st13" points="609.6,210.9 616.4,208.3 616.1,210.3 609.3,213 						"/>
					</g>
					<g>
						<polygon class="st14" points="615.1,242.8 621.9,240.1 632.7,247.9 625.9,250.5 						"/>
					</g>
					<g>
						<polygon class="st13" points="613.9,219.8 620.7,217.1 622.1,217.9 615.3,220.6 						"/>
					</g>
					<g>
						<polygon class="st13" points="609.3,213 616.1,210.3 621.2,213.3 614.4,215.9 						"/>
					</g>
					<g>
						<polygon class="st13" points="614.4,215.9 621.2,213.3 620.7,217.1 613.9,219.8 						"/>
					</g>
					<g>
						<polygon class="st14" points="609.6,210.9 616.4,208.3 621.5,211.2 614.7,213.9 						"/>
					</g>
					<g>
						<polygon class="st14" points="615.8,216.7 622.6,214.1 622.1,217.9 615.3,220.6 						"/>
					</g>
					<g>
						<polygon class="st13" points="583.2,129 590,126.3 570.4,271.3 563.6,273.9 						"/>
					</g>
					<g>
						<polygon class="st13" points="616.2,202.3 623,199.6 621.5,211.2 614.7,213.9 						"/>
					</g>
					<g>
						<polygon class="st14" points="617.3,205.5 624.1,202.9 622.9,212 616.1,214.7 						"/>
					</g>
					<g>
						<polygon class="st14" points="616.2,202.3 623,199.6 624,200.2 617.2,202.8 						"/>
					</g>
					<g>
						<path class="st13" d="M619.1,185.7c-0.3,2.2,0,4.3,0.8,6.3c-2.3,0.9-4.5,1.8-6.8,2.6c-0.8-2-1.1-4.1-0.8-6.3
							c0.2-0.1,0.6-0.2,0.8-0.3c0.3-0.1,0.6-0.2,0.8-0.3c0.3-0.1,0.6-0.2,0.9-0.3c0.3-0.1,0.6-0.2,0.9-0.3c0.3-0.1,0.6-0.2,0.9-0.3
							c0.3-0.1,0.6-0.2,0.9-0.3c0.3-0.1,0.6-0.2,0.8-0.3C618.6,185.9,618.9,185.8,619.1,185.7z"/>
					</g>
					<g>
						<polygon class="st14" points="629.7,222.4 636.5,219.7 636.2,221.9 629.4,224.6 						"/>
					</g>
					<g>
						<polygon class="st13" points="615.8,216.7 622.6,214.1 636.2,221.9 629.4,224.6 						"/>
					</g>
					<g>
						<polygon class="st13" points="627.5,221.2 634.3,218.6 634.3,218.7 627.5,221.3 						"/>
					</g>
					<g>
						<polygon class="st13" points="626.2,219.5 633,216.8 634.3,218.6 627.5,221.2 						"/>
					</g>
					<g>
						<polygon class="st14" points="616.1,214.7 622.9,212 634.3,218.7 627.5,221.3 						"/>
					</g>
					<g>
						<polygon class="st13" points="617.3,205.5 624.1,202.9 633,216.8 626.2,219.5 						"/>
					</g>
					<g>
						<polygon class="st14" points="593.6,135 600.4,132.3 580.8,277.3 574,279.9 						"/>
					</g>
					<g>
						<polygon class="st14" points="583.2,129 590,126.3 600.4,132.3 593.6,135 						"/>
					</g>
					<g>
						<path class="st13" d="M623.8,196.6c1.2,0.7,2.2,0.9,3.2,0.6l-6.8,2.6c-1,0.3-2,0-3.2-0.6c-1.8-1-3.1-2.5-3.9-4.5
							c0.2-0.1,0.6-0.2,0.8-0.3c0.3-0.1,0.6-0.2,0.8-0.3c0.3-0.1,0.6-0.2,0.9-0.3c0.3-0.1,0.6-0.2,0.9-0.3c0.3-0.1,0.6-0.2,0.9-0.3
							c0.3-0.1,0.6-0.2,0.9-0.3c0.3-0.1,0.6-0.2,0.8-0.3c0.2-0.1,0.6-0.2,0.8-0.3C620.8,194.1,622.1,195.6,623.8,196.6z"/>
					</g>
					<g>
						<path class="st13" d="M627,197.2c0.1,0,0.1,0,0.2-0.1l-6.8,2.6c-0.1,0-0.1,0-0.2,0.1C622.3,199.1,625,197.9,627,197.2z"/>
					</g>
					<g>
						<path class="st14" d="M626.9,195.1l-6.8,2.6c-0.7,0.3-1.7,0.1-2.8-0.5c-1.4-0.8-2.4-1.9-3-3.3l6.8-2.6c0.6,1.4,1.6,2.5,3,3.3
							C625.2,195.2,626.1,195.4,626.9,195.1z"/>
					</g>
					<g>
						<polygon class="st14" points="617.2,202.8 624,200.2 636.5,219.7 629.7,222.4 						"/>
					</g>
					<g>
						<path class="st13" d="M627.4,194.8c-0.2,0.1-0.3,0.2-0.5,0.3l-6.8,2.6c0.2-0.1,0.3-0.2,0.5-0.3
							C622.6,196.7,625.3,195.6,627.4,194.8z"/>
					</g>
					<g>
						<path class="st13" d="M621.4,181c-1.2,1-2,2.5-2.3,4.7c-2.3,0.9-4.5,1.8-6.8,2.6c0.3-2.2,1-3.7,2.3-4.7
							c0.3-0.2,0.6-0.4,0.9-0.5l6.8-2.6C621.9,180.6,621.6,180.8,621.4,181z"/>
					</g>
					<g>
						<path class="st14" d="M616,185.4l6.8-2.6c-0.2,0.1-0.3,0.1-0.5,0.2c-1,0.6-1.6,1.8-1.8,3.6c-0.2,1.7,0,3.3,0.6,4.7l-6.8,2.6
							c-0.6-1.4-0.8-3-0.6-4.7c0.2-1.8,0.8-2.9,1.8-3.6C615.7,185.5,615.8,185.4,616,185.4z"/>
					</g>
					<g>
						<path class="st14" d="M627.2,197.2l-6.8,2.6c0.9-0.3,1.5-1.1,2.1-2.3l6.8-2.6C628.8,196,628.1,196.8,627.2,197.2z"/>
					</g>
					<g>
						<path class="st13" d="M629.3,194.8c0.2,1.5,0.7,2.9,1.4,4.1l-6.8,2.6c-0.7-1.2-1.2-2.6-1.4-4.1
							C624.5,196.7,627.3,195.6,629.3,194.8z"/>
					</g>
					<g>
						<polygon class="st13" points="616.2,162 623,159.4 620.9,174.7 614.1,177.4 						"/>
					</g>
					<g>
						<polygon class="st14" points="617.3,165.5 624.1,162.8 622.3,175.6 615.5,178.2 						"/>
					</g>
					<g>
						<polygon class="st13" points="614.1,177.4 620.9,174.7 622.3,175.6 615.5,178.2 						"/>
					</g>
					<g>
						<path class="st13" d="M622.8,182.7c0.8-0.3,1.8-0.2,2.9,0.4l-6.8,2.6c-1.1-0.6-2-0.8-2.9-0.4
							C618,184.6,620.7,183.5,622.8,182.7z"/>
					</g>
					<g>
						<path class="st13" d="M622.2,193.7l6.8-2.6c-0.3,1.9-0.8,3.2-1.6,3.8l-6.8,2.6C621.4,196.8,621.9,195.6,622.2,193.7z"/>
					</g>
					<g>
						<path class="st14" d="M615.4,183.2l6.8-2.6c1-0.4,2.2-0.2,3.5,0.6l-6.8,2.6C617.6,183,616.4,182.8,615.4,183.2z"/>
					</g>
					<g>
						<path class="st14" d="M618.9,183.7l6.8-2.6c0,0,0.1,0.1,0.1,0.1l-6.8,2.6C619,183.8,618.9,183.8,618.9,183.7z"/>
					</g>
					<g>
						<polygon class="st14" points="619,183.8 625.8,181.2 625.9,181.3 619.1,183.9 						"/>
					</g>
					<g>
						<polygon class="st14" points="619.1,183.9 625.9,181.3 625.7,183.2 618.9,185.8 						"/>
					</g>
					<g>
						<polygon class="st13" points="622.5,191.3 629.3,188.6 629,191 622.2,193.7 						"/>
					</g>
					<g>
						<polygon class="st14" points="622.5,191.3 629.3,188.6 630.7,189.5 623.9,192.1 						"/>
					</g>
					<g>
						<polygon class="st14" points="623.9,192.1 630.7,189.5 630.4,191.8 623.6,194.5 						"/>
					</g>
					<g>
						<path class="st13" d="M637.1,202.2l-6.8,2.6c-1.1,0.4-2.3,0.2-3.8-0.7c-1-0.6-1.8-1.4-2.5-2.7l6.8-2.6
							c0.7,1.2,1.6,2.1,2.5,2.7C634.8,202.5,636,202.7,637.1,202.2z"/>
					</g>
					<g>
						<path class="st14" d="M636.5,200.1l-6.8,2.6c-0.8,0.3-1.8,0.1-2.9-0.5c-1.1-0.6-2-1.7-2.6-3c-0.6-1.3-0.8-2.9-0.5-4.7l6.8-2.6
							c-0.2,1.8,0,3.4,0.5,4.7c0.6,1.4,1.5,2.4,2.6,3C634.7,200.2,635.7,200.4,636.5,200.1z"/>
					</g>
					<g>
						<polygon class="st13" points="627.5,221.2 627.5,221.3 616.1,214.7 617.3,205.5 626.2,219.5 						"/>
					</g>
					<g>
						<path class="st14" d="M617.2,202.8l12.5,19.5l-0.3,2.2l-13.6-7.9l-0.5,3.9l-1.4-0.8l0.5-3.9l-5.1-2.9l0.3-2l5.1,2.9l1.6-11.6
							L617.2,202.8z M627.5,221.3L627.5,221.3l-1.4-1.8l-8.9-14l-1.2,9.2L627.5,221.3"/>
					</g>
					<g>
						<path class="st13" d="M638.4,196.7c-0.2,1.7-0.8,2.8-1.6,3.2l-6.8,2.6c0.9-0.4,1.4-1.5,1.6-3.2c0.2-1.6,0-3.1-0.6-4.5
							c0.2-0.1,0.6-0.2,0.8-0.3c0.3-0.1,0.6-0.2,0.8-0.3c0.3-0.1,0.6-0.2,0.9-0.3c0.3-0.1,0.6-0.2,0.9-0.3c0.3-0.1,0.6-0.2,0.9-0.3
							c0.3-0.1,0.6-0.2,0.9-0.3c0.3-0.1,0.6-0.2,0.8-0.3c0.2-0.1,0.6-0.2,0.8-0.3C638.4,193.6,638.6,195.2,638.4,196.7z"/>
					</g>
					<g>
						<path class="st13" d="M636.8,200c-0.1,0-0.2,0.1-0.3,0.1l-6.8,2.6c0.1,0,0.2-0.1,0.3-0.1C632,201.8,634.7,200.8,636.8,200z"/>
					</g>
					<g>
						<polygon class="st13" points="617.3,165.5 624.1,162.8 624.1,162.8 617.3,165.5 						"/>
					</g>
					<g>
						<polygon class="st14" points="616.2,162 623,159.4 624.3,160.1 617.5,162.8 						"/>
					</g>
					<g>
						<polygon class="st13" points="617.3,165.5 624.1,162.8 629.5,173.2 622.7,175.9 						"/>
					</g>
					<g>
						<polygon class="st13" points="628.5,189.7 635.3,187.1 635,188.9 628.2,191.6 						"/>
					</g>
					<g>
						<polygon class="st14" points="628.5,189.7 635.3,187.1 635.3,187.1 628.5,189.7 						"/>
					</g>
					<g>
						<path class="st13" d="M635,188.9c1.2,0.7,2.2,1.8,2.8,3.3c-2.3,0.9-4.5,1.8-6.8,2.6c-0.6-1.5-1.6-2.6-2.8-3.3
							C630.3,190.8,633,189.7,635,188.9z"/>
					</g>
					<g>
						<polygon class="st14" points="617.5,162.8 624.3,160.1 630.6,172.5 623.8,175.2 						"/>
					</g>
					<g>
						<path class="st14" d="M637.1,202.2l-6.8,2.6c0.2-0.1,0.3-0.2,0.5-0.3c1.2-0.8,1.9-2.2,2.2-4.4c0.3-2.1,0-4.2-0.8-6.2
							c-0.8-1.9-2-3.3-3.5-4.2c0,0-0.1,0-0.1-0.1l6.8-2.6c0,0,0.1,0,0.1,0.1c1.5,0.9,2.7,2.3,3.5,4.2c0.9,2,1.1,4.1,0.8,6.2
							c-0.3,2.2-1,3.7-2.2,4.4C637.5,202.1,637.3,202.2,637.1,202.2z"/>
					</g>
					<g>
						<polygon class="st13" points="617.7,149.9 624.5,147.2 624.2,149.3 617.4,151.9 						"/>
					</g>
					<g>
						<path class="st13" d="M639.8,182.8l-6.8,2.6c-1.1,0.4-2.4,0.2-3.8-0.6c-1.1-0.6-2.2-1.7-3.2-3.2c-1-1.5-2.1-3.5-3.3-5.8
							l6.8-2.6c1.2,2.3,2.3,4.2,3.3,5.8c1,1.5,2.1,2.6,3.2,3.2C637.4,183.1,638.7,183.3,639.8,182.8z"/>
					</g>
					<g>
						<path class="st14" d="M639.2,180.7l-6.8,2.6c-0.8,0.3-1.8,0.1-3-0.5c-0.9-0.5-1.7-1.3-2.5-2.5c-0.9-1.2-1.9-2.9-3-5.1l6.8-2.6
							c1.2,2.3,2.2,4,3,5.1c0.8,1.1,1.7,1.9,2.5,2.5C637.4,180.8,638.4,181,639.2,180.7z"/>
					</g>
					<g>
						<path class="st13" d="M641,177.6c-0.2,1.6-0.8,2.6-1.6,3l-6.8,2.6c0.9-0.4,1.4-1.5,1.6-3c0.3-1.9,0-3.5-0.7-5
							c0.2-0.1,0.6-0.2,0.8-0.3c0.3-0.1,0.6-0.2,0.8-0.3c0.3-0.1,0.6-0.2,0.9-0.3c0.3-0.1,0.6-0.2,0.9-0.3c0.3-0.1,0.6-0.2,0.9-0.3
							c0.3-0.1,0.6-0.2,0.9-0.3c0.3-0.1,0.6-0.2,0.8-0.3c0.2-0.1,0.6-0.2,0.8-0.3C641,174,641.2,175.7,641,177.6z"/>
					</g>
					<g>
						<path class="st13" d="M639.4,180.6c-0.1,0-0.1,0-0.2,0.1l-6.8,2.6c0.1,0,0.1,0,0.2-0.1C634.6,182.4,637.3,181.4,639.4,180.6z"
							/>
					</g>
					<g>
						<polygon class="st13" points="630.6,169.9 637.4,167.3 637.1,169.2 630.3,171.8 						"/>
					</g>
					<g>
						<polygon class="st14" points="630.6,169.9 637.4,167.3 637.5,167.3 630.7,169.9 						"/>
					</g>
					<g>
						<path class="st14" d="M630.7,169.9l6.8-2.6c0.1,0,0.2,0.1,0.2,0.1l-6.8,2.6C630.8,170,630.8,170,630.7,169.9z"/>
					</g>
					<g>
						<path class="st13" d="M637.1,169.2c1.4,0.8,2.5,1.9,3.2,3.4c-2.3,0.9-4.5,1.8-6.8,2.6c-0.7-1.5-1.8-2.6-3.2-3.4
							C632.4,171,635.1,169.9,637.1,169.2z"/>
					</g>
					<g>
						<path class="st14" d="M639.8,182.8l-6.8,2.6c0.2-0.1,0.3-0.1,0.5-0.2c1.1-0.7,1.9-2.1,2.2-4.3c0.3-2.4,0-4.6-1-6.6
							c-1-2-2.2-3.4-3.7-4.3l6.8-2.6c1.5,0.9,2.8,2.3,3.7,4.3c1,2,1.3,4.3,1,6.6c-0.3,2.1-1,3.5-2.2,4.3
							C640.1,182.7,639.9,182.8,639.8,182.8z"/>
					</g>
					<g>
						<path class="st13" d="M661.2,222.2c-0.5,3.7,1.5,8.1,4.6,9.9l-6.8,2.6c-3-1.7-5.1-6.2-4.6-9.9
							C656.4,224.1,659.1,223,661.2,222.2z"/>
					</g>
					<g>
						<polygon class="st13" points="617.4,151.9 624.2,149.3 644.5,161 637.7,163.6 						"/>
					</g>
					<g>
						<polygon class="st14" points="617.7,149.9 624.5,147.2 643,157.9 636.2,160.6 						"/>
					</g>
					<g>
						<polygon class="st13" points="636.5,153.9 643.3,151.3 643,157.9 636.2,160.6 						"/>
					</g>
					<g>
						<polygon class="st14" points="637.6,154.6 644.4,152 644.5,161 637.7,163.6 						"/>
					</g>
					<g>
						<polygon class="st14" points="636.5,153.9 643.3,151.3 644.4,152 637.6,154.6 						"/>
					</g>
					<g>
						<polygon class="st14" points="637.6,154.6 637.7,163.6 617.4,151.9 617.7,149.9 636.2,160.6 636.5,153.9 						"/>
					</g>
					<g>
						<polygon class="st13" points="660.9,176.5 667.7,173.9 661.2,222.2 654.4,224.9 						"/>
					</g>
					<g>
						<polygon class="st13" points="658.9,234.8 665.7,232.1 699.9,251.8 693.1,254.5 						"/>
					</g>
					<g>
						<path class="st13" d="M667.7,173.9c-2.3,0.9-4.5,1.8-6.8,2.6c0.3-2.1,1.3-3.5,2.7-4l6.8-2.6C669,170.4,668,171.8,667.7,173.9z
							"/>
					</g>
					<g>
						<path class="st13" d="M703.6,252.3l-6.8,2.6c-1.1,0.4-2.4,0.3-3.7-0.5l6.8-2.6C701.2,252.6,702.6,252.7,703.6,252.3z"/>
					</g>
					<g>
						<path class="st2" d="M663.6,172.5l6.8-2.6c1.1-0.4,2.4-0.3,3.7,0.5l-6.8,2.6C666,172.2,664.7,172.1,663.6,172.5z"/>
					</g>
					<g>
						<path class="st2" d="M703.6,252.3l-6.8,2.6c1.4-0.5,2.4-1.9,2.7-4l6.8-2.6C706,250.4,705,251.8,703.6,252.3z"/>
					</g>
					<g>
						<polygon class="st2" points="667.3,173 674.1,170.3 708.3,190.1 701.5,192.7 						"/>
					</g>
					<g>
						<polygon class="st2" points="706.1,202.6 712.9,199.9 706.3,248.3 699.5,251 						"/>
					</g>
					<g>
						<path class="st2" d="M701.5,192.7l6.8-2.6c3,1.7,5.1,6.2,4.6,9.9l-6.8,2.6C706.6,198.9,704.5,194.4,701.5,192.7z"/>
					</g>
					<g>
						<path class="st13" d="M730.7,159L541.4,49.7c-8.6-4.9-16.7-0.4-18.1,10.1l-56.5,417.9c-1.4,10.5,4.4,23.1,12.9,28l189.3,109.3
							c8.6,5,16.7,0.4,18.1-10.1L743.7,187C745.1,176.5,739.3,164,730.7,159z M540.8,414.7c-0.8,5.7-3.1,9.9-6.4,12.4
							c2.2,5.6,3.1,11.8,2.3,17.5c-1.7,12.9-11.7,18.5-22.3,12.4c-10.6-6.1-17.7-21.5-15.9-34.5c0.8-5.7,3.1-9.9,6.4-12.4
							c-2.2-5.6-3.1-11.8-2.3-17.4c1.8-13,11.7-18.5,22.3-12.4C535.4,386.3,542.6,401.7,540.8,414.7 M537.6,258.9L557.2,114l10.4,6
							L548,264.9L537.6,258.9 M583.2,129l10.4,6L574,279.9l-10.4-6L583.2,129 M590.9,511.9c-0.1,0.8-0.3,1.7-0.6,2.4
							c-0.3,0.8-0.6,1.3-1,1.8l-1.3-1.3c0.4-0.5,0.7-1,0.9-1.5c0.2-0.5,0.4-1.3,0.5-2.2c0.2-1.8-0.1-3.7-1.1-5.6
							c-1-1.9-2.4-3.4-4.3-4.5l-1.8-1c0.6,1.1,1.1,2.3,1.4,3.6c0.3,1.3,0.4,2.6,0.2,3.9c-0.3,2.2-1.2,3.6-2.6,4.2
							c-1.4,0.5-3.1,0.3-5.1-0.9c-2-1.1-3.5-2.8-4.6-4.9c-1.1-2.1-1.5-4.3-1.2-6.5c0.3-2.3,1.2-3.7,2.8-4.4c1.6-0.7,3.5-0.3,6,1
							l5.1,2.9c2.3,1.4,4.1,3.2,5.4,5.7C590.8,507.1,591.2,509.6,590.9,511.9 M592.5,498.1l-1.5-0.9l1.4-10.2l-7-5
							c0.4,0.9,0.6,1.8,0.8,2.6c0.1,0.9,0.1,2,0,3.3c-0.3,2.1-1.1,3.5-2.4,4.1c-1.4,0.6-3,0.3-5-0.8c-2.1-1.2-3.6-2.7-4.6-4.7
							c-1.1-1.9-1.4-4.2-1.1-6.7c0.3-2.1,1-3.5,2.1-4.3c1.1-0.8,2.5-0.7,4.2,0.3c0,0,0.1,0.1,0.1,0.1l0.1,0.1l-0.2,1.8
							c-1.3-0.8-2.4-0.9-3.3-0.4c-0.8,0.5-1.4,1.6-1.6,3.2c-0.2,1.8,0,3.5,0.8,4.9c0.8,1.4,2,2.6,3.7,3.6c1.5,0.9,2.7,1.1,3.8,0.7
							c1-0.4,1.7-1.4,1.9-3c0.2-1.6,0.2-2.9-0.1-4c-0.3-1.1-0.8-2.1-1.6-2.9l0.4-1.5l10.8,7.7L592.5,498.1 M595.3,477.1l-13.6-7.9
							l-0.5,3.8l-1.4-0.8l0.5-3.8l-5.1-2.9l0.3-2l5.1,2.9l1.6-11.6l0.9,0.5l12.5,19.5L595.3,477.1 M598.9,452.7
							c-0.3,2.1-1,3.5-2.2,4.3c-0.5,0.3-1.1,0.5-1.7,0.5c0,0,0,0,0,0c-0.4,0-0.8-0.1-1.3-0.3c-0.1,0-0.1,0-0.2-0.1
							c-0.4-0.1-0.7-0.3-1.1-0.5c-0.3-0.2-0.5-0.3-0.8-0.6c-0.3-0.2-0.5-0.5-0.8-0.7c-0.4-0.4-0.8-0.9-1.2-1.4
							c-0.1-0.2-0.3-0.4-0.4-0.5c-1-1.5-2.1-3.4-3.3-5.8l-5.3-10.4l-0.1,0l-1.7,12.7l-1.4-0.8v0l2.1-15.3l1.3,0.8l3.3,6.3l3.1,6
							c0.9,1.8,1.8,3.3,2.5,4.4c0.2,0.3,0.4,0.6,0.6,0.8c0.8,1.1,1.7,1.9,2.5,2.5c1.2,0.7,2.3,0.9,3.2,0.4c0.1-0.1,0.2-0.1,0.3-0.2
							c0.7-0.5,1.1-1.4,1.3-2.8c0.2-1.2,0.1-2.3-0.1-3.3c0-0.2-0.1-0.4-0.2-0.6c-0.1-0.3-0.2-0.6-0.4-1c0-0.1,0-0.1-0.1-0.2
							c-0.1-0.1-0.1-0.2-0.2-0.3c-0.3-0.6-0.7-1.2-1.2-1.7c-0.5-0.6-1.1-1.1-1.9-1.5l0.3-1.9l0.1,0c0,0,0.1,0.1,0.1,0.1
							c1.6,0.9,2.9,2.4,3.8,4.4c0.5,1,0.8,2.1,1,3.2c0.1,0.5,0.1,1.1,0.1,1.7c0,0,0,0,0,0C599,451.6,599,452.2,598.9,452.7
							 M603.8,416.6c-0.3,2.1-1,3.5-2.2,4.3c-1.2,0.7-2.6,0.6-4.3-0.4c-1.1-0.6-2.2-1.7-3.2-3.2c-1-1.5-2.1-3.4-3.3-5.8l-5.3-10.4
							l-0.1,0l-1.7,12.7l-1.4-0.8l2.1-15.3l1.3,0.8l6.3,12.4c1.2,2.3,2.2,4,3,5.1c0.8,1.1,1.7,1.9,2.5,2.5c1.2,0.7,2.3,0.9,3.2,0.4
							c0.9-0.4,1.4-1.4,1.6-3c0.3-1.9,0-3.5-0.7-5c-0.7-1.5-1.8-2.6-3.2-3.4l0.3-1.9l0.1,0c0,0,0.1,0.1,0.1,0.1
							c1.6,0.9,2.9,2.4,3.8,4.4C603.8,412.1,604.1,414.3,603.8,416.6 M585.6,387.5l0.3-2l18.5,10.7l0.3-6.6l1.2,0.7l0.1,9
							L585.6,387.5 M609,377.7c-0.3,2.5-1.3,4-2.9,4.6c-1.6,0.6-3.7,0.1-6.3-1.4l-4.5-2.6c-2.6-1.5-4.5-3.3-5.7-5.5
							c-1.2-2.2-1.6-4.5-1.3-7c0.3-2.4,1.3-3.9,2.9-4.5c1.6-0.6,3.7-0.1,6.2,1.4l4.5,2.6c2.6,1.5,4.5,3.3,5.7,5.5
							C608.9,372.9,609.4,375.3,609,377.7 M611.8,357.4c-0.3,2.4-1.2,3.9-2.7,4.7c-1.4,0.7-3.4,0.4-5.8-1l-5.9-3.4
							c-2.3-1.3-4-3.1-5.1-5.4c-1.1-2.3-1.5-4.6-1.1-7.1c0.1-0.9,0.3-1.7,0.6-2.5c0.2-0.8,0.6-1.5,1-2.2l1.4,1.2
							c-0.4,0.6-0.7,1.2-1,1.9c-0.2,0.7-0.4,1.5-0.5,2.4c-0.3,1.9,0.1,3.7,0.9,5.4c0.9,1.7,2.3,3.1,4.2,4.2l2,1.2
							c-0.8-1.1-1.3-2.2-1.6-3.6c-0.3-1.3-0.4-2.5-0.2-3.8c0.3-2.3,1.2-3.7,2.6-4.3c1.5-0.6,3.2-0.4,5.2,0.8c2,1.2,3.7,2.9,4.8,5.1
							C611.6,353.1,612.1,355.3,611.8,357.4 M617.7,313.4c-0.3,2.1-1,3.6-2.1,4.4c-1.2,0.8-2.6,0.7-4.3-0.3c-1.1-0.6-2-1.6-2.7-2.8
							c-0.7-1.2-1.2-2.6-1.4-4.1c-0.6,1.3-1.4,2.1-2.4,2.5c-1,0.4-2.1,0.3-3.3-0.4c-1.8-1-3.1-2.6-3.9-4.6c-0.8-2.1-1-4.2-0.7-6.6
							c0.3-2.4,1.1-4,2.2-4.9c1.2-0.9,2.6-0.8,4.4,0.2c1.2,0.7,2.2,1.7,2.9,3.1c0.8,1.4,1.3,3,1.4,4.7c0.5-1.1,1.2-1.8,2.2-2.1
							c0.9-0.3,1.9-0.1,3,0.5c1.7,1,3,2.4,3.8,4.3C617.8,309.3,618,311.3,617.7,313.4 M619,301.9l-1.4-0.8c-2.2-4.2-4.5-7.7-7-10.7
							c-2.5-2.9-5.4-5.6-8.8-8.1l-1.7-1.2l0.3-2l1.7,1.2c3.3,2.4,6.3,5.2,8.9,8.3c2.6,3.1,4.9,6.6,7,10.4l1.9-14.1l1.4,0.8
							L619,301.9 M622.7,276.3c-0.1,0.8-0.3,1.7-0.6,2.4c-0.3,0.7-0.6,1.3-1,1.8l-1.3-1.3c0.4-0.5,0.7-1,0.9-1.5
							c0.2-0.5,0.4-1.3,0.5-2.2c0.2-1.8-0.1-3.7-1.1-5.6c-1-1.9-2.4-3.3-4.4-4.4l-1.8-1c0.6,1.1,1.1,2.3,1.4,3.6
							c0.3,1.3,0.4,2.6,0.2,3.9c-0.3,2.2-1.2,3.6-2.6,4.2c-1.4,0.6-3.1,0.3-5.1-0.9c-2-1.1-3.5-2.8-4.6-4.9
							c-1.1-2.1-1.5-4.3-1.2-6.5c0.3-2.3,1.2-3.7,2.9-4.4c1.6-0.7,3.5-0.3,6,1l5.1,2.9c2.3,1.4,4.1,3.2,5.4,5.7
							C622.6,271.5,623,274,622.7,276.3 M624.3,262.5l-1.5-0.9l1.4-10.2l-7-5c0.4,0.9,0.6,1.8,0.8,2.7c0.2,0.9,0.1,1.9,0,3.3
							c-0.3,2.1-1.1,3.5-2.4,4.1c-1.4,0.6-3,0.4-5-0.8c-2.1-1.2-3.6-2.8-4.6-4.7c-1-2-1.4-4.2-1.1-6.7c0.3-2,1-3.5,2.1-4.3
							c1-0.8,2.4-0.7,4.1,0.3c0.1,0.1,0.2,0.1,0.3,0.2l0.1,0.1l-0.2,1.8c-1.3-0.8-2.4-0.9-3.3-0.4c-0.8,0.5-1.4,1.6-1.6,3.1
							c-0.2,1.8,0,3.5,0.8,4.9c0.7,1.4,2,2.6,3.7,3.6c1.5,0.9,2.7,1.1,3.8,0.7c1-0.4,1.7-1.4,1.9-3c0.2-1.6,0.2-2.9-0.1-4
							c-0.3-1.1-0.8-2-1.6-2.9l0.4-1.5l10.8,7.7L624.3,262.5 M629.4,224.6l-13.6-7.9l-0.5,3.9l-1.4-0.8l0.5-3.9l-5.1-2.9l0.3-2
							l5.1,2.9l1.6-11.6l0.9,0.5l12.5,19.5L629.4,224.6 M633,200.2c-0.3,2.2-1,3.7-2.2,4.4c-1.2,0.7-2.6,0.6-4.4-0.4
							c-1-0.6-1.8-1.4-2.5-2.7c-0.7-1.2-1.2-2.6-1.4-4.1c-0.6,1.3-1.3,2.1-2.3,2.4c-1,0.3-2,0-3.2-0.6c-1.8-1-3.1-2.5-3.9-4.5
							c-0.8-2-1.1-4.1-0.8-6.3c0.3-2.2,1-3.7,2.3-4.7c1.2-1,2.6-0.9,4.3,0.1c0,0,0.1,0.1,0.1,0.1l0.1,0.1l-0.3,1.9
							c-1.3-0.7-2.4-0.8-3.3-0.2c-1,0.6-1.6,1.8-1.8,3.6c-0.2,1.7,0,3.3,0.6,4.7c0.6,1.4,1.6,2.5,3,3.3c1.4,0.8,2.5,0.9,3.3,0.3
							c0.8-0.6,1.4-1.9,1.6-3.8l0.3-2.4l1.4,0.8l-0.3,2.4c-0.2,1.8,0,3.4,0.5,4.7c0.6,1.4,1.5,2.4,2.6,3c1.3,0.7,2.3,0.9,3.2,0.4
							c0.9-0.4,1.4-1.5,1.6-3.2c0.2-1.6,0-3.1-0.6-4.5c-0.6-1.5-1.6-2.6-2.8-3.3l0.3-1.9l0.1,0c0,0,0.1,0,0.1,0.1
							c1.5,0.9,2.7,2.3,3.5,4.2C633,196,633.3,198,633,200.2 M635.6,181c-0.3,2.1-1,3.5-2.2,4.3c-1.2,0.7-2.6,0.6-4.3-0.4
							c-1.1-0.6-2.2-1.7-3.2-3.2c-1-1.5-2.1-3.5-3.3-5.8l-5.3-10.4l-0.1,0l-1.7,12.7l-1.4-0.8l2.1-15.3l1.3,0.8l6.3,12.4
							c1.2,2.3,2.2,4,3,5.1c0.8,1.1,1.7,1.9,2.5,2.5c1.2,0.7,2.3,0.9,3.2,0.5c0.9-0.4,1.4-1.5,1.6-3c0.3-1.9,0-3.5-0.7-5
							c-0.7-1.5-1.8-2.6-3.2-3.4l0.3-1.9l0.1,0c0.1,0,0.2,0.1,0.2,0.1c1.5,0.9,2.8,2.3,3.7,4.3C635.6,176.4,635.9,178.6,635.6,181
							 M617.4,151.9l0.3-2l18.5,10.7l0.3-6.6l1.2,0.7l0.1,9L617.4,151.9 M656.5,555l-10.4-6l19.6-144.9l10.4,6L656.5,555
							 M706.1,202.6l-6.5,48.4c-0.5,3.7-3.4,5.3-6.4,3.5l-34.2-19.7c-3-1.7-5.1-6.2-4.6-9.9l6.5-48.4c0.5-3.7,3.3-5.3,6.4-3.6
							l34.2,19.7C704.5,194.4,706.6,198.9,706.1,202.6"/>
					</g>
					<g>
						<path class="st14" d="M589.5,504.7c1.3,2.5,1.7,4.9,1.4,7.2c-0.1,0.8-0.3,1.7-0.6,2.4c-0.3,0.8-0.6,1.3-1,1.8l-1.3-1.3
							c0.4-0.5,0.7-1,0.9-1.5c0.2-0.5,0.4-1.3,0.5-2.2c0.2-1.8-0.1-3.7-1.1-5.6c-1-1.9-2.4-3.4-4.3-4.5l-1.8-1
							c0.6,1.1,1.1,2.3,1.4,3.6c0.3,1.3,0.4,2.6,0.2,3.9c-0.3,2.2-1.2,3.6-2.6,4.2c-1.4,0.5-3.1,0.3-5.1-0.9c-2-1.1-3.5-2.8-4.6-4.9
							c-1.1-2.1-1.5-4.3-1.2-6.5c0.3-2.3,1.2-3.7,2.8-4.4c1.6-0.7,3.5-0.3,6,1l5.1,2.9C586.5,500.3,588.3,502.2,589.5,504.7z
							 M582.1,502.3c-0.4-1.4-1.1-2.5-1.9-3.4l-1.5-0.9c-1.9-1.1-3.5-1.4-4.8-1c-1.3,0.4-2,1.5-2.2,3.2c-0.2,1.6,0.1,3.3,1.1,4.9
							c0.9,1.6,2.1,2.8,3.6,3.7c1.6,0.9,3,1.2,4.1,0.8c1.1-0.4,1.8-1.5,2-3.3C582.7,505,582.6,503.6,582.1,502.3"/>
					</g>
					<g>
						<path class="st13" d="M580.2,498.9c0.9,0.9,1.5,2,1.9,3.4c0.5,1.3,0.6,2.7,0.4,4.1c-0.2,1.8-0.9,2.9-2,3.3
							c-1.1,0.4-2.5,0.1-4.1-0.8c-1.5-0.9-2.7-2.1-3.6-3.7c-0.9-1.6-1.3-3.2-1.1-4.9c0.2-1.7,1-2.7,2.2-3.2c1.2-0.5,2.8-0.1,4.8,1
							L580.2,498.9z"/>
					</g>
					<g>
						<polygon class="st13" points="593.4,473.7 593.4,473.8 581.9,467.2 583.2,458 592,472 						"/>
					</g>
					<g>
						<path class="st14" d="M599,405.6c1.6,0.9,2.9,2.4,3.8,4.4c1,2.1,1.3,4.3,1,6.7c-0.3,2.1-1,3.5-2.2,4.3
							c-1.2,0.7-2.6,0.6-4.3-0.4c-1.1-0.6-2.2-1.7-3.2-3.2c-1-1.5-2.1-3.4-3.3-5.8l-5.3-10.4l-0.1,0l-1.7,12.7l-1.4-0.8l2.1-15.3
							l1.3,0.8l6.3,12.4c1.2,2.3,2.2,4,3,5.1c0.8,1.1,1.7,1.9,2.5,2.5c1.2,0.7,2.3,0.9,3.2,0.4c0.9-0.4,1.4-1.4,1.6-3
							c0.3-1.9,0-3.5-0.7-5c-0.7-1.5-1.8-2.6-3.2-3.4l0.3-1.9l0.1,0C598.9,405.6,598.9,405.6,599,405.6z"/>
					</g>
					<g>
						<path class="st16" d="M686.4,613.8l-6.8,2.6c3.9-1.5,6.8-5.5,7.6-11.4l6.8-2.6C693.2,608.2,690.3,612.2,686.4,613.8z"/>
					</g>
					<g>
						<path class="st13" d="M606.5,371.7c1,1.6,1.3,3.4,1.1,5.3c-0.3,1.9-1,3-2.2,3.4c-1.3,0.3-2.9-0.1-4.9-1.2l-5-2.9
							c-2.1-1.2-3.6-2.6-4.6-4.3c-1-1.6-1.4-3.4-1.1-5.3c0.3-1.9,1-3,2.3-3.3c1.3-0.3,2.9,0.1,5,1.3l5,2.9
							C604.1,368.6,605.6,370,606.5,371.7z"/>
					</g>
					<g>
						<path class="st14" d="M607.7,370.8c1.2,2.2,1.7,4.5,1.3,6.9c-0.3,2.5-1.3,4-2.9,4.6c-1.6,0.6-3.7,0.1-6.3-1.4l-4.5-2.6
							c-2.6-1.5-4.5-3.3-5.7-5.5c-1.2-2.2-1.6-4.5-1.3-7c0.3-2.4,1.3-3.9,2.9-4.5c1.6-0.6,3.7-0.1,6.2,1.4l4.5,2.6
							C604.6,366.8,606.5,368.6,607.7,370.8z M605.4,380.3c1.2-0.4,2-1.5,2.2-3.4c0.3-1.9-0.1-3.6-1.1-5.3c-1-1.6-2.5-3-4.6-4.2
							l-5-2.9c-2.1-1.2-3.7-1.6-5-1.3c-1.3,0.3-2,1.4-2.3,3.3c-0.3,1.9,0.1,3.7,1.1,5.3c1,1.6,2.5,3.1,4.6,4.3l5,2.9
							C602.5,380.2,604.1,380.6,605.4,380.3"/>
					</g>
					<g>
						<path class="st14" d="M610.4,350.9c1.2,2.3,1.6,4.4,1.3,6.5c-0.3,2.4-1.2,3.9-2.7,4.7c-1.4,0.7-3.4,0.4-5.8-1l-5.9-3.4
							c-2.3-1.3-4-3.1-5.1-5.4c-1.1-2.3-1.5-4.6-1.1-7.1c0.1-0.9,0.3-1.7,0.6-2.5c0.2-0.8,0.6-1.5,1-2.2l1.4,1.2
							c-0.4,0.6-0.7,1.2-1,1.9c-0.2,0.7-0.4,1.5-0.5,2.4c-0.3,1.9,0.1,3.7,0.9,5.4c0.9,1.7,2.3,3.1,4.2,4.2l2,1.2
							c-0.8-1.1-1.3-2.2-1.6-3.6c-0.3-1.3-0.4-2.5-0.2-3.8c0.3-2.3,1.2-3.7,2.6-4.3c1.5-0.6,3.2-0.4,5.2,0.8
							C607.7,346.9,609.3,348.6,610.4,350.9z M608.3,360c1.1-0.4,1.8-1.6,2.1-3.3c0.2-1.6-0.2-3.2-1.2-4.9c-1-1.7-2.3-3-3.9-3.9
							c-1.5-0.9-2.9-1.2-4.1-0.8c-1.2,0.4-1.9,1.4-2.1,3c-0.2,1.5-0.1,2.9,0.4,4.2c0.5,1.3,1.1,2.5,2,3.4l2.1,1.2
							C605.6,360.1,607.2,360.4,608.3,360"/>
					</g>
					<g>
						<path class="st13" d="M603.5,298.8c1.3,0.7,2.2,1.9,2.9,3.5c0.6,1.5,0.9,3.2,0.6,4.9c-0.2,1.7-0.8,2.9-1.8,3.6
							c-1,0.6-2,0.6-3.3-0.1c-1.3-0.8-2.3-1.9-2.9-3.5c-0.6-1.5-0.8-3.1-0.6-4.9c0.2-1.8,0.8-3,1.7-3.6
							C601,298,602.1,298.1,603.5,298.8z"/>
					</g>
					<g>
						<path class="st14" d="M617,307.4c0.8,1.9,1,3.9,0.7,6c-0.3,2.1-1,3.6-2.1,4.4c-1.2,0.8-2.6,0.7-4.3-0.3
							c-1.1-0.6-2-1.6-2.7-2.8c-0.7-1.2-1.2-2.6-1.4-4.1c-0.6,1.3-1.4,2.1-2.4,2.5c-1,0.4-2.1,0.3-3.3-0.4c-1.8-1-3.1-2.6-3.9-4.6
							c-0.8-2.1-1-4.2-0.7-6.6c0.3-2.4,1.1-4,2.2-4.9c1.2-0.9,2.6-0.8,4.4,0.2c1.2,0.7,2.2,1.7,2.9,3.1c0.8,1.4,1.3,3,1.4,4.7
							c0.5-1.1,1.2-1.8,2.2-2.1s1.9-0.1,3,0.5C615,304.1,616.2,305.5,617,307.4z M605.2,310.8c0.9-0.7,1.5-1.9,1.8-3.6
							c0.2-1.7,0-3.4-0.6-4.9c-0.7-1.6-1.6-2.7-2.9-3.5c-1.3-0.8-2.4-0.8-3.3-0.1c-0.9,0.7-1.5,1.9-1.7,3.6
							c-0.2,1.7-0.1,3.4,0.6,4.9c0.6,1.5,1.6,2.7,2.9,3.5C603.1,311.4,604.2,311.4,605.2,310.8 M614.6,315.7
							c0.9-0.6,1.5-1.6,1.7-3.1c0.2-1.5,0-3-0.6-4.4c-0.6-1.4-1.5-2.4-2.7-3.2c-1.2-0.7-2.2-0.7-3.1-0.2c-0.8,0.6-1.4,1.6-1.6,3.1
							c-0.2,1.5,0,3,0.6,4.3c0.6,1.4,1.5,2.5,2.7,3.2C612.7,316.2,613.8,316.3,614.6,315.7"/>
					</g>
					<g>
						<path class="st14" d="M621.1,285.7l-2.2,16.2l-1.4-0.8c-2.2-4.2-4.5-7.7-7-10.7c-2.5-2.9-5.4-5.6-8.8-8.1l-1.7-1.2l0.3-2
							l1.7,1.2c3.3,2.4,6.3,5.2,8.9,8.3c2.6,3.1,4.9,6.6,7,10.4l1.9-14.1L621.1,285.7z"/>
					</g>
					<g>
						<path class="st13" d="M612,263.3c0.9,0.9,1.5,2,1.9,3.4c0.5,1.4,0.6,2.7,0.4,4.1c-0.2,1.8-0.9,2.9-2,3.3
							c-1.1,0.4-2.5,0.1-4.1-0.8c-1.5-0.9-2.7-2.1-3.6-3.7c-0.9-1.6-1.3-3.2-1.1-4.9c0.2-1.7,1-2.8,2.3-3.2c1.2-0.4,2.8-0.1,4.7,1
							L612,263.3z"/>
					</g>
					<g>
						<path class="st14" d="M621.3,269.1c1.2,2.5,1.7,4.9,1.4,7.2c-0.1,0.8-0.3,1.7-0.6,2.4c-0.3,0.7-0.6,1.3-1,1.8l-1.3-1.3
							c0.4-0.5,0.7-1,0.9-1.5c0.2-0.5,0.4-1.3,0.5-2.2c0.2-1.8-0.1-3.7-1.1-5.6c-1-1.9-2.4-3.3-4.4-4.4l-1.8-1
							c0.6,1.1,1.1,2.3,1.4,3.6c0.3,1.3,0.4,2.6,0.2,3.9c-0.3,2.2-1.2,3.6-2.6,4.2c-1.4,0.6-3.1,0.3-5.1-0.9c-2-1.1-3.5-2.8-4.6-4.9
							c-1.1-2.1-1.5-4.3-1.2-6.5c0.3-2.3,1.2-3.7,2.9-4.4c1.6-0.7,3.5-0.3,6,1l5.1,2.9C618.3,264.7,620.1,266.6,621.3,269.1z
							 M614,266.6c-0.4-1.4-1.1-2.5-1.9-3.4l-1.5-0.9c-1.9-1.1-3.5-1.4-4.7-1c-1.3,0.4-2,1.5-2.3,3.2c-0.2,1.6,0.1,3.3,1.1,4.9
							c0.9,1.6,2.1,2.8,3.6,3.7c1.6,0.9,3,1.2,4.1,0.8c1.1-0.4,1.8-1.5,2-3.3C614.5,269.4,614.4,268,614,266.6"/>
					</g>
					<g>
						<path class="st16" d="M530.9,48.4l6.8-2.6c3.1-1.2,6.7-0.8,10.5,1.3l-6.8,2.6C537.6,47.5,534,47.2,530.9,48.4z"/>
					</g>
					<g>
						<path class="st14" d="M610.9,240.1c0.1,0.1,0.2,0.1,0.3,0.2l0.1,0.1l-0.2,1.8c-1.3-0.8-2.4-0.9-3.3-0.4
							c-0.8,0.5-1.4,1.6-1.6,3.1c-0.2,1.8,0,3.5,0.8,4.9c0.7,1.4,2,2.6,3.7,3.6c1.5,0.9,2.7,1.1,3.8,0.7c1-0.4,1.7-1.4,1.9-3
							c0.2-1.6,0.2-2.9-0.1-4c-0.3-1.1-0.8-2-1.6-2.9l0.4-1.5l10.8,7.7l-1.6,12l-1.5-0.9l1.4-10.2l-7-5c0.4,0.9,0.6,1.8,0.8,2.7
							c0.2,0.9,0.1,1.9,0,3.3c-0.3,2.1-1.1,3.5-2.4,4.1c-1.4,0.6-3,0.4-5-0.8c-2.1-1.2-3.6-2.8-4.6-4.7c-1-2-1.4-4.2-1.1-6.7
							c0.3-2,1-3.5,2.1-4.3C607.9,239.1,609.3,239.2,610.9,240.1z"/>
					</g>
					<g>
						<polygon class="st14" points="593.6,135 574,279.9 563.6,273.9 583.2,129 						"/>
					</g>
					<g>
						<path class="st14" d="M618.9,183.7c0,0,0.1,0.1,0.1,0.1l0.1,0.1l-0.3,1.9c-1.3-0.7-2.4-0.8-3.3-0.2c-1,0.6-1.6,1.8-1.8,3.6
							c-0.2,1.7,0,3.3,0.6,4.7c0.6,1.4,1.6,2.5,3,3.3c1.4,0.8,2.5,0.9,3.3,0.3c0.8-0.6,1.4-1.9,1.6-3.8l0.3-2.4l1.4,0.8l-0.3,2.4
							c-0.2,1.8,0,3.4,0.5,4.7c0.6,1.4,1.5,2.4,2.6,3c1.3,0.7,2.3,0.9,3.2,0.4c0.9-0.4,1.4-1.5,1.6-3.2c0.2-1.6,0-3.1-0.6-4.5
							c-0.6-1.5-1.6-2.6-2.8-3.3l0.3-1.9l0.1,0c0,0,0.1,0,0.1,0.1c1.5,0.9,2.7,2.3,3.5,4.2c0.9,2,1.1,4.1,0.8,6.2
							c-0.3,2.2-1,3.7-2.2,4.4c-1.2,0.7-2.6,0.6-4.4-0.4c-1-0.6-1.8-1.4-2.5-2.7c-0.7-1.2-1.2-2.6-1.4-4.1c-0.6,1.3-1.3,2.1-2.3,2.4
							c-1,0.3-2,0-3.2-0.6c-1.8-1-3.1-2.5-3.9-4.5c-0.8-2-1.1-4.1-0.8-6.3c0.3-2.2,1-3.7,2.3-4.7
							C615.8,182.7,617.2,182.8,618.9,183.7z"/>
					</g>
					<g>
						<path class="st14" d="M630.9,170.1c1.5,0.9,2.8,2.3,3.7,4.3c1,2,1.3,4.3,1,6.6c-0.3,2.1-1,3.5-2.2,4.3
							c-1.2,0.7-2.6,0.6-4.3-0.4c-1.1-0.6-2.2-1.7-3.2-3.2c-1-1.5-2.1-3.5-3.3-5.8l-5.3-10.4l-0.1,0l-1.7,12.7l-1.4-0.8l2.1-15.3
							l1.3,0.8l6.3,12.4c1.2,2.3,2.2,4,3,5.1c0.8,1.1,1.7,1.9,2.5,2.5c1.2,0.7,2.3,0.9,3.2,0.5c0.9-0.4,1.4-1.5,1.6-3
							c0.3-1.9,0-3.5-0.7-5c-0.7-1.5-1.8-2.6-3.2-3.4l0.3-1.9l0.1,0C630.8,170,630.8,170,630.9,170.1z"/>
					</g>
					<g>
						<path class="st2" d="M701.5,192.7c3,1.7,5.1,6.2,4.6,9.9l-6.5,48.4c-0.5,3.7-3.4,5.3-6.4,3.5l-34.2-19.7
							c-3-1.7-5.1-6.2-4.6-9.9l6.5-48.4c0.5-3.7,3.3-5.3,6.4-3.6L701.5,192.7z"/>
					</g>
					<g>
						<polygon class="st16" points="541.4,49.7 548.2,47.1 737.5,156.4 730.7,159 						"/>
					</g>
					<g>
						<polygon class="st16" points="743.7,187 750.5,184.4 694,602.3 687.2,605 						"/>
					</g>
					<g>
						<path class="st16" d="M730.7,159l6.8-2.6c8.6,5,14.4,17.5,12.9,28l-6.8,2.6C745.1,176.5,739.3,164,730.7,159z"/>
					</g>
				</g>
			</g>
			<g>
				<g>
					<polygon class="st17" points="510.1,380.6 430.7,426.7 419.3,558.3 466.2,587.8 561.5,527.3 554.7,385.9 536.6,389.6 
						523.7,373 					"/>
					<polygon class="st18" points="430.7,426.7 444.3,453.2 467.7,439.6 466.2,587.8 419.3,558.3 					"/>
					<polygon class="st19" points="467.7,439.6 554.7,385.9 561.5,527.3 466.2,587.8 					"/>
					<path class="st20" d="M503.5,446.6c-0.5,3.5-2.6,6.1-4.6,5.8c-2-0.3-3.2-3.4-2.6-6.9c0.5-3.5,2.6-6.1,4.6-5.8
						C502.9,440,504.1,443.1,503.5,446.6z"/>
					<path class="st20" d="M532,429c-0.5,3.5-2.6,6.1-4.6,5.8s-3.2-3.4-2.6-6.9c0.5-3.5,2.6-6.1,4.6-5.8
						C531.4,422.4,532.6,425.5,532,429z"/>
					<polygon class="st19" points="419.3,558.3 443.5,549.3 466.2,587.8 					"/>
				</g>
				<g>
					<path class="st20" d="M514.8,480.4c-1.7,0-3.4-0.5-4.9-1.6c-9.6-6.5-11.2-31.6-11.2-32.7l2.4-0.1c0,0.2,1.6,25,10.2,30.8
						c1.8,1.2,3.8,1.5,6,0.7c12-4,11.2-36.7,9.9-48.9l2.4-0.3c0.2,1.9,4.7,46.1-11.6,51.5C516.9,480.2,515.9,480.4,514.8,480.4z"/>
				</g>
			</g>
			<g>
				<g>
					<polygon class="st17" points="600,427 520.5,473.2 509.2,604.8 556.1,634.3 651.4,573.8 644.6,432.3 626.5,436.1 613.6,419.5 
											"/>
					<polygon class="st18" points="520.5,473.2 534.2,499.7 557.6,486.1 556.1,634.3 509.2,604.8 					"/>
					<polygon class="st19" points="557.6,486.1 644.6,432.3 651.4,573.8 556.1,634.3 					"/>
					<path class="st20" d="M593.4,493.1c-0.5,3.5-2.6,6.1-4.6,5.8c-2-0.3-3.2-3.4-2.6-6.9c0.5-3.5,2.6-6.1,4.6-5.8
						S593.9,489.6,593.4,493.1z"/>
					<path class="st20" d="M621.9,475.5c-0.5,3.5-2.6,6.1-4.6,5.8s-3.2-3.4-2.6-6.9c0.5-3.5,2.6-6.1,4.6-5.8
						C621.3,468.9,622.5,472,621.9,475.5z"/>
					<polygon class="st19" points="509.2,604.8 533.4,595.8 556.1,634.3 					"/>
				</g>
				<g>
					<path class="st20" d="M604.7,526.9c-1.7,0-3.4-0.5-4.9-1.6c-9.6-6.5-11.2-31.6-11.2-32.7l2.4-0.1c0,0.2,1.6,25,10.2,30.8
						c1.8,1.2,3.8,1.5,6,0.7c12-4,11.2-36.7,9.9-48.9l2.4-0.3c0.2,1.9,4.7,46.1-11.6,51.5C606.8,526.7,605.8,526.9,604.7,526.9z"/>
				</g>
			</g>
			<g>
				
					<rect x="381.9" y="423.5" transform="matrix(0.9808 -0.1951 0.1951 0.9808 -90.7377 84.6679)" class="st7" width="5.2" height="159"/>
			</g>
			<g>
				
					<rect x="432.3" y="454.7" transform="matrix(0.9938 -0.1111 0.1111 0.9938 -55.9996 51.5714)" class="st7" width="5.2" height="147.4"/>
			</g>
			<g>
				
					<rect x="472.4" y="481.6" transform="matrix(0.9962 -8.663492e-02 8.663492e-02 0.9962 -45.973 43.2213)" class="st7" width="5.2" height="139.3"/>
			</g>
			<g>
				
					<rect x="513.7" y="506" transform="matrix(0.9999 -1.325236e-02 1.325236e-02 0.9999 -7.5229 6.8927)" class="st7" width="5.2" height="130.1"/>
			</g>
			<g>
				
					<rect x="499.5" y="590.5" transform="matrix(2.147499e-02 -0.9998 0.9998 2.147499e-02 -44.2609 1140.8905)" class="st7" width="122.4" height="5.2"/>
			</g>
			<g>
				<path class="st7" d="M735.8,482.5c0.2,0.3,0.3,0.7,0.4,1C736.1,483.1,736,482.8,735.8,482.5z"/>
				<path class="st7" d="M736.2,483.5l-10.8,0.7l0,0l-119.5,68.3L323.5,393l164.4-78.5l-1.2,0.6l-0.1-8.5l-44.5,21.2l-128.7,61.5
					c-1.3,0.6-2.2,1.9-2.2,3.4c-0.1,1.4,0.7,2.8,2,3.5L604,560.2c0.6,0.3,1.2,0.5,1.9,0.5c0.7,0,1.3-0.2,1.9-0.5l126.7-72.4
					c1.1-0.7,1.9-1.9,1.9-3.2C736.5,484.3,736.3,483.9,736.2,483.5z"/>
			</g>
			<g>
				<polygon class="st10" points="621.4,547.8 617.6,647.3 701.6,600.8 718.4,492.2 				"/>
			</g>
			<g>
				<path class="st21" d="M552.5,524.1"/>
			</g>
			<g>
				<path class="st7" d="M596.9,674.5c-0.5,0-1.1-0.1-1.6-0.3l-236.5-106c-1.1-0.5-1.9-1.4-2.2-2.6l-45.2-171.9l7.5-2l44.8,170.1
					l229.8,103l8.6-108.3l7.7,0.6l-9,113.7c-0.1,1.3-0.8,2.4-1.9,3C598.3,674.3,597.6,674.5,596.9,674.5z"/>
			</g>
			<g>
				<path class="st8" d="M299.9,332.5l29.9,29c1.5,1.5,2.7,3.4,3.3,5.5l10.8,38.6c2.7,9.6-6.6,18.1-15.9,14.8l-4.5-1.6
					c-3.5-1.3-6.2-4-7.4-7.5L303.2,374c-0.5-1.6-1.4-3-2.5-4.3l-18.4-20.2c-3.5-3.8-4.2-9.4-1.8-13.9l0,0
					C284.4,328.4,294,326.9,299.9,332.5z"/>
			</g>
			<g>
				<path class="st10" d="M294.2,334.9l29.9,29c1.5,1.5,2.7,3.4,3.3,5.5l10.8,38.6c2.7,9.6-6.6,18.1-15.9,14.8l-4.5-1.6
					c-3.5-1.3-6.2-4-7.4-7.5l-12.8-37.3c-0.5-1.6-1.4-3-2.5-4.3l-18.4-20.2c-3.5-3.8-4.2-9.4-1.8-13.9l0,0
					C278.7,330.7,288.4,329.2,294.2,334.9z"/>
			</g>
		</g>
		<path class="st22" d="M340.3,308.9c0,7.3-5.9,13.2-13.2,13.2s-13.2-5.9-13.2-13.2s5.9-13.2,13.2-13.2S340.3,301.6,340.3,308.9z"/>
		<path class="st3" d="M280.7,109.5c0,0,28.9,8.6,35.4,54.5c6.6,46,25.2,66.8,25.2,66.8L396,267c0,0-7.7,18.6-21.9,13.1
			c-14.2-5.5-72.2-35-78.8-48.2c-6.6-13.1-16.4-33.9-16.4-33.9L280.7,109.5z"/>
		<path class="st22" d="M410.3,280.1c0,7.3-5.9,13.2-13.2,13.2c-7.3,0-13.2-5.9-13.2-13.2c0-7.3,5.9-13.2,13.2-13.2
			C404.4,266.9,410.3,272.8,410.3,280.1z"/>
		<linearGradient id="SVGID_2_" gradientUnits="userSpaceOnUse" x1="278.8589" y1="202.3631" x2="219.4554" y2="225.6079">
			<stop  offset="0.2281" style="stop-color:#737AFB;stop-opacity:0"/>
			<stop  offset="0.8354" style="stop-color:#4D4B7E;stop-opacity:0.3"/>
		</linearGradient>
		<path class="st23" d="M212.1,166.8c0,0,36.5,75.2,39.2,76.1c2.7,0.9,15.6,25.9,15.6,25.9s15.5-12.9,16.4-16.4
			c0.9-3.4,2.6-37,2.6-37L212.1,166.8z"/>
		<path class="st3" d="M230.2,117.4c0,0-49.8,16.6-55.9,30c-6.1,13.5-4.9,39.1,3.7,55c8.6,15.9,56.3,81.9,59.9,83.2
			c3.7,1.2,74.6,30.6,74.6,30.6s13.5-4.9,14.7-13.5c1.2-8.6-62.4-47.7-75.8-59.9c-13.5-12.2-33-57.5-33-57.5
			S238.8,121.1,230.2,117.4z"/>
		<path class="st14" d="M240.7,117.4c0,0-13.1,3.7-14.3,6.7c-1.2,3,8.5,17.1,18.9,24.7c10.4,7.6,17.1,9.7,17.1,9.7
			s11.9-14.3,11.6-34.1C273.6,104.6,240.7,117.4,240.7,117.4z"/>
		
			<ellipse transform="matrix(0.1605 -0.987 0.987 0.1605 148.1369 317.5099)" class="st22" cx="260.7" cy="71.7" rx="35.7" ry="35.7"/>
		<path class="st22" d="M275.9,88.7l-12.1,36.7l0,0c-7.2,6-17.3,7.1-25.6,2.6l0,0c-2.3-1.2-3.4-3.8-2.8-6.3l9-35.6L275.9,88.7z"/>
		<path class="st1" d="M289.7,63.3c1.7-0.7,3.6-1.5,4.6-3.1c0-0.1,0.1-0.2,0.1-0.2c-4.8-14-18.1-24-33.7-24
			c-19.7,0-35.7,16-35.7,35.7c0,1.6,0.1,3.1,0.3,4.7c1.6,0.3,3.3,0.2,4.8-0.1c3.5-0.9,13.3-9.4,10.6-13.7c1.3,2.1,2.6,4.2,3.9,6.4
			c2.2-1.9,3.3-4.9,2.9-7.7C260.5,67.6,276.2,68.5,289.7,63.3z"/>
		<path class="st22" d="M240.3,72.8c0,6-4.9,10.9-10.9,10.9c-6,0-10.9-4.9-10.9-10.9c0-6,4.9-10.9,10.9-10.9
			C235.5,62,240.3,66.8,240.3,72.8z"/>
	</g>
</g>
</svg>
