<?xml version="1.0" encoding="UTF-8" standalone="no"?>
<!DOCTYPE svg PUBLIC "-//W3C//DTD SVG 1.1//EN"
 "http://www.w3.org/Graphics/SVG/1.1/DTD/svg11.dtd">
<!-- Generated by graphviz version 2.40.1 (20161225.0304)
 -->
<!-- Title: dependencies Pages: 1 -->
<svg width="897pt" height="211pt"
 viewBox="0.00 0.00 897.00 211.00" xmlns="http://www.w3.org/2000/svg" xmlns:xlink="http://www.w3.org/1999/xlink">
<g id="graph0" class="graph" transform="scale(1 1) rotate(0) translate(4 207)">
<title>dependencies</title>
<polygon fill="#ffffff" stroke="transparent" points="-4,4 -4,-207 893,-207 893,4 -4,4"/>
<text text-anchor="start" x="423.5091" y="-42.4" font-family="sans-serif" font-weight="bold" font-size="14.00" fill="#000000">Legend</text>
<polygon fill="#ffffb3" stroke="transparent" points="210.5,-10 210.5,-30 230.5,-30 230.5,-10 210.5,-10"/>
<text text-anchor="start" x="234.129" y="-15.4" font-family="sans-serif" font-size="14.00" fill="#000000"> &#160;Declarations</text>
<polygon fill="#8dd3c7" stroke="transparent" points="323.5,-10 323.5,-30 343.5,-30 343.5,-10 323.5,-10"/>
<text text-anchor="start" x="347.2251" y="-15.4" font-family="sans-serif" font-size="14.00" fill="#000000"> &#160;Module</text>
<polygon fill="#80b1d3" stroke="transparent" points="409.5,-10 409.5,-30 429.5,-30 429.5,-10 409.5,-10"/>
<text text-anchor="start" x="433.2812" y="-15.4" font-family="sans-serif" font-size="14.00" fill="#000000"> &#160;Bootstrap</text>
<polygon fill="#fdb462" stroke="transparent" points="506.5,-10 506.5,-30 526.5,-30 526.5,-10 506.5,-10"/>
<text text-anchor="start" x="530.1732" y="-15.4" font-family="sans-serif" font-size="14.00" fill="#000000"> &#160;Providers</text>
<polygon fill="#fb8072" stroke="transparent" points="602.5,-10 602.5,-30 622.5,-30 622.5,-10 602.5,-10"/>
<text text-anchor="start" x="626.2258" y="-15.4" font-family="sans-serif" font-size="14.00" fill="#000000"> &#160;Exports</text>
<g id="clust1" class="cluster">
<title>cluster_FormModule</title>
<polygon fill="none" stroke="#000000" stroke-dasharray="1,5" points="8,-70 8,-195 881,-195 881,-70 8,-70"/>
</g>
<g id="clust2" class="cluster">
<title>cluster_FormModule_declarations</title>
<polygon fill="none" stroke="#000000" points="296,-78 296,-130 873,-130 873,-78 296,-78"/>
</g>
<g id="clust7" class="cluster">
<title>cluster_FormModule_imports</title>
<polygon fill="none" stroke="#000000" points="16,-78 16,-130 288,-130 288,-78 16,-78"/>
</g>
<!-- EditorComponent -->
<g id="node1" class="node">
<title>EditorComponent</title>
<polygon fill="#ffffb3" stroke="#000000" points="865.3273,-122 748.6727,-122 748.6727,-86 865.3273,-86 865.3273,-122"/>
<text text-anchor="middle" x="807" y="-99.8" font-family="Times,serif" font-size="14.00" fill="#000000">EditorComponent</text>
</g>
<!-- FormModule -->
<g id="node5" class="node">
<title>FormModule</title>
<polygon fill="#8dd3c7" stroke="#000000" points="491.8837,-187 488.8837,-191 467.8837,-191 464.8837,-187 402.1163,-187 402.1163,-151 491.8837,-151 491.8837,-187"/>
<text text-anchor="middle" x="447" y="-164.8" font-family="Times,serif" font-size="14.00" fill="#000000">FormModule</text>
</g>
<!-- EditorComponent&#45;&gt;FormModule -->
<g id="edge1" class="edge">
<title>EditorComponent&#45;&gt;FormModule</title>
<path fill="none" stroke="#000000" d="M807,-122.2843C807,-143.3211 807,-175 807,-175 807,-175 502.2297,-175 502.2297,-175"/>
<polygon fill="#000000" stroke="#000000" points="502.2298,-171.5001 492.2297,-175 502.2297,-178.5001 502.2298,-171.5001"/>
</g>
<!-- ElementsComponent -->
<g id="node2" class="node">
<title>ElementsComponent</title>
<polygon fill="#ffffb3" stroke="#000000" points="730.9313,-122 597.0687,-122 597.0687,-86 730.9313,-86 730.9313,-122"/>
<text text-anchor="middle" x="664" y="-99.8" font-family="Times,serif" font-size="14.00" fill="#000000">ElementsComponent</text>
</g>
<!-- ElementsComponent&#45;&gt;FormModule -->
<g id="edge2" class="edge">
<title>ElementsComponent&#45;&gt;FormModule</title>
<path fill="none" stroke="#000000" d="M664,-122.0225C664,-139.3734 664,-163 664,-163 664,-163 501.9625,-163 501.9625,-163"/>
<polygon fill="#000000" stroke="#000000" points="501.9626,-159.5001 491.9625,-163 501.9625,-166.5001 501.9626,-159.5001"/>
</g>
<!-- FormsComponent -->
<g id="node3" class="node">
<title>FormsComponent</title>
<polygon fill="#ffffb3" stroke="#000000" points="579.6109,-122 462.3891,-122 462.3891,-86 579.6109,-86 579.6109,-122"/>
<text text-anchor="middle" x="521" y="-99.8" font-family="Times,serif" font-size="14.00" fill="#000000">FormsComponent</text>
</g>
<!-- FormsComponent&#45;&gt;FormModule -->
<g id="edge3" class="edge">
<title>FormsComponent&#45;&gt;FormModule</title>
<path fill="none" stroke="#000000" d="M477.1932,-122.1061C477.1932,-122.1061 477.1932,-140.991 477.1932,-140.991"/>
<polygon fill="#000000" stroke="#000000" points="473.6933,-140.9909 477.1932,-150.991 480.6933,-140.991 473.6933,-140.9909"/>
</g>
<!-- ValidationComponent -->
<g id="node4" class="node">
<title>ValidationComponent</title>
<polygon fill="#ffffb3" stroke="#000000" points="444.4313,-122 303.5687,-122 303.5687,-86 444.4313,-86 444.4313,-122"/>
<text text-anchor="middle" x="374" y="-99.8" font-family="Times,serif" font-size="14.00" fill="#000000">ValidationComponent</text>
</g>
<!-- ValidationComponent&#45;&gt;FormModule -->
<g id="edge4" class="edge">
<title>ValidationComponent&#45;&gt;FormModule</title>
<path fill="none" stroke="#000000" d="M423.1368,-122.1061C423.1368,-122.1061 423.1368,-140.991 423.1368,-140.991"/>
<polygon fill="#000000" stroke="#000000" points="419.6368,-140.9909 423.1368,-150.991 426.6368,-140.991 419.6368,-140.9909"/>
</g>
<!-- FormsRoutingModule -->
<g id="node6" class="node">
<title>FormsRoutingModule</title>
<polygon fill="#8dd3c7" stroke="#000000" points="280.4467,-122 277.4467,-126 256.4467,-126 253.4467,-122 139.5533,-122 139.5533,-86 280.4467,-86 280.4467,-122"/>
<text text-anchor="middle" x="210" y="-99.8" font-family="Times,serif" font-size="14.00" fill="#000000">FormsRoutingModule</text>
</g>
<!-- FormsRoutingModule&#45;&gt;FormModule -->
<g id="edge5" class="edge">
<title>FormsRoutingModule&#45;&gt;FormModule</title>
<path fill="none" stroke="#000000" d="M210,-122.0225C210,-139.3734 210,-163 210,-163 210,-163 391.8643,-163 391.8643,-163"/>
<polygon fill="#000000" stroke="#000000" points="391.8643,-166.5001 401.8643,-163 391.8642,-159.5001 391.8643,-166.5001"/>
</g>
<!-- SharedModule -->
<g id="node7" class="node">
<title>SharedModule</title>
<polygon fill="#8dd3c7" stroke="#000000" points="122.4231,-122 119.4231,-126 98.4231,-126 95.4231,-122 23.5769,-122 23.5769,-86 122.4231,-86 122.4231,-122"/>
<text text-anchor="middle" x="73" y="-99.8" font-family="Times,serif" font-size="14.00" fill="#000000">SharedModule</text>
</g>
<!-- SharedModule&#45;&gt;FormModule -->
<g id="edge6" class="edge">
<title>SharedModule&#45;&gt;FormModule</title>
<path fill="none" stroke="#000000" d="M73,-122.2843C73,-143.3211 73,-175 73,-175 73,-175 391.8869,-175 391.8869,-175"/>
<polygon fill="#000000" stroke="#000000" points="391.8869,-178.5001 401.8869,-175 391.8868,-171.5001 391.8869,-178.5001"/>
</g>
</g>
</svg>
