<?xml version="1.0" encoding="UTF-8" standalone="no"?>
<!DOCTYPE svg PUBLIC "-//W3C//DTD SVG 1.1//EN"
 "http://www.w3.org/Graphics/SVG/1.1/DTD/svg11.dtd">
<!-- Generated by graphviz version 2.40.1 (20161225.0304)
 -->
<!-- Title: dependencies Pages: 1 -->
<svg width="897pt" height="211pt"
 viewBox="0.00 0.00 897.00 211.00" xmlns="http://www.w3.org/2000/svg" xmlns:xlink="http://www.w3.org/1999/xlink">
<g id="graph0" class="graph" transform="scale(1 1) rotate(0) translate(4 207)">
<title>dependencies</title>
<polygon fill="#ffffff" stroke="transparent" points="-4,4 -4,-207 893,-207 893,4 -4,4"/>
<text text-anchor="start" x="423.5091" y="-42.4" font-family="sans-serif" font-weight="bold" font-size="14.00" fill="#000000">Legend</text>
<polygon fill="#ffffb3" stroke="transparent" points="210.5,-10 210.5,-30 230.5,-30 230.5,-10 210.5,-10"/>
<text text-anchor="start" x="234.129" y="-15.4" font-family="sans-serif" font-size="14.00" fill="#000000"> &#160;Declarations</text>
<polygon fill="#8dd3c7" stroke="transparent" points="323.5,-10 323.5,-30 343.5,-30 343.5,-10 323.5,-10"/>
<text text-anchor="start" x="347.2251" y="-15.4" font-family="sans-serif" font-size="14.00" fill="#000000"> &#160;Module</text>
<polygon fill="#80b1d3" stroke="transparent" points="409.5,-10 409.5,-30 429.5,-30 429.5,-10 409.5,-10"/>
<text text-anchor="start" x="433.2812" y="-15.4" font-family="sans-serif" font-size="14.00" fill="#000000"> &#160;Bootstrap</text>
<polygon fill="#fdb462" stroke="transparent" points="506.5,-10 506.5,-30 526.5,-30 526.5,-10 506.5,-10"/>
<text text-anchor="start" x="530.1732" y="-15.4" font-family="sans-serif" font-size="14.00" fill="#000000"> &#160;Providers</text>
<polygon fill="#fb8072" stroke="transparent" points="602.5,-10 602.5,-30 622.5,-30 622.5,-10 602.5,-10"/>
<text text-anchor="start" x="626.2258" y="-15.4" font-family="sans-serif" font-size="14.00" fill="#000000"> &#160;Exports</text>
<g id="clust1" class="cluster">
<title>cluster_FormModule</title>
<polygon fill="none" stroke="#000000" stroke-dasharray="1,5" points="8,-70 8,-195 881,-195 881,-70 8,-70"/>
</g>
<g id="clust2" class="cluster">
<title>cluster_FormModule_declarations</title>
<polygon fill="none" stroke="#000000" points="296,-78 296,-130 873,-130 873,-78 296,-78"/>
</g>
<g id="clust7" class="cluster">
<title>cluster_FormModule_imports</title>
<polygon fill="none" stroke="#000000" points="16,-78 16,-130 288,-130 288,-78 16,-78"/>
</g>
<!-- FormsComponent -->
<g id="node1" class="node">
<title>FormsComponent</title>
<polygon fill="#ffffb3" stroke="#000000" points="864.6109,-122 747.3891,-122 747.3891,-86 864.6109,-86 864.6109,-122"/>
<text text-anchor="middle" x="806" y="-99.8" font-family="Times,serif" font-size="14.00" fill="#000000">FormsComponent</text>
</g>
<!-- FormModule -->
<g id="node5" class="node">
<title>FormModule</title>
<polygon fill="#8dd3c7" stroke="#000000" points="479.8837,-187 476.8837,-191 455.8837,-191 452.8837,-187 390.1163,-187 390.1163,-151 479.8837,-151 479.8837,-187"/>
<text text-anchor="middle" x="435" y="-164.8" font-family="Times,serif" font-size="14.00" fill="#000000">FormModule</text>
</g>
<!-- FormsComponent&#45;&gt;FormModule -->
<g id="edge1" class="edge">
<title>FormsComponent&#45;&gt;FormModule</title>
<path fill="none" stroke="#000000" d="M806,-122.2843C806,-143.3211 806,-175 806,-175 806,-175 490.121,-175 490.121,-175"/>
<polygon fill="#000000" stroke="#000000" points="490.121,-171.5001 480.121,-175 490.1209,-178.5001 490.121,-171.5001"/>
</g>
<!-- ElementsComponent -->
<g id="node2" class="node">
<title>ElementsComponent</title>
<polygon fill="#ffffb3" stroke="#000000" points="729.9313,-122 596.0687,-122 596.0687,-86 729.9313,-86 729.9313,-122"/>
<text text-anchor="middle" x="663" y="-99.8" font-family="Times,serif" font-size="14.00" fill="#000000">ElementsComponent</text>
</g>
<!-- ElementsComponent&#45;&gt;FormModule -->
<g id="edge2" class="edge">
<title>ElementsComponent&#45;&gt;FormModule</title>
<path fill="none" stroke="#000000" d="M663,-122.0225C663,-139.3734 663,-163 663,-163 663,-163 490.0455,-163 490.0455,-163"/>
<polygon fill="#000000" stroke="#000000" points="490.0455,-159.5001 480.0455,-163 490.0454,-166.5001 490.0455,-159.5001"/>
</g>
<!-- ValidationComponent -->
<g id="node3" class="node">
<title>ValidationComponent</title>
<polygon fill="#ffffb3" stroke="#000000" points="578.4313,-122 437.5687,-122 437.5687,-86 578.4313,-86 578.4313,-122"/>
<text text-anchor="middle" x="508" y="-99.8" font-family="Times,serif" font-size="14.00" fill="#000000">ValidationComponent</text>
</g>
<!-- ValidationComponent&#45;&gt;FormModule -->
<g id="edge3" class="edge">
<title>ValidationComponent&#45;&gt;FormModule</title>
<path fill="none" stroke="#000000" d="M458.8633,-122.1061C458.8633,-122.1061 458.8633,-140.991 458.8633,-140.991"/>
<polygon fill="#000000" stroke="#000000" points="455.3633,-140.9909 458.8633,-150.991 462.3633,-140.991 455.3633,-140.9909"/>
</g>
<!-- EditorComponent -->
<g id="node4" class="node">
<title>EditorComponent</title>
<polygon fill="#ffffb3" stroke="#000000" points="420.3273,-122 303.6727,-122 303.6727,-86 420.3273,-86 420.3273,-122"/>
<text text-anchor="middle" x="362" y="-99.8" font-family="Times,serif" font-size="14.00" fill="#000000">EditorComponent</text>
</g>
<!-- EditorComponent&#45;&gt;FormModule -->
<g id="edge4" class="edge">
<title>EditorComponent&#45;&gt;FormModule</title>
<path fill="none" stroke="#000000" d="M405.1108,-122.1061C405.1108,-122.1061 405.1108,-140.991 405.1108,-140.991"/>
<polygon fill="#000000" stroke="#000000" points="401.6109,-140.9909 405.1108,-150.991 408.6109,-140.991 401.6109,-140.9909"/>
</g>
<!-- SharedModule -->
<g id="node6" class="node">
<title>SharedModule</title>
<polygon fill="#8dd3c7" stroke="#000000" points="280.4231,-122 277.4231,-126 256.4231,-126 253.4231,-122 181.5769,-122 181.5769,-86 280.4231,-86 280.4231,-122"/>
<text text-anchor="middle" x="231" y="-99.8" font-family="Times,serif" font-size="14.00" fill="#000000">SharedModule</text>
</g>
<!-- SharedModule&#45;&gt;FormModule -->
<g id="edge5" class="edge">
<title>SharedModule&#45;&gt;FormModule</title>
<path fill="none" stroke="#000000" d="M231,-122.0225C231,-139.3734 231,-163 231,-163 231,-163 379.9788,-163 379.9788,-163"/>
<polygon fill="#000000" stroke="#000000" points="379.9788,-166.5001 389.9788,-163 379.9788,-159.5001 379.9788,-166.5001"/>
</g>
<!-- FormsRoutingModule -->
<g id="node7" class="node">
<title>FormsRoutingModule</title>
<polygon fill="#8dd3c7" stroke="#000000" points="164.4467,-122 161.4467,-126 140.4467,-126 137.4467,-122 23.5533,-122 23.5533,-86 164.4467,-86 164.4467,-122"/>
<text text-anchor="middle" x="94" y="-99.8" font-family="Times,serif" font-size="14.00" fill="#000000">FormsRoutingModule</text>
</g>
<!-- FormsRoutingModule&#45;&gt;FormModule -->
<g id="edge6" class="edge">
<title>FormsRoutingModule&#45;&gt;FormModule</title>
<path fill="none" stroke="#000000" d="M94,-122.2843C94,-143.3211 94,-175 94,-175 94,-175 380.0696,-175 380.0696,-175"/>
<polygon fill="#000000" stroke="#000000" points="380.0696,-178.5001 390.0696,-175 380.0695,-171.5001 380.0696,-178.5001"/>
</g>
</g>
</svg>
