<?xml version="1.0" encoding="UTF-8" standalone="no"?>
<!DOCTYPE svg PUBLIC "-//W3C//DTD SVG 1.1//EN"
 "http://www.w3.org/Graphics/SVG/1.1/DTD/svg11.dtd">
<!-- Generated by graphviz version 2.40.1 (20161225.0304)
 -->
<!-- Title: dependencies Pages: 1 -->
<svg width="1101pt" height="211pt"
 viewBox="0.00 0.00 1101.00 211.00" xmlns="http://www.w3.org/2000/svg" xmlns:xlink="http://www.w3.org/1999/xlink">
<g id="graph0" class="graph" transform="scale(1 1) rotate(0) translate(4 207)">
<title>dependencies</title>
<polygon fill="#ffffff" stroke="transparent" points="-4,4 -4,-207 1097,-207 1097,4 -4,4"/>
<text text-anchor="start" x="525.5091" y="-42.4" font-family="sans-serif" font-weight="bold" font-size="14.00" fill="#000000">Legend</text>
<polygon fill="#ffffb3" stroke="transparent" points="312.5,-10 312.5,-30 332.5,-30 332.5,-10 312.5,-10"/>
<text text-anchor="start" x="336.129" y="-15.4" font-family="sans-serif" font-size="14.00" fill="#000000"> &#160;Declarations</text>
<polygon fill="#8dd3c7" stroke="transparent" points="425.5,-10 425.5,-30 445.5,-30 445.5,-10 425.5,-10"/>
<text text-anchor="start" x="449.2251" y="-15.4" font-family="sans-serif" font-size="14.00" fill="#000000"> &#160;Module</text>
<polygon fill="#80b1d3" stroke="transparent" points="511.5,-10 511.5,-30 531.5,-30 531.5,-10 511.5,-10"/>
<text text-anchor="start" x="535.2812" y="-15.4" font-family="sans-serif" font-size="14.00" fill="#000000"> &#160;Bootstrap</text>
<polygon fill="#fdb462" stroke="transparent" points="608.5,-10 608.5,-30 628.5,-30 628.5,-10 608.5,-10"/>
<text text-anchor="start" x="632.1732" y="-15.4" font-family="sans-serif" font-size="14.00" fill="#000000"> &#160;Providers</text>
<polygon fill="#fb8072" stroke="transparent" points="704.5,-10 704.5,-30 724.5,-30 724.5,-10 704.5,-10"/>
<text text-anchor="start" x="728.2258" y="-15.4" font-family="sans-serif" font-size="14.00" fill="#000000"> &#160;Exports</text>
<g id="clust1" class="cluster">
<title>cluster_MailModule</title>
<polygon fill="none" stroke="#000000" stroke-dasharray="1,5" points="8,-70 8,-195 1085,-195 1085,-70 8,-70"/>
</g>
<g id="clust2" class="cluster">
<title>cluster_MailModule_declarations</title>
<polygon fill="none" stroke="#000000" points="403,-78 403,-130 1077,-130 1077,-78 403,-78"/>
</g>
<g id="clust8" class="cluster">
<title>cluster_MailModule_imports</title>
<polygon fill="none" stroke="#000000" points="16,-78 16,-130 395,-130 395,-78 16,-78"/>
</g>
<!-- ComposeComponent -->
<g id="node1" class="node">
<title>ComposeComponent</title>
<polygon fill="#ffffb3" stroke="#000000" points="1069.219,-122 934.781,-122 934.781,-86 1069.219,-86 1069.219,-122"/>
<text text-anchor="middle" x="1002" y="-99.8" font-family="Times,serif" font-size="14.00" fill="#000000">ComposeComponent</text>
</g>
<!-- MailModule -->
<g id="node6" class="node">
<title>MailModule</title>
<polygon fill="#8dd3c7" stroke="#000000" points="583.9902,-187 580.9902,-191 559.9902,-191 556.9902,-187 498.0098,-187 498.0098,-151 583.9902,-151 583.9902,-187"/>
<text text-anchor="middle" x="541" y="-164.8" font-family="Times,serif" font-size="14.00" fill="#000000">MailModule</text>
</g>
<!-- ComposeComponent&#45;&gt;MailModule -->
<g id="edge1" class="edge">
<title>ComposeComponent&#45;&gt;MailModule</title>
<path fill="none" stroke="#000000" d="M1002,-122.2921C1002,-144.2057 1002,-178 1002,-178 1002,-178 594.3698,-178 594.3698,-178"/>
<polygon fill="#000000" stroke="#000000" points="594.3698,-174.5001 584.3698,-178 594.3697,-181.5001 594.3698,-174.5001"/>
</g>
<!-- DetailComponent -->
<g id="node2" class="node">
<title>DetailComponent</title>
<polygon fill="#ffffb3" stroke="#000000" points="916.5409,-122 801.4591,-122 801.4591,-86 916.5409,-86 916.5409,-122"/>
<text text-anchor="middle" x="859" y="-99.8" font-family="Times,serif" font-size="14.00" fill="#000000">DetailComponent</text>
</g>
<!-- DetailComponent&#45;&gt;MailModule -->
<g id="edge2" class="edge">
<title>DetailComponent&#45;&gt;MailModule</title>
<path fill="none" stroke="#000000" d="M859,-122.1061C859,-141.3391 859,-169 859,-169 859,-169 594.2178,-169 594.2178,-169"/>
<polygon fill="#000000" stroke="#000000" points="594.2179,-165.5001 584.2178,-169 594.2178,-172.5001 594.2179,-165.5001"/>
</g>
<!-- ListComponent -->
<g id="node3" class="node">
<title>ListComponent</title>
<polygon fill="#ffffb3" stroke="#000000" points="783.6109,-122 680.3891,-122 680.3891,-86 783.6109,-86 783.6109,-122"/>
<text text-anchor="middle" x="732" y="-99.8" font-family="Times,serif" font-size="14.00" fill="#000000">ListComponent</text>
</g>
<!-- ListComponent&#45;&gt;MailModule -->
<g id="edge3" class="edge">
<title>ListComponent&#45;&gt;MailModule</title>
<path fill="none" stroke="#000000" d="M732,-122.027C732,-138.3976 732,-160 732,-160 732,-160 594.3409,-160 594.3409,-160"/>
<polygon fill="#000000" stroke="#000000" points="594.3409,-156.5001 584.3409,-160 594.3408,-163.5001 594.3409,-156.5001"/>
</g>
<!-- MailComponent -->
<g id="node4" class="node">
<title>MailComponent</title>
<polygon fill="#ffffb3" stroke="#000000" points="662.773,-122 555.227,-122 555.227,-86 662.773,-86 662.773,-122"/>
<text text-anchor="middle" x="609" y="-99.8" font-family="Times,serif" font-size="14.00" fill="#000000">MailComponent</text>
</g>
<!-- MailComponent&#45;&gt;MailModule -->
<g id="edge4" class="edge">
<title>MailComponent&#45;&gt;MailModule</title>
<path fill="none" stroke="#000000" d="M569.5544,-122.1061C569.5544,-122.1061 569.5544,-140.991 569.5544,-140.991"/>
<polygon fill="#000000" stroke="#000000" points="566.0544,-140.9909 569.5544,-150.991 573.0544,-140.991 566.0544,-140.9909"/>
</g>
<!-- ToolbarComponent -->
<g id="node5" class="node">
<title>ToolbarComponent</title>
<polygon fill="#ffffb3" stroke="#000000" points="536.6513,-122 411.3487,-122 411.3487,-86 536.6513,-86 536.6513,-122"/>
<text text-anchor="middle" x="474" y="-99.8" font-family="Times,serif" font-size="14.00" fill="#000000">ToolbarComponent</text>
</g>
<!-- ToolbarComponent&#45;&gt;MailModule -->
<g id="edge5" class="edge">
<title>ToolbarComponent&#45;&gt;MailModule</title>
<path fill="none" stroke="#000000" d="M517.4152,-122.1061C517.4152,-122.1061 517.4152,-140.991 517.4152,-140.991"/>
<polygon fill="#000000" stroke="#000000" points="513.9152,-140.9909 517.4152,-150.991 520.9152,-140.991 513.9152,-140.9909"/>
</g>
<!-- MailRoutingModule -->
<g id="node7" class="node">
<title>MailRoutingModule</title>
<polygon fill="#8dd3c7" stroke="#000000" points="386.608,-122 383.608,-126 362.608,-126 359.608,-122 255.392,-122 255.392,-86 386.608,-86 386.608,-122"/>
<text text-anchor="middle" x="321" y="-99.8" font-family="Times,serif" font-size="14.00" fill="#000000">MailRoutingModule</text>
</g>
<!-- MailRoutingModule&#45;&gt;MailModule -->
<g id="edge6" class="edge">
<title>MailRoutingModule&#45;&gt;MailModule</title>
<path fill="none" stroke="#000000" d="M321,-122.027C321,-138.3976 321,-160 321,-160 321,-160 487.7976,-160 487.7976,-160"/>
<polygon fill="#000000" stroke="#000000" points="487.7976,-163.5001 497.7976,-160 487.7975,-156.5001 487.7976,-163.5001"/>
</g>
<!-- SearchModule -->
<g id="node8" class="node">
<title>SearchModule</title>
<polygon fill="#8dd3c7" stroke="#000000" points="237.6375,-122 234.6375,-126 213.6375,-126 210.6375,-122 140.3625,-122 140.3625,-86 237.6375,-86 237.6375,-122"/>
<text text-anchor="middle" x="189" y="-99.8" font-family="Times,serif" font-size="14.00" fill="#000000">SearchModule</text>
</g>
<!-- SearchModule&#45;&gt;MailModule -->
<g id="edge7" class="edge">
<title>SearchModule&#45;&gt;MailModule</title>
<path fill="none" stroke="#000000" d="M189,-122.1061C189,-141.3391 189,-169 189,-169 189,-169 487.8379,-169 487.8379,-169"/>
<polygon fill="#000000" stroke="#000000" points="487.8379,-172.5001 497.8379,-169 487.8379,-165.5001 487.8379,-172.5001"/>
</g>
<!-- SharedModule -->
<g id="node9" class="node">
<title>SharedModule</title>
<polygon fill="#8dd3c7" stroke="#000000" points="122.4231,-122 119.4231,-126 98.4231,-126 95.4231,-122 23.5769,-122 23.5769,-86 122.4231,-86 122.4231,-122"/>
<text text-anchor="middle" x="73" y="-99.8" font-family="Times,serif" font-size="14.00" fill="#000000">SharedModule</text>
</g>
<!-- SharedModule&#45;&gt;MailModule -->
<g id="edge8" class="edge">
<title>SharedModule&#45;&gt;MailModule</title>
<path fill="none" stroke="#000000" d="M73,-122.2921C73,-144.2057 73,-178 73,-178 73,-178 487.8105,-178 487.8105,-178"/>
<polygon fill="#000000" stroke="#000000" points="487.8106,-181.5001 497.8105,-178 487.8105,-174.5001 487.8106,-181.5001"/>
</g>
</g>
</svg>
