<?xml version="1.0" encoding="UTF-8" standalone="no"?>
<!DOCTYPE svg PUBLIC "-//W3C//DTD SVG 1.1//EN"
 "http://www.w3.org/Graphics/SVG/1.1/DTD/svg11.dtd">
<!-- Generated by graphviz version 2.40.1 (20161225.0304)
 -->
<!-- Title: dependencies Pages: 1 -->
<svg width="1101pt" height="211pt"
 viewBox="0.00 0.00 1101.00 211.00" xmlns="http://www.w3.org/2000/svg" xmlns:xlink="http://www.w3.org/1999/xlink">
<g id="graph0" class="graph" transform="scale(1 1) rotate(0) translate(4 207)">
<title>dependencies</title>
<polygon fill="#ffffff" stroke="transparent" points="-4,4 -4,-207 1097,-207 1097,4 -4,4"/>
<text text-anchor="start" x="525.5091" y="-42.4" font-family="sans-serif" font-weight="bold" font-size="14.00" fill="#000000">Legend</text>
<polygon fill="#ffffb3" stroke="transparent" points="312.5,-10 312.5,-30 332.5,-30 332.5,-10 312.5,-10"/>
<text text-anchor="start" x="336.129" y="-15.4" font-family="sans-serif" font-size="14.00" fill="#000000"> &#160;Declarations</text>
<polygon fill="#8dd3c7" stroke="transparent" points="425.5,-10 425.5,-30 445.5,-30 445.5,-10 425.5,-10"/>
<text text-anchor="start" x="449.2251" y="-15.4" font-family="sans-serif" font-size="14.00" fill="#000000"> &#160;Module</text>
<polygon fill="#80b1d3" stroke="transparent" points="511.5,-10 511.5,-30 531.5,-30 531.5,-10 511.5,-10"/>
<text text-anchor="start" x="535.2812" y="-15.4" font-family="sans-serif" font-size="14.00" fill="#000000"> &#160;Bootstrap</text>
<polygon fill="#fdb462" stroke="transparent" points="608.5,-10 608.5,-30 628.5,-30 628.5,-10 608.5,-10"/>
<text text-anchor="start" x="632.1732" y="-15.4" font-family="sans-serif" font-size="14.00" fill="#000000"> &#160;Providers</text>
<polygon fill="#fb8072" stroke="transparent" points="704.5,-10 704.5,-30 724.5,-30 724.5,-10 704.5,-10"/>
<text text-anchor="start" x="728.2258" y="-15.4" font-family="sans-serif" font-size="14.00" fill="#000000"> &#160;Exports</text>
<g id="clust1" class="cluster">
<title>cluster_MailModule</title>
<polygon fill="none" stroke="#000000" stroke-dasharray="1,5" points="8,-70 8,-195 1085,-195 1085,-70 8,-70"/>
</g>
<g id="clust2" class="cluster">
<title>cluster_MailModule_declarations</title>
<polygon fill="none" stroke="#000000" points="403,-78 403,-130 1077,-130 1077,-78 403,-78"/>
</g>
<g id="clust8" class="cluster">
<title>cluster_MailModule_imports</title>
<polygon fill="none" stroke="#000000" points="16,-78 16,-130 395,-130 395,-78 16,-78"/>
</g>
<!-- MailComponent -->
<g id="node1" class="node">
<title>MailComponent</title>
<polygon fill="#ffffb3" stroke="#000000" points="1068.773,-122 961.227,-122 961.227,-86 1068.773,-86 1068.773,-122"/>
<text text-anchor="middle" x="1015" y="-99.8" font-family="Times,serif" font-size="14.00" fill="#000000">MailComponent</text>
</g>
<!-- MailModule -->
<g id="node6" class="node">
<title>MailModule</title>
<polygon fill="#8dd3c7" stroke="#000000" points="582.9902,-187 579.9902,-191 558.9902,-191 555.9902,-187 497.0098,-187 497.0098,-151 582.9902,-151 582.9902,-187"/>
<text text-anchor="middle" x="540" y="-164.8" font-family="Times,serif" font-size="14.00" fill="#000000">MailModule</text>
</g>
<!-- MailComponent&#45;&gt;MailModule -->
<g id="edge1" class="edge">
<title>MailComponent&#45;&gt;MailModule</title>
<path fill="none" stroke="#000000" d="M1015,-122.2921C1015,-144.2057 1015,-178 1015,-178 1015,-178 592.9908,-178 592.9908,-178"/>
<polygon fill="#000000" stroke="#000000" points="592.9909,-174.5001 582.9908,-178 592.9908,-181.5001 592.9909,-174.5001"/>
</g>
<!-- ComposeComponent -->
<g id="node2" class="node">
<title>ComposeComponent</title>
<polygon fill="#ffffb3" stroke="#000000" points="943.219,-122 808.781,-122 808.781,-86 943.219,-86 943.219,-122"/>
<text text-anchor="middle" x="876" y="-99.8" font-family="Times,serif" font-size="14.00" fill="#000000">ComposeComponent</text>
</g>
<!-- ComposeComponent&#45;&gt;MailModule -->
<g id="edge2" class="edge">
<title>ComposeComponent&#45;&gt;MailModule</title>
<path fill="none" stroke="#000000" d="M876,-122.1061C876,-141.3391 876,-169 876,-169 876,-169 593.2383,-169 593.2383,-169"/>
<polygon fill="#000000" stroke="#000000" points="593.2383,-165.5001 583.2383,-169 593.2382,-172.5001 593.2383,-165.5001"/>
</g>
<!-- DetailComponent -->
<g id="node3" class="node">
<title>DetailComponent</title>
<polygon fill="#ffffb3" stroke="#000000" points="790.5409,-122 675.4591,-122 675.4591,-86 790.5409,-86 790.5409,-122"/>
<text text-anchor="middle" x="733" y="-99.8" font-family="Times,serif" font-size="14.00" fill="#000000">DetailComponent</text>
</g>
<!-- DetailComponent&#45;&gt;MailModule -->
<g id="edge3" class="edge">
<title>DetailComponent&#45;&gt;MailModule</title>
<path fill="none" stroke="#000000" d="M733,-122.027C733,-138.3976 733,-160 733,-160 733,-160 593.313,-160 593.313,-160"/>
<polygon fill="#000000" stroke="#000000" points="593.313,-156.5001 583.313,-160 593.3129,-163.5001 593.313,-156.5001"/>
</g>
<!-- ListComponent -->
<g id="node4" class="node">
<title>ListComponent</title>
<polygon fill="#ffffb3" stroke="#000000" points="657.6109,-122 554.3891,-122 554.3891,-86 657.6109,-86 657.6109,-122"/>
<text text-anchor="middle" x="606" y="-99.8" font-family="Times,serif" font-size="14.00" fill="#000000">ListComponent</text>
</g>
<!-- ListComponent&#45;&gt;MailModule -->
<g id="edge4" class="edge">
<title>ListComponent&#45;&gt;MailModule</title>
<path fill="none" stroke="#000000" d="M568.7198,-122.1061C568.7198,-122.1061 568.7198,-140.991 568.7198,-140.991"/>
<polygon fill="#000000" stroke="#000000" points="565.2199,-140.9909 568.7198,-150.991 572.2199,-140.991 565.2199,-140.9909"/>
</g>
<!-- ToolbarComponent -->
<g id="node5" class="node">
<title>ToolbarComponent</title>
<polygon fill="#ffffb3" stroke="#000000" points="536.6513,-122 411.3487,-122 411.3487,-86 536.6513,-86 536.6513,-122"/>
<text text-anchor="middle" x="474" y="-99.8" font-family="Times,serif" font-size="14.00" fill="#000000">ToolbarComponent</text>
</g>
<!-- ToolbarComponent&#45;&gt;MailModule -->
<g id="edge5" class="edge">
<title>ToolbarComponent&#45;&gt;MailModule</title>
<path fill="none" stroke="#000000" d="M516.9152,-122.1061C516.9152,-122.1061 516.9152,-140.991 516.9152,-140.991"/>
<polygon fill="#000000" stroke="#000000" points="513.4152,-140.9909 516.9152,-150.991 520.4152,-140.991 513.4152,-140.9909"/>
</g>
<!-- SharedModule -->
<g id="node7" class="node">
<title>SharedModule</title>
<polygon fill="#8dd3c7" stroke="#000000" points="387.4231,-122 384.4231,-126 363.4231,-126 360.4231,-122 288.5769,-122 288.5769,-86 387.4231,-86 387.4231,-122"/>
<text text-anchor="middle" x="338" y="-99.8" font-family="Times,serif" font-size="14.00" fill="#000000">SharedModule</text>
</g>
<!-- SharedModule&#45;&gt;MailModule -->
<g id="edge6" class="edge">
<title>SharedModule&#45;&gt;MailModule</title>
<path fill="none" stroke="#000000" d="M338,-122.027C338,-138.3976 338,-160 338,-160 338,-160 486.6659,-160 486.6659,-160"/>
<polygon fill="#000000" stroke="#000000" points="486.666,-163.5001 496.6659,-160 486.6659,-156.5001 486.666,-163.5001"/>
</g>
<!-- MailRoutingModule -->
<g id="node8" class="node">
<title>MailRoutingModule</title>
<polygon fill="#8dd3c7" stroke="#000000" points="270.608,-122 267.608,-126 246.608,-126 243.608,-122 139.392,-122 139.392,-86 270.608,-86 270.608,-122"/>
<text text-anchor="middle" x="205" y="-99.8" font-family="Times,serif" font-size="14.00" fill="#000000">MailRoutingModule</text>
</g>
<!-- MailRoutingModule&#45;&gt;MailModule -->
<g id="edge7" class="edge">
<title>MailRoutingModule&#45;&gt;MailModule</title>
<path fill="none" stroke="#000000" d="M205,-122.1061C205,-141.3391 205,-169 205,-169 205,-169 486.8904,-169 486.8904,-169"/>
<polygon fill="#000000" stroke="#000000" points="486.8905,-172.5001 496.8904,-169 486.8904,-165.5001 486.8905,-172.5001"/>
</g>
<!-- SearchModule -->
<g id="node9" class="node">
<title>SearchModule</title>
<polygon fill="#8dd3c7" stroke="#000000" points="121.6375,-122 118.6375,-126 97.6375,-126 94.6375,-122 24.3625,-122 24.3625,-86 121.6375,-86 121.6375,-122"/>
<text text-anchor="middle" x="73" y="-99.8" font-family="Times,serif" font-size="14.00" fill="#000000">SearchModule</text>
</g>
<!-- SearchModule&#45;&gt;MailModule -->
<g id="edge8" class="edge">
<title>SearchModule&#45;&gt;MailModule</title>
<path fill="none" stroke="#000000" d="M73,-122.2921C73,-144.2057 73,-178 73,-178 73,-178 486.9028,-178 486.9028,-178"/>
<polygon fill="#000000" stroke="#000000" points="486.9029,-181.5001 496.9028,-178 486.9028,-174.5001 486.9029,-181.5001"/>
</g>
</g>
</svg>
