<?xml version="1.0" encoding="UTF-8" standalone="no"?>
<!DOCTYPE svg PUBLIC "-//W3C//DTD SVG 1.1//EN"
 "http://www.w3.org/Graphics/SVG/1.1/DTD/svg11.dtd">
<!-- Generated by graphviz version 2.40.1 (20161225.0304)
 -->
<!-- Title: dependencies Pages: 1 -->
<svg width="986pt" height="211pt"
 viewBox="0.00 0.00 986.00 211.00" xmlns="http://www.w3.org/2000/svg" xmlns:xlink="http://www.w3.org/1999/xlink">
<g id="graph0" class="graph" transform="scale(1 1) rotate(0) translate(4 207)">
<title>dependencies</title>
<polygon fill="#ffffff" stroke="transparent" points="-4,4 -4,-207 982,-207 982,4 -4,4"/>
<text text-anchor="start" x="468.0091" y="-42.4" font-family="sans-serif" font-weight="bold" font-size="14.00" fill="#000000">Legend</text>
<polygon fill="#ffffb3" stroke="transparent" points="255,-10 255,-30 275,-30 275,-10 255,-10"/>
<text text-anchor="start" x="278.629" y="-15.4" font-family="sans-serif" font-size="14.00" fill="#000000"> &#160;Declarations</text>
<polygon fill="#8dd3c7" stroke="transparent" points="368,-10 368,-30 388,-30 388,-10 368,-10"/>
<text text-anchor="start" x="391.7251" y="-15.4" font-family="sans-serif" font-size="14.00" fill="#000000"> &#160;Module</text>
<polygon fill="#80b1d3" stroke="transparent" points="454,-10 454,-30 474,-30 474,-10 454,-10"/>
<text text-anchor="start" x="477.7812" y="-15.4" font-family="sans-serif" font-size="14.00" fill="#000000"> &#160;Bootstrap</text>
<polygon fill="#fdb462" stroke="transparent" points="551,-10 551,-30 571,-30 571,-10 551,-10"/>
<text text-anchor="start" x="574.6732" y="-15.4" font-family="sans-serif" font-size="14.00" fill="#000000"> &#160;Providers</text>
<polygon fill="#fb8072" stroke="transparent" points="647,-10 647,-30 667,-30 667,-10 647,-10"/>
<text text-anchor="start" x="670.7258" y="-15.4" font-family="sans-serif" font-size="14.00" fill="#000000"> &#160;Exports</text>
<g id="clust1" class="cluster">
<title>cluster_MailModule</title>
<polygon fill="none" stroke="#000000" stroke-dasharray="1,5" points="8,-70 8,-195 970,-195 970,-70 8,-70"/>
</g>
<g id="clust2" class="cluster">
<title>cluster_MailModule_declarations</title>
<polygon fill="none" stroke="#000000" points="288,-78 288,-130 962,-130 962,-78 288,-78"/>
</g>
<g id="clust8" class="cluster">
<title>cluster_MailModule_imports</title>
<polygon fill="none" stroke="#000000" points="16,-78 16,-130 280,-130 280,-78 16,-78"/>
</g>
<!-- MailComponent -->
<g id="node1" class="node">
<title>MailComponent</title>
<polygon fill="#ffffb3" stroke="#000000" points="953.773,-122 846.227,-122 846.227,-86 953.773,-86 953.773,-122"/>
<text text-anchor="middle" x="900" y="-99.8" font-family="Times,serif" font-size="14.00" fill="#000000">MailComponent</text>
</g>
<!-- MailModule -->
<g id="node6" class="node">
<title>MailModule</title>
<polygon fill="#8dd3c7" stroke="#000000" points="533.9902,-187 530.9902,-191 509.9902,-191 506.9902,-187 448.0098,-187 448.0098,-151 533.9902,-151 533.9902,-187"/>
<text text-anchor="middle" x="491" y="-164.8" font-family="Times,serif" font-size="14.00" fill="#000000">MailModule</text>
</g>
<!-- MailComponent&#45;&gt;MailModule -->
<g id="edge1" class="edge">
<title>MailComponent&#45;&gt;MailModule</title>
<path fill="none" stroke="#000000" d="M900,-122.2921C900,-144.2057 900,-178 900,-178 900,-178 543.9971,-178 543.9971,-178"/>
<polygon fill="#000000" stroke="#000000" points="543.9972,-174.5001 533.9971,-178 543.9971,-181.5001 543.9972,-174.5001"/>
</g>
<!-- ComposeComponent -->
<g id="node2" class="node">
<title>ComposeComponent</title>
<polygon fill="#ffffb3" stroke="#000000" points="828.219,-122 693.781,-122 693.781,-86 828.219,-86 828.219,-122"/>
<text text-anchor="middle" x="761" y="-99.8" font-family="Times,serif" font-size="14.00" fill="#000000">ComposeComponent</text>
</g>
<!-- ComposeComponent&#45;&gt;MailModule -->
<g id="edge2" class="edge">
<title>ComposeComponent&#45;&gt;MailModule</title>
<path fill="none" stroke="#000000" d="M761,-122.1061C761,-141.3391 761,-169 761,-169 761,-169 544.0809,-169 544.0809,-169"/>
<polygon fill="#000000" stroke="#000000" points="544.0809,-165.5001 534.0809,-169 544.0808,-172.5001 544.0809,-165.5001"/>
</g>
<!-- DetailComponent -->
<g id="node3" class="node">
<title>DetailComponent</title>
<polygon fill="#ffffb3" stroke="#000000" points="675.5409,-122 560.4591,-122 560.4591,-86 675.5409,-86 675.5409,-122"/>
<text text-anchor="middle" x="618" y="-99.8" font-family="Times,serif" font-size="14.00" fill="#000000">DetailComponent</text>
</g>
<!-- DetailComponent&#45;&gt;MailModule -->
<g id="edge3" class="edge">
<title>DetailComponent&#45;&gt;MailModule</title>
<path fill="none" stroke="#000000" d="M618,-122.027C618,-138.3976 618,-160 618,-160 618,-160 543.9964,-160 543.9964,-160"/>
<polygon fill="#000000" stroke="#000000" points="543.9964,-156.5001 533.9964,-160 543.9964,-163.5001 543.9964,-156.5001"/>
</g>
<!-- ListComponent -->
<g id="node4" class="node">
<title>ListComponent</title>
<polygon fill="#ffffb3" stroke="#000000" points="542.6109,-122 439.3891,-122 439.3891,-86 542.6109,-86 542.6109,-122"/>
<text text-anchor="middle" x="491" y="-99.8" font-family="Times,serif" font-size="14.00" fill="#000000">ListComponent</text>
</g>
<!-- ListComponent&#45;&gt;MailModule -->
<g id="edge4" class="edge">
<title>ListComponent&#45;&gt;MailModule</title>
<path fill="none" stroke="#000000" d="M491,-122.1061C491,-122.1061 491,-140.991 491,-140.991"/>
<polygon fill="#000000" stroke="#000000" points="487.5001,-140.9909 491,-150.991 494.5001,-140.991 487.5001,-140.9909"/>
</g>
<!-- ToolbarComponent -->
<g id="node5" class="node">
<title>ToolbarComponent</title>
<polygon fill="#ffffb3" stroke="#000000" points="421.6513,-122 296.3487,-122 296.3487,-86 421.6513,-86 421.6513,-122"/>
<text text-anchor="middle" x="359" y="-99.8" font-family="Times,serif" font-size="14.00" fill="#000000">ToolbarComponent</text>
</g>
<!-- ToolbarComponent&#45;&gt;MailModule -->
<g id="edge5" class="edge">
<title>ToolbarComponent&#45;&gt;MailModule</title>
<path fill="none" stroke="#000000" d="M359,-122.027C359,-138.3976 359,-160 359,-160 359,-160 437.7783,-160 437.7783,-160"/>
<polygon fill="#000000" stroke="#000000" points="437.7783,-163.5001 447.7783,-160 437.7782,-156.5001 437.7783,-163.5001"/>
</g>
<!-- SharedModule -->
<g id="node7" class="node">
<title>SharedModule</title>
<polygon fill="#8dd3c7" stroke="#000000" points="272.4231,-122 269.4231,-126 248.4231,-126 245.4231,-122 173.5769,-122 173.5769,-86 272.4231,-86 272.4231,-122"/>
<text text-anchor="middle" x="223" y="-99.8" font-family="Times,serif" font-size="14.00" fill="#000000">SharedModule</text>
</g>
<!-- SharedModule&#45;&gt;MailModule -->
<g id="edge6" class="edge">
<title>SharedModule&#45;&gt;MailModule</title>
<path fill="none" stroke="#000000" d="M223,-122.1061C223,-141.3391 223,-169 223,-169 223,-169 437.9412,-169 437.9412,-169"/>
<polygon fill="#000000" stroke="#000000" points="437.9412,-172.5001 447.9412,-169 437.9411,-165.5001 437.9412,-172.5001"/>
</g>
<!-- MailRoutingModule -->
<g id="node8" class="node">
<title>MailRoutingModule</title>
<polygon fill="#8dd3c7" stroke="#000000" points="155.608,-122 152.608,-126 131.608,-126 128.608,-122 24.392,-122 24.392,-86 155.608,-86 155.608,-122"/>
<text text-anchor="middle" x="90" y="-99.8" font-family="Times,serif" font-size="14.00" fill="#000000">MailRoutingModule</text>
</g>
<!-- MailRoutingModule&#45;&gt;MailModule -->
<g id="edge7" class="edge">
<title>MailRoutingModule&#45;&gt;MailModule</title>
<path fill="none" stroke="#000000" d="M90,-122.2921C90,-144.2057 90,-178 90,-178 90,-178 437.705,-178 437.705,-178"/>
<polygon fill="#000000" stroke="#000000" points="437.705,-181.5001 447.705,-178 437.7049,-174.5001 437.705,-181.5001"/>
</g>
</g>
</svg>
