<?xml version="1.0" encoding="UTF-8" standalone="no"?>
<!DOCTYPE svg PUBLIC "-//W3C//DTD SVG 1.1//EN"
 "http://www.w3.org/Graphics/SVG/1.1/DTD/svg11.dtd">
<!-- Generated by graphviz version 2.40.1 (20161225.0304)
 -->
<!-- Title: dependencies Pages: 1 -->
<svg width="1429pt" height="211pt"
 viewBox="0.00 0.00 1429.00 211.00" xmlns="http://www.w3.org/2000/svg" xmlns:xlink="http://www.w3.org/1999/xlink">
<g id="graph0" class="graph" transform="scale(1 1) rotate(0) translate(4 207)">
<title>dependencies</title>
<polygon fill="#ffffff" stroke="transparent" points="-4,4 -4,-207 1425,-207 1425,4 -4,4"/>
<text text-anchor="start" x="689.5091" y="-42.4" font-family="sans-serif" font-weight="bold" font-size="14.00" fill="#000000">Legend</text>
<polygon fill="#ffffb3" stroke="transparent" points="476.5,-10 476.5,-30 496.5,-30 496.5,-10 476.5,-10"/>
<text text-anchor="start" x="500.129" y="-15.4" font-family="sans-serif" font-size="14.00" fill="#000000"> &#160;Declarations</text>
<polygon fill="#8dd3c7" stroke="transparent" points="589.5,-10 589.5,-30 609.5,-30 609.5,-10 589.5,-10"/>
<text text-anchor="start" x="613.2251" y="-15.4" font-family="sans-serif" font-size="14.00" fill="#000000"> &#160;Module</text>
<polygon fill="#80b1d3" stroke="transparent" points="675.5,-10 675.5,-30 695.5,-30 695.5,-10 675.5,-10"/>
<text text-anchor="start" x="699.2812" y="-15.4" font-family="sans-serif" font-size="14.00" fill="#000000"> &#160;Bootstrap</text>
<polygon fill="#fdb462" stroke="transparent" points="772.5,-10 772.5,-30 792.5,-30 792.5,-10 772.5,-10"/>
<text text-anchor="start" x="796.1732" y="-15.4" font-family="sans-serif" font-size="14.00" fill="#000000"> &#160;Providers</text>
<polygon fill="#fb8072" stroke="transparent" points="868.5,-10 868.5,-30 888.5,-30 888.5,-10 868.5,-10"/>
<text text-anchor="start" x="892.2258" y="-15.4" font-family="sans-serif" font-size="14.00" fill="#000000"> &#160;Exports</text>
<g id="clust1" class="cluster">
<title>cluster_TodoModule</title>
<polygon fill="none" stroke="#000000" stroke-dasharray="1,5" points="8,-70 8,-195 1413,-195 1413,-70 8,-70"/>
</g>
<g id="clust2" class="cluster">
<title>cluster_TodoModule_declarations</title>
<polygon fill="none" stroke="#000000" points="290,-78 290,-130 1405,-130 1405,-78 290,-78"/>
</g>
<g id="clust10" class="cluster">
<title>cluster_TodoModule_imports</title>
<polygon fill="none" stroke="#000000" points="16,-78 16,-130 282,-130 282,-78 16,-78"/>
</g>
<!-- TodoComponent -->
<g id="node1" class="node">
<title>TodoComponent</title>
<polygon fill="#ffffb3" stroke="#000000" points="1397.3851,-122 1286.6149,-122 1286.6149,-86 1397.3851,-86 1397.3851,-122"/>
<text text-anchor="middle" x="1342" y="-99.8" font-family="Times,serif" font-size="14.00" fill="#000000">TodoComponent</text>
</g>
<!-- TodoModule -->
<g id="node8" class="node">
<title>TodoModule</title>
<polygon fill="#8dd3c7" stroke="#000000" points="760.6025,-187 757.6025,-191 736.6025,-191 733.6025,-187 671.3975,-187 671.3975,-151 760.6025,-151 760.6025,-187"/>
<text text-anchor="middle" x="716" y="-164.8" font-family="Times,serif" font-size="14.00" fill="#000000">TodoModule</text>
</g>
<!-- TodoComponent&#45;&gt;TodoModule -->
<g id="edge1" class="edge">
<title>TodoComponent&#45;&gt;TodoModule</title>
<path fill="none" stroke="#000000" d="M1342,-122.0109C1342,-144.4852 1342,-180 1342,-180 1342,-180 771.0204,-180 771.0204,-180"/>
<polygon fill="#000000" stroke="#000000" points="771.0204,-176.5001 761.0204,-180 771.0203,-183.5001 771.0204,-176.5001"/>
</g>
<!-- TodoHeaderComponent -->
<g id="node2" class="node">
<title>TodoHeaderComponent</title>
<polygon fill="#ffffb3" stroke="#000000" points="1268.7963,-122 1117.2037,-122 1117.2037,-86 1268.7963,-86 1268.7963,-122"/>
<text text-anchor="middle" x="1193" y="-99.8" font-family="Times,serif" font-size="14.00" fill="#000000">TodoHeaderComponent</text>
</g>
<!-- TodoHeaderComponent&#45;&gt;TodoModule -->
<g id="edge2" class="edge">
<title>TodoHeaderComponent&#45;&gt;TodoModule</title>
<path fill="none" stroke="#000000" d="M1193,-122.1289C1193,-142.5724 1193,-173 1193,-173 1193,-173 770.875,-173 770.875,-173"/>
<polygon fill="#000000" stroke="#000000" points="770.875,-169.5001 760.875,-173 770.875,-176.5001 770.875,-169.5001"/>
</g>
<!-- TodoItemComponent -->
<g id="node3" class="node">
<title>TodoItemComponent</title>
<polygon fill="#ffffb3" stroke="#000000" points="1099.0422,-122 962.9578,-122 962.9578,-86 1099.0422,-86 1099.0422,-122"/>
<text text-anchor="middle" x="1031" y="-99.8" font-family="Times,serif" font-size="14.00" fill="#000000">TodoItemComponent</text>
</g>
<!-- TodoItemComponent&#45;&gt;TodoModule -->
<g id="edge3" class="edge">
<title>TodoItemComponent&#45;&gt;TodoModule</title>
<path fill="none" stroke="#000000" d="M1031,-122.2667C1031,-140.5552 1031,-166 1031,-166 1031,-166 770.7973,-166 770.7973,-166"/>
<polygon fill="#000000" stroke="#000000" points="770.7973,-162.5001 760.7973,-166 770.7973,-169.5001 770.7973,-162.5001"/>
</g>
<!-- TodoListComponent -->
<g id="node4" class="node">
<title>TodoListComponent</title>
<polygon fill="#ffffb3" stroke="#000000" points="944.1638,-122 811.8362,-122 811.8362,-86 944.1638,-86 944.1638,-122"/>
<text text-anchor="middle" x="878" y="-99.8" font-family="Times,serif" font-size="14.00" fill="#000000">TodoListComponent</text>
</g>
<!-- TodoListComponent&#45;&gt;TodoModule -->
<g id="edge4" class="edge">
<title>TodoListComponent&#45;&gt;TodoModule</title>
<path fill="none" stroke="#000000" d="M878,-122.0091C878,-138.0494 878,-159 878,-159 878,-159 770.696,-159 770.696,-159"/>
<polygon fill="#000000" stroke="#000000" points="770.6961,-155.5001 760.696,-159 770.696,-162.5001 770.6961,-155.5001"/>
</g>
<!-- TodoSidenavComponent -->
<g id="node5" class="node">
<title>TodoSidenavComponent</title>
<polygon fill="#ffffb3" stroke="#000000" points="793.9874,-122 638.0126,-122 638.0126,-86 793.9874,-86 793.9874,-122"/>
<text text-anchor="middle" x="716" y="-99.8" font-family="Times,serif" font-size="14.00" fill="#000000">TodoSidenavComponent</text>
</g>
<!-- TodoSidenavComponent&#45;&gt;TodoModule -->
<g id="edge5" class="edge">
<title>TodoSidenavComponent&#45;&gt;TodoModule</title>
<path fill="none" stroke="#000000" d="M716,-122.1061C716,-122.1061 716,-140.991 716,-140.991"/>
<polygon fill="#000000" stroke="#000000" points="712.5001,-140.9909 716,-150.991 719.5001,-140.991 712.5001,-140.9909"/>
</g>
<!-- TodoToolbarComponent -->
<g id="node6" class="node">
<title>TodoToolbarComponent</title>
<polygon fill="#ffffb3" stroke="#000000" points="619.7035,-122 464.2965,-122 464.2965,-86 619.7035,-86 619.7035,-122"/>
<text text-anchor="middle" x="542" y="-99.8" font-family="Times,serif" font-size="14.00" fill="#000000">TodoToolbarComponent</text>
</g>
<!-- TodoToolbarComponent&#45;&gt;TodoModule -->
<g id="edge6" class="edge">
<title>TodoToolbarComponent&#45;&gt;TodoModule</title>
<path fill="none" stroke="#000000" d="M542,-122.0091C542,-138.0494 542,-159 542,-159 542,-159 661.1907,-159 661.1907,-159"/>
<polygon fill="#000000" stroke="#000000" points="661.1907,-162.5001 671.1907,-159 661.1906,-155.5001 661.1907,-162.5001"/>
</g>
<!-- TodoSearchComponent -->
<g id="node7" class="node">
<title>TodoSearchComponent</title>
<polygon fill="#ffffb3" stroke="#000000" points="446.472,-122 297.528,-122 297.528,-86 446.472,-86 446.472,-122"/>
<text text-anchor="middle" x="372" y="-99.8" font-family="Times,serif" font-size="14.00" fill="#000000">TodoSearchComponent</text>
</g>
<!-- TodoSearchComponent&#45;&gt;TodoModule -->
<g id="edge7" class="edge">
<title>TodoSearchComponent&#45;&gt;TodoModule</title>
<path fill="none" stroke="#000000" d="M372,-122.2667C372,-140.5552 372,-166 372,-166 372,-166 661.3807,-166 661.3807,-166"/>
<polygon fill="#000000" stroke="#000000" points="661.3807,-169.5001 671.3807,-166 661.3806,-162.5001 661.3807,-169.5001"/>
</g>
<!-- SharedModule -->
<g id="node9" class="node">
<title>SharedModule</title>
<polygon fill="#8dd3c7" stroke="#000000" points="274.4231,-122 271.4231,-126 250.4231,-126 247.4231,-122 175.5769,-122 175.5769,-86 274.4231,-86 274.4231,-122"/>
<text text-anchor="middle" x="225" y="-99.8" font-family="Times,serif" font-size="14.00" fill="#000000">SharedModule</text>
</g>
<!-- SharedModule&#45;&gt;TodoModule -->
<g id="edge8" class="edge">
<title>SharedModule&#45;&gt;TodoModule</title>
<path fill="none" stroke="#000000" d="M225,-122.1289C225,-142.5724 225,-173 225,-173 225,-173 661.1254,-173 661.1254,-173"/>
<polygon fill="#000000" stroke="#000000" points="661.1254,-176.5001 671.1254,-173 661.1254,-169.5001 661.1254,-176.5001"/>
</g>
<!-- TodoRoutingModule -->
<g id="node10" class="node">
<title>TodoRoutingModule</title>
<polygon fill="#8dd3c7" stroke="#000000" points="158.2204,-122 155.2204,-126 134.2204,-126 131.2204,-122 23.7796,-122 23.7796,-86 158.2204,-86 158.2204,-122"/>
<text text-anchor="middle" x="91" y="-99.8" font-family="Times,serif" font-size="14.00" fill="#000000">TodoRoutingModule</text>
</g>
<!-- TodoRoutingModule&#45;&gt;TodoModule -->
<g id="edge9" class="edge">
<title>TodoRoutingModule&#45;&gt;TodoModule</title>
<path fill="none" stroke="#000000" d="M91,-122.0109C91,-144.4852 91,-180 91,-180 91,-180 661.0515,-180 661.0515,-180"/>
<polygon fill="#000000" stroke="#000000" points="661.0516,-183.5001 671.0515,-180 661.0515,-176.5001 661.0516,-183.5001"/>
</g>
</g>
</svg>
