<?xml version="1.0" encoding="UTF-8" standalone="no"?>
<!DOCTYPE svg PUBLIC "-//W3C//DTD SVG 1.1//EN"
 "http://www.w3.org/Graphics/SVG/1.1/DTD/svg11.dtd">
<!-- Generated by graphviz version 2.40.1 (20161225.0304)
 -->
<!-- Title: dependencies Pages: 1 -->
<svg width="1379pt" height="211pt"
 viewBox="0.00 0.00 1379.00 211.00" xmlns="http://www.w3.org/2000/svg" xmlns:xlink="http://www.w3.org/1999/xlink">
<g id="graph0" class="graph" transform="scale(1 1) rotate(0) translate(4 207)">
<title>dependencies</title>
<polygon fill="#ffffff" stroke="transparent" points="-4,4 -4,-207 1375,-207 1375,4 -4,4"/>
<text text-anchor="start" x="664.5091" y="-42.4" font-family="sans-serif" font-weight="bold" font-size="14.00" fill="#000000">Legend</text>
<polygon fill="#ffffb3" stroke="transparent" points="451.5,-10 451.5,-30 471.5,-30 471.5,-10 451.5,-10"/>
<text text-anchor="start" x="475.129" y="-15.4" font-family="sans-serif" font-size="14.00" fill="#000000"> &#160;Declarations</text>
<polygon fill="#8dd3c7" stroke="transparent" points="564.5,-10 564.5,-30 584.5,-30 584.5,-10 564.5,-10"/>
<text text-anchor="start" x="588.2251" y="-15.4" font-family="sans-serif" font-size="14.00" fill="#000000"> &#160;Module</text>
<polygon fill="#80b1d3" stroke="transparent" points="650.5,-10 650.5,-30 670.5,-30 670.5,-10 650.5,-10"/>
<text text-anchor="start" x="674.2812" y="-15.4" font-family="sans-serif" font-size="14.00" fill="#000000"> &#160;Bootstrap</text>
<polygon fill="#fdb462" stroke="transparent" points="747.5,-10 747.5,-30 767.5,-30 767.5,-10 747.5,-10"/>
<text text-anchor="start" x="771.1732" y="-15.4" font-family="sans-serif" font-size="14.00" fill="#000000"> &#160;Providers</text>
<polygon fill="#fb8072" stroke="transparent" points="843.5,-10 843.5,-30 863.5,-30 863.5,-10 843.5,-10"/>
<text text-anchor="start" x="867.2258" y="-15.4" font-family="sans-serif" font-size="14.00" fill="#000000"> &#160;Exports</text>
<g id="clust1" class="cluster">
<title>cluster_TodoModule</title>
<polygon fill="none" stroke="#000000" stroke-dasharray="1,5" points="8,-70 8,-195 1363,-195 1363,-70 8,-70"/>
</g>
<g id="clust2" class="cluster">
<title>cluster_TodoModule_declarations</title>
<polygon fill="none" stroke="#000000" points="406,-78 406,-130 1355,-130 1355,-78 406,-78"/>
</g>
<g id="clust9" class="cluster">
<title>cluster_TodoModule_imports</title>
<polygon fill="none" stroke="#000000" points="16,-78 16,-130 398,-130 398,-78 16,-78"/>
</g>
<!-- TodoComponent -->
<g id="node1" class="node">
<title>TodoComponent</title>
<polygon fill="#ffffb3" stroke="#000000" points="1347.3851,-122 1236.6149,-122 1236.6149,-86 1347.3851,-86 1347.3851,-122"/>
<text text-anchor="middle" x="1292" y="-99.8" font-family="Times,serif" font-size="14.00" fill="#000000">TodoComponent</text>
</g>
<!-- TodoModule -->
<g id="node7" class="node">
<title>TodoModule</title>
<polygon fill="#8dd3c7" stroke="#000000" points="710.6025,-187 707.6025,-191 686.6025,-191 683.6025,-187 621.3975,-187 621.3975,-151 710.6025,-151 710.6025,-187"/>
<text text-anchor="middle" x="666" y="-164.8" font-family="Times,serif" font-size="14.00" fill="#000000">TodoModule</text>
</g>
<!-- TodoComponent&#45;&gt;TodoModule -->
<g id="edge1" class="edge">
<title>TodoComponent&#45;&gt;TodoModule</title>
<path fill="none" stroke="#000000" d="M1292,-122.0109C1292,-144.4852 1292,-180 1292,-180 1292,-180 721.0204,-180 721.0204,-180"/>
<polygon fill="#000000" stroke="#000000" points="721.0204,-176.5001 711.0204,-180 721.0203,-183.5001 721.0204,-176.5001"/>
</g>
<!-- TodoHeaderComponent -->
<g id="node2" class="node">
<title>TodoHeaderComponent</title>
<polygon fill="#ffffb3" stroke="#000000" points="1218.7963,-122 1067.2037,-122 1067.2037,-86 1218.7963,-86 1218.7963,-122"/>
<text text-anchor="middle" x="1143" y="-99.8" font-family="Times,serif" font-size="14.00" fill="#000000">TodoHeaderComponent</text>
</g>
<!-- TodoHeaderComponent&#45;&gt;TodoModule -->
<g id="edge2" class="edge">
<title>TodoHeaderComponent&#45;&gt;TodoModule</title>
<path fill="none" stroke="#000000" d="M1143,-122.1289C1143,-142.5724 1143,-173 1143,-173 1143,-173 720.875,-173 720.875,-173"/>
<polygon fill="#000000" stroke="#000000" points="720.875,-169.5001 710.875,-173 720.875,-176.5001 720.875,-169.5001"/>
</g>
<!-- TodoItemComponent -->
<g id="node3" class="node">
<title>TodoItemComponent</title>
<polygon fill="#ffffb3" stroke="#000000" points="1049.0422,-122 912.9578,-122 912.9578,-86 1049.0422,-86 1049.0422,-122"/>
<text text-anchor="middle" x="981" y="-99.8" font-family="Times,serif" font-size="14.00" fill="#000000">TodoItemComponent</text>
</g>
<!-- TodoItemComponent&#45;&gt;TodoModule -->
<g id="edge3" class="edge">
<title>TodoItemComponent&#45;&gt;TodoModule</title>
<path fill="none" stroke="#000000" d="M981,-122.2667C981,-140.5552 981,-166 981,-166 981,-166 720.7973,-166 720.7973,-166"/>
<polygon fill="#000000" stroke="#000000" points="720.7973,-162.5001 710.7973,-166 720.7973,-169.5001 720.7973,-162.5001"/>
</g>
<!-- TodoListComponent -->
<g id="node4" class="node">
<title>TodoListComponent</title>
<polygon fill="#ffffb3" stroke="#000000" points="894.1638,-122 761.8362,-122 761.8362,-86 894.1638,-86 894.1638,-122"/>
<text text-anchor="middle" x="828" y="-99.8" font-family="Times,serif" font-size="14.00" fill="#000000">TodoListComponent</text>
</g>
<!-- TodoListComponent&#45;&gt;TodoModule -->
<g id="edge4" class="edge">
<title>TodoListComponent&#45;&gt;TodoModule</title>
<path fill="none" stroke="#000000" d="M828,-122.0091C828,-138.0494 828,-159 828,-159 828,-159 720.696,-159 720.696,-159"/>
<polygon fill="#000000" stroke="#000000" points="720.6961,-155.5001 710.696,-159 720.696,-162.5001 720.6961,-155.5001"/>
</g>
<!-- TodoSidenavComponent -->
<g id="node5" class="node">
<title>TodoSidenavComponent</title>
<polygon fill="#ffffb3" stroke="#000000" points="743.9874,-122 588.0126,-122 588.0126,-86 743.9874,-86 743.9874,-122"/>
<text text-anchor="middle" x="666" y="-99.8" font-family="Times,serif" font-size="14.00" fill="#000000">TodoSidenavComponent</text>
</g>
<!-- TodoSidenavComponent&#45;&gt;TodoModule -->
<g id="edge5" class="edge">
<title>TodoSidenavComponent&#45;&gt;TodoModule</title>
<path fill="none" stroke="#000000" d="M666,-122.1061C666,-122.1061 666,-140.991 666,-140.991"/>
<polygon fill="#000000" stroke="#000000" points="662.5001,-140.9909 666,-150.991 669.5001,-140.991 662.5001,-140.9909"/>
</g>
<!-- TodoToolbarComponent -->
<g id="node6" class="node">
<title>TodoToolbarComponent</title>
<polygon fill="#ffffb3" stroke="#000000" points="569.7035,-122 414.2965,-122 414.2965,-86 569.7035,-86 569.7035,-122"/>
<text text-anchor="middle" x="492" y="-99.8" font-family="Times,serif" font-size="14.00" fill="#000000">TodoToolbarComponent</text>
</g>
<!-- TodoToolbarComponent&#45;&gt;TodoModule -->
<g id="edge6" class="edge">
<title>TodoToolbarComponent&#45;&gt;TodoModule</title>
<path fill="none" stroke="#000000" d="M492,-122.0091C492,-138.0494 492,-159 492,-159 492,-159 611.1907,-159 611.1907,-159"/>
<polygon fill="#000000" stroke="#000000" points="611.1907,-162.5001 621.1907,-159 611.1906,-155.5001 611.1907,-162.5001"/>
</g>
<!-- SearchModule -->
<g id="node8" class="node">
<title>SearchModule</title>
<polygon fill="#8dd3c7" stroke="#000000" points="389.6375,-122 386.6375,-126 365.6375,-126 362.6375,-122 292.3625,-122 292.3625,-86 389.6375,-86 389.6375,-122"/>
<text text-anchor="middle" x="341" y="-99.8" font-family="Times,serif" font-size="14.00" fill="#000000">SearchModule</text>
</g>
<!-- SearchModule&#45;&gt;TodoModule -->
<g id="edge7" class="edge">
<title>SearchModule&#45;&gt;TodoModule</title>
<path fill="none" stroke="#000000" d="M341,-122.2667C341,-140.5552 341,-166 341,-166 341,-166 611.1514,-166 611.1514,-166"/>
<polygon fill="#000000" stroke="#000000" points="611.1514,-169.5001 621.1514,-166 611.1513,-162.5001 611.1514,-169.5001"/>
</g>
<!-- SharedModule -->
<g id="node9" class="node">
<title>SharedModule</title>
<polygon fill="#8dd3c7" stroke="#000000" points="274.4231,-122 271.4231,-126 250.4231,-126 247.4231,-122 175.5769,-122 175.5769,-86 274.4231,-86 274.4231,-122"/>
<text text-anchor="middle" x="225" y="-99.8" font-family="Times,serif" font-size="14.00" fill="#000000">SharedModule</text>
</g>
<!-- SharedModule&#45;&gt;TodoModule -->
<g id="edge8" class="edge">
<title>SharedModule&#45;&gt;TodoModule</title>
<path fill="none" stroke="#000000" d="M225,-122.1289C225,-142.5724 225,-173 225,-173 225,-173 611.2877,-173 611.2877,-173"/>
<polygon fill="#000000" stroke="#000000" points="611.2877,-176.5001 621.2877,-173 611.2876,-169.5001 611.2877,-176.5001"/>
</g>
<!-- TodoRoutingModule -->
<g id="node10" class="node">
<title>TodoRoutingModule</title>
<polygon fill="#8dd3c7" stroke="#000000" points="158.2204,-122 155.2204,-126 134.2204,-126 131.2204,-122 23.7796,-122 23.7796,-86 158.2204,-86 158.2204,-122"/>
<text text-anchor="middle" x="91" y="-99.8" font-family="Times,serif" font-size="14.00" fill="#000000">TodoRoutingModule</text>
</g>
<!-- TodoRoutingModule&#45;&gt;TodoModule -->
<g id="edge9" class="edge">
<title>TodoRoutingModule&#45;&gt;TodoModule</title>
<path fill="none" stroke="#000000" d="M91,-122.0109C91,-144.4852 91,-180 91,-180 91,-180 611.3592,-180 611.3592,-180"/>
<polygon fill="#000000" stroke="#000000" points="611.3592,-183.5001 621.3592,-180 611.3591,-176.5001 611.3592,-183.5001"/>
</g>
</g>
</svg>
