<?xml version="1.0" encoding="UTF-8" standalone="no"?>
<!DOCTYPE svg PUBLIC "-//W3C//DTD SVG 1.1//EN"
 "http://www.w3.org/Graphics/SVG/1.1/DTD/svg11.dtd">
<!-- Generated by graphviz version 2.40.1 (20161225.0304)
 -->
<!-- Title: dependencies Pages: 1 -->
<svg width="1080pt" height="211pt"
 viewBox="0.00 0.00 1080.00 211.00" xmlns="http://www.w3.org/2000/svg" xmlns:xlink="http://www.w3.org/1999/xlink">
<g id="graph0" class="graph" transform="scale(1 1) rotate(0) translate(4 207)">
<title>dependencies</title>
<polygon fill="#ffffff" stroke="transparent" points="-4,4 -4,-207 1076,-207 1076,4 -4,4"/>
<text text-anchor="start" x="515.0091" y="-42.4" font-family="sans-serif" font-weight="bold" font-size="14.00" fill="#000000">Legend</text>
<polygon fill="#ffffb3" stroke="transparent" points="302,-10 302,-30 322,-30 322,-10 302,-10"/>
<text text-anchor="start" x="325.629" y="-15.4" font-family="sans-serif" font-size="14.00" fill="#000000"> &#160;Declarations</text>
<polygon fill="#8dd3c7" stroke="transparent" points="415,-10 415,-30 435,-30 435,-10 415,-10"/>
<text text-anchor="start" x="438.7251" y="-15.4" font-family="sans-serif" font-size="14.00" fill="#000000"> &#160;Module</text>
<polygon fill="#80b1d3" stroke="transparent" points="501,-10 501,-30 521,-30 521,-10 501,-10"/>
<text text-anchor="start" x="524.7812" y="-15.4" font-family="sans-serif" font-size="14.00" fill="#000000"> &#160;Bootstrap</text>
<polygon fill="#fdb462" stroke="transparent" points="598,-10 598,-30 618,-30 618,-10 598,-10"/>
<text text-anchor="start" x="621.6732" y="-15.4" font-family="sans-serif" font-size="14.00" fill="#000000"> &#160;Providers</text>
<polygon fill="#fb8072" stroke="transparent" points="694,-10 694,-30 714,-30 714,-10 694,-10"/>
<text text-anchor="start" x="717.7258" y="-15.4" font-family="sans-serif" font-size="14.00" fill="#000000"> &#160;Exports</text>
<g id="clust1" class="cluster">
<title>cluster_TodoModule</title>
<polygon fill="none" stroke="#000000" stroke-dasharray="1,5" points="8,-70 8,-195 1064,-195 1064,-70 8,-70"/>
</g>
<g id="clust2" class="cluster">
<title>cluster_TodoModule_declarations</title>
<polygon fill="none" stroke="#000000" points="290,-78 290,-130 1056,-130 1056,-78 290,-78"/>
</g>
<g id="clust8" class="cluster">
<title>cluster_TodoModule_imports</title>
<polygon fill="none" stroke="#000000" points="16,-78 16,-130 282,-130 282,-78 16,-78"/>
</g>
<!-- TodoComponent -->
<g id="node1" class="node">
<title>TodoComponent</title>
<polygon fill="#ffffb3" stroke="#000000" points="1048.3851,-122 937.6149,-122 937.6149,-86 1048.3851,-86 1048.3851,-122"/>
<text text-anchor="middle" x="993" y="-99.8" font-family="Times,serif" font-size="14.00" fill="#000000">TodoComponent</text>
</g>
<!-- TodoModule -->
<g id="node6" class="node">
<title>TodoModule</title>
<polygon fill="#8dd3c7" stroke="#000000" points="561.6025,-187 558.6025,-191 537.6025,-191 534.6025,-187 472.3975,-187 472.3975,-151 561.6025,-151 561.6025,-187"/>
<text text-anchor="middle" x="517" y="-164.8" font-family="Times,serif" font-size="14.00" fill="#000000">TodoModule</text>
</g>
<!-- TodoComponent&#45;&gt;TodoModule -->
<g id="edge1" class="edge">
<title>TodoComponent&#45;&gt;TodoModule</title>
<path fill="none" stroke="#000000" d="M993,-122.2921C993,-144.2057 993,-178 993,-178 993,-178 571.7809,-178 571.7809,-178"/>
<polygon fill="#000000" stroke="#000000" points="571.781,-174.5001 561.7809,-178 571.7809,-181.5001 571.781,-174.5001"/>
</g>
<!-- TodoFooterComponent -->
<g id="node2" class="node">
<title>TodoFooterComponent</title>
<polygon fill="#ffffb3" stroke="#000000" points="919.934,-122 772.066,-122 772.066,-86 919.934,-86 919.934,-122"/>
<text text-anchor="middle" x="846" y="-99.8" font-family="Times,serif" font-size="14.00" fill="#000000">TodoFooterComponent</text>
</g>
<!-- TodoFooterComponent&#45;&gt;TodoModule -->
<g id="edge2" class="edge">
<title>TodoFooterComponent&#45;&gt;TodoModule</title>
<path fill="none" stroke="#000000" d="M846,-122.1061C846,-141.3391 846,-169 846,-169 846,-169 571.7128,-169 571.7128,-169"/>
<polygon fill="#000000" stroke="#000000" points="571.7128,-165.5001 561.7128,-169 571.7128,-172.5001 571.7128,-165.5001"/>
</g>
<!-- TodoHeaderComponent -->
<g id="node3" class="node">
<title>TodoHeaderComponent</title>
<polygon fill="#ffffb3" stroke="#000000" points="754.7963,-122 603.2037,-122 603.2037,-86 754.7963,-86 754.7963,-122"/>
<text text-anchor="middle" x="679" y="-99.8" font-family="Times,serif" font-size="14.00" fill="#000000">TodoHeaderComponent</text>
</g>
<!-- TodoHeaderComponent&#45;&gt;TodoModule -->
<g id="edge3" class="edge">
<title>TodoHeaderComponent&#45;&gt;TodoModule</title>
<path fill="none" stroke="#000000" d="M679,-122.027C679,-138.3976 679,-160 679,-160 679,-160 571.696,-160 571.696,-160"/>
<polygon fill="#000000" stroke="#000000" points="571.6961,-156.5001 561.696,-160 571.696,-163.5001 571.6961,-156.5001"/>
</g>
<!-- TodoItemComponent -->
<g id="node4" class="node">
<title>TodoItemComponent</title>
<polygon fill="#ffffb3" stroke="#000000" points="585.0422,-122 448.9578,-122 448.9578,-86 585.0422,-86 585.0422,-122"/>
<text text-anchor="middle" x="517" y="-99.8" font-family="Times,serif" font-size="14.00" fill="#000000">TodoItemComponent</text>
</g>
<!-- TodoItemComponent&#45;&gt;TodoModule -->
<g id="edge4" class="edge">
<title>TodoItemComponent&#45;&gt;TodoModule</title>
<path fill="none" stroke="#000000" d="M517,-122.1061C517,-122.1061 517,-140.991 517,-140.991"/>
<polygon fill="#000000" stroke="#000000" points="513.5001,-140.9909 517,-150.991 520.5001,-140.991 513.5001,-140.9909"/>
</g>
<!-- TodoListComponent -->
<g id="node5" class="node">
<title>TodoListComponent</title>
<polygon fill="#ffffb3" stroke="#000000" points="430.1638,-122 297.8362,-122 297.8362,-86 430.1638,-86 430.1638,-122"/>
<text text-anchor="middle" x="364" y="-99.8" font-family="Times,serif" font-size="14.00" fill="#000000">TodoListComponent</text>
</g>
<!-- TodoListComponent&#45;&gt;TodoModule -->
<g id="edge5" class="edge">
<title>TodoListComponent&#45;&gt;TodoModule</title>
<path fill="none" stroke="#000000" d="M364,-122.027C364,-138.3976 364,-160 364,-160 364,-160 462.3348,-160 462.3348,-160"/>
<polygon fill="#000000" stroke="#000000" points="462.3348,-163.5001 472.3348,-160 462.3347,-156.5001 462.3348,-163.5001"/>
</g>
<!-- SharedModule -->
<g id="node7" class="node">
<title>SharedModule</title>
<polygon fill="#8dd3c7" stroke="#000000" points="274.4231,-122 271.4231,-126 250.4231,-126 247.4231,-122 175.5769,-122 175.5769,-86 274.4231,-86 274.4231,-122"/>
<text text-anchor="middle" x="225" y="-99.8" font-family="Times,serif" font-size="14.00" fill="#000000">SharedModule</text>
</g>
<!-- SharedModule&#45;&gt;TodoModule -->
<g id="edge6" class="edge">
<title>SharedModule&#45;&gt;TodoModule</title>
<path fill="none" stroke="#000000" d="M225,-122.1061C225,-141.3391 225,-169 225,-169 225,-169 462.3336,-169 462.3336,-169"/>
<polygon fill="#000000" stroke="#000000" points="462.3337,-172.5001 472.3336,-169 462.3336,-165.5001 462.3337,-172.5001"/>
</g>
<!-- TodoRoutingModule -->
<g id="node8" class="node">
<title>TodoRoutingModule</title>
<polygon fill="#8dd3c7" stroke="#000000" points="158.2204,-122 155.2204,-126 134.2204,-126 131.2204,-122 23.7796,-122 23.7796,-86 158.2204,-86 158.2204,-122"/>
<text text-anchor="middle" x="91" y="-99.8" font-family="Times,serif" font-size="14.00" fill="#000000">TodoRoutingModule</text>
</g>
<!-- TodoRoutingModule&#45;&gt;TodoModule -->
<g id="edge7" class="edge">
<title>TodoRoutingModule&#45;&gt;TodoModule</title>
<path fill="none" stroke="#000000" d="M91,-122.2921C91,-144.2057 91,-178 91,-178 91,-178 462.2157,-178 462.2157,-178"/>
<polygon fill="#000000" stroke="#000000" points="462.2157,-181.5001 472.2157,-178 462.2157,-174.5001 462.2157,-181.5001"/>
</g>
</g>
</svg>
