<?xml version="1.0" encoding="UTF-8" standalone="no"?>
<!DOCTYPE svg PUBLIC "-//W3C//DTD SVG 1.1//EN"
 "http://www.w3.org/Graphics/SVG/1.1/DTD/svg11.dtd">
<!-- Generated by graphviz version 2.40.1 (20161225.0304)
 -->
<!-- Title: dependencies Pages: 1 -->
<svg width="507pt" height="211pt"
 viewBox="0.00 0.00 507.00 211.00" xmlns="http://www.w3.org/2000/svg" xmlns:xlink="http://www.w3.org/1999/xlink">
<g id="graph0" class="graph" transform="scale(1 1) rotate(0) translate(4 207)">
<title>dependencies</title>
<polygon fill="#ffffff" stroke="transparent" points="-4,4 -4,-207 503,-207 503,4 -4,4"/>
<text text-anchor="start" x="228.5091" y="-42.4" font-family="sans-serif" font-weight="bold" font-size="14.00" fill="#000000">Legend</text>
<polygon fill="#ffffb3" stroke="transparent" points="15.5,-10 15.5,-30 35.5,-30 35.5,-10 15.5,-10"/>
<text text-anchor="start" x="39.129" y="-15.4" font-family="sans-serif" font-size="14.00" fill="#000000"> &#160;Declarations</text>
<polygon fill="#8dd3c7" stroke="transparent" points="128.5,-10 128.5,-30 148.5,-30 148.5,-10 128.5,-10"/>
<text text-anchor="start" x="152.2251" y="-15.4" font-family="sans-serif" font-size="14.00" fill="#000000"> &#160;Module</text>
<polygon fill="#80b1d3" stroke="transparent" points="214.5,-10 214.5,-30 234.5,-30 234.5,-10 214.5,-10"/>
<text text-anchor="start" x="238.2812" y="-15.4" font-family="sans-serif" font-size="14.00" fill="#000000"> &#160;Bootstrap</text>
<polygon fill="#fdb462" stroke="transparent" points="311.5,-10 311.5,-30 331.5,-30 331.5,-10 311.5,-10"/>
<text text-anchor="start" x="335.1732" y="-15.4" font-family="sans-serif" font-size="14.00" fill="#000000"> &#160;Providers</text>
<polygon fill="#fb8072" stroke="transparent" points="407.5,-10 407.5,-30 427.5,-30 427.5,-10 407.5,-10"/>
<text text-anchor="start" x="431.2258" y="-15.4" font-family="sans-serif" font-size="14.00" fill="#000000"> &#160;Exports</text>
<g id="clust1" class="cluster">
<title>cluster_NavigationModule</title>
<polygon fill="none" stroke="#000000" stroke-dasharray="1,5" points="8,-70 8,-195 491,-195 491,-70 8,-70"/>
</g>
<g id="clust2" class="cluster">
<title>cluster_NavigationModule_declarations</title>
<polygon fill="none" stroke="#000000" points="323,-78 323,-130 483,-130 483,-78 323,-78"/>
</g>
<g id="clust4" class="cluster">
<title>cluster_NavigationModule_imports</title>
<polygon fill="none" stroke="#000000" points="16,-78 16,-130 315,-130 315,-78 16,-78"/>
</g>
<!-- NavigationComponent -->
<g id="node1" class="node">
<title>NavigationComponent</title>
<polygon fill="#ffffb3" stroke="#000000" points="474.5407,-122 331.4593,-122 331.4593,-86 474.5407,-86 474.5407,-122"/>
<text text-anchor="middle" x="403" y="-99.8" font-family="Times,serif" font-size="14.00" fill="#000000">NavigationComponent</text>
</g>
<!-- NavigationModule -->
<g id="node2" class="node">
<title>NavigationModule</title>
<polygon fill="#8dd3c7" stroke="#000000" points="318.7576,-187 315.7576,-191 294.7576,-191 291.7576,-187 197.2424,-187 197.2424,-151 318.7576,-151 318.7576,-187"/>
<text text-anchor="middle" x="258" y="-164.8" font-family="Times,serif" font-size="14.00" fill="#000000">NavigationModule</text>
</g>
<!-- NavigationComponent&#45;&gt;NavigationModule -->
<g id="edge1" class="edge">
<title>NavigationComponent&#45;&gt;NavigationModule</title>
<path fill="none" stroke="#000000" d="M331.2487,-104C320.5613,-104 313.0449,-104 313.0449,-104 313.0449,-104 313.0449,-140.8939 313.0449,-140.8939"/>
<polygon fill="#000000" stroke="#000000" points="309.545,-140.8938 313.0449,-150.8939 316.545,-140.8939 309.545,-140.8938"/>
</g>
<!-- SharedModule -->
<g id="node3" class="node">
<title>SharedModule</title>
<polygon fill="#8dd3c7" stroke="#000000" points="307.4231,-122 304.4231,-126 283.4231,-126 280.4231,-122 208.5769,-122 208.5769,-86 307.4231,-86 307.4231,-122"/>
<text text-anchor="middle" x="258" y="-99.8" font-family="Times,serif" font-size="14.00" fill="#000000">SharedModule</text>
</g>
<!-- SharedModule&#45;&gt;NavigationModule -->
<g id="edge2" class="edge">
<title>SharedModule&#45;&gt;NavigationModule</title>
<path fill="none" stroke="#000000" d="M258,-122.1061C258,-122.1061 258,-140.991 258,-140.991"/>
<polygon fill="#000000" stroke="#000000" points="254.5001,-140.9909 258,-150.991 261.5001,-140.991 254.5001,-140.9909"/>
</g>
<!-- NavigationRoutingModule -->
<g id="node4" class="node">
<title>NavigationRoutingModule</title>
<polygon fill="#8dd3c7" stroke="#000000" points="190.3752,-122 187.3752,-126 166.3752,-126 163.3752,-122 23.6248,-122 23.6248,-86 190.3752,-86 190.3752,-122"/>
<text text-anchor="middle" x="107" y="-99.8" font-family="Times,serif" font-size="14.00" fill="#000000">NavigationRoutingModule</text>
</g>
<!-- NavigationRoutingModule&#45;&gt;NavigationModule -->
<g id="edge3" class="edge">
<title>NavigationRoutingModule&#45;&gt;NavigationModule</title>
<path fill="none" stroke="#000000" d="M190.4106,-104C198.0297,-104 202.9551,-104 202.9551,-104 202.9551,-104 202.9551,-140.8939 202.9551,-140.8939"/>
<polygon fill="#000000" stroke="#000000" points="199.4552,-140.8938 202.9551,-150.8939 206.4552,-140.8939 199.4552,-140.8938"/>
</g>
</g>
</svg>
