<?xml version="1.0" encoding="UTF-8" standalone="no"?>
<!DOCTYPE svg PUBLIC "-//W3C//DTD SVG 1.1//EN"
 "http://www.w3.org/Graphics/SVG/1.1/DTD/svg11.dtd">
<!-- Generated by graphviz version 2.40.1 (20161225.0304)
 -->
<!-- Title: dependencies Pages: 1 -->
<svg width="1194pt" height="211pt"
 viewBox="0.00 0.00 1194.00 211.00" xmlns="http://www.w3.org/2000/svg" xmlns:xlink="http://www.w3.org/1999/xlink">
<g id="graph0" class="graph" transform="scale(1 1) rotate(0) translate(4 207)">
<title>dependencies</title>
<polygon fill="#ffffff" stroke="transparent" points="-4,4 -4,-207 1190,-207 1190,4 -4,4"/>
<text text-anchor="start" x="572.0091" y="-42.4" font-family="sans-serif" font-weight="bold" font-size="14.00" fill="#000000">Legend</text>
<polygon fill="#ffffb3" stroke="transparent" points="359,-10 359,-30 379,-30 379,-10 359,-10"/>
<text text-anchor="start" x="382.629" y="-15.4" font-family="sans-serif" font-size="14.00" fill="#000000"> &#160;Declarations</text>
<polygon fill="#8dd3c7" stroke="transparent" points="472,-10 472,-30 492,-30 492,-10 472,-10"/>
<text text-anchor="start" x="495.7251" y="-15.4" font-family="sans-serif" font-size="14.00" fill="#000000"> &#160;Module</text>
<polygon fill="#80b1d3" stroke="transparent" points="558,-10 558,-30 578,-30 578,-10 558,-10"/>
<text text-anchor="start" x="581.7812" y="-15.4" font-family="sans-serif" font-size="14.00" fill="#000000"> &#160;Bootstrap</text>
<polygon fill="#fdb462" stroke="transparent" points="655,-10 655,-30 675,-30 675,-10 655,-10"/>
<text text-anchor="start" x="678.6732" y="-15.4" font-family="sans-serif" font-size="14.00" fill="#000000"> &#160;Providers</text>
<polygon fill="#fb8072" stroke="transparent" points="751,-10 751,-30 771,-30 771,-10 751,-10"/>
<text text-anchor="start" x="774.7258" y="-15.4" font-family="sans-serif" font-size="14.00" fill="#000000"> &#160;Exports</text>
<g id="clust1" class="cluster">
<title>cluster_NavigationModule</title>
<polygon fill="none" stroke="#000000" stroke-dasharray="1,5" points="8,-70 8,-195 1178,-195 1178,-70 8,-70"/>
</g>
<g id="clust2" class="cluster">
<title>cluster_NavigationModule_declarations</title>
<polygon fill="none" stroke="#000000" points="873,-78 873,-130 1170,-130 1170,-78 873,-78"/>
</g>
<g id="clust5" class="cluster">
<title>cluster_NavigationModule_imports</title>
<polygon fill="none" stroke="#000000" points="16,-78 16,-130 865,-130 865,-78 16,-78"/>
</g>
<!-- ActionComponent -->
<g id="node1" class="node">
<title>ActionComponent</title>
<polygon fill="#ffffb3" stroke="#000000" points="1161.9356,-122 1042.0644,-122 1042.0644,-86 1161.9356,-86 1161.9356,-122"/>
<text text-anchor="middle" x="1102" y="-99.8" font-family="Times,serif" font-size="14.00" fill="#000000">ActionComponent</text>
</g>
<!-- NavigationModule -->
<g id="node3" class="node">
<title>NavigationModule</title>
<polygon fill="#8dd3c7" stroke="#000000" points="632.7576,-187 629.7576,-191 608.7576,-191 605.7576,-187 511.2424,-187 511.2424,-151 632.7576,-151 632.7576,-187"/>
<text text-anchor="middle" x="572" y="-164.8" font-family="Times,serif" font-size="14.00" fill="#000000">NavigationModule</text>
</g>
<!-- ActionComponent&#45;&gt;NavigationModule -->
<g id="edge1" class="edge">
<title>ActionComponent&#45;&gt;NavigationModule</title>
<path fill="none" stroke="#000000" d="M1102,-122.2921C1102,-144.2057 1102,-178 1102,-178 1102,-178 642.7977,-178 642.7977,-178"/>
<polygon fill="#000000" stroke="#000000" points="642.7978,-174.5001 632.7977,-178 642.7977,-181.5001 642.7978,-174.5001"/>
</g>
<!-- NavigationComponent -->
<g id="node2" class="node">
<title>NavigationComponent</title>
<polygon fill="#ffffb3" stroke="#000000" points="1024.5407,-122 881.4593,-122 881.4593,-86 1024.5407,-86 1024.5407,-122"/>
<text text-anchor="middle" x="953" y="-99.8" font-family="Times,serif" font-size="14.00" fill="#000000">NavigationComponent</text>
</g>
<!-- NavigationComponent&#45;&gt;NavigationModule -->
<g id="edge2" class="edge">
<title>NavigationComponent&#45;&gt;NavigationModule</title>
<path fill="none" stroke="#000000" d="M953,-122.1061C953,-141.3391 953,-169 953,-169 953,-169 642.7919,-169 642.7919,-169"/>
<polygon fill="#000000" stroke="#000000" points="642.7919,-165.5001 632.7919,-169 642.7918,-172.5001 642.7919,-165.5001"/>
</g>
<!-- GithubButtonModule -->
<g id="node4" class="node">
<title>GithubButtonModule</title>
<polygon fill="#8dd3c7" stroke="#000000" points="857.0561,-122 854.0561,-126 833.0561,-126 830.0561,-122 720.9439,-122 720.9439,-86 857.0561,-86 857.0561,-122"/>
<text text-anchor="middle" x="789" y="-99.8" font-family="Times,serif" font-size="14.00" fill="#000000">GithubButtonModule</text>
</g>
<!-- GithubButtonModule&#45;&gt;NavigationModule -->
<g id="edge3" class="edge">
<title>GithubButtonModule&#45;&gt;NavigationModule</title>
<path fill="none" stroke="#000000" d="M789,-122.027C789,-138.3976 789,-160 789,-160 789,-160 643.0241,-160 643.0241,-160"/>
<polygon fill="#000000" stroke="#000000" points="643.0241,-156.5001 633.0241,-160 643.024,-163.5001 643.0241,-156.5001"/>
</g>
<!-- LoadingModule -->
<g id="node5" class="node">
<title>LoadingModule</title>
<polygon fill="#8dd3c7" stroke="#000000" points="703.2078,-122 700.2078,-126 679.2078,-126 676.2078,-122 596.7922,-122 596.7922,-86 703.2078,-86 703.2078,-122"/>
<text text-anchor="middle" x="650" y="-99.8" font-family="Times,serif" font-size="14.00" fill="#000000">LoadingModule</text>
</g>
<!-- LoadingModule&#45;&gt;NavigationModule -->
<g id="edge4" class="edge">
<title>LoadingModule&#45;&gt;NavigationModule</title>
<path fill="none" stroke="#000000" d="M614.8874,-122.1061C614.8874,-122.1061 614.8874,-140.991 614.8874,-140.991"/>
<polygon fill="#000000" stroke="#000000" points="611.3875,-140.9909 614.8874,-150.991 618.3875,-140.991 611.3875,-140.9909"/>
</g>
<!-- NavigationRoutingModule -->
<g id="node6" class="node">
<title>NavigationRoutingModule</title>
<polygon fill="#8dd3c7" stroke="#000000" points="578.3752,-122 575.3752,-126 554.3752,-126 551.3752,-122 411.6248,-122 411.6248,-86 578.3752,-86 578.3752,-122"/>
<text text-anchor="middle" x="495" y="-99.8" font-family="Times,serif" font-size="14.00" fill="#000000">NavigationRoutingModule</text>
</g>
<!-- NavigationRoutingModule&#45;&gt;NavigationModule -->
<g id="edge5" class="edge">
<title>NavigationRoutingModule&#45;&gt;NavigationModule</title>
<path fill="none" stroke="#000000" d="M544.7795,-122.1061C544.7795,-122.1061 544.7795,-140.991 544.7795,-140.991"/>
<polygon fill="#000000" stroke="#000000" points="541.2795,-140.9909 544.7795,-150.991 548.2795,-140.991 541.2795,-140.9909"/>
</g>
<!-- PaginationModule -->
<g id="node7" class="node">
<title>PaginationModule</title>
<polygon fill="#8dd3c7" stroke="#000000" points="393.9342,-122 390.9342,-126 369.9342,-126 366.9342,-122 274.0658,-122 274.0658,-86 393.9342,-86 393.9342,-122"/>
<text text-anchor="middle" x="334" y="-99.8" font-family="Times,serif" font-size="14.00" fill="#000000">PaginationModule</text>
</g>
<!-- PaginationModule&#45;&gt;NavigationModule -->
<g id="edge6" class="edge">
<title>PaginationModule&#45;&gt;NavigationModule</title>
<path fill="none" stroke="#000000" d="M334,-122.027C334,-138.3976 334,-160 334,-160 334,-160 501.0181,-160 501.0181,-160"/>
<polygon fill="#000000" stroke="#000000" points="501.0182,-163.5001 511.0181,-160 501.0181,-156.5001 501.0182,-163.5001"/>
</g>
<!-- SharedModule -->
<g id="node8" class="node">
<title>SharedModule</title>
<polygon fill="#8dd3c7" stroke="#000000" points="256.4231,-122 253.4231,-126 232.4231,-126 229.4231,-122 157.5769,-122 157.5769,-86 256.4231,-86 256.4231,-122"/>
<text text-anchor="middle" x="207" y="-99.8" font-family="Times,serif" font-size="14.00" fill="#000000">SharedModule</text>
</g>
<!-- SharedModule&#45;&gt;NavigationModule -->
<g id="edge7" class="edge">
<title>SharedModule&#45;&gt;NavigationModule</title>
<path fill="none" stroke="#000000" d="M207,-122.1061C207,-141.3391 207,-169 207,-169 207,-169 500.9072,-169 500.9072,-169"/>
<polygon fill="#000000" stroke="#000000" points="500.9072,-172.5001 510.9072,-169 500.9072,-165.5001 500.9072,-172.5001"/>
</g>
<!-- TagSelectModule -->
<g id="node9" class="node">
<title>TagSelectModule</title>
<polygon fill="#8dd3c7" stroke="#000000" points="139.5256,-122 136.5256,-126 115.5256,-126 112.5256,-122 24.4744,-122 24.4744,-86 139.5256,-86 139.5256,-122"/>
<text text-anchor="middle" x="82" y="-99.8" font-family="Times,serif" font-size="14.00" fill="#000000">TagSelectModule</text>
</g>
<!-- TagSelectModule&#45;&gt;NavigationModule -->
<g id="edge8" class="edge">
<title>TagSelectModule&#45;&gt;NavigationModule</title>
<path fill="none" stroke="#000000" d="M82,-122.2921C82,-144.2057 82,-178 82,-178 82,-178 500.9319,-178 500.9319,-178"/>
<polygon fill="#000000" stroke="#000000" points="500.9319,-181.5001 510.9319,-178 500.9319,-174.5001 500.9319,-181.5001"/>
</g>
</g>
</svg>
