<?xml version="1.0" encoding="UTF-8" standalone="no"?>
<!DOCTYPE svg PUBLIC "-//W3C//DTD SVG 1.1//EN"
 "http://www.w3.org/Graphics/SVG/1.1/DTD/svg11.dtd">
<!-- Generated by graphviz version 2.40.1 (20161225.0304)
 -->
<!-- Title: dependencies Pages: 1 -->
<svg width="784pt" height="284pt"
 viewBox="0.00 0.00 784.00 284.00" xmlns="http://www.w3.org/2000/svg" xmlns:xlink="http://www.w3.org/1999/xlink">
<g id="graph0" class="graph" transform="scale(1 1) rotate(0) translate(4 280)">
<title>dependencies</title>
<polygon fill="#ffffff" stroke="transparent" points="-4,4 -4,-280 780,-280 780,4 -4,4"/>
<text text-anchor="start" x="367.0091" y="-42.4" font-family="sans-serif" font-weight="bold" font-size="14.00" fill="#000000">Legend</text>
<polygon fill="#ffffb3" stroke="transparent" points="154,-10 154,-30 174,-30 174,-10 154,-10"/>
<text text-anchor="start" x="177.629" y="-15.4" font-family="sans-serif" font-size="14.00" fill="#000000"> &#160;Declarations</text>
<polygon fill="#8dd3c7" stroke="transparent" points="267,-10 267,-30 287,-30 287,-10 267,-10"/>
<text text-anchor="start" x="290.7251" y="-15.4" font-family="sans-serif" font-size="14.00" fill="#000000"> &#160;Module</text>
<polygon fill="#80b1d3" stroke="transparent" points="353,-10 353,-30 373,-30 373,-10 353,-10"/>
<text text-anchor="start" x="376.7812" y="-15.4" font-family="sans-serif" font-size="14.00" fill="#000000"> &#160;Bootstrap</text>
<polygon fill="#fdb462" stroke="transparent" points="450,-10 450,-30 470,-30 470,-10 450,-10"/>
<text text-anchor="start" x="473.6732" y="-15.4" font-family="sans-serif" font-size="14.00" fill="#000000"> &#160;Providers</text>
<polygon fill="#fb8072" stroke="transparent" points="546,-10 546,-30 566,-30 566,-10 546,-10"/>
<text text-anchor="start" x="569.7258" y="-15.4" font-family="sans-serif" font-size="14.00" fill="#000000"> &#160;Exports</text>
<g id="clust1" class="cluster">
<title>cluster_ComponentModule</title>
<polygon fill="none" stroke="#000000" stroke-dasharray="1,5" points="8,-70 8,-268 768,-268 768,-70 8,-70"/>
</g>
<g id="clust2" class="cluster">
<title>cluster_ComponentModule_declarations</title>
<polygon fill="none" stroke="#000000" points="24,-78 24,-130 752,-130 752,-78 24,-78"/>
</g>
<g id="clust9" class="cluster">
<title>cluster_ComponentModule_exports</title>
<polygon fill="none" stroke="#000000" points="16,-208 16,-260 760,-260 760,-208 16,-208"/>
</g>
<!-- PaginationComponent -->
<g id="node1" class="node">
<title>PaginationComponent</title>
<polygon fill="#ffffb3" stroke="#000000" points="743.7162,-122 602.2838,-122 602.2838,-86 743.7162,-86 743.7162,-122"/>
<text text-anchor="middle" x="673" y="-99.8" font-family="Times,serif" font-size="14.00" fill="#000000">PaginationComponent</text>
</g>
<!-- ComponentModule -->
<g id="node6" class="node">
<title>ComponentModule</title>
<polygon fill="#8dd3c7" stroke="#000000" points="422.3823,-187 419.3823,-191 398.3823,-191 395.3823,-187 297.6177,-187 297.6177,-151 422.3823,-151 422.3823,-187"/>
<text text-anchor="middle" x="360" y="-164.8" font-family="Times,serif" font-size="14.00" fill="#000000">ComponentModule</text>
</g>
<!-- PaginationComponent&#45;&gt;ComponentModule -->
<g id="edge1" class="edge">
<title>PaginationComponent&#45;&gt;ComponentModule</title>
<path fill="none" stroke="#000000" d="M698.286,-122.2667C698.286,-140.5552 698.286,-166 698.286,-166 698.286,-166 432.4411,-166 432.4411,-166"/>
<polygon fill="#000000" stroke="#000000" points="432.4411,-162.5001 422.4411,-166 432.4411,-169.5001 432.4411,-162.5001"/>
</g>
<!-- MarkdownComponent -->
<g id="node2" class="node">
<title>MarkdownComponent</title>
<polygon fill="#ffffb3" stroke="#000000" points="584.259,-122 441.741,-122 441.741,-86 584.259,-86 584.259,-122"/>
<text text-anchor="middle" x="513" y="-99.8" font-family="Times,serif" font-size="14.00" fill="#000000">MarkdownComponent</text>
</g>
<!-- MarkdownComponent&#45;&gt;ComponentModule -->
<g id="edge2" class="edge">
<title>MarkdownComponent&#45;&gt;ComponentModule</title>
<path fill="none" stroke="#000000" d="M537.5431,-122.0091C537.5431,-138.0494 537.5431,-159 537.5431,-159 537.5431,-159 432.5951,-159 432.5951,-159"/>
<polygon fill="#000000" stroke="#000000" points="432.5951,-155.5001 422.5951,-159 432.595,-162.5001 432.5951,-155.5001"/>
</g>
<!-- PopoverComponent -->
<g id="node3" class="node">
<title>PopoverComponent</title>
<polygon fill="#ffffb3" stroke="#000000" points="423.9902,-122 296.0098,-122 296.0098,-86 423.9902,-86 423.9902,-122"/>
<text text-anchor="middle" x="360" y="-99.8" font-family="Times,serif" font-size="14.00" fill="#000000">PopoverComponent</text>
</g>
<!-- PopoverComponent&#45;&gt;ComponentModule -->
<g id="edge3" class="edge">
<title>PopoverComponent&#45;&gt;ComponentModule</title>
<path fill="none" stroke="#000000" d="M360,-122.1061C360,-122.1061 360,-140.991 360,-140.991"/>
<polygon fill="#000000" stroke="#000000" points="356.5001,-140.9909 360,-150.991 363.5001,-140.991 356.5001,-140.9909"/>
</g>
<!-- PopoverDirective -->
<g id="node4" class="node">
<title>PopoverDirective</title>
<polygon fill="#ffffb3" stroke="#000000" points="278.2409,-122 163.7591,-122 163.7591,-86 278.2409,-86 278.2409,-122"/>
<text text-anchor="middle" x="221" y="-99.8" font-family="Times,serif" font-size="14.00" fill="#000000">PopoverDirective</text>
</g>
<!-- PopoverDirective&#45;&gt;ComponentModule -->
<g id="edge4" class="edge">
<title>PopoverDirective&#45;&gt;ComponentModule</title>
<path fill="none" stroke="#000000" d="M238.6234,-122.0091C238.6234,-138.0494 238.6234,-159 238.6234,-159 238.6234,-159 287.534,-159 287.534,-159"/>
<polygon fill="#000000" stroke="#000000" points="287.534,-162.5001 297.534,-159 287.5339,-155.5001 287.534,-162.5001"/>
</g>
<!-- TableComponent -->
<g id="node5" class="node">
<title>TableComponent</title>
<polygon fill="#ffffb3" stroke="#000000" points="145.705,-122 32.295,-122 32.295,-86 145.705,-86 145.705,-122"/>
<text text-anchor="middle" x="89" y="-99.8" font-family="Times,serif" font-size="14.00" fill="#000000">TableComponent</text>
</g>
<!-- TableComponent&#45;&gt;ComponentModule -->
<g id="edge5" class="edge">
<title>TableComponent&#45;&gt;ComponentModule</title>
<path fill="none" stroke="#000000" d="M104.3675,-122.2667C104.3675,-140.5552 104.3675,-166 104.3675,-166 104.3675,-166 287.4652,-166 287.4652,-166"/>
<polygon fill="#000000" stroke="#000000" points="287.4653,-169.5001 297.4652,-166 287.4652,-162.5001 287.4653,-169.5001"/>
</g>
<!-- PaginationComponent  -->
<g id="node7" class="node">
<title>PaginationComponent </title>
<polygon fill="#fb8072" stroke="#000000" points="752.2163,-252 607.7837,-252 607.7837,-216 752.2163,-216 752.2163,-252"/>
<text text-anchor="middle" x="680" y="-229.8" font-family="Times,serif" font-size="14.00" fill="#000000">PaginationComponent </text>
</g>
<!-- ComponentModule&#45;&gt;PaginationComponent  -->
<g id="edge6" class="edge">
<title>ComponentModule&#45;&gt;PaginationComponent </title>
<path fill="none" stroke="#000000" stroke-dasharray="5,2" d="M422.4888,-173C508.5291,-173 652.964,-173 652.964,-173 652.964,-173 652.964,-205.698 652.964,-205.698"/>
<polygon fill="#000000" stroke="#000000" points="649.4641,-205.698 652.964,-215.698 656.4641,-205.698 649.4641,-205.698"/>
</g>
<!-- MarkdownComponent  -->
<g id="node8" class="node">
<title>MarkdownComponent </title>
<polygon fill="#fb8072" stroke="#000000" points="590.259,-252 443.741,-252 443.741,-216 590.259,-216 590.259,-252"/>
<text text-anchor="middle" x="517" y="-229.8" font-family="Times,serif" font-size="14.00" fill="#000000">MarkdownComponent </text>
</g>
<!-- ComponentModule&#45;&gt;MarkdownComponent  -->
<g id="edge7" class="edge">
<title>ComponentModule&#45;&gt;MarkdownComponent </title>
<path fill="none" stroke="#000000" stroke-dasharray="5,2" d="M422.6736,-180C456.2187,-180 490.7069,-180 490.7069,-180 490.7069,-180 490.7069,-205.7181 490.7069,-205.7181"/>
<polygon fill="#000000" stroke="#000000" points="487.207,-205.718 490.7069,-215.7181 494.207,-205.7181 487.207,-205.718"/>
</g>
<!-- PopoverComponent  -->
<g id="node9" class="node">
<title>PopoverComponent </title>
<polygon fill="#fb8072" stroke="#000000" points="425.9911,-252 294.0089,-252 294.0089,-216 425.9911,-216 425.9911,-252"/>
<text text-anchor="middle" x="360" y="-229.8" font-family="Times,serif" font-size="14.00" fill="#000000">PopoverComponent </text>
</g>
<!-- ComponentModule&#45;&gt;PopoverComponent  -->
<g id="edge8" class="edge">
<title>ComponentModule&#45;&gt;PopoverComponent </title>
<path fill="none" stroke="#000000" stroke-dasharray="5,2" d="M360,-187.1061C360,-187.1061 360,-205.991 360,-205.991"/>
<polygon fill="#000000" stroke="#000000" points="356.5001,-205.9909 360,-215.991 363.5001,-205.991 356.5001,-205.9909"/>
</g>
<!-- PopoverDirective  -->
<g id="node10" class="node">
<title>PopoverDirective </title>
<polygon fill="#fb8072" stroke="#000000" points="276.2408,-252 157.7592,-252 157.7592,-216 276.2408,-216 276.2408,-252"/>
<text text-anchor="middle" x="217" y="-229.8" font-family="Times,serif" font-size="14.00" fill="#000000">PopoverDirective </text>
</g>
<!-- ComponentModule&#45;&gt;PopoverDirective  -->
<g id="edge9" class="edge">
<title>ComponentModule&#45;&gt;PopoverDirective </title>
<path fill="none" stroke="#000000" stroke-dasharray="5,2" d="M297.209,-180C252.8012,-180 201.1266,-180 201.1266,-180 201.1266,-180 201.1266,-205.7181 201.1266,-205.7181"/>
<polygon fill="#000000" stroke="#000000" points="197.6267,-205.718 201.1266,-215.7181 204.6267,-205.7181 197.6267,-205.718"/>
</g>
<!-- TableComponent  -->
<g id="node11" class="node">
<title>TableComponent </title>
<polygon fill="#fb8072" stroke="#000000" points="140.2052,-252 23.7948,-252 23.7948,-216 140.2052,-216 140.2052,-252"/>
<text text-anchor="middle" x="82" y="-229.8" font-family="Times,serif" font-size="14.00" fill="#000000">TableComponent </text>
</g>
<!-- ComponentModule&#45;&gt;TableComponent  -->
<g id="edge10" class="edge">
<title>ComponentModule&#45;&gt;TableComponent </title>
<path fill="none" stroke="#000000" stroke-dasharray="5,2" d="M297.4407,-173C211.7539,-173 68.3825,-173 68.3825,-173 68.3825,-173 68.3825,-205.698 68.3825,-205.698"/>
<polygon fill="#000000" stroke="#000000" points="64.8824,-205.698 68.3825,-215.698 71.8824,-205.698 64.8824,-205.698"/>
</g>
</g>
</svg>
