<?xml version="1.0" encoding="UTF-8" standalone="no"?>
<!DOCTYPE svg PUBLIC "-//W3C//DTD SVG 1.1//EN"
 "http://www.w3.org/Graphics/SVG/1.1/DTD/svg11.dtd">
<!-- Generated by graphviz version 2.40.1 (20161225.0304)
 -->
<!-- Title: dependencies Pages: 1 -->
<svg width="1461pt" height="284pt"
 viewBox="0.00 0.00 1461.00 284.00" xmlns="http://www.w3.org/2000/svg" xmlns:xlink="http://www.w3.org/1999/xlink">
<g id="graph0" class="graph" transform="scale(1 1) rotate(0) translate(4 280)">
<title>dependencies</title>
<polygon fill="#ffffff" stroke="transparent" points="-4,4 -4,-280 1457,-280 1457,4 -4,4"/>
<text text-anchor="start" x="705.5091" y="-42.4" font-family="sans-serif" font-weight="bold" font-size="14.00" fill="#000000">Legend</text>
<polygon fill="#ffffb3" stroke="transparent" points="492.5,-10 492.5,-30 512.5,-30 512.5,-10 492.5,-10"/>
<text text-anchor="start" x="516.129" y="-15.4" font-family="sans-serif" font-size="14.00" fill="#000000"> &#160;Declarations</text>
<polygon fill="#8dd3c7" stroke="transparent" points="605.5,-10 605.5,-30 625.5,-30 625.5,-10 605.5,-10"/>
<text text-anchor="start" x="629.2251" y="-15.4" font-family="sans-serif" font-size="14.00" fill="#000000"> &#160;Module</text>
<polygon fill="#80b1d3" stroke="transparent" points="691.5,-10 691.5,-30 711.5,-30 711.5,-10 691.5,-10"/>
<text text-anchor="start" x="715.2812" y="-15.4" font-family="sans-serif" font-size="14.00" fill="#000000"> &#160;Bootstrap</text>
<polygon fill="#fdb462" stroke="transparent" points="788.5,-10 788.5,-30 808.5,-30 808.5,-10 788.5,-10"/>
<text text-anchor="start" x="812.1732" y="-15.4" font-family="sans-serif" font-size="14.00" fill="#000000"> &#160;Providers</text>
<polygon fill="#fb8072" stroke="transparent" points="884.5,-10 884.5,-30 904.5,-30 904.5,-10 884.5,-10"/>
<text text-anchor="start" x="908.2258" y="-15.4" font-family="sans-serif" font-size="14.00" fill="#000000"> &#160;Exports</text>
<g id="clust1" class="cluster">
<title>cluster_ComponentModule</title>
<polygon fill="none" stroke="#000000" stroke-dasharray="1,5" points="8,-70 8,-268 1445,-268 1445,-70 8,-70"/>
</g>
<g id="clust2" class="cluster">
<title>cluster_ComponentModule_declarations</title>
<polygon fill="none" stroke="#000000" points="16,-78 16,-130 1437,-130 1437,-78 16,-78"/>
</g>
<g id="clust14" class="cluster">
<title>cluster_ComponentModule_exports</title>
<polygon fill="none" stroke="#000000" points="191,-208 191,-260 1215,-260 1215,-208 191,-208"/>
</g>
<!-- PaginationComponent -->
<g id="node1" class="node">
<title>PaginationComponent</title>
<polygon fill="#ffffb3" stroke="#000000" points="1428.7162,-122 1287.2838,-122 1287.2838,-86 1428.7162,-86 1428.7162,-122"/>
<text text-anchor="middle" x="1358" y="-99.8" font-family="Times,serif" font-size="14.00" fill="#000000">PaginationComponent</text>
</g>
<!-- ComponentModule -->
<g id="node11" class="node">
<title>ComponentModule</title>
<polygon fill="#8dd3c7" stroke="#000000" points="739.3823,-187 736.3823,-191 715.3823,-191 712.3823,-187 614.6177,-187 614.6177,-151 739.3823,-151 739.3823,-187"/>
<text text-anchor="middle" x="677" y="-164.8" font-family="Times,serif" font-size="14.00" fill="#000000">ComponentModule</text>
</g>
<!-- PaginationComponent&#45;&gt;ComponentModule -->
<g id="edge1" class="edge">
<title>PaginationComponent&#45;&gt;ComponentModule</title>
<path fill="none" stroke="#000000" d="M1358,-122.1061C1358,-141.3391 1358,-169 1358,-169 1358,-169 749.5426,-169 749.5426,-169"/>
<polygon fill="#000000" stroke="#000000" points="749.5426,-165.5001 739.5426,-169 749.5425,-172.5001 749.5426,-165.5001"/>
</g>
<!-- ComponentComponent -->
<g id="node2" class="node">
<title>ComponentComponent</title>
<polygon fill="#ffffb3" stroke="#000000" points="1269.1652,-122 1122.8348,-122 1122.8348,-86 1269.1652,-86 1269.1652,-122"/>
<text text-anchor="middle" x="1196" y="-99.8" font-family="Times,serif" font-size="14.00" fill="#000000">ComponentComponent</text>
</g>
<!-- ComponentComponent&#45;&gt;ComponentModule -->
<g id="edge2" class="edge">
<title>ComponentComponent&#45;&gt;ComponentModule</title>
<path fill="none" stroke="#000000" d="M1165.0128,-122.302C1165.0128,-140.2699 1165.0128,-165 1165.0128,-165 1165.0128,-165 749.8001,-165 749.8001,-165"/>
<polygon fill="#000000" stroke="#000000" points="749.8001,-161.5001 739.8001,-165 749.8,-168.5001 749.8001,-161.5001"/>
</g>
<!-- AmapComponent -->
<g id="node3" class="node">
<title>AmapComponent</title>
<polygon fill="#ffffb3" stroke="#000000" points="1104.5451,-122 989.4549,-122 989.4549,-86 1104.5451,-86 1104.5451,-122"/>
<text text-anchor="middle" x="1047" y="-99.8" font-family="Times,serif" font-size="14.00" fill="#000000">AmapComponent</text>
</g>
<!-- AmapComponent&#45;&gt;ComponentModule -->
<g id="edge3" class="edge">
<title>AmapComponent&#45;&gt;ComponentModule</title>
<path fill="none" stroke="#000000" d="M1016.875,-122.027C1016.875,-138.3976 1016.875,-160 1016.875,-160 1016.875,-160 749.7344,-160 749.7344,-160"/>
<polygon fill="#000000" stroke="#000000" points="749.7344,-156.5001 739.7344,-160 749.7344,-163.5001 749.7344,-156.5001"/>
</g>
<!-- MarkdownComponent -->
<g id="node4" class="node">
<title>MarkdownComponent</title>
<polygon fill="#ffffb3" stroke="#000000" points="971.259,-122 828.741,-122 828.741,-86 971.259,-86 971.259,-122"/>
<text text-anchor="middle" x="900" y="-99.8" font-family="Times,serif" font-size="14.00" fill="#000000">MarkdownComponent</text>
</g>
<!-- MarkdownComponent&#45;&gt;ComponentModule -->
<g id="edge4" class="edge">
<title>MarkdownComponent&#45;&gt;ComponentModule</title>
<path fill="none" stroke="#000000" d="M867.875,-122.1871C867.875,-137.1824 867.875,-156 867.875,-156 867.875,-156 749.4996,-156 749.4996,-156"/>
<polygon fill="#000000" stroke="#000000" points="749.4996,-152.5001 739.4996,-156 749.4996,-159.5001 749.4996,-152.5001"/>
</g>
<!-- PopoverComponent -->
<g id="node5" class="node">
<title>PopoverComponent</title>
<polygon fill="#ffffb3" stroke="#000000" points="810.9902,-122 683.0098,-122 683.0098,-86 810.9902,-86 810.9902,-122"/>
<text text-anchor="middle" x="747" y="-99.8" font-family="Times,serif" font-size="14.00" fill="#000000">PopoverComponent</text>
</g>
<!-- PopoverComponent&#45;&gt;ComponentModule -->
<g id="edge5" class="edge">
<title>PopoverComponent&#45;&gt;ComponentModule</title>
<path fill="none" stroke="#000000" d="M711.223,-122.1061C711.223,-122.1061 711.223,-140.991 711.223,-140.991"/>
<polygon fill="#000000" stroke="#000000" points="707.7231,-140.9909 711.223,-150.991 714.7231,-140.991 707.7231,-140.9909"/>
</g>
<!-- PopoverDirective -->
<g id="node6" class="node">
<title>PopoverDirective</title>
<polygon fill="#ffffb3" stroke="#000000" points="665.2409,-122 550.7591,-122 550.7591,-86 665.2409,-86 665.2409,-122"/>
<text text-anchor="middle" x="608" y="-99.8" font-family="Times,serif" font-size="14.00" fill="#000000">PopoverDirective</text>
</g>
<!-- PopoverDirective&#45;&gt;ComponentModule -->
<g id="edge6" class="edge">
<title>PopoverDirective&#45;&gt;ComponentModule</title>
<path fill="none" stroke="#000000" d="M639.9646,-122.1061C639.9646,-122.1061 639.9646,-140.991 639.9646,-140.991"/>
<polygon fill="#000000" stroke="#000000" points="636.4647,-140.9909 639.9646,-150.991 643.4647,-140.991 636.4647,-140.9909"/>
</g>
<!-- SearchComponent -->
<g id="node7" class="node">
<title>SearchComponent</title>
<polygon fill="#ffffb3" stroke="#000000" points="532.9201,-122 413.0799,-122 413.0799,-86 532.9201,-86 532.9201,-122"/>
<text text-anchor="middle" x="473" y="-99.8" font-family="Times,serif" font-size="14.00" fill="#000000">SearchComponent</text>
</g>
<!-- SearchComponent&#45;&gt;ComponentModule -->
<g id="edge7" class="edge">
<title>SearchComponent&#45;&gt;ComponentModule</title>
<path fill="none" stroke="#000000" d="M503.7947,-122.1871C503.7947,-137.1824 503.7947,-156 503.7947,-156 503.7947,-156 604.4689,-156 604.4689,-156"/>
<polygon fill="#000000" stroke="#000000" points="604.4689,-159.5001 614.4689,-156 604.4689,-152.5001 604.4689,-159.5001"/>
</g>
<!-- TableComponent -->
<g id="node8" class="node">
<title>TableComponent</title>
<polygon fill="#ffffb3" stroke="#000000" points="395.705,-122 282.295,-122 282.295,-86 395.705,-86 395.705,-122"/>
<text text-anchor="middle" x="339" y="-99.8" font-family="Times,serif" font-size="14.00" fill="#000000">TableComponent</text>
</g>
<!-- TableComponent&#45;&gt;ComponentModule -->
<g id="edge8" class="edge">
<title>TableComponent&#45;&gt;ComponentModule</title>
<path fill="none" stroke="#000000" d="M364.5714,-122.027C364.5714,-138.3976 364.5714,-160 364.5714,-160 364.5714,-160 604.5263,-160 604.5263,-160"/>
<polygon fill="#000000" stroke="#000000" points="604.5263,-163.5001 614.5263,-160 604.5263,-156.5001 604.5263,-163.5001"/>
</g>
<!-- HeadComponent -->
<g id="node9" class="node">
<title>HeadComponent</title>
<polygon fill="#ffffb3" stroke="#000000" points="264.3683,-122 153.6317,-122 153.6317,-86 264.3683,-86 264.3683,-122"/>
<text text-anchor="middle" x="209" y="-99.8" font-family="Times,serif" font-size="14.00" fill="#000000">HeadComponent</text>
</g>
<!-- HeadComponent&#45;&gt;ComponentModule -->
<g id="edge9" class="edge">
<title>HeadComponent&#45;&gt;ComponentModule</title>
<path fill="none" stroke="#000000" d="M231.5409,-122.302C231.5409,-140.2699 231.5409,-165 231.5409,-165 231.5409,-165 604.5918,-165 604.5918,-165"/>
<polygon fill="#000000" stroke="#000000" points="604.5918,-168.5001 614.5918,-165 604.5917,-161.5001 604.5918,-168.5001"/>
</g>
<!-- BodyComponent -->
<g id="node10" class="node">
<title>BodyComponent</title>
<polygon fill="#ffffb3" stroke="#000000" points="135.6695,-122 24.3305,-122 24.3305,-86 135.6695,-86 135.6695,-122"/>
<text text-anchor="middle" x="80" y="-99.8" font-family="Times,serif" font-size="14.00" fill="#000000">BodyComponent</text>
</g>
<!-- BodyComponent&#45;&gt;ComponentModule -->
<g id="edge10" class="edge">
<title>BodyComponent&#45;&gt;ComponentModule</title>
<path fill="none" stroke="#000000" d="M80,-122.1061C80,-141.3391 80,-169 80,-169 80,-169 604.5197,-169 604.5197,-169"/>
<polygon fill="#000000" stroke="#000000" points="604.5198,-172.5001 614.5197,-169 604.5197,-165.5001 604.5198,-172.5001"/>
</g>
<!-- PaginationComponent  -->
<g id="node12" class="node">
<title>PaginationComponent </title>
<polygon fill="#fb8072" stroke="#000000" points="1207.2163,-252 1062.7837,-252 1062.7837,-216 1207.2163,-216 1207.2163,-252"/>
<text text-anchor="middle" x="1135" y="-229.8" font-family="Times,serif" font-size="14.00" fill="#000000">PaginationComponent </text>
</g>
<!-- ComponentModule&#45;&gt;PaginationComponent  -->
<g id="edge11" class="edge">
<title>ComponentModule&#45;&gt;PaginationComponent </title>
<path fill="none" stroke="#000000" stroke-dasharray="5,2" d="M739.6567,-174C853.7413,-174 1083.7071,-174 1083.7071,-174 1083.7071,-174 1083.7071,-205.998 1083.7071,-205.998"/>
<polygon fill="#000000" stroke="#000000" points="1080.2071,-205.998 1083.7071,-215.998 1087.2071,-205.9981 1080.2071,-205.998"/>
</g>
<!-- AmapComponent  -->
<g id="node13" class="node">
<title>AmapComponent </title>
<polygon fill="#fb8072" stroke="#000000" points="1044.5442,-252 925.4558,-252 925.4558,-216 1044.5442,-216 1044.5442,-252"/>
<text text-anchor="middle" x="985" y="-229.8" font-family="Times,serif" font-size="14.00" fill="#000000">AmapComponent </text>
</g>
<!-- ComponentModule&#45;&gt;AmapComponent  -->
<g id="edge12" class="edge">
<title>ComponentModule&#45;&gt;AmapComponent </title>
<path fill="none" stroke="#000000" stroke-dasharray="5,2" d="M739.612,-178C819.7715,-178 948.4287,-178 948.4287,-178 948.4287,-178 948.4287,-205.973 948.4287,-205.973"/>
<polygon fill="#000000" stroke="#000000" points="944.9287,-205.973 948.4287,-215.973 951.9287,-205.973 944.9287,-205.973"/>
</g>
<!-- MarkdownComponent  -->
<g id="node14" class="node">
<title>MarkdownComponent </title>
<polygon fill="#fb8072" stroke="#000000" points="907.259,-252 760.741,-252 760.741,-216 907.259,-216 907.259,-252"/>
<text text-anchor="middle" x="834" y="-229.8" font-family="Times,serif" font-size="14.00" fill="#000000">MarkdownComponent </text>
</g>
<!-- ComponentModule&#45;&gt;MarkdownComponent  -->
<g id="edge13" class="edge">
<title>ComponentModule&#45;&gt;MarkdownComponent </title>
<path fill="none" stroke="#000000" stroke-dasharray="5,2" d="M739.4195,-183C763.7589,-183 785.9328,-183 785.9328,-183 785.9328,-183 785.9328,-205.8757 785.9328,-205.8757"/>
<polygon fill="#000000" stroke="#000000" points="782.4329,-205.8757 785.9328,-215.8757 789.4329,-205.8757 782.4329,-205.8757"/>
</g>
<!-- PopoverComponent  -->
<g id="node15" class="node">
<title>PopoverComponent </title>
<polygon fill="#fb8072" stroke="#000000" points="742.9911,-252 611.0089,-252 611.0089,-216 742.9911,-216 742.9911,-252"/>
<text text-anchor="middle" x="677" y="-229.8" font-family="Times,serif" font-size="14.00" fill="#000000">PopoverComponent </text>
</g>
<!-- ComponentModule&#45;&gt;PopoverComponent  -->
<g id="edge14" class="edge">
<title>ComponentModule&#45;&gt;PopoverComponent </title>
<path fill="none" stroke="#000000" stroke-dasharray="5,2" d="M677,-187.1061C677,-187.1061 677,-205.991 677,-205.991"/>
<polygon fill="#000000" stroke="#000000" points="673.5001,-205.9909 677,-215.991 680.5001,-205.991 673.5001,-205.9909"/>
</g>
<!-- PopoverDirective  -->
<g id="node16" class="node">
<title>PopoverDirective </title>
<polygon fill="#fb8072" stroke="#000000" points="593.2408,-252 474.7592,-252 474.7592,-216 593.2408,-216 593.2408,-252"/>
<text text-anchor="middle" x="534" y="-229.8" font-family="Times,serif" font-size="14.00" fill="#000000">PopoverDirective </text>
</g>
<!-- ComponentModule&#45;&gt;PopoverDirective  -->
<g id="edge15" class="edge">
<title>ComponentModule&#45;&gt;PopoverDirective </title>
<path fill="none" stroke="#000000" stroke-dasharray="5,2" d="M614.3303,-183C591.8173,-183 571.875,-183 571.875,-183 571.875,-183 571.875,-205.8757 571.875,-205.8757"/>
<polygon fill="#000000" stroke="#000000" points="568.3751,-205.8757 571.875,-215.8757 575.3751,-205.8757 568.3751,-205.8757"/>
</g>
<!-- SearchComponent  -->
<g id="node17" class="node">
<title>SearchComponent </title>
<polygon fill="#fb8072" stroke="#000000" points="456.4194,-252 333.5806,-252 333.5806,-216 456.4194,-216 456.4194,-252"/>
<text text-anchor="middle" x="395" y="-229.8" font-family="Times,serif" font-size="14.00" fill="#000000">SearchComponent </text>
</g>
<!-- ComponentModule&#45;&gt;SearchComponent  -->
<g id="edge16" class="edge">
<title>ComponentModule&#45;&gt;SearchComponent </title>
<path fill="none" stroke="#000000" stroke-dasharray="5,2" d="M614.3319,-178C542.5912,-178 434.875,-178 434.875,-178 434.875,-178 434.875,-205.973 434.875,-205.973"/>
<polygon fill="#000000" stroke="#000000" points="431.3751,-205.973 434.875,-215.973 438.3751,-205.973 431.3751,-205.973"/>
</g>
<!-- TableComponent  -->
<g id="node18" class="node">
<title>TableComponent </title>
<polygon fill="#fb8072" stroke="#000000" points="315.2052,-252 198.7948,-252 198.7948,-216 315.2052,-216 315.2052,-252"/>
<text text-anchor="middle" x="257" y="-229.8" font-family="Times,serif" font-size="14.00" fill="#000000">TableComponent </text>
</g>
<!-- ComponentModule&#45;&gt;TableComponent  -->
<g id="edge17" class="edge">
<title>ComponentModule&#45;&gt;TableComponent </title>
<path fill="none" stroke="#000000" stroke-dasharray="5,2" d="M614.5603,-174C507.1622,-174 298.875,-174 298.875,-174 298.875,-174 298.875,-205.998 298.875,-205.998"/>
<polygon fill="#000000" stroke="#000000" points="295.3751,-205.998 298.875,-215.998 302.3751,-205.9981 295.3751,-205.998"/>
</g>
</g>
</svg>
