<?xml version="1.0" encoding="UTF-8" standalone="no"?>
<!DOCTYPE svg PUBLIC "-//W3C//DTD SVG 1.1//EN"
 "http://www.w3.org/Graphics/SVG/1.1/DTD/svg11.dtd">
<!-- Generated by graphviz version 2.40.1 (20161225.0304)
 -->
<!-- Title: dependencies Pages: 1 -->
<svg width="620pt" height="284pt"
 viewBox="0.00 0.00 620.00 284.00" xmlns="http://www.w3.org/2000/svg" xmlns:xlink="http://www.w3.org/1999/xlink">
<g id="graph0" class="graph" transform="scale(1 1) rotate(0) translate(4 280)">
<title>dependencies</title>
<polygon fill="#ffffff" stroke="transparent" points="-4,4 -4,-280 616,-280 616,4 -4,4"/>
<text text-anchor="start" x="285.0091" y="-42.4" font-family="sans-serif" font-weight="bold" font-size="14.00" fill="#000000">Legend</text>
<polygon fill="#ffffb3" stroke="transparent" points="72,-10 72,-30 92,-30 92,-10 72,-10"/>
<text text-anchor="start" x="95.629" y="-15.4" font-family="sans-serif" font-size="14.00" fill="#000000"> &#160;Declarations</text>
<polygon fill="#8dd3c7" stroke="transparent" points="185,-10 185,-30 205,-30 205,-10 185,-10"/>
<text text-anchor="start" x="208.7251" y="-15.4" font-family="sans-serif" font-size="14.00" fill="#000000"> &#160;Module</text>
<polygon fill="#80b1d3" stroke="transparent" points="271,-10 271,-30 291,-30 291,-10 271,-10"/>
<text text-anchor="start" x="294.7812" y="-15.4" font-family="sans-serif" font-size="14.00" fill="#000000"> &#160;Bootstrap</text>
<polygon fill="#fdb462" stroke="transparent" points="368,-10 368,-30 388,-30 388,-10 368,-10"/>
<text text-anchor="start" x="391.6732" y="-15.4" font-family="sans-serif" font-size="14.00" fill="#000000"> &#160;Providers</text>
<polygon fill="#fb8072" stroke="transparent" points="464,-10 464,-30 484,-30 484,-10 464,-10"/>
<text text-anchor="start" x="487.7258" y="-15.4" font-family="sans-serif" font-size="14.00" fill="#000000"> &#160;Exports</text>
<g id="clust1" class="cluster">
<title>cluster_ComponentModule</title>
<polygon fill="none" stroke="#000000" stroke-dasharray="1,5" points="8,-70 8,-268 604,-268 604,-70 8,-70"/>
</g>
<g id="clust2" class="cluster">
<title>cluster_ComponentModule_declarations</title>
<polygon fill="none" stroke="#000000" points="23,-78 23,-130 591,-130 591,-78 23,-78"/>
</g>
<g id="clust8" class="cluster">
<title>cluster_ComponentModule_exports</title>
<polygon fill="none" stroke="#000000" points="16,-208 16,-260 596,-260 596,-208 16,-208"/>
</g>
<!-- PaginationComponent -->
<g id="node1" class="node">
<title>PaginationComponent</title>
<polygon fill="#ffffb3" stroke="#000000" points="582.7162,-122 441.2838,-122 441.2838,-86 582.7162,-86 582.7162,-122"/>
<text text-anchor="middle" x="512" y="-99.8" font-family="Times,serif" font-size="14.00" fill="#000000">PaginationComponent</text>
</g>
<!-- ComponentModule -->
<g id="node5" class="node">
<title>ComponentModule</title>
<polygon fill="#8dd3c7" stroke="#000000" points="284.3823,-187 281.3823,-191 260.3823,-191 257.3823,-187 159.6177,-187 159.6177,-151 284.3823,-151 284.3823,-187"/>
<text text-anchor="middle" x="222" y="-164.8" font-family="Times,serif" font-size="14.00" fill="#000000">ComponentModule</text>
</g>
<!-- PaginationComponent&#45;&gt;ComponentModule -->
<g id="edge1" class="edge">
<title>PaginationComponent&#45;&gt;ComponentModule</title>
<path fill="none" stroke="#000000" d="M536.286,-122.0225C536.286,-139.3734 536.286,-163 536.286,-163 536.286,-163 294.4686,-163 294.4686,-163"/>
<polygon fill="#000000" stroke="#000000" points="294.4686,-159.5001 284.4686,-163 294.4685,-166.5001 294.4686,-159.5001"/>
</g>
<!-- PopoverComponent -->
<g id="node2" class="node">
<title>PopoverComponent</title>
<polygon fill="#ffffb3" stroke="#000000" points="422.9902,-122 295.0098,-122 295.0098,-86 422.9902,-86 422.9902,-122"/>
<text text-anchor="middle" x="359" y="-99.8" font-family="Times,serif" font-size="14.00" fill="#000000">PopoverComponent</text>
</g>
<!-- PopoverComponent&#45;&gt;ComponentModule -->
<g id="edge2" class="edge">
<title>PopoverComponent&#45;&gt;ComponentModule</title>
<path fill="none" stroke="#000000" d="M294.8674,-104C286.579,-104 280.9057,-104 280.9057,-104 280.9057,-104 280.9057,-140.8939 280.9057,-140.8939"/>
<polygon fill="#000000" stroke="#000000" points="277.4058,-140.8938 280.9057,-150.8939 284.4058,-140.8939 277.4058,-140.8938"/>
</g>
<!-- PopoverDirective -->
<g id="node3" class="node">
<title>PopoverDirective</title>
<polygon fill="#ffffb3" stroke="#000000" points="277.2409,-122 162.7591,-122 162.7591,-86 277.2409,-86 277.2409,-122"/>
<text text-anchor="middle" x="220" y="-99.8" font-family="Times,serif" font-size="14.00" fill="#000000">PopoverDirective</text>
</g>
<!-- PopoverDirective&#45;&gt;ComponentModule -->
<g id="edge3" class="edge">
<title>PopoverDirective&#45;&gt;ComponentModule</title>
<path fill="none" stroke="#000000" d="M220,-122.1061C220,-122.1061 220,-140.991 220,-140.991"/>
<polygon fill="#000000" stroke="#000000" points="216.5001,-140.9909 220,-150.991 223.5001,-140.991 216.5001,-140.9909"/>
</g>
<!-- TableComponent -->
<g id="node4" class="node">
<title>TableComponent</title>
<polygon fill="#ffffb3" stroke="#000000" points="144.705,-122 31.295,-122 31.295,-86 144.705,-86 144.705,-122"/>
<text text-anchor="middle" x="88" y="-99.8" font-family="Times,serif" font-size="14.00" fill="#000000">TableComponent</text>
</g>
<!-- TableComponent&#45;&gt;ComponentModule -->
<g id="edge4" class="edge">
<title>TableComponent&#45;&gt;ComponentModule</title>
<path fill="none" stroke="#000000" d="M104.0341,-122.0225C104.0341,-139.3734 104.0341,-163 104.0341,-163 104.0341,-163 149.5628,-163 149.5628,-163"/>
<polygon fill="#000000" stroke="#000000" points="149.5628,-166.5001 159.5628,-163 149.5628,-159.5001 149.5628,-166.5001"/>
</g>
<!-- PaginationComponent  -->
<g id="node6" class="node">
<title>PaginationComponent </title>
<polygon fill="#fb8072" stroke="#000000" points="588.2163,-252 443.7837,-252 443.7837,-216 588.2163,-216 588.2163,-252"/>
<text text-anchor="middle" x="516" y="-229.8" font-family="Times,serif" font-size="14.00" fill="#000000">PaginationComponent </text>
</g>
<!-- ComponentModule&#45;&gt;PaginationComponent  -->
<g id="edge5" class="edge">
<title>ComponentModule&#45;&gt;PaginationComponent </title>
<path fill="none" stroke="#000000" stroke-dasharray="5,2" d="M284.4875,-175C363.6687,-175 489.964,-175 489.964,-175 489.964,-175 489.964,-205.9775 489.964,-205.9775"/>
<polygon fill="#000000" stroke="#000000" points="486.4641,-205.9774 489.964,-215.9775 493.4641,-205.9775 486.4641,-205.9774"/>
</g>
<!-- PopoverComponent  -->
<g id="node7" class="node">
<title>PopoverComponent </title>
<polygon fill="#fb8072" stroke="#000000" points="425.9911,-252 294.0089,-252 294.0089,-216 425.9911,-216 425.9911,-252"/>
<text text-anchor="middle" x="360" y="-229.8" font-family="Times,serif" font-size="14.00" fill="#000000">PopoverComponent </text>
</g>
<!-- ComponentModule&#45;&gt;PopoverComponent  -->
<g id="edge6" class="edge">
<title>ComponentModule&#45;&gt;PopoverComponent </title>
<path fill="none" stroke="#000000" stroke-dasharray="5,2" d="M280.2807,-187.1061C280.2807,-206.3391 280.2807,-234 280.2807,-234 280.2807,-234 284.1667,-234 284.1667,-234"/>
<polygon fill="#000000" stroke="#000000" points="284.1668,-237.5001 294.1667,-234 284.1667,-230.5001 284.1668,-237.5001"/>
</g>
<!-- PopoverDirective  -->
<g id="node8" class="node">
<title>PopoverDirective </title>
<polygon fill="#fb8072" stroke="#000000" points="276.2408,-252 157.7592,-252 157.7592,-216 276.2408,-216 276.2408,-252"/>
<text text-anchor="middle" x="217" y="-229.8" font-family="Times,serif" font-size="14.00" fill="#000000">PopoverDirective </text>
</g>
<!-- ComponentModule&#45;&gt;PopoverDirective  -->
<g id="edge7" class="edge">
<title>ComponentModule&#45;&gt;PopoverDirective </title>
<path fill="none" stroke="#000000" stroke-dasharray="5,2" d="M217.8396,-187.1061C217.8396,-187.1061 217.8396,-205.991 217.8396,-205.991"/>
<polygon fill="#000000" stroke="#000000" points="214.3397,-205.9909 217.8396,-215.991 221.3397,-205.991 214.3397,-205.9909"/>
</g>
<!-- TableComponent  -->
<g id="node9" class="node">
<title>TableComponent </title>
<polygon fill="#fb8072" stroke="#000000" points="140.2052,-252 23.7948,-252 23.7948,-216 140.2052,-216 140.2052,-252"/>
<text text-anchor="middle" x="82" y="-229.8" font-family="Times,serif" font-size="14.00" fill="#000000">TableComponent </text>
</g>
<!-- ComponentModule&#45;&gt;TableComponent  -->
<g id="edge8" class="edge">
<title>ComponentModule&#45;&gt;TableComponent </title>
<path fill="none" stroke="#000000" stroke-dasharray="5,2" d="M159.2467,-175C116.5323,-175 67.7159,-175 67.7159,-175 67.7159,-175 67.7159,-205.9775 67.7159,-205.9775"/>
<polygon fill="#000000" stroke="#000000" points="64.216,-205.9774 67.7159,-215.9775 71.216,-205.9775 64.216,-205.9774"/>
</g>
</g>
</svg>
