<?xml version="1.0" encoding="UTF-8" standalone="no"?>
<!DOCTYPE svg PUBLIC "-//W3C//DTD SVG 1.1//EN"
 "http://www.w3.org/Graphics/SVG/1.1/DTD/svg11.dtd">
<!-- Generated by graphviz version 2.40.1 (20161225.0304)
 -->
<!-- Title: dependencies Pages: 1 -->
<svg width="1070pt" height="284pt"
 viewBox="0.00 0.00 1070.00 284.00" xmlns="http://www.w3.org/2000/svg" xmlns:xlink="http://www.w3.org/1999/xlink">
<g id="graph0" class="graph" transform="scale(1 1) rotate(0) translate(4 280)">
<title>dependencies</title>
<polygon fill="#ffffff" stroke="transparent" points="-4,4 -4,-280 1066,-280 1066,4 -4,4"/>
<text text-anchor="start" x="510.0091" y="-42.4" font-family="sans-serif" font-weight="bold" font-size="14.00" fill="#000000">Legend</text>
<polygon fill="#ffffb3" stroke="transparent" points="297,-10 297,-30 317,-30 317,-10 297,-10"/>
<text text-anchor="start" x="320.629" y="-15.4" font-family="sans-serif" font-size="14.00" fill="#000000"> &#160;Declarations</text>
<polygon fill="#8dd3c7" stroke="transparent" points="410,-10 410,-30 430,-30 430,-10 410,-10"/>
<text text-anchor="start" x="433.7251" y="-15.4" font-family="sans-serif" font-size="14.00" fill="#000000"> &#160;Module</text>
<polygon fill="#80b1d3" stroke="transparent" points="496,-10 496,-30 516,-30 516,-10 496,-10"/>
<text text-anchor="start" x="519.7812" y="-15.4" font-family="sans-serif" font-size="14.00" fill="#000000"> &#160;Bootstrap</text>
<polygon fill="#fdb462" stroke="transparent" points="593,-10 593,-30 613,-30 613,-10 593,-10"/>
<text text-anchor="start" x="616.6732" y="-15.4" font-family="sans-serif" font-size="14.00" fill="#000000"> &#160;Providers</text>
<polygon fill="#fb8072" stroke="transparent" points="689,-10 689,-30 709,-30 709,-10 689,-10"/>
<text text-anchor="start" x="712.7258" y="-15.4" font-family="sans-serif" font-size="14.00" fill="#000000"> &#160;Exports</text>
<g id="clust1" class="cluster">
<title>cluster_ComponentModule</title>
<polygon fill="none" stroke="#000000" stroke-dasharray="1,5" points="8,-70 8,-268 1054,-268 1054,-70 8,-70"/>
</g>
<g id="clust2" class="cluster">
<title>cluster_ComponentModule_declarations</title>
<polygon fill="none" stroke="#000000" points="16,-78 16,-130 1046,-130 1046,-78 16,-78"/>
</g>
<g id="clust11" class="cluster">
<title>cluster_ComponentModule_exports</title>
<polygon fill="none" stroke="#000000" points="81,-208 81,-260 967,-260 967,-208 81,-208"/>
</g>
<!-- PaginationComponent -->
<g id="node1" class="node">
<title>PaginationComponent</title>
<polygon fill="#ffffb3" stroke="#000000" points="1037.7162,-122 896.2838,-122 896.2838,-86 1037.7162,-86 1037.7162,-122"/>
<text text-anchor="middle" x="967" y="-99.8" font-family="Times,serif" font-size="14.00" fill="#000000">PaginationComponent</text>
</g>
<!-- ComponentModule -->
<g id="node8" class="node">
<title>ComponentModule</title>
<polygon fill="#8dd3c7" stroke="#000000" points="551.3823,-187 548.3823,-191 527.3823,-191 524.3823,-187 426.6177,-187 426.6177,-151 551.3823,-151 551.3823,-187"/>
<text text-anchor="middle" x="489" y="-164.8" font-family="Times,serif" font-size="14.00" fill="#000000">ComponentModule</text>
</g>
<!-- PaginationComponent&#45;&gt;ComponentModule -->
<g id="edge1" class="edge">
<title>PaginationComponent&#45;&gt;ComponentModule</title>
<path fill="none" stroke="#000000" d="M927.875,-122.1061C927.875,-141.3391 927.875,-169 927.875,-169 927.875,-169 561.414,-169 561.414,-169"/>
<polygon fill="#000000" stroke="#000000" points="561.414,-165.5001 551.414,-169 561.414,-172.5001 561.414,-165.5001"/>
</g>
<!-- ComponentComponent -->
<g id="node2" class="node">
<title>ComponentComponent</title>
<polygon fill="#ffffb3" stroke="#000000" points="878.1652,-122 731.8348,-122 731.8348,-86 878.1652,-86 878.1652,-122"/>
<text text-anchor="middle" x="805" y="-99.8" font-family="Times,serif" font-size="14.00" fill="#000000">ComponentComponent</text>
</g>
<!-- ComponentComponent&#45;&gt;ComponentModule -->
<g id="edge2" class="edge">
<title>ComponentComponent&#45;&gt;ComponentModule</title>
<path fill="none" stroke="#000000" d="M764.3985,-122.0225C764.3985,-139.3734 764.3985,-163 764.3985,-163 764.3985,-163 561.4922,-163 561.4922,-163"/>
<polygon fill="#000000" stroke="#000000" points="561.4922,-159.5001 551.4922,-163 561.4921,-166.5001 561.4922,-159.5001"/>
</g>
<!-- MarkdownComponent -->
<g id="node3" class="node">
<title>MarkdownComponent</title>
<polygon fill="#ffffb3" stroke="#000000" points="713.259,-122 570.741,-122 570.741,-86 713.259,-86 713.259,-122"/>
<text text-anchor="middle" x="642" y="-99.8" font-family="Times,serif" font-size="14.00" fill="#000000">MarkdownComponent</text>
</g>
<!-- MarkdownComponent&#45;&gt;ComponentModule -->
<g id="edge3" class="edge">
<title>MarkdownComponent&#45;&gt;ComponentModule</title>
<path fill="none" stroke="#000000" d="M601.6828,-122.2396C601.6828,-137.5706 601.6828,-157 601.6828,-157 601.6828,-157 561.6023,-157 561.6023,-157"/>
<polygon fill="#000000" stroke="#000000" points="561.6023,-153.5001 551.6023,-157 561.6023,-160.5001 561.6023,-153.5001"/>
</g>
<!-- PopoverComponent -->
<g id="node4" class="node">
<title>PopoverComponent</title>
<polygon fill="#ffffb3" stroke="#000000" points="552.9902,-122 425.0098,-122 425.0098,-86 552.9902,-86 552.9902,-122"/>
<text text-anchor="middle" x="489" y="-99.8" font-family="Times,serif" font-size="14.00" fill="#000000">PopoverComponent</text>
</g>
<!-- PopoverComponent&#45;&gt;ComponentModule -->
<g id="edge4" class="edge">
<title>PopoverComponent&#45;&gt;ComponentModule</title>
<path fill="none" stroke="#000000" d="M489,-122.1061C489,-122.1061 489,-140.991 489,-140.991"/>
<polygon fill="#000000" stroke="#000000" points="485.5001,-140.9909 489,-150.991 492.5001,-140.991 485.5001,-140.9909"/>
</g>
<!-- PopoverDirective -->
<g id="node5" class="node">
<title>PopoverDirective</title>
<polygon fill="#ffffb3" stroke="#000000" points="407.2409,-122 292.7591,-122 292.7591,-86 407.2409,-86 407.2409,-122"/>
<text text-anchor="middle" x="350" y="-99.8" font-family="Times,serif" font-size="14.00" fill="#000000">PopoverDirective</text>
</g>
<!-- PopoverDirective&#45;&gt;ComponentModule -->
<g id="edge5" class="edge">
<title>PopoverDirective&#45;&gt;ComponentModule</title>
<path fill="none" stroke="#000000" d="M386.125,-122.2396C386.125,-137.5706 386.125,-157 386.125,-157 386.125,-157 416.4887,-157 416.4887,-157"/>
<polygon fill="#000000" stroke="#000000" points="416.4887,-160.5001 426.4887,-157 416.4886,-153.5001 416.4887,-160.5001"/>
</g>
<!-- SearchComponent -->
<g id="node6" class="node">
<title>SearchComponent</title>
<polygon fill="#ffffb3" stroke="#000000" points="274.9201,-122 155.0799,-122 155.0799,-86 274.9201,-86 274.9201,-122"/>
<text text-anchor="middle" x="215" y="-99.8" font-family="Times,serif" font-size="14.00" fill="#000000">SearchComponent</text>
</g>
<!-- SearchComponent&#45;&gt;ComponentModule -->
<g id="edge6" class="edge">
<title>SearchComponent&#45;&gt;ComponentModule</title>
<path fill="none" stroke="#000000" d="M249.125,-122.0225C249.125,-139.3734 249.125,-163 249.125,-163 249.125,-163 416.6019,-163 416.6019,-163"/>
<polygon fill="#000000" stroke="#000000" points="416.6019,-166.5001 426.6019,-163 416.6018,-159.5001 416.6019,-166.5001"/>
</g>
<!-- TableComponent -->
<g id="node7" class="node">
<title>TableComponent</title>
<polygon fill="#ffffb3" stroke="#000000" points="137.705,-122 24.295,-122 24.295,-86 137.705,-86 137.705,-122"/>
<text text-anchor="middle" x="81" y="-99.8" font-family="Times,serif" font-size="14.00" fill="#000000">TableComponent</text>
</g>
<!-- TableComponent&#45;&gt;ComponentModule -->
<g id="edge7" class="edge">
<title>TableComponent&#45;&gt;ComponentModule</title>
<path fill="none" stroke="#000000" d="M113.125,-122.1061C113.125,-141.3391 113.125,-169 113.125,-169 113.125,-169 416.51,-169 416.51,-169"/>
<polygon fill="#000000" stroke="#000000" points="416.51,-172.5001 426.51,-169 416.5099,-165.5001 416.51,-172.5001"/>
</g>
<!-- PaginationComponent  -->
<g id="node9" class="node">
<title>PaginationComponent </title>
<polygon fill="#fb8072" stroke="#000000" points="959.2163,-252 814.7837,-252 814.7837,-216 959.2163,-216 959.2163,-252"/>
<text text-anchor="middle" x="887" y="-229.8" font-family="Times,serif" font-size="14.00" fill="#000000">PaginationComponent </text>
</g>
<!-- ComponentModule&#45;&gt;PaginationComponent  -->
<g id="edge8" class="edge">
<title>ComponentModule&#45;&gt;PaginationComponent </title>
<path fill="none" stroke="#000000" stroke-dasharray="5,2" d="M551.6786,-175C654.2044,-175 846.4872,-175 846.4872,-175 846.4872,-175 846.4872,-205.9775 846.4872,-205.9775"/>
<polygon fill="#000000" stroke="#000000" points="842.9873,-205.9774 846.4872,-215.9775 849.9873,-205.9775 842.9873,-205.9774"/>
</g>
<!-- MarkdownComponent  -->
<g id="node10" class="node">
<title>MarkdownComponent </title>
<polygon fill="#fb8072" stroke="#000000" points="797.259,-252 650.741,-252 650.741,-216 797.259,-216 797.259,-252"/>
<text text-anchor="middle" x="724" y="-229.8" font-family="Times,serif" font-size="14.00" fill="#000000">MarkdownComponent </text>
</g>
<!-- ComponentModule&#45;&gt;MarkdownComponent  -->
<g id="edge9" class="edge">
<title>ComponentModule&#45;&gt;MarkdownComponent </title>
<path fill="none" stroke="#000000" stroke-dasharray="5,2" d="M551.4354,-181C607.8597,-181 682.125,-181 682.125,-181 682.125,-181 682.125,-205.7604 682.125,-205.7604"/>
<polygon fill="#000000" stroke="#000000" points="678.6251,-205.7604 682.125,-215.7604 685.6251,-205.7604 678.6251,-205.7604"/>
</g>
<!-- PopoverComponent  -->
<g id="node11" class="node">
<title>PopoverComponent </title>
<polygon fill="#fb8072" stroke="#000000" points="632.9911,-252 501.0089,-252 501.0089,-216 632.9911,-216 632.9911,-252"/>
<text text-anchor="middle" x="567" y="-229.8" font-family="Times,serif" font-size="14.00" fill="#000000">PopoverComponent </text>
</g>
<!-- ComponentModule&#45;&gt;PopoverComponent  -->
<g id="edge10" class="edge">
<title>ComponentModule&#45;&gt;PopoverComponent </title>
<path fill="none" stroke="#000000" stroke-dasharray="5,2" d="M526.348,-187.1061C526.348,-187.1061 526.348,-205.991 526.348,-205.991"/>
<polygon fill="#000000" stroke="#000000" points="522.8481,-205.9909 526.348,-215.991 529.8481,-205.991 522.8481,-205.9909"/>
</g>
<!-- PopoverDirective  -->
<g id="node12" class="node">
<title>PopoverDirective </title>
<polygon fill="#fb8072" stroke="#000000" points="483.2408,-252 364.7592,-252 364.7592,-216 483.2408,-216 483.2408,-252"/>
<text text-anchor="middle" x="424" y="-229.8" font-family="Times,serif" font-size="14.00" fill="#000000">PopoverDirective </text>
</g>
<!-- ComponentModule&#45;&gt;PopoverDirective  -->
<g id="edge11" class="edge">
<title>ComponentModule&#45;&gt;PopoverDirective </title>
<path fill="none" stroke="#000000" stroke-dasharray="5,2" d="M454.8396,-187.1061C454.8396,-187.1061 454.8396,-205.991 454.8396,-205.991"/>
<polygon fill="#000000" stroke="#000000" points="451.3397,-205.9909 454.8396,-215.991 458.3397,-205.991 451.3397,-205.9909"/>
</g>
<!-- SearchComponent  -->
<g id="node13" class="node">
<title>SearchComponent </title>
<polygon fill="#fb8072" stroke="#000000" points="346.4194,-252 223.5806,-252 223.5806,-216 346.4194,-216 346.4194,-252"/>
<text text-anchor="middle" x="285" y="-229.8" font-family="Times,serif" font-size="14.00" fill="#000000">SearchComponent </text>
</g>
<!-- ComponentModule&#45;&gt;SearchComponent  -->
<g id="edge12" class="edge">
<title>ComponentModule&#45;&gt;SearchComponent </title>
<path fill="none" stroke="#000000" stroke-dasharray="5,2" d="M426.3826,-181C378.1111,-181 319.5447,-181 319.5447,-181 319.5447,-181 319.5447,-205.7604 319.5447,-205.7604"/>
<polygon fill="#000000" stroke="#000000" points="316.0448,-205.7604 319.5447,-215.7604 323.0448,-205.7604 316.0448,-205.7604"/>
</g>
<!-- TableComponent  -->
<g id="node14" class="node">
<title>TableComponent </title>
<polygon fill="#fb8072" stroke="#000000" points="205.2052,-252 88.7948,-252 88.7948,-216 205.2052,-216 205.2052,-252"/>
<text text-anchor="middle" x="147" y="-229.8" font-family="Times,serif" font-size="14.00" fill="#000000">TableComponent </text>
</g>
<!-- ComponentModule&#45;&gt;TableComponent  -->
<g id="edge13" class="edge">
<title>ComponentModule&#45;&gt;TableComponent </title>
<path fill="none" stroke="#000000" stroke-dasharray="5,2" d="M426.5343,-175C336.3375,-175 180.3214,-175 180.3214,-175 180.3214,-175 180.3214,-205.9775 180.3214,-205.9775"/>
<polygon fill="#000000" stroke="#000000" points="176.8214,-205.9774 180.3214,-215.9775 183.8214,-205.9775 176.8214,-205.9774"/>
</g>
</g>
</svg>
