<?xml version="1.0" encoding="UTF-8" standalone="no"?>
<!DOCTYPE svg PUBLIC "-//W3C//DTD SVG 1.1//EN"
 "http://www.w3.org/Graphics/SVG/1.1/DTD/svg11.dtd">
<!-- Generated by graphviz version 2.40.1 (20161225.0304)
 -->
<!-- Title: dependencies Pages: 1 -->
<svg width="891pt" height="211pt"
 viewBox="0.00 0.00 891.00 211.00" xmlns="http://www.w3.org/2000/svg" xmlns:xlink="http://www.w3.org/1999/xlink">
<g id="graph0" class="graph" transform="scale(1 1) rotate(0) translate(4 207)">
<title>dependencies</title>
<polygon fill="#ffffff" stroke="transparent" points="-4,4 -4,-207 887,-207 887,4 -4,4"/>
<text text-anchor="start" x="420.5091" y="-42.4" font-family="sans-serif" font-weight="bold" font-size="14.00" fill="#000000">Legend</text>
<polygon fill="#ffffb3" stroke="transparent" points="207.5,-10 207.5,-30 227.5,-30 227.5,-10 207.5,-10"/>
<text text-anchor="start" x="231.129" y="-15.4" font-family="sans-serif" font-size="14.00" fill="#000000"> &#160;Declarations</text>
<polygon fill="#8dd3c7" stroke="transparent" points="320.5,-10 320.5,-30 340.5,-30 340.5,-10 320.5,-10"/>
<text text-anchor="start" x="344.2251" y="-15.4" font-family="sans-serif" font-size="14.00" fill="#000000"> &#160;Module</text>
<polygon fill="#80b1d3" stroke="transparent" points="406.5,-10 406.5,-30 426.5,-30 426.5,-10 406.5,-10"/>
<text text-anchor="start" x="430.2812" y="-15.4" font-family="sans-serif" font-size="14.00" fill="#000000"> &#160;Bootstrap</text>
<polygon fill="#fdb462" stroke="transparent" points="503.5,-10 503.5,-30 523.5,-30 523.5,-10 503.5,-10"/>
<text text-anchor="start" x="527.1732" y="-15.4" font-family="sans-serif" font-size="14.00" fill="#000000"> &#160;Providers</text>
<polygon fill="#fb8072" stroke="transparent" points="599.5,-10 599.5,-30 619.5,-30 619.5,-10 599.5,-10"/>
<text text-anchor="start" x="623.2258" y="-15.4" font-family="sans-serif" font-size="14.00" fill="#000000"> &#160;Exports</text>
<g id="clust1" class="cluster">
<title>cluster_TablesModule</title>
<polygon fill="none" stroke="#000000" stroke-dasharray="1,5" points="8,-70 8,-195 875,-195 875,-70 8,-70"/>
</g>
<g id="clust2" class="cluster">
<title>cluster_TablesModule_declarations</title>
<polygon fill="none" stroke="#000000" points="298,-78 298,-130 867,-130 867,-78 298,-78"/>
</g>
<g id="clust7" class="cluster">
<title>cluster_TablesModule_imports</title>
<polygon fill="none" stroke="#000000" points="16,-78 16,-130 290,-130 290,-78 16,-78"/>
</g>
<!-- TablesComponent -->
<g id="node1" class="node">
<title>TablesComponent</title>
<polygon fill="#ffffb3" stroke="#000000" points="859.1499,-122 740.8501,-122 740.8501,-86 859.1499,-86 859.1499,-122"/>
<text text-anchor="middle" x="800" y="-99.8" font-family="Times,serif" font-size="14.00" fill="#000000">TablesComponent</text>
</g>
<!-- TablesModule -->
<g id="node5" class="node">
<title>TablesModule</title>
<polygon fill="#8dd3c7" stroke="#000000" points="496.3669,-187 493.3669,-191 472.3669,-191 469.3669,-187 399.6331,-187 399.6331,-151 496.3669,-151 496.3669,-187"/>
<text text-anchor="middle" x="448" y="-164.8" font-family="Times,serif" font-size="14.00" fill="#000000">TablesModule</text>
</g>
<!-- TablesComponent&#45;&gt;TablesModule -->
<g id="edge1" class="edge">
<title>TablesComponent&#45;&gt;TablesModule</title>
<path fill="none" stroke="#000000" d="M800,-122.2843C800,-143.3211 800,-175 800,-175 800,-175 506.5745,-175 506.5745,-175"/>
<polygon fill="#000000" stroke="#000000" points="506.5746,-171.5001 496.5745,-175 506.5745,-178.5001 506.5746,-171.5001"/>
</g>
<!-- StaticComponent -->
<g id="node2" class="node">
<title>StaticComponent</title>
<polygon fill="#ffffb3" stroke="#000000" points="722.7162,-122 609.2838,-122 609.2838,-86 722.7162,-86 722.7162,-122"/>
<text text-anchor="middle" x="666" y="-99.8" font-family="Times,serif" font-size="14.00" fill="#000000">StaticComponent</text>
</g>
<!-- StaticComponent&#45;&gt;TablesModule -->
<g id="edge2" class="edge">
<title>StaticComponent&#45;&gt;TablesModule</title>
<path fill="none" stroke="#000000" d="M666,-122.0225C666,-139.3734 666,-163 666,-163 666,-163 506.3813,-163 506.3813,-163"/>
<polygon fill="#000000" stroke="#000000" points="506.3813,-159.5001 496.3813,-163 506.3812,-166.5001 506.3813,-159.5001"/>
</g>
<!-- DatatableComponent -->
<g id="node3" class="node">
<title>DatatableComponent</title>
<polygon fill="#ffffb3" stroke="#000000" points="591.4692,-122 456.5308,-122 456.5308,-86 591.4692,-86 591.4692,-122"/>
<text text-anchor="middle" x="524" y="-99.8" font-family="Times,serif" font-size="14.00" fill="#000000">DatatableComponent</text>
</g>
<!-- DatatableComponent&#45;&gt;TablesModule -->
<g id="edge3" class="edge">
<title>DatatableComponent&#45;&gt;TablesModule</title>
<path fill="none" stroke="#000000" d="M476.4744,-122.1061C476.4744,-122.1061 476.4744,-140.991 476.4744,-140.991"/>
<polygon fill="#000000" stroke="#000000" points="472.9745,-140.9909 476.4744,-150.991 479.9745,-140.991 472.9745,-140.9909"/>
</g>
<!-- DynamicComponent -->
<g id="node4" class="node">
<title>DynamicComponent</title>
<polygon fill="#ffffb3" stroke="#000000" points="438.1499,-122 305.8501,-122 305.8501,-86 438.1499,-86 438.1499,-122"/>
<text text-anchor="middle" x="372" y="-99.8" font-family="Times,serif" font-size="14.00" fill="#000000">DynamicComponent</text>
</g>
<!-- DynamicComponent&#45;&gt;TablesModule -->
<g id="edge4" class="edge">
<title>DynamicComponent&#45;&gt;TablesModule</title>
<path fill="none" stroke="#000000" d="M418.9457,-122.1061C418.9457,-122.1061 418.9457,-140.991 418.9457,-140.991"/>
<polygon fill="#000000" stroke="#000000" points="415.4457,-140.9909 418.9457,-150.991 422.4457,-140.991 415.4457,-140.9909"/>
</g>
<!-- SharedModule -->
<g id="node6" class="node">
<title>SharedModule</title>
<polygon fill="#8dd3c7" stroke="#000000" points="282.4231,-122 279.4231,-126 258.4231,-126 255.4231,-122 183.5769,-122 183.5769,-86 282.4231,-86 282.4231,-122"/>
<text text-anchor="middle" x="233" y="-99.8" font-family="Times,serif" font-size="14.00" fill="#000000">SharedModule</text>
</g>
<!-- SharedModule&#45;&gt;TablesModule -->
<g id="edge5" class="edge">
<title>SharedModule&#45;&gt;TablesModule</title>
<path fill="none" stroke="#000000" d="M233,-122.0225C233,-139.3734 233,-163 233,-163 233,-163 389.4817,-163 389.4817,-163"/>
<polygon fill="#000000" stroke="#000000" points="389.4818,-166.5001 399.4817,-163 389.4817,-159.5001 389.4818,-166.5001"/>
</g>
<!-- TablesRoutingModule -->
<g id="node7" class="node">
<title>TablesRoutingModule</title>
<polygon fill="#8dd3c7" stroke="#000000" points="165.9846,-122 162.9846,-126 141.9846,-126 138.9846,-122 24.0154,-122 24.0154,-86 165.9846,-86 165.9846,-122"/>
<text text-anchor="middle" x="95" y="-99.8" font-family="Times,serif" font-size="14.00" fill="#000000">TablesRoutingModule</text>
</g>
<!-- TablesRoutingModule&#45;&gt;TablesModule -->
<g id="edge6" class="edge">
<title>TablesRoutingModule&#45;&gt;TablesModule</title>
<path fill="none" stroke="#000000" d="M95,-122.2843C95,-143.3211 95,-175 95,-175 95,-175 389.2875,-175 389.2875,-175"/>
<polygon fill="#000000" stroke="#000000" points="389.2875,-178.5001 399.2875,-175 389.2874,-171.5001 389.2875,-178.5001"/>
</g>
</g>
</svg>
