<?xml version="1.0" encoding="UTF-8" standalone="no"?>
<!DOCTYPE svg PUBLIC "-//W3C//DTD SVG 1.1//EN"
 "http://www.w3.org/Graphics/SVG/1.1/DTD/svg11.dtd">
<!-- Generated by graphviz version 2.40.1 (20161225.0304)
 -->
<!-- Title: dependencies Pages: 1 -->
<svg width="740pt" height="211pt"
 viewBox="0.00 0.00 740.00 211.00" xmlns="http://www.w3.org/2000/svg" xmlns:xlink="http://www.w3.org/1999/xlink">
<g id="graph0" class="graph" transform="scale(1 1) rotate(0) translate(4 207)">
<title>dependencies</title>
<polygon fill="#ffffff" stroke="transparent" points="-4,4 -4,-207 736,-207 736,4 -4,4"/>
<text text-anchor="start" x="345.0091" y="-42.4" font-family="sans-serif" font-weight="bold" font-size="14.00" fill="#000000">Legend</text>
<polygon fill="#ffffb3" stroke="transparent" points="132,-10 132,-30 152,-30 152,-10 132,-10"/>
<text text-anchor="start" x="155.629" y="-15.4" font-family="sans-serif" font-size="14.00" fill="#000000"> &#160;Declarations</text>
<polygon fill="#8dd3c7" stroke="transparent" points="245,-10 245,-30 265,-30 265,-10 245,-10"/>
<text text-anchor="start" x="268.7251" y="-15.4" font-family="sans-serif" font-size="14.00" fill="#000000"> &#160;Module</text>
<polygon fill="#80b1d3" stroke="transparent" points="331,-10 331,-30 351,-30 351,-10 331,-10"/>
<text text-anchor="start" x="354.7812" y="-15.4" font-family="sans-serif" font-size="14.00" fill="#000000"> &#160;Bootstrap</text>
<polygon fill="#fdb462" stroke="transparent" points="428,-10 428,-30 448,-30 448,-10 428,-10"/>
<text text-anchor="start" x="451.6732" y="-15.4" font-family="sans-serif" font-size="14.00" fill="#000000"> &#160;Providers</text>
<polygon fill="#fb8072" stroke="transparent" points="524,-10 524,-30 544,-30 544,-10 524,-10"/>
<text text-anchor="start" x="547.7258" y="-15.4" font-family="sans-serif" font-size="14.00" fill="#000000"> &#160;Exports</text>
<g id="clust1" class="cluster">
<title>cluster_TablesModule</title>
<polygon fill="none" stroke="#000000" stroke-dasharray="1,5" points="8,-70 8,-195 724,-195 724,-70 8,-70"/>
</g>
<g id="clust2" class="cluster">
<title>cluster_TablesModule_declarations</title>
<polygon fill="none" stroke="#000000" points="298,-78 298,-130 716,-130 716,-78 298,-78"/>
</g>
<g id="clust6" class="cluster">
<title>cluster_TablesModule_imports</title>
<polygon fill="none" stroke="#000000" points="16,-78 16,-130 290,-130 290,-78 16,-78"/>
</g>
<!-- TablesComponent -->
<g id="node1" class="node">
<title>TablesComponent</title>
<polygon fill="#ffffb3" stroke="#000000" points="708.1499,-122 589.8501,-122 589.8501,-86 708.1499,-86 708.1499,-122"/>
<text text-anchor="middle" x="649" y="-99.8" font-family="Times,serif" font-size="14.00" fill="#000000">TablesComponent</text>
</g>
<!-- TablesModule -->
<g id="node4" class="node">
<title>TablesModule</title>
<polygon fill="#8dd3c7" stroke="#000000" points="421.3669,-187 418.3669,-191 397.3669,-191 394.3669,-187 324.6331,-187 324.6331,-151 421.3669,-151 421.3669,-187"/>
<text text-anchor="middle" x="373" y="-164.8" font-family="Times,serif" font-size="14.00" fill="#000000">TablesModule</text>
</g>
<!-- TablesComponent&#45;&gt;TablesModule -->
<g id="edge1" class="edge">
<title>TablesComponent&#45;&gt;TablesModule</title>
<path fill="none" stroke="#000000" d="M649,-122.2843C649,-143.3211 649,-175 649,-175 649,-175 431.3914,-175 431.3914,-175"/>
<polygon fill="#000000" stroke="#000000" points="431.3914,-171.5001 421.3914,-175 431.3913,-178.5001 431.3914,-171.5001"/>
</g>
<!-- StaticComponent -->
<g id="node2" class="node">
<title>StaticComponent</title>
<polygon fill="#ffffb3" stroke="#000000" points="571.7162,-122 458.2838,-122 458.2838,-86 571.7162,-86 571.7162,-122"/>
<text text-anchor="middle" x="515" y="-99.8" font-family="Times,serif" font-size="14.00" fill="#000000">StaticComponent</text>
</g>
<!-- StaticComponent&#45;&gt;TablesModule -->
<g id="edge2" class="edge">
<title>StaticComponent&#45;&gt;TablesModule</title>
<path fill="none" stroke="#000000" d="M515,-122.0225C515,-139.3734 515,-163 515,-163 515,-163 431.4712,-163 431.4712,-163"/>
<polygon fill="#000000" stroke="#000000" points="431.4712,-159.5001 421.4712,-163 431.4711,-166.5001 431.4712,-159.5001"/>
</g>
<!-- DatatableComponent -->
<g id="node3" class="node">
<title>DatatableComponent</title>
<polygon fill="#ffffb3" stroke="#000000" points="440.4692,-122 305.5308,-122 305.5308,-86 440.4692,-86 440.4692,-122"/>
<text text-anchor="middle" x="373" y="-99.8" font-family="Times,serif" font-size="14.00" fill="#000000">DatatableComponent</text>
</g>
<!-- DatatableComponent&#45;&gt;TablesModule -->
<g id="edge3" class="edge">
<title>DatatableComponent&#45;&gt;TablesModule</title>
<path fill="none" stroke="#000000" d="M373,-122.1061C373,-122.1061 373,-140.991 373,-140.991"/>
<polygon fill="#000000" stroke="#000000" points="369.5001,-140.9909 373,-150.991 376.5001,-140.991 369.5001,-140.9909"/>
</g>
<!-- SharedModule -->
<g id="node5" class="node">
<title>SharedModule</title>
<polygon fill="#8dd3c7" stroke="#000000" points="282.4231,-122 279.4231,-126 258.4231,-126 255.4231,-122 183.5769,-122 183.5769,-86 282.4231,-86 282.4231,-122"/>
<text text-anchor="middle" x="233" y="-99.8" font-family="Times,serif" font-size="14.00" fill="#000000">SharedModule</text>
</g>
<!-- SharedModule&#45;&gt;TablesModule -->
<g id="edge4" class="edge">
<title>SharedModule&#45;&gt;TablesModule</title>
<path fill="none" stroke="#000000" d="M233,-122.0225C233,-139.3734 233,-163 233,-163 233,-163 314.4277,-163 314.4277,-163"/>
<polygon fill="#000000" stroke="#000000" points="314.4277,-166.5001 324.4277,-163 314.4277,-159.5001 314.4277,-166.5001"/>
</g>
<!-- TablesRoutingModule -->
<g id="node6" class="node">
<title>TablesRoutingModule</title>
<polygon fill="#8dd3c7" stroke="#000000" points="165.9846,-122 162.9846,-126 141.9846,-126 138.9846,-122 24.0154,-122 24.0154,-86 165.9846,-86 165.9846,-122"/>
<text text-anchor="middle" x="95" y="-99.8" font-family="Times,serif" font-size="14.00" fill="#000000">TablesRoutingModule</text>
</g>
<!-- TablesRoutingModule&#45;&gt;TablesModule -->
<g id="edge5" class="edge">
<title>TablesRoutingModule&#45;&gt;TablesModule</title>
<path fill="none" stroke="#000000" d="M95,-122.2843C95,-143.3211 95,-175 95,-175 95,-175 314.5761,-175 314.5761,-175"/>
<polygon fill="#000000" stroke="#000000" points="314.5761,-178.5001 324.5761,-175 314.5761,-171.5001 314.5761,-178.5001"/>
</g>
</g>
</svg>
