<?xml version="1.0" encoding="UTF-8" standalone="no"?>
<!DOCTYPE svg PUBLIC "-//W3C//DTD SVG 1.1//EN"
 "http://www.w3.org/Graphics/SVG/1.1/DTD/svg11.dtd">
<!-- Generated by graphviz version 2.40.1 (20161225.0304)
 -->
<!-- Title: dependencies Pages: 1 -->
<svg width="1001pt" height="211pt"
 viewBox="0.00 0.00 1001.00 211.00" xmlns="http://www.w3.org/2000/svg" xmlns:xlink="http://www.w3.org/1999/xlink">
<g id="graph0" class="graph" transform="scale(1 1) rotate(0) translate(4 207)">
<title>dependencies</title>
<polygon fill="#ffffff" stroke="transparent" points="-4,4 -4,-207 997,-207 997,4 -4,4"/>
<text text-anchor="start" x="475.5091" y="-42.4" font-family="sans-serif" font-weight="bold" font-size="14.00" fill="#000000">Legend</text>
<polygon fill="#ffffb3" stroke="transparent" points="262.5,-10 262.5,-30 282.5,-30 282.5,-10 262.5,-10"/>
<text text-anchor="start" x="286.129" y="-15.4" font-family="sans-serif" font-size="14.00" fill="#000000"> &#160;Declarations</text>
<polygon fill="#8dd3c7" stroke="transparent" points="375.5,-10 375.5,-30 395.5,-30 395.5,-10 375.5,-10"/>
<text text-anchor="start" x="399.2251" y="-15.4" font-family="sans-serif" font-size="14.00" fill="#000000"> &#160;Module</text>
<polygon fill="#80b1d3" stroke="transparent" points="461.5,-10 461.5,-30 481.5,-30 481.5,-10 461.5,-10"/>
<text text-anchor="start" x="485.2812" y="-15.4" font-family="sans-serif" font-size="14.00" fill="#000000"> &#160;Bootstrap</text>
<polygon fill="#fdb462" stroke="transparent" points="558.5,-10 558.5,-30 578.5,-30 578.5,-10 558.5,-10"/>
<text text-anchor="start" x="582.1732" y="-15.4" font-family="sans-serif" font-size="14.00" fill="#000000"> &#160;Providers</text>
<polygon fill="#fb8072" stroke="transparent" points="654.5,-10 654.5,-30 674.5,-30 674.5,-10 654.5,-10"/>
<text text-anchor="start" x="678.2258" y="-15.4" font-family="sans-serif" font-size="14.00" fill="#000000"> &#160;Exports</text>
<g id="clust1" class="cluster">
<title>cluster_TablesModule</title>
<polygon fill="none" stroke="#000000" stroke-dasharray="1,5" points="8,-70 8,-195 985,-195 985,-70 8,-70"/>
</g>
<g id="clust2" class="cluster">
<title>cluster_TablesModule_declarations</title>
<polygon fill="none" stroke="#000000" points="408,-78 408,-130 977,-130 977,-78 408,-78"/>
</g>
<g id="clust7" class="cluster">
<title>cluster_TablesModule_imports</title>
<polygon fill="none" stroke="#000000" points="16,-78 16,-130 400,-130 400,-78 16,-78"/>
</g>
<!-- DatatableComponent -->
<g id="node1" class="node">
<title>DatatableComponent</title>
<polygon fill="#ffffb3" stroke="#000000" points="969.4692,-122 834.5308,-122 834.5308,-86 969.4692,-86 969.4692,-122"/>
<text text-anchor="middle" x="902" y="-99.8" font-family="Times,serif" font-size="14.00" fill="#000000">DatatableComponent</text>
</g>
<!-- TablesModule -->
<g id="node5" class="node">
<title>TablesModule</title>
<polygon fill="#8dd3c7" stroke="#000000" points="523.3669,-187 520.3669,-191 499.3669,-191 496.3669,-187 426.6331,-187 426.6331,-151 523.3669,-151 523.3669,-187"/>
<text text-anchor="middle" x="475" y="-164.8" font-family="Times,serif" font-size="14.00" fill="#000000">TablesModule</text>
</g>
<!-- DatatableComponent&#45;&gt;TablesModule -->
<g id="edge1" class="edge">
<title>DatatableComponent&#45;&gt;TablesModule</title>
<path fill="none" stroke="#000000" d="M902,-122.2921C902,-144.2057 902,-178 902,-178 902,-178 533.5666,-178 533.5666,-178"/>
<polygon fill="#000000" stroke="#000000" points="533.5666,-174.5001 523.5666,-178 533.5666,-181.5001 533.5666,-174.5001"/>
</g>
<!-- DynamicComponent -->
<g id="node2" class="node">
<title>DynamicComponent</title>
<polygon fill="#ffffb3" stroke="#000000" points="816.1499,-122 683.8501,-122 683.8501,-86 816.1499,-86 816.1499,-122"/>
<text text-anchor="middle" x="750" y="-99.8" font-family="Times,serif" font-size="14.00" fill="#000000">DynamicComponent</text>
</g>
<!-- DynamicComponent&#45;&gt;TablesModule -->
<g id="edge2" class="edge">
<title>DynamicComponent&#45;&gt;TablesModule</title>
<path fill="none" stroke="#000000" d="M750,-122.1061C750,-141.3391 750,-169 750,-169 750,-169 533.5315,-169 533.5315,-169"/>
<polygon fill="#000000" stroke="#000000" points="533.5315,-165.5001 523.5315,-169 533.5314,-172.5001 533.5315,-165.5001"/>
</g>
<!-- StaticComponent -->
<g id="node3" class="node">
<title>StaticComponent</title>
<polygon fill="#ffffb3" stroke="#000000" points="665.7162,-122 552.2838,-122 552.2838,-86 665.7162,-86 665.7162,-122"/>
<text text-anchor="middle" x="609" y="-99.8" font-family="Times,serif" font-size="14.00" fill="#000000">StaticComponent</text>
</g>
<!-- StaticComponent&#45;&gt;TablesModule -->
<g id="edge3" class="edge">
<title>StaticComponent&#45;&gt;TablesModule</title>
<path fill="none" stroke="#000000" d="M609,-122.027C609,-138.3976 609,-160 609,-160 609,-160 533.3771,-160 533.3771,-160"/>
<polygon fill="#000000" stroke="#000000" points="533.3771,-156.5001 523.3771,-160 533.377,-163.5001 533.3771,-156.5001"/>
</g>
<!-- TablesComponent -->
<g id="node4" class="node">
<title>TablesComponent</title>
<polygon fill="#ffffb3" stroke="#000000" points="534.1499,-122 415.8501,-122 415.8501,-86 534.1499,-86 534.1499,-122"/>
<text text-anchor="middle" x="475" y="-99.8" font-family="Times,serif" font-size="14.00" fill="#000000">TablesComponent</text>
</g>
<!-- TablesComponent&#45;&gt;TablesModule -->
<g id="edge4" class="edge">
<title>TablesComponent&#45;&gt;TablesModule</title>
<path fill="none" stroke="#000000" d="M475,-122.1061C475,-122.1061 475,-140.991 475,-140.991"/>
<polygon fill="#000000" stroke="#000000" points="471.5001,-140.9909 475,-150.991 478.5001,-140.991 471.5001,-140.9909"/>
</g>
<!-- SharedModule -->
<g id="node6" class="node">
<title>SharedModule</title>
<polygon fill="#8dd3c7" stroke="#000000" points="392.4231,-122 389.4231,-126 368.4231,-126 365.4231,-122 293.5769,-122 293.5769,-86 392.4231,-86 392.4231,-122"/>
<text text-anchor="middle" x="343" y="-99.8" font-family="Times,serif" font-size="14.00" fill="#000000">SharedModule</text>
</g>
<!-- SharedModule&#45;&gt;TablesModule -->
<g id="edge5" class="edge">
<title>SharedModule&#45;&gt;TablesModule</title>
<path fill="none" stroke="#000000" d="M343,-122.027C343,-138.3976 343,-160 343,-160 343,-160 416.5976,-160 416.5976,-160"/>
<polygon fill="#000000" stroke="#000000" points="416.5976,-163.5001 426.5976,-160 416.5976,-156.5001 416.5976,-163.5001"/>
</g>
<!-- TableModule -->
<g id="node7" class="node">
<title>TableModule</title>
<polygon fill="#8dd3c7" stroke="#000000" points="275.9232,-122 272.9232,-126 251.9232,-126 248.9232,-122 184.0768,-122 184.0768,-86 275.9232,-86 275.9232,-122"/>
<text text-anchor="middle" x="230" y="-99.8" font-family="Times,serif" font-size="14.00" fill="#000000">TableModule</text>
</g>
<!-- TableModule&#45;&gt;TablesModule -->
<g id="edge6" class="edge">
<title>TableModule&#45;&gt;TablesModule</title>
<path fill="none" stroke="#000000" d="M230,-122.1061C230,-141.3391 230,-169 230,-169 230,-169 416.5959,-169 416.5959,-169"/>
<polygon fill="#000000" stroke="#000000" points="416.5959,-172.5001 426.5959,-169 416.5958,-165.5001 416.5959,-172.5001"/>
</g>
<!-- TablesRoutingModule -->
<g id="node8" class="node">
<title>TablesRoutingModule</title>
<polygon fill="#8dd3c7" stroke="#000000" points="165.9846,-122 162.9846,-126 141.9846,-126 138.9846,-122 24.0154,-122 24.0154,-86 165.9846,-86 165.9846,-122"/>
<text text-anchor="middle" x="95" y="-99.8" font-family="Times,serif" font-size="14.00" fill="#000000">TablesRoutingModule</text>
</g>
<!-- TablesRoutingModule&#45;&gt;TablesModule -->
<g id="edge7" class="edge">
<title>TablesRoutingModule&#45;&gt;TablesModule</title>
<path fill="none" stroke="#000000" d="M95,-122.2921C95,-144.2057 95,-178 95,-178 95,-178 416.4868,-178 416.4868,-178"/>
<polygon fill="#000000" stroke="#000000" points="416.4868,-181.5001 426.4868,-178 416.4867,-174.5001 416.4868,-181.5001"/>
</g>
</g>
</svg>
