<?xml version="1.0" encoding="UTF-8" standalone="no"?>
<!DOCTYPE svg PUBLIC "-//W3C//DTD SVG 1.1//EN"
 "http://www.w3.org/Graphics/SVG/1.1/DTD/svg11.dtd">
<!-- Generated by graphviz version 2.40.1 (20161225.0304)
 -->
<!-- Title: dependencies Pages: 1 -->
<svg width="822pt" height="284pt"
 viewBox="0.00 0.00 822.00 284.00" xmlns="http://www.w3.org/2000/svg" xmlns:xlink="http://www.w3.org/1999/xlink">
<g id="graph0" class="graph" transform="scale(1 1) rotate(0) translate(4 280)">
<title>dependencies</title>
<polygon fill="#ffffff" stroke="transparent" points="-4,4 -4,-280 818,-280 818,4 -4,4"/>
<text text-anchor="start" x="386.0091" y="-42.4" font-family="sans-serif" font-weight="bold" font-size="14.00" fill="#000000">Legend</text>
<polygon fill="#ffffb3" stroke="transparent" points="173,-10 173,-30 193,-30 193,-10 173,-10"/>
<text text-anchor="start" x="196.629" y="-15.4" font-family="sans-serif" font-size="14.00" fill="#000000"> &#160;Declarations</text>
<polygon fill="#8dd3c7" stroke="transparent" points="286,-10 286,-30 306,-30 306,-10 286,-10"/>
<text text-anchor="start" x="309.7251" y="-15.4" font-family="sans-serif" font-size="14.00" fill="#000000"> &#160;Module</text>
<polygon fill="#80b1d3" stroke="transparent" points="372,-10 372,-30 392,-30 392,-10 372,-10"/>
<text text-anchor="start" x="395.7812" y="-15.4" font-family="sans-serif" font-size="14.00" fill="#000000"> &#160;Bootstrap</text>
<polygon fill="#fdb462" stroke="transparent" points="469,-10 469,-30 489,-30 489,-10 469,-10"/>
<text text-anchor="start" x="492.6732" y="-15.4" font-family="sans-serif" font-size="14.00" fill="#000000"> &#160;Providers</text>
<polygon fill="#fb8072" stroke="transparent" points="565,-10 565,-30 585,-30 585,-10 565,-10"/>
<text text-anchor="start" x="588.7258" y="-15.4" font-family="sans-serif" font-size="14.00" fill="#000000"> &#160;Exports</text>
<g id="clust1" class="cluster">
<title>cluster_FileUploadModule</title>
<polygon fill="none" stroke="#000000" stroke-dasharray="1,5" points="8,-70 8,-268 806,-268 806,-70 8,-70"/>
</g>
<g id="clust2" class="cluster">
<title>cluster_FileUploadModule_declarations</title>
<polygon fill="none" stroke="#000000" points="206,-78 206,-130 798,-130 798,-78 206,-78"/>
</g>
<g id="clust8" class="cluster">
<title>cluster_FileUploadModule_exports</title>
<polygon fill="none" stroke="#000000" points="200,-208 200,-260 698,-260 698,-208 200,-208"/>
</g>
<g id="clust10" class="cluster">
<title>cluster_FileUploadModule_providers</title>
<polygon fill="none" stroke="#000000" points="16,-78 16,-130 198,-130 198,-78 16,-78"/>
</g>
<!-- FileSizePipe -->
<g id="node1" class="node">
<title>FileSizePipe</title>
<polygon fill="#ffffb3" stroke="#000000" points="790.2689,-122 703.7311,-122 703.7311,-86 790.2689,-86 790.2689,-122"/>
<text text-anchor="middle" x="747" y="-99.8" font-family="Times,serif" font-size="14.00" fill="#000000">FileSizePipe</text>
</g>
<!-- FileUploadModule -->
<g id="node5" class="node">
<title>FileUploadModule</title>
<polygon fill="#8dd3c7" stroke="#000000" points="518.0409,-187 515.0409,-191 494.0409,-191 491.0409,-187 395.9591,-187 395.9591,-151 518.0409,-151 518.0409,-187"/>
<text text-anchor="middle" x="457" y="-164.8" font-family="Times,serif" font-size="14.00" fill="#000000">FileUploadModule</text>
</g>
<!-- FileSizePipe&#45;&gt;FileUploadModule -->
<g id="edge1" class="edge">
<title>FileSizePipe&#45;&gt;FileUploadModule</title>
<path fill="none" stroke="#000000" d="M747,-122.1061C747,-141.3391 747,-169 747,-169 747,-169 528.1472,-169 528.1472,-169"/>
<polygon fill="#000000" stroke="#000000" points="528.1472,-165.5001 518.1472,-169 528.1471,-172.5001 528.1472,-165.5001"/>
</g>
<!-- FileUploadComponent -->
<g id="node2" class="node">
<title>FileUploadComponent</title>
<polygon fill="#ffffb3" stroke="#000000" points="685.323,-122 540.677,-122 540.677,-86 685.323,-86 685.323,-122"/>
<text text-anchor="middle" x="613" y="-99.8" font-family="Times,serif" font-size="14.00" fill="#000000">FileUploadComponent</text>
</g>
<!-- FileUploadComponent&#45;&gt;FileUploadModule -->
<g id="edge2" class="edge">
<title>FileUploadComponent&#45;&gt;FileUploadModule</title>
<path fill="none" stroke="#000000" d="M637.4704,-122.027C637.4704,-138.3976 637.4704,-160 637.4704,-160 637.4704,-160 528.0991,-160 528.0991,-160"/>
<polygon fill="#000000" stroke="#000000" points="528.0991,-156.5001 518.0991,-160 528.099,-163.5001 528.0991,-156.5001"/>
</g>
<!-- FileUploadDirective -->
<g id="node3" class="node">
<title>FileUploadDirective</title>
<polygon fill="#ffffb3" stroke="#000000" points="522.573,-122 391.427,-122 391.427,-86 522.573,-86 522.573,-122"/>
<text text-anchor="middle" x="457" y="-99.8" font-family="Times,serif" font-size="14.00" fill="#000000">FileUploadDirective</text>
</g>
<!-- FileUploadDirective&#45;&gt;FileUploadModule -->
<g id="edge3" class="edge">
<title>FileUploadDirective&#45;&gt;FileUploadModule</title>
<path fill="none" stroke="#000000" d="M457,-122.1061C457,-122.1061 457,-140.991 457,-140.991"/>
<polygon fill="#000000" stroke="#000000" points="453.5001,-140.9909 457,-150.991 460.5001,-140.991 453.5001,-140.9909"/>
</g>
<!-- FileUploadDropDirective -->
<g id="node4" class="node">
<title>FileUploadDropDirective</title>
<polygon fill="#ffffb3" stroke="#000000" points="373.8403,-122 214.1597,-122 214.1597,-86 373.8403,-86 373.8403,-122"/>
<text text-anchor="middle" x="294" y="-99.8" font-family="Times,serif" font-size="14.00" fill="#000000">FileUploadDropDirective</text>
</g>
<!-- FileUploadDropDirective&#45;&gt;FileUploadModule -->
<g id="edge4" class="edge">
<title>FileUploadDropDirective&#45;&gt;FileUploadModule</title>
<path fill="none" stroke="#000000" d="M319.14,-122.027C319.14,-138.3976 319.14,-160 319.14,-160 319.14,-160 385.7298,-160 385.7298,-160"/>
<polygon fill="#000000" stroke="#000000" points="385.7298,-163.5001 395.7298,-160 385.7297,-156.5001 385.7298,-163.5001"/>
</g>
<!-- FileUploadComponent  -->
<g id="node6" class="node">
<title>FileUploadComponent </title>
<polygon fill="#fb8072" stroke="#000000" points="689.8227,-252 542.1773,-252 542.1773,-216 689.8227,-216 689.8227,-252"/>
<text text-anchor="middle" x="616" y="-229.8" font-family="Times,serif" font-size="14.00" fill="#000000">FileUploadComponent </text>
</g>
<!-- FileUploadModule&#45;&gt;FileUploadComponent  -->
<g id="edge5" class="edge">
<title>FileUploadModule&#45;&gt;FileUploadComponent </title>
<path fill="none" stroke="#000000" stroke-dasharray="5,2" d="M518.3371,-178C553.1277,-178 589.7796,-178 589.7796,-178 589.7796,-178 589.7796,-205.973 589.7796,-205.973"/>
<polygon fill="#000000" stroke="#000000" points="586.2797,-205.973 589.7796,-215.973 593.2797,-205.973 586.2797,-205.973"/>
</g>
<!-- FileUploadDirective  -->
<g id="node7" class="node">
<title>FileUploadDirective </title>
<polygon fill="#fb8072" stroke="#000000" points="524.0737,-252 389.9263,-252 389.9263,-216 524.0737,-216 524.0737,-252"/>
<text text-anchor="middle" x="457" y="-229.8" font-family="Times,serif" font-size="14.00" fill="#000000">FileUploadDirective </text>
</g>
<!-- FileUploadModule&#45;&gt;FileUploadDirective  -->
<g id="edge6" class="edge">
<title>FileUploadModule&#45;&gt;FileUploadDirective </title>
<path fill="none" stroke="#000000" stroke-dasharray="5,2" d="M457,-187.1061C457,-187.1061 457,-205.991 457,-205.991"/>
<polygon fill="#000000" stroke="#000000" points="453.5001,-205.9909 457,-215.991 460.5001,-205.991 453.5001,-205.9909"/>
</g>
<!-- FileUploadDropDirective  -->
<g id="node8" class="node">
<title>FileUploadDropDirective </title>
<polygon fill="#fb8072" stroke="#000000" points="371.8406,-252 208.1594,-252 208.1594,-216 371.8406,-216 371.8406,-252"/>
<text text-anchor="middle" x="290" y="-229.8" font-family="Times,serif" font-size="14.00" fill="#000000">FileUploadDropDirective </text>
</g>
<!-- FileUploadModule&#45;&gt;FileUploadDropDirective  -->
<g id="edge7" class="edge">
<title>FileUploadModule&#45;&gt;FileUploadDropDirective </title>
<path fill="none" stroke="#000000" stroke-dasharray="5,2" d="M395.7114,-178C340.0543,-178 266.61,-178 266.61,-178 266.61,-178 266.61,-205.973 266.61,-205.973"/>
<polygon fill="#000000" stroke="#000000" points="263.1101,-205.973 266.61,-215.973 270.1101,-205.973 263.1101,-205.973"/>
</g>
<!-- FileUploadService -->
<g id="node9" class="node">
<title>FileUploadService</title>
<ellipse fill="#fdb462" stroke="#000000" cx="107" cy="-104" rx="83.3828" ry="18"/>
<text text-anchor="middle" x="107" y="-99.8" font-family="Times,serif" font-size="14.00" fill="#000000">FileUploadService</text>
</g>
<!-- FileUploadService&#45;&gt;FileUploadModule -->
<g id="edge8" class="edge">
<title>FileUploadService&#45;&gt;FileUploadModule</title>
<path fill="none" stroke="#000000" d="M107,-122.1061C107,-141.3391 107,-169 107,-169 107,-169 385.6341,-169 385.6341,-169"/>
<polygon fill="#000000" stroke="#000000" points="385.6342,-172.5001 395.6341,-169 385.6341,-165.5001 385.6342,-172.5001"/>
</g>
</g>
</svg>
