<?xml version="1.0" encoding="UTF-8" standalone="no"?>
<!DOCTYPE svg PUBLIC "-//W3C//DTD SVG 1.1//EN"
 "http://www.w3.org/Graphics/SVG/1.1/DTD/svg11.dtd">
<!-- Generated by graphviz version 2.40.1 (20161225.0304)
 -->
<!-- Title: dependencies Pages: 1 -->
<svg width="540pt" height="284pt"
 viewBox="0.00 0.00 540.00 284.00" xmlns="http://www.w3.org/2000/svg" xmlns:xlink="http://www.w3.org/1999/xlink">
<g id="graph0" class="graph" transform="scale(1 1) rotate(0) translate(4 280)">
<title>dependencies</title>
<polygon fill="#ffffff" stroke="transparent" points="-4,4 -4,-280 536,-280 536,4 -4,4"/>
<text text-anchor="start" x="245.0091" y="-42.4" font-family="sans-serif" font-weight="bold" font-size="14.00" fill="#000000">Legend</text>
<polygon fill="#ffffb3" stroke="transparent" points="32,-10 32,-30 52,-30 52,-10 32,-10"/>
<text text-anchor="start" x="55.629" y="-15.4" font-family="sans-serif" font-size="14.00" fill="#000000"> &#160;Declarations</text>
<polygon fill="#8dd3c7" stroke="transparent" points="145,-10 145,-30 165,-30 165,-10 145,-10"/>
<text text-anchor="start" x="168.7251" y="-15.4" font-family="sans-serif" font-size="14.00" fill="#000000"> &#160;Module</text>
<polygon fill="#80b1d3" stroke="transparent" points="231,-10 231,-30 251,-30 251,-10 231,-10"/>
<text text-anchor="start" x="254.7812" y="-15.4" font-family="sans-serif" font-size="14.00" fill="#000000"> &#160;Bootstrap</text>
<polygon fill="#fdb462" stroke="transparent" points="328,-10 328,-30 348,-30 348,-10 328,-10"/>
<text text-anchor="start" x="351.6732" y="-15.4" font-family="sans-serif" font-size="14.00" fill="#000000"> &#160;Providers</text>
<polygon fill="#fb8072" stroke="transparent" points="424,-10 424,-30 444,-30 444,-10 424,-10"/>
<text text-anchor="start" x="447.7258" y="-15.4" font-family="sans-serif" font-size="14.00" fill="#000000"> &#160;Exports</text>
<g id="clust1" class="cluster">
<title>cluster_FileUploadModule</title>
<polygon fill="none" stroke="#000000" stroke-dasharray="1,5" points="8,-70 8,-268 524,-268 524,-70 8,-70"/>
</g>
<g id="clust2" class="cluster">
<title>cluster_FileUploadModule_declarations</title>
<polygon fill="none" stroke="#000000" points="206,-78 206,-130 516,-130 516,-78 206,-78"/>
</g>
<g id="clust6" class="cluster">
<title>cluster_FileUploadModule_exports</title>
<polygon fill="none" stroke="#000000" points="123,-208 123,-260 439,-260 439,-208 123,-208"/>
</g>
<g id="clust8" class="cluster">
<title>cluster_FileUploadModule_providers</title>
<polygon fill="none" stroke="#000000" points="16,-78 16,-130 198,-130 198,-78 16,-78"/>
</g>
<!-- FileUploadDirective -->
<g id="node1" class="node">
<title>FileUploadDirective</title>
<polygon fill="#ffffb3" stroke="#000000" points="507.573,-122 376.427,-122 376.427,-86 507.573,-86 507.573,-122"/>
<text text-anchor="middle" x="442" y="-99.8" font-family="Times,serif" font-size="14.00" fill="#000000">FileUploadDirective</text>
</g>
<!-- FileUploadModule -->
<g id="node3" class="node">
<title>FileUploadModule</title>
<polygon fill="#8dd3c7" stroke="#000000" points="347.0409,-187 344.0409,-191 323.0409,-191 320.0409,-187 224.9591,-187 224.9591,-151 347.0409,-151 347.0409,-187"/>
<text text-anchor="middle" x="286" y="-164.8" font-family="Times,serif" font-size="14.00" fill="#000000">FileUploadModule</text>
</g>
<!-- FileUploadDirective&#45;&gt;FileUploadModule -->
<g id="edge1" class="edge">
<title>FileUploadDirective&#45;&gt;FileUploadModule</title>
<path fill="none" stroke="#000000" d="M403.875,-122.1061C403.875,-141.3391 403.875,-169 403.875,-169 403.875,-169 357.3543,-169 357.3543,-169"/>
<polygon fill="#000000" stroke="#000000" points="357.3543,-165.5001 347.3543,-169 357.3542,-172.5001 357.3543,-165.5001"/>
</g>
<!-- FileUploadComponent -->
<g id="node2" class="node">
<title>FileUploadComponent</title>
<polygon fill="#ffffb3" stroke="#000000" points="358.323,-122 213.677,-122 213.677,-86 358.323,-86 358.323,-122"/>
<text text-anchor="middle" x="286" y="-99.8" font-family="Times,serif" font-size="14.00" fill="#000000">FileUploadComponent</text>
</g>
<!-- FileUploadComponent&#45;&gt;FileUploadModule -->
<g id="edge2" class="edge">
<title>FileUploadComponent&#45;&gt;FileUploadModule</title>
<path fill="none" stroke="#000000" d="M286,-122.1061C286,-122.1061 286,-140.991 286,-140.991"/>
<polygon fill="#000000" stroke="#000000" points="282.5001,-140.9909 286,-150.991 289.5001,-140.991 282.5001,-140.9909"/>
</g>
<!-- FileUploadDirective  -->
<g id="node4" class="node">
<title>FileUploadDirective </title>
<polygon fill="#fb8072" stroke="#000000" points="431.0737,-252 296.9263,-252 296.9263,-216 431.0737,-216 431.0737,-252"/>
<text text-anchor="middle" x="364" y="-229.8" font-family="Times,serif" font-size="14.00" fill="#000000">FileUploadDirective </text>
</g>
<!-- FileUploadModule&#45;&gt;FileUploadDirective  -->
<g id="edge3" class="edge">
<title>FileUploadModule&#45;&gt;FileUploadDirective </title>
<path fill="none" stroke="#000000" stroke-dasharray="5,2" d="M321.9918,-187.1061C321.9918,-187.1061 321.9918,-205.991 321.9918,-205.991"/>
<polygon fill="#000000" stroke="#000000" points="318.4918,-205.9909 321.9918,-215.991 325.4918,-205.991 318.4918,-205.9909"/>
</g>
<!-- FileUploadComponent  -->
<g id="node5" class="node">
<title>FileUploadComponent </title>
<polygon fill="#fb8072" stroke="#000000" points="278.8227,-252 131.1773,-252 131.1773,-216 278.8227,-216 278.8227,-252"/>
<text text-anchor="middle" x="205" y="-229.8" font-family="Times,serif" font-size="14.00" fill="#000000">FileUploadComponent </text>
</g>
<!-- FileUploadModule&#45;&gt;FileUploadComponent  -->
<g id="edge4" class="edge">
<title>FileUploadModule&#45;&gt;FileUploadComponent </title>
<path fill="none" stroke="#000000" stroke-dasharray="5,2" d="M251.8207,-187.1061C251.8207,-187.1061 251.8207,-205.991 251.8207,-205.991"/>
<polygon fill="#000000" stroke="#000000" points="248.3207,-205.9909 251.8207,-215.991 255.3207,-205.991 248.3207,-205.9909"/>
</g>
<!-- FileUploadService -->
<g id="node6" class="node">
<title>FileUploadService</title>
<ellipse fill="#fdb462" stroke="#000000" cx="107" cy="-104" rx="83.3828" ry="18"/>
<text text-anchor="middle" x="107" y="-99.8" font-family="Times,serif" font-size="14.00" fill="#000000">FileUploadService</text>
</g>
<!-- FileUploadService&#45;&gt;FileUploadModule -->
<g id="edge5" class="edge">
<title>FileUploadService&#45;&gt;FileUploadModule</title>
<path fill="none" stroke="#000000" d="M160.765,-117.7848C160.765,-136.865 160.765,-169 160.765,-169 160.765,-169 214.85,-169 214.85,-169"/>
<polygon fill="#000000" stroke="#000000" points="214.85,-172.5001 224.85,-169 214.85,-165.5001 214.85,-172.5001"/>
</g>
</g>
</svg>
