<?xml version="1.0" encoding="UTF-8" standalone="no"?>
<!DOCTYPE svg PUBLIC "-//W3C//DTD SVG 1.1//EN"
 "http://www.w3.org/Graphics/SVG/1.1/DTD/svg11.dtd">
<!-- Generated by graphviz version 2.40.1 (20161225.0304)
 -->
<!-- Title: dependencies Pages: 1 -->
<svg width="504pt" height="284pt"
 viewBox="0.00 0.00 504.00 284.00" xmlns="http://www.w3.org/2000/svg" xmlns:xlink="http://www.w3.org/1999/xlink">
<g id="graph0" class="graph" transform="scale(1 1) rotate(0) translate(4 280)">
<title>dependencies</title>
<polygon fill="#ffffff" stroke="transparent" points="-4,4 -4,-280 500,-280 500,4 -4,4"/>
<text text-anchor="start" x="227.0091" y="-42.4" font-family="sans-serif" font-weight="bold" font-size="14.00" fill="#000000">Legend</text>
<polygon fill="#ffffb3" stroke="transparent" points="14,-10 14,-30 34,-30 34,-10 14,-10"/>
<text text-anchor="start" x="37.629" y="-15.4" font-family="sans-serif" font-size="14.00" fill="#000000"> &#160;Declarations</text>
<polygon fill="#8dd3c7" stroke="transparent" points="127,-10 127,-30 147,-30 147,-10 127,-10"/>
<text text-anchor="start" x="150.7251" y="-15.4" font-family="sans-serif" font-size="14.00" fill="#000000"> &#160;Module</text>
<polygon fill="#80b1d3" stroke="transparent" points="213,-10 213,-30 233,-30 233,-10 213,-10"/>
<text text-anchor="start" x="236.7812" y="-15.4" font-family="sans-serif" font-size="14.00" fill="#000000"> &#160;Bootstrap</text>
<polygon fill="#fdb462" stroke="transparent" points="310,-10 310,-30 330,-30 330,-10 310,-10"/>
<text text-anchor="start" x="333.6732" y="-15.4" font-family="sans-serif" font-size="14.00" fill="#000000"> &#160;Providers</text>
<polygon fill="#fb8072" stroke="transparent" points="406,-10 406,-30 426,-30 426,-10 406,-10"/>
<text text-anchor="start" x="429.7258" y="-15.4" font-family="sans-serif" font-size="14.00" fill="#000000"> &#160;Exports</text>
<g id="clust1" class="cluster">
<title>cluster_ButtonModule</title>
<polygon fill="none" stroke="#000000" stroke-dasharray="1,5" points="110,-70 110,-268 386,-268 386,-70 110,-70"/>
</g>
<g id="clust2" class="cluster">
<title>cluster_ButtonModule_declarations</title>
<polygon fill="none" stroke="#000000" points="118,-78 118,-130 378,-130 378,-78 118,-78"/>
</g>
<g id="clust6" class="cluster">
<title>cluster_ButtonModule_exports</title>
<polygon fill="none" stroke="#000000" points="182,-208 182,-260 308,-260 308,-208 182,-208"/>
</g>
<!-- ButtonComponent -->
<g id="node1" class="node">
<title>ButtonComponent</title>
<polygon fill="#ffffb3" stroke="#000000" points="369.9511,-122 250.0489,-122 250.0489,-86 369.9511,-86 369.9511,-122"/>
<text text-anchor="middle" x="310" y="-99.8" font-family="Times,serif" font-size="14.00" fill="#000000">ButtonComponent</text>
</g>
<!-- ButtonModule -->
<g id="node3" class="node">
<title>ButtonModule</title>
<polygon fill="#8dd3c7" stroke="#000000" points="293.6682,-187 290.6682,-191 269.6682,-191 266.6682,-187 196.3318,-187 196.3318,-151 293.6682,-151 293.6682,-187"/>
<text text-anchor="middle" x="245" y="-164.8" font-family="Times,serif" font-size="14.00" fill="#000000">ButtonModule</text>
</g>
<!-- ButtonComponent&#45;&gt;ButtonModule -->
<g id="edge1" class="edge">
<title>ButtonComponent&#45;&gt;ButtonModule</title>
<path fill="none" stroke="#000000" d="M272.0544,-122.1061C272.0544,-122.1061 272.0544,-140.991 272.0544,-140.991"/>
<polygon fill="#000000" stroke="#000000" points="268.5544,-140.9909 272.0544,-150.991 275.5544,-140.991 268.5544,-140.9909"/>
</g>
<!-- ButtonDirective -->
<g id="node2" class="node">
<title>ButtonDirective</title>
<polygon fill="#ffffb3" stroke="#000000" points="232.2008,-122 125.7992,-122 125.7992,-86 232.2008,-86 232.2008,-122"/>
<text text-anchor="middle" x="179" y="-99.8" font-family="Times,serif" font-size="14.00" fill="#000000">ButtonDirective</text>
</g>
<!-- ButtonDirective&#45;&gt;ButtonModule -->
<g id="edge2" class="edge">
<title>ButtonDirective&#45;&gt;ButtonModule</title>
<path fill="none" stroke="#000000" d="M214.1333,-122.1061C214.1333,-122.1061 214.1333,-140.991 214.1333,-140.991"/>
<polygon fill="#000000" stroke="#000000" points="210.6333,-140.9909 214.1333,-150.991 217.6333,-140.991 210.6333,-140.9909"/>
</g>
<!-- ButtonDirective  -->
<g id="node4" class="node">
<title>ButtonDirective </title>
<polygon fill="#fb8072" stroke="#000000" points="299.701,-252 190.299,-252 190.299,-216 299.701,-216 299.701,-252"/>
<text text-anchor="middle" x="245" y="-229.8" font-family="Times,serif" font-size="14.00" fill="#000000">ButtonDirective </text>
</g>
<!-- ButtonModule&#45;&gt;ButtonDirective  -->
<g id="edge3" class="edge">
<title>ButtonModule&#45;&gt;ButtonDirective </title>
<path fill="none" stroke="#000000" stroke-dasharray="5,2" d="M245,-187.1061C245,-187.1061 245,-205.991 245,-205.991"/>
<polygon fill="#000000" stroke="#000000" points="241.5001,-205.9909 245,-215.991 248.5001,-205.991 241.5001,-205.9909"/>
</g>
</g>
</svg>
