<?xml version="1.0" encoding="UTF-8" standalone="no"?>
<!DOCTYPE svg PUBLIC "-//W3C//DTD SVG 1.1//EN"
 "http://www.w3.org/Graphics/SVG/1.1/DTD/svg11.dtd">
<!-- Generated by graphviz version 2.40.1 (20161225.0304)
 -->
<!-- Title: dependencies Pages: 1 -->
<svg width="504pt" height="284pt"
 viewBox="0.00 0.00 504.00 284.00" xmlns="http://www.w3.org/2000/svg" xmlns:xlink="http://www.w3.org/1999/xlink">
<g id="graph0" class="graph" transform="scale(1 1) rotate(0) translate(4 280)">
<title>dependencies</title>
<polygon fill="#ffffff" stroke="transparent" points="-4,4 -4,-280 500,-280 500,4 -4,4"/>
<text text-anchor="start" x="227.0091" y="-42.4" font-family="sans-serif" font-weight="bold" font-size="14.00" fill="#000000">Legend</text>
<polygon fill="#ffffb3" stroke="transparent" points="14,-10 14,-30 34,-30 34,-10 14,-10"/>
<text text-anchor="start" x="37.629" y="-15.4" font-family="sans-serif" font-size="14.00" fill="#000000"> &#160;Declarations</text>
<polygon fill="#8dd3c7" stroke="transparent" points="127,-10 127,-30 147,-30 147,-10 127,-10"/>
<text text-anchor="start" x="150.7251" y="-15.4" font-family="sans-serif" font-size="14.00" fill="#000000"> &#160;Module</text>
<polygon fill="#80b1d3" stroke="transparent" points="213,-10 213,-30 233,-30 233,-10 213,-10"/>
<text text-anchor="start" x="236.7812" y="-15.4" font-family="sans-serif" font-size="14.00" fill="#000000"> &#160;Bootstrap</text>
<polygon fill="#fdb462" stroke="transparent" points="310,-10 310,-30 330,-30 330,-10 310,-10"/>
<text text-anchor="start" x="333.6732" y="-15.4" font-family="sans-serif" font-size="14.00" fill="#000000"> &#160;Providers</text>
<polygon fill="#fb8072" stroke="transparent" points="406,-10 406,-30 426,-30 426,-10 406,-10"/>
<text text-anchor="start" x="429.7258" y="-15.4" font-family="sans-serif" font-size="14.00" fill="#000000"> &#160;Exports</text>
<g id="clust1" class="cluster">
<title>cluster_AmapModule</title>
<polygon fill="none" stroke="#000000" stroke-dasharray="1,5" points="98,-70 98,-268 398,-268 398,-70 98,-70"/>
</g>
<g id="clust2" class="cluster">
<title>cluster_AmapModule_declarations</title>
<polygon fill="none" stroke="#000000" points="258,-78 258,-130 390,-130 390,-78 258,-78"/>
</g>
<g id="clust5" class="cluster">
<title>cluster_AmapModule_exports</title>
<polygon fill="none" stroke="#000000" points="182,-208 182,-260 318,-260 318,-208 182,-208"/>
</g>
<g id="clust7" class="cluster">
<title>cluster_AmapModule_providers</title>
<polygon fill="none" stroke="#000000" points="106,-78 106,-130 250,-130 250,-78 106,-78"/>
</g>
<!-- AmapComponent -->
<g id="node1" class="node">
<title>AmapComponent</title>
<polygon fill="#ffffb3" stroke="#000000" points="381.5451,-122 266.4549,-122 266.4549,-86 381.5451,-86 381.5451,-122"/>
<text text-anchor="middle" x="324" y="-99.8" font-family="Times,serif" font-size="14.00" fill="#000000">AmapComponent</text>
</g>
<!-- AmapModule -->
<g id="node2" class="node">
<title>AmapModule</title>
<polygon fill="#8dd3c7" stroke="#000000" points="296.7619,-187 293.7619,-191 272.7619,-191 269.7619,-187 203.2381,-187 203.2381,-151 296.7619,-151 296.7619,-187"/>
<text text-anchor="middle" x="250" y="-164.8" font-family="Times,serif" font-size="14.00" fill="#000000">AmapModule</text>
</g>
<!-- AmapComponent&#45;&gt;AmapModule -->
<g id="edge1" class="edge">
<title>AmapComponent&#45;&gt;AmapModule</title>
<path fill="none" stroke="#000000" d="M281.5544,-122.1061C281.5544,-122.1061 281.5544,-140.991 281.5544,-140.991"/>
<polygon fill="#000000" stroke="#000000" points="278.0544,-140.9909 281.5544,-150.991 285.0544,-140.991 278.0544,-140.9909"/>
</g>
<!-- AmapComponent  -->
<g id="node3" class="node">
<title>AmapComponent </title>
<polygon fill="#fb8072" stroke="#000000" points="309.5442,-252 190.4558,-252 190.4558,-216 309.5442,-216 309.5442,-252"/>
<text text-anchor="middle" x="250" y="-229.8" font-family="Times,serif" font-size="14.00" fill="#000000">AmapComponent </text>
</g>
<!-- AmapModule&#45;&gt;AmapComponent  -->
<g id="edge2" class="edge">
<title>AmapModule&#45;&gt;AmapComponent </title>
<path fill="none" stroke="#000000" stroke-dasharray="5,2" d="M250,-187.1061C250,-187.1061 250,-205.991 250,-205.991"/>
<polygon fill="#000000" stroke="#000000" points="246.5001,-205.9909 250,-215.991 253.5001,-205.991 246.5001,-205.9909"/>
</g>
<!-- AmapService -->
<g id="node4" class="node">
<title>AmapService</title>
<ellipse fill="#fdb462" stroke="#000000" cx="178" cy="-104" rx="63.6813" ry="18"/>
<text text-anchor="middle" x="178" y="-99.8" font-family="Times,serif" font-size="14.00" fill="#000000">AmapService</text>
</g>
<!-- AmapService&#45;&gt;AmapModule -->
<g id="edge3" class="edge">
<title>AmapService&#45;&gt;AmapModule</title>
<path fill="none" stroke="#000000" d="M222.3549,-117.1537C222.3549,-117.1537 222.3549,-140.6938 222.3549,-140.6938"/>
<polygon fill="#000000" stroke="#000000" points="218.855,-140.6938 222.3549,-150.6938 225.855,-140.6939 218.855,-140.6938"/>
</g>
</g>
</svg>
