<?xml version="1.0" encoding="UTF-8" standalone="no"?>
<!DOCTYPE svg PUBLIC "-//W3C//DTD SVG 1.1//EN"
 "http://www.w3.org/Graphics/SVG/1.1/DTD/svg11.dtd">
<!-- Generated by graphviz version 2.40.1 (20161225.0304)
 -->
<!-- Title: dependencies Pages: 1 -->
<svg width="4264pt" height="211pt"
 viewBox="0.00 0.00 4264.00 211.00" xmlns="http://www.w3.org/2000/svg" xmlns:xlink="http://www.w3.org/1999/xlink">
<g id="graph0" class="graph" transform="scale(1 1) rotate(0) translate(4 207)">
<title>dependencies</title>
<polygon fill="#ffffff" stroke="transparent" points="-4,4 -4,-207 4260,-207 4260,4 -4,4"/>
<text text-anchor="start" x="2107.0091" y="-42.4" font-family="sans-serif" font-weight="bold" font-size="14.00" fill="#000000">Legend</text>
<polygon fill="#ffffb3" stroke="transparent" points="1894,-10 1894,-30 1914,-30 1914,-10 1894,-10"/>
<text text-anchor="start" x="1917.629" y="-15.4" font-family="sans-serif" font-size="14.00" fill="#000000"> &#160;Declarations</text>
<polygon fill="#8dd3c7" stroke="transparent" points="2007,-10 2007,-30 2027,-30 2027,-10 2007,-10"/>
<text text-anchor="start" x="2030.7251" y="-15.4" font-family="sans-serif" font-size="14.00" fill="#000000"> &#160;Module</text>
<polygon fill="#80b1d3" stroke="transparent" points="2093,-10 2093,-30 2113,-30 2113,-10 2093,-10"/>
<text text-anchor="start" x="2116.7812" y="-15.4" font-family="sans-serif" font-size="14.00" fill="#000000"> &#160;Bootstrap</text>
<polygon fill="#fdb462" stroke="transparent" points="2190,-10 2190,-30 2210,-30 2210,-10 2190,-10"/>
<text text-anchor="start" x="2213.6732" y="-15.4" font-family="sans-serif" font-size="14.00" fill="#000000"> &#160;Providers</text>
<polygon fill="#fb8072" stroke="transparent" points="2286,-10 2286,-30 2306,-30 2306,-10 2286,-10"/>
<text text-anchor="start" x="2309.7258" y="-15.4" font-family="sans-serif" font-size="14.00" fill="#000000"> &#160;Exports</text>
<g id="clust1" class="cluster">
<title>cluster_MaterialsModule</title>
<polygon fill="none" stroke="#000000" stroke-dasharray="1,5" points="8,-70 8,-195 4248,-195 4248,-70 8,-70"/>
</g>
<g id="clust2" class="cluster">
<title>cluster_MaterialsModule_declarations</title>
<polygon fill="none" stroke="#000000" points="1663,-78 1663,-130 4240,-130 4240,-78 1663,-78"/>
</g>
<g id="clust21" class="cluster">
<title>cluster_MaterialsModule_imports</title>
<polygon fill="none" stroke="#000000" points="16,-78 16,-130 1655,-130 1655,-78 16,-78"/>
</g>
<!-- AmapComponent -->
<g id="node1" class="node">
<title>AmapComponent</title>
<polygon fill="#ffffb3" stroke="#000000" points="4231.5451,-122 4116.4549,-122 4116.4549,-86 4231.5451,-86 4231.5451,-122"/>
<text text-anchor="middle" x="4174" y="-99.8" font-family="Times,serif" font-size="14.00" fill="#000000">AmapComponent</text>
</g>
<!-- MaterialsModule -->
<g id="node19" class="node">
<title>MaterialsModule</title>
<polygon fill="#8dd3c7" stroke="#000000" points="2122.416,-187 2119.416,-191 2098.416,-191 2095.416,-187 2009.584,-187 2009.584,-151 2122.416,-151 2122.416,-187"/>
<text text-anchor="middle" x="2066" y="-164.8" font-family="Times,serif" font-size="14.00" fill="#000000">MaterialsModule</text>
</g>
<!-- AmapComponent&#45;&gt;MaterialsModule -->
<g id="edge1" class="edge">
<title>AmapComponent&#45;&gt;MaterialsModule</title>
<path fill="none" stroke="#000000" d="M4174,-122.3802C4174,-146.2785 4174,-185 4174,-185 4174,-185 2132.3839,-185 2132.3839,-185"/>
<polygon fill="#000000" stroke="#000000" points="2132.3839,-181.5001 2122.3839,-185 2132.3839,-188.5001 2132.3839,-181.5001"/>
</g>
<!-- ButtonsComponent -->
<g id="node2" class="node">
<title>ButtonsComponent</title>
<polygon fill="#ffffb3" stroke="#000000" points="4098.3948,-122 3973.6052,-122 3973.6052,-86 4098.3948,-86 4098.3948,-122"/>
<text text-anchor="middle" x="4036" y="-99.8" font-family="Times,serif" font-size="14.00" fill="#000000">ButtonsComponent</text>
</g>
<!-- ButtonsComponent&#45;&gt;MaterialsModule -->
<g id="edge2" class="edge">
<title>ButtonsComponent&#45;&gt;MaterialsModule</title>
<path fill="none" stroke="#000000" d="M4036,-122.3228C4036,-145.6602 4036,-183 4036,-183 4036,-183 2132.3082,-183 2132.3082,-183"/>
<polygon fill="#000000" stroke="#000000" points="2132.3082,-179.5001 2122.3082,-183 2132.3082,-186.5001 2132.3082,-179.5001"/>
</g>
<!-- CalendarComponent -->
<g id="node3" class="node">
<title>CalendarComponent</title>
<polygon fill="#ffffb3" stroke="#000000" points="3955.8641,-122 3824.1359,-122 3824.1359,-86 3955.8641,-86 3955.8641,-122"/>
<text text-anchor="middle" x="3890" y="-99.8" font-family="Times,serif" font-size="14.00" fill="#000000">CalendarComponent</text>
</g>
<!-- CalendarComponent&#45;&gt;MaterialsModule -->
<g id="edge3" class="edge">
<title>CalendarComponent&#45;&gt;MaterialsModule</title>
<path fill="none" stroke="#000000" d="M3890,-122.0109C3890,-144.4852 3890,-180 3890,-180 3890,-180 2132.337,-180 2132.337,-180"/>
<polygon fill="#000000" stroke="#000000" points="2132.337,-176.5001 2122.337,-180 2132.337,-183.5001 2132.337,-176.5001"/>
</g>
<!-- CardsComponent -->
<g id="node4" class="node">
<title>CardsComponent</title>
<polygon fill="#ffffb3" stroke="#000000" points="3805.9888,-122 3692.0112,-122 3692.0112,-86 3805.9888,-86 3805.9888,-122"/>
<text text-anchor="middle" x="3749" y="-99.8" font-family="Times,serif" font-size="14.00" fill="#000000">CardsComponent</text>
</g>
<!-- CardsComponent&#45;&gt;MaterialsModule -->
<g id="edge4" class="edge">
<title>CardsComponent&#45;&gt;MaterialsModule</title>
<path fill="none" stroke="#000000" d="M3749,-122.2921C3749,-144.2057 3749,-178 3749,-178 3749,-178 2132.4777,-178 2132.4777,-178"/>
<polygon fill="#000000" stroke="#000000" points="2132.4777,-174.5001 2122.4777,-178 2132.4776,-181.5001 2132.4777,-174.5001"/>
</g>
<!-- ChatWidgetComponent -->
<g id="node5" class="node">
<title>ChatWidgetComponent</title>
<polygon fill="#ffffb3" stroke="#000000" points="3674.4846,-122 3525.5154,-122 3525.5154,-86 3674.4846,-86 3674.4846,-122"/>
<text text-anchor="middle" x="3600" y="-99.8" font-family="Times,serif" font-size="14.00" fill="#000000">ChatWidgetComponent</text>
</g>
<!-- ChatWidgetComponent&#45;&gt;MaterialsModule -->
<g id="edge5" class="edge">
<title>ChatWidgetComponent&#45;&gt;MaterialsModule</title>
<path fill="none" stroke="#000000" d="M3600,-122.2843C3600,-143.3211 3600,-175 3600,-175 3600,-175 2132.4151,-175 2132.4151,-175"/>
<polygon fill="#000000" stroke="#000000" points="2132.4152,-171.5001 2122.4151,-175 2132.4151,-178.5001 2132.4152,-171.5001"/>
</g>
<!-- DatePickerComponent -->
<g id="node6" class="node">
<title>DatePickerComponent</title>
<polygon fill="#ffffb3" stroke="#000000" points="3507.5226,-122 3364.4774,-122 3364.4774,-86 3507.5226,-86 3507.5226,-122"/>
<text text-anchor="middle" x="3436" y="-99.8" font-family="Times,serif" font-size="14.00" fill="#000000">DatePickerComponent</text>
</g>
<!-- DatePickerComponent&#45;&gt;MaterialsModule -->
<g id="edge6" class="edge">
<title>DatePickerComponent&#45;&gt;MaterialsModule</title>
<path fill="none" stroke="#000000" d="M3436,-122.1289C3436,-142.5724 3436,-173 3436,-173 3436,-173 2132.2597,-173 2132.2597,-173"/>
<polygon fill="#000000" stroke="#000000" points="2132.2598,-169.5001 2122.2597,-173 2132.2597,-176.5001 2132.2598,-169.5001"/>
</g>
<!-- DialogsComponent -->
<g id="node7" class="node">
<title>DialogsComponent</title>
<polygon fill="#ffffb3" stroke="#000000" points="3346.3795,-122 3221.6205,-122 3221.6205,-86 3346.3795,-86 3346.3795,-122"/>
<text text-anchor="middle" x="3284" y="-99.8" font-family="Times,serif" font-size="14.00" fill="#000000">DialogsComponent</text>
</g>
<!-- DialogsComponent&#45;&gt;MaterialsModule -->
<g id="edge7" class="edge">
<title>DialogsComponent&#45;&gt;MaterialsModule</title>
<path fill="none" stroke="#000000" d="M3284,-122.308C3284,-142.1455 3284,-171 3284,-171 3284,-171 2132.3039,-171 2132.3039,-171"/>
<polygon fill="#000000" stroke="#000000" points="2132.3039,-167.5001 2122.3039,-171 2132.3039,-174.5001 2132.3039,-167.5001"/>
</g>
<!-- IconComponent -->
<g id="node8" class="node">
<title>IconComponent</title>
<polygon fill="#ffffb3" stroke="#000000" points="3203.2078,-122 3096.7922,-122 3096.7922,-86 3203.2078,-86 3203.2078,-122"/>
<text text-anchor="middle" x="3150" y="-99.8" font-family="Times,serif" font-size="14.00" fill="#000000">IconComponent</text>
</g>
<!-- IconComponent&#45;&gt;MaterialsModule -->
<g id="edge8" class="edge">
<title>IconComponent&#45;&gt;MaterialsModule</title>
<path fill="none" stroke="#000000" d="M3150,-122.1686C3150,-141.0898 3150,-168 3150,-168 3150,-168 2132.3756,-168 2132.3756,-168"/>
<polygon fill="#000000" stroke="#000000" points="2132.3756,-164.5001 2122.3756,-168 2132.3755,-171.5001 2132.3756,-164.5001"/>
</g>
<!-- ListsComponent -->
<g id="node9" class="node">
<title>ListsComponent</title>
<polygon fill="#ffffb3" stroke="#000000" points="3079.0563,-122 2970.9437,-122 2970.9437,-86 3079.0563,-86 3079.0563,-122"/>
<text text-anchor="middle" x="3025" y="-99.8" font-family="Times,serif" font-size="14.00" fill="#000000">ListsComponent</text>
</g>
<!-- ListsComponent&#45;&gt;MaterialsModule -->
<g id="edge9" class="edge">
<title>ListsComponent&#45;&gt;MaterialsModule</title>
<path fill="none" stroke="#000000" d="M3025,-122.2667C3025,-140.5552 3025,-166 3025,-166 3025,-166 2132.4095,-166 2132.4095,-166"/>
<polygon fill="#000000" stroke="#000000" points="2132.4096,-162.5001 2122.4095,-166 2132.4095,-169.5001 2132.4096,-162.5001"/>
</g>
<!-- MarkdownComponent -->
<g id="node10" class="node">
<title>MarkdownComponent</title>
<polygon fill="#ffffb3" stroke="#000000" points="2952.259,-122 2809.741,-122 2809.741,-86 2952.259,-86 2952.259,-122"/>
<text text-anchor="middle" x="2881" y="-99.8" font-family="Times,serif" font-size="14.00" fill="#000000">MarkdownComponent</text>
</g>
<!-- MarkdownComponent&#45;&gt;MaterialsModule -->
<g id="edge10" class="edge">
<title>MarkdownComponent&#45;&gt;MaterialsModule</title>
<path fill="none" stroke="#000000" d="M2881,-122.0225C2881,-139.3734 2881,-163 2881,-163 2881,-163 2132.3398,-163 2132.3398,-163"/>
<polygon fill="#000000" stroke="#000000" points="2132.3398,-159.5001 2122.3398,-163 2132.3398,-166.5001 2132.3398,-159.5001"/>
</g>
<!-- MenuComponent -->
<g id="node11" class="node">
<title>MenuComponent</title>
<polygon fill="#ffffb3" stroke="#000000" points="2791.9916,-122 2678.0084,-122 2678.0084,-86 2791.9916,-86 2791.9916,-122"/>
<text text-anchor="middle" x="2735" y="-99.8" font-family="Times,serif" font-size="14.00" fill="#000000">MenuComponent</text>
</g>
<!-- MenuComponent&#45;&gt;MaterialsModule -->
<g id="edge11" class="edge">
<title>MenuComponent&#45;&gt;MaterialsModule</title>
<path fill="none" stroke="#000000" d="M2735,-122.0352C2735,-138.7344 2735,-161 2735,-161 2735,-161 2132.462,-161 2132.462,-161"/>
<polygon fill="#000000" stroke="#000000" points="2132.462,-157.5001 2122.462,-161 2132.462,-164.5001 2132.462,-157.5001"/>
</g>
<!-- NotificationComponent -->
<g id="node12" class="node">
<title>NotificationComponent</title>
<polygon fill="#ffffb3" stroke="#000000" points="2660.4818,-122 2511.5182,-122 2511.5182,-86 2660.4818,-86 2660.4818,-122"/>
<text text-anchor="middle" x="2586" y="-99.8" font-family="Times,serif" font-size="14.00" fill="#000000">NotificationComponent</text>
</g>
<!-- NotificationComponent&#45;&gt;MaterialsModule -->
<g id="edge12" class="edge">
<title>NotificationComponent&#45;&gt;MaterialsModule</title>
<path fill="none" stroke="#000000" d="M2586,-122.0091C2586,-138.0494 2586,-159 2586,-159 2586,-159 2132.639,-159 2132.639,-159"/>
<polygon fill="#000000" stroke="#000000" points="2132.639,-155.5001 2122.639,-159 2132.639,-162.5001 2132.639,-155.5001"/>
</g>
<!-- PaginationComponent -->
<g id="node13" class="node">
<title>PaginationComponent</title>
<polygon fill="#ffffb3" stroke="#000000" points="2493.7162,-122 2352.2838,-122 2352.2838,-86 2493.7162,-86 2493.7162,-122"/>
<text text-anchor="middle" x="2423" y="-99.8" font-family="Times,serif" font-size="14.00" fill="#000000">PaginationComponent</text>
</g>
<!-- PaginationComponent&#45;&gt;MaterialsModule -->
<g id="edge13" class="edge">
<title>PaginationComponent&#45;&gt;MaterialsModule</title>
<path fill="none" stroke="#000000" d="M2423,-122.1871C2423,-137.1824 2423,-156 2423,-156 2423,-156 2132.5677,-156 2132.5677,-156"/>
<polygon fill="#000000" stroke="#000000" points="2132.5677,-152.5001 2122.5677,-156 2132.5677,-159.5001 2132.5677,-152.5001"/>
</g>
<!-- PopoverComponent -->
<g id="node14" class="node">
<title>PopoverComponent</title>
<polygon fill="#ffffb3" stroke="#000000" points="2333.9902,-122 2206.0098,-122 2206.0098,-86 2333.9902,-86 2333.9902,-122"/>
<text text-anchor="middle" x="2270" y="-99.8" font-family="Times,serif" font-size="14.00" fill="#000000">PopoverComponent</text>
</g>
<!-- PopoverComponent&#45;&gt;MaterialsModule -->
<g id="edge14" class="edge">
<title>PopoverComponent&#45;&gt;MaterialsModule</title>
<path fill="none" stroke="#000000" d="M2270,-122.0511C2270,-136.373 2270,-154 2270,-154 2270,-154 2132.2839,-154 2132.2839,-154"/>
<polygon fill="#000000" stroke="#000000" points="2132.2839,-150.5001 2122.2839,-154 2132.2839,-157.5001 2132.2839,-150.5001"/>
</g>
<!-- SliderComponent -->
<g id="node15" class="node">
<title>SliderComponent</title>
<polygon fill="#ffffb3" stroke="#000000" points="2188.2716,-122 2073.7284,-122 2073.7284,-86 2188.2716,-86 2188.2716,-122"/>
<text text-anchor="middle" x="2131" y="-99.8" font-family="Times,serif" font-size="14.00" fill="#000000">SliderComponent</text>
</g>
<!-- SliderComponent&#45;&gt;MaterialsModule -->
<g id="edge15" class="edge">
<title>SliderComponent&#45;&gt;MaterialsModule</title>
<path fill="none" stroke="#000000" d="M2097.911,-122.1061C2097.911,-122.1061 2097.911,-140.991 2097.911,-140.991"/>
<polygon fill="#000000" stroke="#000000" points="2094.411,-140.9909 2097.911,-150.991 2101.411,-140.991 2094.411,-140.9909"/>
</g>
<!-- TabsComponent -->
<g id="node16" class="node">
<title>TabsComponent</title>
<polygon fill="#ffffb3" stroke="#000000" points="2055.0452,-122 1946.9548,-122 1946.9548,-86 2055.0452,-86 2055.0452,-122"/>
<text text-anchor="middle" x="2001" y="-99.8" font-family="Times,serif" font-size="14.00" fill="#000000">TabsComponent</text>
</g>
<!-- TabsComponent&#45;&gt;MaterialsModule -->
<g id="edge16" class="edge">
<title>TabsComponent&#45;&gt;MaterialsModule</title>
<path fill="none" stroke="#000000" d="M2032.5323,-122.1061C2032.5323,-122.1061 2032.5323,-140.991 2032.5323,-140.991"/>
<polygon fill="#000000" stroke="#000000" points="2029.0323,-140.9909 2032.5323,-150.991 2036.0323,-140.991 2029.0323,-140.9909"/>
</g>
<!-- ToastComponent -->
<g id="node17" class="node">
<title>ToastComponent</title>
<polygon fill="#ffffb3" stroke="#000000" points="1929.4356,-122 1816.5644,-122 1816.5644,-86 1929.4356,-86 1929.4356,-122"/>
<text text-anchor="middle" x="1873" y="-99.8" font-family="Times,serif" font-size="14.00" fill="#000000">ToastComponent</text>
</g>
<!-- ToastComponent&#45;&gt;MaterialsModule -->
<g id="edge17" class="edge">
<title>ToastComponent&#45;&gt;MaterialsModule</title>
<path fill="none" stroke="#000000" d="M1873,-122.0511C1873,-136.373 1873,-154 1873,-154 1873,-154 1999.6576,-154 1999.6576,-154"/>
<polygon fill="#000000" stroke="#000000" points="1999.6576,-157.5001 2009.6576,-154 1999.6575,-150.5001 1999.6576,-157.5001"/>
</g>
<!-- TooltipsComponent -->
<g id="node18" class="node">
<title>TooltipsComponent</title>
<polygon fill="#ffffb3" stroke="#000000" points="1799.0014,-122 1670.9986,-122 1670.9986,-86 1799.0014,-86 1799.0014,-122"/>
<text text-anchor="middle" x="1735" y="-99.8" font-family="Times,serif" font-size="14.00" fill="#000000">TooltipsComponent</text>
</g>
<!-- TooltipsComponent&#45;&gt;MaterialsModule -->
<g id="edge18" class="edge">
<title>TooltipsComponent&#45;&gt;MaterialsModule</title>
<path fill="none" stroke="#000000" d="M1735,-122.1871C1735,-137.1824 1735,-156 1735,-156 1735,-156 1999.4752,-156 1999.4752,-156"/>
<polygon fill="#000000" stroke="#000000" points="1999.4752,-159.5001 2009.4752,-156 1999.4751,-152.5001 1999.4752,-159.5001"/>
</g>
<!-- AmapModule -->
<g id="node20" class="node">
<title>AmapModule</title>
<polygon fill="#8dd3c7" stroke="#000000" points="1646.7619,-122 1643.7619,-126 1622.7619,-126 1619.7619,-122 1553.2381,-122 1553.2381,-86 1646.7619,-86 1646.7619,-122"/>
<text text-anchor="middle" x="1600" y="-99.8" font-family="Times,serif" font-size="14.00" fill="#000000">AmapModule</text>
</g>
<!-- AmapModule&#45;&gt;MaterialsModule -->
<g id="edge19" class="edge">
<title>AmapModule&#45;&gt;MaterialsModule</title>
<path fill="none" stroke="#000000" d="M1600,-122.0091C1600,-138.0494 1600,-159 1600,-159 1600,-159 1999.7895,-159 1999.7895,-159"/>
<polygon fill="#000000" stroke="#000000" points="1999.7895,-162.5001 2009.7895,-159 1999.7895,-155.5001 1999.7895,-162.5001"/>
</g>
<!-- ButtonModule -->
<g id="node21" class="node">
<title>ButtonModule</title>
<polygon fill="#8dd3c7" stroke="#000000" points="1534.6682,-122 1531.6682,-126 1510.6682,-126 1507.6682,-122 1437.3318,-122 1437.3318,-86 1534.6682,-86 1534.6682,-122"/>
<text text-anchor="middle" x="1486" y="-99.8" font-family="Times,serif" font-size="14.00" fill="#000000">ButtonModule</text>
</g>
<!-- ButtonModule&#45;&gt;MaterialsModule -->
<g id="edge20" class="edge">
<title>ButtonModule&#45;&gt;MaterialsModule</title>
<path fill="none" stroke="#000000" d="M1486,-122.0352C1486,-138.7344 1486,-161 1486,-161 1486,-161 1999.5959,-161 1999.5959,-161"/>
<polygon fill="#000000" stroke="#000000" points="1999.5959,-164.5001 2009.5959,-161 1999.5959,-157.5001 1999.5959,-164.5001"/>
</g>
<!-- ChatWidgetModule -->
<g id="node22" class="node">
<title>ChatWidgetModule</title>
<polygon fill="#8dd3c7" stroke="#000000" points="1419.7022,-122 1416.7022,-126 1395.7022,-126 1392.7022,-122 1292.2978,-122 1292.2978,-86 1419.7022,-86 1419.7022,-122"/>
<text text-anchor="middle" x="1356" y="-99.8" font-family="Times,serif" font-size="14.00" fill="#000000">ChatWidgetModule</text>
</g>
<!-- ChatWidgetModule&#45;&gt;MaterialsModule -->
<g id="edge21" class="edge">
<title>ChatWidgetModule&#45;&gt;MaterialsModule</title>
<path fill="none" stroke="#000000" d="M1356,-122.0225C1356,-139.3734 1356,-163 1356,-163 1356,-163 1999.694,-163 1999.694,-163"/>
<polygon fill="#000000" stroke="#000000" points="1999.6941,-166.5001 2009.694,-163 1999.694,-159.5001 1999.6941,-166.5001"/>
</g>
<!-- DatePickerModule -->
<g id="node23" class="node">
<title>DatePickerModule</title>
<polygon fill="#8dd3c7" stroke="#000000" points="1274.7395,-122 1271.7395,-126 1250.7395,-126 1247.7395,-122 1153.2605,-122 1153.2605,-86 1274.7395,-86 1274.7395,-122"/>
<text text-anchor="middle" x="1214" y="-99.8" font-family="Times,serif" font-size="14.00" fill="#000000">DatePickerModule</text>
</g>
<!-- DatePickerModule&#45;&gt;MaterialsModule -->
<g id="edge22" class="edge">
<title>DatePickerModule&#45;&gt;MaterialsModule</title>
<path fill="none" stroke="#000000" d="M1214,-122.2667C1214,-140.5552 1214,-166 1214,-166 1214,-166 1999.7684,-166 1999.7684,-166"/>
<polygon fill="#000000" stroke="#000000" points="1999.7684,-169.5001 2009.7684,-166 1999.7684,-162.5001 1999.7684,-169.5001"/>
</g>
<!-- FileUploadModule -->
<g id="node24" class="node">
<title>FileUploadModule</title>
<polygon fill="#8dd3c7" stroke="#000000" points="1135.0409,-122 1132.0409,-126 1111.0409,-126 1108.0409,-122 1012.9591,-122 1012.9591,-86 1135.0409,-86 1135.0409,-122"/>
<text text-anchor="middle" x="1074" y="-99.8" font-family="Times,serif" font-size="14.00" fill="#000000">FileUploadModule</text>
</g>
<!-- FileUploadModule&#45;&gt;MaterialsModule -->
<g id="edge23" class="edge">
<title>FileUploadModule&#45;&gt;MaterialsModule</title>
<path fill="none" stroke="#000000" d="M1074,-122.1686C1074,-141.0898 1074,-168 1074,-168 1074,-168 1999.4637,-168 1999.4637,-168"/>
<polygon fill="#000000" stroke="#000000" points="1999.4637,-171.5001 2009.4637,-168 1999.4636,-164.5001 1999.4637,-171.5001"/>
</g>
<!-- GithubButtonModule -->
<g id="node25" class="node">
<title>GithubButtonModule</title>
<polygon fill="#8dd3c7" stroke="#000000" points="994.0561,-122 991.0561,-126 970.0561,-126 967.0561,-122 857.9439,-122 857.9439,-86 994.0561,-86 994.0561,-122"/>
<text text-anchor="middle" x="926" y="-99.8" font-family="Times,serif" font-size="14.00" fill="#000000">GithubButtonModule</text>
</g>
<!-- GithubButtonModule&#45;&gt;MaterialsModule -->
<g id="edge24" class="edge">
<title>GithubButtonModule&#45;&gt;MaterialsModule</title>
<path fill="none" stroke="#000000" d="M926,-122.308C926,-142.1455 926,-171 926,-171 926,-171 1999.4672,-171 1999.4672,-171"/>
<polygon fill="#000000" stroke="#000000" points="1999.4673,-174.5001 2009.4672,-171 1999.4672,-167.5001 1999.4673,-174.5001"/>
</g>
<!-- MaterialsRoutingModule -->
<g id="node26" class="node">
<title>MaterialsRoutingModule</title>
<polygon fill="#8dd3c7" stroke="#000000" points="839.5337,-122 836.5337,-126 815.5337,-126 812.5337,-122 682.4663,-122 682.4663,-86 839.5337,-86 839.5337,-122"/>
<text text-anchor="middle" x="761" y="-99.8" font-family="Times,serif" font-size="14.00" fill="#000000">MaterialsRoutingModule</text>
</g>
<!-- MaterialsRoutingModule&#45;&gt;MaterialsModule -->
<g id="edge25" class="edge">
<title>MaterialsRoutingModule&#45;&gt;MaterialsModule</title>
<path fill="none" stroke="#000000" d="M761,-122.1289C761,-142.5724 761,-173 761,-173 761,-173 1999.5069,-173 1999.5069,-173"/>
<polygon fill="#000000" stroke="#000000" points="1999.5069,-176.5001 2009.5069,-173 1999.5069,-169.5001 1999.5069,-176.5001"/>
</g>
<!-- NotificaitonModule -->
<g id="node27" class="node">
<title>NotificaitonModule</title>
<polygon fill="#8dd3c7" stroke="#000000" points="664.6994,-122 661.6994,-126 640.6994,-126 637.6994,-122 537.3006,-122 537.3006,-86 664.6994,-86 664.6994,-122"/>
<text text-anchor="middle" x="601" y="-99.8" font-family="Times,serif" font-size="14.00" fill="#000000">NotificaitonModule</text>
</g>
<!-- NotificaitonModule&#45;&gt;MaterialsModule -->
<g id="edge26" class="edge">
<title>NotificaitonModule&#45;&gt;MaterialsModule</title>
<path fill="none" stroke="#000000" d="M601,-122.2843C601,-143.3211 601,-175 601,-175 601,-175 1999.4679,-175 1999.4679,-175"/>
<polygon fill="#000000" stroke="#000000" points="1999.468,-178.5001 2009.4679,-175 1999.4679,-171.5001 1999.468,-178.5001"/>
</g>
<!-- PaginationModule -->
<g id="node28" class="node">
<title>PaginationModule</title>
<polygon fill="#8dd3c7" stroke="#000000" points="519.9342,-122 516.9342,-126 495.9342,-126 492.9342,-122 400.0658,-122 400.0658,-86 519.9342,-86 519.9342,-122"/>
<text text-anchor="middle" x="460" y="-99.8" font-family="Times,serif" font-size="14.00" fill="#000000">PaginationModule</text>
</g>
<!-- PaginationModule&#45;&gt;MaterialsModule -->
<g id="edge27" class="edge">
<title>PaginationModule&#45;&gt;MaterialsModule</title>
<path fill="none" stroke="#000000" d="M460,-122.2921C460,-144.2057 460,-178 460,-178 460,-178 1999.7833,-178 1999.7833,-178"/>
<polygon fill="#000000" stroke="#000000" points="1999.7833,-181.5001 2009.7833,-178 1999.7833,-174.5001 1999.7833,-181.5001"/>
</g>
<!-- PopoverModule -->
<g id="node29" class="node">
<title>PopoverModule</title>
<polygon fill="#8dd3c7" stroke="#000000" points="382.2078,-122 379.2078,-126 358.2078,-126 355.2078,-122 275.7922,-122 275.7922,-86 382.2078,-86 382.2078,-122"/>
<text text-anchor="middle" x="329" y="-99.8" font-family="Times,serif" font-size="14.00" fill="#000000">PopoverModule</text>
</g>
<!-- PopoverModule&#45;&gt;MaterialsModule -->
<g id="edge28" class="edge">
<title>PopoverModule&#45;&gt;MaterialsModule</title>
<path fill="none" stroke="#000000" d="M329,-122.0109C329,-144.4852 329,-180 329,-180 329,-180 1999.6853,-180 1999.6853,-180"/>
<polygon fill="#000000" stroke="#000000" points="1999.6853,-183.5001 2009.6853,-180 1999.6853,-176.5001 1999.6853,-183.5001"/>
</g>
<!-- SharedModule -->
<g id="node30" class="node">
<title>SharedModule</title>
<polygon fill="#8dd3c7" stroke="#000000" points="258.4231,-122 255.4231,-126 234.4231,-126 231.4231,-122 159.5769,-122 159.5769,-86 258.4231,-86 258.4231,-122"/>
<text text-anchor="middle" x="209" y="-99.8" font-family="Times,serif" font-size="14.00" fill="#000000">SharedModule</text>
</g>
<!-- SharedModule&#45;&gt;MaterialsModule -->
<g id="edge29" class="edge">
<title>SharedModule&#45;&gt;MaterialsModule</title>
<path fill="none" stroke="#000000" d="M209,-122.3228C209,-145.6602 209,-183 209,-183 209,-183 1999.664,-183 1999.664,-183"/>
<polygon fill="#000000" stroke="#000000" points="1999.664,-186.5001 2009.664,-183 1999.664,-179.5001 1999.664,-186.5001"/>
</g>
<!-- SpeedDialModule -->
<g id="node31" class="node">
<title>SpeedDialModule</title>
<polygon fill="#8dd3c7" stroke="#000000" points="141.8641,-122 138.8641,-126 117.8641,-126 114.8641,-122 24.1359,-122 24.1359,-86 141.8641,-86 141.8641,-122"/>
<text text-anchor="middle" x="83" y="-99.8" font-family="Times,serif" font-size="14.00" fill="#000000">SpeedDialModule</text>
</g>
<!-- SpeedDialModule&#45;&gt;MaterialsModule -->
<g id="edge30" class="edge">
<title>SpeedDialModule&#45;&gt;MaterialsModule</title>
<path fill="none" stroke="#000000" d="M83,-122.3802C83,-146.2785 83,-185 83,-185 83,-185 1999.5839,-185 1999.5839,-185"/>
<polygon fill="#000000" stroke="#000000" points="1999.5839,-188.5001 2009.5839,-185 1999.5838,-181.5001 1999.5839,-188.5001"/>
</g>
</g>
</svg>
