<?xml version="1.0" encoding="UTF-8" standalone="no"?>
<!DOCTYPE svg PUBLIC "-//W3C//DTD SVG 1.1//EN"
 "http://www.w3.org/Graphics/SVG/1.1/DTD/svg11.dtd">
<!-- Generated by graphviz version 2.40.1 (20161225.0304)
 -->
<!-- Title: dependencies Pages: 1 -->
<svg width="2854pt" height="211pt"
 viewBox="0.00 0.00 2854.00 211.00" xmlns="http://www.w3.org/2000/svg" xmlns:xlink="http://www.w3.org/1999/xlink">
<g id="graph0" class="graph" transform="scale(1 1) rotate(0) translate(4 207)">
<title>dependencies</title>
<polygon fill="#ffffff" stroke="transparent" points="-4,4 -4,-207 2850,-207 2850,4 -4,4"/>
<text text-anchor="start" x="1402.0091" y="-42.4" font-family="sans-serif" font-weight="bold" font-size="14.00" fill="#000000">Legend</text>
<polygon fill="#ffffb3" stroke="transparent" points="1189,-10 1189,-30 1209,-30 1209,-10 1189,-10"/>
<text text-anchor="start" x="1212.629" y="-15.4" font-family="sans-serif" font-size="14.00" fill="#000000"> &#160;Declarations</text>
<polygon fill="#8dd3c7" stroke="transparent" points="1302,-10 1302,-30 1322,-30 1322,-10 1302,-10"/>
<text text-anchor="start" x="1325.7251" y="-15.4" font-family="sans-serif" font-size="14.00" fill="#000000"> &#160;Module</text>
<polygon fill="#80b1d3" stroke="transparent" points="1388,-10 1388,-30 1408,-30 1408,-10 1388,-10"/>
<text text-anchor="start" x="1411.7812" y="-15.4" font-family="sans-serif" font-size="14.00" fill="#000000"> &#160;Bootstrap</text>
<polygon fill="#fdb462" stroke="transparent" points="1485,-10 1485,-30 1505,-30 1505,-10 1485,-10"/>
<text text-anchor="start" x="1508.6732" y="-15.4" font-family="sans-serif" font-size="14.00" fill="#000000"> &#160;Providers</text>
<polygon fill="#fb8072" stroke="transparent" points="1581,-10 1581,-30 1601,-30 1601,-10 1581,-10"/>
<text text-anchor="start" x="1604.7258" y="-15.4" font-family="sans-serif" font-size="14.00" fill="#000000"> &#160;Exports</text>
<g id="clust1" class="cluster">
<title>cluster_MaterialsModule</title>
<polygon fill="none" stroke="#000000" stroke-dasharray="1,5" points="8,-70 8,-195 2838,-195 2838,-70 8,-70"/>
</g>
<g id="clust2" class="cluster">
<title>cluster_MaterialsModule_declarations</title>
<polygon fill="none" stroke="#000000" points="710,-78 710,-130 2830,-130 2830,-78 710,-78"/>
</g>
<g id="clust18" class="cluster">
<title>cluster_MaterialsModule_imports</title>
<polygon fill="none" stroke="#000000" points="16,-78 16,-130 702,-130 702,-78 16,-78"/>
</g>
<!-- ToastComponent -->
<g id="node1" class="node">
<title>ToastComponent</title>
<polygon fill="#ffffb3" stroke="#000000" points="2822.4356,-122 2709.5644,-122 2709.5644,-86 2822.4356,-86 2822.4356,-122"/>
<text text-anchor="middle" x="2766" y="-99.8" font-family="Times,serif" font-size="14.00" fill="#000000">ToastComponent</text>
</g>
<!-- MaterialsModule -->
<g id="node16" class="node">
<title>MaterialsModule</title>
<polygon fill="#8dd3c7" stroke="#000000" points="1523.416,-187 1520.416,-191 1499.416,-191 1496.416,-187 1410.584,-187 1410.584,-151 1523.416,-151 1523.416,-187"/>
<text text-anchor="middle" x="1467" y="-164.8" font-family="Times,serif" font-size="14.00" fill="#000000">MaterialsModule</text>
</g>
<!-- ToastComponent&#45;&gt;MaterialsModule -->
<g id="edge1" class="edge">
<title>ToastComponent&#45;&gt;MaterialsModule</title>
<path fill="none" stroke="#000000" d="M2766,-122.1532C2766,-145.7566 2766,-184 2766,-184 2766,-184 1533.2333,-184 1533.2333,-184"/>
<polygon fill="#000000" stroke="#000000" points="1533.2334,-180.5001 1523.2333,-184 1533.2333,-187.5001 1533.2334,-180.5001"/>
</g>
<!-- ButtonsComponent -->
<g id="node2" class="node">
<title>ButtonsComponent</title>
<polygon fill="#ffffb3" stroke="#000000" points="2691.3948,-122 2566.6052,-122 2566.6052,-86 2691.3948,-86 2691.3948,-122"/>
<text text-anchor="middle" x="2629" y="-99.8" font-family="Times,serif" font-size="14.00" fill="#000000">ButtonsComponent</text>
</g>
<!-- ButtonsComponent&#45;&gt;MaterialsModule -->
<g id="edge2" class="edge">
<title>ButtonsComponent&#45;&gt;MaterialsModule</title>
<path fill="none" stroke="#000000" d="M2629,-122.0109C2629,-144.4852 2629,-180 2629,-180 2629,-180 1533.4384,-180 1533.4384,-180"/>
<polygon fill="#000000" stroke="#000000" points="1533.4384,-176.5001 1523.4384,-180 1533.4383,-183.5001 1533.4384,-176.5001"/>
</g>
<!-- CardsComponent -->
<g id="node3" class="node">
<title>CardsComponent</title>
<polygon fill="#ffffb3" stroke="#000000" points="2548.9888,-122 2435.0112,-122 2435.0112,-86 2548.9888,-86 2548.9888,-122"/>
<text text-anchor="middle" x="2492" y="-99.8" font-family="Times,serif" font-size="14.00" fill="#000000">CardsComponent</text>
</g>
<!-- CardsComponent&#45;&gt;MaterialsModule -->
<g id="edge3" class="edge">
<title>CardsComponent&#45;&gt;MaterialsModule</title>
<path fill="none" stroke="#000000" d="M2492,-122.0449C2492,-143.6623 2492,-177 2492,-177 2492,-177 1533.5685,-177 1533.5685,-177"/>
<polygon fill="#000000" stroke="#000000" points="1533.5685,-173.5001 1523.5685,-177 1533.5684,-180.5001 1533.5685,-173.5001"/>
</g>
<!-- TooltipsComponent -->
<g id="node4" class="node">
<title>TooltipsComponent</title>
<polygon fill="#ffffb3" stroke="#000000" points="2417.0014,-122 2288.9986,-122 2288.9986,-86 2417.0014,-86 2417.0014,-122"/>
<text text-anchor="middle" x="2353" y="-99.8" font-family="Times,serif" font-size="14.00" fill="#000000">TooltipsComponent</text>
</g>
<!-- TooltipsComponent&#45;&gt;MaterialsModule -->
<g id="edge4" class="edge">
<title>TooltipsComponent&#45;&gt;MaterialsModule</title>
<path fill="none" stroke="#000000" d="M2353,-122.1289C2353,-142.5724 2353,-173 2353,-173 2353,-173 1533.4328,-173 1533.4328,-173"/>
<polygon fill="#000000" stroke="#000000" points="1533.4329,-169.5001 1523.4328,-173 1533.4328,-176.5001 1533.4329,-169.5001"/>
</g>
<!-- DialogsComponent -->
<g id="node5" class="node">
<title>DialogsComponent</title>
<polygon fill="#ffffb3" stroke="#000000" points="2271.3795,-122 2146.6205,-122 2146.6205,-86 2271.3795,-86 2271.3795,-122"/>
<text text-anchor="middle" x="2209" y="-99.8" font-family="Times,serif" font-size="14.00" fill="#000000">DialogsComponent</text>
</g>
<!-- DialogsComponent&#45;&gt;MaterialsModule -->
<g id="edge5" class="edge">
<title>DialogsComponent&#45;&gt;MaterialsModule</title>
<path fill="none" stroke="#000000" d="M2209,-122.1061C2209,-141.3391 2209,-169 2209,-169 2209,-169 1533.3796,-169 1533.3796,-169"/>
<polygon fill="#000000" stroke="#000000" points="1533.3796,-165.5001 1523.3796,-169 1533.3796,-172.5001 1533.3796,-165.5001"/>
</g>
<!-- ListsComponent -->
<g id="node6" class="node">
<title>ListsComponent</title>
<polygon fill="#ffffb3" stroke="#000000" points="2128.0563,-122 2019.9437,-122 2019.9437,-86 2128.0563,-86 2128.0563,-122"/>
<text text-anchor="middle" x="2074" y="-99.8" font-family="Times,serif" font-size="14.00" fill="#000000">ListsComponent</text>
</g>
<!-- ListsComponent&#45;&gt;MaterialsModule -->
<g id="edge6" class="edge">
<title>ListsComponent&#45;&gt;MaterialsModule</title>
<path fill="none" stroke="#000000" d="M2074,-122.2667C2074,-140.5552 2074,-166 2074,-166 2074,-166 1533.2883,-166 1533.2883,-166"/>
<polygon fill="#000000" stroke="#000000" points="1533.2883,-162.5001 1523.2883,-166 1533.2882,-169.5001 1533.2883,-162.5001"/>
</g>
<!-- MenuComponent -->
<g id="node7" class="node">
<title>MenuComponent</title>
<polygon fill="#ffffb3" stroke="#000000" points="2001.9916,-122 1888.0084,-122 1888.0084,-86 2001.9916,-86 2001.9916,-122"/>
<text text-anchor="middle" x="1945" y="-99.8" font-family="Times,serif" font-size="14.00" fill="#000000">MenuComponent</text>
</g>
<!-- MenuComponent&#45;&gt;MaterialsModule -->
<g id="edge7" class="edge">
<title>MenuComponent&#45;&gt;MaterialsModule</title>
<path fill="none" stroke="#000000" d="M1945,-122.0336C1945,-139.0597 1945,-162 1945,-162 1945,-162 1533.2383,-162 1533.2383,-162"/>
<polygon fill="#000000" stroke="#000000" points="1533.2383,-158.5001 1523.2383,-162 1533.2382,-165.5001 1533.2383,-158.5001"/>
</g>
<!-- SliderComponent -->
<g id="node8" class="node">
<title>SliderComponent</title>
<polygon fill="#ffffb3" stroke="#000000" points="1870.2716,-122 1755.7284,-122 1755.7284,-86 1870.2716,-86 1870.2716,-122"/>
<text text-anchor="middle" x="1813" y="-99.8" font-family="Times,serif" font-size="14.00" fill="#000000">SliderComponent</text>
</g>
<!-- SliderComponent&#45;&gt;MaterialsModule -->
<g id="edge8" class="edge">
<title>SliderComponent&#45;&gt;MaterialsModule</title>
<path fill="none" stroke="#000000" d="M1813,-122.0091C1813,-138.0494 1813,-159 1813,-159 1813,-159 1533.3609,-159 1533.3609,-159"/>
<polygon fill="#000000" stroke="#000000" points="1533.361,-155.5001 1523.3609,-159 1533.3609,-162.5001 1533.361,-155.5001"/>
</g>
<!-- TabsComponent -->
<g id="node9" class="node">
<title>TabsComponent</title>
<polygon fill="#ffffb3" stroke="#000000" points="1737.0452,-122 1628.9548,-122 1628.9548,-86 1737.0452,-86 1737.0452,-122"/>
<text text-anchor="middle" x="1683" y="-99.8" font-family="Times,serif" font-size="14.00" fill="#000000">TabsComponent</text>
</g>
<!-- TabsComponent&#45;&gt;MaterialsModule -->
<g id="edge9" class="edge">
<title>TabsComponent&#45;&gt;MaterialsModule</title>
<path fill="none" stroke="#000000" d="M1683,-122.1243C1683,-136.7832 1683,-155 1683,-155 1683,-155 1533.4693,-155 1533.4693,-155"/>
<polygon fill="#000000" stroke="#000000" points="1533.4694,-151.5001 1523.4693,-155 1533.4693,-158.5001 1533.4694,-151.5001"/>
</g>
<!-- PaginationComponent -->
<g id="node10" class="node">
<title>PaginationComponent</title>
<polygon fill="#ffffb3" stroke="#000000" points="1610.7162,-122 1469.2838,-122 1469.2838,-86 1610.7162,-86 1610.7162,-122"/>
<text text-anchor="middle" x="1540" y="-99.8" font-family="Times,serif" font-size="14.00" fill="#000000">PaginationComponent</text>
</g>
<!-- PaginationComponent&#45;&gt;MaterialsModule -->
<g id="edge10" class="edge">
<title>PaginationComponent&#45;&gt;MaterialsModule</title>
<path fill="none" stroke="#000000" d="M1496.2998,-122.1061C1496.2998,-122.1061 1496.2998,-140.991 1496.2998,-140.991"/>
<polygon fill="#000000" stroke="#000000" points="1492.7999,-140.9909 1496.2998,-150.991 1499.7999,-140.991 1492.7999,-140.9909"/>
</g>
<!-- AmapComponent -->
<g id="node11" class="node">
<title>AmapComponent</title>
<polygon fill="#ffffb3" stroke="#000000" points="1451.5451,-122 1336.4549,-122 1336.4549,-86 1451.5451,-86 1451.5451,-122"/>
<text text-anchor="middle" x="1394" y="-99.8" font-family="Times,serif" font-size="14.00" fill="#000000">AmapComponent</text>
</g>
<!-- AmapComponent&#45;&gt;MaterialsModule -->
<g id="edge11" class="edge">
<title>AmapComponent&#45;&gt;MaterialsModule</title>
<path fill="none" stroke="#000000" d="M1431.2823,-122.1061C1431.2823,-122.1061 1431.2823,-140.991 1431.2823,-140.991"/>
<polygon fill="#000000" stroke="#000000" points="1427.7823,-140.9909 1431.2823,-150.991 1434.7823,-140.991 1427.7823,-140.9909"/>
</g>
<!-- DatePickerComponent -->
<g id="node12" class="node">
<title>DatePickerComponent</title>
<polygon fill="#ffffb3" stroke="#000000" points="1317.5226,-122 1174.4774,-122 1174.4774,-86 1317.5226,-86 1317.5226,-122"/>
<text text-anchor="middle" x="1246" y="-99.8" font-family="Times,serif" font-size="14.00" fill="#000000">DatePickerComponent</text>
</g>
<!-- DatePickerComponent&#45;&gt;MaterialsModule -->
<g id="edge12" class="edge">
<title>DatePickerComponent&#45;&gt;MaterialsModule</title>
<path fill="none" stroke="#000000" d="M1246,-122.1243C1246,-136.7832 1246,-155 1246,-155 1246,-155 1400.6605,-155 1400.6605,-155"/>
<polygon fill="#000000" stroke="#000000" points="1400.6606,-158.5001 1410.6605,-155 1400.6605,-151.5001 1400.6606,-158.5001"/>
</g>
<!-- MarkdownComponent -->
<g id="node13" class="node">
<title>MarkdownComponent</title>
<polygon fill="#ffffb3" stroke="#000000" points="1156.259,-122 1013.741,-122 1013.741,-86 1156.259,-86 1156.259,-122"/>
<text text-anchor="middle" x="1085" y="-99.8" font-family="Times,serif" font-size="14.00" fill="#000000">MarkdownComponent</text>
</g>
<!-- MarkdownComponent&#45;&gt;MaterialsModule -->
<g id="edge13" class="edge">
<title>MarkdownComponent&#45;&gt;MaterialsModule</title>
<path fill="none" stroke="#000000" d="M1085,-122.0091C1085,-138.0494 1085,-159 1085,-159 1085,-159 1400.6346,-159 1400.6346,-159"/>
<polygon fill="#000000" stroke="#000000" points="1400.6346,-162.5001 1410.6346,-159 1400.6345,-155.5001 1400.6346,-162.5001"/>
</g>
<!-- PopoverComponent -->
<g id="node14" class="node">
<title>PopoverComponent</title>
<polygon fill="#ffffb3" stroke="#000000" points="995.9902,-122 868.0098,-122 868.0098,-86 995.9902,-86 995.9902,-122"/>
<text text-anchor="middle" x="932" y="-99.8" font-family="Times,serif" font-size="14.00" fill="#000000">PopoverComponent</text>
</g>
<!-- PopoverComponent&#45;&gt;MaterialsModule -->
<g id="edge14" class="edge">
<title>PopoverComponent&#45;&gt;MaterialsModule</title>
<path fill="none" stroke="#000000" d="M932,-122.0336C932,-139.0597 932,-162 932,-162 932,-162 1400.7568,-162 1400.7568,-162"/>
<polygon fill="#000000" stroke="#000000" points="1400.7568,-165.5001 1410.7568,-162 1400.7568,-158.5001 1400.7568,-165.5001"/>
</g>
<!-- CalendarComponent -->
<g id="node15" class="node">
<title>CalendarComponent</title>
<polygon fill="#ffffb3" stroke="#000000" points="849.8641,-122 718.1359,-122 718.1359,-86 849.8641,-86 849.8641,-122"/>
<text text-anchor="middle" x="784" y="-99.8" font-family="Times,serif" font-size="14.00" fill="#000000">CalendarComponent</text>
</g>
<!-- CalendarComponent&#45;&gt;MaterialsModule -->
<g id="edge15" class="edge">
<title>CalendarComponent&#45;&gt;MaterialsModule</title>
<path fill="none" stroke="#000000" d="M784,-122.2667C784,-140.5552 784,-166 784,-166 784,-166 1400.5262,-166 1400.5262,-166"/>
<polygon fill="#000000" stroke="#000000" points="1400.5262,-169.5001 1410.5262,-166 1400.5261,-162.5001 1400.5262,-169.5001"/>
</g>
<!-- SharedModule -->
<g id="node17" class="node">
<title>SharedModule</title>
<polygon fill="#8dd3c7" stroke="#000000" points="694.4231,-122 691.4231,-126 670.4231,-126 667.4231,-122 595.5769,-122 595.5769,-86 694.4231,-86 694.4231,-122"/>
<text text-anchor="middle" x="645" y="-99.8" font-family="Times,serif" font-size="14.00" fill="#000000">SharedModule</text>
</g>
<!-- SharedModule&#45;&gt;MaterialsModule -->
<g id="edge16" class="edge">
<title>SharedModule&#45;&gt;MaterialsModule</title>
<path fill="none" stroke="#000000" d="M645,-122.1061C645,-141.3391 645,-169 645,-169 645,-169 1400.5006,-169 1400.5006,-169"/>
<polygon fill="#000000" stroke="#000000" points="1400.5006,-172.5001 1410.5006,-169 1400.5006,-165.5001 1400.5006,-172.5001"/>
</g>
<!-- MaterialsRoutingModule -->
<g id="node18" class="node">
<title>MaterialsRoutingModule</title>
<polygon fill="#8dd3c7" stroke="#000000" points="577.5337,-122 574.5337,-126 553.5337,-126 550.5337,-122 420.4663,-122 420.4663,-86 577.5337,-86 577.5337,-122"/>
<text text-anchor="middle" x="499" y="-99.8" font-family="Times,serif" font-size="14.00" fill="#000000">MaterialsRoutingModule</text>
</g>
<!-- MaterialsRoutingModule&#45;&gt;MaterialsModule -->
<g id="edge17" class="edge">
<title>MaterialsRoutingModule&#45;&gt;MaterialsModule</title>
<path fill="none" stroke="#000000" d="M499,-122.1289C499,-142.5724 499,-173 499,-173 499,-173 1400.7722,-173 1400.7722,-173"/>
<polygon fill="#000000" stroke="#000000" points="1400.7722,-176.5001 1410.7722,-173 1400.7721,-169.5001 1400.7722,-176.5001"/>
</g>
<!-- DatePickerModule -->
<g id="node19" class="node">
<title>DatePickerModule</title>
<polygon fill="#8dd3c7" stroke="#000000" points="401.7395,-122 398.7395,-126 377.7395,-126 374.7395,-122 280.2605,-122 280.2605,-86 401.7395,-86 401.7395,-122"/>
<text text-anchor="middle" x="341" y="-99.8" font-family="Times,serif" font-size="14.00" fill="#000000">DatePickerModule</text>
</g>
<!-- DatePickerModule&#45;&gt;MaterialsModule -->
<g id="edge18" class="edge">
<title>DatePickerModule&#45;&gt;MaterialsModule</title>
<path fill="none" stroke="#000000" d="M341,-122.0449C341,-143.6623 341,-177 341,-177 341,-177 1400.7762,-177 1400.7762,-177"/>
<polygon fill="#000000" stroke="#000000" points="1400.7763,-180.5001 1410.7762,-177 1400.7762,-173.5001 1400.7763,-180.5001"/>
</g>
<!-- ButtonModule -->
<g id="node20" class="node">
<title>ButtonModule</title>
<polygon fill="#8dd3c7" stroke="#000000" points="261.6682,-122 258.6682,-126 237.6682,-126 234.6682,-122 164.3318,-122 164.3318,-86 261.6682,-86 261.6682,-122"/>
<text text-anchor="middle" x="213" y="-99.8" font-family="Times,serif" font-size="14.00" fill="#000000">ButtonModule</text>
</g>
<!-- ButtonModule&#45;&gt;MaterialsModule -->
<g id="edge19" class="edge">
<title>ButtonModule&#45;&gt;MaterialsModule</title>
<path fill="none" stroke="#000000" d="M213,-122.0109C213,-144.4852 213,-180 213,-180 213,-180 1400.6821,-180 1400.6821,-180"/>
<polygon fill="#000000" stroke="#000000" points="1400.6821,-183.5001 1410.6821,-180 1400.682,-176.5001 1400.6821,-183.5001"/>
</g>
<!-- FileUploadModule -->
<g id="node21" class="node">
<title>FileUploadModule</title>
<polygon fill="#8dd3c7" stroke="#000000" points="146.0409,-122 143.0409,-126 122.0409,-126 119.0409,-122 23.9591,-122 23.9591,-86 146.0409,-86 146.0409,-122"/>
<text text-anchor="middle" x="85" y="-99.8" font-family="Times,serif" font-size="14.00" fill="#000000">FileUploadModule</text>
</g>
<!-- FileUploadModule&#45;&gt;MaterialsModule -->
<g id="edge20" class="edge">
<title>FileUploadModule&#45;&gt;MaterialsModule</title>
<path fill="none" stroke="#000000" d="M85,-122.1532C85,-145.7566 85,-184 85,-184 85,-184 1400.6806,-184 1400.6806,-184"/>
<polygon fill="#000000" stroke="#000000" points="1400.6807,-187.5001 1410.6806,-184 1400.6806,-180.5001 1400.6807,-187.5001"/>
</g>
</g>
</svg>
