<?xml version="1.0" encoding="UTF-8" standalone="no"?>
<!DOCTYPE svg PUBLIC "-//W3C//DTD SVG 1.1//EN"
 "http://www.w3.org/Graphics/SVG/1.1/DTD/svg11.dtd">
<!-- Generated by graphviz version 2.40.1 (20161225.0304)
 -->
<!-- Title: dependencies Pages: 1 -->
<svg width="2714pt" height="211pt"
 viewBox="0.00 0.00 2714.00 211.00" xmlns="http://www.w3.org/2000/svg" xmlns:xlink="http://www.w3.org/1999/xlink">
<g id="graph0" class="graph" transform="scale(1 1) rotate(0) translate(4 207)">
<title>dependencies</title>
<polygon fill="#ffffff" stroke="transparent" points="-4,4 -4,-207 2710,-207 2710,4 -4,4"/>
<text text-anchor="start" x="1332.0091" y="-42.4" font-family="sans-serif" font-weight="bold" font-size="14.00" fill="#000000">Legend</text>
<polygon fill="#ffffb3" stroke="transparent" points="1119,-10 1119,-30 1139,-30 1139,-10 1119,-10"/>
<text text-anchor="start" x="1142.629" y="-15.4" font-family="sans-serif" font-size="14.00" fill="#000000"> &#160;Declarations</text>
<polygon fill="#8dd3c7" stroke="transparent" points="1232,-10 1232,-30 1252,-30 1252,-10 1232,-10"/>
<text text-anchor="start" x="1255.7251" y="-15.4" font-family="sans-serif" font-size="14.00" fill="#000000"> &#160;Module</text>
<polygon fill="#80b1d3" stroke="transparent" points="1318,-10 1318,-30 1338,-30 1338,-10 1318,-10"/>
<text text-anchor="start" x="1341.7812" y="-15.4" font-family="sans-serif" font-size="14.00" fill="#000000"> &#160;Bootstrap</text>
<polygon fill="#fdb462" stroke="transparent" points="1415,-10 1415,-30 1435,-30 1435,-10 1415,-10"/>
<text text-anchor="start" x="1438.6732" y="-15.4" font-family="sans-serif" font-size="14.00" fill="#000000"> &#160;Providers</text>
<polygon fill="#fb8072" stroke="transparent" points="1511,-10 1511,-30 1531,-30 1531,-10 1511,-10"/>
<text text-anchor="start" x="1534.7258" y="-15.4" font-family="sans-serif" font-size="14.00" fill="#000000"> &#160;Exports</text>
<g id="clust1" class="cluster">
<title>cluster_MaterialsModule</title>
<polygon fill="none" stroke="#000000" stroke-dasharray="1,5" points="8,-70 8,-195 2698,-195 2698,-70 8,-70"/>
</g>
<g id="clust2" class="cluster">
<title>cluster_MaterialsModule_declarations</title>
<polygon fill="none" stroke="#000000" points="570,-78 570,-130 2690,-130 2690,-78 570,-78"/>
</g>
<g id="clust18" class="cluster">
<title>cluster_MaterialsModule_imports</title>
<polygon fill="none" stroke="#000000" points="16,-78 16,-130 562,-130 562,-78 16,-78"/>
</g>
<!-- ToastComponent -->
<g id="node1" class="node">
<title>ToastComponent</title>
<polygon fill="#ffffb3" stroke="#000000" points="2682.4356,-122 2569.5644,-122 2569.5644,-86 2682.4356,-86 2682.4356,-122"/>
<text text-anchor="middle" x="2626" y="-99.8" font-family="Times,serif" font-size="14.00" fill="#000000">ToastComponent</text>
</g>
<!-- MaterialsModule -->
<g id="node16" class="node">
<title>MaterialsModule</title>
<polygon fill="#8dd3c7" stroke="#000000" points="1456.416,-187 1453.416,-191 1432.416,-191 1429.416,-187 1343.584,-187 1343.584,-151 1456.416,-151 1456.416,-187"/>
<text text-anchor="middle" x="1400" y="-164.8" font-family="Times,serif" font-size="14.00" fill="#000000">MaterialsModule</text>
</g>
<!-- ToastComponent&#45;&gt;MaterialsModule -->
<g id="edge1" class="edge">
<title>ToastComponent&#45;&gt;MaterialsModule</title>
<path fill="none" stroke="#000000" d="M2626,-122.1532C2626,-145.7566 2626,-184 2626,-184 2626,-184 1466.2684,-184 1466.2684,-184"/>
<polygon fill="#000000" stroke="#000000" points="1466.2685,-180.5001 1456.2684,-184 1466.2684,-187.5001 1466.2685,-180.5001"/>
</g>
<!-- ButtonsComponent -->
<g id="node2" class="node">
<title>ButtonsComponent</title>
<polygon fill="#ffffb3" stroke="#000000" points="2551.3948,-122 2426.6052,-122 2426.6052,-86 2551.3948,-86 2551.3948,-122"/>
<text text-anchor="middle" x="2489" y="-99.8" font-family="Times,serif" font-size="14.00" fill="#000000">ButtonsComponent</text>
</g>
<!-- ButtonsComponent&#45;&gt;MaterialsModule -->
<g id="edge2" class="edge">
<title>ButtonsComponent&#45;&gt;MaterialsModule</title>
<path fill="none" stroke="#000000" d="M2489,-122.0109C2489,-144.4852 2489,-180 2489,-180 2489,-180 1466.2562,-180 1466.2562,-180"/>
<polygon fill="#000000" stroke="#000000" points="1466.2562,-176.5001 1456.2562,-180 1466.2562,-183.5001 1466.2562,-176.5001"/>
</g>
<!-- CardsComponent -->
<g id="node3" class="node">
<title>CardsComponent</title>
<polygon fill="#ffffb3" stroke="#000000" points="2408.9888,-122 2295.0112,-122 2295.0112,-86 2408.9888,-86 2408.9888,-122"/>
<text text-anchor="middle" x="2352" y="-99.8" font-family="Times,serif" font-size="14.00" fill="#000000">CardsComponent</text>
</g>
<!-- CardsComponent&#45;&gt;MaterialsModule -->
<g id="edge3" class="edge">
<title>CardsComponent&#45;&gt;MaterialsModule</title>
<path fill="none" stroke="#000000" d="M2352,-122.0449C2352,-143.6623 2352,-177 2352,-177 2352,-177 1466.3489,-177 1466.3489,-177"/>
<polygon fill="#000000" stroke="#000000" points="1466.3489,-173.5001 1456.3489,-177 1466.3488,-180.5001 1466.3489,-173.5001"/>
</g>
<!-- TooltipsComponent -->
<g id="node4" class="node">
<title>TooltipsComponent</title>
<polygon fill="#ffffb3" stroke="#000000" points="2277.0014,-122 2148.9986,-122 2148.9986,-86 2277.0014,-86 2277.0014,-122"/>
<text text-anchor="middle" x="2213" y="-99.8" font-family="Times,serif" font-size="14.00" fill="#000000">TooltipsComponent</text>
</g>
<!-- TooltipsComponent&#45;&gt;MaterialsModule -->
<g id="edge4" class="edge">
<title>TooltipsComponent&#45;&gt;MaterialsModule</title>
<path fill="none" stroke="#000000" d="M2213,-122.1289C2213,-142.5724 2213,-173 2213,-173 2213,-173 1466.5231,-173 1466.5231,-173"/>
<polygon fill="#000000" stroke="#000000" points="1466.5231,-169.5001 1456.5231,-173 1466.5231,-176.5001 1466.5231,-169.5001"/>
</g>
<!-- DialogsComponent -->
<g id="node5" class="node">
<title>DialogsComponent</title>
<polygon fill="#ffffb3" stroke="#000000" points="2131.3795,-122 2006.6205,-122 2006.6205,-86 2131.3795,-86 2131.3795,-122"/>
<text text-anchor="middle" x="2069" y="-99.8" font-family="Times,serif" font-size="14.00" fill="#000000">DialogsComponent</text>
</g>
<!-- DialogsComponent&#45;&gt;MaterialsModule -->
<g id="edge5" class="edge">
<title>DialogsComponent&#45;&gt;MaterialsModule</title>
<path fill="none" stroke="#000000" d="M2069,-122.1061C2069,-141.3391 2069,-169 2069,-169 2069,-169 1466.462,-169 1466.462,-169"/>
<polygon fill="#000000" stroke="#000000" points="1466.462,-165.5001 1456.462,-169 1466.462,-172.5001 1466.462,-165.5001"/>
</g>
<!-- ListsComponent -->
<g id="node6" class="node">
<title>ListsComponent</title>
<polygon fill="#ffffb3" stroke="#000000" points="1988.0563,-122 1879.9437,-122 1879.9437,-86 1988.0563,-86 1988.0563,-122"/>
<text text-anchor="middle" x="1934" y="-99.8" font-family="Times,serif" font-size="14.00" fill="#000000">ListsComponent</text>
</g>
<!-- ListsComponent&#45;&gt;MaterialsModule -->
<g id="edge6" class="edge">
<title>ListsComponent&#45;&gt;MaterialsModule</title>
<path fill="none" stroke="#000000" d="M1934,-122.2667C1934,-140.5552 1934,-166 1934,-166 1934,-166 1466.3897,-166 1466.3897,-166"/>
<polygon fill="#000000" stroke="#000000" points="1466.3897,-162.5001 1456.3897,-166 1466.3897,-169.5001 1466.3897,-162.5001"/>
</g>
<!-- MenuComponent -->
<g id="node7" class="node">
<title>MenuComponent</title>
<polygon fill="#ffffb3" stroke="#000000" points="1861.9916,-122 1748.0084,-122 1748.0084,-86 1861.9916,-86 1861.9916,-122"/>
<text text-anchor="middle" x="1805" y="-99.8" font-family="Times,serif" font-size="14.00" fill="#000000">MenuComponent</text>
</g>
<!-- MenuComponent&#45;&gt;MaterialsModule -->
<g id="edge7" class="edge">
<title>MenuComponent&#45;&gt;MaterialsModule</title>
<path fill="none" stroke="#000000" d="M1805,-122.0336C1805,-139.0597 1805,-162 1805,-162 1805,-162 1466.3135,-162 1466.3135,-162"/>
<polygon fill="#000000" stroke="#000000" points="1466.3135,-158.5001 1456.3135,-162 1466.3135,-165.5001 1466.3135,-158.5001"/>
</g>
<!-- SliderComponent -->
<g id="node8" class="node">
<title>SliderComponent</title>
<polygon fill="#ffffb3" stroke="#000000" points="1730.2716,-122 1615.7284,-122 1615.7284,-86 1730.2716,-86 1730.2716,-122"/>
<text text-anchor="middle" x="1673" y="-99.8" font-family="Times,serif" font-size="14.00" fill="#000000">SliderComponent</text>
</g>
<!-- SliderComponent&#45;&gt;MaterialsModule -->
<g id="edge8" class="edge">
<title>SliderComponent&#45;&gt;MaterialsModule</title>
<path fill="none" stroke="#000000" d="M1673,-122.0091C1673,-138.0494 1673,-159 1673,-159 1673,-159 1466.2348,-159 1466.2348,-159"/>
<polygon fill="#000000" stroke="#000000" points="1466.2348,-155.5001 1456.2348,-159 1466.2347,-162.5001 1466.2348,-155.5001"/>
</g>
<!-- TabsComponent -->
<g id="node9" class="node">
<title>TabsComponent</title>
<polygon fill="#ffffb3" stroke="#000000" points="1597.0452,-122 1488.9548,-122 1488.9548,-86 1597.0452,-86 1597.0452,-122"/>
<text text-anchor="middle" x="1543" y="-99.8" font-family="Times,serif" font-size="14.00" fill="#000000">TabsComponent</text>
</g>
<!-- TabsComponent&#45;&gt;MaterialsModule -->
<g id="edge9" class="edge">
<title>TabsComponent&#45;&gt;MaterialsModule</title>
<path fill="none" stroke="#000000" d="M1543,-122.1243C1543,-136.7832 1543,-155 1543,-155 1543,-155 1466.5174,-155 1466.5174,-155"/>
<polygon fill="#000000" stroke="#000000" points="1466.5174,-151.5001 1456.5174,-155 1466.5174,-158.5001 1466.5174,-151.5001"/>
</g>
<!-- PaginationComponent -->
<g id="node10" class="node">
<title>PaginationComponent</title>
<polygon fill="#ffffb3" stroke="#000000" points="1470.7162,-122 1329.2838,-122 1329.2838,-86 1470.7162,-86 1470.7162,-122"/>
<text text-anchor="middle" x="1400" y="-99.8" font-family="Times,serif" font-size="14.00" fill="#000000">PaginationComponent</text>
</g>
<!-- PaginationComponent&#45;&gt;MaterialsModule -->
<g id="edge10" class="edge">
<title>PaginationComponent&#45;&gt;MaterialsModule</title>
<path fill="none" stroke="#000000" d="M1400,-122.1061C1400,-122.1061 1400,-140.991 1400,-140.991"/>
<polygon fill="#000000" stroke="#000000" points="1396.5001,-140.9909 1400,-150.991 1403.5001,-140.991 1396.5001,-140.9909"/>
</g>
<!-- AmapComponent -->
<g id="node11" class="node">
<title>AmapComponent</title>
<polygon fill="#ffffb3" stroke="#000000" points="1311.5451,-122 1196.4549,-122 1196.4549,-86 1311.5451,-86 1311.5451,-122"/>
<text text-anchor="middle" x="1254" y="-99.8" font-family="Times,serif" font-size="14.00" fill="#000000">AmapComponent</text>
</g>
<!-- AmapComponent&#45;&gt;MaterialsModule -->
<g id="edge11" class="edge">
<title>AmapComponent&#45;&gt;MaterialsModule</title>
<path fill="none" stroke="#000000" d="M1254,-122.1243C1254,-136.7832 1254,-155 1254,-155 1254,-155 1333.5526,-155 1333.5526,-155"/>
<polygon fill="#000000" stroke="#000000" points="1333.5526,-158.5001 1343.5526,-155 1333.5526,-151.5001 1333.5526,-158.5001"/>
</g>
<!-- DatePickerComponent -->
<g id="node12" class="node">
<title>DatePickerComponent</title>
<polygon fill="#ffffb3" stroke="#000000" points="1177.5226,-122 1034.4774,-122 1034.4774,-86 1177.5226,-86 1177.5226,-122"/>
<text text-anchor="middle" x="1106" y="-99.8" font-family="Times,serif" font-size="14.00" fill="#000000">DatePickerComponent</text>
</g>
<!-- DatePickerComponent&#45;&gt;MaterialsModule -->
<g id="edge12" class="edge">
<title>DatePickerComponent&#45;&gt;MaterialsModule</title>
<path fill="none" stroke="#000000" d="M1106,-122.0091C1106,-138.0494 1106,-159 1106,-159 1106,-159 1333.6617,-159 1333.6617,-159"/>
<polygon fill="#000000" stroke="#000000" points="1333.6617,-162.5001 1343.6617,-159 1333.6617,-155.5001 1333.6617,-162.5001"/>
</g>
<!-- MarkdownComponent -->
<g id="node13" class="node">
<title>MarkdownComponent</title>
<polygon fill="#ffffb3" stroke="#000000" points="1016.259,-122 873.741,-122 873.741,-86 1016.259,-86 1016.259,-122"/>
<text text-anchor="middle" x="945" y="-99.8" font-family="Times,serif" font-size="14.00" fill="#000000">MarkdownComponent</text>
</g>
<!-- MarkdownComponent&#45;&gt;MaterialsModule -->
<g id="edge13" class="edge">
<title>MarkdownComponent&#45;&gt;MaterialsModule</title>
<path fill="none" stroke="#000000" d="M945,-122.0336C945,-139.0597 945,-162 945,-162 945,-162 1333.7517,-162 1333.7517,-162"/>
<polygon fill="#000000" stroke="#000000" points="1333.7518,-165.5001 1343.7517,-162 1333.7517,-158.5001 1333.7518,-165.5001"/>
</g>
<!-- PopoverComponent -->
<g id="node14" class="node">
<title>PopoverComponent</title>
<polygon fill="#ffffb3" stroke="#000000" points="855.9902,-122 728.0098,-122 728.0098,-86 855.9902,-86 855.9902,-122"/>
<text text-anchor="middle" x="792" y="-99.8" font-family="Times,serif" font-size="14.00" fill="#000000">PopoverComponent</text>
</g>
<!-- PopoverComponent&#45;&gt;MaterialsModule -->
<g id="edge14" class="edge">
<title>PopoverComponent&#45;&gt;MaterialsModule</title>
<path fill="none" stroke="#000000" d="M792,-122.2667C792,-140.5552 792,-166 792,-166 792,-166 1333.619,-166 1333.619,-166"/>
<polygon fill="#000000" stroke="#000000" points="1333.619,-169.5001 1343.619,-166 1333.619,-162.5001 1333.619,-169.5001"/>
</g>
<!-- CalendarComponent -->
<g id="node15" class="node">
<title>CalendarComponent</title>
<polygon fill="#ffffb3" stroke="#000000" points="709.8641,-122 578.1359,-122 578.1359,-86 709.8641,-86 709.8641,-122"/>
<text text-anchor="middle" x="644" y="-99.8" font-family="Times,serif" font-size="14.00" fill="#000000">CalendarComponent</text>
</g>
<!-- CalendarComponent&#45;&gt;MaterialsModule -->
<g id="edge15" class="edge">
<title>CalendarComponent&#45;&gt;MaterialsModule</title>
<path fill="none" stroke="#000000" d="M644,-122.1061C644,-141.3391 644,-169 644,-169 644,-169 1333.4863,-169 1333.4863,-169"/>
<polygon fill="#000000" stroke="#000000" points="1333.4863,-172.5001 1343.4863,-169 1333.4863,-165.5001 1333.4863,-172.5001"/>
</g>
<!-- SharedModule -->
<g id="node17" class="node">
<title>SharedModule</title>
<polygon fill="#8dd3c7" stroke="#000000" points="554.4231,-122 551.4231,-126 530.4231,-126 527.4231,-122 455.5769,-122 455.5769,-86 554.4231,-86 554.4231,-122"/>
<text text-anchor="middle" x="505" y="-99.8" font-family="Times,serif" font-size="14.00" fill="#000000">SharedModule</text>
</g>
<!-- SharedModule&#45;&gt;MaterialsModule -->
<g id="edge16" class="edge">
<title>SharedModule&#45;&gt;MaterialsModule</title>
<path fill="none" stroke="#000000" d="M505,-122.1289C505,-142.5724 505,-173 505,-173 505,-173 1333.6747,-173 1333.6747,-173"/>
<polygon fill="#000000" stroke="#000000" points="1333.6747,-176.5001 1343.6747,-173 1333.6747,-169.5001 1333.6747,-176.5001"/>
</g>
<!-- MaterialsRoutingModule -->
<g id="node18" class="node">
<title>MaterialsRoutingModule</title>
<polygon fill="#8dd3c7" stroke="#000000" points="437.5337,-122 434.5337,-126 413.5337,-126 410.5337,-122 280.4663,-122 280.4663,-86 437.5337,-86 437.5337,-122"/>
<text text-anchor="middle" x="359" y="-99.8" font-family="Times,serif" font-size="14.00" fill="#000000">MaterialsRoutingModule</text>
</g>
<!-- MaterialsRoutingModule&#45;&gt;MaterialsModule -->
<g id="edge17" class="edge">
<title>MaterialsRoutingModule&#45;&gt;MaterialsModule</title>
<path fill="none" stroke="#000000" d="M359,-122.0449C359,-143.6623 359,-177 359,-177 359,-177 1333.6622,-177 1333.6622,-177"/>
<polygon fill="#000000" stroke="#000000" points="1333.6623,-180.5001 1343.6622,-177 1333.6622,-173.5001 1333.6623,-180.5001"/>
</g>
<!-- DatePickerModule -->
<g id="node19" class="node">
<title>DatePickerModule</title>
<polygon fill="#8dd3c7" stroke="#000000" points="261.7395,-122 258.7395,-126 237.7395,-126 234.7395,-122 140.2605,-122 140.2605,-86 261.7395,-86 261.7395,-122"/>
<text text-anchor="middle" x="201" y="-99.8" font-family="Times,serif" font-size="14.00" fill="#000000">DatePickerModule</text>
</g>
<!-- DatePickerModule&#45;&gt;MaterialsModule -->
<g id="edge18" class="edge">
<title>DatePickerModule&#45;&gt;MaterialsModule</title>
<path fill="none" stroke="#000000" d="M201,-122.0109C201,-144.4852 201,-180 201,-180 201,-180 1333.7779,-180 1333.7779,-180"/>
<polygon fill="#000000" stroke="#000000" points="1333.778,-183.5001 1343.7779,-180 1333.7779,-176.5001 1333.778,-183.5001"/>
</g>
<!-- ButtonModule -->
<g id="node20" class="node">
<title>ButtonModule</title>
<polygon fill="#8dd3c7" stroke="#000000" points="121.6682,-122 118.6682,-126 97.6682,-126 94.6682,-122 24.3318,-122 24.3318,-86 121.6682,-86 121.6682,-122"/>
<text text-anchor="middle" x="73" y="-99.8" font-family="Times,serif" font-size="14.00" fill="#000000">ButtonModule</text>
</g>
<!-- ButtonModule&#45;&gt;MaterialsModule -->
<g id="edge19" class="edge">
<title>ButtonModule&#45;&gt;MaterialsModule</title>
<path fill="none" stroke="#000000" d="M73,-122.1532C73,-145.7566 73,-184 73,-184 73,-184 1333.405,-184 1333.405,-184"/>
<polygon fill="#000000" stroke="#000000" points="1333.405,-187.5001 1343.405,-184 1333.4049,-180.5001 1333.405,-187.5001"/>
</g>
</g>
</svg>
