<?xml version="1.0" encoding="UTF-8" standalone="no"?>
<!DOCTYPE svg PUBLIC "-//W3C//DTD SVG 1.1//EN"
 "http://www.w3.org/Graphics/SVG/1.1/DTD/svg11.dtd">
<!-- Generated by graphviz version 2.40.1 (20161225.0304)
 -->
<!-- Title: dependencies Pages: 1 -->
<svg width="2598pt" height="211pt"
 viewBox="0.00 0.00 2598.00 211.00" xmlns="http://www.w3.org/2000/svg" xmlns:xlink="http://www.w3.org/1999/xlink">
<g id="graph0" class="graph" transform="scale(1 1) rotate(0) translate(4 207)">
<title>dependencies</title>
<polygon fill="#ffffff" stroke="transparent" points="-4,4 -4,-207 2594,-207 2594,4 -4,4"/>
<text text-anchor="start" x="1274.0091" y="-42.4" font-family="sans-serif" font-weight="bold" font-size="14.00" fill="#000000">Legend</text>
<polygon fill="#ffffb3" stroke="transparent" points="1061,-10 1061,-30 1081,-30 1081,-10 1061,-10"/>
<text text-anchor="start" x="1084.629" y="-15.4" font-family="sans-serif" font-size="14.00" fill="#000000"> &#160;Declarations</text>
<polygon fill="#8dd3c7" stroke="transparent" points="1174,-10 1174,-30 1194,-30 1194,-10 1174,-10"/>
<text text-anchor="start" x="1197.7251" y="-15.4" font-family="sans-serif" font-size="14.00" fill="#000000"> &#160;Module</text>
<polygon fill="#80b1d3" stroke="transparent" points="1260,-10 1260,-30 1280,-30 1280,-10 1260,-10"/>
<text text-anchor="start" x="1283.7812" y="-15.4" font-family="sans-serif" font-size="14.00" fill="#000000"> &#160;Bootstrap</text>
<polygon fill="#fdb462" stroke="transparent" points="1357,-10 1357,-30 1377,-30 1377,-10 1357,-10"/>
<text text-anchor="start" x="1380.6732" y="-15.4" font-family="sans-serif" font-size="14.00" fill="#000000"> &#160;Providers</text>
<polygon fill="#fb8072" stroke="transparent" points="1453,-10 1453,-30 1473,-30 1473,-10 1453,-10"/>
<text text-anchor="start" x="1476.7258" y="-15.4" font-family="sans-serif" font-size="14.00" fill="#000000"> &#160;Exports</text>
<g id="clust1" class="cluster">
<title>cluster_MaterialsModule</title>
<polygon fill="none" stroke="#000000" stroke-dasharray="1,5" points="8,-70 8,-195 2582,-195 2582,-70 8,-70"/>
</g>
<g id="clust2" class="cluster">
<title>cluster_MaterialsModule_declarations</title>
<polygon fill="none" stroke="#000000" points="454,-78 454,-130 2574,-130 2574,-78 454,-78"/>
</g>
<g id="clust18" class="cluster">
<title>cluster_MaterialsModule_imports</title>
<polygon fill="none" stroke="#000000" points="16,-78 16,-130 446,-130 446,-78 16,-78"/>
</g>
<!-- ToastComponent -->
<g id="node1" class="node">
<title>ToastComponent</title>
<polygon fill="#ffffb3" stroke="#000000" points="2566.4356,-122 2453.5644,-122 2453.5644,-86 2566.4356,-86 2566.4356,-122"/>
<text text-anchor="middle" x="2510" y="-99.8" font-family="Times,serif" font-size="14.00" fill="#000000">ToastComponent</text>
</g>
<!-- MaterialsModule -->
<g id="node16" class="node">
<title>MaterialsModule</title>
<polygon fill="#8dd3c7" stroke="#000000" points="1411.416,-187 1408.416,-191 1387.416,-191 1384.416,-187 1298.584,-187 1298.584,-151 1411.416,-151 1411.416,-187"/>
<text text-anchor="middle" x="1355" y="-164.8" font-family="Times,serif" font-size="14.00" fill="#000000">MaterialsModule</text>
</g>
<!-- ToastComponent&#45;&gt;MaterialsModule -->
<g id="edge1" class="edge">
<title>ToastComponent&#45;&gt;MaterialsModule</title>
<path fill="none" stroke="#000000" d="M2510,-122.3228C2510,-145.6602 2510,-183 2510,-183 2510,-183 1421.4899,-183 1421.4899,-183"/>
<polygon fill="#000000" stroke="#000000" points="1421.49,-179.5001 1411.4899,-183 1421.4899,-186.5001 1421.49,-179.5001"/>
</g>
<!-- ButtonsComponent -->
<g id="node2" class="node">
<title>ButtonsComponent</title>
<polygon fill="#ffffb3" stroke="#000000" points="2435.3948,-122 2310.6052,-122 2310.6052,-86 2435.3948,-86 2435.3948,-122"/>
<text text-anchor="middle" x="2373" y="-99.8" font-family="Times,serif" font-size="14.00" fill="#000000">ButtonsComponent</text>
</g>
<!-- ButtonsComponent&#45;&gt;MaterialsModule -->
<g id="edge2" class="edge">
<title>ButtonsComponent&#45;&gt;MaterialsModule</title>
<path fill="none" stroke="#000000" d="M2373,-122.1554C2373,-144.3519 2373,-179 2373,-179 2373,-179 1421.5473,-179 1421.5473,-179"/>
<polygon fill="#000000" stroke="#000000" points="1421.5473,-175.5001 1411.5473,-179 1421.5472,-182.5001 1421.5473,-175.5001"/>
</g>
<!-- CardsComponent -->
<g id="node3" class="node">
<title>CardsComponent</title>
<polygon fill="#ffffb3" stroke="#000000" points="2292.9888,-122 2179.0112,-122 2179.0112,-86 2292.9888,-86 2292.9888,-122"/>
<text text-anchor="middle" x="2236" y="-99.8" font-family="Times,serif" font-size="14.00" fill="#000000">CardsComponent</text>
</g>
<!-- CardsComponent&#45;&gt;MaterialsModule -->
<g id="edge3" class="edge">
<title>CardsComponent&#45;&gt;MaterialsModule</title>
<path fill="none" stroke="#000000" d="M2236,-122.2843C2236,-143.3211 2236,-175 2236,-175 2236,-175 1421.4507,-175 1421.4507,-175"/>
<polygon fill="#000000" stroke="#000000" points="1421.4507,-171.5001 1411.4507,-175 1421.4507,-178.5001 1421.4507,-171.5001"/>
</g>
<!-- TooltipsComponent -->
<g id="node4" class="node">
<title>TooltipsComponent</title>
<polygon fill="#ffffb3" stroke="#000000" points="2161.0014,-122 2032.9986,-122 2032.9986,-86 2161.0014,-86 2161.0014,-122"/>
<text text-anchor="middle" x="2097" y="-99.8" font-family="Times,serif" font-size="14.00" fill="#000000">TooltipsComponent</text>
</g>
<!-- TooltipsComponent&#45;&gt;MaterialsModule -->
<g id="edge4" class="edge">
<title>TooltipsComponent&#45;&gt;MaterialsModule</title>
<path fill="none" stroke="#000000" d="M2097,-122.308C2097,-142.1455 2097,-171 2097,-171 2097,-171 1421.3796,-171 1421.3796,-171"/>
<polygon fill="#000000" stroke="#000000" points="1421.3796,-167.5001 1411.3796,-171 1421.3796,-174.5001 1421.3796,-167.5001"/>
</g>
<!-- DialogsComponent -->
<g id="node5" class="node">
<title>DialogsComponent</title>
<polygon fill="#ffffb3" stroke="#000000" points="2015.3795,-122 1890.6205,-122 1890.6205,-86 2015.3795,-86 2015.3795,-122"/>
<text text-anchor="middle" x="1953" y="-99.8" font-family="Times,serif" font-size="14.00" fill="#000000">DialogsComponent</text>
</g>
<!-- DialogsComponent&#45;&gt;MaterialsModule -->
<g id="edge5" class="edge">
<title>DialogsComponent&#45;&gt;MaterialsModule</title>
<path fill="none" stroke="#000000" d="M1953,-122.2222C1953,-140.8285 1953,-167 1953,-167 1953,-167 1421.2584,-167 1421.2584,-167"/>
<polygon fill="#000000" stroke="#000000" points="1421.2584,-163.5001 1411.2584,-167 1421.2584,-170.5001 1421.2584,-163.5001"/>
</g>
<!-- ListsComponent -->
<g id="node6" class="node">
<title>ListsComponent</title>
<polygon fill="#ffffb3" stroke="#000000" points="1872.0563,-122 1763.9437,-122 1763.9437,-86 1872.0563,-86 1872.0563,-122"/>
<text text-anchor="middle" x="1818" y="-99.8" font-family="Times,serif" font-size="14.00" fill="#000000">ListsComponent</text>
</g>
<!-- ListsComponent&#45;&gt;MaterialsModule -->
<g id="edge6" class="edge">
<title>ListsComponent&#45;&gt;MaterialsModule</title>
<path fill="none" stroke="#000000" d="M1818,-122.0225C1818,-139.3734 1818,-163 1818,-163 1818,-163 1421.31,-163 1421.31,-163"/>
<polygon fill="#000000" stroke="#000000" points="1421.31,-159.5001 1411.31,-163 1421.31,-166.5001 1421.31,-159.5001"/>
</g>
<!-- MenuComponent -->
<g id="node7" class="node">
<title>MenuComponent</title>
<polygon fill="#ffffb3" stroke="#000000" points="1745.9916,-122 1632.0084,-122 1632.0084,-86 1745.9916,-86 1745.9916,-122"/>
<text text-anchor="middle" x="1689" y="-99.8" font-family="Times,serif" font-size="14.00" fill="#000000">MenuComponent</text>
</g>
<!-- MenuComponent&#45;&gt;MaterialsModule -->
<g id="edge7" class="edge">
<title>MenuComponent&#45;&gt;MaterialsModule</title>
<path fill="none" stroke="#000000" d="M1689,-122.0091C1689,-138.0494 1689,-159 1689,-159 1689,-159 1421.2809,-159 1421.2809,-159"/>
<polygon fill="#000000" stroke="#000000" points="1421.2809,-155.5001 1411.2809,-159 1421.2808,-162.5001 1421.2809,-155.5001"/>
</g>
<!-- SliderComponent -->
<g id="node8" class="node">
<title>SliderComponent</title>
<polygon fill="#ffffb3" stroke="#000000" points="1614.2716,-122 1499.7284,-122 1499.7284,-86 1614.2716,-86 1614.2716,-122"/>
<text text-anchor="middle" x="1557" y="-99.8" font-family="Times,serif" font-size="14.00" fill="#000000">SliderComponent</text>
</g>
<!-- SliderComponent&#45;&gt;MaterialsModule -->
<g id="edge8" class="edge">
<title>SliderComponent&#45;&gt;MaterialsModule</title>
<path fill="none" stroke="#000000" d="M1557,-122.1243C1557,-136.7832 1557,-155 1557,-155 1557,-155 1421.2683,-155 1421.2683,-155"/>
<polygon fill="#000000" stroke="#000000" points="1421.2683,-151.5001 1411.2683,-155 1421.2682,-158.5001 1421.2683,-151.5001"/>
</g>
<!-- TabsComponent -->
<g id="node9" class="node">
<title>TabsComponent</title>
<polygon fill="#ffffb3" stroke="#000000" points="1481.0452,-122 1372.9548,-122 1372.9548,-86 1481.0452,-86 1481.0452,-122"/>
<text text-anchor="middle" x="1427" y="-99.8" font-family="Times,serif" font-size="14.00" fill="#000000">TabsComponent</text>
</g>
<!-- TabsComponent&#45;&gt;MaterialsModule -->
<g id="edge9" class="edge">
<title>TabsComponent&#45;&gt;MaterialsModule</title>
<path fill="none" stroke="#000000" d="M1391.9678,-122.1061C1391.9678,-122.1061 1391.9678,-140.991 1391.9678,-140.991"/>
<polygon fill="#000000" stroke="#000000" points="1388.4678,-140.9909 1391.9678,-150.991 1395.4678,-140.991 1388.4678,-140.9909"/>
</g>
<!-- PaginationComponent -->
<g id="node10" class="node">
<title>PaginationComponent</title>
<polygon fill="#ffffb3" stroke="#000000" points="1354.7162,-122 1213.2838,-122 1213.2838,-86 1354.7162,-86 1354.7162,-122"/>
<text text-anchor="middle" x="1284" y="-99.8" font-family="Times,serif" font-size="14.00" fill="#000000">PaginationComponent</text>
</g>
<!-- PaginationComponent&#45;&gt;MaterialsModule -->
<g id="edge10" class="edge">
<title>PaginationComponent&#45;&gt;MaterialsModule</title>
<path fill="none" stroke="#000000" d="M1326.7002,-122.1061C1326.7002,-122.1061 1326.7002,-140.991 1326.7002,-140.991"/>
<polygon fill="#000000" stroke="#000000" points="1323.2003,-140.9909 1326.7002,-150.991 1330.2003,-140.991 1323.2003,-140.9909"/>
</g>
<!-- AmapComponent -->
<g id="node11" class="node">
<title>AmapComponent</title>
<polygon fill="#ffffb3" stroke="#000000" points="1195.5451,-122 1080.4549,-122 1080.4549,-86 1195.5451,-86 1195.5451,-122"/>
<text text-anchor="middle" x="1138" y="-99.8" font-family="Times,serif" font-size="14.00" fill="#000000">AmapComponent</text>
</g>
<!-- AmapComponent&#45;&gt;MaterialsModule -->
<g id="edge11" class="edge">
<title>AmapComponent&#45;&gt;MaterialsModule</title>
<path fill="none" stroke="#000000" d="M1138,-122.1243C1138,-136.7832 1138,-155 1138,-155 1138,-155 1288.5523,-155 1288.5523,-155"/>
<polygon fill="#000000" stroke="#000000" points="1288.5523,-158.5001 1298.5523,-155 1288.5522,-151.5001 1288.5523,-158.5001"/>
</g>
<!-- DatePickerComponent -->
<g id="node12" class="node">
<title>DatePickerComponent</title>
<polygon fill="#ffffb3" stroke="#000000" points="1061.5226,-122 918.4774,-122 918.4774,-86 1061.5226,-86 1061.5226,-122"/>
<text text-anchor="middle" x="990" y="-99.8" font-family="Times,serif" font-size="14.00" fill="#000000">DatePickerComponent</text>
</g>
<!-- DatePickerComponent&#45;&gt;MaterialsModule -->
<g id="edge12" class="edge">
<title>DatePickerComponent&#45;&gt;MaterialsModule</title>
<path fill="none" stroke="#000000" d="M990,-122.0091C990,-138.0494 990,-159 990,-159 990,-159 1288.7687,-159 1288.7687,-159"/>
<polygon fill="#000000" stroke="#000000" points="1288.7687,-162.5001 1298.7687,-159 1288.7686,-155.5001 1288.7687,-162.5001"/>
</g>
<!-- MarkdownComponent -->
<g id="node13" class="node">
<title>MarkdownComponent</title>
<polygon fill="#ffffb3" stroke="#000000" points="900.259,-122 757.741,-122 757.741,-86 900.259,-86 900.259,-122"/>
<text text-anchor="middle" x="829" y="-99.8" font-family="Times,serif" font-size="14.00" fill="#000000">MarkdownComponent</text>
</g>
<!-- MarkdownComponent&#45;&gt;MaterialsModule -->
<g id="edge13" class="edge">
<title>MarkdownComponent&#45;&gt;MaterialsModule</title>
<path fill="none" stroke="#000000" d="M829,-122.0225C829,-139.3734 829,-163 829,-163 829,-163 1288.7088,-163 1288.7088,-163"/>
<polygon fill="#000000" stroke="#000000" points="1288.7088,-166.5001 1298.7088,-163 1288.7088,-159.5001 1288.7088,-166.5001"/>
</g>
<!-- PopoverComponent -->
<g id="node14" class="node">
<title>PopoverComponent</title>
<polygon fill="#ffffb3" stroke="#000000" points="739.9902,-122 612.0098,-122 612.0098,-86 739.9902,-86 739.9902,-122"/>
<text text-anchor="middle" x="676" y="-99.8" font-family="Times,serif" font-size="14.00" fill="#000000">PopoverComponent</text>
</g>
<!-- PopoverComponent&#45;&gt;MaterialsModule -->
<g id="edge14" class="edge">
<title>PopoverComponent&#45;&gt;MaterialsModule</title>
<path fill="none" stroke="#000000" d="M676,-122.2222C676,-140.8285 676,-167 676,-167 676,-167 1288.5671,-167 1288.5671,-167"/>
<polygon fill="#000000" stroke="#000000" points="1288.5672,-170.5001 1298.5671,-167 1288.5671,-163.5001 1288.5672,-170.5001"/>
</g>
<!-- CalendarComponent -->
<g id="node15" class="node">
<title>CalendarComponent</title>
<polygon fill="#ffffb3" stroke="#000000" points="593.8641,-122 462.1359,-122 462.1359,-86 593.8641,-86 593.8641,-122"/>
<text text-anchor="middle" x="528" y="-99.8" font-family="Times,serif" font-size="14.00" fill="#000000">CalendarComponent</text>
</g>
<!-- CalendarComponent&#45;&gt;MaterialsModule -->
<g id="edge15" class="edge">
<title>CalendarComponent&#45;&gt;MaterialsModule</title>
<path fill="none" stroke="#000000" d="M528,-122.308C528,-142.1455 528,-171 528,-171 528,-171 1288.4824,-171 1288.4824,-171"/>
<polygon fill="#000000" stroke="#000000" points="1288.4825,-174.5001 1298.4824,-171 1288.4824,-167.5001 1288.4825,-174.5001"/>
</g>
<!-- SharedModule -->
<g id="node17" class="node">
<title>SharedModule</title>
<polygon fill="#8dd3c7" stroke="#000000" points="438.4231,-122 435.4231,-126 414.4231,-126 411.4231,-122 339.5769,-122 339.5769,-86 438.4231,-86 438.4231,-122"/>
<text text-anchor="middle" x="389" y="-99.8" font-family="Times,serif" font-size="14.00" fill="#000000">SharedModule</text>
</g>
<!-- SharedModule&#45;&gt;MaterialsModule -->
<g id="edge16" class="edge">
<title>SharedModule&#45;&gt;MaterialsModule</title>
<path fill="none" stroke="#000000" d="M389,-122.2843C389,-143.3211 389,-175 389,-175 389,-175 1288.534,-175 1288.534,-175"/>
<polygon fill="#000000" stroke="#000000" points="1288.5341,-178.5001 1298.534,-175 1288.534,-171.5001 1288.5341,-178.5001"/>
</g>
<!-- MaterialsRoutingModule -->
<g id="node18" class="node">
<title>MaterialsRoutingModule</title>
<polygon fill="#8dd3c7" stroke="#000000" points="321.5337,-122 318.5337,-126 297.5337,-126 294.5337,-122 164.4663,-122 164.4663,-86 321.5337,-86 321.5337,-122"/>
<text text-anchor="middle" x="243" y="-99.8" font-family="Times,serif" font-size="14.00" fill="#000000">MaterialsRoutingModule</text>
</g>
<!-- MaterialsRoutingModule&#45;&gt;MaterialsModule -->
<g id="edge17" class="edge">
<title>MaterialsRoutingModule&#45;&gt;MaterialsModule</title>
<path fill="none" stroke="#000000" d="M243,-122.1554C243,-144.3519 243,-179 243,-179 243,-179 1288.7109,-179 1288.7109,-179"/>
<polygon fill="#000000" stroke="#000000" points="1288.7109,-182.5001 1298.7109,-179 1288.7109,-175.5001 1288.7109,-182.5001"/>
</g>
<!-- DatePickerModule -->
<g id="node19" class="node">
<title>DatePickerModule</title>
<polygon fill="#8dd3c7" stroke="#000000" points="145.7395,-122 142.7395,-126 121.7395,-126 118.7395,-122 24.2605,-122 24.2605,-86 145.7395,-86 145.7395,-122"/>
<text text-anchor="middle" x="85" y="-99.8" font-family="Times,serif" font-size="14.00" fill="#000000">DatePickerModule</text>
</g>
<!-- DatePickerModule&#45;&gt;MaterialsModule -->
<g id="edge18" class="edge">
<title>DatePickerModule&#45;&gt;MaterialsModule</title>
<path fill="none" stroke="#000000" d="M85,-122.3228C85,-145.6602 85,-183 85,-183 85,-183 1288.791,-183 1288.791,-183"/>
<polygon fill="#000000" stroke="#000000" points="1288.791,-186.5001 1298.791,-183 1288.791,-179.5001 1288.791,-186.5001"/>
</g>
</g>
</svg>
