<?xml version="1.0" encoding="UTF-8" standalone="no"?>
<!DOCTYPE svg PUBLIC "-//W3C//DTD SVG 1.1//EN"
 "http://www.w3.org/Graphics/SVG/1.1/DTD/svg11.dtd">
<!-- Generated by graphviz version 2.40.1 (20161225.0304)
 -->
<!-- Title: dependencies Pages: 1 -->
<svg width="2978pt" height="211pt"
 viewBox="0.00 0.00 2978.00 211.00" xmlns="http://www.w3.org/2000/svg" xmlns:xlink="http://www.w3.org/1999/xlink">
<g id="graph0" class="graph" transform="scale(1 1) rotate(0) translate(4 207)">
<title>dependencies</title>
<polygon fill="#ffffff" stroke="transparent" points="-4,4 -4,-207 2974,-207 2974,4 -4,4"/>
<text text-anchor="start" x="1464.0091" y="-42.4" font-family="sans-serif" font-weight="bold" font-size="14.00" fill="#000000">Legend</text>
<polygon fill="#ffffb3" stroke="transparent" points="1251,-10 1251,-30 1271,-30 1271,-10 1251,-10"/>
<text text-anchor="start" x="1274.629" y="-15.4" font-family="sans-serif" font-size="14.00" fill="#000000"> &#160;Declarations</text>
<polygon fill="#8dd3c7" stroke="transparent" points="1364,-10 1364,-30 1384,-30 1384,-10 1364,-10"/>
<text text-anchor="start" x="1387.7251" y="-15.4" font-family="sans-serif" font-size="14.00" fill="#000000"> &#160;Module</text>
<polygon fill="#80b1d3" stroke="transparent" points="1450,-10 1450,-30 1470,-30 1470,-10 1450,-10"/>
<text text-anchor="start" x="1473.7812" y="-15.4" font-family="sans-serif" font-size="14.00" fill="#000000"> &#160;Bootstrap</text>
<polygon fill="#fdb462" stroke="transparent" points="1547,-10 1547,-30 1567,-30 1567,-10 1547,-10"/>
<text text-anchor="start" x="1570.6732" y="-15.4" font-family="sans-serif" font-size="14.00" fill="#000000"> &#160;Providers</text>
<polygon fill="#fb8072" stroke="transparent" points="1643,-10 1643,-30 1663,-30 1663,-10 1643,-10"/>
<text text-anchor="start" x="1666.7258" y="-15.4" font-family="sans-serif" font-size="14.00" fill="#000000"> &#160;Exports</text>
<g id="clust1" class="cluster">
<title>cluster_MaterialsModule</title>
<polygon fill="none" stroke="#000000" stroke-dasharray="1,5" points="8,-70 8,-195 2962,-195 2962,-70 8,-70"/>
</g>
<g id="clust2" class="cluster">
<title>cluster_MaterialsModule_declarations</title>
<polygon fill="none" stroke="#000000" points="710,-78 710,-130 2954,-130 2954,-78 710,-78"/>
</g>
<g id="clust19" class="cluster">
<title>cluster_MaterialsModule_imports</title>
<polygon fill="none" stroke="#000000" points="16,-78 16,-130 702,-130 702,-78 16,-78"/>
</g>
<!-- ToastComponent -->
<g id="node1" class="node">
<title>ToastComponent</title>
<polygon fill="#ffffb3" stroke="#000000" points="2946.4356,-122 2833.5644,-122 2833.5644,-86 2946.4356,-86 2946.4356,-122"/>
<text text-anchor="middle" x="2890" y="-99.8" font-family="Times,serif" font-size="14.00" fill="#000000">ToastComponent</text>
</g>
<!-- MaterialsModule -->
<g id="node17" class="node">
<title>MaterialsModule</title>
<polygon fill="#8dd3c7" stroke="#000000" points="1574.416,-187 1571.416,-191 1550.416,-191 1547.416,-187 1461.584,-187 1461.584,-151 1574.416,-151 1574.416,-187"/>
<text text-anchor="middle" x="1518" y="-164.8" font-family="Times,serif" font-size="14.00" fill="#000000">MaterialsModule</text>
</g>
<!-- ToastComponent&#45;&gt;MaterialsModule -->
<g id="edge1" class="edge">
<title>ToastComponent&#45;&gt;MaterialsModule</title>
<path fill="none" stroke="#000000" d="M2890,-122.1532C2890,-145.7566 2890,-184 2890,-184 2890,-184 1584.3419,-184 1584.3419,-184"/>
<polygon fill="#000000" stroke="#000000" points="1584.3419,-180.5001 1574.3419,-184 1584.3418,-187.5001 1584.3419,-180.5001"/>
</g>
<!-- ButtonsComponent -->
<g id="node2" class="node">
<title>ButtonsComponent</title>
<polygon fill="#ffffb3" stroke="#000000" points="2815.3948,-122 2690.6052,-122 2690.6052,-86 2815.3948,-86 2815.3948,-122"/>
<text text-anchor="middle" x="2753" y="-99.8" font-family="Times,serif" font-size="14.00" fill="#000000">ButtonsComponent</text>
</g>
<!-- ButtonsComponent&#45;&gt;MaterialsModule -->
<g id="edge2" class="edge">
<title>ButtonsComponent&#45;&gt;MaterialsModule</title>
<path fill="none" stroke="#000000" d="M2753,-122.2479C2753,-145.0179 2753,-181 2753,-181 2753,-181 1584.2746,-181 1584.2746,-181"/>
<polygon fill="#000000" stroke="#000000" points="1584.2746,-177.5001 1574.2746,-181 1584.2745,-184.5001 1584.2746,-177.5001"/>
</g>
<!-- CardsComponent -->
<g id="node3" class="node">
<title>CardsComponent</title>
<polygon fill="#ffffb3" stroke="#000000" points="2672.9888,-122 2559.0112,-122 2559.0112,-86 2672.9888,-86 2672.9888,-122"/>
<text text-anchor="middle" x="2616" y="-99.8" font-family="Times,serif" font-size="14.00" fill="#000000">CardsComponent</text>
</g>
<!-- CardsComponent&#45;&gt;MaterialsModule -->
<g id="edge3" class="edge">
<title>CardsComponent&#45;&gt;MaterialsModule</title>
<path fill="none" stroke="#000000" d="M2616,-122.2921C2616,-144.2057 2616,-178 2616,-178 2616,-178 1584.3398,-178 1584.3398,-178"/>
<polygon fill="#000000" stroke="#000000" points="1584.3398,-174.5001 1574.3398,-178 1584.3397,-181.5001 1584.3398,-174.5001"/>
</g>
<!-- TooltipsComponent -->
<g id="node4" class="node">
<title>TooltipsComponent</title>
<polygon fill="#ffffb3" stroke="#000000" points="2541.0014,-122 2412.9986,-122 2412.9986,-86 2541.0014,-86 2541.0014,-122"/>
<text text-anchor="middle" x="2477" y="-99.8" font-family="Times,serif" font-size="14.00" fill="#000000">TooltipsComponent</text>
</g>
<!-- TooltipsComponent&#45;&gt;MaterialsModule -->
<g id="edge4" class="edge">
<title>TooltipsComponent&#45;&gt;MaterialsModule</title>
<path fill="none" stroke="#000000" d="M2477,-122.0267C2477,-142.7672 2477,-174 2477,-174 2477,-174 1584.4095,-174 1584.4095,-174"/>
<polygon fill="#000000" stroke="#000000" points="1584.4096,-170.5001 1574.4095,-174 1584.4095,-177.5001 1584.4096,-170.5001"/>
</g>
<!-- DialogsComponent -->
<g id="node5" class="node">
<title>DialogsComponent</title>
<polygon fill="#ffffb3" stroke="#000000" points="2395.3795,-122 2270.6205,-122 2270.6205,-86 2395.3795,-86 2395.3795,-122"/>
<text text-anchor="middle" x="2333" y="-99.8" font-family="Times,serif" font-size="14.00" fill="#000000">DialogsComponent</text>
</g>
<!-- DialogsComponent&#45;&gt;MaterialsModule -->
<g id="edge5" class="edge">
<title>DialogsComponent&#45;&gt;MaterialsModule</title>
<path fill="none" stroke="#000000" d="M2333,-122.308C2333,-142.1455 2333,-171 2333,-171 2333,-171 1584.3398,-171 1584.3398,-171"/>
<polygon fill="#000000" stroke="#000000" points="1584.3398,-167.5001 1574.3398,-171 1584.3398,-174.5001 1584.3398,-167.5001"/>
</g>
<!-- ListsComponent -->
<g id="node6" class="node">
<title>ListsComponent</title>
<polygon fill="#ffffb3" stroke="#000000" points="2252.0563,-122 2143.9437,-122 2143.9437,-86 2252.0563,-86 2252.0563,-122"/>
<text text-anchor="middle" x="2198" y="-99.8" font-family="Times,serif" font-size="14.00" fill="#000000">ListsComponent</text>
</g>
<!-- ListsComponent&#45;&gt;MaterialsModule -->
<g id="edge6" class="edge">
<title>ListsComponent&#45;&gt;MaterialsModule</title>
<path fill="none" stroke="#000000" d="M2198,-122.1686C2198,-141.0898 2198,-168 2198,-168 2198,-168 1584.2258,-168 1584.2258,-168"/>
<polygon fill="#000000" stroke="#000000" points="1584.2258,-164.5001 1574.2258,-168 1584.2257,-171.5001 1584.2258,-164.5001"/>
</g>
<!-- MenuComponent -->
<g id="node7" class="node">
<title>MenuComponent</title>
<polygon fill="#ffffb3" stroke="#000000" points="2125.9916,-122 2012.0084,-122 2012.0084,-86 2125.9916,-86 2125.9916,-122"/>
<text text-anchor="middle" x="2069" y="-99.8" font-family="Times,serif" font-size="14.00" fill="#000000">MenuComponent</text>
</g>
<!-- MenuComponent&#45;&gt;MaterialsModule -->
<g id="edge7" class="edge">
<title>MenuComponent&#45;&gt;MaterialsModule</title>
<path fill="none" stroke="#000000" d="M2069,-122.302C2069,-140.2699 2069,-165 2069,-165 2069,-165 1584.3773,-165 1584.3773,-165"/>
<polygon fill="#000000" stroke="#000000" points="1584.3773,-161.5001 1574.3773,-165 1584.3772,-168.5001 1584.3773,-161.5001"/>
</g>
<!-- SliderComponent -->
<g id="node8" class="node">
<title>SliderComponent</title>
<polygon fill="#ffffb3" stroke="#000000" points="1994.2716,-122 1879.7284,-122 1879.7284,-86 1994.2716,-86 1994.2716,-122"/>
<text text-anchor="middle" x="1937" y="-99.8" font-family="Times,serif" font-size="14.00" fill="#000000">SliderComponent</text>
</g>
<!-- SliderComponent&#45;&gt;MaterialsModule -->
<g id="edge8" class="edge">
<title>SliderComponent&#45;&gt;MaterialsModule</title>
<path fill="none" stroke="#000000" d="M1937,-122.0352C1937,-138.7344 1937,-161 1937,-161 1937,-161 1584.5082,-161 1584.5082,-161"/>
<polygon fill="#000000" stroke="#000000" points="1584.5082,-157.5001 1574.5082,-161 1584.5082,-164.5001 1584.5082,-157.5001"/>
</g>
<!-- TabsComponent -->
<g id="node9" class="node">
<title>TabsComponent</title>
<polygon fill="#ffffb3" stroke="#000000" points="1861.0452,-122 1752.9548,-122 1752.9548,-86 1861.0452,-86 1861.0452,-122"/>
<text text-anchor="middle" x="1807" y="-99.8" font-family="Times,serif" font-size="14.00" fill="#000000">TabsComponent</text>
</g>
<!-- TabsComponent&#45;&gt;MaterialsModule -->
<g id="edge9" class="edge">
<title>TabsComponent&#45;&gt;MaterialsModule</title>
<path fill="none" stroke="#000000" d="M1807,-122.2819C1807,-137.9478 1807,-158 1807,-158 1807,-158 1584.4082,-158 1584.4082,-158"/>
<polygon fill="#000000" stroke="#000000" points="1584.4082,-154.5001 1574.4082,-158 1584.4081,-161.5001 1584.4082,-154.5001"/>
</g>
<!-- PaginationComponent -->
<g id="node10" class="node">
<title>PaginationComponent</title>
<polygon fill="#ffffb3" stroke="#000000" points="1734.7162,-122 1593.2838,-122 1593.2838,-86 1734.7162,-86 1734.7162,-122"/>
<text text-anchor="middle" x="1664" y="-99.8" font-family="Times,serif" font-size="14.00" fill="#000000">PaginationComponent</text>
</g>
<!-- PaginationComponent&#45;&gt;MaterialsModule -->
<g id="edge10" class="edge">
<title>PaginationComponent&#45;&gt;MaterialsModule</title>
<path fill="none" stroke="#000000" d="M1664,-122.1243C1664,-136.7832 1664,-155 1664,-155 1664,-155 1584.4474,-155 1584.4474,-155"/>
<polygon fill="#000000" stroke="#000000" points="1584.4474,-151.5001 1574.4474,-155 1584.4474,-158.5001 1584.4474,-151.5001"/>
</g>
<!-- AmapComponent -->
<g id="node11" class="node">
<title>AmapComponent</title>
<polygon fill="#ffffb3" stroke="#000000" points="1575.5451,-122 1460.4549,-122 1460.4549,-86 1575.5451,-86 1575.5451,-122"/>
<text text-anchor="middle" x="1518" y="-99.8" font-family="Times,serif" font-size="14.00" fill="#000000">AmapComponent</text>
</g>
<!-- AmapComponent&#45;&gt;MaterialsModule -->
<g id="edge11" class="edge">
<title>AmapComponent&#45;&gt;MaterialsModule</title>
<path fill="none" stroke="#000000" d="M1518,-122.1061C1518,-122.1061 1518,-140.991 1518,-140.991"/>
<polygon fill="#000000" stroke="#000000" points="1514.5001,-140.9909 1518,-150.991 1521.5001,-140.991 1514.5001,-140.9909"/>
</g>
<!-- DatePickerComponent -->
<g id="node12" class="node">
<title>DatePickerComponent</title>
<polygon fill="#ffffb3" stroke="#000000" points="1441.5226,-122 1298.4774,-122 1298.4774,-86 1441.5226,-86 1441.5226,-122"/>
<text text-anchor="middle" x="1370" y="-99.8" font-family="Times,serif" font-size="14.00" fill="#000000">DatePickerComponent</text>
</g>
<!-- DatePickerComponent&#45;&gt;MaterialsModule -->
<g id="edge12" class="edge">
<title>DatePickerComponent&#45;&gt;MaterialsModule</title>
<path fill="none" stroke="#000000" d="M1370,-122.1243C1370,-136.7832 1370,-155 1370,-155 1370,-155 1451.6253,-155 1451.6253,-155"/>
<polygon fill="#000000" stroke="#000000" points="1451.6254,-158.5001 1461.6253,-155 1451.6253,-151.5001 1451.6254,-158.5001"/>
</g>
<!-- MarkdownComponent -->
<g id="node13" class="node">
<title>MarkdownComponent</title>
<polygon fill="#ffffb3" stroke="#000000" points="1280.259,-122 1137.741,-122 1137.741,-86 1280.259,-86 1280.259,-122"/>
<text text-anchor="middle" x="1209" y="-99.8" font-family="Times,serif" font-size="14.00" fill="#000000">MarkdownComponent</text>
</g>
<!-- MarkdownComponent&#45;&gt;MaterialsModule -->
<g id="edge13" class="edge">
<title>MarkdownComponent&#45;&gt;MaterialsModule</title>
<path fill="none" stroke="#000000" d="M1209,-122.2819C1209,-137.9478 1209,-158 1209,-158 1209,-158 1451.6839,-158 1451.6839,-158"/>
<polygon fill="#000000" stroke="#000000" points="1451.684,-161.5001 1461.6839,-158 1451.6839,-154.5001 1451.684,-161.5001"/>
</g>
<!-- PopoverComponent -->
<g id="node14" class="node">
<title>PopoverComponent</title>
<polygon fill="#ffffb3" stroke="#000000" points="1119.9902,-122 992.0098,-122 992.0098,-86 1119.9902,-86 1119.9902,-122"/>
<text text-anchor="middle" x="1056" y="-99.8" font-family="Times,serif" font-size="14.00" fill="#000000">PopoverComponent</text>
</g>
<!-- PopoverComponent&#45;&gt;MaterialsModule -->
<g id="edge14" class="edge">
<title>PopoverComponent&#45;&gt;MaterialsModule</title>
<path fill="none" stroke="#000000" d="M1056,-122.0352C1056,-138.7344 1056,-161 1056,-161 1056,-161 1451.3497,-161 1451.3497,-161"/>
<polygon fill="#000000" stroke="#000000" points="1451.3498,-164.5001 1461.3497,-161 1451.3497,-157.5001 1451.3498,-164.5001"/>
</g>
<!-- CalendarComponent -->
<g id="node15" class="node">
<title>CalendarComponent</title>
<polygon fill="#ffffb3" stroke="#000000" points="973.8641,-122 842.1359,-122 842.1359,-86 973.8641,-86 973.8641,-122"/>
<text text-anchor="middle" x="908" y="-99.8" font-family="Times,serif" font-size="14.00" fill="#000000">CalendarComponent</text>
</g>
<!-- CalendarComponent&#45;&gt;MaterialsModule -->
<g id="edge15" class="edge">
<title>CalendarComponent&#45;&gt;MaterialsModule</title>
<path fill="none" stroke="#000000" d="M908,-122.302C908,-140.2699 908,-165 908,-165 908,-165 1451.7061,-165 1451.7061,-165"/>
<polygon fill="#000000" stroke="#000000" points="1451.7061,-168.5001 1461.7061,-165 1451.706,-161.5001 1451.7061,-168.5001"/>
</g>
<!-- IconComponent -->
<g id="node16" class="node">
<title>IconComponent</title>
<polygon fill="#ffffb3" stroke="#000000" points="824.2078,-122 717.7922,-122 717.7922,-86 824.2078,-86 824.2078,-122"/>
<text text-anchor="middle" x="771" y="-99.8" font-family="Times,serif" font-size="14.00" fill="#000000">IconComponent</text>
</g>
<!-- IconComponent&#45;&gt;MaterialsModule -->
<g id="edge16" class="edge">
<title>IconComponent&#45;&gt;MaterialsModule</title>
<path fill="none" stroke="#000000" d="M771,-122.1686C771,-141.0898 771,-168 771,-168 771,-168 1451.5474,-168 1451.5474,-168"/>
<polygon fill="#000000" stroke="#000000" points="1451.5474,-171.5001 1461.5474,-168 1451.5473,-164.5001 1451.5474,-171.5001"/>
</g>
<!-- SharedModule -->
<g id="node18" class="node">
<title>SharedModule</title>
<polygon fill="#8dd3c7" stroke="#000000" points="694.4231,-122 691.4231,-126 670.4231,-126 667.4231,-122 595.5769,-122 595.5769,-86 694.4231,-86 694.4231,-122"/>
<text text-anchor="middle" x="645" y="-99.8" font-family="Times,serif" font-size="14.00" fill="#000000">SharedModule</text>
</g>
<!-- SharedModule&#45;&gt;MaterialsModule -->
<g id="edge17" class="edge">
<title>SharedModule&#45;&gt;MaterialsModule</title>
<path fill="none" stroke="#000000" d="M645,-122.308C645,-142.1455 645,-171 645,-171 645,-171 1451.7277,-171 1451.7277,-171"/>
<polygon fill="#000000" stroke="#000000" points="1451.7278,-174.5001 1461.7277,-171 1451.7277,-167.5001 1451.7278,-174.5001"/>
</g>
<!-- MaterialsRoutingModule -->
<g id="node19" class="node">
<title>MaterialsRoutingModule</title>
<polygon fill="#8dd3c7" stroke="#000000" points="577.5337,-122 574.5337,-126 553.5337,-126 550.5337,-122 420.4663,-122 420.4663,-86 577.5337,-86 577.5337,-122"/>
<text text-anchor="middle" x="499" y="-99.8" font-family="Times,serif" font-size="14.00" fill="#000000">MaterialsRoutingModule</text>
</g>
<!-- MaterialsRoutingModule&#45;&gt;MaterialsModule -->
<g id="edge18" class="edge">
<title>MaterialsRoutingModule&#45;&gt;MaterialsModule</title>
<path fill="none" stroke="#000000" d="M499,-122.0267C499,-142.7672 499,-174 499,-174 499,-174 1451.7627,-174 1451.7627,-174"/>
<polygon fill="#000000" stroke="#000000" points="1451.7627,-177.5001 1461.7627,-174 1451.7626,-170.5001 1451.7627,-177.5001"/>
</g>
<!-- DatePickerModule -->
<g id="node20" class="node">
<title>DatePickerModule</title>
<polygon fill="#8dd3c7" stroke="#000000" points="401.7395,-122 398.7395,-126 377.7395,-126 374.7395,-122 280.2605,-122 280.2605,-86 401.7395,-86 401.7395,-122"/>
<text text-anchor="middle" x="341" y="-99.8" font-family="Times,serif" font-size="14.00" fill="#000000">DatePickerModule</text>
</g>
<!-- DatePickerModule&#45;&gt;MaterialsModule -->
<g id="edge19" class="edge">
<title>DatePickerModule&#45;&gt;MaterialsModule</title>
<path fill="none" stroke="#000000" d="M341,-122.2921C341,-144.2057 341,-178 341,-178 341,-178 1451.6274,-178 1451.6274,-178"/>
<polygon fill="#000000" stroke="#000000" points="1451.6274,-181.5001 1461.6274,-178 1451.6273,-174.5001 1451.6274,-181.5001"/>
</g>
<!-- ButtonModule -->
<g id="node21" class="node">
<title>ButtonModule</title>
<polygon fill="#8dd3c7" stroke="#000000" points="261.6682,-122 258.6682,-126 237.6682,-126 234.6682,-122 164.3318,-122 164.3318,-86 261.6682,-86 261.6682,-122"/>
<text text-anchor="middle" x="213" y="-99.8" font-family="Times,serif" font-size="14.00" fill="#000000">ButtonModule</text>
</g>
<!-- ButtonModule&#45;&gt;MaterialsModule -->
<g id="edge20" class="edge">
<title>ButtonModule&#45;&gt;MaterialsModule</title>
<path fill="none" stroke="#000000" d="M213,-122.2479C213,-145.0179 213,-181 213,-181 213,-181 1451.5069,-181 1451.5069,-181"/>
<polygon fill="#000000" stroke="#000000" points="1451.5069,-184.5001 1461.5069,-181 1451.5069,-177.5001 1451.5069,-184.5001"/>
</g>
<!-- FileUploadModule -->
<g id="node22" class="node">
<title>FileUploadModule</title>
<polygon fill="#8dd3c7" stroke="#000000" points="146.0409,-122 143.0409,-126 122.0409,-126 119.0409,-122 23.9591,-122 23.9591,-86 146.0409,-86 146.0409,-122"/>
<text text-anchor="middle" x="85" y="-99.8" font-family="Times,serif" font-size="14.00" fill="#000000">FileUploadModule</text>
</g>
<!-- FileUploadModule&#45;&gt;MaterialsModule -->
<g id="edge21" class="edge">
<title>FileUploadModule&#45;&gt;MaterialsModule</title>
<path fill="none" stroke="#000000" d="M85,-122.1532C85,-145.7566 85,-184 85,-184 85,-184 1451.3833,-184 1451.3833,-184"/>
<polygon fill="#000000" stroke="#000000" points="1451.3834,-187.5001 1461.3833,-184 1451.3833,-180.5001 1451.3834,-187.5001"/>
</g>
</g>
</svg>
