<?xml version="1.0" encoding="UTF-8" standalone="no"?>
<!DOCTYPE svg PUBLIC "-//W3C//DTD SVG 1.1//EN"
 "http://www.w3.org/Graphics/SVG/1.1/DTD/svg11.dtd">
<!-- Generated by graphviz version 2.40.1 (20161225.0304)
 -->
<!-- Title: dependencies Pages: 1 -->
<svg width="852pt" height="211pt"
 viewBox="0.00 0.00 852.00 211.00" xmlns="http://www.w3.org/2000/svg" xmlns:xlink="http://www.w3.org/1999/xlink">
<g id="graph0" class="graph" transform="scale(1 1) rotate(0) translate(4 207)">
<title>dependencies</title>
<polygon fill="#ffffff" stroke="transparent" points="-4,4 -4,-207 848,-207 848,4 -4,4"/>
<text text-anchor="start" x="401.0091" y="-42.4" font-family="sans-serif" font-weight="bold" font-size="14.00" fill="#000000">Legend</text>
<polygon fill="#ffffb3" stroke="transparent" points="188,-10 188,-30 208,-30 208,-10 188,-10"/>
<text text-anchor="start" x="211.629" y="-15.4" font-family="sans-serif" font-size="14.00" fill="#000000"> &#160;Declarations</text>
<polygon fill="#8dd3c7" stroke="transparent" points="301,-10 301,-30 321,-30 321,-10 301,-10"/>
<text text-anchor="start" x="324.7251" y="-15.4" font-family="sans-serif" font-size="14.00" fill="#000000"> &#160;Module</text>
<polygon fill="#80b1d3" stroke="transparent" points="387,-10 387,-30 407,-30 407,-10 387,-10"/>
<text text-anchor="start" x="410.7812" y="-15.4" font-family="sans-serif" font-size="14.00" fill="#000000"> &#160;Bootstrap</text>
<polygon fill="#fdb462" stroke="transparent" points="484,-10 484,-30 504,-30 504,-10 484,-10"/>
<text text-anchor="start" x="507.6732" y="-15.4" font-family="sans-serif" font-size="14.00" fill="#000000"> &#160;Providers</text>
<polygon fill="#fb8072" stroke="transparent" points="580,-10 580,-30 600,-30 600,-10 580,-10"/>
<text text-anchor="start" x="603.7258" y="-15.4" font-family="sans-serif" font-size="14.00" fill="#000000"> &#160;Exports</text>
<g id="clust1" class="cluster">
<title>cluster_ChatsModule</title>
<polygon fill="none" stroke="#000000" stroke-dasharray="1,5" points="8,-70 8,-195 836,-195 836,-70 8,-70"/>
</g>
<g id="clust2" class="cluster">
<title>cluster_ChatsModule_declarations</title>
<polygon fill="none" stroke="#000000" points="288,-78 288,-130 828,-130 828,-78 288,-78"/>
</g>
<g id="clust7" class="cluster">
<title>cluster_ChatsModule_imports</title>
<polygon fill="none" stroke="#000000" points="16,-78 16,-130 280,-130 280,-78 16,-78"/>
</g>
<!-- ChatsComponent -->
<g id="node1" class="node">
<title>ChatsComponent</title>
<polygon fill="#ffffb3" stroke="#000000" points="819.719,-122 706.281,-122 706.281,-86 819.719,-86 819.719,-122"/>
<text text-anchor="middle" x="763" y="-99.8" font-family="Times,serif" font-size="14.00" fill="#000000">ChatsComponent</text>
</g>
<!-- ChatsModule -->
<g id="node5" class="node">
<title>ChatsModule</title>
<polygon fill="#8dd3c7" stroke="#000000" points="465.9372,-187 462.9372,-191 441.9372,-191 438.9372,-187 374.0628,-187 374.0628,-151 465.9372,-151 465.9372,-187"/>
<text text-anchor="middle" x="420" y="-164.8" font-family="Times,serif" font-size="14.00" fill="#000000">ChatsModule</text>
</g>
<!-- ChatsComponent&#45;&gt;ChatsModule -->
<g id="edge1" class="edge">
<title>ChatsComponent&#45;&gt;ChatsModule</title>
<path fill="none" stroke="#000000" d="M763,-122.2843C763,-143.3211 763,-175 763,-175 763,-175 475.9026,-175 475.9026,-175"/>
<polygon fill="#000000" stroke="#000000" points="475.9026,-171.5001 465.9026,-175 475.9026,-178.5001 475.9026,-171.5001"/>
</g>
<!-- ContactsComponent -->
<g id="node2" class="node">
<title>ContactsComponent</title>
<polygon fill="#ffffb3" stroke="#000000" points="688.3244,-122 557.6756,-122 557.6756,-86 688.3244,-86 688.3244,-122"/>
<text text-anchor="middle" x="623" y="-99.8" font-family="Times,serif" font-size="14.00" fill="#000000">ContactsComponent</text>
</g>
<!-- ContactsComponent&#45;&gt;ChatsModule -->
<g id="edge2" class="edge">
<title>ContactsComponent&#45;&gt;ChatsModule</title>
<path fill="none" stroke="#000000" d="M623,-122.0225C623,-139.3734 623,-163 623,-163 623,-163 475.8103,-163 475.8103,-163"/>
<polygon fill="#000000" stroke="#000000" points="475.8103,-159.5001 465.8103,-163 475.8102,-166.5001 475.8103,-159.5001"/>
</g>
<!-- ChatComponent -->
<g id="node3" class="node">
<title>ChatComponent</title>
<polygon fill="#ffffb3" stroke="#000000" points="539.7744,-122 432.2256,-122 432.2256,-86 539.7744,-86 539.7744,-122"/>
<text text-anchor="middle" x="486" y="-99.8" font-family="Times,serif" font-size="14.00" fill="#000000">ChatComponent</text>
</g>
<!-- ChatComponent&#45;&gt;ChatsModule -->
<g id="edge3" class="edge">
<title>ChatComponent&#45;&gt;ChatsModule</title>
<path fill="none" stroke="#000000" d="M448.9155,-122.1061C448.9155,-122.1061 448.9155,-140.991 448.9155,-140.991"/>
<polygon fill="#000000" stroke="#000000" points="445.4156,-140.9909 448.9155,-150.991 452.4156,-140.991 445.4156,-140.9909"/>
</g>
<!-- NoticeComponent -->
<g id="node4" class="node">
<title>NoticeComponent</title>
<polygon fill="#ffffb3" stroke="#000000" points="414.1499,-122 295.8501,-122 295.8501,-86 414.1499,-86 414.1499,-122"/>
<text text-anchor="middle" x="355" y="-99.8" font-family="Times,serif" font-size="14.00" fill="#000000">NoticeComponent</text>
</g>
<!-- NoticeComponent&#45;&gt;ChatsModule -->
<g id="edge4" class="edge">
<title>NoticeComponent&#45;&gt;ChatsModule</title>
<path fill="none" stroke="#000000" d="M394.3033,-122.1061C394.3033,-122.1061 394.3033,-140.991 394.3033,-140.991"/>
<polygon fill="#000000" stroke="#000000" points="390.8034,-140.9909 394.3033,-150.991 397.8034,-140.991 390.8034,-140.9909"/>
</g>
<!-- SharedModule -->
<g id="node6" class="node">
<title>SharedModule</title>
<polygon fill="#8dd3c7" stroke="#000000" points="272.4231,-122 269.4231,-126 248.4231,-126 245.4231,-122 173.5769,-122 173.5769,-86 272.4231,-86 272.4231,-122"/>
<text text-anchor="middle" x="223" y="-99.8" font-family="Times,serif" font-size="14.00" fill="#000000">SharedModule</text>
</g>
<!-- SharedModule&#45;&gt;ChatsModule -->
<g id="edge5" class="edge">
<title>SharedModule&#45;&gt;ChatsModule</title>
<path fill="none" stroke="#000000" d="M223,-122.0225C223,-139.3734 223,-163 223,-163 223,-163 363.8123,-163 363.8123,-163"/>
<polygon fill="#000000" stroke="#000000" points="363.8123,-166.5001 373.8123,-163 363.8122,-159.5001 363.8123,-166.5001"/>
</g>
<!-- ChatRoutingModule -->
<g id="node7" class="node">
<title>ChatRoutingModule</title>
<polygon fill="#8dd3c7" stroke="#000000" points="155.6094,-122 152.6094,-126 131.6094,-126 128.6094,-122 24.3906,-122 24.3906,-86 155.6094,-86 155.6094,-122"/>
<text text-anchor="middle" x="90" y="-99.8" font-family="Times,serif" font-size="14.00" fill="#000000">ChatRoutingModule</text>
</g>
<!-- ChatRoutingModule&#45;&gt;ChatsModule -->
<g id="edge6" class="edge">
<title>ChatRoutingModule&#45;&gt;ChatsModule</title>
<path fill="none" stroke="#000000" d="M90,-122.2843C90,-143.3211 90,-175 90,-175 90,-175 364.1149,-175 364.1149,-175"/>
<polygon fill="#000000" stroke="#000000" points="364.1149,-178.5001 374.1149,-175 364.1149,-171.5001 364.1149,-178.5001"/>
</g>
</g>
</svg>
