<?xml version="1.0" encoding="UTF-8" standalone="no"?>
<!DOCTYPE svg PUBLIC "-//W3C//DTD SVG 1.1//EN"
 "http://www.w3.org/Graphics/SVG/1.1/DTD/svg11.dtd">
<!-- Generated by graphviz version 2.40.1 (20161225.0304)
 -->
<!-- Title: dependencies Pages: 1 -->
<svg width="851pt" height="211pt"
 viewBox="0.00 0.00 851.00 211.00" xmlns="http://www.w3.org/2000/svg" xmlns:xlink="http://www.w3.org/1999/xlink">
<g id="graph0" class="graph" transform="scale(1 1) rotate(0) translate(4 207)">
<title>dependencies</title>
<polygon fill="#ffffff" stroke="transparent" points="-4,4 -4,-207 847,-207 847,4 -4,4"/>
<text text-anchor="start" x="400.5091" y="-42.4" font-family="sans-serif" font-weight="bold" font-size="14.00" fill="#000000">Legend</text>
<polygon fill="#ffffb3" stroke="transparent" points="187.5,-10 187.5,-30 207.5,-30 207.5,-10 187.5,-10"/>
<text text-anchor="start" x="211.129" y="-15.4" font-family="sans-serif" font-size="14.00" fill="#000000"> &#160;Declarations</text>
<polygon fill="#8dd3c7" stroke="transparent" points="300.5,-10 300.5,-30 320.5,-30 320.5,-10 300.5,-10"/>
<text text-anchor="start" x="324.2251" y="-15.4" font-family="sans-serif" font-size="14.00" fill="#000000"> &#160;Module</text>
<polygon fill="#80b1d3" stroke="transparent" points="386.5,-10 386.5,-30 406.5,-30 406.5,-10 386.5,-10"/>
<text text-anchor="start" x="410.2812" y="-15.4" font-family="sans-serif" font-size="14.00" fill="#000000"> &#160;Bootstrap</text>
<polygon fill="#fdb462" stroke="transparent" points="483.5,-10 483.5,-30 503.5,-30 503.5,-10 483.5,-10"/>
<text text-anchor="start" x="507.1732" y="-15.4" font-family="sans-serif" font-size="14.00" fill="#000000"> &#160;Providers</text>
<polygon fill="#fb8072" stroke="transparent" points="579.5,-10 579.5,-30 599.5,-30 599.5,-10 579.5,-10"/>
<text text-anchor="start" x="603.2258" y="-15.4" font-family="sans-serif" font-size="14.00" fill="#000000"> &#160;Exports</text>
<g id="clust1" class="cluster">
<title>cluster_ChatsModule</title>
<polygon fill="none" stroke="#000000" stroke-dasharray="1,5" points="8,-70 8,-195 835,-195 835,-70 8,-70"/>
</g>
<g id="clust2" class="cluster">
<title>cluster_ChatsModule_declarations</title>
<polygon fill="none" stroke="#000000" points="288,-78 288,-130 827,-130 827,-78 288,-78"/>
</g>
<g id="clust7" class="cluster">
<title>cluster_ChatsModule_imports</title>
<polygon fill="none" stroke="#000000" points="16,-78 16,-130 280,-130 280,-78 16,-78"/>
</g>
<!-- ChatComponent -->
<g id="node1" class="node">
<title>ChatComponent</title>
<polygon fill="#ffffb3" stroke="#000000" points="818.7744,-122 711.2256,-122 711.2256,-86 818.7744,-86 818.7744,-122"/>
<text text-anchor="middle" x="765" y="-99.8" font-family="Times,serif" font-size="14.00" fill="#000000">ChatComponent</text>
</g>
<!-- ChatsModule -->
<g id="node5" class="node">
<title>ChatsModule</title>
<polygon fill="#8dd3c7" stroke="#000000" points="471.9372,-187 468.9372,-191 447.9372,-191 444.9372,-187 380.0628,-187 380.0628,-151 471.9372,-151 471.9372,-187"/>
<text text-anchor="middle" x="426" y="-164.8" font-family="Times,serif" font-size="14.00" fill="#000000">ChatsModule</text>
</g>
<!-- ChatComponent&#45;&gt;ChatsModule -->
<g id="edge1" class="edge">
<title>ChatComponent&#45;&gt;ChatsModule</title>
<path fill="none" stroke="#000000" d="M765,-122.2843C765,-143.3211 765,-175 765,-175 765,-175 481.719,-175 481.719,-175"/>
<polygon fill="#000000" stroke="#000000" points="481.7191,-171.5001 471.719,-175 481.719,-178.5001 481.7191,-171.5001"/>
</g>
<!-- ChatsComponent -->
<g id="node2" class="node">
<title>ChatsComponent</title>
<polygon fill="#ffffb3" stroke="#000000" points="693.719,-122 580.281,-122 580.281,-86 693.719,-86 693.719,-122"/>
<text text-anchor="middle" x="637" y="-99.8" font-family="Times,serif" font-size="14.00" fill="#000000">ChatsComponent</text>
</g>
<!-- ChatsComponent&#45;&gt;ChatsModule -->
<g id="edge2" class="edge">
<title>ChatsComponent&#45;&gt;ChatsModule</title>
<path fill="none" stroke="#000000" d="M637,-122.0225C637,-139.3734 637,-163 637,-163 637,-163 481.7839,-163 481.7839,-163"/>
<polygon fill="#000000" stroke="#000000" points="481.7839,-159.5001 471.7839,-163 481.7838,-166.5001 481.7839,-159.5001"/>
</g>
<!-- ContactsComponent -->
<g id="node3" class="node">
<title>ContactsComponent</title>
<polygon fill="#ffffb3" stroke="#000000" points="562.3244,-122 431.6756,-122 431.6756,-86 562.3244,-86 562.3244,-122"/>
<text text-anchor="middle" x="497" y="-99.8" font-family="Times,serif" font-size="14.00" fill="#000000">ContactsComponent</text>
</g>
<!-- ContactsComponent&#45;&gt;ChatsModule -->
<g id="edge3" class="edge">
<title>ContactsComponent&#45;&gt;ChatsModule</title>
<path fill="none" stroke="#000000" d="M451.7781,-122.1061C451.7781,-122.1061 451.7781,-140.991 451.7781,-140.991"/>
<polygon fill="#000000" stroke="#000000" points="448.2781,-140.9909 451.7781,-150.991 455.2781,-140.991 448.2781,-140.9909"/>
</g>
<!-- NoticeComponent -->
<g id="node4" class="node">
<title>NoticeComponent</title>
<polygon fill="#ffffb3" stroke="#000000" points="414.1499,-122 295.8501,-122 295.8501,-86 414.1499,-86 414.1499,-122"/>
<text text-anchor="middle" x="355" y="-99.8" font-family="Times,serif" font-size="14.00" fill="#000000">NoticeComponent</text>
</g>
<!-- NoticeComponent&#45;&gt;ChatsModule -->
<g id="edge4" class="edge">
<title>NoticeComponent&#45;&gt;ChatsModule</title>
<path fill="none" stroke="#000000" d="M397.3033,-122.1061C397.3033,-122.1061 397.3033,-140.991 397.3033,-140.991"/>
<polygon fill="#000000" stroke="#000000" points="393.8034,-140.9909 397.3033,-150.991 400.8034,-140.991 393.8034,-140.9909"/>
</g>
<!-- ChatRoutingModule -->
<g id="node6" class="node">
<title>ChatRoutingModule</title>
<polygon fill="#8dd3c7" stroke="#000000" points="271.6094,-122 268.6094,-126 247.6094,-126 244.6094,-122 140.3906,-122 140.3906,-86 271.6094,-86 271.6094,-122"/>
<text text-anchor="middle" x="206" y="-99.8" font-family="Times,serif" font-size="14.00" fill="#000000">ChatRoutingModule</text>
</g>
<!-- ChatRoutingModule&#45;&gt;ChatsModule -->
<g id="edge5" class="edge">
<title>ChatRoutingModule&#45;&gt;ChatsModule</title>
<path fill="none" stroke="#000000" d="M206,-122.0225C206,-139.3734 206,-163 206,-163 206,-163 370.1486,-163 370.1486,-163"/>
<polygon fill="#000000" stroke="#000000" points="370.1486,-166.5001 380.1486,-163 370.1485,-159.5001 370.1486,-166.5001"/>
</g>
<!-- SharedModule -->
<g id="node7" class="node">
<title>SharedModule</title>
<polygon fill="#8dd3c7" stroke="#000000" points="122.4231,-122 119.4231,-126 98.4231,-126 95.4231,-122 23.5769,-122 23.5769,-86 122.4231,-86 122.4231,-122"/>
<text text-anchor="middle" x="73" y="-99.8" font-family="Times,serif" font-size="14.00" fill="#000000">SharedModule</text>
</g>
<!-- SharedModule&#45;&gt;ChatsModule -->
<g id="edge6" class="edge">
<title>SharedModule&#45;&gt;ChatsModule</title>
<path fill="none" stroke="#000000" d="M73,-122.2843C73,-143.3211 73,-175 73,-175 73,-175 370.2133,-175 370.2133,-175"/>
<polygon fill="#000000" stroke="#000000" points="370.2133,-178.5001 380.2133,-175 370.2133,-171.5001 370.2133,-178.5001"/>
</g>
</g>
</svg>
