<?xml version="1.0" encoding="UTF-8" standalone="no"?>
<!DOCTYPE svg PUBLIC "-//W3C//DTD SVG 1.1//EN"
 "http://www.w3.org/Graphics/SVG/1.1/DTD/svg11.dtd">
<!-- Generated by graphviz version 2.40.1 (20161225.0304)
 -->
<!-- Title: dependencies Pages: 1 -->
<svg width="716pt" height="211pt"
 viewBox="0.00 0.00 716.00 211.00" xmlns="http://www.w3.org/2000/svg" xmlns:xlink="http://www.w3.org/1999/xlink">
<g id="graph0" class="graph" transform="scale(1 1) rotate(0) translate(4 207)">
<title>dependencies</title>
<polygon fill="#ffffff" stroke="transparent" points="-4,4 -4,-207 712,-207 712,4 -4,4"/>
<text text-anchor="start" x="333.0091" y="-42.4" font-family="sans-serif" font-weight="bold" font-size="14.00" fill="#000000">Legend</text>
<polygon fill="#ffffb3" stroke="transparent" points="120,-10 120,-30 140,-30 140,-10 120,-10"/>
<text text-anchor="start" x="143.629" y="-15.4" font-family="sans-serif" font-size="14.00" fill="#000000"> &#160;Declarations</text>
<polygon fill="#8dd3c7" stroke="transparent" points="233,-10 233,-30 253,-30 253,-10 233,-10"/>
<text text-anchor="start" x="256.7251" y="-15.4" font-family="sans-serif" font-size="14.00" fill="#000000"> &#160;Module</text>
<polygon fill="#80b1d3" stroke="transparent" points="319,-10 319,-30 339,-30 339,-10 319,-10"/>
<text text-anchor="start" x="342.7812" y="-15.4" font-family="sans-serif" font-size="14.00" fill="#000000"> &#160;Bootstrap</text>
<polygon fill="#fdb462" stroke="transparent" points="416,-10 416,-30 436,-30 436,-10 416,-10"/>
<text text-anchor="start" x="439.6732" y="-15.4" font-family="sans-serif" font-size="14.00" fill="#000000"> &#160;Providers</text>
<polygon fill="#fb8072" stroke="transparent" points="512,-10 512,-30 532,-30 532,-10 512,-10"/>
<text text-anchor="start" x="535.7258" y="-15.4" font-family="sans-serif" font-size="14.00" fill="#000000"> &#160;Exports</text>
<g id="clust1" class="cluster">
<title>cluster_ChatsModule</title>
<polygon fill="none" stroke="#000000" stroke-dasharray="1,5" points="8,-70 8,-195 700,-195 700,-70 8,-70"/>
</g>
<g id="clust2" class="cluster">
<title>cluster_ChatsModule_declarations</title>
<polygon fill="none" stroke="#000000" points="288,-78 288,-130 692,-130 692,-78 288,-78"/>
</g>
<g id="clust6" class="cluster">
<title>cluster_ChatsModule_imports</title>
<polygon fill="none" stroke="#000000" points="16,-78 16,-130 280,-130 280,-78 16,-78"/>
</g>
<!-- ChatsComponent -->
<g id="node1" class="node">
<title>ChatsComponent</title>
<polygon fill="#ffffb3" stroke="#000000" points="683.719,-122 570.281,-122 570.281,-86 683.719,-86 683.719,-122"/>
<text text-anchor="middle" x="627" y="-99.8" font-family="Times,serif" font-size="14.00" fill="#000000">ChatsComponent</text>
</g>
<!-- ChatsModule -->
<g id="node4" class="node">
<title>ChatsModule</title>
<polygon fill="#8dd3c7" stroke="#000000" points="395.9372,-187 392.9372,-191 371.9372,-191 368.9372,-187 304.0628,-187 304.0628,-151 395.9372,-151 395.9372,-187"/>
<text text-anchor="middle" x="350" y="-164.8" font-family="Times,serif" font-size="14.00" fill="#000000">ChatsModule</text>
</g>
<!-- ChatsComponent&#45;&gt;ChatsModule -->
<g id="edge1" class="edge">
<title>ChatsComponent&#45;&gt;ChatsModule</title>
<path fill="none" stroke="#000000" d="M627,-122.2843C627,-143.3211 627,-175 627,-175 627,-175 405.7409,-175 405.7409,-175"/>
<polygon fill="#000000" stroke="#000000" points="405.741,-171.5001 395.7409,-175 405.7409,-178.5001 405.741,-171.5001"/>
</g>
<!-- ContactsComponent -->
<g id="node2" class="node">
<title>ContactsComponent</title>
<polygon fill="#ffffb3" stroke="#000000" points="552.3244,-122 421.6756,-122 421.6756,-86 552.3244,-86 552.3244,-122"/>
<text text-anchor="middle" x="487" y="-99.8" font-family="Times,serif" font-size="14.00" fill="#000000">ContactsComponent</text>
</g>
<!-- ContactsComponent&#45;&gt;ChatsModule -->
<g id="edge2" class="edge">
<title>ContactsComponent&#45;&gt;ChatsModule</title>
<path fill="none" stroke="#000000" d="M487,-122.0225C487,-139.3734 487,-163 487,-163 487,-163 406.0001,-163 406.0001,-163"/>
<polygon fill="#000000" stroke="#000000" points="406.0002,-159.5001 396.0001,-163 406.0001,-166.5001 406.0002,-159.5001"/>
</g>
<!-- ChatComponent -->
<g id="node3" class="node">
<title>ChatComponent</title>
<polygon fill="#ffffb3" stroke="#000000" points="403.7744,-122 296.2256,-122 296.2256,-86 403.7744,-86 403.7744,-122"/>
<text text-anchor="middle" x="350" y="-99.8" font-family="Times,serif" font-size="14.00" fill="#000000">ChatComponent</text>
</g>
<!-- ChatComponent&#45;&gt;ChatsModule -->
<g id="edge3" class="edge">
<title>ChatComponent&#45;&gt;ChatsModule</title>
<path fill="none" stroke="#000000" d="M350,-122.1061C350,-122.1061 350,-140.991 350,-140.991"/>
<polygon fill="#000000" stroke="#000000" points="346.5001,-140.9909 350,-150.991 353.5001,-140.991 346.5001,-140.9909"/>
</g>
<!-- SharedModule -->
<g id="node5" class="node">
<title>SharedModule</title>
<polygon fill="#8dd3c7" stroke="#000000" points="272.4231,-122 269.4231,-126 248.4231,-126 245.4231,-122 173.5769,-122 173.5769,-86 272.4231,-86 272.4231,-122"/>
<text text-anchor="middle" x="223" y="-99.8" font-family="Times,serif" font-size="14.00" fill="#000000">SharedModule</text>
</g>
<!-- SharedModule&#45;&gt;ChatsModule -->
<g id="edge4" class="edge">
<title>SharedModule&#45;&gt;ChatsModule</title>
<path fill="none" stroke="#000000" d="M223,-122.0225C223,-139.3734 223,-163 223,-163 223,-163 294.1501,-163 294.1501,-163"/>
<polygon fill="#000000" stroke="#000000" points="294.1501,-166.5001 304.1501,-163 294.1501,-159.5001 294.1501,-166.5001"/>
</g>
<!-- ChatRoutingModule -->
<g id="node6" class="node">
<title>ChatRoutingModule</title>
<polygon fill="#8dd3c7" stroke="#000000" points="155.6094,-122 152.6094,-126 131.6094,-126 128.6094,-122 24.3906,-122 24.3906,-86 155.6094,-86 155.6094,-122"/>
<text text-anchor="middle" x="90" y="-99.8" font-family="Times,serif" font-size="14.00" fill="#000000">ChatRoutingModule</text>
</g>
<!-- ChatRoutingModule&#45;&gt;ChatsModule -->
<g id="edge5" class="edge">
<title>ChatRoutingModule&#45;&gt;ChatsModule</title>
<path fill="none" stroke="#000000" d="M90,-122.2843C90,-143.3211 90,-175 90,-175 90,-175 294.1157,-175 294.1157,-175"/>
<polygon fill="#000000" stroke="#000000" points="294.1158,-178.5001 304.1157,-175 294.1157,-171.5001 294.1158,-178.5001"/>
</g>
</g>
</svg>
