<?xml version="1.0" encoding="UTF-8" standalone="no"?>
<!DOCTYPE svg PUBLIC "-//W3C//DTD SVG 1.1//EN"
 "http://www.w3.org/Graphics/SVG/1.1/DTD/svg11.dtd">
<!-- Generated by graphviz version 2.40.1 (20161225.0304)
 -->
<!-- Title: dependencies Pages: 1 -->
<svg width="1223pt" height="211pt"
 viewBox="0.00 0.00 1223.00 211.00" xmlns="http://www.w3.org/2000/svg" xmlns:xlink="http://www.w3.org/1999/xlink">
<g id="graph0" class="graph" transform="scale(1 1) rotate(0) translate(4 207)">
<title>dependencies</title>
<polygon fill="#ffffff" stroke="transparent" points="-4,4 -4,-207 1219,-207 1219,4 -4,4"/>
<text text-anchor="start" x="586.5091" y="-42.4" font-family="sans-serif" font-weight="bold" font-size="14.00" fill="#000000">Legend</text>
<polygon fill="#ffffb3" stroke="transparent" points="373.5,-10 373.5,-30 393.5,-30 393.5,-10 373.5,-10"/>
<text text-anchor="start" x="397.129" y="-15.4" font-family="sans-serif" font-size="14.00" fill="#000000"> &#160;Declarations</text>
<polygon fill="#8dd3c7" stroke="transparent" points="486.5,-10 486.5,-30 506.5,-30 506.5,-10 486.5,-10"/>
<text text-anchor="start" x="510.2251" y="-15.4" font-family="sans-serif" font-size="14.00" fill="#000000"> &#160;Module</text>
<polygon fill="#80b1d3" stroke="transparent" points="572.5,-10 572.5,-30 592.5,-30 592.5,-10 572.5,-10"/>
<text text-anchor="start" x="596.2812" y="-15.4" font-family="sans-serif" font-size="14.00" fill="#000000"> &#160;Bootstrap</text>
<polygon fill="#fdb462" stroke="transparent" points="669.5,-10 669.5,-30 689.5,-30 689.5,-10 669.5,-10"/>
<text text-anchor="start" x="693.1732" y="-15.4" font-family="sans-serif" font-size="14.00" fill="#000000"> &#160;Providers</text>
<polygon fill="#fb8072" stroke="transparent" points="765.5,-10 765.5,-30 785.5,-30 785.5,-10 765.5,-10"/>
<text text-anchor="start" x="789.2258" y="-15.4" font-family="sans-serif" font-size="14.00" fill="#000000"> &#160;Exports</text>
<g id="clust1" class="cluster">
<title>cluster_ChartModule</title>
<polygon fill="none" stroke="#000000" stroke-dasharray="1,5" points="8,-70 8,-195 1207,-195 1207,-70 8,-70"/>
</g>
<g id="clust2" class="cluster">
<title>cluster_ChartModule_declarations</title>
<polygon fill="none" stroke="#000000" points="292,-78 292,-130 1199,-130 1199,-78 292,-78"/>
</g>
<g id="clust10" class="cluster">
<title>cluster_ChartModule_imports</title>
<polygon fill="none" stroke="#000000" points="16,-78 16,-130 284,-130 284,-78 16,-78"/>
</g>
<!-- BarComponent -->
<g id="node1" class="node">
<title>BarComponent</title>
<polygon fill="#ffffb3" stroke="#000000" points="1190.5452,-122 1089.4548,-122 1089.4548,-86 1190.5452,-86 1190.5452,-122"/>
<text text-anchor="middle" x="1140" y="-99.8" font-family="Times,serif" font-size="14.00" fill="#000000">BarComponent</text>
</g>
<!-- ChartModule -->
<g id="node8" class="node">
<title>ChartModule</title>
<polygon fill="#8dd3c7" stroke="#000000" points="656.1529,-187 653.1529,-191 632.1529,-191 629.1529,-187 565.8471,-187 565.8471,-151 656.1529,-151 656.1529,-187"/>
<text text-anchor="middle" x="611" y="-164.8" font-family="Times,serif" font-size="14.00" fill="#000000">ChartModule</text>
</g>
<!-- BarComponent&#45;&gt;ChartModule -->
<g id="edge1" class="edge">
<title>BarComponent&#45;&gt;ChartModule</title>
<path fill="none" stroke="#000000" d="M1140,-122.0109C1140,-144.4852 1140,-180 1140,-180 1140,-180 666.5601,-180 666.5601,-180"/>
<polygon fill="#000000" stroke="#000000" points="666.5601,-176.5001 656.5601,-180 666.5601,-183.5001 666.5601,-176.5001"/>
</g>
<!-- ChartComponent -->
<g id="node2" class="node">
<title>ChartComponent</title>
<polygon fill="#ffffb3" stroke="#000000" points="1071.4356,-122 958.5644,-122 958.5644,-86 1071.4356,-86 1071.4356,-122"/>
<text text-anchor="middle" x="1015" y="-99.8" font-family="Times,serif" font-size="14.00" fill="#000000">ChartComponent</text>
</g>
<!-- ChartComponent&#45;&gt;ChartModule -->
<g id="edge2" class="edge">
<title>ChartComponent&#45;&gt;ChartModule</title>
<path fill="none" stroke="#000000" d="M1015,-122.1289C1015,-142.5724 1015,-173 1015,-173 1015,-173 666.168,-173 666.168,-173"/>
<polygon fill="#000000" stroke="#000000" points="666.168,-169.5001 656.168,-173 666.1679,-176.5001 666.168,-169.5001"/>
</g>
<!-- DoughnutComponent -->
<g id="node3" class="node">
<title>DoughnutComponent</title>
<polygon fill="#ffffb3" stroke="#000000" points="940.83,-122 803.17,-122 803.17,-86 940.83,-86 940.83,-122"/>
<text text-anchor="middle" x="872" y="-99.8" font-family="Times,serif" font-size="14.00" fill="#000000">DoughnutComponent</text>
</g>
<!-- DoughnutComponent&#45;&gt;ChartModule -->
<g id="edge3" class="edge">
<title>DoughnutComponent&#45;&gt;ChartModule</title>
<path fill="none" stroke="#000000" d="M872,-122.2667C872,-140.5552 872,-166 872,-166 872,-166 666.1648,-166 666.1648,-166"/>
<polygon fill="#000000" stroke="#000000" points="666.1648,-162.5001 656.1648,-166 666.1647,-169.5001 666.1648,-162.5001"/>
</g>
<!-- LineComponent -->
<g id="node4" class="node">
<title>LineComponent</title>
<polygon fill="#ffffb3" stroke="#000000" points="785.4902,-122 678.5098,-122 678.5098,-86 785.4902,-86 785.4902,-122"/>
<text text-anchor="middle" x="732" y="-99.8" font-family="Times,serif" font-size="14.00" fill="#000000">LineComponent</text>
</g>
<!-- LineComponent&#45;&gt;ChartModule -->
<g id="edge4" class="edge">
<title>LineComponent&#45;&gt;ChartModule</title>
<path fill="none" stroke="#000000" d="M732,-122.0091C732,-138.0494 732,-159 732,-159 732,-159 666.4002,-159 666.4002,-159"/>
<polygon fill="#000000" stroke="#000000" points="666.4002,-155.5001 656.4002,-159 666.4002,-162.5001 666.4002,-155.5001"/>
</g>
<!-- PieComponent -->
<g id="node5" class="node">
<title>PieComponent</title>
<polygon fill="#ffffb3" stroke="#000000" points="660.7204,-122 561.2796,-122 561.2796,-86 660.7204,-86 660.7204,-122"/>
<text text-anchor="middle" x="611" y="-99.8" font-family="Times,serif" font-size="14.00" fill="#000000">PieComponent</text>
</g>
<!-- PieComponent&#45;&gt;ChartModule -->
<g id="edge5" class="edge">
<title>PieComponent&#45;&gt;ChartModule</title>
<path fill="none" stroke="#000000" d="M611,-122.1061C611,-122.1061 611,-140.991 611,-140.991"/>
<polygon fill="#000000" stroke="#000000" points="607.5001,-140.9909 611,-150.991 614.5001,-140.991 607.5001,-140.9909"/>
</g>
<!-- PolarComponent -->
<g id="node6" class="node">
<title>PolarComponent</title>
<polygon fill="#ffffb3" stroke="#000000" points="543.3809,-122 432.6191,-122 432.6191,-86 543.3809,-86 543.3809,-122"/>
<text text-anchor="middle" x="488" y="-99.8" font-family="Times,serif" font-size="14.00" fill="#000000">PolarComponent</text>
</g>
<!-- PolarComponent&#45;&gt;ChartModule -->
<g id="edge6" class="edge">
<title>PolarComponent&#45;&gt;ChartModule</title>
<path fill="none" stroke="#000000" d="M488,-122.0091C488,-138.0494 488,-159 488,-159 488,-159 555.5488,-159 555.5488,-159"/>
<polygon fill="#000000" stroke="#000000" points="555.5488,-162.5001 565.5488,-159 555.5488,-155.5001 555.5488,-162.5001"/>
</g>
<!-- RadarComponent -->
<g id="node7" class="node">
<title>RadarComponent</title>
<polygon fill="#ffffb3" stroke="#000000" points="414.2591,-122 299.7409,-122 299.7409,-86 414.2591,-86 414.2591,-122"/>
<text text-anchor="middle" x="357" y="-99.8" font-family="Times,serif" font-size="14.00" fill="#000000">RadarComponent</text>
</g>
<!-- RadarComponent&#45;&gt;ChartModule -->
<g id="edge7" class="edge">
<title>RadarComponent&#45;&gt;ChartModule</title>
<path fill="none" stroke="#000000" d="M357,-122.2667C357,-140.5552 357,-166 357,-166 357,-166 555.5899,-166 555.5899,-166"/>
<polygon fill="#000000" stroke="#000000" points="555.5899,-169.5001 565.5899,-166 555.5899,-162.5001 555.5899,-169.5001"/>
</g>
<!-- ChartRoutingModule -->
<g id="node9" class="node">
<title>ChartRoutingModule</title>
<polygon fill="#8dd3c7" stroke="#000000" points="275.7702,-122 272.7702,-126 251.7702,-126 248.7702,-122 140.2298,-122 140.2298,-86 275.7702,-86 275.7702,-122"/>
<text text-anchor="middle" x="208" y="-99.8" font-family="Times,serif" font-size="14.00" fill="#000000">ChartRoutingModule</text>
</g>
<!-- ChartRoutingModule&#45;&gt;ChartModule -->
<g id="edge8" class="edge">
<title>ChartRoutingModule&#45;&gt;ChartModule</title>
<path fill="none" stroke="#000000" d="M208,-122.1289C208,-142.5724 208,-173 208,-173 208,-173 555.5542,-173 555.5542,-173"/>
<polygon fill="#000000" stroke="#000000" points="555.5542,-176.5001 565.5542,-173 555.5541,-169.5001 555.5542,-176.5001"/>
</g>
<!-- SharedModule -->
<g id="node10" class="node">
<title>SharedModule</title>
<polygon fill="#8dd3c7" stroke="#000000" points="122.4231,-122 119.4231,-126 98.4231,-126 95.4231,-122 23.5769,-122 23.5769,-86 122.4231,-86 122.4231,-122"/>
<text text-anchor="middle" x="73" y="-99.8" font-family="Times,serif" font-size="14.00" fill="#000000">SharedModule</text>
</g>
<!-- SharedModule&#45;&gt;ChartModule -->
<g id="edge9" class="edge">
<title>SharedModule&#45;&gt;ChartModule</title>
<path fill="none" stroke="#000000" d="M73,-122.0109C73,-144.4852 73,-180 73,-180 73,-180 555.5941,-180 555.5941,-180"/>
<polygon fill="#000000" stroke="#000000" points="555.5941,-183.5001 565.5941,-180 555.5941,-176.5001 555.5941,-183.5001"/>
</g>
</g>
</svg>
