<?xml version="1.0" encoding="UTF-8" standalone="no"?>
<!DOCTYPE svg PUBLIC "-//W3C//DTD SVG 1.1//EN"
 "http://www.w3.org/Graphics/SVG/1.1/DTD/svg11.dtd">
<!-- Generated by graphviz version 2.40.1 (20161225.0304)
 -->
<!-- Title: dependencies Pages: 1 -->
<svg width="1222pt" height="211pt"
 viewBox="0.00 0.00 1222.00 211.00" xmlns="http://www.w3.org/2000/svg" xmlns:xlink="http://www.w3.org/1999/xlink">
<g id="graph0" class="graph" transform="scale(1 1) rotate(0) translate(4 207)">
<title>dependencies</title>
<polygon fill="#ffffff" stroke="transparent" points="-4,4 -4,-207 1218,-207 1218,4 -4,4"/>
<text text-anchor="start" x="586.0091" y="-42.4" font-family="sans-serif" font-weight="bold" font-size="14.00" fill="#000000">Legend</text>
<polygon fill="#ffffb3" stroke="transparent" points="373,-10 373,-30 393,-30 393,-10 373,-10"/>
<text text-anchor="start" x="396.629" y="-15.4" font-family="sans-serif" font-size="14.00" fill="#000000"> &#160;Declarations</text>
<polygon fill="#8dd3c7" stroke="transparent" points="486,-10 486,-30 506,-30 506,-10 486,-10"/>
<text text-anchor="start" x="509.7251" y="-15.4" font-family="sans-serif" font-size="14.00" fill="#000000"> &#160;Module</text>
<polygon fill="#80b1d3" stroke="transparent" points="572,-10 572,-30 592,-30 592,-10 572,-10"/>
<text text-anchor="start" x="595.7812" y="-15.4" font-family="sans-serif" font-size="14.00" fill="#000000"> &#160;Bootstrap</text>
<polygon fill="#fdb462" stroke="transparent" points="669,-10 669,-30 689,-30 689,-10 669,-10"/>
<text text-anchor="start" x="692.6732" y="-15.4" font-family="sans-serif" font-size="14.00" fill="#000000"> &#160;Providers</text>
<polygon fill="#fb8072" stroke="transparent" points="765,-10 765,-30 785,-30 785,-10 765,-10"/>
<text text-anchor="start" x="788.7258" y="-15.4" font-family="sans-serif" font-size="14.00" fill="#000000"> &#160;Exports</text>
<g id="clust1" class="cluster">
<title>cluster_ChartModule</title>
<polygon fill="none" stroke="#000000" stroke-dasharray="1,5" points="8,-70 8,-195 1206,-195 1206,-70 8,-70"/>
</g>
<g id="clust2" class="cluster">
<title>cluster_ChartModule_declarations</title>
<polygon fill="none" stroke="#000000" points="292,-78 292,-130 1198,-130 1198,-78 292,-78"/>
</g>
<g id="clust10" class="cluster">
<title>cluster_ChartModule_imports</title>
<polygon fill="none" stroke="#000000" points="16,-78 16,-130 284,-130 284,-78 16,-78"/>
</g>
<!-- ChartComponent -->
<g id="node1" class="node">
<title>ChartComponent</title>
<polygon fill="#ffffb3" stroke="#000000" points="1190.4356,-122 1077.5644,-122 1077.5644,-86 1190.4356,-86 1190.4356,-122"/>
<text text-anchor="middle" x="1134" y="-99.8" font-family="Times,serif" font-size="14.00" fill="#000000">ChartComponent</text>
</g>
<!-- ChartModule -->
<g id="node8" class="node">
<title>ChartModule</title>
<polygon fill="#8dd3c7" stroke="#000000" points="648.1529,-187 645.1529,-191 624.1529,-191 621.1529,-187 557.8471,-187 557.8471,-151 648.1529,-151 648.1529,-187"/>
<text text-anchor="middle" x="603" y="-164.8" font-family="Times,serif" font-size="14.00" fill="#000000">ChartModule</text>
</g>
<!-- ChartComponent&#45;&gt;ChartModule -->
<g id="edge1" class="edge">
<title>ChartComponent&#45;&gt;ChartModule</title>
<path fill="none" stroke="#000000" d="M1134,-122.0109C1134,-144.4852 1134,-180 1134,-180 1134,-180 658.2728,-180 658.2728,-180"/>
<polygon fill="#000000" stroke="#000000" points="658.2728,-176.5001 648.2728,-180 658.2727,-183.5001 658.2728,-176.5001"/>
</g>
<!-- LineComponent -->
<g id="node2" class="node">
<title>LineComponent</title>
<polygon fill="#ffffb3" stroke="#000000" points="1059.4902,-122 952.5098,-122 952.5098,-86 1059.4902,-86 1059.4902,-122"/>
<text text-anchor="middle" x="1006" y="-99.8" font-family="Times,serif" font-size="14.00" fill="#000000">LineComponent</text>
</g>
<!-- LineComponent&#45;&gt;ChartModule -->
<g id="edge2" class="edge">
<title>LineComponent&#45;&gt;ChartModule</title>
<path fill="none" stroke="#000000" d="M1006,-122.1289C1006,-142.5724 1006,-173 1006,-173 1006,-173 658.4458,-173 658.4458,-173"/>
<polygon fill="#000000" stroke="#000000" points="658.4459,-169.5001 648.4458,-173 658.4458,-176.5001 658.4459,-169.5001"/>
</g>
<!-- BarComponent -->
<g id="node3" class="node">
<title>BarComponent</title>
<polygon fill="#ffffb3" stroke="#000000" points="934.5452,-122 833.4548,-122 833.4548,-86 934.5452,-86 934.5452,-122"/>
<text text-anchor="middle" x="884" y="-99.8" font-family="Times,serif" font-size="14.00" fill="#000000">BarComponent</text>
</g>
<!-- BarComponent&#45;&gt;ChartModule -->
<g id="edge3" class="edge">
<title>BarComponent&#45;&gt;ChartModule</title>
<path fill="none" stroke="#000000" d="M884,-122.2667C884,-140.5552 884,-166 884,-166 884,-166 658.4598,-166 658.4598,-166"/>
<polygon fill="#000000" stroke="#000000" points="658.4598,-162.5001 648.4598,-166 658.4598,-169.5001 658.4598,-162.5001"/>
</g>
<!-- DoughnutComponent -->
<g id="node4" class="node">
<title>DoughnutComponent</title>
<polygon fill="#ffffb3" stroke="#000000" points="815.83,-122 678.17,-122 678.17,-86 815.83,-86 815.83,-122"/>
<text text-anchor="middle" x="747" y="-99.8" font-family="Times,serif" font-size="14.00" fill="#000000">DoughnutComponent</text>
</g>
<!-- DoughnutComponent&#45;&gt;ChartModule -->
<g id="edge4" class="edge">
<title>DoughnutComponent&#45;&gt;ChartModule</title>
<path fill="none" stroke="#000000" d="M747,-122.0091C747,-138.0494 747,-159 747,-159 747,-159 658.1674,-159 658.1674,-159"/>
<polygon fill="#000000" stroke="#000000" points="658.1674,-155.5001 648.1674,-159 658.1674,-162.5001 658.1674,-155.5001"/>
</g>
<!-- RadarComponent -->
<g id="node5" class="node">
<title>RadarComponent</title>
<polygon fill="#ffffb3" stroke="#000000" points="660.2591,-122 545.7409,-122 545.7409,-86 660.2591,-86 660.2591,-122"/>
<text text-anchor="middle" x="603" y="-99.8" font-family="Times,serif" font-size="14.00" fill="#000000">RadarComponent</text>
</g>
<!-- RadarComponent&#45;&gt;ChartModule -->
<g id="edge5" class="edge">
<title>RadarComponent&#45;&gt;ChartModule</title>
<path fill="none" stroke="#000000" d="M603,-122.1061C603,-122.1061 603,-140.991 603,-140.991"/>
<polygon fill="#000000" stroke="#000000" points="599.5001,-140.9909 603,-150.991 606.5001,-140.991 599.5001,-140.9909"/>
</g>
<!-- PieComponent -->
<g id="node6" class="node">
<title>PieComponent</title>
<polygon fill="#ffffb3" stroke="#000000" points="527.7204,-122 428.2796,-122 428.2796,-86 527.7204,-86 527.7204,-122"/>
<text text-anchor="middle" x="478" y="-99.8" font-family="Times,serif" font-size="14.00" fill="#000000">PieComponent</text>
</g>
<!-- PieComponent&#45;&gt;ChartModule -->
<g id="edge6" class="edge">
<title>PieComponent&#45;&gt;ChartModule</title>
<path fill="none" stroke="#000000" d="M478,-122.0091C478,-138.0494 478,-159 478,-159 478,-159 547.5185,-159 547.5185,-159"/>
<polygon fill="#000000" stroke="#000000" points="547.5186,-162.5001 557.5185,-159 547.5185,-155.5001 547.5186,-162.5001"/>
</g>
<!-- PolarComponent -->
<g id="node7" class="node">
<title>PolarComponent</title>
<polygon fill="#ffffb3" stroke="#000000" points="410.3809,-122 299.6191,-122 299.6191,-86 410.3809,-86 410.3809,-122"/>
<text text-anchor="middle" x="355" y="-99.8" font-family="Times,serif" font-size="14.00" fill="#000000">PolarComponent</text>
</g>
<!-- PolarComponent&#45;&gt;ChartModule -->
<g id="edge7" class="edge">
<title>PolarComponent&#45;&gt;ChartModule</title>
<path fill="none" stroke="#000000" d="M355,-122.2667C355,-140.5552 355,-166 355,-166 355,-166 547.8013,-166 547.8013,-166"/>
<polygon fill="#000000" stroke="#000000" points="547.8014,-169.5001 557.8013,-166 547.8013,-162.5001 547.8014,-169.5001"/>
</g>
<!-- SharedModule -->
<g id="node9" class="node">
<title>SharedModule</title>
<polygon fill="#8dd3c7" stroke="#000000" points="276.4231,-122 273.4231,-126 252.4231,-126 249.4231,-122 177.5769,-122 177.5769,-86 276.4231,-86 276.4231,-122"/>
<text text-anchor="middle" x="227" y="-99.8" font-family="Times,serif" font-size="14.00" fill="#000000">SharedModule</text>
</g>
<!-- SharedModule&#45;&gt;ChartModule -->
<g id="edge8" class="edge">
<title>SharedModule&#45;&gt;ChartModule</title>
<path fill="none" stroke="#000000" d="M227,-122.1289C227,-142.5724 227,-173 227,-173 227,-173 547.6456,-173 547.6456,-173"/>
<polygon fill="#000000" stroke="#000000" points="547.6456,-176.5001 557.6456,-173 547.6456,-169.5001 547.6456,-176.5001"/>
</g>
<!-- ChartRoutingModule -->
<g id="node10" class="node">
<title>ChartRoutingModule</title>
<polygon fill="#8dd3c7" stroke="#000000" points="159.7702,-122 156.7702,-126 135.7702,-126 132.7702,-122 24.2298,-122 24.2298,-86 159.7702,-86 159.7702,-122"/>
<text text-anchor="middle" x="92" y="-99.8" font-family="Times,serif" font-size="14.00" fill="#000000">ChartRoutingModule</text>
</g>
<!-- ChartRoutingModule&#45;&gt;ChartModule -->
<g id="edge9" class="edge">
<title>ChartRoutingModule&#45;&gt;ChartModule</title>
<path fill="none" stroke="#000000" d="M92,-122.0109C92,-144.4852 92,-180 92,-180 92,-180 547.6522,-180 547.6522,-180"/>
<polygon fill="#000000" stroke="#000000" points="547.6522,-183.5001 557.6522,-180 547.6521,-176.5001 547.6522,-183.5001"/>
</g>
</g>
</svg>
