<?xml version="1.0" encoding="UTF-8" standalone="no"?>
<!DOCTYPE svg PUBLIC "-//W3C//DTD SVG 1.1//EN"
 "http://www.w3.org/Graphics/SVG/1.1/DTD/svg11.dtd">
<!-- Generated by graphviz version 2.40.1 (20161225.0304)
 -->
<!-- Title: dependencies Pages: 1 -->
<svg width="504pt" height="284pt"
 viewBox="0.00 0.00 504.00 284.00" xmlns="http://www.w3.org/2000/svg" xmlns:xlink="http://www.w3.org/1999/xlink">
<g id="graph0" class="graph" transform="scale(1 1) rotate(0) translate(4 280)">
<title>dependencies</title>
<polygon fill="#ffffff" stroke="transparent" points="-4,4 -4,-280 500,-280 500,4 -4,4"/>
<text text-anchor="start" x="227.0091" y="-42.4" font-family="sans-serif" font-weight="bold" font-size="14.00" fill="#000000">Legend</text>
<polygon fill="#ffffb3" stroke="transparent" points="14,-10 14,-30 34,-30 34,-10 14,-10"/>
<text text-anchor="start" x="37.629" y="-15.4" font-family="sans-serif" font-size="14.00" fill="#000000"> &#160;Declarations</text>
<polygon fill="#8dd3c7" stroke="transparent" points="127,-10 127,-30 147,-30 147,-10 127,-10"/>
<text text-anchor="start" x="150.7251" y="-15.4" font-family="sans-serif" font-size="14.00" fill="#000000"> &#160;Module</text>
<polygon fill="#80b1d3" stroke="transparent" points="213,-10 213,-30 233,-30 233,-10 213,-10"/>
<text text-anchor="start" x="236.7812" y="-15.4" font-family="sans-serif" font-size="14.00" fill="#000000"> &#160;Bootstrap</text>
<polygon fill="#fdb462" stroke="transparent" points="310,-10 310,-30 330,-30 330,-10 310,-10"/>
<text text-anchor="start" x="333.6732" y="-15.4" font-family="sans-serif" font-size="14.00" fill="#000000"> &#160;Providers</text>
<polygon fill="#fb8072" stroke="transparent" points="406,-10 406,-30 426,-30 426,-10 406,-10"/>
<text text-anchor="start" x="429.7258" y="-15.4" font-family="sans-serif" font-size="14.00" fill="#000000"> &#160;Exports</text>
<g id="clust1" class="cluster">
<title>cluster_LoadingModule</title>
<polygon fill="none" stroke="#000000" stroke-dasharray="1,5" points="98,-70 98,-268 398,-268 398,-70 98,-70"/>
</g>
<g id="clust2" class="cluster">
<title>cluster_LoadingModule_declarations</title>
<polygon fill="none" stroke="#000000" points="110,-78 110,-130 386,-130 386,-78 110,-78"/>
</g>
<g id="clust6" class="cluster">
<title>cluster_LoadingModule_exports</title>
<polygon fill="none" stroke="#000000" points="106,-208 106,-260 390,-260 390,-208 106,-208"/>
</g>
<!-- LoadingComponent -->
<g id="node1" class="node">
<title>LoadingComponent</title>
<polygon fill="#ffffb3" stroke="#000000" points="377.9902,-122 250.0098,-122 250.0098,-86 377.9902,-86 377.9902,-122"/>
<text text-anchor="middle" x="314" y="-99.8" font-family="Times,serif" font-size="14.00" fill="#000000">LoadingComponent</text>
</g>
<!-- LoadingModule -->
<g id="node3" class="node">
<title>LoadingModule</title>
<polygon fill="#8dd3c7" stroke="#000000" points="229.2078,-187 226.2078,-191 205.2078,-191 202.2078,-187 122.7922,-187 122.7922,-151 229.2078,-151 229.2078,-187"/>
<text text-anchor="middle" x="176" y="-164.8" font-family="Times,serif" font-size="14.00" fill="#000000">LoadingModule</text>
</g>
<!-- LoadingComponent&#45;&gt;LoadingModule -->
<g id="edge1" class="edge">
<title>LoadingComponent&#45;&gt;LoadingModule</title>
<path fill="none" stroke="#000000" d="M335.415,-122.0225C335.415,-139.3734 335.415,-163 335.415,-163 335.415,-163 239.5264,-163 239.5264,-163"/>
<polygon fill="#000000" stroke="#000000" points="239.5264,-159.5001 229.5264,-163 239.5263,-166.5001 239.5264,-159.5001"/>
</g>
<!-- LoadingDirective -->
<g id="node2" class="node">
<title>LoadingDirective</title>
<polygon fill="#ffffb3" stroke="#000000" points="232.2409,-122 117.7591,-122 117.7591,-86 232.2409,-86 232.2409,-122"/>
<text text-anchor="middle" x="175" y="-99.8" font-family="Times,serif" font-size="14.00" fill="#000000">LoadingDirective</text>
</g>
<!-- LoadingDirective&#45;&gt;LoadingModule -->
<g id="edge2" class="edge">
<title>LoadingDirective&#45;&gt;LoadingModule</title>
<path fill="none" stroke="#000000" d="M176,-122.1061C176,-122.1061 176,-140.991 176,-140.991"/>
<polygon fill="#000000" stroke="#000000" points="172.5001,-140.9909 176,-150.991 179.5001,-140.991 172.5001,-140.9909"/>
</g>
<!-- LoadingComponent  -->
<g id="node4" class="node">
<title>LoadingComponent </title>
<polygon fill="#fb8072" stroke="#000000" points="381.9911,-252 250.0089,-252 250.0089,-216 381.9911,-216 381.9911,-252"/>
<text text-anchor="middle" x="316" y="-229.8" font-family="Times,serif" font-size="14.00" fill="#000000">LoadingComponent </text>
</g>
<!-- LoadingModule&#45;&gt;LoadingComponent  -->
<g id="edge3" class="edge">
<title>LoadingModule&#45;&gt;LoadingComponent </title>
<path fill="none" stroke="#000000" stroke-dasharray="5,2" d="M229.289,-175C260.103,-175 292.835,-175 292.835,-175 292.835,-175 292.835,-205.9775 292.835,-205.9775"/>
<polygon fill="#000000" stroke="#000000" points="289.3351,-205.9774 292.835,-215.9775 296.3351,-205.9775 289.3351,-205.9774"/>
</g>
<!-- LoadingDirective  -->
<g id="node5" class="node">
<title>LoadingDirective </title>
<polygon fill="#fb8072" stroke="#000000" points="232.2408,-252 113.7592,-252 113.7592,-216 232.2408,-216 232.2408,-252"/>
<text text-anchor="middle" x="173" y="-229.8" font-family="Times,serif" font-size="14.00" fill="#000000">LoadingDirective </text>
</g>
<!-- LoadingModule&#45;&gt;LoadingDirective  -->
<g id="edge4" class="edge">
<title>LoadingModule&#45;&gt;LoadingDirective </title>
<path fill="none" stroke="#000000" stroke-dasharray="5,2" d="M176,-187.1061C176,-187.1061 176,-205.991 176,-205.991"/>
<polygon fill="#000000" stroke="#000000" points="172.5001,-205.9909 176,-215.991 179.5001,-205.991 172.5001,-205.9909"/>
</g>
</g>
</svg>
