<?xml version="1.0" encoding="UTF-8" standalone="no"?>
<!DOCTYPE svg PUBLIC "-//W3C//DTD SVG 1.1//EN"
 "http://www.w3.org/Graphics/SVG/1.1/DTD/svg11.dtd">
<!-- Generated by graphviz version 2.40.1 (20161225.0304)
 -->
<!-- Title: dependencies Pages: 1 -->
<svg width="990pt" height="211pt"
 viewBox="0.00 0.00 990.00 211.00" xmlns="http://www.w3.org/2000/svg" xmlns:xlink="http://www.w3.org/1999/xlink">
<g id="graph0" class="graph" transform="scale(1 1) rotate(0) translate(4 207)">
<title>dependencies</title>
<polygon fill="#ffffff" stroke="transparent" points="-4,4 -4,-207 986,-207 986,4 -4,4"/>
<text text-anchor="start" x="470.0091" y="-42.4" font-family="sans-serif" font-weight="bold" font-size="14.00" fill="#000000">Legend</text>
<polygon fill="#ffffb3" stroke="transparent" points="257,-10 257,-30 277,-30 277,-10 257,-10"/>
<text text-anchor="start" x="280.629" y="-15.4" font-family="sans-serif" font-size="14.00" fill="#000000"> &#160;Declarations</text>
<polygon fill="#8dd3c7" stroke="transparent" points="370,-10 370,-30 390,-30 390,-10 370,-10"/>
<text text-anchor="start" x="393.7251" y="-15.4" font-family="sans-serif" font-size="14.00" fill="#000000"> &#160;Module</text>
<polygon fill="#80b1d3" stroke="transparent" points="456,-10 456,-30 476,-30 476,-10 456,-10"/>
<text text-anchor="start" x="479.7812" y="-15.4" font-family="sans-serif" font-size="14.00" fill="#000000"> &#160;Bootstrap</text>
<polygon fill="#fdb462" stroke="transparent" points="553,-10 553,-30 573,-30 573,-10 553,-10"/>
<text text-anchor="start" x="576.6732" y="-15.4" font-family="sans-serif" font-size="14.00" fill="#000000"> &#160;Providers</text>
<polygon fill="#fb8072" stroke="transparent" points="649,-10 649,-30 669,-30 669,-10 649,-10"/>
<text text-anchor="start" x="672.7258" y="-15.4" font-family="sans-serif" font-size="14.00" fill="#000000"> &#160;Exports</text>
<g id="clust1" class="cluster">
<title>cluster_AdminModule</title>
<polygon fill="none" stroke="#000000" stroke-dasharray="1,5" points="8,-70 8,-195 974,-195 974,-70 8,-70"/>
</g>
<g id="clust2" class="cluster">
<title>cluster_AdminModule_declarations</title>
<polygon fill="none" stroke="#000000" points="396,-78 396,-130 966,-130 966,-78 396,-78"/>
</g>
<g id="clust7" class="cluster">
<title>cluster_AdminModule_imports</title>
<polygon fill="none" stroke="#000000" points="16,-78 16,-130 388,-130 388,-78 16,-78"/>
</g>
<!-- AdminComponent -->
<g id="node1" class="node">
<title>AdminComponent</title>
<polygon fill="#ffffb3" stroke="#000000" points="958.2204,-122 837.7796,-122 837.7796,-86 958.2204,-86 958.2204,-122"/>
<text text-anchor="middle" x="898" y="-99.8" font-family="Times,serif" font-size="14.00" fill="#000000">AdminComponent</text>
</g>
<!-- AdminModule -->
<g id="node5" class="node">
<title>AdminModule</title>
<polygon fill="#8dd3c7" stroke="#000000" points="512.4386,-187 509.4386,-191 488.4386,-191 485.4386,-187 413.5614,-187 413.5614,-151 512.4386,-151 512.4386,-187"/>
<text text-anchor="middle" x="463" y="-164.8" font-family="Times,serif" font-size="14.00" fill="#000000">AdminModule</text>
</g>
<!-- AdminComponent&#45;&gt;AdminModule -->
<g id="edge1" class="edge">
<title>AdminComponent&#45;&gt;AdminModule</title>
<path fill="none" stroke="#000000" d="M898,-122.2921C898,-144.2057 898,-178 898,-178 898,-178 522.4765,-178 522.4765,-178"/>
<polygon fill="#000000" stroke="#000000" points="522.4766,-174.5001 512.4765,-178 522.4765,-181.5001 522.4766,-174.5001"/>
</g>
<!-- BrandComponent -->
<g id="node2" class="node">
<title>BrandComponent</title>
<polygon fill="#ffffb3" stroke="#000000" points="819.5451,-122 704.4549,-122 704.4549,-86 819.5451,-86 819.5451,-122"/>
<text text-anchor="middle" x="762" y="-99.8" font-family="Times,serif" font-size="14.00" fill="#000000">BrandComponent</text>
</g>
<!-- BrandComponent&#45;&gt;AdminModule -->
<g id="edge2" class="edge">
<title>BrandComponent&#45;&gt;AdminModule</title>
<path fill="none" stroke="#000000" d="M762,-122.1061C762,-141.3391 762,-169 762,-169 762,-169 522.3738,-169 522.3738,-169"/>
<polygon fill="#000000" stroke="#000000" points="522.3738,-165.5001 512.3738,-169 522.3737,-172.5001 522.3738,-165.5001"/>
</g>
<!-- CustomizerComponent -->
<g id="node3" class="node">
<title>CustomizerComponent</title>
<polygon fill="#ffffb3" stroke="#000000" points="685.8753,-122 540.1247,-122 540.1247,-86 685.8753,-86 685.8753,-122"/>
<text text-anchor="middle" x="613" y="-99.8" font-family="Times,serif" font-size="14.00" fill="#000000">CustomizerComponent</text>
</g>
<!-- CustomizerComponent&#45;&gt;AdminModule -->
<g id="edge3" class="edge">
<title>CustomizerComponent&#45;&gt;AdminModule</title>
<path fill="none" stroke="#000000" d="M613,-122.027C613,-138.3976 613,-160 613,-160 613,-160 522.5313,-160 522.5313,-160"/>
<polygon fill="#000000" stroke="#000000" points="522.5314,-156.5001 512.5313,-160 522.5313,-163.5001 522.5314,-156.5001"/>
</g>
<!-- FooterComponent -->
<g id="node4" class="node">
<title>FooterComponent</title>
<polygon fill="#ffffb3" stroke="#000000" points="521.8809,-122 404.1191,-122 404.1191,-86 521.8809,-86 521.8809,-122"/>
<text text-anchor="middle" x="463" y="-99.8" font-family="Times,serif" font-size="14.00" fill="#000000">FooterComponent</text>
</g>
<!-- FooterComponent&#45;&gt;AdminModule -->
<g id="edge4" class="edge">
<title>FooterComponent&#45;&gt;AdminModule</title>
<path fill="none" stroke="#000000" d="M463,-122.1061C463,-122.1061 463,-140.991 463,-140.991"/>
<polygon fill="#000000" stroke="#000000" points="459.5001,-140.9909 463,-150.991 466.5001,-140.991 459.5001,-140.9909"/>
</g>
<!-- SharedModule -->
<g id="node6" class="node">
<title>SharedModule</title>
<polygon fill="#8dd3c7" stroke="#000000" points="380.4231,-122 377.4231,-126 356.4231,-126 353.4231,-122 281.5769,-122 281.5769,-86 380.4231,-86 380.4231,-122"/>
<text text-anchor="middle" x="331" y="-99.8" font-family="Times,serif" font-size="14.00" fill="#000000">SharedModule</text>
</g>
<!-- SharedModule&#45;&gt;AdminModule -->
<g id="edge5" class="edge">
<title>SharedModule&#45;&gt;AdminModule</title>
<path fill="none" stroke="#000000" d="M331,-122.027C331,-138.3976 331,-160 331,-160 331,-160 403.4725,-160 403.4725,-160"/>
<polygon fill="#000000" stroke="#000000" points="403.4726,-163.5001 413.4725,-160 403.4725,-156.5001 403.4726,-163.5001"/>
</g>
<!-- HeaderModule -->
<g id="node7" class="node">
<title>HeaderModule</title>
<polygon fill="#8dd3c7" stroke="#000000" points="263.9608,-122 260.9608,-126 239.9608,-126 236.9608,-122 164.0392,-122 164.0392,-86 263.9608,-86 263.9608,-122"/>
<text text-anchor="middle" x="214" y="-99.8" font-family="Times,serif" font-size="14.00" fill="#000000">HeaderModule</text>
</g>
<!-- HeaderModule&#45;&gt;AdminModule -->
<g id="edge6" class="edge">
<title>HeaderModule&#45;&gt;AdminModule</title>
<path fill="none" stroke="#000000" d="M214,-122.1061C214,-141.3391 214,-169 214,-169 214,-169 403.5079,-169 403.5079,-169"/>
<polygon fill="#000000" stroke="#000000" points="403.5079,-172.5001 413.5079,-169 403.5079,-165.5001 403.5079,-172.5001"/>
</g>
<!-- NavigationModule -->
<g id="node8" class="node">
<title>NavigationModule</title>
<polygon fill="#8dd3c7" stroke="#000000" points="145.7576,-122 142.7576,-126 121.7576,-126 118.7576,-122 24.2424,-122 24.2424,-86 145.7576,-86 145.7576,-122"/>
<text text-anchor="middle" x="85" y="-99.8" font-family="Times,serif" font-size="14.00" fill="#000000">NavigationModule</text>
</g>
<!-- NavigationModule&#45;&gt;AdminModule -->
<g id="edge7" class="edge">
<title>NavigationModule&#45;&gt;AdminModule</title>
<path fill="none" stroke="#000000" d="M85,-122.2921C85,-144.2057 85,-178 85,-178 85,-178 403.5831,-178 403.5831,-178"/>
<polygon fill="#000000" stroke="#000000" points="403.5831,-181.5001 413.5831,-178 403.5831,-174.5001 403.5831,-181.5001"/>
</g>
</g>
</svg>
