<?xml version="1.0" encoding="UTF-8" standalone="no"?>
<!DOCTYPE svg PUBLIC "-//W3C//DTD SVG 1.1//EN"
 "http://www.w3.org/Graphics/SVG/1.1/DTD/svg11.dtd">
<!-- Generated by graphviz version 2.40.1 (20161225.0304)
 -->
<!-- Title: dependencies Pages: 1 -->
<svg width="972pt" height="211pt"
 viewBox="0.00 0.00 972.00 211.00" xmlns="http://www.w3.org/2000/svg" xmlns:xlink="http://www.w3.org/1999/xlink">
<g id="graph0" class="graph" transform="scale(1 1) rotate(0) translate(4 207)">
<title>dependencies</title>
<polygon fill="#ffffff" stroke="transparent" points="-4,4 -4,-207 968,-207 968,4 -4,4"/>
<text text-anchor="start" x="461.0091" y="-42.4" font-family="sans-serif" font-weight="bold" font-size="14.00" fill="#000000">Legend</text>
<polygon fill="#ffffb3" stroke="transparent" points="248,-10 248,-30 268,-30 268,-10 248,-10"/>
<text text-anchor="start" x="271.629" y="-15.4" font-family="sans-serif" font-size="14.00" fill="#000000"> &#160;Declarations</text>
<polygon fill="#8dd3c7" stroke="transparent" points="361,-10 361,-30 381,-30 381,-10 361,-10"/>
<text text-anchor="start" x="384.7251" y="-15.4" font-family="sans-serif" font-size="14.00" fill="#000000"> &#160;Module</text>
<polygon fill="#80b1d3" stroke="transparent" points="447,-10 447,-30 467,-30 467,-10 447,-10"/>
<text text-anchor="start" x="470.7812" y="-15.4" font-family="sans-serif" font-size="14.00" fill="#000000"> &#160;Bootstrap</text>
<polygon fill="#fdb462" stroke="transparent" points="544,-10 544,-30 564,-30 564,-10 544,-10"/>
<text text-anchor="start" x="567.6732" y="-15.4" font-family="sans-serif" font-size="14.00" fill="#000000"> &#160;Providers</text>
<polygon fill="#fb8072" stroke="transparent" points="640,-10 640,-30 660,-30 660,-10 640,-10"/>
<text text-anchor="start" x="663.7258" y="-15.4" font-family="sans-serif" font-size="14.00" fill="#000000"> &#160;Exports</text>
<g id="clust1" class="cluster">
<title>cluster_AdminModule</title>
<polygon fill="none" stroke="#000000" stroke-dasharray="1,5" points="8,-70 8,-195 956,-195 956,-70 8,-70"/>
</g>
<g id="clust2" class="cluster">
<title>cluster_AdminModule_declarations</title>
<polygon fill="none" stroke="#000000" points="378,-78 378,-130 948,-130 948,-78 378,-78"/>
</g>
<g id="clust7" class="cluster">
<title>cluster_AdminModule_imports</title>
<polygon fill="none" stroke="#000000" points="16,-78 16,-130 370,-130 370,-78 16,-78"/>
</g>
<!-- AdminComponent -->
<g id="node1" class="node">
<title>AdminComponent</title>
<polygon fill="#ffffb3" stroke="#000000" points="940.2204,-122 819.7796,-122 819.7796,-86 940.2204,-86 940.2204,-122"/>
<text text-anchor="middle" x="880" y="-99.8" font-family="Times,serif" font-size="14.00" fill="#000000">AdminComponent</text>
</g>
<!-- AdminModule -->
<g id="node5" class="node">
<title>AdminModule</title>
<polygon fill="#8dd3c7" stroke="#000000" points="494.4386,-187 491.4386,-191 470.4386,-191 467.4386,-187 395.5614,-187 395.5614,-151 494.4386,-151 494.4386,-187"/>
<text text-anchor="middle" x="445" y="-164.8" font-family="Times,serif" font-size="14.00" fill="#000000">AdminModule</text>
</g>
<!-- AdminComponent&#45;&gt;AdminModule -->
<g id="edge1" class="edge">
<title>AdminComponent&#45;&gt;AdminModule</title>
<path fill="none" stroke="#000000" d="M880,-122.2921C880,-144.2057 880,-178 880,-178 880,-178 504.4765,-178 504.4765,-178"/>
<polygon fill="#000000" stroke="#000000" points="504.4766,-174.5001 494.4765,-178 504.4765,-181.5001 504.4766,-174.5001"/>
</g>
<!-- BrandComponent -->
<g id="node2" class="node">
<title>BrandComponent</title>
<polygon fill="#ffffb3" stroke="#000000" points="801.5451,-122 686.4549,-122 686.4549,-86 801.5451,-86 801.5451,-122"/>
<text text-anchor="middle" x="744" y="-99.8" font-family="Times,serif" font-size="14.00" fill="#000000">BrandComponent</text>
</g>
<!-- BrandComponent&#45;&gt;AdminModule -->
<g id="edge2" class="edge">
<title>BrandComponent&#45;&gt;AdminModule</title>
<path fill="none" stroke="#000000" d="M744,-122.1061C744,-141.3391 744,-169 744,-169 744,-169 504.3738,-169 504.3738,-169"/>
<polygon fill="#000000" stroke="#000000" points="504.3738,-165.5001 494.3738,-169 504.3737,-172.5001 504.3738,-165.5001"/>
</g>
<!-- CustomizerComponent -->
<g id="node3" class="node">
<title>CustomizerComponent</title>
<polygon fill="#ffffb3" stroke="#000000" points="667.8753,-122 522.1247,-122 522.1247,-86 667.8753,-86 667.8753,-122"/>
<text text-anchor="middle" x="595" y="-99.8" font-family="Times,serif" font-size="14.00" fill="#000000">CustomizerComponent</text>
</g>
<!-- CustomizerComponent&#45;&gt;AdminModule -->
<g id="edge3" class="edge">
<title>CustomizerComponent&#45;&gt;AdminModule</title>
<path fill="none" stroke="#000000" d="M595,-122.027C595,-138.3976 595,-160 595,-160 595,-160 504.5313,-160 504.5313,-160"/>
<polygon fill="#000000" stroke="#000000" points="504.5314,-156.5001 494.5313,-160 504.5313,-163.5001 504.5314,-156.5001"/>
</g>
<!-- FooterComponent -->
<g id="node4" class="node">
<title>FooterComponent</title>
<polygon fill="#ffffb3" stroke="#000000" points="503.8809,-122 386.1191,-122 386.1191,-86 503.8809,-86 503.8809,-122"/>
<text text-anchor="middle" x="445" y="-99.8" font-family="Times,serif" font-size="14.00" fill="#000000">FooterComponent</text>
</g>
<!-- FooterComponent&#45;&gt;AdminModule -->
<g id="edge4" class="edge">
<title>FooterComponent&#45;&gt;AdminModule</title>
<path fill="none" stroke="#000000" d="M445,-122.1061C445,-122.1061 445,-140.991 445,-140.991"/>
<polygon fill="#000000" stroke="#000000" points="441.5001,-140.9909 445,-150.991 448.5001,-140.991 441.5001,-140.9909"/>
</g>
<!-- SharedModule -->
<g id="node6" class="node">
<title>SharedModule</title>
<polygon fill="#8dd3c7" stroke="#000000" points="362.4231,-122 359.4231,-126 338.4231,-126 335.4231,-122 263.5769,-122 263.5769,-86 362.4231,-86 362.4231,-122"/>
<text text-anchor="middle" x="313" y="-99.8" font-family="Times,serif" font-size="14.00" fill="#000000">SharedModule</text>
</g>
<!-- SharedModule&#45;&gt;AdminModule -->
<g id="edge5" class="edge">
<title>SharedModule&#45;&gt;AdminModule</title>
<path fill="none" stroke="#000000" d="M313,-122.027C313,-138.3976 313,-160 313,-160 313,-160 385.4725,-160 385.4725,-160"/>
<polygon fill="#000000" stroke="#000000" points="385.4726,-163.5001 395.4725,-160 385.4725,-156.5001 385.4726,-163.5001"/>
</g>
<!-- HeaderModule -->
<g id="node7" class="node">
<title>HeaderModule</title>
<polygon fill="#8dd3c7" stroke="#000000" points="245.9608,-122 242.9608,-126 221.9608,-126 218.9608,-122 146.0392,-122 146.0392,-86 245.9608,-86 245.9608,-122"/>
<text text-anchor="middle" x="196" y="-99.8" font-family="Times,serif" font-size="14.00" fill="#000000">HeaderModule</text>
</g>
<!-- HeaderModule&#45;&gt;AdminModule -->
<g id="edge6" class="edge">
<title>HeaderModule&#45;&gt;AdminModule</title>
<path fill="none" stroke="#000000" d="M196,-122.1061C196,-141.3391 196,-169 196,-169 196,-169 385.5079,-169 385.5079,-169"/>
<polygon fill="#000000" stroke="#000000" points="385.5079,-172.5001 395.5079,-169 385.5079,-165.5001 385.5079,-172.5001"/>
</g>
<!-- SidenavModule -->
<g id="node8" class="node">
<title>SidenavModule</title>
<polygon fill="#8dd3c7" stroke="#000000" points="128.1528,-122 125.1528,-126 104.1528,-126 101.1528,-122 23.8472,-122 23.8472,-86 128.1528,-86 128.1528,-122"/>
<text text-anchor="middle" x="76" y="-99.8" font-family="Times,serif" font-size="14.00" fill="#000000">SidenavModule</text>
</g>
<!-- SidenavModule&#45;&gt;AdminModule -->
<g id="edge7" class="edge">
<title>SidenavModule&#45;&gt;AdminModule</title>
<path fill="none" stroke="#000000" d="M76,-122.2921C76,-144.2057 76,-178 76,-178 76,-178 385.6179,-178 385.6179,-178"/>
<polygon fill="#000000" stroke="#000000" points="385.6179,-181.5001 395.6179,-178 385.6179,-174.5001 385.6179,-181.5001"/>
</g>
</g>
</svg>
