<?xml version="1.0" encoding="utf-8"?>
<!-- Generator: Adobe Illustrator 16.0.0, SVG Export Plug-In . SVG Version: 6.00 Build 0)  -->
<!DOCTYPE svg PUBLIC "-//W3C//DTD SVG 1.1//EN" "http://www.w3.org/Graphics/SVG/1.1/DTD/svg11.dtd">
<svg version="1.1" id="Layer_1" xmlns="http://www.w3.org/2000/svg" xmlns:xlink="http://www.w3.org/1999/xlink" x="0px" y="0px"
	 width="473.976px" height="477.333px" viewBox="0 0 473.976 477.333" enable-background="new 0 0 473.976 477.333"
	 xml:space="preserve">
<g>
	<g>
		<g>
			<polygon fill="#B5B1FF" points="362.898,102.497 465.898,150.509 465.898,417.32 362.898,362.449 			"/>
		</g>
		<g>
			<polygon fill="#B5B1FF" points="362.898,102.497 260.898,150.509 260.898,417.32 362.898,362.449 			"/>
		</g>
	</g>
</g>
<g>
	<g>
		<g>
			<polygon fill="#F0F0FF" points="362.898,465.333 465.898,417.32 465.898,150.509 362.898,205.38 			"/>
		</g>
		<g>
			<polygon fill="#D5D3FF" points="362.898,465.333 260.898,417.32 260.898,150.509 362.898,205.38 			"/>
		</g>
	</g>
</g>
<g>
	<g>
		<g>
			<polygon fill="#B5B1FF" points="80.898,76.455 152.898,110.314 152.898,298.473 80.898,259.778 			"/>
		</g>
		<g>
			<polygon fill="#B5B1FF" points="80.898,76.455 8.898,110.314 8.898,298.473 80.898,259.778 			"/>
		</g>
	</g>
</g>
<g>
	<g>
		<g>
			<polygon fill="#D5D3FF" points="80.898,332.333 152.898,298.473 152.898,110.314 80.898,149.01 			"/>
		</g>
		<g>
			<polygon fill="#D5D3FF" points="80.898,332.333 8.898,298.473 8.898,110.314 80.898,149.01 			"/>
		</g>
	</g>
</g>
<g>
	<g>
		<g>
			<polygon fill="#B5B1FF" points="227.898,252.896 290.898,282.594 290.898,447.634 227.898,413.692 			"/>
		</g>
		<g>
			<polygon fill="#B5B1FF" points="227.898,252.896 164.898,282.594 164.898,447.634 227.898,413.692 			"/>
		</g>
	</g>
</g>
<g>
	<g>
		<g>
			<polygon fill="#F0F0FF" points="227.898,477.333 290.898,447.634 290.898,282.594 227.898,316.537 			"/>
		</g>
		<g>
			<polygon fill="#D5D3FF" points="227.898,477.333 164.898,447.634 164.898,282.594 227.898,316.537 			"/>
		</g>
	</g>
</g>
<g>
	<g>
		<g>
			<polygon fill="#B5B1FF" points="78.898,269.637 127.898,292.62 127.898,420.348 78.898,394.08 			"/>
		</g>
		<g>
			<polygon fill="#B5B1FF" points="78.898,269.637 30.898,292.62 30.898,420.348 78.898,394.08 			"/>
		</g>
	</g>
</g>
<g>
	<g>
		<g>
			<polygon fill="#F0F0FF" points="78.898,443.333 127.898,420.348 127.898,292.62 78.898,318.888 			"/>
		</g>
		<g>
			<polygon fill="#D5D3FF" points="78.898,443.333 30.898,420.348 30.898,292.62 78.898,318.888 			"/>
		</g>
	</g>
</g>
<g>
	<g>
		<g>
			<polygon fill="#B5B1FF" points="204.898,112.501 230.898,124.917 230.898,193.917 204.898,179.726 			"/>
		</g>
		<g>
			<polygon fill="#B5B1FF" points="204.898,112.501 178.898,124.917 178.898,193.917 204.898,179.726 			"/>
		</g>
	</g>
</g>
<g>
	<g>
		<g>
			<polygon fill="#F0F0FF" points="204.898,206.333 230.898,193.917 230.898,124.917 204.898,139.107 			"/>
		</g>
		<g>
			<polygon fill="#D5D3FF" points="204.898,206.333 178.898,193.917 178.898,124.917 204.898,139.107 			"/>
		</g>
	</g>
</g>
<g>
	<path fill="#F5D54F" d="M378.783,135.864c0,0,24.92,14.133,38.654,15.526c13.734,1.394,10.893,27.071,11.318,31.65
		c0.425,4.579,3.41,34.038,3.41,34.038s-3.582,2.789-6.965,1.193c0,0-17.828-44.633-20.901-62.302c0,0-27.802-11.113-39.777-22.773
		C364.522,133.196,372.175,136.065,378.783,135.864z"/>
	<path fill="#DBBF49" d="M360.905,131.486c0,0-17.715,20.901,0,36.824c13.293,9.953,45.186,11.148,45.186,11.148
		s-4.179,32.644,1.593,53.146c0,0,3.385,3.186,8.957,0.998c0,0,1.452-14.482,4.707-26.051c0,0-14.461-39.24-17.048-51.581
		c0,0-24.667-10.235-39.777-22.773C364.522,133.196,362.896,132.282,360.905,131.486z"/>
	<path fill="#8C72CC" d="M399.523,31.362c0,0,24.284,7.166,7.762,36.824c-3.186,6.966,1.977,11.347-1.003,20.901
		c-2.978,9.554-14.324,30.653-43.386,18.511c-29.063-12.14-27.47-31.251-22.891-39.412c4.578-8.161,5.176-9.554,4.379-23.886
		c-0.797-14.332,10.984-37.621,34.155-34.437C401.711,13.049,399.523,31.362,399.523,31.362z"/>
	<path fill="#E2995F" d="M401.114,46.091c0,0,1.593,32.646-20.502,31.052c-22.095-1.591-22.493-17.715-21.498-19.108
		c0,0-6.944-5.574-0.288-11.944c3.273-3.384,6.658,3.384,6.658,3.384s17.316,6.569,32.048-8.757
		C397.532,40.718,398.527,44.3,401.114,46.091z"/>
	<path fill="#E2995F" d="M378.54,76.945c0,0-1.274,5.573,0,8.758c1.275,3.186-2.704,7.765-6.886,3.186
		c-4.18-4.579-3.582-7.564-3.582-7.564s1.081-2.569,0.838-7.057C368.91,74.269,373.412,76.058,378.54,76.945z"/>
	<path fill="#1D184C" d="M428.384,139.248c0,0-30.256-0.198-35.033-27.071c-4.777-26.873-14.812-26.474-14.812-26.474
		s0.192,4.494-4.342,4.933c0,0,11.589,41.646,20.147,46.024c8.561,4.38,25.281,8.56,32.447,8.56
		C426.792,145.22,429.778,142.236,428.384,139.248z"/>
	<path fill="#332777" d="M378.783,135.864c0,0-0.009-15.78,2.625-20.402c2.634-4.622,5.973-10.25,2.986-18.213
		s-5.854-11.545-5.854-11.545l-10.468-4.378c0,0-6.569-1.543-11.146,1.219l3.979,48.942
		C360.905,131.486,369.985,136.66,378.783,135.864z"/>
	<path fill="#E2995F" d="M428.384,139.248c0,0,6.669-1.192,8.66-0.994c1.99,0.198,5.572,3.78,8.657,4.876
		c3.086,1.096-1.193,3.384-6.071,2.588c-4.876-0.796-7.861,0.598-12.838-0.499C426.792,145.22,429.38,142.731,428.384,139.248z"/>
	<polygon fill="#1D184C" points="460.28,113.048 446.845,149.922 403.131,149.922 416.687,113.048 	"/>
	<path fill="#464391" d="M432.166,217.079c0,0,6.617,10.051,11.32,13.336c4.705,3.285,3.112,9.555-3.258,5.676
		c-6.369-3.883-9.951-8.229-12.341-8.893c-2.388-0.664-2.687-8.926-2.687-8.926S429.728,218.672,432.166,217.079z"/>
	<path fill="#464391" d="M415.035,234.094c0,0-2.525,2.443,2.85,5.131s14.623,5.039,12.988,7.314s-13.436-0.994-17.019-1.395
		c-3.584-0.398-7.372-2.041-6.97-4.432c0.4-2.387,0.799-8.109,0.799-8.109S409.648,235.086,415.035,234.094z"/>
	<polygon fill="#1D184C" points="403.131,149.922 374.494,149.922 374.494,148.082 403.808,148.082 	"/>
	<path fill="#BC7D51" d="M390.994,57.089c0,0-0.43,4.18,0.615,6.719c1.045,2.538-1.045,4.477-2.537,4.18
		c-1.494-0.3-1.882-1.045-1.882-1.045L390.994,57.089z"/>
	<path fill="#464391" d="M397.929,149.799c0,0-36.758-15.039-37.62-25.654c-0.864-10.618,3.582-31.077,1.193-36.253
		c-2.389-5.173-4.577-5.348-4.577-5.348s-7.764-0.027-8.959,9.729c-1.193,9.752-0.795,38.417,10.75,45.582
		c11.545,7.167,37.422,15.728,37.422,15.728S399.323,152.985,397.929,149.799z"/>
	<path fill="#E2995F" d="M397.929,149.799c0,0,6.071-0.3,8.361,0c2.287,0.297,6.369,3.783,8.758,5.176
		c2.389,1.394,1.791,3.384,0.596,3.384c0,0-3.233,1.291-8.334,0c-5.101-1.294-11.172-4.777-11.172-4.777
		S399.125,152.685,397.929,149.799z"/>
	<g>
		<path fill="#BC7D51" d="M398.282,58.959c0,0-0.03,0.466-0.349,1.062c-0.073,0.152-0.178,0.306-0.291,0.465
			c-0.133,0.148-0.248,0.328-0.433,0.464c-0.166,0.149-0.363,0.297-0.595,0.407c-0.236,0.095-0.492,0.207-0.781,0.217
			c-0.289,0.03-0.568-0.035-0.838-0.118c-0.258-0.087-0.471-0.26-0.661-0.401c-0.165-0.165-0.313-0.338-0.433-0.503
			c-0.102-0.172-0.184-0.344-0.254-0.5c-0.15-0.306-0.172-0.597-0.213-0.786c-0.029-0.194-0.033-0.306-0.033-0.306
			s0.098,0.068,0.246,0.19c0.155,0.115,0.33,0.314,0.566,0.495c0.119,0.091,0.243,0.187,0.358,0.296
			c0.131,0.086,0.272,0.153,0.395,0.25c0.134,0.061,0.271,0.107,0.394,0.15c0.127,0.022,0.251,0.051,0.379,0.021
			c0.127,0.018,0.27-0.042,0.409-0.082c0.139-0.063,0.295-0.105,0.437-0.197c0.293-0.153,0.572-0.346,0.822-0.517
			C397.932,59.203,398.282,58.959,398.282,58.959z"/>
	</g>
	<g>
		<path fill="#BC7D51" d="M385.569,56.492c0,0-0.4,0.489-1.272,0.833c-0.215,0.092-0.459,0.169-0.727,0.219
			c-0.267,0.053-0.561,0.092-0.864,0.081c-0.306-0.016-0.627-0.031-0.939-0.135c-0.324-0.064-0.612-0.239-0.921-0.368
			c-0.266-0.192-0.551-0.373-0.777-0.596c-0.217-0.23-0.445-0.455-0.598-0.707c-0.342-0.488-0.552-0.988-0.684-1.426
			c-0.16-0.426-0.171-0.817-0.215-1.073c-0.027-0.262-0.032-0.411-0.032-0.411s0.103,0.119,0.259,0.326
			c0.168,0.201,0.34,0.519,0.611,0.844c0.133,0.165,0.273,0.34,0.406,0.532c0.149,0.179,0.331,0.342,0.484,0.534
			c0.15,0.2,0.377,0.317,0.545,0.502c0.184,0.167,0.404,0.281,0.605,0.422c0.222,0.096,0.424,0.249,0.66,0.301
			c0.227,0.083,0.457,0.151,0.69,0.192c0.466,0.076,0.931,0.11,1.343,0.085C384.966,56.615,385.569,56.492,385.569,56.492z"/>
	</g>
	<g>
		<path fill="#BC7D51" d="M385.569,70.078c0,0-0.505,0.151-1.271,0.05c-0.378-0.058-0.828-0.156-1.273-0.392
			c-0.227-0.103-0.448-0.257-0.665-0.417c-0.192-0.197-0.419-0.366-0.577-0.61c-0.173-0.23-0.303-0.486-0.399-0.754
			c-0.136-0.253-0.122-0.542-0.175-0.797c-0.037-0.259,0.019-0.509,0.033-0.738c0.014-0.232,0.113-0.43,0.17-0.617
			c0.104-0.377,0.317-0.635,0.434-0.822c0.128-0.182,0.21-0.277,0.21-0.277s0.013,0.133,0.021,0.351
			c0.016,0.218-0.021,0.514,0.025,0.855c0.023,0.169,0.007,0.351,0.048,0.53c0.046,0.178,0.062,0.368,0.115,0.546
			c0.071,0.173,0.105,0.362,0.204,0.523c0.072,0.173,0.168,0.336,0.294,0.483c0.086,0.171,0.251,0.296,0.372,0.447
			c0.162,0.117,0.28,0.283,0.451,0.389c0.308,0.253,0.646,0.45,0.938,0.643C385.15,69.835,385.569,70.078,385.569,70.078z"/>
	</g>
</g>
<g>
	<path fill="#2D0A7E" d="M160.916,155.587c0,0,10.771,4.188,16.555,4.387c0,0,6.782-0.598-10.77-8.576c0,0-1.871,1.775-5.985,1.396
		L160.916,155.587z"/>
	<path fill="#2D0A7E" d="M130.213,164.405c0,0,11.417,1.792,17.11,0.751c0,0,7.404-1.436-11.448-5.481c0,0-2.809,0.301-7.234-0.897
		L130.213,164.405z"/>
	<path fill="#C98455" d="M128.641,122.488c0,0,10.932,12.354,8.338,21.331c-2.592,8.975-8.338,14.959-8.338,14.959
		s4.15,1.995,7.94,1.196c0,0,12.004-9.856,10.689-32.853c0,0-6.229-6.005-13.845-7.021l-1.632,2.575L128.641,122.488z"/>
	<path fill="#464391" d="M131.794,122.676c0,0-5.585-1.397-17.752,3.191c-12.167,4.587-41.076,12.565-44.174-11.569
		c0,0,0.892-10.97-1.104-17.553l15.358,10.572c0,0,16.156,3.989,29.121,0c12.965-3.989,17.553-3.79,20.944-2.594
		C134.188,104.724,138.376,113.9,131.794,122.676z"/>
	<path fill="#8C72CC" d="M94.69,28.331c0,0,3.387,11.769,0,18.749c0,0,1.001,15.957-15.354,13.364c0,0,1.795,7.58,4.586,7.979
		c0,0-22.339,6.782-31.913-10.372c0,0-2.792-5.984,0-10.172c2.793-4.188,6.382-3.59,6.382-3.59s-1.794-8.776,2.992-14.561
		C66.171,23.943,89.3,15.167,94.69,28.331z"/>
	<path fill="#E2995F" d="M91.702,32.52c0,0,8.11,21.236-2.393,26.329c-6.583,3.191-9.973,1.596-9.973,1.596
		s-1.397,6.583,1.396,11.968c0,0-4.388,4.786-9.174-2.992c0,0,2.592-7.38,1.794-12.766c0,0-1.396-1.995-1.794-4.787
		c0,0-2.793-4.588-1.197-7.181c1.595-2.593,4.587-1.396,4.986,0.598C75.347,45.285,86.317,46.881,91.702,32.52z"/>
	<polygon fill="#1D184C" points="90.292,108.419 121.457,105.073 131.595,73.869 128.641,73.869 119.627,101.938 90.292,105.323 	
		"/>
	<path fill="#464391" d="M71.558,69.42c0,0-7.779,0.798-7.381,8.577c0.399,7.779,2.593,12.167,2.593,12.167
		s4.788-3.789,11.369-3.789c0,0,2.394,15.557,5.984,20.942c0,0-0.797-10.372,0-15.757c0,0,6.184-2.992,4.388-8.577
		c-1.795-5.584-7.779-10.571-7.779-10.571S76.293,76.806,71.558,69.42z"/>
	<path fill="#E2995F" d="M88.838,116.892c0,0-12.893,7.18-22.068-26.728c0,0,4.188-4.189,11.369-3.789
		c0,0,3.192,16.754,5.984,20.942c2.792,4.188,12.366,2.194,13.563-0.997c1.197-3.191-0.997-8.177,2.594-9.973
		c3.59-1.795,7.18-2.195,7.978-0.199c0.798,1.995-1.795,4.796-3.79,5.789c-1.995,0.992-1.196,5.779-2.792,7.375
		C100.08,110.908,92.918,116.335,88.838,116.892z"/>
	<path fill="#E2995F" d="M133.426,120.101c0,0,9.738,1.065,17.317,10.796c7.579,9.73,9.973,21.897,9.973,21.897
		s4.189,0.599,5.985-1.396c0,0,0.199-35.217-31.915-44.934C134.786,106.464,136.853,112.54,133.426,120.101z"/>
	<path fill="#BC7D51" d="M92.946,44.687c0,0,1.196,2.493,2.793,3.491c1.594,0.997,0.099,3.191-0.998,2.992
		c-1.098-0.2-1.098-0.2-1.098-0.2L92.946,44.687z"/>
	<g>
		<path fill="#BC7D51" d="M87.139,42.692c0,0,0.25,0.224,0.58,0.482c0.164,0.132,0.358,0.261,0.553,0.389
			c0.205,0.115,0.41,0.235,0.635,0.309c0.216,0.098,0.452,0.141,0.683,0.201c0.235,0.034,0.466,0.076,0.68,0.094
			c0.213,0.037,0.399,0.034,0.537,0.058c0.138,0.02,0.223,0.038,0.223,0.038s-0.056,0.06-0.166,0.15
			c-0.112,0.083-0.269,0.228-0.496,0.312c-0.219,0.112-0.5,0.184-0.817,0.216c-0.319,0.021-0.668-0.028-1-0.149
			c-0.326-0.134-0.623-0.332-0.841-0.569c-0.216-0.237-0.373-0.489-0.454-0.725C87.074,43.036,87.139,42.692,87.139,42.692z"/>
	</g>
	<g>
		<path fill="#BC7D51" d="M88.187,51.182c0,0,0.086,0.226,0.215,0.565c0.122,0.313,0.288,0.611,0.48,0.763
			c0.048,0.045,0.101,0.088,0.163,0.126c0.075,0.021,0.121,0.094,0.207,0.115c0.15,0.074,0.317,0.136,0.473,0.201
			c0.311,0.109,0.567,0.243,0.567,0.242c0,0-0.05,0.046-0.145,0.112c-0.097,0.059-0.234,0.161-0.422,0.212
			c-0.187,0.062-0.417,0.107-0.684,0.076c-0.266-0.019-0.562-0.142-0.814-0.347c-0.114-0.117-0.221-0.239-0.293-0.379
			c-0.091-0.131-0.108-0.285-0.146-0.417c-0.046-0.273-0.011-0.516,0.051-0.707C87.961,51.362,88.187,51.182,88.187,51.182z"/>
	</g>
</g>
<g>
	<ellipse fill="#E8AEA6" cx="235.763" cy="287.044" rx="40.463" ry="4.969"/>
	<path fill="#332777" d="M198.98,202.625l-6.658,5.282c-0.355,0.282-0.875,0.208-1.137-0.163l-11.9-16.822
		c-0.241-0.34-0.176-0.81,0.149-1.072l8.825-7.119c0.357-0.287,0.882-0.213,1.145,0.163l11.837,16.917
		c0.236,0.338,0.174,0.801-0.144,1.064L198.98,202.625z"/>
	<path fill="#1D184C" d="M198.279,202.038l-6.122,4.857c-0.326,0.259-0.804,0.19-1.045-0.15l-10.942-15.469
		c-0.222-0.313-0.162-0.744,0.137-0.986l8.114-6.545c0.328-0.265,0.811-0.195,1.053,0.148l10.885,15.557
		c0.217,0.311,0.159,0.736-0.132,0.979L198.279,202.038z"/>
	<path fill="#2D0A7E" d="M228.854,162.459c0,0-13.214,3.545-13.053,12.086c0.161,8.541,3.787,8.057,3.787,8.057
		s3.787,16.6,1.047,27.234c-2.739,10.637,27.556,11.926,29.33,0c1.771-11.924-4.996-18.531-4.352-23.85s2.297-17.082-2.88-21.756
		C237.556,159.558,228.854,162.459,228.854,162.459z"/>
	<path fill="#F5D54F" d="M228.168,197.066c0,0-4.875-0.442-7.937,4.956c-3.062,5.397-3.707,5.801-3.707,5.801
		s3.465,3.545,6.285,3.223c0,0-0.242,2.995,1.208,7.259s1.772,3.136,1.772,3.136s6.165,2.256,10.636-0.162
		c0,0,0.645-4.994,4.271-11.119c0,0,1.048,3.224,0.726,4.836c0,0,3.951,0.521,5.963-1.371c0,0-0.968-17.403-13.658-17.283
		L228.168,197.066z"/>
	<path fill="#1D184C" d="M247.789,285.658c0,0,6.709,2.609,10.311,2.733c0,0,4.225-0.373-6.707-5.342c0,0-1.74,1.614-3.728,0.869
		L247.789,285.658z"/>
	<path fill="#1D184C" d="M233.604,285.658c0,0-6.708,2.609-10.311,2.733c0,0-4.224-0.373,6.708-5.342c0,0,1.739,1.614,3.727,0.869
		L233.604,285.658z"/>
	<path fill="#E2995F" d="M219.829,176.881c0,0-2.175,9.186,6.526,13.054c3.143,1.692,8.944,0.726,12.57-3.626
		c0,0,5.318-1.57,3.385-5.56c-1.33-2.296-4.473,0.121-4.473,0.121s-6.526-0.362-9.064-9.186
		C228.773,171.685,222.851,176.278,219.829,176.881z"/>
	<path fill="#E2995F" d="M228.168,197.066c0,0,0.967-1.89,0-6.505c0,0,2.019,0.229,4.545-0.244c0,0-0.194,4.814,1.014,6.023
		c0,0-1.692,7.373-5.56,6.769C226.355,202.262,228.168,197.066,228.168,197.066z"/>
	<path fill="#332777" d="M225.792,221.44c0,0-8.057,11.441-4.512,29.168s8.058,33.52,8.058,33.52s2.175,0.805,4.391,0
		c0,0-1.571-17.727,0-33.52c0,0-5.623-15.051-3.747-28.211C229.981,222.397,228.047,222.246,225.792,221.44z"/>
	<path fill="#464391" d="M236.427,221.278c0,0,8.38,8.016,8.863,24.475s7.09,37.569,7.09,37.569s-2.416,1.521-4.994,1.163
		c0,0-8.944-23.08-13.658-33.877c0,0-6.325-16.619-3.747-28.211C229.981,222.397,233.849,222.89,236.427,221.278z"/>
	<path fill="#E2995F" d="M218.351,209.368c0,0-5.128,7.237-9.319,1.114c-4.189-6.124-7.091-10.636-7.091-10.636
		s0.121-4.774-3.565-4.17s-3.445,3.021-2.417,3.082c1.027,0.061,2.357-0.604,2.961-0.363c0.604,0.242-0.785,1.754,0.061,4.23
		l-1.813,1.329c0,0,0.967,1.27,3.807,1.753c0,0,5.318,10.697,8.521,12.207c3.203,1.511,7.958,1.068,13.315-6.869
		C222.811,211.045,220.176,210.914,218.351,209.368z"/>
	<path fill="#E2995F" d="M242.313,215.053c0,0,0.882,18.554,0.964,22.502c0.08,3.947,4.189,4.834,5.559,3.625
		c1.371-1.208-1.047-2.256-1.772-2.336c-0.725-0.08,1.531-0.242,0.968-2.578c-0.564-2.338-1.934-2.579-1.612-4.754
		c0.323-2.176,1.37-9.67,0.968-17.889C247.386,213.624,245.679,215.02,242.313,215.053z"/>
	<path fill="#BC7D51" d="M225.191,180.241c0,0-0.803,1.674-1.874,2.344c-1.071,0.669-0.067,2.143,0.669,2.008
		c0.736-0.134,0.736-0.134,0.736-0.134L225.191,180.241z"/>
	<g>
		<path fill="#BC7D51" d="M227.053,179.504c0,0,0.307,0.116,0.7,0.235c0.197,0.063,0.421,0.11,0.645,0.157
			c0.229,0.031,0.459,0.066,0.691,0.051c0.233,0.01,0.463-0.039,0.695-0.071c0.227-0.058,0.452-0.106,0.652-0.171
			c0.207-0.047,0.374-0.121,0.508-0.15c0.131-0.035,0.215-0.051,0.215-0.051s-0.029,0.074-0.095,0.197
			c-0.072,0.115-0.16,0.305-0.335,0.465c-0.158,0.183-0.386,0.352-0.662,0.498c-0.282,0.137-0.617,0.222-0.963,0.232
			c-0.346-0.001-0.688-0.074-0.974-0.209c-0.283-0.138-0.517-0.311-0.676-0.494C227.12,179.84,227.053,179.504,227.053,179.504z"/>
	</g>
	<g>
		<path fill="#BC7D51" d="M221.844,178.166c0,0,0.178,0.171,0.365,0.364c0.198,0.197,0.413,0.381,0.583,0.446
			c0.082,0.056,0.185,0.075,0.308,0.113c0.126,0.024,0.266,0.048,0.405,0.065c0.27,0.027,0.516,0.082,0.516,0.082
			s-0.024,0.055-0.079,0.138c-0.058,0.077-0.134,0.206-0.272,0.3c-0.129,0.108-0.308,0.204-0.535,0.251
			c-0.227,0.05-0.506,0.023-0.76-0.096c-0.254-0.124-0.438-0.335-0.542-0.54c-0.108-0.205-0.136-0.41-0.135-0.578
			C221.7,178.372,221.844,178.166,221.844,178.166z"/>
	</g>
	<g>
		<path fill="#BC7D51" d="M224.321,185.628c0,0,0.348,0.056,0.869,0.139c0.501,0.071,1.131,0.177,1.729,0.153
			c0.149-0.004,0.3,0.004,0.443-0.025c0.146-0.017,0.291-0.024,0.426-0.063c0.275-0.053,0.542-0.123,0.766-0.215
			c0.46-0.161,0.798-0.339,0.808-0.324c-0.015-0.016-0.099,0.376-0.505,0.779c-0.095,0.109-0.21,0.215-0.353,0.299
			c-0.136,0.096-0.283,0.199-0.457,0.257c-0.332,0.165-0.729,0.22-1.114,0.241c-0.388-0.004-0.77-0.057-1.102-0.178
			c-0.336-0.105-0.622-0.268-0.85-0.423C224.525,185.956,224.321,185.628,224.321,185.628z"/>
	</g>
	<ellipse fill="#E8AEA6" cx="253.283" cy="297.333" rx="9.62" ry="1.015"/>
	<ellipse fill="#E8AEA6" cx="204.542" cy="280.051" rx="9.62" ry="1.015"/>
	<g>
		<path fill="#8C72CC" d="M208.857,280.311c0,0,3.932-6.348,0.328-9.768c-2.65-1.908-5.672,1.432-7.343-0.477
			c-1.67-1.91,5.965-8.191,3.5-11.373c-2.465-3.182-7.396-3.42-10.259-0.716s1.75,17.866,5.328,22.333
			C200.411,280.311,205.136,280.854,208.857,280.311z"/>
		<g>
			<g>
				<path fill="#2D0A7E" d="M204.857,280.552c0,0-0.296-0.289-0.774-0.835c-0.473-0.549-1.143-1.343-1.848-2.371
					c-0.359-0.509-0.72-1.081-1.091-1.693c-0.37-0.613-0.731-1.277-1.065-1.986c-0.318-0.717-0.637-1.463-0.891-2.25
					c-0.252-0.786-0.485-1.6-0.602-2.438l-0.094-0.627l-0.026-0.635c-0.022-0.422-0.042-0.843,0.014-1.261
					c0.034-0.847,0.232-1.64,0.371-2.393c0.115-0.762,0.352-1.492,0.565-2.181c0.185-0.698,0.469-1.317,0.701-1.898
					c0.214-0.589,0.545-1.071,0.773-1.522c0.283-0.424,0.52-0.799,0.755-1.077c0.456-0.571,0.801-0.811,0.802-0.811
					c0,0-0.08,0.066-0.201,0.218c-0.133,0.141-0.293,0.375-0.498,0.67c-0.206,0.292-0.406,0.684-0.644,1.119
					c-0.183,0.467-0.46,0.955-0.645,1.543c-0.196,0.581-0.44,1.199-0.581,1.887c-0.17,0.678-0.352,1.385-0.467,2.158
					c-0.128,0.771-0.305,1.541-0.319,2.324c-0.046,0.393-0.02,0.791,0.009,1.19l0.035,0.6l0.1,0.597
					c0.096,0.799,0.306,1.586,0.536,2.35c0.231,0.766,0.528,1.498,0.826,2.201c0.324,0.693,0.631,1.367,0.963,1.989
					c0.332,0.62,0.656,1.204,0.984,1.726c0.646,1.048,1.209,1.913,1.638,2.493C204.604,280.224,204.857,280.552,204.857,280.552z"/>
			</g>
		</g>
	</g>
</g>
<g>
	<ellipse fill="#E8AEA6" cx="86.568" cy="295.174" rx="29.726" ry="3.137"/>
	<ellipse fill="#E8AEA6" cx="48.519" cy="293.037" rx="6.072" ry="0.641"/>
	<ellipse fill="#E8AEA6" cx="56.841" cy="299.37" rx="6.072" ry="0.641"/>
	<path fill="#C0461D" d="M68.712,288.142c0,0,8.02-4.944,8.962-9.11c0.687-3.036,0.687-8.293,0.687-8.293l-0.78-12.78
		c0,0,6.462,2.134,7.949,0c0,0,0.313,16.858-4.038,23.929c-4.351,7.07-12.188,8.565-12.188,8.565S68.168,289.909,68.712,288.142z"/>
	<path fill="#1D184C" d="M68.712,288.142c0,0-2.447,0.137-2.81,0.929c-0.362,0.793,0.634,2.787,0.453,3.966
		c-0.181,1.178,0.181,2.718,2.357,2.718c2.175,0,1.729-1.631,0.592-1.812c-1.136-0.183,0-3.49,0-3.49S68.258,289.501,68.712,288.142
		z"/>
	<path fill="#2D0A7E" d="M81.427,219.799c0,0-6.346-0.271-7.637,5.257c-1.291,5.529,2.151,8.974,6.131,9.971l7.852-10.786
		c0,0,6.293-3.445,1.695-7.886C85.729,213.909,81.427,219.799,81.427,219.799z"/>
	<path fill="#E2995F" d="M87.773,224.241c0,0,2.367,5.166,1.507,8.974c-0.86,3.807-6.669,4.441-6.669,4.441s-0.539,1.087,0,2.72
		c0,0-2.582,0.361-2.689-1.724c0,0,0.431-1.722,0-3.625c0,0-3.657-2.085-1.828-4.713c1.398-1.723,2.259,0,2.259,0
		s3.979-1.632,3.657-7.251C84.009,223.063,86.483,224.422,87.773,224.241z"/>
	<polygon fill="#1D184C" points="91.499,250.894 94.752,244.295 95.363,244.635 92.135,251.501 	"/>
	<path fill="#F5D54F" d="M78.238,254.88c0,0-1.146,3.678-2.914,4.995c0,0,0.069,0.663,1.829,2.093c0,0,3.396-4.037,4.244-5.928
		L78.238,254.88z"/>
	<path fill="#FFFFFF" d="M82.61,240.375c0,0,5.095,5.801,2.919,17.583c0,0-0.58,2.085-7.949,0c0,0,0.994-1.66,0.574-3.686
		c-0.421-2.024,2.487-14.36,2.487-14.36S81.375,240.567,82.61,240.375z"/>
	<g>
		<path fill="#BC7D51" d="M86.345,227.657c0,0,0.204,0.07,0.399,0.124c0.094,0.033,0.202,0.046,0.278,0.079
			c0.097,0,0.15,0.061,0.232,0.059c0.063,0.042,0.135,0.067,0.22,0.102c0.079,0.045,0.169,0.102,0.266,0.136
			c0.183,0.082,0.373,0.215,0.373,0.215s-0.069,0.192-0.276,0.362c-0.097,0.1-0.238,0.162-0.41,0.184
			c-0.083,0.008-0.175,0.035-0.264,0.024l-0.276-0.073c-0.372-0.132-0.596-0.488-0.619-0.752
			C86.222,227.846,86.345,227.658,86.345,227.657z"/>
	</g>
	<path fill="#F5D54F" d="M79.921,238.652c0,0-3.999-0.634-4.634,4.441c-0.634,5.076,0.535,17.041,14.181,11.965
		c0,0-1.128-1.359-1.039-2.538c0,0-8.882,2.266-8.61-4.261c0.181-4.622,0.293-6.261,1.743-7.917
		C81.563,240.342,79.877,239.838,79.921,238.652z"/>
	<path fill="#BC7D51" d="M88.909,228.483c0,0,0.544,1.133,1.269,1.586c0.725,0.454,0.045,1.451-0.453,1.36
		c-0.499-0.091-0.499-0.091-0.499-0.091L88.909,228.483z"/>
	<path fill="#DB5C23" d="M77.581,257.958c0,0-1.659,3.671,0.924,7.206c2.584,3.535,20.812,22.978,23.39,27.872
		c0,0,1.899-0.682,2.171-2.448c0,0-19.07-27.542-18.536-32.63C85.513,257.816,84.915,260.112,77.581,257.958z"/>
	<path fill="#1D184C" d="M101.895,293.037c0,0,0.947,1.541,1.672,2.084c0.725,0.544,5.348-3.172,6.164-4.668
		c0.815-1.495-0.725-1.768-2.266-0.86c-1.541,0.905-2.628,2.119-3.398,0.996C104.065,290.588,103.667,292.402,101.895,293.037z"/>
	<path fill="#E2995F" d="M88.549,252.735c0,0,0.919-0.844,1.532-1.342c0.613-0.499,1.227-0.767,1.418-0.499
		c0.192,0.27-0.537,1.111-0.537,1.111s1.878-2.26,2.185-2.223c0.306,0.038,1.111,0.844,0,2.684
		c-1.111,1.839-3.721,2.414-3.721,2.414S88.434,253.578,88.549,252.735z"/>
	<path fill="#E2995F" d="M75.541,260.328c0,0-0.73,0.438-1.126,1.641c-0.396,1.202-1.983-0.296-2.481,0s-0.136,1.701,0.997,2.108
		c1.133,0.408,2.538,0.498,2.855,0s1.368-2.108,1.368-2.108S75.757,260.779,75.541,260.328z"/>
	<path fill="#2D0A7E" d="M81.397,229.339c0,0-0.535,3.535,0.428,4.895c0.963,1.359,5.382-0.272,5.721-1.359
		c0.34-1.089,1.916-1.144,1.916-1.144s0.667,0.124,0.532,1.075c-0.136,0.951,0.068,6.73-5.778,6.662
		c-3.263-0.407-4.125-5.053-3.864-9.154C80.352,230.314,81.033,229.913,81.397,229.339z"/>
	<g>
		<path fill="#8C72CC" d="M57.518,299.531c0,0,4.522-4.928,5.798-7.884c1.276-2.958-0.812-3.479-1.855-1.913
			c-1.043,1.564-2.957,5.102-3.479,0.868c-0.522-4.231,0.174-5.159-0.464-5.681c-0.638-0.522-1.449-0.175-2.029,1.854
			c-0.579,2.029-2.608,2.436-3.13,0.522c-0.521-1.913-1.855-6.146-3.769-5.913c-1.913,0.231,0.058,3.304,0,5.044
			c-0.058,1.739-1.624,1.449-2.841-0.116c-1.217-1.566-5.391-6.396-7.247-4.938s0.754,3.371,0,5.227
			c-0.754,1.856-0.638,4.88,2.899,3.716c3.536-1.164,3.305,2.14,3.479,2.72s1.043,2.552,3.247,1.565
			c2.203-0.985,3.421-0.521,2.609,0.29s-2.261,1.682-1.508,2.145c0.754,0.465,3.653-1.043,4.871-0.231
			c1.217,0.812,1.681,2.725,1.681,2.725H57.518z"/>
		<g>
			<path fill="#2D0A7E" d="M40.125,285.617c0,0,0.309,0.202,0.849,0.557c0.269,0.175,0.596,0.389,0.971,0.633
				c0.382,0.23,0.813,0.491,1.284,0.776c0.458,0.303,0.977,0.588,1.538,0.862c0.573,0.279,1.104,0.604,1.758,0.852
				c1.241,0.448,2.677,0.853,4.078,1.322c1.396,0.491,2.813,1.014,4.005,1.845c0.599,0.396,1.137,0.908,1.463,1.535
				c0.193,0.296,0.246,0.65,0.326,0.97c0.016,0.303,0.032,0.596,0.047,0.877c0.061,1.103,0.071,2.022,0.083,2.669
				c-0.069,0.646-0.109,1.017-0.109,1.017s-0.02-0.365-0.055-1.005c-0.08-0.637-0.257-1.547-0.393-2.642
				c-0.036-0.269-0.073-0.548-0.111-0.837c-0.093-0.248-0.141-0.514-0.322-0.741c-0.295-0.476-0.786-0.877-1.342-1.223
				c-0.545-0.362-1.189-0.634-1.834-0.919c-0.657-0.269-1.336-0.521-2.03-0.746c-1.383-0.484-2.781-0.884-4.108-1.444
				c-0.635-0.256-1.219-0.678-1.759-0.996c-0.553-0.326-1.057-0.658-1.496-1c-0.909-0.641-1.604-1.256-2.094-1.676
				S40.125,285.617,40.125,285.617z"/>
		</g>
	</g>
</g>
</svg>
