<?xml version="1.0" encoding="utf-8"?>
<!-- Generator: Adobe Illustrator 16.0.0, SVG Export Plug-In . SVG Version: 6.00 Build 0)  -->
<!DOCTYPE svg PUBLIC "-//W3C//DTD SVG 1.1//EN" "http://www.w3.org/Graphics/SVG/1.1/DTD/svg11.dtd">
<svg version="1.1" id="Layer_1" xmlns="http://www.w3.org/2000/svg" xmlns:xlink="http://www.w3.org/1999/xlink" x="0px" y="0px"
	 width="1100px" height="1190.667px" viewBox="0 0 1100 1190.667" enable-background="new 0 0 1100 1190.667" xml:space="preserve">
<g>
	<path fill="#4951DB" d="M106.134,582.904c0,0,3.845,56.162,155.998,51.065c105.031-3.517-5.762-50.055-5.762-50.055
		L106.134,582.904z"/>
	<path fill="#4951DB" d="M11.69,905.747c0,0,3.876,56.156,151.273,51.469c101.75-3.237-9.228-50.094-9.228-50.094L11.69,905.747z"/>
	<path fill="#4951DB" d="M959.132,1152.833c0,0,12.137,2.343,50.032,0c98.111-6.058,43.41-54.506,43.41-54.506L959.132,1152.833z"/>
	<path fill="#4951DB" d="M439.404,1081.368c0,0,40.573,36.024,150.682,29.416c243.203-14.6,64.747-138.114,64.747-138.114
		L439.404,1081.368z"/>
	<path fill="#4951DB" d="M646.191,839.606c0,0,268.25,138.575,375.301,165.175c233.698,58.063-253.996-243.255-253.996-243.255
		L646.191,839.606z"/>
	<path fill="#4951DB" d="M593.208,1160.088c0,0,16.911,37.053,157.601,9.857c88.555-17.113,20.499-98.85,20.499-98.85
		L593.208,1160.088z"/>
	<g>
		<path fill="#170659" d="M369.576,37.297v427.319l623.136,358.243l20.407-12.059V384.855c0-18.526-9.869-35.649-25.899-44.937
			L423.15,13.166C408.423,4.636,369.576,2.128,369.576,37.297z"/>
		<path fill="#170659" d="M631.993,698.676v15.004c0,5.815-3.118,11.184-8.17,14.061l-72.144,41.096l-0.61-0.347
			c0,0-3.139-0.723-4.066-7.746v14.631c0,0-0.275,2.313,0.993,4.643c0.022,0.047,0.05,0.089,0.076,0.134
			c0.288,0.509,0.659,1.006,1.122,1.488c0.052,0.057,0.098,0.117,0.153,0.172c0.484,0.471,1.031,0.918,1.722,1.309
			c0.44,0.25,1.815,1.024,3.927,2.218l4.555,2.571c2.633,1.485,5.776,3.261,9.317,5.26l4.939,2.79
			c2.497,1.41,5.12,2.889,7.861,4.438l21.19,11.965c3.89,2.197,7.809,4.41,11.708,6.611l2.963,1.672
			c6.061,3.421,11.987,6.769,17.563,9.914l6.003,3.39c11.462,6.475,20.675,11.674,24.931,14.077l2.592,1.465
			c6.293,3.55,14.018,3.425,20.19-0.332l71.267-43.37c4.605-2.807,7.421-7.81,7.421-13.205v-16.425L631.993,698.676z"/>
		<path fill="#E2F6FF" d="M551.069,768.49l117.549,66.37c6.293,3.55,14.018,3.425,20.19-0.335l71.267-43.369
			c4.605-2.805,7.421-7.81,7.421-13.204v-16.426l-135.503-77.475v15.004c0,5.813-3.118,11.179-8.17,14.058l-72.78,41.453
			C545.643,757.643,545.659,765.431,551.069,768.49z"/>
		<path fill="#2A1D8A" d="M369.576,464.616v62.804c0,13.119,7.029,25.233,18.418,31.744L972.844,893.57
			c8.854,5.063,19.868-1.325,19.868-11.52v-59.191L369.576,464.616z"/>
		<path fill="#170659" d="M972.844,893.57c0,0,11.938,6.107,26.71,1.773c8.881-2.604,13.565-15.407,13.565-24.669V810.8
			l-20.407,12.059v59.191C992.712,882.05,990.322,899.332,972.844,893.57z"/>
		<path fill="#2A1D8A" d="M966.209,359.442L399.812,26.839c0,0-26.887-7.648-26.887,15.709v12.254v418.066l619.014,360.759V423.223
			v-18.529C991.939,404.694,992.712,375.007,966.209,359.442z"/>
		<g>
			<path fill="#3932C0" d="M378.251,75.063l592.045,347.6v-17.481c0,0,0.744-28.009-24.605-42.693L403.964,48.683
				c0,0-25.713-7.217-25.713,14.82V75.063z"/>
			<ellipse fill="#575AFD" cx="396.331" cy="69.249" rx="2.987" ry="4.558"/>
			<ellipse fill="#575AFD" cx="414.145" cy="81.562" rx="2.987" ry="4.558"/>
			<ellipse fill="#575AFD" cx="404.924" cy="75.327" rx="2.986" ry="4.557"/>
			<polygon fill="#C5F0FF" points="378.251,75.063 378.251,469.506 970.296,809.877 970.296,422.664 			"/>
			<polygon fill="#FFFFFF" points="396.212,123.162 396.212,448.945 504.509,510.594 504.509,187.814 			"/>
			<polygon fill="#FFFFFF" points="514.719,333.436 514.719,456.73 623.018,522.153 623.018,398.076 			"/>
			<polygon fill="#FFFFFF" points="638.438,408.271 638.438,531.563 746.738,596.988 746.738,472.911 			"/>
			<polygon fill="#FFFFFF" points="839.363,380.711 839.363,702.723 947.664,768.146 947.664,445.363 			"/>
			<path fill="#FFFFFF" d="M513.17,202.519v8.686c0,5.637,2.951,10.865,7.778,13.78l226.974,137.091
				c3.689,2.228,8.398-0.428,8.398-4.737v-7.402c0-5.376-2.797-10.364-7.377-13.175L521.969,197.527
				C518.093,195.212,513.17,198.005,513.17,202.519z"/>
			<path fill="#FFFFFF" d="M513.17,497.389V507.7c0,6.693,3.672,12.898,9.674,16.359l282.374,162.758
				c4.589,2.642,10.444-0.508,10.444-5.627v-8.788c0-6.381-3.476-12.305-9.176-15.638l-282.371-165.3
				C519.293,488.714,513.17,492.029,513.17,497.389z"/>
			<path fill="#FFFFFF" d="M513.17,238.03v6.332c0,4.109,2.153,7.92,5.67,10.043l165.456,99.936
				c2.688,1.625,6.118-0.311,6.118-3.453v-5.397c0-3.917-2.031-7.554-5.372-9.604L519.585,234.392
				C516.759,232.705,513.17,234.739,513.17,238.03z"/>
			<path fill="#FFFFFF" d="M513.17,270.517v6.332c0,4.11,2.153,7.92,5.67,10.046l165.456,99.936
				c2.688,1.623,6.118-0.313,6.118-3.454v-5.397c0-3.917-2.031-7.553-5.372-9.602L519.585,266.88
				C516.759,265.191,513.17,267.225,513.17,270.517z"/>
		</g>
	</g>
	<g>
		<path fill="#FFFFFF" d="M654.814,809.552c0.125-7.513-3.504-15.079-10.93-19.396L489.49,700.492
			c-14.928-8.672-33.341-8.74-48.336-0.184l-157.621,89.943c-7.457,4.257-11.139,11.79-11.071,19.301h-0.008v162.001
			c0,7.833,4.164,15.07,10.931,19.01l156.02,90.805c14.993,8.728,33.505,8.771,48.538,0.115l155.875-89.753
			c6.814-3.927,11.02-11.192,11.016-19.061l-0.01-163.117H654.814z"/>
		<path fill="#E2F6FF" d="M654.823,809.552h-0.009c0.125-7.513-3.504-15.079-10.93-19.396L489.49,700.492
			c-7.973-4.632-16.939-6.783-25.849-6.503v393.953c8.386,0.021,16.778-2.129,24.301-6.459l155.875-89.753
			c6.814-3.927,11.02-11.192,11.016-19.061L654.823,809.552z"/>
		<path fill="#0072EC" d="M283.533,790.251l157.621-89.943c14.995-8.557,33.409-8.488,48.336,0.184l154.395,89.665
			c14.609,8.488,14.599,29.585-0.02,38.054l-156.078,90.427c-15.023,8.701-33.552,8.701-48.575,0l-155.803-90.267
			C268.735,819.87,268.805,798.657,283.533,790.251z"/>
		<path fill="#66D3FD" d="M283.533,781.069l157.621-89.945c14.995-8.556,33.409-8.483,48.336,0.186l154.395,89.666
			c14.609,8.487,14.599,29.583-0.02,38.054l-156.078,90.426c-15.023,8.702-33.552,8.702-48.575,0l-155.803-90.266
			C268.735,810.687,268.805,789.474,283.533,781.069z"/>
	</g>
	<g>
		<g>
			<path fill="#69B2FF" d="M82.897,772.111c-39.246,0-71.061-13.801-71.061-30.818v162.423h0.042
				c-0.014,0.237-0.042,0.473-0.042,0.713c0,17.022,31.814,30.818,71.061,30.818c39.244,0,71.058-13.796,71.058-30.818
				c0-0.24-0.028-0.476-0.041-0.713h0.041V741.292C153.956,758.31,122.141,772.111,82.897,772.111z"/>
			<path fill="#69B2FF" d="M11.837,740.303v0.989C11.837,739.136,11.837,740.303,11.837,740.303L11.837,740.303z"/>
			<path fill="#69B2FF" d="M153.956,739.136c0,0,0,0,0,2.156V739.136L153.956,739.136z"/>
		</g>
		<path fill="#69B2FF" d="M153.956,741.292c0,17.018-31.814,30.818-71.058,30.818c-39.246,0-71.061-13.801-71.061-30.818
			c0-17.024,31.814-30.821,71.061-30.821C122.141,710.471,153.956,724.268,153.956,741.292z"/>
		<path fill="#170659" d="M82.897,772.111c32.741,0,60.294-9.608,68.531-22.677c-8.237-13.145-35.79-22.81-68.531-22.81
			c-32.743,0-60.295,9.665-68.533,22.81C22.603,762.502,50.154,772.111,82.897,772.111z"/>
		<path fill="#FFFFFF" d="M82.897,710.471c-39.246,0-71.061,13.797-71.061,30.821c0,17.018,31.814,30.818,71.061,30.818
			c39.244,0,71.058-13.801,71.058-30.818C153.956,724.268,122.141,710.471,82.897,710.471z M82.897,767.826
			c-37.034,0-67.055-12.452-67.055-27.81c0-15.354,30.021-27.81,67.055-27.81c37.032,0,67.053,12.455,67.053,27.81
			C149.951,755.374,119.929,767.826,82.897,767.826z"/>
		<path fill="#231289" d="M82.897,726.625c0,0,27.486,13.587,27.312,29.119c-0.345,8.524-4.47,10.423-4.47,10.423
			s32.732-3.476,42.784-20.425C148.524,745.742,131.685,726.434,82.897,726.625z"/>
		<ellipse fill="#231289" cx="89.581" cy="732.558" rx="7.974" ry="2.378"/>
		<path fill="#231289" d="M91.836,743.305c0,1.113-3.028,2.018-6.763,2.018c-3.734,0-6.762-0.904-6.762-2.018
			c0-1.111,3.028-2.013,6.762-2.013C88.808,741.292,91.836,742.194,91.836,743.305z"/>
		<ellipse fill="#231289" cx="101.427" cy="748.73" rx="4.629" ry="1.38"/>
		<path fill="#529BDD" d="M134.889,762.289c0,0,2.884,145.669-89.686,168.262c0,0,26.015,7.816,60.852,3.016
			c0,0,47.9-5.318,47.9-29.138V741.292C153.956,741.292,155.93,752.184,134.889,762.289z"/>
		<path fill="#529BDD" d="M176.432,758.324c-13.175-1.982-22.476,13.787-22.476,13.787l0.049,109.485c0,0,2.664-4.36,22.427-31.709
			C205.207,805.494,189.606,760.304,176.432,758.324z M169.144,840.086c-13.31,18.423-15.104,21.36-15.104,21.36l-0.034-73.743
			c0,0,6.263-10.625,15.139-9.29C178.017,779.749,188.525,810.183,169.144,840.086z"/>
	</g>
	<g>
		<path fill="#2A1D8A" d="M627.661,1184.84l135.489-79.387c9.567-5.568,16.092-21.025,8.157-34.357
			c-6.714-11.294-23.131-22.52-58.107-23.23c-67.678-1.382-101.652,41.328-113.718,60.309c-8.408,13.229-18.348,45.8-5.417,67.314
			C599.58,1184.659,618.408,1190.222,627.661,1184.84z"/>
		<path fill="#FFFFFF" d="M627.661,1184.84c0,0,28.809-24.1,35.817-38.117c7.01-14.019,35.816-44.385,67.746-42.828
			c31.926,1.559,31.926,1.559,31.926,1.559L627.661,1184.84z"/>
		<path fill="#FFFFFF" d="M708.338,1068.892c4.834-0.652,16.592-2.015,32.724-2.321c1.54-0.033,2.38-1.841,1.36-3.002
			c-2.523-2.862-7.64-6.78-16.776-6.78c-10.522,0-16.201,6.642-18.491,10.229C706.584,1067.899,707.3,1069.034,708.338,1068.892z"/>
	</g>
	<g>
		<polygon fill="#CC5E90" points="959.132,1034.598 865.691,1088.328 865.691,1099.106 959.132,1152.833 1052.574,1098.327 
			1052.574,1087.548 		"/>
		<polygon fill="#FF6FA2" points="959.132,1034.598 1052.574,1087.548 959.132,1142.054 865.691,1088.328 		"/>
		<path fill="#CC5E90" d="M981.849,1130.647l-95.048-54.444c0,0-18.176-6.228-9.759-26.484l97.928,57.825
			C974.97,1107.543,967.586,1119.52,981.849,1130.647z"/>
	</g>
	<path fill="#FF6FA2" d="M815.662,777.799l104.02,59.636v72.571c0,0-3.183,24.139-30.802,21.803l-107.82-59.177
		c0,0,27.155,1.712,34.603-14.717V777.799z"/>
	<g>
		<ellipse fill="#2A1D8A" cx="183.617" cy="421.349" rx="104.812" ry="21.407"/>
		<ellipse fill="#170659" cx="183.59" cy="427.143" rx="100.877" ry="15.613"/>
		<path fill="#2A1D8A" d="M183.617,442.756c-55.668,0-101.176-8.864-104.584-20.059l27.101,160.207c0,0,19.229,35.438,74.404,36.481
			c55.177,1.042,77.972-27.1,77.972-27.1l29.676-169.549C284.682,433.913,239.219,442.756,183.617,442.756z"/>
		<path fill="#453DB2" d="M183.617,399.939c-57.886,0-104.812,9.586-104.812,21.409c0,11.823,46.926,21.407,104.812,21.407
			c57.884,0,104.812-9.584,104.812-21.407C288.429,409.525,241.501,399.939,183.617,399.939z M183.617,435.761
			c-51.293,0-92.874-7.473-92.874-16.692c0-9.217,41.58-16.69,92.874-16.69c51.292,0,92.873,7.473,92.873,16.69
			C276.49,428.288,234.909,435.761,183.617,435.761z"/>
		<path fill="#FFAC96" d="M214.647,425.639c0,0-145.096-7.918-123.904-75.34c8.66-27.551,15.794-44.52,0-59.701
			c-39.463-37.934-50.565-66.159-31.469-88.727c19.096-22.57,26.734-34.38,31.469-72.183c4.733-37.804,83.978-60.234,106.545-13.751
			c22.567,46.483,6.943,52.95,22.567,66.838c15.624,13.887,45.348,39.803,39.166,80.661c-6.183,40.859-42.637,55.724-28.75,77.803
			C244.161,363.321,245.679,408.519,214.647,425.639L214.647,425.639z"/>
		<g>
			
				<path fill="none" stroke="#EA9A8B" stroke-width="0.7754" stroke-linecap="round" stroke-linejoin="round" stroke-miterlimit="10" d="
				M212.788,424.5c0,0-72.788-41.671-65.844-122.602c6.944-80.93-23.173-109.575-18.966-139.087
				c4.211-29.514,17.23-55.074,17.23-55.074"/>
			
				<path fill="none" stroke="#EA9A8B" stroke-width="0.7754" stroke-linecap="round" stroke-linejoin="round" stroke-miterlimit="10" d="
				M69.032,207.08c0,0,43.42,24.17,78.677,59.608c0,0,63.25-17.944,78.875-53.099"/>
			
				<path fill="none" stroke="#EA9A8B" stroke-width="0.7754" stroke-linecap="round" stroke-linejoin="round" stroke-miterlimit="10" d="
				M102.366,357.461c1.827,0.651,33.454,27.391,68.745,27.693c0,0,30.3-13.189,43.537-36.156"/>
			
				<path fill="none" stroke="#EA9A8B" stroke-width="0.7754" stroke-linecap="round" stroke-linejoin="round" stroke-miterlimit="10" d="
				M106.134,125.878c0,0,13.731,23.261,21.844,25.865c0,0,50.376-14.689,55.614-24.595"/>
		</g>
		<path fill="#221C72" d="M288.429,421.349c0,0,1.656,15.795-79.246,20.765c0,0-2.895,149.17-81.61,162.135
			c0,0,20.672,19.534,69.716,15.166c0,0,38.244-3.018,61.22-27.129L288.429,421.349z"/>
		<path fill="#EA9A8B" d="M197.289,115.938c0,0,9.113,49.477,0,69.008c-9.115,19.53,31.899,44.918,29.294,69.006
			c-2.604,24.087-29.294,62.212-26.041,78.956c3.256,16.742,25.221,60.754,10.251,92.456l3.854,0.276
			c0,0,33.772-13.254,22.529-67.949c0,0-1.262-6.849-6.904-16.45c-5.643-9.601-2.597-17.548,1.668-24.05
			c4.265-6.501,31.13-35.724,27.752-69.337c-3.381-33.612-28.196-53.354-36.621-62.213c-8.424-8.859-9.731-7.905-11.723-22.194
			C209.358,149.156,203.385,125.394,197.289,115.938z"/>
	</g>
	<g>
		<path fill="#56BAD8" d="M425.5,815.045c0,0-6.096,18.246,44.728,22.39c50.825,4.146,80.058,35.81,80.058,35.81l79.17-45.867
			c0,0-86.448-13.467-102.091-15.497c-15.642-2.026-53.513,7.753-81.681,3.689C417.514,811.506,425.5,815.045,425.5,815.045z"/>
		<g>
			<path fill="#0F0055" d="M465.827,708.555l18.565,17.652c1.575,1.495,2.707,3.381,3.275,5.477
				c2.963,10.908,13.322,47.612,25.221,73.089h9.263c0,0-3.529-64.71-9.263-82.654c-5.734-17.95-8.824-24.507-8.824-24.507
				S485.521,706.036,465.827,708.555z"/>
			<path fill="#0F0055" d="M415.801,710.257c0,0,5.984,17.721,7.307,25.632c1.326,7.908-1.98,35.77,3.756,58.998l2.205,9.886h11.029
				c0,0,9.444-37.111,2.387-65.781c-2.207-10.874,6.58-28.734,6.58-28.734S423.81,711.277,415.801,710.257z"/>
			<path fill="#0F0055" d="M407.012,494.627c0,0-31.324,40.586-33.97,74.116c-2.647,33.528,40.703,46.663,40.703,46.663
				l4.423-12.029c0,0-41.818-21.935-8.18-69.532C409.988,533.845,405.247,510.068,407.012,494.627z"/>
			<path fill="#FFAC96" d="M417.598,491.098c0,0,18.277,20.624,34.16-1.434l11.72,3.421c0,0-20.048,27.02,5.097,35.326
				c0,0,1.167,20.478-14.04,33.053c0,0,34.531,46.982,49.53,136.148c0,0-43.233,21.123-104.112,10.533
				c0,0-21.701-54.038,18.216-140.726c0,0-10.274-11.913-11.156-72.792C407.012,494.627,413.629,492.202,417.598,491.098z"/>
			<path fill="#EA9A8B" d="M430.027,563.048c0,0,18.412-2.504,25.25,6.759c6.838,9.266,30.869,111.015,25.609,135.632
				c0,0,11.912-2.722,23.178-7.828c0,0-13.215-85.709-49.53-136.148c0,0,13.684-9.702,14.04-33.053c0,0-9.302-4.461-5.097-35.326
				L430.027,563.048z"/>
			<path fill="#0F0055" d="M463.478,493.085c0,0,39.485,17.425,58.014-7.722c18.529-25.145,12.574-53.6,12.574-53.6
				s-6.288,0-8.272-9.927c-1.985-9.925-0.331-12.573-0.331-12.573s2.977-0.992,3.97,3.64c0.992,4.631,0.992,4.631,0.992,4.631
				s2.021-11.811,1.825-22.682c-0.043-2.527,3.595-4.759,4.257-1.287c0.975,5.119,0.206,10.533,0.206,10.533
				s6.617,0.201,8.603,5.164c1.983,4.963-1.324,20.184-2.317,20.846c0,0,16.635,98.302-81.827,98.302
				C461.17,528.411,454.988,512.164,463.478,493.085z"/>
			<path fill="#FF6FA2" d="M433.921,401.544c0,0-20.733-12.354-39.264,7.94c-18.527,20.293-3.088,61.321-3.088,61.321
				s-27.791,44.999-3.087,79.409c24.706,34.408,83.82,1.323,81.173-32.644c-2.646-33.97-8.524-47.205-10.659-48.528
				c-2.134-1.324-6.245-18.088,0-33.528C465.245,420.073,448.92,397.133,433.921,401.544z"/>
			<path fill="#0F0055" d="M458.996,469.041c0,0,9.654-14.083,1.124-37.7C460.12,431.341,448.339,448.748,458.996,469.041z"/>
			<path fill="#FFAC96" d="M429.068,804.773c0,0-1.915,5.293-3.569,10.272c-1.655,4.981,4.633,5.509,12.243,5.509
				s10.257-0.266,7.941-4.984c-2.317-4.72-5.586-10.797-5.586-10.797H429.068z"/>
			<path fill="#FFAC96" d="M512.889,804.773c0,0-2.938,8.003,0,12.304c2.938,4.302,36.026,0,36.026,0s5.953-5.956-6.95-6.615
				c-12.904-0.664-19.813-5.688-19.813-5.688H512.889z"/>
			<path fill="#CC5E90" d="M458.996,469.041c0,0,8.31,68.783-40.828,82.901c0,0-9.213,4.162-29.686-1.729
				c0,0,17.083,27.895,55.137,7.078c0,0,27.1-12.738,26.037-39.722C469.655,517.569,469.113,480.547,458.996,469.041z"/>
			<path fill="#CC5E90" d="M454.781,455.608c0,0-3.915,18.028-21.78,16.924c0,0,17.363,4.705,25.996-3.492
				C458.996,469.041,456.142,464.458,454.781,455.608z"/>
		</g>
	</g>
</g>
</svg>
