<?xml version="1.0" encoding="UTF-8" standalone="no"?>
<!DOCTYPE svg PUBLIC "-//W3C//DTD SVG 1.1//EN"
 "http://www.w3.org/Graphics/SVG/1.1/DTD/svg11.dtd">
<!-- Generated by graphviz version 2.40.1 (20161225.0304)
 -->
<!-- Title: dependencies Pages: 1 -->
<svg width="976pt" height="284pt"
 viewBox="0.00 0.00 976.00 284.00" xmlns="http://www.w3.org/2000/svg" xmlns:xlink="http://www.w3.org/1999/xlink">
<g id="graph0" class="graph" transform="scale(1 1) rotate(0) translate(4 280)">
<title>dependencies</title>
<polygon fill="#ffffff" stroke="transparent" points="-4,4 -4,-280 972,-280 972,4 -4,4"/>
<text text-anchor="start" x="463.0091" y="-42.4" font-family="sans-serif" font-weight="bold" font-size="14.00" fill="#000000">Legend</text>
<polygon fill="#ffffb3" stroke="transparent" points="250,-10 250,-30 270,-30 270,-10 250,-10"/>
<text text-anchor="start" x="273.629" y="-15.4" font-family="sans-serif" font-size="14.00" fill="#000000"> &#160;Declarations</text>
<polygon fill="#8dd3c7" stroke="transparent" points="363,-10 363,-30 383,-30 383,-10 363,-10"/>
<text text-anchor="start" x="386.7251" y="-15.4" font-family="sans-serif" font-size="14.00" fill="#000000"> &#160;Module</text>
<polygon fill="#80b1d3" stroke="transparent" points="449,-10 449,-30 469,-30 469,-10 449,-10"/>
<text text-anchor="start" x="472.7812" y="-15.4" font-family="sans-serif" font-size="14.00" fill="#000000"> &#160;Bootstrap</text>
<polygon fill="#fdb462" stroke="transparent" points="546,-10 546,-30 566,-30 566,-10 546,-10"/>
<text text-anchor="start" x="569.6732" y="-15.4" font-family="sans-serif" font-size="14.00" fill="#000000"> &#160;Providers</text>
<polygon fill="#fb8072" stroke="transparent" points="642,-10 642,-30 662,-30 662,-10 642,-10"/>
<text text-anchor="start" x="665.7258" y="-15.4" font-family="sans-serif" font-size="14.00" fill="#000000"> &#160;Exports</text>
<g id="clust1" class="cluster">
<title>cluster_HeaderModule</title>
<polygon fill="none" stroke="#000000" stroke-dasharray="1,5" points="8,-70 8,-268 960,-268 960,-70 8,-70"/>
</g>
<g id="clust2" class="cluster">
<title>cluster_HeaderModule_declarations</title>
<polygon fill="none" stroke="#000000" points="262,-78 262,-130 952,-130 952,-78 262,-78"/>
</g>
<g id="clust7" class="cluster">
<title>cluster_HeaderModule_imports</title>
<polygon fill="none" stroke="#000000" points="16,-78 16,-130 254,-130 254,-78 16,-78"/>
</g>
<g id="clust8" class="cluster">
<title>cluster_HeaderModule_exports</title>
<polygon fill="none" stroke="#000000" points="391,-208 391,-260 533,-260 533,-208 391,-208"/>
</g>
<!-- HeaderComponent -->
<g id="node1" class="node">
<title>HeaderComponent</title>
<polygon fill="#ffffb3" stroke="#000000" points="943.7437,-122 822.2563,-122 822.2563,-86 943.7437,-86 943.7437,-122"/>
<text text-anchor="middle" x="883" y="-99.8" font-family="Times,serif" font-size="14.00" fill="#000000">HeaderComponent</text>
</g>
<!-- HeaderModule -->
<g id="node5" class="node">
<title>HeaderModule</title>
<polygon fill="#8dd3c7" stroke="#000000" points="511.9608,-187 508.9608,-191 487.9608,-191 484.9608,-187 412.0392,-187 412.0392,-151 511.9608,-151 511.9608,-187"/>
<text text-anchor="middle" x="462" y="-164.8" font-family="Times,serif" font-size="14.00" fill="#000000">HeaderModule</text>
</g>
<!-- HeaderComponent&#45;&gt;HeaderModule -->
<g id="edge1" class="edge">
<title>HeaderComponent&#45;&gt;HeaderModule</title>
<path fill="none" stroke="#000000" d="M883,-122.2843C883,-143.3211 883,-175 883,-175 883,-175 522.3643,-175 522.3643,-175"/>
<polygon fill="#000000" stroke="#000000" points="522.3643,-171.5001 512.3643,-175 522.3642,-178.5001 522.3643,-171.5001"/>
</g>
<!-- ToolbarUserComponent -->
<g id="node2" class="node">
<title>ToolbarUserComponent</title>
<polygon fill="#ffffb3" stroke="#000000" points="804.0772,-122 651.9228,-122 651.9228,-86 804.0772,-86 804.0772,-122"/>
<text text-anchor="middle" x="728" y="-99.8" font-family="Times,serif" font-size="14.00" fill="#000000">ToolbarUserComponent</text>
</g>
<!-- ToolbarUserComponent&#45;&gt;HeaderModule -->
<g id="edge2" class="edge">
<title>ToolbarUserComponent&#45;&gt;HeaderModule</title>
<path fill="none" stroke="#000000" d="M728,-122.0225C728,-139.3734 728,-163 728,-163 728,-163 522.0326,-163 522.0326,-163"/>
<polygon fill="#000000" stroke="#000000" points="522.0326,-159.5001 512.0326,-163 522.0325,-166.5001 522.0326,-159.5001"/>
</g>
<!-- ToolbarHelpComponent -->
<g id="node3" class="node">
<title>ToolbarHelpComponent</title>
<polygon fill="#ffffb3" stroke="#000000" points="634.3627,-122 481.6373,-122 481.6373,-86 634.3627,-86 634.3627,-122"/>
<text text-anchor="middle" x="558" y="-99.8" font-family="Times,serif" font-size="14.00" fill="#000000">ToolbarHelpComponent</text>
</g>
<!-- ToolbarHelpComponent&#45;&gt;HeaderModule -->
<g id="edge3" class="edge">
<title>ToolbarHelpComponent&#45;&gt;HeaderModule</title>
<path fill="none" stroke="#000000" d="M496.7746,-122.1061C496.7746,-122.1061 496.7746,-140.991 496.7746,-140.991"/>
<polygon fill="#000000" stroke="#000000" points="493.2746,-140.9909 496.7746,-150.991 500.2746,-140.991 493.2746,-140.9909"/>
</g>
<!-- ToolbarNotificationComponent -->
<g id="node4" class="node">
<title>ToolbarNotificationComponent</title>
<polygon fill="#ffffb3" stroke="#000000" points="463.8004,-122 270.1996,-122 270.1996,-86 463.8004,-86 463.8004,-122"/>
<text text-anchor="middle" x="367" y="-99.8" font-family="Times,serif" font-size="14.00" fill="#000000">ToolbarNotificationComponent</text>
</g>
<!-- ToolbarNotificationComponent&#45;&gt;HeaderModule -->
<g id="edge4" class="edge">
<title>ToolbarNotificationComponent&#45;&gt;HeaderModule</title>
<path fill="none" stroke="#000000" d="M437.8349,-122.1061C437.8349,-122.1061 437.8349,-140.991 437.8349,-140.991"/>
<polygon fill="#000000" stroke="#000000" points="434.3349,-140.9909 437.8349,-150.991 441.3349,-140.991 434.3349,-140.9909"/>
</g>
<!-- HeaderComponent  -->
<g id="node8" class="node">
<title>HeaderComponent </title>
<polygon fill="#fb8072" stroke="#000000" points="524.7436,-252 399.2564,-252 399.2564,-216 524.7436,-216 524.7436,-252"/>
<text text-anchor="middle" x="462" y="-229.8" font-family="Times,serif" font-size="14.00" fill="#000000">HeaderComponent </text>
</g>
<!-- HeaderModule&#45;&gt;HeaderComponent  -->
<g id="edge7" class="edge">
<title>HeaderModule&#45;&gt;HeaderComponent </title>
<path fill="none" stroke="#000000" stroke-dasharray="5,2" d="M462,-187.1061C462,-187.1061 462,-205.991 462,-205.991"/>
<polygon fill="#000000" stroke="#000000" points="458.5001,-205.9909 462,-215.991 465.5001,-205.991 458.5001,-205.9909"/>
</g>
<!-- SharedModule -->
<g id="node6" class="node">
<title>SharedModule</title>
<polygon fill="#8dd3c7" stroke="#000000" points="246.4231,-122 243.4231,-126 222.4231,-126 219.4231,-122 147.5769,-122 147.5769,-86 246.4231,-86 246.4231,-122"/>
<text text-anchor="middle" x="197" y="-99.8" font-family="Times,serif" font-size="14.00" fill="#000000">SharedModule</text>
</g>
<!-- SharedModule&#45;&gt;HeaderModule -->
<g id="edge5" class="edge">
<title>SharedModule&#45;&gt;HeaderModule</title>
<path fill="none" stroke="#000000" d="M197,-122.0225C197,-139.3734 197,-163 197,-163 197,-163 401.844,-163 401.844,-163"/>
<polygon fill="#000000" stroke="#000000" points="401.844,-166.5001 411.844,-163 401.8439,-159.5001 401.844,-166.5001"/>
</g>
<!-- LoadingModule -->
<g id="node7" class="node">
<title>LoadingModule</title>
<polygon fill="#8dd3c7" stroke="#000000" points="130.2078,-122 127.2078,-126 106.2078,-126 103.2078,-122 23.7922,-122 23.7922,-86 130.2078,-86 130.2078,-122"/>
<text text-anchor="middle" x="77" y="-99.8" font-family="Times,serif" font-size="14.00" fill="#000000">LoadingModule</text>
</g>
<!-- LoadingModule&#45;&gt;HeaderModule -->
<g id="edge6" class="edge">
<title>LoadingModule&#45;&gt;HeaderModule</title>
<path fill="none" stroke="#000000" d="M77,-122.2843C77,-143.3211 77,-175 77,-175 77,-175 401.668,-175 401.668,-175"/>
<polygon fill="#000000" stroke="#000000" points="401.668,-178.5001 411.668,-175 401.6679,-171.5001 401.668,-178.5001"/>
</g>
</g>
</svg>
