<?xml version="1.0" encoding="UTF-8" standalone="no"?>
<!DOCTYPE svg PUBLIC "-//W3C//DTD SVG 1.1//EN"
 "http://www.w3.org/Graphics/SVG/1.1/DTD/svg11.dtd">
<!-- Generated by graphviz version 2.40.1 (20161225.0304)
 -->
<!-- Title: dependencies Pages: 1 -->
<svg width="852pt" height="284pt"
 viewBox="0.00 0.00 852.00 284.00" xmlns="http://www.w3.org/2000/svg" xmlns:xlink="http://www.w3.org/1999/xlink">
<g id="graph0" class="graph" transform="scale(1 1) rotate(0) translate(4 280)">
<title>dependencies</title>
<polygon fill="#ffffff" stroke="transparent" points="-4,4 -4,-280 848,-280 848,4 -4,4"/>
<text text-anchor="start" x="401.0091" y="-42.4" font-family="sans-serif" font-weight="bold" font-size="14.00" fill="#000000">Legend</text>
<polygon fill="#ffffb3" stroke="transparent" points="188,-10 188,-30 208,-30 208,-10 188,-10"/>
<text text-anchor="start" x="211.629" y="-15.4" font-family="sans-serif" font-size="14.00" fill="#000000"> &#160;Declarations</text>
<polygon fill="#8dd3c7" stroke="transparent" points="301,-10 301,-30 321,-30 321,-10 301,-10"/>
<text text-anchor="start" x="324.7251" y="-15.4" font-family="sans-serif" font-size="14.00" fill="#000000"> &#160;Module</text>
<polygon fill="#80b1d3" stroke="transparent" points="387,-10 387,-30 407,-30 407,-10 387,-10"/>
<text text-anchor="start" x="410.7812" y="-15.4" font-family="sans-serif" font-size="14.00" fill="#000000"> &#160;Bootstrap</text>
<polygon fill="#fdb462" stroke="transparent" points="484,-10 484,-30 504,-30 504,-10 484,-10"/>
<text text-anchor="start" x="507.6732" y="-15.4" font-family="sans-serif" font-size="14.00" fill="#000000"> &#160;Providers</text>
<polygon fill="#fb8072" stroke="transparent" points="580,-10 580,-30 600,-30 600,-10 580,-10"/>
<text text-anchor="start" x="603.7258" y="-15.4" font-family="sans-serif" font-size="14.00" fill="#000000"> &#160;Exports</text>
<g id="clust1" class="cluster">
<title>cluster_HeaderModule</title>
<polygon fill="none" stroke="#000000" stroke-dasharray="1,5" points="8,-70 8,-268 836,-268 836,-70 8,-70"/>
</g>
<g id="clust2" class="cluster">
<title>cluster_HeaderModule_declarations</title>
<polygon fill="none" stroke="#000000" points="138,-78 138,-130 828,-130 828,-78 138,-78"/>
</g>
<g id="clust7" class="cluster">
<title>cluster_HeaderModule_imports</title>
<polygon fill="none" stroke="#000000" points="16,-78 16,-130 130,-130 130,-78 16,-78"/>
</g>
<g id="clust8" class="cluster">
<title>cluster_HeaderModule_exports</title>
<polygon fill="none" stroke="#000000" points="363,-208 363,-260 505,-260 505,-208 363,-208"/>
</g>
<!-- HeaderComponent -->
<g id="node1" class="node">
<title>HeaderComponent</title>
<polygon fill="#ffffb3" stroke="#000000" points="819.7437,-122 698.2563,-122 698.2563,-86 819.7437,-86 819.7437,-122"/>
<text text-anchor="middle" x="759" y="-99.8" font-family="Times,serif" font-size="14.00" fill="#000000">HeaderComponent</text>
</g>
<!-- HeaderModule -->
<g id="node5" class="node">
<title>HeaderModule</title>
<polygon fill="#8dd3c7" stroke="#000000" points="483.9608,-187 480.9608,-191 459.9608,-191 456.9608,-187 384.0392,-187 384.0392,-151 483.9608,-151 483.9608,-187"/>
<text text-anchor="middle" x="434" y="-164.8" font-family="Times,serif" font-size="14.00" fill="#000000">HeaderModule</text>
</g>
<!-- HeaderComponent&#45;&gt;HeaderModule -->
<g id="edge1" class="edge">
<title>HeaderComponent&#45;&gt;HeaderModule</title>
<path fill="none" stroke="#000000" d="M759,-122.2843C759,-143.3211 759,-175 759,-175 759,-175 494.069,-175 494.069,-175"/>
<polygon fill="#000000" stroke="#000000" points="494.069,-171.5001 484.069,-175 494.069,-178.5001 494.069,-171.5001"/>
</g>
<!-- ToolbarUserComponent -->
<g id="node2" class="node">
<title>ToolbarUserComponent</title>
<polygon fill="#ffffb3" stroke="#000000" points="680.0772,-122 527.9228,-122 527.9228,-86 680.0772,-86 680.0772,-122"/>
<text text-anchor="middle" x="604" y="-99.8" font-family="Times,serif" font-size="14.00" fill="#000000">ToolbarUserComponent</text>
</g>
<!-- ToolbarUserComponent&#45;&gt;HeaderModule -->
<g id="edge2" class="edge">
<title>ToolbarUserComponent&#45;&gt;HeaderModule</title>
<path fill="none" stroke="#000000" d="M604,-122.0225C604,-139.3734 604,-163 604,-163 604,-163 494.0861,-163 494.0861,-163"/>
<polygon fill="#000000" stroke="#000000" points="494.0862,-159.5001 484.0861,-163 494.0861,-166.5001 494.0862,-159.5001"/>
</g>
<!-- ToolbarHelpComponent -->
<g id="node3" class="node">
<title>ToolbarHelpComponent</title>
<polygon fill="#ffffb3" stroke="#000000" points="510.3627,-122 357.6373,-122 357.6373,-86 510.3627,-86 510.3627,-122"/>
<text text-anchor="middle" x="434" y="-99.8" font-family="Times,serif" font-size="14.00" fill="#000000">ToolbarHelpComponent</text>
</g>
<!-- ToolbarHelpComponent&#45;&gt;HeaderModule -->
<g id="edge3" class="edge">
<title>ToolbarHelpComponent&#45;&gt;HeaderModule</title>
<path fill="none" stroke="#000000" d="M434,-122.1061C434,-122.1061 434,-140.991 434,-140.991"/>
<polygon fill="#000000" stroke="#000000" points="430.5001,-140.9909 434,-150.991 437.5001,-140.991 430.5001,-140.9909"/>
</g>
<!-- ToolbarNotificationComponent -->
<g id="node4" class="node">
<title>ToolbarNotificationComponent</title>
<polygon fill="#ffffb3" stroke="#000000" points="339.8004,-122 146.1996,-122 146.1996,-86 339.8004,-86 339.8004,-122"/>
<text text-anchor="middle" x="243" y="-99.8" font-family="Times,serif" font-size="14.00" fill="#000000">ToolbarNotificationComponent</text>
</g>
<!-- ToolbarNotificationComponent&#45;&gt;HeaderModule -->
<g id="edge4" class="edge">
<title>ToolbarNotificationComponent&#45;&gt;HeaderModule</title>
<path fill="none" stroke="#000000" d="M243,-122.0225C243,-139.3734 243,-163 243,-163 243,-163 373.817,-163 373.817,-163"/>
<polygon fill="#000000" stroke="#000000" points="373.817,-166.5001 383.817,-163 373.817,-159.5001 373.817,-166.5001"/>
</g>
<!-- HeaderComponent  -->
<g id="node7" class="node">
<title>HeaderComponent </title>
<polygon fill="#fb8072" stroke="#000000" points="496.7436,-252 371.2564,-252 371.2564,-216 496.7436,-216 496.7436,-252"/>
<text text-anchor="middle" x="434" y="-229.8" font-family="Times,serif" font-size="14.00" fill="#000000">HeaderComponent </text>
</g>
<!-- HeaderModule&#45;&gt;HeaderComponent  -->
<g id="edge6" class="edge">
<title>HeaderModule&#45;&gt;HeaderComponent </title>
<path fill="none" stroke="#000000" stroke-dasharray="5,2" d="M434,-187.1061C434,-187.1061 434,-205.991 434,-205.991"/>
<polygon fill="#000000" stroke="#000000" points="430.5001,-205.9909 434,-215.991 437.5001,-205.991 430.5001,-205.9909"/>
</g>
<!-- SharedModule -->
<g id="node6" class="node">
<title>SharedModule</title>
<polygon fill="#8dd3c7" stroke="#000000" points="122.4231,-122 119.4231,-126 98.4231,-126 95.4231,-122 23.5769,-122 23.5769,-86 122.4231,-86 122.4231,-122"/>
<text text-anchor="middle" x="73" y="-99.8" font-family="Times,serif" font-size="14.00" fill="#000000">SharedModule</text>
</g>
<!-- SharedModule&#45;&gt;HeaderModule -->
<g id="edge5" class="edge">
<title>SharedModule&#45;&gt;HeaderModule</title>
<path fill="none" stroke="#000000" d="M73,-122.2843C73,-143.3211 73,-175 73,-175 73,-175 373.8045,-175 373.8045,-175"/>
<polygon fill="#000000" stroke="#000000" points="373.8045,-178.5001 383.8045,-175 373.8045,-171.5001 373.8045,-178.5001"/>
</g>
</g>
</svg>
