<?xml version="1.0" encoding="UTF-8" standalone="no"?>
<!DOCTYPE svg PUBLIC "-//W3C//DTD SVG 1.1//EN"
 "http://www.w3.org/Graphics/SVG/1.1/DTD/svg11.dtd">
<!-- Generated by graphviz version 2.40.1 (20161225.0304)
 -->
<!-- Title: dependencies Pages: 1 -->
<svg width="976pt" height="284pt"
 viewBox="0.00 0.00 976.00 284.00" xmlns="http://www.w3.org/2000/svg" xmlns:xlink="http://www.w3.org/1999/xlink">
<g id="graph0" class="graph" transform="scale(1 1) rotate(0) translate(4 280)">
<title>dependencies</title>
<polygon fill="#ffffff" stroke="transparent" points="-4,4 -4,-280 972,-280 972,4 -4,4"/>
<text text-anchor="start" x="463.0091" y="-42.4" font-family="sans-serif" font-weight="bold" font-size="14.00" fill="#000000">Legend</text>
<polygon fill="#ffffb3" stroke="transparent" points="250,-10 250,-30 270,-30 270,-10 250,-10"/>
<text text-anchor="start" x="273.629" y="-15.4" font-family="sans-serif" font-size="14.00" fill="#000000"> &#160;Declarations</text>
<polygon fill="#8dd3c7" stroke="transparent" points="363,-10 363,-30 383,-30 383,-10 363,-10"/>
<text text-anchor="start" x="386.7251" y="-15.4" font-family="sans-serif" font-size="14.00" fill="#000000"> &#160;Module</text>
<polygon fill="#80b1d3" stroke="transparent" points="449,-10 449,-30 469,-30 469,-10 449,-10"/>
<text text-anchor="start" x="472.7812" y="-15.4" font-family="sans-serif" font-size="14.00" fill="#000000"> &#160;Bootstrap</text>
<polygon fill="#fdb462" stroke="transparent" points="546,-10 546,-30 566,-30 566,-10 546,-10"/>
<text text-anchor="start" x="569.6732" y="-15.4" font-family="sans-serif" font-size="14.00" fill="#000000"> &#160;Providers</text>
<polygon fill="#fb8072" stroke="transparent" points="642,-10 642,-30 662,-30 662,-10 642,-10"/>
<text text-anchor="start" x="665.7258" y="-15.4" font-family="sans-serif" font-size="14.00" fill="#000000"> &#160;Exports</text>
<g id="clust1" class="cluster">
<title>cluster_HeaderModule</title>
<polygon fill="none" stroke="#000000" stroke-dasharray="1,5" points="8,-70 8,-268 960,-268 960,-70 8,-70"/>
</g>
<g id="clust2" class="cluster">
<title>cluster_HeaderModule_declarations</title>
<polygon fill="none" stroke="#000000" points="262,-78 262,-130 952,-130 952,-78 262,-78"/>
</g>
<g id="clust7" class="cluster">
<title>cluster_HeaderModule_imports</title>
<polygon fill="none" stroke="#000000" points="16,-78 16,-130 254,-130 254,-78 16,-78"/>
</g>
<g id="clust8" class="cluster">
<title>cluster_HeaderModule_exports</title>
<polygon fill="none" stroke="#000000" points="370,-208 370,-260 512,-260 512,-208 370,-208"/>
</g>
<!-- HeaderComponent -->
<g id="node1" class="node">
<title>HeaderComponent</title>
<polygon fill="#ffffb3" stroke="#000000" points="943.7437,-122 822.2563,-122 822.2563,-86 943.7437,-86 943.7437,-122"/>
<text text-anchor="middle" x="883" y="-99.8" font-family="Times,serif" font-size="14.00" fill="#000000">HeaderComponent</text>
</g>
<!-- HeaderModule -->
<g id="node5" class="node">
<title>HeaderModule</title>
<polygon fill="#8dd3c7" stroke="#000000" points="490.9608,-187 487.9608,-191 466.9608,-191 463.9608,-187 391.0392,-187 391.0392,-151 490.9608,-151 490.9608,-187"/>
<text text-anchor="middle" x="441" y="-164.8" font-family="Times,serif" font-size="14.00" fill="#000000">HeaderModule</text>
</g>
<!-- HeaderComponent&#45;&gt;HeaderModule -->
<g id="edge1" class="edge">
<title>HeaderComponent&#45;&gt;HeaderModule</title>
<path fill="none" stroke="#000000" d="M883,-122.2843C883,-143.3211 883,-175 883,-175 883,-175 501.2727,-175 501.2727,-175"/>
<polygon fill="#000000" stroke="#000000" points="501.2727,-171.5001 491.2727,-175 501.2727,-178.5001 501.2727,-171.5001"/>
</g>
<!-- ToolbarHelpComponent -->
<g id="node2" class="node">
<title>ToolbarHelpComponent</title>
<polygon fill="#ffffb3" stroke="#000000" points="804.3627,-122 651.6373,-122 651.6373,-86 804.3627,-86 804.3627,-122"/>
<text text-anchor="middle" x="728" y="-99.8" font-family="Times,serif" font-size="14.00" fill="#000000">ToolbarHelpComponent</text>
</g>
<!-- ToolbarHelpComponent&#45;&gt;HeaderModule -->
<g id="edge2" class="edge">
<title>ToolbarHelpComponent&#45;&gt;HeaderModule</title>
<path fill="none" stroke="#000000" d="M728,-122.0225C728,-139.3734 728,-163 728,-163 728,-163 500.9916,-163 500.9916,-163"/>
<polygon fill="#000000" stroke="#000000" points="500.9916,-159.5001 490.9916,-163 500.9915,-166.5001 500.9916,-159.5001"/>
</g>
<!-- ToolbarNotificationComponent -->
<g id="node3" class="node">
<title>ToolbarNotificationComponent</title>
<polygon fill="#ffffb3" stroke="#000000" points="633.8004,-122 440.1996,-122 440.1996,-86 633.8004,-86 633.8004,-122"/>
<text text-anchor="middle" x="537" y="-99.8" font-family="Times,serif" font-size="14.00" fill="#000000">ToolbarNotificationComponent</text>
</g>
<!-- ToolbarNotificationComponent&#45;&gt;HeaderModule -->
<g id="edge3" class="edge">
<title>ToolbarNotificationComponent&#45;&gt;HeaderModule</title>
<path fill="none" stroke="#000000" d="M465.6652,-122.1061C465.6652,-122.1061 465.6652,-140.991 465.6652,-140.991"/>
<polygon fill="#000000" stroke="#000000" points="462.1652,-140.9909 465.6652,-150.991 469.1652,-140.991 462.1652,-140.9909"/>
</g>
<!-- ToolbarUserComponent -->
<g id="node4" class="node">
<title>ToolbarUserComponent</title>
<polygon fill="#ffffb3" stroke="#000000" points="422.0772,-122 269.9228,-122 269.9228,-86 422.0772,-86 422.0772,-122"/>
<text text-anchor="middle" x="346" y="-99.8" font-family="Times,serif" font-size="14.00" fill="#000000">ToolbarUserComponent</text>
</g>
<!-- ToolbarUserComponent&#45;&gt;HeaderModule -->
<g id="edge4" class="edge">
<title>ToolbarUserComponent&#45;&gt;HeaderModule</title>
<path fill="none" stroke="#000000" d="M406.5291,-122.1061C406.5291,-122.1061 406.5291,-140.991 406.5291,-140.991"/>
<polygon fill="#000000" stroke="#000000" points="403.0292,-140.9909 406.5291,-150.991 410.0292,-140.991 403.0292,-140.9909"/>
</g>
<!-- HeaderComponent  -->
<g id="node8" class="node">
<title>HeaderComponent </title>
<polygon fill="#fb8072" stroke="#000000" points="503.7436,-252 378.2564,-252 378.2564,-216 503.7436,-216 503.7436,-252"/>
<text text-anchor="middle" x="441" y="-229.8" font-family="Times,serif" font-size="14.00" fill="#000000">HeaderComponent </text>
</g>
<!-- HeaderModule&#45;&gt;HeaderComponent  -->
<g id="edge7" class="edge">
<title>HeaderModule&#45;&gt;HeaderComponent </title>
<path fill="none" stroke="#000000" stroke-dasharray="5,2" d="M441,-187.1061C441,-187.1061 441,-205.991 441,-205.991"/>
<polygon fill="#000000" stroke="#000000" points="437.5001,-205.9909 441,-215.991 444.5001,-205.991 437.5001,-205.9909"/>
</g>
<!-- LoadingModule -->
<g id="node6" class="node">
<title>LoadingModule</title>
<polygon fill="#8dd3c7" stroke="#000000" points="246.2078,-122 243.2078,-126 222.2078,-126 219.2078,-122 139.7922,-122 139.7922,-86 246.2078,-86 246.2078,-122"/>
<text text-anchor="middle" x="193" y="-99.8" font-family="Times,serif" font-size="14.00" fill="#000000">LoadingModule</text>
</g>
<!-- LoadingModule&#45;&gt;HeaderModule -->
<g id="edge5" class="edge">
<title>LoadingModule&#45;&gt;HeaderModule</title>
<path fill="none" stroke="#000000" d="M193,-122.0225C193,-139.3734 193,-163 193,-163 193,-163 380.8135,-163 380.8135,-163"/>
<polygon fill="#000000" stroke="#000000" points="380.8135,-166.5001 390.8135,-163 380.8135,-159.5001 380.8135,-166.5001"/>
</g>
<!-- SharedModule -->
<g id="node7" class="node">
<title>SharedModule</title>
<polygon fill="#8dd3c7" stroke="#000000" points="122.4231,-122 119.4231,-126 98.4231,-126 95.4231,-122 23.5769,-122 23.5769,-86 122.4231,-86 122.4231,-122"/>
<text text-anchor="middle" x="73" y="-99.8" font-family="Times,serif" font-size="14.00" fill="#000000">SharedModule</text>
</g>
<!-- SharedModule&#45;&gt;HeaderModule -->
<g id="edge6" class="edge">
<title>SharedModule&#45;&gt;HeaderModule</title>
<path fill="none" stroke="#000000" d="M73,-122.2843C73,-143.3211 73,-175 73,-175 73,-175 380.9869,-175 380.9869,-175"/>
<polygon fill="#000000" stroke="#000000" points="380.9869,-178.5001 390.9869,-175 380.9869,-171.5001 380.9869,-178.5001"/>
</g>
</g>
</svg>
