<?xml version="1.0" encoding="UTF-8" standalone="no"?>
<!DOCTYPE svg PUBLIC "-//W3C//DTD SVG 1.1//EN"
 "http://www.w3.org/Graphics/SVG/1.1/DTD/svg11.dtd">
<!-- Generated by graphviz version 2.40.1 (20161225.0304)
 -->
<!-- Title: dependencies Pages: 1 -->
<svg width="1648pt" height="284pt"
 viewBox="0.00 0.00 1648.00 284.00" xmlns="http://www.w3.org/2000/svg" xmlns:xlink="http://www.w3.org/1999/xlink">
<g id="graph0" class="graph" transform="scale(1 1) rotate(0) translate(4 280)">
<title>dependencies</title>
<polygon fill="#ffffff" stroke="transparent" points="-4,4 -4,-280 1644,-280 1644,4 -4,4"/>
<text text-anchor="start" x="799.0091" y="-42.4" font-family="sans-serif" font-weight="bold" font-size="14.00" fill="#000000">Legend</text>
<polygon fill="#ffffb3" stroke="transparent" points="586,-10 586,-30 606,-30 606,-10 586,-10"/>
<text text-anchor="start" x="609.629" y="-15.4" font-family="sans-serif" font-size="14.00" fill="#000000"> &#160;Declarations</text>
<polygon fill="#8dd3c7" stroke="transparent" points="699,-10 699,-30 719,-30 719,-10 699,-10"/>
<text text-anchor="start" x="722.7251" y="-15.4" font-family="sans-serif" font-size="14.00" fill="#000000"> &#160;Module</text>
<polygon fill="#80b1d3" stroke="transparent" points="785,-10 785,-30 805,-30 805,-10 785,-10"/>
<text text-anchor="start" x="808.7812" y="-15.4" font-family="sans-serif" font-size="14.00" fill="#000000"> &#160;Bootstrap</text>
<polygon fill="#fdb462" stroke="transparent" points="882,-10 882,-30 902,-30 902,-10 882,-10"/>
<text text-anchor="start" x="905.6732" y="-15.4" font-family="sans-serif" font-size="14.00" fill="#000000"> &#160;Providers</text>
<polygon fill="#fb8072" stroke="transparent" points="978,-10 978,-30 998,-30 998,-10 978,-10"/>
<text text-anchor="start" x="1001.7258" y="-15.4" font-family="sans-serif" font-size="14.00" fill="#000000"> &#160;Exports</text>
<g id="clust1" class="cluster">
<title>cluster_AppModule</title>
<polygon fill="none" stroke="#000000" stroke-dasharray="1,5" points="8,-70 8,-268 1632,-268 1632,-70 8,-70"/>
</g>
<g id="clust2" class="cluster">
<title>cluster_AppModule_declarations</title>
<polygon fill="none" stroke="#000000" points="630,-78 630,-130 1624,-130 1624,-78 630,-78"/>
</g>
<g id="clust10" class="cluster">
<title>cluster_AppModule_imports</title>
<polygon fill="none" stroke="#000000" points="16,-78 16,-130 622,-130 622,-78 16,-78"/>
</g>
<g id="clust12" class="cluster">
<title>cluster_AppModule_bootstrap</title>
<polygon fill="none" stroke="#000000" points="703,-208 703,-260 827,-260 827,-208 703,-208"/>
</g>
<!-- AppComponent -->
<g id="node1" class="node">
<title>AppComponent</title>
<polygon fill="#ffffb3" stroke="#000000" points="1615.9399,-122 1510.0601,-122 1510.0601,-86 1615.9399,-86 1615.9399,-122"/>
<text text-anchor="middle" x="1563" y="-99.8" font-family="Times,serif" font-size="14.00" fill="#000000">AppComponent</text>
</g>
<!-- AppModule -->
<g id="node8" class="node">
<title>AppModule</title>
<polygon fill="#8dd3c7" stroke="#000000" points="806.6571,-187 803.6571,-191 782.6571,-191 779.6571,-187 723.3429,-187 723.3429,-151 806.6571,-151 806.6571,-187"/>
<text text-anchor="middle" x="765" y="-164.8" font-family="Times,serif" font-size="14.00" fill="#000000">AppModule</text>
</g>
<!-- AppComponent&#45;&gt;AppModule -->
<g id="edge1" class="edge">
<title>AppComponent&#45;&gt;AppModule</title>
<path fill="none" stroke="#000000" d="M1563,-122.2479C1563,-145.0179 1563,-181 1563,-181 1563,-181 816.7804,-181 816.7804,-181"/>
<polygon fill="#000000" stroke="#000000" points="816.7804,-177.5001 806.7804,-181 816.7804,-184.5001 816.7804,-177.5001"/>
</g>
<!-- AdminComponent -->
<g id="node2" class="node">
<title>AdminComponent</title>
<polygon fill="#ffffb3" stroke="#000000" points="1492.2204,-122 1371.7796,-122 1371.7796,-86 1492.2204,-86 1492.2204,-122"/>
<text text-anchor="middle" x="1432" y="-99.8" font-family="Times,serif" font-size="14.00" fill="#000000">AdminComponent</text>
</g>
<!-- AdminComponent&#45;&gt;AppModule -->
<g id="edge2" class="edge">
<title>AdminComponent&#45;&gt;AppModule</title>
<path fill="none" stroke="#000000" d="M1432,-122.2843C1432,-143.3211 1432,-175 1432,-175 1432,-175 816.7238,-175 816.7238,-175"/>
<polygon fill="#000000" stroke="#000000" points="816.7239,-171.5001 806.7238,-175 816.7238,-178.5001 816.7239,-171.5001"/>
</g>
<!-- FooterComponent -->
<g id="node3" class="node">
<title>FooterComponent</title>
<polygon fill="#ffffb3" stroke="#000000" points="1353.8809,-122 1236.1191,-122 1236.1191,-86 1353.8809,-86 1353.8809,-122"/>
<text text-anchor="middle" x="1295" y="-99.8" font-family="Times,serif" font-size="14.00" fill="#000000">FooterComponent</text>
</g>
<!-- FooterComponent&#45;&gt;AppModule -->
<g id="edge3" class="edge">
<title>FooterComponent&#45;&gt;AppModule</title>
<path fill="none" stroke="#000000" d="M1295,-122.1061C1295,-141.3391 1295,-169 1295,-169 1295,-169 817.0312,-169 817.0312,-169"/>
<polygon fill="#000000" stroke="#000000" points="817.0313,-165.5001 807.0312,-169 817.0312,-172.5001 817.0313,-165.5001"/>
</g>
<!-- CustomizerComponent -->
<g id="node4" class="node">
<title>CustomizerComponent</title>
<polygon fill="#ffffb3" stroke="#000000" points="1217.8753,-122 1072.1247,-122 1072.1247,-86 1217.8753,-86 1217.8753,-122"/>
<text text-anchor="middle" x="1145" y="-99.8" font-family="Times,serif" font-size="14.00" fill="#000000">CustomizerComponent</text>
</g>
<!-- CustomizerComponent&#45;&gt;AppModule -->
<g id="edge4" class="edge">
<title>CustomizerComponent&#45;&gt;AppModule</title>
<path fill="none" stroke="#000000" d="M1145,-122.0225C1145,-139.3734 1145,-163 1145,-163 1145,-163 816.7537,-163 816.7537,-163"/>
<polygon fill="#000000" stroke="#000000" points="816.7537,-159.5001 806.7537,-163 816.7536,-166.5001 816.7537,-159.5001"/>
</g>
<!-- DashboardComponent -->
<g id="node5" class="node">
<title>DashboardComponent</title>
<polygon fill="#ffffb3" stroke="#000000" points="1053.9734,-122 912.0266,-122 912.0266,-86 1053.9734,-86 1053.9734,-122"/>
<text text-anchor="middle" x="983" y="-99.8" font-family="Times,serif" font-size="14.00" fill="#000000">DashboardComponent</text>
</g>
<!-- DashboardComponent&#45;&gt;AppModule -->
<g id="edge5" class="edge">
<title>DashboardComponent&#45;&gt;AppModule</title>
<path fill="none" stroke="#000000" d="M983,-122.2396C983,-137.5706 983,-157 983,-157 983,-157 816.7747,-157 816.7747,-157"/>
<polygon fill="#000000" stroke="#000000" points="816.7747,-153.5001 806.7747,-157 816.7746,-160.5001 816.7747,-153.5001"/>
</g>
<!-- SignupComponent -->
<g id="node6" class="node">
<title>SignupComponent</title>
<polygon fill="#ffffb3" stroke="#000000" points="894.5056,-122 773.4944,-122 773.4944,-86 894.5056,-86 894.5056,-122"/>
<text text-anchor="middle" x="834" y="-99.8" font-family="Times,serif" font-size="14.00" fill="#000000">SignupComponent</text>
</g>
<!-- SignupComponent&#45;&gt;AppModule -->
<g id="edge6" class="edge">
<title>SignupComponent&#45;&gt;AppModule</title>
<path fill="none" stroke="#000000" d="M790.1627,-122.1061C790.1627,-122.1061 790.1627,-140.991 790.1627,-140.991"/>
<polygon fill="#000000" stroke="#000000" points="786.6628,-140.9909 790.1627,-150.991 793.6628,-140.991 786.6628,-140.9909"/>
</g>
<!-- SigninComponent -->
<g id="node7" class="node">
<title>SigninComponent</title>
<polygon fill="#ffffb3" stroke="#000000" points="755.8962,-122 638.1038,-122 638.1038,-86 755.8962,-86 755.8962,-122"/>
<text text-anchor="middle" x="697" y="-99.8" font-family="Times,serif" font-size="14.00" fill="#000000">SigninComponent</text>
</g>
<!-- SigninComponent&#45;&gt;AppModule -->
<g id="edge7" class="edge">
<title>SigninComponent&#45;&gt;AppModule</title>
<path fill="none" stroke="#000000" d="M739.56,-122.1061C739.56,-122.1061 739.56,-140.991 739.56,-140.991"/>
<polygon fill="#000000" stroke="#000000" points="736.06,-140.9909 739.56,-150.991 743.06,-140.991 736.06,-140.9909"/>
</g>
<!-- AppComponent  -->
<g id="node14" class="node">
<title>AppComponent </title>
<polygon fill="#80b1d3" stroke="#000000" points="819.439,-252 710.561,-252 710.561,-216 819.439,-216 819.439,-252"/>
<text text-anchor="middle" x="765" y="-229.8" font-family="Times,serif" font-size="14.00" fill="#000000">AppComponent </text>
</g>
<!-- AppModule&#45;&gt;AppComponent  -->
<g id="edge13" class="edge">
<title>AppModule&#45;&gt;AppComponent </title>
<path fill="none" stroke="#000000" stroke-dasharray="1,5" d="M765,-187.1061C765,-187.1061 765,-205.991 765,-205.991"/>
<polygon fill="#000000" stroke="#000000" points="761.5001,-205.9909 765,-215.991 768.5001,-205.991 761.5001,-205.9909"/>
</g>
<!-- SharedModule -->
<g id="node9" class="node">
<title>SharedModule</title>
<polygon fill="#8dd3c7" stroke="#000000" points="614.4231,-122 611.4231,-126 590.4231,-126 587.4231,-122 515.5769,-122 515.5769,-86 614.4231,-86 614.4231,-122"/>
<text text-anchor="middle" x="565" y="-99.8" font-family="Times,serif" font-size="14.00" fill="#000000">SharedModule</text>
</g>
<!-- SharedModule&#45;&gt;AppModule -->
<g id="edge8" class="edge">
<title>SharedModule&#45;&gt;AppModule</title>
<path fill="none" stroke="#000000" d="M565,-122.2396C565,-137.5706 565,-157 565,-157 565,-157 713.0734,-157 713.0734,-157"/>
<polygon fill="#000000" stroke="#000000" points="713.0735,-160.5001 723.0734,-157 713.0734,-153.5001 713.0735,-160.5001"/>
</g>
<!-- HeaderModule -->
<g id="node10" class="node">
<title>HeaderModule</title>
<polygon fill="#8dd3c7" stroke="#000000" points="497.9608,-122 494.9608,-126 473.9608,-126 470.9608,-122 398.0392,-122 398.0392,-86 497.9608,-86 497.9608,-122"/>
<text text-anchor="middle" x="448" y="-99.8" font-family="Times,serif" font-size="14.00" fill="#000000">HeaderModule</text>
</g>
<!-- HeaderModule&#45;&gt;AppModule -->
<g id="edge9" class="edge">
<title>HeaderModule&#45;&gt;AppModule</title>
<path fill="none" stroke="#000000" d="M448,-122.0225C448,-139.3734 448,-163 448,-163 448,-163 713.2318,-163 713.2318,-163"/>
<polygon fill="#000000" stroke="#000000" points="713.2318,-166.5001 723.2318,-163 713.2318,-159.5001 713.2318,-166.5001"/>
</g>
<!-- SidenavModule -->
<g id="node11" class="node">
<title>SidenavModule</title>
<polygon fill="#8dd3c7" stroke="#000000" points="380.1528,-122 377.1528,-126 356.1528,-126 353.1528,-122 275.8472,-122 275.8472,-86 380.1528,-86 380.1528,-122"/>
<text text-anchor="middle" x="328" y="-99.8" font-family="Times,serif" font-size="14.00" fill="#000000">SidenavModule</text>
</g>
<!-- SidenavModule&#45;&gt;AppModule -->
<g id="edge10" class="edge">
<title>SidenavModule&#45;&gt;AppModule</title>
<path fill="none" stroke="#000000" d="M328,-122.1061C328,-141.3391 328,-169 328,-169 328,-169 713.0986,-169 713.0986,-169"/>
<polygon fill="#000000" stroke="#000000" points="713.0986,-172.5001 723.0986,-169 713.0986,-165.5001 713.0986,-172.5001"/>
</g>
<!-- AppRoutingModule -->
<g id="node12" class="node">
<title>AppRoutingModule</title>
<polygon fill="#8dd3c7" stroke="#000000" points="257.2744,-122 254.2744,-126 233.2744,-126 230.2744,-122 128.7256,-122 128.7256,-86 257.2744,-86 257.2744,-122"/>
<text text-anchor="middle" x="193" y="-99.8" font-family="Times,serif" font-size="14.00" fill="#000000">AppRoutingModule</text>
</g>
<!-- AppRoutingModule&#45;&gt;AppModule -->
<g id="edge11" class="edge">
<title>AppRoutingModule&#45;&gt;AppModule</title>
<path fill="none" stroke="#000000" d="M193,-122.2843C193,-143.3211 193,-175 193,-175 193,-175 712.9395,-175 712.9395,-175"/>
<polygon fill="#000000" stroke="#000000" points="712.9395,-178.5001 722.9395,-175 712.9394,-171.5001 712.9395,-178.5001"/>
</g>
<!-- CoreModule -->
<g id="node13" class="node">
<title>CoreModule</title>
<polygon fill="#8dd3c7" stroke="#000000" points="110.2619,-122 107.2619,-126 86.2619,-126 83.2619,-122 23.7381,-122 23.7381,-86 110.2619,-86 110.2619,-122"/>
<text text-anchor="middle" x="67" y="-99.8" font-family="Times,serif" font-size="14.00" fill="#000000">CoreModule</text>
</g>
<!-- CoreModule&#45;&gt;AppModule -->
<g id="edge12" class="edge">
<title>CoreModule&#45;&gt;AppModule</title>
<path fill="none" stroke="#000000" d="M67,-122.2479C67,-145.0179 67,-181 67,-181 67,-181 713.1684,-181 713.1684,-181"/>
<polygon fill="#000000" stroke="#000000" points="713.1684,-184.5001 723.1684,-181 713.1684,-177.5001 713.1684,-184.5001"/>
</g>
</g>
</svg>
