<?xml version="1.0" encoding="UTF-8" standalone="no"?>
<!DOCTYPE svg PUBLIC "-//W3C//DTD SVG 1.1//EN"
 "http://www.w3.org/Graphics/SVG/1.1/DTD/svg11.dtd">
<!-- Generated by graphviz version 2.40.1 (20161225.0304)
 -->
<!-- Title: dependencies Pages: 1 -->
<svg width="1543pt" height="284pt"
 viewBox="0.00 0.00 1543.00 284.00" xmlns="http://www.w3.org/2000/svg" xmlns:xlink="http://www.w3.org/1999/xlink">
<g id="graph0" class="graph" transform="scale(1 1) rotate(0) translate(4 280)">
<title>dependencies</title>
<polygon fill="#ffffff" stroke="transparent" points="-4,4 -4,-280 1539,-280 1539,4 -4,4"/>
<text text-anchor="start" x="746.5091" y="-42.4" font-family="sans-serif" font-weight="bold" font-size="14.00" fill="#000000">Legend</text>
<polygon fill="#ffffb3" stroke="transparent" points="533.5,-10 533.5,-30 553.5,-30 553.5,-10 533.5,-10"/>
<text text-anchor="start" x="557.129" y="-15.4" font-family="sans-serif" font-size="14.00" fill="#000000"> &#160;Declarations</text>
<polygon fill="#8dd3c7" stroke="transparent" points="646.5,-10 646.5,-30 666.5,-30 666.5,-10 646.5,-10"/>
<text text-anchor="start" x="670.2251" y="-15.4" font-family="sans-serif" font-size="14.00" fill="#000000"> &#160;Module</text>
<polygon fill="#80b1d3" stroke="transparent" points="732.5,-10 732.5,-30 752.5,-30 752.5,-10 732.5,-10"/>
<text text-anchor="start" x="756.2812" y="-15.4" font-family="sans-serif" font-size="14.00" fill="#000000"> &#160;Bootstrap</text>
<polygon fill="#fdb462" stroke="transparent" points="829.5,-10 829.5,-30 849.5,-30 849.5,-10 829.5,-10"/>
<text text-anchor="start" x="853.1732" y="-15.4" font-family="sans-serif" font-size="14.00" fill="#000000"> &#160;Providers</text>
<polygon fill="#fb8072" stroke="transparent" points="925.5,-10 925.5,-30 945.5,-30 945.5,-10 925.5,-10"/>
<text text-anchor="start" x="949.2258" y="-15.4" font-family="sans-serif" font-size="14.00" fill="#000000"> &#160;Exports</text>
<g id="clust1" class="cluster">
<title>cluster_AppModule</title>
<polygon fill="none" stroke="#000000" stroke-dasharray="1,5" points="8,-70 8,-268 1527,-268 1527,-70 8,-70"/>
</g>
<g id="clust2" class="cluster">
<title>cluster_AppModule_declarations</title>
<polygon fill="none" stroke="#000000" points="525,-78 525,-130 1519,-130 1519,-78 525,-78"/>
</g>
<g id="clust10" class="cluster">
<title>cluster_AppModule_imports</title>
<polygon fill="none" stroke="#000000" points="16,-78 16,-130 517,-130 517,-78 16,-78"/>
</g>
<g id="clust12" class="cluster">
<title>cluster_AppModule_bootstrap</title>
<polygon fill="none" stroke="#000000" points="667,-208 667,-260 791,-260 791,-208 667,-208"/>
</g>
<!-- AppComponent -->
<g id="node1" class="node">
<title>AppComponent</title>
<polygon fill="#ffffb3" stroke="#000000" points="1510.9399,-122 1405.0601,-122 1405.0601,-86 1510.9399,-86 1510.9399,-122"/>
<text text-anchor="middle" x="1458" y="-99.8" font-family="Times,serif" font-size="14.00" fill="#000000">AppComponent</text>
</g>
<!-- AppModule -->
<g id="node8" class="node">
<title>AppModule</title>
<polygon fill="#8dd3c7" stroke="#000000" points="770.6571,-187 767.6571,-191 746.6571,-191 743.6571,-187 687.3429,-187 687.3429,-151 770.6571,-151 770.6571,-187"/>
<text text-anchor="middle" x="729" y="-164.8" font-family="Times,serif" font-size="14.00" fill="#000000">AppModule</text>
</g>
<!-- AppComponent&#45;&gt;AppModule -->
<g id="edge1" class="edge">
<title>AppComponent&#45;&gt;AppModule</title>
<path fill="none" stroke="#000000" d="M1458,-122.2479C1458,-145.0179 1458,-181 1458,-181 1458,-181 780.8125,-181 780.8125,-181"/>
<polygon fill="#000000" stroke="#000000" points="780.8126,-177.5001 770.8125,-181 780.8125,-184.5001 780.8126,-177.5001"/>
</g>
<!-- AdminComponent -->
<g id="node2" class="node">
<title>AdminComponent</title>
<polygon fill="#ffffb3" stroke="#000000" points="1387.2204,-122 1266.7796,-122 1266.7796,-86 1387.2204,-86 1387.2204,-122"/>
<text text-anchor="middle" x="1327" y="-99.8" font-family="Times,serif" font-size="14.00" fill="#000000">AdminComponent</text>
</g>
<!-- AdminComponent&#45;&gt;AppModule -->
<g id="edge2" class="edge">
<title>AdminComponent&#45;&gt;AppModule</title>
<path fill="none" stroke="#000000" d="M1327,-122.2843C1327,-143.3211 1327,-175 1327,-175 1327,-175 781.0502,-175 781.0502,-175"/>
<polygon fill="#000000" stroke="#000000" points="781.0502,-171.5001 771.0502,-175 781.0502,-178.5001 781.0502,-171.5001"/>
</g>
<!-- FooterComponent -->
<g id="node3" class="node">
<title>FooterComponent</title>
<polygon fill="#ffffb3" stroke="#000000" points="1248.8809,-122 1131.1191,-122 1131.1191,-86 1248.8809,-86 1248.8809,-122"/>
<text text-anchor="middle" x="1190" y="-99.8" font-family="Times,serif" font-size="14.00" fill="#000000">FooterComponent</text>
</g>
<!-- FooterComponent&#45;&gt;AppModule -->
<g id="edge3" class="edge">
<title>FooterComponent&#45;&gt;AppModule</title>
<path fill="none" stroke="#000000" d="M1190,-122.1061C1190,-141.3391 1190,-169 1190,-169 1190,-169 780.7237,-169 780.7237,-169"/>
<polygon fill="#000000" stroke="#000000" points="780.7238,-165.5001 770.7237,-169 780.7237,-172.5001 780.7238,-165.5001"/>
</g>
<!-- CustomizerComponent -->
<g id="node4" class="node">
<title>CustomizerComponent</title>
<polygon fill="#ffffb3" stroke="#000000" points="1112.8753,-122 967.1247,-122 967.1247,-86 1112.8753,-86 1112.8753,-122"/>
<text text-anchor="middle" x="1040" y="-99.8" font-family="Times,serif" font-size="14.00" fill="#000000">CustomizerComponent</text>
</g>
<!-- CustomizerComponent&#45;&gt;AppModule -->
<g id="edge4" class="edge">
<title>CustomizerComponent&#45;&gt;AppModule</title>
<path fill="none" stroke="#000000" d="M1040,-122.0225C1040,-139.3734 1040,-163 1040,-163 1040,-163 780.9428,-163 780.9428,-163"/>
<polygon fill="#000000" stroke="#000000" points="780.9429,-159.5001 770.9428,-163 780.9428,-166.5001 780.9429,-159.5001"/>
</g>
<!-- DashboardComponent -->
<g id="node5" class="node">
<title>DashboardComponent</title>
<polygon fill="#ffffb3" stroke="#000000" points="948.9734,-122 807.0266,-122 807.0266,-86 948.9734,-86 948.9734,-122"/>
<text text-anchor="middle" x="878" y="-99.8" font-family="Times,serif" font-size="14.00" fill="#000000">DashboardComponent</text>
</g>
<!-- DashboardComponent&#45;&gt;AppModule -->
<g id="edge5" class="edge">
<title>DashboardComponent&#45;&gt;AppModule</title>
<path fill="none" stroke="#000000" d="M878,-122.2396C878,-137.5706 878,-157 878,-157 878,-157 780.9013,-157 780.9013,-157"/>
<polygon fill="#000000" stroke="#000000" points="780.9014,-153.5001 770.9013,-157 780.9013,-160.5001 780.9014,-153.5001"/>
</g>
<!-- SignupComponent -->
<g id="node6" class="node">
<title>SignupComponent</title>
<polygon fill="#ffffb3" stroke="#000000" points="789.5056,-122 668.4944,-122 668.4944,-86 789.5056,-86 789.5056,-122"/>
<text text-anchor="middle" x="729" y="-99.8" font-family="Times,serif" font-size="14.00" fill="#000000">SignupComponent</text>
</g>
<!-- SignupComponent&#45;&gt;AppModule -->
<g id="edge6" class="edge">
<title>SignupComponent&#45;&gt;AppModule</title>
<path fill="none" stroke="#000000" d="M729,-122.1061C729,-122.1061 729,-140.991 729,-140.991"/>
<polygon fill="#000000" stroke="#000000" points="725.5001,-140.9909 729,-150.991 732.5001,-140.991 725.5001,-140.9909"/>
</g>
<!-- SigninComponent -->
<g id="node7" class="node">
<title>SigninComponent</title>
<polygon fill="#ffffb3" stroke="#000000" points="650.8962,-122 533.1038,-122 533.1038,-86 650.8962,-86 650.8962,-122"/>
<text text-anchor="middle" x="592" y="-99.8" font-family="Times,serif" font-size="14.00" fill="#000000">SigninComponent</text>
</g>
<!-- SigninComponent&#45;&gt;AppModule -->
<g id="edge7" class="edge">
<title>SigninComponent&#45;&gt;AppModule</title>
<path fill="none" stroke="#000000" d="M592,-122.2396C592,-137.5706 592,-157 592,-157 592,-157 677.1511,-157 677.1511,-157"/>
<polygon fill="#000000" stroke="#000000" points="677.1511,-160.5001 687.1511,-157 677.151,-153.5001 677.1511,-160.5001"/>
</g>
<!-- AppComponent  -->
<g id="node13" class="node">
<title>AppComponent </title>
<polygon fill="#80b1d3" stroke="#000000" points="783.439,-252 674.561,-252 674.561,-216 783.439,-216 783.439,-252"/>
<text text-anchor="middle" x="729" y="-229.8" font-family="Times,serif" font-size="14.00" fill="#000000">AppComponent </text>
</g>
<!-- AppModule&#45;&gt;AppComponent  -->
<g id="edge12" class="edge">
<title>AppModule&#45;&gt;AppComponent </title>
<path fill="none" stroke="#000000" stroke-dasharray="1,5" d="M729,-187.1061C729,-187.1061 729,-205.991 729,-205.991"/>
<polygon fill="#000000" stroke="#000000" points="725.5001,-205.9909 729,-215.991 732.5001,-205.991 725.5001,-205.9909"/>
</g>
<!-- SharedModule -->
<g id="node9" class="node">
<title>SharedModule</title>
<polygon fill="#8dd3c7" stroke="#000000" points="509.4231,-122 506.4231,-126 485.4231,-126 482.4231,-122 410.5769,-122 410.5769,-86 509.4231,-86 509.4231,-122"/>
<text text-anchor="middle" x="460" y="-99.8" font-family="Times,serif" font-size="14.00" fill="#000000">SharedModule</text>
</g>
<!-- SharedModule&#45;&gt;AppModule -->
<g id="edge8" class="edge">
<title>SharedModule&#45;&gt;AppModule</title>
<path fill="none" stroke="#000000" d="M460,-122.0225C460,-139.3734 460,-163 460,-163 460,-163 677.2639,-163 677.2639,-163"/>
<polygon fill="#000000" stroke="#000000" points="677.2639,-166.5001 687.2639,-163 677.2639,-159.5001 677.2639,-166.5001"/>
</g>
<!-- HeaderModule -->
<g id="node10" class="node">
<title>HeaderModule</title>
<polygon fill="#8dd3c7" stroke="#000000" points="392.9608,-122 389.9608,-126 368.9608,-126 365.9608,-122 293.0392,-122 293.0392,-86 392.9608,-86 392.9608,-122"/>
<text text-anchor="middle" x="343" y="-99.8" font-family="Times,serif" font-size="14.00" fill="#000000">HeaderModule</text>
</g>
<!-- HeaderModule&#45;&gt;AppModule -->
<g id="edge9" class="edge">
<title>HeaderModule&#45;&gt;AppModule</title>
<path fill="none" stroke="#000000" d="M343,-122.1061C343,-141.3391 343,-169 343,-169 343,-169 677.3245,-169 677.3245,-169"/>
<polygon fill="#000000" stroke="#000000" points="677.3245,-172.5001 687.3245,-169 677.3245,-165.5001 677.3245,-172.5001"/>
</g>
<!-- SidenavModule -->
<g id="node11" class="node">
<title>SidenavModule</title>
<polygon fill="#8dd3c7" stroke="#000000" points="275.1528,-122 272.1528,-126 251.1528,-126 248.1528,-122 170.8472,-122 170.8472,-86 275.1528,-86 275.1528,-122"/>
<text text-anchor="middle" x="223" y="-99.8" font-family="Times,serif" font-size="14.00" fill="#000000">SidenavModule</text>
</g>
<!-- SidenavModule&#45;&gt;AppModule -->
<g id="edge10" class="edge">
<title>SidenavModule&#45;&gt;AppModule</title>
<path fill="none" stroke="#000000" d="M223,-122.2843C223,-143.3211 223,-175 223,-175 223,-175 677.1614,-175 677.1614,-175"/>
<polygon fill="#000000" stroke="#000000" points="677.1614,-178.5001 687.1614,-175 677.1614,-171.5001 677.1614,-178.5001"/>
</g>
<!-- AppRoutingModule -->
<g id="node12" class="node">
<title>AppRoutingModule</title>
<polygon fill="#8dd3c7" stroke="#000000" points="152.2744,-122 149.2744,-126 128.2744,-126 125.2744,-122 23.7256,-122 23.7256,-86 152.2744,-86 152.2744,-122"/>
<text text-anchor="middle" x="88" y="-99.8" font-family="Times,serif" font-size="14.00" fill="#000000">AppRoutingModule</text>
</g>
<!-- AppRoutingModule&#45;&gt;AppModule -->
<g id="edge11" class="edge">
<title>AppRoutingModule&#45;&gt;AppModule</title>
<path fill="none" stroke="#000000" d="M88,-122.2479C88,-145.0179 88,-181 88,-181 88,-181 676.9422,-181 676.9422,-181"/>
<polygon fill="#000000" stroke="#000000" points="676.9422,-184.5001 686.9422,-181 676.9422,-177.5001 676.9422,-184.5001"/>
</g>
</g>
</svg>
