<?xml version="1.0" encoding="UTF-8" standalone="no"?>
<!DOCTYPE svg PUBLIC "-//W3C//DTD SVG 1.1//EN"
 "http://www.w3.org/Graphics/SVG/1.1/DTD/svg11.dtd">
<!-- Generated by graphviz version 2.40.1 (20161225.0304)
 -->
<!-- Title: dependencies Pages: 1 -->
<svg width="1160pt" height="284pt"
 viewBox="0.00 0.00 1160.00 284.00" xmlns="http://www.w3.org/2000/svg" xmlns:xlink="http://www.w3.org/1999/xlink">
<g id="graph0" class="graph" transform="scale(1 1) rotate(0) translate(4 280)">
<title>dependencies</title>
<polygon fill="#ffffff" stroke="transparent" points="-4,4 -4,-280 1156,-280 1156,4 -4,4"/>
<text text-anchor="start" x="555.0091" y="-42.4" font-family="sans-serif" font-weight="bold" font-size="14.00" fill="#000000">Legend</text>
<polygon fill="#ffffb3" stroke="transparent" points="342,-10 342,-30 362,-30 362,-10 342,-10"/>
<text text-anchor="start" x="365.629" y="-15.4" font-family="sans-serif" font-size="14.00" fill="#000000"> &#160;Declarations</text>
<polygon fill="#8dd3c7" stroke="transparent" points="455,-10 455,-30 475,-30 475,-10 455,-10"/>
<text text-anchor="start" x="478.7251" y="-15.4" font-family="sans-serif" font-size="14.00" fill="#000000"> &#160;Module</text>
<polygon fill="#80b1d3" stroke="transparent" points="541,-10 541,-30 561,-30 561,-10 541,-10"/>
<text text-anchor="start" x="564.7812" y="-15.4" font-family="sans-serif" font-size="14.00" fill="#000000"> &#160;Bootstrap</text>
<polygon fill="#fdb462" stroke="transparent" points="638,-10 638,-30 658,-30 658,-10 638,-10"/>
<text text-anchor="start" x="661.6732" y="-15.4" font-family="sans-serif" font-size="14.00" fill="#000000"> &#160;Providers</text>
<polygon fill="#fb8072" stroke="transparent" points="734,-10 734,-30 754,-30 754,-10 734,-10"/>
<text text-anchor="start" x="757.7258" y="-15.4" font-family="sans-serif" font-size="14.00" fill="#000000"> &#160;Exports</text>
<g id="clust1" class="cluster">
<title>cluster_AppModule</title>
<polygon fill="none" stroke="#000000" stroke-dasharray="1,5" points="8,-70 8,-268 1144,-268 1144,-70 8,-70"/>
</g>
<g id="clust2" class="cluster">
<title>cluster_AppModule_declarations</title>
<polygon fill="none" stroke="#000000" points="579,-78 579,-130 1136,-130 1136,-78 579,-78"/>
</g>
<g id="clust7" class="cluster">
<title>cluster_AppModule_imports</title>
<polygon fill="none" stroke="#000000" points="16,-78 16,-130 571,-130 571,-78 16,-78"/>
</g>
<g id="clust9" class="cluster">
<title>cluster_AppModule_bootstrap</title>
<polygon fill="none" stroke="#000000" points="452,-208 452,-260 576,-260 576,-208 452,-208"/>
</g>
<!-- AppComponent -->
<g id="node1" class="node">
<title>AppComponent</title>
<polygon fill="#ffffb3" stroke="#000000" points="1127.9399,-122 1022.0601,-122 1022.0601,-86 1127.9399,-86 1127.9399,-122"/>
<text text-anchor="middle" x="1075" y="-99.8" font-family="Times,serif" font-size="14.00" fill="#000000">AppComponent</text>
</g>
<!-- AppModule -->
<g id="node5" class="node">
<title>AppModule</title>
<polygon fill="#8dd3c7" stroke="#000000" points="555.6571,-187 552.6571,-191 531.6571,-191 528.6571,-187 472.3429,-187 472.3429,-151 555.6571,-151 555.6571,-187"/>
<text text-anchor="middle" x="514" y="-164.8" font-family="Times,serif" font-size="14.00" fill="#000000">AppModule</text>
</g>
<!-- AppComponent&#45;&gt;AppModule -->
<g id="edge1" class="edge">
<title>AppComponent&#45;&gt;AppModule</title>
<path fill="none" stroke="#000000" d="M1075,-122.0109C1075,-144.4852 1075,-180 1075,-180 1075,-180 565.7079,-180 565.7079,-180"/>
<polygon fill="#000000" stroke="#000000" points="565.7079,-176.5001 555.7079,-180 565.7078,-183.5001 565.7079,-176.5001"/>
</g>
<!-- DashboardComponent -->
<g id="node2" class="node">
<title>DashboardComponent</title>
<polygon fill="#ffffb3" stroke="#000000" points="1003.9734,-122 862.0266,-122 862.0266,-86 1003.9734,-86 1003.9734,-122"/>
<text text-anchor="middle" x="933" y="-99.8" font-family="Times,serif" font-size="14.00" fill="#000000">DashboardComponent</text>
</g>
<!-- DashboardComponent&#45;&gt;AppModule -->
<g id="edge2" class="edge">
<title>DashboardComponent&#45;&gt;AppModule</title>
<path fill="none" stroke="#000000" d="M933,-122.1289C933,-142.5724 933,-173 933,-173 933,-173 565.7072,-173 565.7072,-173"/>
<polygon fill="#000000" stroke="#000000" points="565.7072,-169.5001 555.7072,-173 565.7071,-176.5001 565.7072,-169.5001"/>
</g>
<!-- SigninComponent -->
<g id="node3" class="node">
<title>SigninComponent</title>
<polygon fill="#ffffb3" stroke="#000000" points="843.8962,-122 726.1038,-122 726.1038,-86 843.8962,-86 843.8962,-122"/>
<text text-anchor="middle" x="785" y="-99.8" font-family="Times,serif" font-size="14.00" fill="#000000">SigninComponent</text>
</g>
<!-- SigninComponent&#45;&gt;AppModule -->
<g id="edge3" class="edge">
<title>SigninComponent&#45;&gt;AppModule</title>
<path fill="none" stroke="#000000" d="M785,-122.2667C785,-140.5552 785,-166 785,-166 785,-166 565.7498,-166 565.7498,-166"/>
<polygon fill="#000000" stroke="#000000" points="565.7499,-162.5001 555.7498,-166 565.7498,-169.5001 565.7499,-162.5001"/>
</g>
<!-- SignupComponent -->
<g id="node4" class="node">
<title>SignupComponent</title>
<polygon fill="#ffffb3" stroke="#000000" points="708.5056,-122 587.4944,-122 587.4944,-86 708.5056,-86 708.5056,-122"/>
<text text-anchor="middle" x="648" y="-99.8" font-family="Times,serif" font-size="14.00" fill="#000000">SignupComponent</text>
</g>
<!-- SignupComponent&#45;&gt;AppModule -->
<g id="edge4" class="edge">
<title>SignupComponent&#45;&gt;AppModule</title>
<path fill="none" stroke="#000000" d="M648,-122.0091C648,-138.0494 648,-159 648,-159 648,-159 565.6639,-159 565.6639,-159"/>
<polygon fill="#000000" stroke="#000000" points="565.6639,-155.5001 555.6639,-159 565.6639,-162.5001 565.6639,-155.5001"/>
</g>
<!-- AppComponent  -->
<g id="node11" class="node">
<title>AppComponent </title>
<polygon fill="#80b1d3" stroke="#000000" points="568.439,-252 459.561,-252 459.561,-216 568.439,-216 568.439,-252"/>
<text text-anchor="middle" x="514" y="-229.8" font-family="Times,serif" font-size="14.00" fill="#000000">AppComponent </text>
</g>
<!-- AppModule&#45;&gt;AppComponent  -->
<g id="edge10" class="edge">
<title>AppModule&#45;&gt;AppComponent </title>
<path fill="none" stroke="#000000" stroke-dasharray="1,5" d="M514,-187.1061C514,-187.1061 514,-205.991 514,-205.991"/>
<polygon fill="#000000" stroke="#000000" points="510.5001,-205.9909 514,-215.991 517.5001,-205.991 510.5001,-205.9909"/>
</g>
<!-- AdminModule -->
<g id="node6" class="node">
<title>AdminModule</title>
<polygon fill="#8dd3c7" stroke="#000000" points="563.4386,-122 560.4386,-126 539.4386,-126 536.4386,-122 464.5614,-122 464.5614,-86 563.4386,-86 563.4386,-122"/>
<text text-anchor="middle" x="514" y="-99.8" font-family="Times,serif" font-size="14.00" fill="#000000">AdminModule</text>
</g>
<!-- AdminModule&#45;&gt;AppModule -->
<g id="edge5" class="edge">
<title>AdminModule&#45;&gt;AppModule</title>
<path fill="none" stroke="#000000" d="M514,-122.1061C514,-122.1061 514,-140.991 514,-140.991"/>
<polygon fill="#000000" stroke="#000000" points="510.5001,-140.9909 514,-150.991 517.5001,-140.991 510.5001,-140.9909"/>
</g>
<!-- AppRoutingModule -->
<g id="node7" class="node">
<title>AppRoutingModule</title>
<polygon fill="#8dd3c7" stroke="#000000" points="446.2744,-122 443.2744,-126 422.2744,-126 419.2744,-122 317.7256,-122 317.7256,-86 446.2744,-86 446.2744,-122"/>
<text text-anchor="middle" x="382" y="-99.8" font-family="Times,serif" font-size="14.00" fill="#000000">AppRoutingModule</text>
</g>
<!-- AppRoutingModule&#45;&gt;AppModule -->
<g id="edge6" class="edge">
<title>AppRoutingModule&#45;&gt;AppModule</title>
<path fill="none" stroke="#000000" d="M382,-122.0091C382,-138.0494 382,-159 382,-159 382,-159 462.2344,-159 462.2344,-159"/>
<polygon fill="#000000" stroke="#000000" points="462.2344,-162.5001 472.2344,-159 462.2343,-155.5001 462.2344,-162.5001"/>
</g>
<!-- CoreModule -->
<g id="node8" class="node">
<title>CoreModule</title>
<polygon fill="#8dd3c7" stroke="#000000" points="299.2619,-122 296.2619,-126 275.2619,-126 272.2619,-122 212.7381,-122 212.7381,-86 299.2619,-86 299.2619,-122"/>
<text text-anchor="middle" x="256" y="-99.8" font-family="Times,serif" font-size="14.00" fill="#000000">CoreModule</text>
</g>
<!-- CoreModule&#45;&gt;AppModule -->
<g id="edge7" class="edge">
<title>CoreModule&#45;&gt;AppModule</title>
<path fill="none" stroke="#000000" d="M256,-122.2667C256,-140.5552 256,-166 256,-166 256,-166 462.2611,-166 462.2611,-166"/>
<polygon fill="#000000" stroke="#000000" points="462.2611,-169.5001 472.2611,-166 462.2611,-162.5001 462.2611,-169.5001"/>
</g>
<!-- SharedModule -->
<g id="node9" class="node">
<title>SharedModule</title>
<polygon fill="#8dd3c7" stroke="#000000" points="194.4231,-122 191.4231,-126 170.4231,-126 167.4231,-122 95.5769,-122 95.5769,-86 194.4231,-86 194.4231,-122"/>
<text text-anchor="middle" x="145" y="-99.8" font-family="Times,serif" font-size="14.00" fill="#000000">SharedModule</text>
</g>
<!-- SharedModule&#45;&gt;AppModule -->
<g id="edge8" class="edge">
<title>SharedModule&#45;&gt;AppModule</title>
<path fill="none" stroke="#000000" d="M145,-122.1289C145,-142.5724 145,-173 145,-173 145,-173 462.0303,-173 462.0303,-173"/>
<polygon fill="#000000" stroke="#000000" points="462.0303,-176.5001 472.0303,-173 462.0302,-169.5001 462.0303,-176.5001"/>
</g>
<!-- [] ?  -->
<g id="node10" class="node">
<title>[] ? </title>
<polygon fill="#8dd3c7" stroke="#000000" points="78,-122 75,-126 54,-126 51,-122 24,-122 24,-86 78,-86 78,-122"/>
<text text-anchor="middle" x="51" y="-99.8" font-family="Times,serif" font-size="14.00" fill="#000000">[] ? </text>
</g>
<!-- [] ? &#45;&gt;AppModule -->
<g id="edge9" class="edge">
<title>[] ? &#45;&gt;AppModule</title>
<path fill="none" stroke="#000000" d="M51,-122.0109C51,-144.4852 51,-180 51,-180 51,-180 462.0952,-180 462.0952,-180"/>
<polygon fill="#000000" stroke="#000000" points="462.0953,-183.5001 472.0952,-180 462.0952,-176.5001 462.0953,-183.5001"/>
</g>
</g>
</svg>
