<?xml version="1.0" encoding="UTF-8" standalone="no"?>
<!DOCTYPE svg PUBLIC "-//W3C//DTD SVG 1.1//EN"
 "http://www.w3.org/Graphics/SVG/1.1/DTD/svg11.dtd">
<!-- Generated by graphviz version 2.40.1 (20161225.0304)
 -->
<!-- Title: dependencies Pages: 1 -->
<svg width="632pt" height="284pt"
 viewBox="0.00 0.00 632.00 284.00" xmlns="http://www.w3.org/2000/svg" xmlns:xlink="http://www.w3.org/1999/xlink">
<g id="graph0" class="graph" transform="scale(1 1) rotate(0) translate(4 280)">
<title>dependencies</title>
<polygon fill="#ffffff" stroke="transparent" points="-4,4 -4,-280 628,-280 628,4 -4,4"/>
<text text-anchor="start" x="291.0091" y="-42.4" font-family="sans-serif" font-weight="bold" font-size="14.00" fill="#000000">Legend</text>
<polygon fill="#ffffb3" stroke="transparent" points="78,-10 78,-30 98,-30 98,-10 78,-10"/>
<text text-anchor="start" x="101.629" y="-15.4" font-family="sans-serif" font-size="14.00" fill="#000000"> &#160;Declarations</text>
<polygon fill="#8dd3c7" stroke="transparent" points="191,-10 191,-30 211,-30 211,-10 191,-10"/>
<text text-anchor="start" x="214.7251" y="-15.4" font-family="sans-serif" font-size="14.00" fill="#000000"> &#160;Module</text>
<polygon fill="#80b1d3" stroke="transparent" points="277,-10 277,-30 297,-30 297,-10 277,-10"/>
<text text-anchor="start" x="300.7812" y="-15.4" font-family="sans-serif" font-size="14.00" fill="#000000"> &#160;Bootstrap</text>
<polygon fill="#fdb462" stroke="transparent" points="374,-10 374,-30 394,-30 394,-10 374,-10"/>
<text text-anchor="start" x="397.6732" y="-15.4" font-family="sans-serif" font-size="14.00" fill="#000000"> &#160;Providers</text>
<polygon fill="#fb8072" stroke="transparent" points="470,-10 470,-30 490,-30 490,-10 470,-10"/>
<text text-anchor="start" x="493.7258" y="-15.4" font-family="sans-serif" font-size="14.00" fill="#000000"> &#160;Exports</text>
<g id="clust1" class="cluster">
<title>cluster_BaseLayoutModule</title>
<polygon fill="none" stroke="#000000" stroke-dasharray="1,5" points="8,-70 8,-268 616,-268 616,-70 8,-70"/>
</g>
<g id="clust2" class="cluster">
<title>cluster_BaseLayoutModule_declarations</title>
<polygon fill="none" stroke="#000000" points="21,-78 21,-130 602,-130 602,-78 21,-78"/>
</g>
<g id="clust7" class="cluster">
<title>cluster_BaseLayoutModule_exports</title>
<polygon fill="none" stroke="#000000" points="16,-208 16,-260 608,-260 608,-208 16,-208"/>
</g>
<!-- BaseLayoutComponent -->
<g id="node1" class="node">
<title>BaseLayoutComponent</title>
<polygon fill="#ffffb3" stroke="#000000" points="594.2007,-122 445.7993,-122 445.7993,-86 594.2007,-86 594.2007,-122"/>
<text text-anchor="middle" x="520" y="-99.8" font-family="Times,serif" font-size="14.00" fill="#000000">BaseLayoutComponent</text>
</g>
<!-- BaseLayoutModule -->
<g id="node4" class="node">
<title>BaseLayoutModule</title>
<polygon fill="#8dd3c7" stroke="#000000" points="395.4187,-187 392.4187,-191 371.4187,-191 368.4187,-187 268.5813,-187 268.5813,-151 395.4187,-151 395.4187,-187"/>
<text text-anchor="middle" x="332" y="-164.8" font-family="Times,serif" font-size="14.00" fill="#000000">BaseLayoutModule</text>
</g>
<!-- BaseLayoutComponent&#45;&gt;BaseLayoutModule -->
<g id="edge1" class="edge">
<title>BaseLayoutComponent&#45;&gt;BaseLayoutModule</title>
<path fill="none" stroke="#000000" d="M545.4501,-122.0225C545.4501,-139.3734 545.4501,-163 545.4501,-163 545.4501,-163 405.4642,-163 405.4642,-163"/>
<polygon fill="#000000" stroke="#000000" points="405.4642,-159.5001 395.4642,-163 405.4641,-166.5001 405.4642,-159.5001"/>
</g>
<!-- BaseLayoutContentComponent -->
<g id="node2" class="node">
<title>BaseLayoutContentComponent</title>
<polygon fill="#ffffb3" stroke="#000000" points="428.0336,-122 235.9664,-122 235.9664,-86 428.0336,-86 428.0336,-122"/>
<text text-anchor="middle" x="332" y="-99.8" font-family="Times,serif" font-size="14.00" fill="#000000">BaseLayoutContentComponent</text>
</g>
<!-- BaseLayoutContentComponent&#45;&gt;BaseLayoutModule -->
<g id="edge2" class="edge">
<title>BaseLayoutContentComponent&#45;&gt;BaseLayoutModule</title>
<path fill="none" stroke="#000000" d="M332,-122.1061C332,-122.1061 332,-140.991 332,-140.991"/>
<polygon fill="#000000" stroke="#000000" points="328.5001,-140.9909 332,-150.991 335.5001,-140.991 328.5001,-140.9909"/>
</g>
<!-- BaseLayoutHeaderComponent -->
<g id="node3" class="node">
<title>BaseLayoutHeaderComponent</title>
<polygon fill="#ffffb3" stroke="#000000" points="217.112,-122 28.888,-122 28.888,-86 217.112,-86 217.112,-122"/>
<text text-anchor="middle" x="123" y="-99.8" font-family="Times,serif" font-size="14.00" fill="#000000">BaseLayoutHeaderComponent</text>
</g>
<!-- BaseLayoutHeaderComponent&#45;&gt;BaseLayoutModule -->
<g id="edge3" class="edge">
<title>BaseLayoutHeaderComponent&#45;&gt;BaseLayoutModule</title>
<path fill="none" stroke="#000000" d="M153.6019,-122.0225C153.6019,-139.3734 153.6019,-163 153.6019,-163 153.6019,-163 258.6012,-163 258.6012,-163"/>
<polygon fill="#000000" stroke="#000000" points="258.6012,-166.5001 268.6012,-163 258.6012,-159.5001 258.6012,-166.5001"/>
</g>
<!-- BaseLayoutComponent  -->
<g id="node5" class="node">
<title>BaseLayoutComponent </title>
<polygon fill="#fb8072" stroke="#000000" points="599.7009,-252 448.2991,-252 448.2991,-216 599.7009,-216 599.7009,-252"/>
<text text-anchor="middle" x="524" y="-229.8" font-family="Times,serif" font-size="14.00" fill="#000000">BaseLayoutComponent </text>
</g>
<!-- BaseLayoutModule&#45;&gt;BaseLayoutComponent  -->
<g id="edge4" class="edge">
<title>BaseLayoutModule&#45;&gt;BaseLayoutComponent </title>
<path fill="none" stroke="#000000" stroke-dasharray="5,2" d="M395.2446,-175C441.7191,-175 496.7999,-175 496.7999,-175 496.7999,-175 496.7999,-205.9775 496.7999,-205.9775"/>
<polygon fill="#000000" stroke="#000000" points="493.3,-205.9774 496.7999,-215.9775 500.3,-205.9775 493.3,-205.9774"/>
</g>
<!-- BaseLayoutContentComponent  -->
<g id="node6" class="node">
<title>BaseLayoutContentComponent </title>
<polygon fill="#fb8072" stroke="#000000" points="430.033,-252 233.967,-252 233.967,-216 430.033,-216 430.033,-252"/>
<text text-anchor="middle" x="332" y="-229.8" font-family="Times,serif" font-size="14.00" fill="#000000">BaseLayoutContentComponent </text>
</g>
<!-- BaseLayoutModule&#45;&gt;BaseLayoutContentComponent  -->
<g id="edge5" class="edge">
<title>BaseLayoutModule&#45;&gt;BaseLayoutContentComponent </title>
<path fill="none" stroke="#000000" stroke-dasharray="5,2" d="M332,-187.1061C332,-187.1061 332,-205.991 332,-205.991"/>
<polygon fill="#000000" stroke="#000000" points="328.5001,-205.9909 332,-215.991 335.5001,-205.991 328.5001,-205.9909"/>
</g>
<!-- BaseLayoutHeaderComponent  -->
<g id="node7" class="node">
<title>BaseLayoutHeaderComponent </title>
<polygon fill="#fb8072" stroke="#000000" points="216.1116,-252 23.8884,-252 23.8884,-216 216.1116,-216 216.1116,-252"/>
<text text-anchor="middle" x="120" y="-229.8" font-family="Times,serif" font-size="14.00" fill="#000000">BaseLayoutHeaderComponent </text>
</g>
<!-- BaseLayoutModule&#45;&gt;BaseLayoutHeaderComponent  -->
<g id="edge6" class="edge">
<title>BaseLayoutModule&#45;&gt;BaseLayoutHeaderComponent </title>
<path fill="none" stroke="#000000" stroke-dasharray="5,2" d="M268.719,-175C197.3587,-175 91.1481,-175 91.1481,-175 91.1481,-175 91.1481,-205.9775 91.1481,-205.9775"/>
<polygon fill="#000000" stroke="#000000" points="87.648,-205.9775 91.1481,-215.9775 94.648,-205.9774 87.648,-205.9775"/>
</g>
</g>
</svg>
