<?xml version="1.0" encoding="UTF-8" standalone="no"?>
<!DOCTYPE svg PUBLIC "-//W3C//DTD SVG 1.1//EN"
 "http://www.w3.org/Graphics/SVG/1.1/DTD/svg11.dtd">
<!-- Generated by graphviz version 2.40.1 (20161225.0304)
 -->
<!-- Title: dependencies Pages: 1 -->
<svg width="1420pt" height="211pt"
 viewBox="0.00 0.00 1420.00 211.00" xmlns="http://www.w3.org/2000/svg" xmlns:xlink="http://www.w3.org/1999/xlink">
<g id="graph0" class="graph" transform="scale(1 1) rotate(0) translate(4 207)">
<title>dependencies</title>
<polygon fill="#ffffff" stroke="transparent" points="-4,4 -4,-207 1416,-207 1416,4 -4,4"/>
<text text-anchor="start" x="685.0091" y="-42.4" font-family="sans-serif" font-weight="bold" font-size="14.00" fill="#000000">Legend</text>
<polygon fill="#ffffb3" stroke="transparent" points="472,-10 472,-30 492,-30 492,-10 472,-10"/>
<text text-anchor="start" x="495.629" y="-15.4" font-family="sans-serif" font-size="14.00" fill="#000000"> &#160;Declarations</text>
<polygon fill="#8dd3c7" stroke="transparent" points="585,-10 585,-30 605,-30 605,-10 585,-10"/>
<text text-anchor="start" x="608.7251" y="-15.4" font-family="sans-serif" font-size="14.00" fill="#000000"> &#160;Module</text>
<polygon fill="#80b1d3" stroke="transparent" points="671,-10 671,-30 691,-30 691,-10 671,-10"/>
<text text-anchor="start" x="694.7812" y="-15.4" font-family="sans-serif" font-size="14.00" fill="#000000"> &#160;Bootstrap</text>
<polygon fill="#fdb462" stroke="transparent" points="768,-10 768,-30 788,-30 788,-10 768,-10"/>
<text text-anchor="start" x="791.6732" y="-15.4" font-family="sans-serif" font-size="14.00" fill="#000000"> &#160;Providers</text>
<polygon fill="#fb8072" stroke="transparent" points="864,-10 864,-30 884,-30 884,-10 864,-10"/>
<text text-anchor="start" x="887.7258" y="-15.4" font-family="sans-serif" font-size="14.00" fill="#000000"> &#160;Exports</text>
<g id="clust1" class="cluster">
<title>cluster_PagesModule</title>
<polygon fill="none" stroke="#000000" stroke-dasharray="1,5" points="8,-70 8,-195 1404,-195 1404,-70 8,-70"/>
</g>
<g id="clust2" class="cluster">
<title>cluster_PagesModule_declarations</title>
<polygon fill="none" stroke="#000000" points="294,-78 294,-130 1396,-130 1396,-78 294,-78"/>
</g>
<g id="clust11" class="cluster">
<title>cluster_PagesModule_imports</title>
<polygon fill="none" stroke="#000000" points="16,-78 16,-130 286,-130 286,-78 16,-78"/>
</g>
<!-- PagesComponent -->
<g id="node1" class="node">
<title>PagesComponent</title>
<polygon fill="#ffffb3" stroke="#000000" points="1387.9888,-122 1274.0112,-122 1274.0112,-86 1387.9888,-86 1387.9888,-122"/>
<text text-anchor="middle" x="1331" y="-99.8" font-family="Times,serif" font-size="14.00" fill="#000000">PagesComponent</text>
</g>
<!-- PagesModule -->
<g id="node9" class="node">
<title>PagesModule</title>
<polygon fill="#8dd3c7" stroke="#000000" points="737.2064,-187 734.2064,-191 713.2064,-191 710.2064,-187 644.7936,-187 644.7936,-151 737.2064,-151 737.2064,-187"/>
<text text-anchor="middle" x="691" y="-164.8" font-family="Times,serif" font-size="14.00" fill="#000000">PagesModule</text>
</g>
<!-- PagesComponent&#45;&gt;PagesModule -->
<g id="edge1" class="edge">
<title>PagesComponent&#45;&gt;PagesModule</title>
<path fill="none" stroke="#000000" d="M1331,-122.0109C1331,-144.4852 1331,-180 1331,-180 1331,-180 747.2847,-180 747.2847,-180"/>
<polygon fill="#000000" stroke="#000000" points="747.2847,-176.5001 737.2847,-180 747.2846,-183.5001 747.2847,-176.5001"/>
</g>
<!-- AboutComponent -->
<g id="node2" class="node">
<title>AboutComponent</title>
<polygon fill="#ffffb3" stroke="#000000" points="1256.3301,-122 1139.6699,-122 1139.6699,-86 1256.3301,-86 1256.3301,-122"/>
<text text-anchor="middle" x="1198" y="-99.8" font-family="Times,serif" font-size="14.00" fill="#000000">AboutComponent</text>
</g>
<!-- AboutComponent&#45;&gt;PagesModule -->
<g id="edge2" class="edge">
<title>AboutComponent&#45;&gt;PagesModule</title>
<path fill="none" stroke="#000000" d="M1198,-122.1289C1198,-142.5724 1198,-173 1198,-173 1198,-173 747.3369,-173 747.3369,-173"/>
<polygon fill="#000000" stroke="#000000" points="747.3369,-169.5001 737.3369,-173 747.3369,-176.5001 747.3369,-169.5001"/>
</g>
<!-- ContactComponent -->
<g id="node3" class="node">
<title>ContactComponent</title>
<polygon fill="#ffffb3" stroke="#000000" points="1121.3795,-122 996.6205,-122 996.6205,-86 1121.3795,-86 1121.3795,-122"/>
<text text-anchor="middle" x="1059" y="-99.8" font-family="Times,serif" font-size="14.00" fill="#000000">ContactComponent</text>
</g>
<!-- ContactComponent&#45;&gt;PagesModule -->
<g id="edge3" class="edge">
<title>ContactComponent&#45;&gt;PagesModule</title>
<path fill="none" stroke="#000000" d="M1059,-122.2667C1059,-140.5552 1059,-166 1059,-166 1059,-166 747.2348,-166 747.2348,-166"/>
<polygon fill="#000000" stroke="#000000" points="747.2349,-162.5001 737.2348,-166 747.2348,-169.5001 747.2349,-162.5001"/>
</g>
<!-- ServicesComponent -->
<g id="node4" class="node">
<title>ServicesComponent</title>
<polygon fill="#ffffb3" stroke="#000000" points="978.2548,-122 849.7452,-122 849.7452,-86 978.2548,-86 978.2548,-122"/>
<text text-anchor="middle" x="914" y="-99.8" font-family="Times,serif" font-size="14.00" fill="#000000">ServicesComponent</text>
</g>
<!-- ServicesComponent&#45;&gt;PagesModule -->
<g id="edge4" class="edge">
<title>ServicesComponent&#45;&gt;PagesModule</title>
<path fill="none" stroke="#000000" d="M914,-122.0091C914,-138.0494 914,-159 914,-159 914,-159 747.2057,-159 747.2057,-159"/>
<polygon fill="#000000" stroke="#000000" points="747.2058,-155.5001 737.2057,-159 747.2057,-162.5001 747.2058,-155.5001"/>
</g>
<!-- CollectionComponent -->
<g id="node5" class="node">
<title>CollectionComponent</title>
<polygon fill="#ffffb3" stroke="#000000" points="831.661,-122 692.339,-122 692.339,-86 831.661,-86 831.661,-122"/>
<text text-anchor="middle" x="762" y="-99.8" font-family="Times,serif" font-size="14.00" fill="#000000">CollectionComponent</text>
</g>
<!-- CollectionComponent&#45;&gt;PagesModule -->
<g id="edge5" class="edge">
<title>CollectionComponent&#45;&gt;PagesModule</title>
<path fill="none" stroke="#000000" d="M714.6364,-122.1061C714.6364,-122.1061 714.6364,-140.991 714.6364,-140.991"/>
<polygon fill="#000000" stroke="#000000" points="711.1365,-140.9909 714.6364,-150.991 718.1365,-140.991 711.1365,-140.9909"/>
</g>
<!-- BlogComponent -->
<g id="node6" class="node">
<title>BlogComponent</title>
<polygon fill="#ffffb3" stroke="#000000" points="674.0605,-122 565.9395,-122 565.9395,-86 674.0605,-86 674.0605,-122"/>
<text text-anchor="middle" x="620" y="-99.8" font-family="Times,serif" font-size="14.00" fill="#000000">BlogComponent</text>
</g>
<!-- BlogComponent&#45;&gt;PagesModule -->
<g id="edge6" class="edge">
<title>BlogComponent&#45;&gt;PagesModule</title>
<path fill="none" stroke="#000000" d="M659.5884,-122.1061C659.5884,-122.1061 659.5884,-140.991 659.5884,-140.991"/>
<polygon fill="#000000" stroke="#000000" points="656.0884,-140.9909 659.5884,-150.991 663.0884,-140.991 656.0884,-140.9909"/>
</g>
<!-- ProfileComponent -->
<g id="node7" class="node">
<title>ProfileComponent</title>
<polygon fill="#ffffb3" stroke="#000000" points="547.9328,-122 428.0672,-122 428.0672,-86 547.9328,-86 547.9328,-122"/>
<text text-anchor="middle" x="488" y="-99.8" font-family="Times,serif" font-size="14.00" fill="#000000">ProfileComponent</text>
</g>
<!-- ProfileComponent&#45;&gt;PagesModule -->
<g id="edge7" class="edge">
<title>ProfileComponent&#45;&gt;PagesModule</title>
<path fill="none" stroke="#000000" d="M488,-122.0091C488,-138.0494 488,-159 488,-159 488,-159 634.6821,-159 634.6821,-159"/>
<polygon fill="#000000" stroke="#000000" points="634.6822,-162.5001 644.6821,-159 634.6821,-155.5001 634.6822,-162.5001"/>
</g>
<!-- UserComponent -->
<g id="node8" class="node">
<title>UserComponent</title>
<polygon fill="#ffffb3" stroke="#000000" points="409.7591,-122 302.2409,-122 302.2409,-86 409.7591,-86 409.7591,-122"/>
<text text-anchor="middle" x="356" y="-99.8" font-family="Times,serif" font-size="14.00" fill="#000000">UserComponent</text>
</g>
<!-- UserComponent&#45;&gt;PagesModule -->
<g id="edge8" class="edge">
<title>UserComponent&#45;&gt;PagesModule</title>
<path fill="none" stroke="#000000" d="M356,-122.2667C356,-140.5552 356,-166 356,-166 356,-166 634.7714,-166 634.7714,-166"/>
<polygon fill="#000000" stroke="#000000" points="634.7714,-169.5001 644.7714,-166 634.7714,-162.5001 634.7714,-169.5001"/>
</g>
<!-- SharedModule -->
<g id="node10" class="node">
<title>SharedModule</title>
<polygon fill="#8dd3c7" stroke="#000000" points="278.4231,-122 275.4231,-126 254.4231,-126 251.4231,-122 179.5769,-122 179.5769,-86 278.4231,-86 278.4231,-122"/>
<text text-anchor="middle" x="229" y="-99.8" font-family="Times,serif" font-size="14.00" fill="#000000">SharedModule</text>
</g>
<!-- SharedModule&#45;&gt;PagesModule -->
<g id="edge9" class="edge">
<title>SharedModule&#45;&gt;PagesModule</title>
<path fill="none" stroke="#000000" d="M229,-122.1289C229,-142.5724 229,-173 229,-173 229,-173 634.5864,-173 634.5864,-173"/>
<polygon fill="#000000" stroke="#000000" points="634.5864,-176.5001 644.5864,-173 634.5863,-169.5001 634.5864,-176.5001"/>
</g>
<!-- PagesRoutingModule -->
<g id="node11" class="node">
<title>PagesRoutingModule</title>
<polygon fill="#8dd3c7" stroke="#000000" points="161.8244,-122 158.8244,-126 137.8244,-126 134.8244,-122 24.1756,-122 24.1756,-86 161.8244,-86 161.8244,-122"/>
<text text-anchor="middle" x="93" y="-99.8" font-family="Times,serif" font-size="14.00" fill="#000000">PagesRoutingModule</text>
</g>
<!-- PagesRoutingModule&#45;&gt;PagesModule -->
<g id="edge10" class="edge">
<title>PagesRoutingModule&#45;&gt;PagesModule</title>
<path fill="none" stroke="#000000" d="M93,-122.0109C93,-144.4852 93,-180 93,-180 93,-180 634.5735,-180 634.5735,-180"/>
<polygon fill="#000000" stroke="#000000" points="634.5736,-183.5001 644.5735,-180 634.5735,-176.5001 634.5736,-183.5001"/>
</g>
</g>
</svg>
