<?xml version="1.0" encoding="UTF-8" standalone="no"?>
<!DOCTYPE svg PUBLIC "-//W3C//DTD SVG 1.1//EN"
 "http://www.w3.org/Graphics/SVG/1.1/DTD/svg11.dtd">
<!-- Generated by graphviz version 2.40.1 (20161225.0304)
 -->
<!-- Title: dependencies Pages: 1 -->
<svg width="1939pt" height="211pt"
 viewBox="0.00 0.00 1939.00 211.00" xmlns="http://www.w3.org/2000/svg" xmlns:xlink="http://www.w3.org/1999/xlink">
<g id="graph0" class="graph" transform="scale(1 1) rotate(0) translate(4 207)">
<title>dependencies</title>
<polygon fill="#ffffff" stroke="transparent" points="-4,4 -4,-207 1935,-207 1935,4 -4,4"/>
<text text-anchor="start" x="944.5091" y="-42.4" font-family="sans-serif" font-weight="bold" font-size="14.00" fill="#000000">Legend</text>
<polygon fill="#ffffb3" stroke="transparent" points="731.5,-10 731.5,-30 751.5,-30 751.5,-10 731.5,-10"/>
<text text-anchor="start" x="755.129" y="-15.4" font-family="sans-serif" font-size="14.00" fill="#000000"> &#160;Declarations</text>
<polygon fill="#8dd3c7" stroke="transparent" points="844.5,-10 844.5,-30 864.5,-30 864.5,-10 844.5,-10"/>
<text text-anchor="start" x="868.2251" y="-15.4" font-family="sans-serif" font-size="14.00" fill="#000000"> &#160;Module</text>
<polygon fill="#80b1d3" stroke="transparent" points="930.5,-10 930.5,-30 950.5,-30 950.5,-10 930.5,-10"/>
<text text-anchor="start" x="954.2812" y="-15.4" font-family="sans-serif" font-size="14.00" fill="#000000"> &#160;Bootstrap</text>
<polygon fill="#fdb462" stroke="transparent" points="1027.5,-10 1027.5,-30 1047.5,-30 1047.5,-10 1027.5,-10"/>
<text text-anchor="start" x="1051.1732" y="-15.4" font-family="sans-serif" font-size="14.00" fill="#000000"> &#160;Providers</text>
<polygon fill="#fb8072" stroke="transparent" points="1123.5,-10 1123.5,-30 1143.5,-30 1143.5,-10 1123.5,-10"/>
<text text-anchor="start" x="1147.2258" y="-15.4" font-family="sans-serif" font-size="14.00" fill="#000000"> &#160;Exports</text>
<g id="clust1" class="cluster">
<title>cluster_PagesModule</title>
<polygon fill="none" stroke="#000000" stroke-dasharray="1,5" points="8,-70 8,-195 1923,-195 1923,-70 8,-70"/>
</g>
<g id="clust2" class="cluster">
<title>cluster_PagesModule_declarations</title>
<polygon fill="none" stroke="#000000" points="504,-78 504,-130 1915,-130 1915,-78 504,-78"/>
</g>
<g id="clust13" class="cluster">
<title>cluster_PagesModule_imports</title>
<polygon fill="none" stroke="#000000" points="226,-78 226,-130 496,-130 496,-78 226,-78"/>
</g>
<g id="clust16" class="cluster">
<title>cluster_PagesModule_providers</title>
<polygon fill="none" stroke="#000000" points="16,-78 16,-130 218,-130 218,-78 16,-78"/>
</g>
<!-- PagesComponent -->
<g id="node1" class="node">
<title>PagesComponent</title>
<polygon fill="#ffffb3" stroke="#000000" points="1906.9888,-122 1793.0112,-122 1793.0112,-86 1906.9888,-86 1906.9888,-122"/>
<text text-anchor="middle" x="1850" y="-99.8" font-family="Times,serif" font-size="14.00" fill="#000000">PagesComponent</text>
</g>
<!-- PagesModule -->
<g id="node11" class="node">
<title>PagesModule</title>
<polygon fill="#8dd3c7" stroke="#000000" points="1053.2064,-187 1050.2064,-191 1029.2064,-191 1026.2064,-187 960.7936,-187 960.7936,-151 1053.2064,-151 1053.2064,-187"/>
<text text-anchor="middle" x="1007" y="-164.8" font-family="Times,serif" font-size="14.00" fill="#000000">PagesModule</text>
</g>
<!-- PagesComponent&#45;&gt;PagesModule -->
<g id="edge1" class="edge">
<title>PagesComponent&#45;&gt;PagesModule</title>
<path fill="none" stroke="#000000" d="M1850,-122.0908C1850,-145.1328 1850,-182 1850,-182 1850,-182 1063.2226,-182 1063.2226,-182"/>
<polygon fill="#000000" stroke="#000000" points="1063.2227,-178.5001 1053.2226,-182 1063.2226,-185.5001 1063.2227,-178.5001"/>
</g>
<!-- AboutComponent -->
<g id="node2" class="node">
<title>AboutComponent</title>
<polygon fill="#ffffb3" stroke="#000000" points="1775.3301,-122 1658.6699,-122 1658.6699,-86 1775.3301,-86 1775.3301,-122"/>
<text text-anchor="middle" x="1717" y="-99.8" font-family="Times,serif" font-size="14.00" fill="#000000">AboutComponent</text>
</g>
<!-- AboutComponent&#45;&gt;PagesModule -->
<g id="edge2" class="edge">
<title>AboutComponent&#45;&gt;PagesModule</title>
<path fill="none" stroke="#000000" d="M1717,-122.0449C1717,-143.6623 1717,-177 1717,-177 1717,-177 1063.3112,-177 1063.3112,-177"/>
<polygon fill="#000000" stroke="#000000" points="1063.3112,-173.5001 1053.3112,-177 1063.3112,-180.5001 1063.3112,-173.5001"/>
</g>
<!-- ContactComponent -->
<g id="node3" class="node">
<title>ContactComponent</title>
<polygon fill="#ffffb3" stroke="#000000" points="1640.3795,-122 1515.6205,-122 1515.6205,-86 1640.3795,-86 1640.3795,-122"/>
<text text-anchor="middle" x="1578" y="-99.8" font-family="Times,serif" font-size="14.00" fill="#000000">ContactComponent</text>
</g>
<!-- ContactComponent&#45;&gt;PagesModule -->
<g id="edge3" class="edge">
<title>ContactComponent&#45;&gt;PagesModule</title>
<path fill="none" stroke="#000000" d="M1578,-122.2228C1578,-142.3652 1578,-172 1578,-172 1578,-172 1063.2437,-172 1063.2437,-172"/>
<polygon fill="#000000" stroke="#000000" points="1063.2437,-168.5001 1053.2437,-172 1063.2436,-175.5001 1063.2437,-168.5001"/>
</g>
<!-- ServicesComponent -->
<g id="node4" class="node">
<title>ServicesComponent</title>
<polygon fill="#ffffb3" stroke="#000000" points="1497.2548,-122 1368.7452,-122 1368.7452,-86 1497.2548,-86 1497.2548,-122"/>
<text text-anchor="middle" x="1433" y="-99.8" font-family="Times,serif" font-size="14.00" fill="#000000">ServicesComponent</text>
</g>
<!-- ServicesComponent&#45;&gt;PagesModule -->
<g id="edge4" class="edge">
<title>ServicesComponent&#45;&gt;PagesModule</title>
<path fill="none" stroke="#000000" d="M1433,-122.2222C1433,-140.8285 1433,-167 1433,-167 1433,-167 1063.4004,-167 1063.4004,-167"/>
<polygon fill="#000000" stroke="#000000" points="1063.4004,-163.5001 1053.4004,-167 1063.4004,-170.5001 1063.4004,-163.5001"/>
</g>
<!-- CollectionComponent -->
<g id="node5" class="node">
<title>CollectionComponent</title>
<polygon fill="#ffffb3" stroke="#000000" points="1350.661,-122 1211.339,-122 1211.339,-86 1350.661,-86 1350.661,-122"/>
<text text-anchor="middle" x="1281" y="-99.8" font-family="Times,serif" font-size="14.00" fill="#000000">CollectionComponent</text>
</g>
<!-- CollectionComponent&#45;&gt;PagesModule -->
<g id="edge5" class="edge">
<title>CollectionComponent&#45;&gt;PagesModule</title>
<path fill="none" stroke="#000000" d="M1281,-122.0336C1281,-139.0597 1281,-162 1281,-162 1281,-162 1063.1705,-162 1063.1705,-162"/>
<polygon fill="#000000" stroke="#000000" points="1063.1706,-158.5001 1053.1705,-162 1063.1705,-165.5001 1063.1706,-158.5001"/>
</g>
<!-- BlogComponent -->
<g id="node6" class="node">
<title>BlogComponent</title>
<polygon fill="#ffffb3" stroke="#000000" points="1193.0605,-122 1084.9395,-122 1084.9395,-86 1193.0605,-86 1193.0605,-122"/>
<text text-anchor="middle" x="1139" y="-99.8" font-family="Times,serif" font-size="14.00" fill="#000000">BlogComponent</text>
</g>
<!-- BlogComponent&#45;&gt;PagesModule -->
<g id="edge6" class="edge">
<title>BlogComponent&#45;&gt;PagesModule</title>
<path fill="none" stroke="#000000" d="M1139,-122.2396C1139,-137.5706 1139,-157 1139,-157 1139,-157 1063.1672,-157 1063.1672,-157"/>
<polygon fill="#000000" stroke="#000000" points="1063.1672,-153.5001 1053.1672,-157 1063.1672,-160.5001 1063.1672,-153.5001"/>
</g>
<!-- ProfileComponent -->
<g id="node7" class="node">
<title>ProfileComponent</title>
<polygon fill="#ffffb3" stroke="#000000" points="1066.9328,-122 947.0672,-122 947.0672,-86 1066.9328,-86 1066.9328,-122"/>
<text text-anchor="middle" x="1007" y="-99.8" font-family="Times,serif" font-size="14.00" fill="#000000">ProfileComponent</text>
</g>
<!-- ProfileComponent&#45;&gt;PagesModule -->
<g id="edge7" class="edge">
<title>ProfileComponent&#45;&gt;PagesModule</title>
<path fill="none" stroke="#000000" d="M1007,-122.1061C1007,-122.1061 1007,-140.991 1007,-140.991"/>
<polygon fill="#000000" stroke="#000000" points="1003.5001,-140.9909 1007,-150.991 1010.5001,-140.991 1003.5001,-140.9909"/>
</g>
<!-- UserComponent -->
<g id="node8" class="node">
<title>UserComponent</title>
<polygon fill="#ffffb3" stroke="#000000" points="928.7591,-122 821.2409,-122 821.2409,-86 928.7591,-86 928.7591,-122"/>
<text text-anchor="middle" x="875" y="-99.8" font-family="Times,serif" font-size="14.00" fill="#000000">UserComponent</text>
</g>
<!-- UserComponent&#45;&gt;PagesModule -->
<g id="edge8" class="edge">
<title>UserComponent&#45;&gt;PagesModule</title>
<path fill="none" stroke="#000000" d="M875,-122.2396C875,-137.5706 875,-157 875,-157 875,-157 950.8328,-157 950.8328,-157"/>
<polygon fill="#000000" stroke="#000000" points="950.8328,-160.5001 960.8328,-157 950.8328,-153.5001 950.8328,-160.5001"/>
</g>
<!-- FileManagerComponent -->
<g id="node9" class="node">
<title>FileManagerComponent</title>
<polygon fill="#ffffb3" stroke="#000000" points="803.3599,-122 650.6401,-122 650.6401,-86 803.3599,-86 803.3599,-122"/>
<text text-anchor="middle" x="727" y="-99.8" font-family="Times,serif" font-size="14.00" fill="#000000">FileManagerComponent</text>
</g>
<!-- FileManagerComponent&#45;&gt;PagesModule -->
<g id="edge9" class="edge">
<title>FileManagerComponent&#45;&gt;PagesModule</title>
<path fill="none" stroke="#000000" d="M727,-122.0336C727,-139.0597 727,-162 727,-162 727,-162 950.7637,-162 950.7637,-162"/>
<polygon fill="#000000" stroke="#000000" points="950.7637,-165.5001 960.7637,-162 950.7637,-158.5001 950.7637,-165.5001"/>
</g>
<!-- ProjectComponent -->
<g id="node10" class="node">
<title>ProjectComponent</title>
<polygon fill="#ffffb3" stroke="#000000" points="632.486,-122 511.514,-122 511.514,-86 632.486,-86 632.486,-122"/>
<text text-anchor="middle" x="572" y="-99.8" font-family="Times,serif" font-size="14.00" fill="#000000">ProjectComponent</text>
</g>
<!-- ProjectComponent&#45;&gt;PagesModule -->
<g id="edge10" class="edge">
<title>ProjectComponent&#45;&gt;PagesModule</title>
<path fill="none" stroke="#000000" d="M572,-122.2222C572,-140.8285 572,-167 572,-167 572,-167 950.8592,-167 950.8592,-167"/>
<polygon fill="#000000" stroke="#000000" points="950.8592,-170.5001 960.8592,-167 950.8592,-163.5001 950.8592,-170.5001"/>
</g>
<!-- SharedModule -->
<g id="node12" class="node">
<title>SharedModule</title>
<polygon fill="#8dd3c7" stroke="#000000" points="488.4231,-122 485.4231,-126 464.4231,-126 461.4231,-122 389.5769,-122 389.5769,-86 488.4231,-86 488.4231,-122"/>
<text text-anchor="middle" x="439" y="-99.8" font-family="Times,serif" font-size="14.00" fill="#000000">SharedModule</text>
</g>
<!-- SharedModule&#45;&gt;PagesModule -->
<g id="edge11" class="edge">
<title>SharedModule&#45;&gt;PagesModule</title>
<path fill="none" stroke="#000000" d="M439,-122.2228C439,-142.3652 439,-172 439,-172 439,-172 950.5182,-172 950.5182,-172"/>
<polygon fill="#000000" stroke="#000000" points="950.5182,-175.5001 960.5182,-172 950.5181,-168.5001 950.5182,-175.5001"/>
</g>
<!-- PagesRoutingModule -->
<g id="node13" class="node">
<title>PagesRoutingModule</title>
<polygon fill="#8dd3c7" stroke="#000000" points="371.8244,-122 368.8244,-126 347.8244,-126 344.8244,-122 234.1756,-122 234.1756,-86 371.8244,-86 371.8244,-122"/>
<text text-anchor="middle" x="303" y="-99.8" font-family="Times,serif" font-size="14.00" fill="#000000">PagesRoutingModule</text>
</g>
<!-- PagesRoutingModule&#45;&gt;PagesModule -->
<g id="edge12" class="edge">
<title>PagesRoutingModule&#45;&gt;PagesModule</title>
<path fill="none" stroke="#000000" d="M303,-122.0449C303,-143.6623 303,-177 303,-177 303,-177 950.8086,-177 950.8086,-177"/>
<polygon fill="#000000" stroke="#000000" points="950.8086,-180.5001 960.8086,-177 950.8086,-173.5001 950.8086,-180.5001"/>
</g>
<!-- FileManagerFirebase -->
<g id="node14" class="node">
<title>FileManagerFirebase</title>
<ellipse fill="#fdb462" stroke="#000000" cx="117" cy="-104" rx="93.1716" ry="18"/>
<text text-anchor="middle" x="117" y="-99.8" font-family="Times,serif" font-size="14.00" fill="#000000">FileManagerFirebase</text>
</g>
<!-- FileManagerFirebase&#45;&gt;PagesModule -->
<g id="edge13" class="edge">
<title>FileManagerFirebase&#45;&gt;PagesModule</title>
<path fill="none" stroke="#000000" d="M117,-122.0908C117,-145.1328 117,-182 117,-182 117,-182 950.7138,-182 950.7138,-182"/>
<polygon fill="#000000" stroke="#000000" points="950.7138,-185.5001 960.7138,-182 950.7138,-178.5001 950.7138,-185.5001"/>
</g>
</g>
</svg>
