<?xml version="1.0" encoding="UTF-8" standalone="no"?>
<!DOCTYPE svg PUBLIC "-//W3C//DTD SVG 1.1//EN"
 "http://www.w3.org/Graphics/SVG/1.1/DTD/svg11.dtd">
<!-- Generated by graphviz version 2.40.1 (20161225.0304)
 -->
<!-- Title: dependencies Pages: 1 -->
<svg width="1926pt" height="211pt"
 viewBox="0.00 0.00 1926.00 211.00" xmlns="http://www.w3.org/2000/svg" xmlns:xlink="http://www.w3.org/1999/xlink">
<g id="graph0" class="graph" transform="scale(1 1) rotate(0) translate(4 207)">
<title>dependencies</title>
<polygon fill="#ffffff" stroke="transparent" points="-4,4 -4,-207 1922,-207 1922,4 -4,4"/>
<text text-anchor="start" x="938.0091" y="-42.4" font-family="sans-serif" font-weight="bold" font-size="14.00" fill="#000000">Legend</text>
<polygon fill="#ffffb3" stroke="transparent" points="725,-10 725,-30 745,-30 745,-10 725,-10"/>
<text text-anchor="start" x="748.629" y="-15.4" font-family="sans-serif" font-size="14.00" fill="#000000"> &#160;Declarations</text>
<polygon fill="#8dd3c7" stroke="transparent" points="838,-10 838,-30 858,-30 858,-10 838,-10"/>
<text text-anchor="start" x="861.7251" y="-15.4" font-family="sans-serif" font-size="14.00" fill="#000000"> &#160;Module</text>
<polygon fill="#80b1d3" stroke="transparent" points="924,-10 924,-30 944,-30 944,-10 924,-10"/>
<text text-anchor="start" x="947.7812" y="-15.4" font-family="sans-serif" font-size="14.00" fill="#000000"> &#160;Bootstrap</text>
<polygon fill="#fdb462" stroke="transparent" points="1021,-10 1021,-30 1041,-30 1041,-10 1021,-10"/>
<text text-anchor="start" x="1044.6732" y="-15.4" font-family="sans-serif" font-size="14.00" fill="#000000"> &#160;Providers</text>
<polygon fill="#fb8072" stroke="transparent" points="1117,-10 1117,-30 1137,-30 1137,-10 1117,-10"/>
<text text-anchor="start" x="1140.7258" y="-15.4" font-family="sans-serif" font-size="14.00" fill="#000000"> &#160;Exports</text>
<g id="clust1" class="cluster">
<title>cluster_PagesModule</title>
<polygon fill="none" stroke="#000000" stroke-dasharray="1,5" points="8,-70 8,-195 1910,-195 1910,-70 8,-70"/>
</g>
<g id="clust2" class="cluster">
<title>cluster_PagesModule_declarations</title>
<polygon fill="none" stroke="#000000" points="648,-78 648,-130 1902,-130 1902,-78 648,-78"/>
</g>
<g id="clust12" class="cluster">
<title>cluster_PagesModule_imports</title>
<polygon fill="none" stroke="#000000" points="226,-78 226,-130 640,-130 640,-78 226,-78"/>
</g>
<g id="clust15" class="cluster">
<title>cluster_PagesModule_providers</title>
<polygon fill="none" stroke="#000000" points="16,-78 16,-130 218,-130 218,-78 16,-78"/>
</g>
<!-- PagesComponent -->
<g id="node1" class="node">
<title>PagesComponent</title>
<polygon fill="#ffffb3" stroke="#000000" points="1893.9888,-122 1780.0112,-122 1780.0112,-86 1893.9888,-86 1893.9888,-122"/>
<text text-anchor="middle" x="1837" y="-99.8" font-family="Times,serif" font-size="14.00" fill="#000000">PagesComponent</text>
</g>
<!-- PagesModule -->
<g id="node10" class="node">
<title>PagesModule</title>
<polygon fill="#8dd3c7" stroke="#000000" points="1065.2064,-187 1062.2064,-191 1041.2064,-191 1038.2064,-187 972.7936,-187 972.7936,-151 1065.2064,-151 1065.2064,-187"/>
<text text-anchor="middle" x="1019" y="-164.8" font-family="Times,serif" font-size="14.00" fill="#000000">PagesModule</text>
</g>
<!-- PagesComponent&#45;&gt;PagesModule -->
<g id="edge1" class="edge">
<title>PagesComponent&#45;&gt;PagesModule</title>
<path fill="none" stroke="#000000" d="M1837,-122.0908C1837,-145.1328 1837,-182 1837,-182 1837,-182 1075.323,-182 1075.323,-182"/>
<polygon fill="#000000" stroke="#000000" points="1075.323,-178.5001 1065.323,-182 1075.3229,-185.5001 1075.323,-178.5001"/>
</g>
<!-- AboutComponent -->
<g id="node2" class="node">
<title>AboutComponent</title>
<polygon fill="#ffffb3" stroke="#000000" points="1762.3301,-122 1645.6699,-122 1645.6699,-86 1762.3301,-86 1762.3301,-122"/>
<text text-anchor="middle" x="1704" y="-99.8" font-family="Times,serif" font-size="14.00" fill="#000000">AboutComponent</text>
</g>
<!-- AboutComponent&#45;&gt;PagesModule -->
<g id="edge2" class="edge">
<title>AboutComponent&#45;&gt;PagesModule</title>
<path fill="none" stroke="#000000" d="M1704,-122.0449C1704,-143.6623 1704,-177 1704,-177 1704,-177 1075.276,-177 1075.276,-177"/>
<polygon fill="#000000" stroke="#000000" points="1075.2761,-173.5001 1065.276,-177 1075.276,-180.5001 1075.2761,-173.5001"/>
</g>
<!-- ContactComponent -->
<g id="node3" class="node">
<title>ContactComponent</title>
<polygon fill="#ffffb3" stroke="#000000" points="1627.3795,-122 1502.6205,-122 1502.6205,-86 1627.3795,-86 1627.3795,-122"/>
<text text-anchor="middle" x="1565" y="-99.8" font-family="Times,serif" font-size="14.00" fill="#000000">ContactComponent</text>
</g>
<!-- ContactComponent&#45;&gt;PagesModule -->
<g id="edge3" class="edge">
<title>ContactComponent&#45;&gt;PagesModule</title>
<path fill="none" stroke="#000000" d="M1565,-122.2228C1565,-142.3652 1565,-172 1565,-172 1565,-172 1075.5517,-172 1075.5517,-172"/>
<polygon fill="#000000" stroke="#000000" points="1075.5517,-168.5001 1065.5517,-172 1075.5516,-175.5001 1075.5517,-168.5001"/>
</g>
<!-- ServicesComponent -->
<g id="node4" class="node">
<title>ServicesComponent</title>
<polygon fill="#ffffb3" stroke="#000000" points="1484.2548,-122 1355.7452,-122 1355.7452,-86 1484.2548,-86 1484.2548,-122"/>
<text text-anchor="middle" x="1420" y="-99.8" font-family="Times,serif" font-size="14.00" fill="#000000">ServicesComponent</text>
</g>
<!-- ServicesComponent&#45;&gt;PagesModule -->
<g id="edge4" class="edge">
<title>ServicesComponent&#45;&gt;PagesModule</title>
<path fill="none" stroke="#000000" d="M1420,-122.2222C1420,-140.8285 1420,-167 1420,-167 1420,-167 1075.3915,-167 1075.3915,-167"/>
<polygon fill="#000000" stroke="#000000" points="1075.3916,-163.5001 1065.3915,-167 1075.3915,-170.5001 1075.3916,-163.5001"/>
</g>
<!-- BlogComponent -->
<g id="node5" class="node">
<title>BlogComponent</title>
<polygon fill="#ffffb3" stroke="#000000" points="1337.0605,-122 1228.9395,-122 1228.9395,-86 1337.0605,-86 1337.0605,-122"/>
<text text-anchor="middle" x="1283" y="-99.8" font-family="Times,serif" font-size="14.00" fill="#000000">BlogComponent</text>
</g>
<!-- BlogComponent&#45;&gt;PagesModule -->
<g id="edge5" class="edge">
<title>BlogComponent&#45;&gt;PagesModule</title>
<path fill="none" stroke="#000000" d="M1283,-122.0336C1283,-139.0597 1283,-162 1283,-162 1283,-162 1075.2874,-162 1075.2874,-162"/>
<polygon fill="#000000" stroke="#000000" points="1075.2874,-158.5001 1065.2874,-162 1075.2874,-165.5001 1075.2874,-158.5001"/>
</g>
<!-- ProfileComponent -->
<g id="node6" class="node">
<title>ProfileComponent</title>
<polygon fill="#ffffb3" stroke="#000000" points="1210.9328,-122 1091.0672,-122 1091.0672,-86 1210.9328,-86 1210.9328,-122"/>
<text text-anchor="middle" x="1151" y="-99.8" font-family="Times,serif" font-size="14.00" fill="#000000">ProfileComponent</text>
</g>
<!-- ProfileComponent&#45;&gt;PagesModule -->
<g id="edge6" class="edge">
<title>ProfileComponent&#45;&gt;PagesModule</title>
<path fill="none" stroke="#000000" d="M1151,-122.2396C1151,-137.5706 1151,-157 1151,-157 1151,-157 1075.1672,-157 1075.1672,-157"/>
<polygon fill="#000000" stroke="#000000" points="1075.1672,-153.5001 1065.1672,-157 1075.1672,-160.5001 1075.1672,-153.5001"/>
</g>
<!-- UserComponent -->
<g id="node7" class="node">
<title>UserComponent</title>
<polygon fill="#ffffb3" stroke="#000000" points="1072.7591,-122 965.2409,-122 965.2409,-86 1072.7591,-86 1072.7591,-122"/>
<text text-anchor="middle" x="1019" y="-99.8" font-family="Times,serif" font-size="14.00" fill="#000000">UserComponent</text>
</g>
<!-- UserComponent&#45;&gt;PagesModule -->
<g id="edge7" class="edge">
<title>UserComponent&#45;&gt;PagesModule</title>
<path fill="none" stroke="#000000" d="M1019,-122.1061C1019,-122.1061 1019,-140.991 1019,-140.991"/>
<polygon fill="#000000" stroke="#000000" points="1015.5001,-140.9909 1019,-150.991 1022.5001,-140.991 1015.5001,-140.9909"/>
</g>
<!-- FileManagerComponent -->
<g id="node8" class="node">
<title>FileManagerComponent</title>
<polygon fill="#ffffb3" stroke="#000000" points="947.3599,-122 794.6401,-122 794.6401,-86 947.3599,-86 947.3599,-122"/>
<text text-anchor="middle" x="871" y="-99.8" font-family="Times,serif" font-size="14.00" fill="#000000">FileManagerComponent</text>
</g>
<!-- FileManagerComponent&#45;&gt;PagesModule -->
<g id="edge8" class="edge">
<title>FileManagerComponent&#45;&gt;PagesModule</title>
<path fill="none" stroke="#000000" d="M871,-122.2396C871,-137.5706 871,-157 871,-157 871,-157 962.5779,-157 962.5779,-157"/>
<polygon fill="#000000" stroke="#000000" points="962.578,-160.5001 972.5779,-157 962.5779,-153.5001 962.578,-160.5001"/>
</g>
<!-- ProjectComponent -->
<g id="node9" class="node">
<title>ProjectComponent</title>
<polygon fill="#ffffb3" stroke="#000000" points="776.486,-122 655.514,-122 655.514,-86 776.486,-86 776.486,-122"/>
<text text-anchor="middle" x="716" y="-99.8" font-family="Times,serif" font-size="14.00" fill="#000000">ProjectComponent</text>
</g>
<!-- ProjectComponent&#45;&gt;PagesModule -->
<g id="edge9" class="edge">
<title>ProjectComponent&#45;&gt;PagesModule</title>
<path fill="none" stroke="#000000" d="M716,-122.0336C716,-139.0597 716,-162 716,-162 716,-162 962.651,-162 962.651,-162"/>
<polygon fill="#000000" stroke="#000000" points="962.651,-165.5001 972.651,-162 962.651,-158.5001 962.651,-165.5001"/>
</g>
<!-- SharedModule -->
<g id="node11" class="node">
<title>SharedModule</title>
<polygon fill="#8dd3c7" stroke="#000000" points="632.4231,-122 629.4231,-126 608.4231,-126 605.4231,-122 533.5769,-122 533.5769,-86 632.4231,-86 632.4231,-122"/>
<text text-anchor="middle" x="583" y="-99.8" font-family="Times,serif" font-size="14.00" fill="#000000">SharedModule</text>
</g>
<!-- SharedModule&#45;&gt;PagesModule -->
<g id="edge10" class="edge">
<title>SharedModule&#45;&gt;PagesModule</title>
<path fill="none" stroke="#000000" d="M583,-122.2222C583,-140.8285 583,-167 583,-167 583,-167 962.7531,-167 962.7531,-167"/>
<polygon fill="#000000" stroke="#000000" points="962.7532,-170.5001 972.7531,-167 962.7531,-163.5001 962.7532,-170.5001"/>
</g>
<!-- PagesRoutingModule -->
<g id="node12" class="node">
<title>PagesRoutingModule</title>
<polygon fill="#8dd3c7" stroke="#000000" points="515.8244,-122 512.8244,-126 491.8244,-126 488.8244,-122 378.1756,-122 378.1756,-86 515.8244,-86 515.8244,-122"/>
<text text-anchor="middle" x="447" y="-99.8" font-family="Times,serif" font-size="14.00" fill="#000000">PagesRoutingModule</text>
</g>
<!-- PagesRoutingModule&#45;&gt;PagesModule -->
<g id="edge11" class="edge">
<title>PagesRoutingModule&#45;&gt;PagesModule</title>
<path fill="none" stroke="#000000" d="M447,-122.2228C447,-142.3652 447,-172 447,-172 447,-172 962.6754,-172 962.6754,-172"/>
<polygon fill="#000000" stroke="#000000" points="962.6754,-175.5001 972.6754,-172 962.6753,-168.5001 962.6754,-175.5001"/>
</g>
<!-- BaseLayoutModule -->
<g id="node13" class="node">
<title>BaseLayoutModule</title>
<polygon fill="#8dd3c7" stroke="#000000" points="360.4187,-122 357.4187,-126 336.4187,-126 333.4187,-122 233.5813,-122 233.5813,-86 360.4187,-86 360.4187,-122"/>
<text text-anchor="middle" x="297" y="-99.8" font-family="Times,serif" font-size="14.00" fill="#000000">BaseLayoutModule</text>
</g>
<!-- BaseLayoutModule&#45;&gt;PagesModule -->
<g id="edge12" class="edge">
<title>BaseLayoutModule&#45;&gt;PagesModule</title>
<path fill="none" stroke="#000000" d="M297,-122.0449C297,-143.6623 297,-177 297,-177 297,-177 962.7373,-177 962.7373,-177"/>
<polygon fill="#000000" stroke="#000000" points="962.7374,-180.5001 972.7373,-177 962.7373,-173.5001 962.7374,-180.5001"/>
</g>
<!-- FileManagerFirebase -->
<g id="node14" class="node">
<title>FileManagerFirebase</title>
<ellipse fill="#fdb462" stroke="#000000" cx="117" cy="-104" rx="93.1716" ry="18"/>
<text text-anchor="middle" x="117" y="-99.8" font-family="Times,serif" font-size="14.00" fill="#000000">FileManagerFirebase</text>
</g>
<!-- FileManagerFirebase&#45;&gt;PagesModule -->
<g id="edge13" class="edge">
<title>FileManagerFirebase&#45;&gt;PagesModule</title>
<path fill="none" stroke="#000000" d="M117,-122.0908C117,-145.1328 117,-182 117,-182 117,-182 962.7173,-182 962.7173,-182"/>
<polygon fill="#000000" stroke="#000000" points="962.7173,-185.5001 972.7173,-182 962.7172,-178.5001 962.7173,-185.5001"/>
</g>
</g>
</svg>
