<?xml version="1.0" encoding="UTF-8" standalone="no"?>
<!DOCTYPE svg PUBLIC "-//W3C//DTD SVG 1.1//EN"
 "http://www.w3.org/Graphics/SVG/1.1/DTD/svg11.dtd">
<!-- Generated by graphviz version 2.40.1 (20161225.0304)
 -->
<!-- Title: dependencies Pages: 1 -->
<svg width="1925pt" height="211pt"
 viewBox="0.00 0.00 1925.00 211.00" xmlns="http://www.w3.org/2000/svg" xmlns:xlink="http://www.w3.org/1999/xlink">
<g id="graph0" class="graph" transform="scale(1 1) rotate(0) translate(4 207)">
<title>dependencies</title>
<polygon fill="#ffffff" stroke="transparent" points="-4,4 -4,-207 1921,-207 1921,4 -4,4"/>
<text text-anchor="start" x="937.5091" y="-42.4" font-family="sans-serif" font-weight="bold" font-size="14.00" fill="#000000">Legend</text>
<polygon fill="#ffffb3" stroke="transparent" points="724.5,-10 724.5,-30 744.5,-30 744.5,-10 724.5,-10"/>
<text text-anchor="start" x="748.129" y="-15.4" font-family="sans-serif" font-size="14.00" fill="#000000"> &#160;Declarations</text>
<polygon fill="#8dd3c7" stroke="transparent" points="837.5,-10 837.5,-30 857.5,-30 857.5,-10 837.5,-10"/>
<text text-anchor="start" x="861.2251" y="-15.4" font-family="sans-serif" font-size="14.00" fill="#000000"> &#160;Module</text>
<polygon fill="#80b1d3" stroke="transparent" points="923.5,-10 923.5,-30 943.5,-30 943.5,-10 923.5,-10"/>
<text text-anchor="start" x="947.2812" y="-15.4" font-family="sans-serif" font-size="14.00" fill="#000000"> &#160;Bootstrap</text>
<polygon fill="#fdb462" stroke="transparent" points="1020.5,-10 1020.5,-30 1040.5,-30 1040.5,-10 1020.5,-10"/>
<text text-anchor="start" x="1044.1732" y="-15.4" font-family="sans-serif" font-size="14.00" fill="#000000"> &#160;Providers</text>
<polygon fill="#fb8072" stroke="transparent" points="1116.5,-10 1116.5,-30 1136.5,-30 1136.5,-10 1116.5,-10"/>
<text text-anchor="start" x="1140.2258" y="-15.4" font-family="sans-serif" font-size="14.00" fill="#000000"> &#160;Exports</text>
<g id="clust1" class="cluster">
<title>cluster_PagesModule</title>
<polygon fill="none" stroke="#000000" stroke-dasharray="1,5" points="8,-70 8,-195 1909,-195 1909,-70 8,-70"/>
</g>
<g id="clust2" class="cluster">
<title>cluster_PagesModule_declarations</title>
<polygon fill="none" stroke="#000000" points="648,-78 648,-130 1901,-130 1901,-78 648,-78"/>
</g>
<g id="clust12" class="cluster">
<title>cluster_PagesModule_imports</title>
<polygon fill="none" stroke="#000000" points="226,-78 226,-130 640,-130 640,-78 226,-78"/>
</g>
<g id="clust15" class="cluster">
<title>cluster_PagesModule_providers</title>
<polygon fill="none" stroke="#000000" points="16,-78 16,-130 218,-130 218,-78 16,-78"/>
</g>
<!-- AboutComponent -->
<g id="node1" class="node">
<title>AboutComponent</title>
<polygon fill="#ffffb3" stroke="#000000" points="1893.3301,-122 1776.6699,-122 1776.6699,-86 1893.3301,-86 1893.3301,-122"/>
<text text-anchor="middle" x="1835" y="-99.8" font-family="Times,serif" font-size="14.00" fill="#000000">AboutComponent</text>
</g>
<!-- PagesModule -->
<g id="node10" class="node">
<title>PagesModule</title>
<polygon fill="#8dd3c7" stroke="#000000" points="1035.2064,-187 1032.2064,-191 1011.2064,-191 1008.2064,-187 942.7936,-187 942.7936,-151 1035.2064,-151 1035.2064,-187"/>
<text text-anchor="middle" x="989" y="-164.8" font-family="Times,serif" font-size="14.00" fill="#000000">PagesModule</text>
</g>
<!-- AboutComponent&#45;&gt;PagesModule -->
<g id="edge1" class="edge">
<title>AboutComponent&#45;&gt;PagesModule</title>
<path fill="none" stroke="#000000" d="M1835,-122.0908C1835,-145.1328 1835,-182 1835,-182 1835,-182 1045.3871,-182 1045.3871,-182"/>
<polygon fill="#000000" stroke="#000000" points="1045.3872,-178.5001 1035.3871,-182 1045.3871,-185.5001 1045.3872,-178.5001"/>
</g>
<!-- BlogComponent -->
<g id="node2" class="node">
<title>BlogComponent</title>
<polygon fill="#ffffb3" stroke="#000000" points="1759.0605,-122 1650.9395,-122 1650.9395,-86 1759.0605,-86 1759.0605,-122"/>
<text text-anchor="middle" x="1705" y="-99.8" font-family="Times,serif" font-size="14.00" fill="#000000">BlogComponent</text>
</g>
<!-- BlogComponent&#45;&gt;PagesModule -->
<g id="edge2" class="edge">
<title>BlogComponent&#45;&gt;PagesModule</title>
<path fill="none" stroke="#000000" d="M1705,-122.0449C1705,-143.6623 1705,-177 1705,-177 1705,-177 1045.1523,-177 1045.1523,-177"/>
<polygon fill="#000000" stroke="#000000" points="1045.1523,-173.5001 1035.1523,-177 1045.1523,-180.5001 1045.1523,-173.5001"/>
</g>
<!-- ContactComponent -->
<g id="node3" class="node">
<title>ContactComponent</title>
<polygon fill="#ffffb3" stroke="#000000" points="1632.3795,-122 1507.6205,-122 1507.6205,-86 1632.3795,-86 1632.3795,-122"/>
<text text-anchor="middle" x="1570" y="-99.8" font-family="Times,serif" font-size="14.00" fill="#000000">ContactComponent</text>
</g>
<!-- ContactComponent&#45;&gt;PagesModule -->
<g id="edge3" class="edge">
<title>ContactComponent&#45;&gt;PagesModule</title>
<path fill="none" stroke="#000000" d="M1570,-122.2228C1570,-142.3652 1570,-172 1570,-172 1570,-172 1045.5635,-172 1045.5635,-172"/>
<polygon fill="#000000" stroke="#000000" points="1045.5636,-168.5001 1035.5635,-172 1045.5635,-175.5001 1045.5636,-168.5001"/>
</g>
<!-- FileManagerComponent -->
<g id="node4" class="node">
<title>FileManagerComponent</title>
<polygon fill="#ffffb3" stroke="#000000" points="1489.3599,-122 1336.6401,-122 1336.6401,-86 1489.3599,-86 1489.3599,-122"/>
<text text-anchor="middle" x="1413" y="-99.8" font-family="Times,serif" font-size="14.00" fill="#000000">FileManagerComponent</text>
</g>
<!-- FileManagerComponent&#45;&gt;PagesModule -->
<g id="edge4" class="edge">
<title>FileManagerComponent&#45;&gt;PagesModule</title>
<path fill="none" stroke="#000000" d="M1413,-122.2222C1413,-140.8285 1413,-167 1413,-167 1413,-167 1045.1826,-167 1045.1826,-167"/>
<polygon fill="#000000" stroke="#000000" points="1045.1826,-163.5001 1035.1826,-167 1045.1825,-170.5001 1045.1826,-163.5001"/>
</g>
<!-- PagesComponent -->
<g id="node5" class="node">
<title>PagesComponent</title>
<polygon fill="#ffffb3" stroke="#000000" points="1318.9888,-122 1205.0112,-122 1205.0112,-86 1318.9888,-86 1318.9888,-122"/>
<text text-anchor="middle" x="1262" y="-99.8" font-family="Times,serif" font-size="14.00" fill="#000000">PagesComponent</text>
</g>
<!-- PagesComponent&#45;&gt;PagesModule -->
<g id="edge5" class="edge">
<title>PagesComponent&#45;&gt;PagesModule</title>
<path fill="none" stroke="#000000" d="M1262,-122.0336C1262,-139.0597 1262,-162 1262,-162 1262,-162 1045.3107,-162 1045.3107,-162"/>
<polygon fill="#000000" stroke="#000000" points="1045.3108,-158.5001 1035.3107,-162 1045.3107,-165.5001 1045.3108,-158.5001"/>
</g>
<!-- ProfileComponent -->
<g id="node6" class="node">
<title>ProfileComponent</title>
<polygon fill="#ffffb3" stroke="#000000" points="1186.9328,-122 1067.0672,-122 1067.0672,-86 1186.9328,-86 1186.9328,-122"/>
<text text-anchor="middle" x="1127" y="-99.8" font-family="Times,serif" font-size="14.00" fill="#000000">ProfileComponent</text>
</g>
<!-- ProfileComponent&#45;&gt;PagesModule -->
<g id="edge6" class="edge">
<title>ProfileComponent&#45;&gt;PagesModule</title>
<path fill="none" stroke="#000000" d="M1127,-122.2396C1127,-137.5706 1127,-157 1127,-157 1127,-157 1045.3359,-157 1045.3359,-157"/>
<polygon fill="#000000" stroke="#000000" points="1045.3359,-153.5001 1035.3359,-157 1045.3359,-160.5001 1045.3359,-153.5001"/>
</g>
<!-- ProjectComponent -->
<g id="node7" class="node">
<title>ProjectComponent</title>
<polygon fill="#ffffb3" stroke="#000000" points="1049.486,-122 928.514,-122 928.514,-86 1049.486,-86 1049.486,-122"/>
<text text-anchor="middle" x="989" y="-99.8" font-family="Times,serif" font-size="14.00" fill="#000000">ProjectComponent</text>
</g>
<!-- ProjectComponent&#45;&gt;PagesModule -->
<g id="edge7" class="edge">
<title>ProjectComponent&#45;&gt;PagesModule</title>
<path fill="none" stroke="#000000" d="M989,-122.1061C989,-122.1061 989,-140.991 989,-140.991"/>
<polygon fill="#000000" stroke="#000000" points="985.5001,-140.9909 989,-150.991 992.5001,-140.991 985.5001,-140.9909"/>
</g>
<!-- ServicesComponent -->
<g id="node8" class="node">
<title>ServicesComponent</title>
<polygon fill="#ffffb3" stroke="#000000" points="910.2548,-122 781.7452,-122 781.7452,-86 910.2548,-86 910.2548,-122"/>
<text text-anchor="middle" x="846" y="-99.8" font-family="Times,serif" font-size="14.00" fill="#000000">ServicesComponent</text>
</g>
<!-- ServicesComponent&#45;&gt;PagesModule -->
<g id="edge8" class="edge">
<title>ServicesComponent&#45;&gt;PagesModule</title>
<path fill="none" stroke="#000000" d="M846,-122.2396C846,-137.5706 846,-157 846,-157 846,-157 932.572,-157 932.572,-157"/>
<polygon fill="#000000" stroke="#000000" points="932.572,-160.5001 942.572,-157 932.572,-153.5001 932.572,-160.5001"/>
</g>
<!-- UserComponent -->
<g id="node9" class="node">
<title>UserComponent</title>
<polygon fill="#ffffb3" stroke="#000000" points="763.7591,-122 656.2409,-122 656.2409,-86 763.7591,-86 763.7591,-122"/>
<text text-anchor="middle" x="710" y="-99.8" font-family="Times,serif" font-size="14.00" fill="#000000">UserComponent</text>
</g>
<!-- UserComponent&#45;&gt;PagesModule -->
<g id="edge9" class="edge">
<title>UserComponent&#45;&gt;PagesModule</title>
<path fill="none" stroke="#000000" d="M710,-122.0336C710,-139.0597 710,-162 710,-162 710,-162 932.6156,-162 932.6156,-162"/>
<polygon fill="#000000" stroke="#000000" points="932.6157,-165.5001 942.6156,-162 932.6156,-158.5001 932.6157,-165.5001"/>
</g>
<!-- BaseLayoutModule -->
<g id="node11" class="node">
<title>BaseLayoutModule</title>
<polygon fill="#8dd3c7" stroke="#000000" points="632.4187,-122 629.4187,-126 608.4187,-126 605.4187,-122 505.5813,-122 505.5813,-86 632.4187,-86 632.4187,-122"/>
<text text-anchor="middle" x="569" y="-99.8" font-family="Times,serif" font-size="14.00" fill="#000000">BaseLayoutModule</text>
</g>
<!-- BaseLayoutModule&#45;&gt;PagesModule -->
<g id="edge10" class="edge">
<title>BaseLayoutModule&#45;&gt;PagesModule</title>
<path fill="none" stroke="#000000" d="M569,-122.2222C569,-140.8285 569,-167 569,-167 569,-167 932.8512,-167 932.8512,-167"/>
<polygon fill="#000000" stroke="#000000" points="932.8513,-170.5001 942.8512,-167 932.8512,-163.5001 932.8513,-170.5001"/>
</g>
<!-- PagesRoutingModule -->
<g id="node12" class="node">
<title>PagesRoutingModule</title>
<polygon fill="#8dd3c7" stroke="#000000" points="487.8244,-122 484.8244,-126 463.8244,-126 460.8244,-122 350.1756,-122 350.1756,-86 487.8244,-86 487.8244,-122"/>
<text text-anchor="middle" x="419" y="-99.8" font-family="Times,serif" font-size="14.00" fill="#000000">PagesRoutingModule</text>
</g>
<!-- PagesRoutingModule&#45;&gt;PagesModule -->
<g id="edge11" class="edge">
<title>PagesRoutingModule&#45;&gt;PagesModule</title>
<path fill="none" stroke="#000000" d="M419,-122.2228C419,-142.3652 419,-172 419,-172 419,-172 932.8373,-172 932.8373,-172"/>
<polygon fill="#000000" stroke="#000000" points="932.8374,-175.5001 942.8373,-172 932.8373,-168.5001 932.8374,-175.5001"/>
</g>
<!-- SharedModule -->
<g id="node13" class="node">
<title>SharedModule</title>
<polygon fill="#8dd3c7" stroke="#000000" points="332.4231,-122 329.4231,-126 308.4231,-126 305.4231,-122 233.5769,-122 233.5769,-86 332.4231,-86 332.4231,-122"/>
<text text-anchor="middle" x="283" y="-99.8" font-family="Times,serif" font-size="14.00" fill="#000000">SharedModule</text>
</g>
<!-- SharedModule&#45;&gt;PagesModule -->
<g id="edge12" class="edge">
<title>SharedModule&#45;&gt;PagesModule</title>
<path fill="none" stroke="#000000" d="M283,-122.0449C283,-143.6623 283,-177 283,-177 283,-177 932.6774,-177 932.6774,-177"/>
<polygon fill="#000000" stroke="#000000" points="932.6774,-180.5001 942.6774,-177 932.6773,-173.5001 932.6774,-180.5001"/>
</g>
<!-- FileManagerFirebase -->
<g id="node14" class="node">
<title>FileManagerFirebase</title>
<ellipse fill="#fdb462" stroke="#000000" cx="117" cy="-104" rx="93.1716" ry="18"/>
<text text-anchor="middle" x="117" y="-99.8" font-family="Times,serif" font-size="14.00" fill="#000000">FileManagerFirebase</text>
</g>
<!-- FileManagerFirebase&#45;&gt;PagesModule -->
<g id="edge13" class="edge">
<title>FileManagerFirebase&#45;&gt;PagesModule</title>
<path fill="none" stroke="#000000" d="M117,-122.0908C117,-145.1328 117,-182 117,-182 117,-182 932.7332,-182 932.7332,-182"/>
<polygon fill="#000000" stroke="#000000" points="932.7332,-185.5001 942.7332,-182 932.7331,-178.5001 932.7332,-185.5001"/>
</g>
</g>
</svg>
