<?xml version="1.0" encoding="UTF-8" standalone="no"?>
<!DOCTYPE svg PUBLIC "-//W3C//DTD SVG 1.1//EN"
 "http://www.w3.org/Graphics/SVG/1.1/DTD/svg11.dtd">
<!-- Generated by graphviz version 2.40.1 (20161225.0304)
 -->
<!-- Title: dependencies Pages: 1 -->
<svg width="504pt" height="284pt"
 viewBox="0.00 0.00 504.00 284.00" xmlns="http://www.w3.org/2000/svg" xmlns:xlink="http://www.w3.org/1999/xlink">
<g id="graph0" class="graph" transform="scale(1 1) rotate(0) translate(4 280)">
<title>dependencies</title>
<polygon fill="#ffffff" stroke="transparent" points="-4,4 -4,-280 500,-280 500,4 -4,4"/>
<text text-anchor="start" x="227.0091" y="-42.4" font-family="sans-serif" font-weight="bold" font-size="14.00" fill="#000000">Legend</text>
<polygon fill="#ffffb3" stroke="transparent" points="14,-10 14,-30 34,-30 34,-10 14,-10"/>
<text text-anchor="start" x="37.629" y="-15.4" font-family="sans-serif" font-size="14.00" fill="#000000"> &#160;Declarations</text>
<polygon fill="#8dd3c7" stroke="transparent" points="127,-10 127,-30 147,-30 147,-10 127,-10"/>
<text text-anchor="start" x="150.7251" y="-15.4" font-family="sans-serif" font-size="14.00" fill="#000000"> &#160;Module</text>
<polygon fill="#80b1d3" stroke="transparent" points="213,-10 213,-30 233,-30 233,-10 213,-10"/>
<text text-anchor="start" x="236.7812" y="-15.4" font-family="sans-serif" font-size="14.00" fill="#000000"> &#160;Bootstrap</text>
<polygon fill="#fdb462" stroke="transparent" points="310,-10 310,-30 330,-30 330,-10 310,-10"/>
<text text-anchor="start" x="333.6732" y="-15.4" font-family="sans-serif" font-size="14.00" fill="#000000"> &#160;Providers</text>
<polygon fill="#fb8072" stroke="transparent" points="406,-10 406,-30 426,-30 426,-10 406,-10"/>
<text text-anchor="start" x="429.7258" y="-15.4" font-family="sans-serif" font-size="14.00" fill="#000000"> &#160;Exports</text>
<g id="clust1" class="cluster">
<title>cluster_SidenavModule</title>
<polygon fill="none" stroke="#000000" stroke-dasharray="1,5" points="45.5,-70 45.5,-268 450.5,-268 450.5,-70 45.5,-70"/>
</g>
<g id="clust2" class="cluster">
<title>cluster_SidenavModule_declarations</title>
<polygon fill="none" stroke="#000000" points="175.5,-78 175.5,-130 442.5,-130 442.5,-78 175.5,-78"/>
</g>
<g id="clust5" class="cluster">
<title>cluster_SidenavModule_imports</title>
<polygon fill="none" stroke="#000000" points="53.5,-78 53.5,-130 167.5,-130 167.5,-78 53.5,-78"/>
</g>
<g id="clust6" class="cluster">
<title>cluster_SidenavModule_exports</title>
<polygon fill="none" stroke="#000000" points="163.5,-208 163.5,-260 309.5,-260 309.5,-208 163.5,-208"/>
</g>
<!-- SidenavComponent -->
<g id="node1" class="node">
<title>SidenavComponent</title>
<polygon fill="#ffffb3" stroke="#000000" points="434.9356,-122 308.0644,-122 308.0644,-86 434.9356,-86 434.9356,-122"/>
<text text-anchor="middle" x="371.5" y="-99.8" font-family="Times,serif" font-size="14.00" fill="#000000">SidenavComponent</text>
</g>
<!-- SidenavModule -->
<g id="node3" class="node">
<title>SidenavModule</title>
<polygon fill="#8dd3c7" stroke="#000000" points="288.6528,-187 285.6528,-191 264.6528,-191 261.6528,-187 184.3472,-187 184.3472,-151 288.6528,-151 288.6528,-187"/>
<text text-anchor="middle" x="236.5" y="-164.8" font-family="Times,serif" font-size="14.00" fill="#000000">SidenavModule</text>
</g>
<!-- SidenavComponent&#45;&gt;SidenavModule -->
<g id="edge1" class="edge">
<title>SidenavComponent&#45;&gt;SidenavModule</title>
<path fill="none" stroke="#000000" d="M371.5,-122.1061C371.5,-141.3391 371.5,-169 371.5,-169 371.5,-169 298.6945,-169 298.6945,-169"/>
<polygon fill="#000000" stroke="#000000" points="298.6946,-165.5001 288.6945,-169 298.6945,-172.5001 298.6946,-165.5001"/>
</g>
<!-- ItemComponent -->
<g id="node2" class="node">
<title>ItemComponent</title>
<polygon fill="#ffffb3" stroke="#000000" points="289.9888,-122 183.0112,-122 183.0112,-86 289.9888,-86 289.9888,-122"/>
<text text-anchor="middle" x="236.5" y="-99.8" font-family="Times,serif" font-size="14.00" fill="#000000">ItemComponent</text>
</g>
<!-- ItemComponent&#45;&gt;SidenavModule -->
<g id="edge2" class="edge">
<title>ItemComponent&#45;&gt;SidenavModule</title>
<path fill="none" stroke="#000000" d="M236.5,-122.1061C236.5,-122.1061 236.5,-140.991 236.5,-140.991"/>
<polygon fill="#000000" stroke="#000000" points="233.0001,-140.9909 236.5,-150.991 240.0001,-140.991 233.0001,-140.9909"/>
</g>
<!-- SidenavComponent  -->
<g id="node5" class="node">
<title>SidenavComponent </title>
<polygon fill="#fb8072" stroke="#000000" points="301.4348,-252 171.5652,-252 171.5652,-216 301.4348,-216 301.4348,-252"/>
<text text-anchor="middle" x="236.5" y="-229.8" font-family="Times,serif" font-size="14.00" fill="#000000">SidenavComponent </text>
</g>
<!-- SidenavModule&#45;&gt;SidenavComponent  -->
<g id="edge4" class="edge">
<title>SidenavModule&#45;&gt;SidenavComponent </title>
<path fill="none" stroke="#000000" stroke-dasharray="5,2" d="M236.5,-187.1061C236.5,-187.1061 236.5,-205.991 236.5,-205.991"/>
<polygon fill="#000000" stroke="#000000" points="233.0001,-205.9909 236.5,-215.991 240.0001,-205.991 233.0001,-205.9909"/>
</g>
<!-- SharedModule -->
<g id="node4" class="node">
<title>SharedModule</title>
<polygon fill="#8dd3c7" stroke="#000000" points="159.9231,-122 156.9231,-126 135.9231,-126 132.9231,-122 61.0769,-122 61.0769,-86 159.9231,-86 159.9231,-122"/>
<text text-anchor="middle" x="110.5" y="-99.8" font-family="Times,serif" font-size="14.00" fill="#000000">SharedModule</text>
</g>
<!-- SharedModule&#45;&gt;SidenavModule -->
<g id="edge3" class="edge">
<title>SharedModule&#45;&gt;SidenavModule</title>
<path fill="none" stroke="#000000" d="M110.5,-122.1061C110.5,-141.3391 110.5,-169 110.5,-169 110.5,-169 174.1593,-169 174.1593,-169"/>
<polygon fill="#000000" stroke="#000000" points="174.1593,-172.5001 184.1593,-169 174.1593,-165.5001 174.1593,-172.5001"/>
</g>
</g>
</svg>
