<?xml version="1.0" encoding="UTF-8" standalone="no"?>
<!DOCTYPE svg PUBLIC "-//W3C//DTD SVG 1.1//EN"
 "http://www.w3.org/Graphics/SVG/1.1/DTD/svg11.dtd">
<!-- Generated by graphviz version 2.40.1 (20161225.0304)
 -->
<!-- Title: dependencies Pages: 1 -->
<svg width="2526pt" height="211pt"
 viewBox="0.00 0.00 2526.00 211.00" xmlns="http://www.w3.org/2000/svg" xmlns:xlink="http://www.w3.org/1999/xlink">
<g id="graph0" class="graph" transform="scale(1 1) rotate(0) translate(4 207)">
<title>dependencies</title>
<polygon fill="#ffffff" stroke="transparent" points="-4,4 -4,-207 2522,-207 2522,4 -4,4"/>
<text text-anchor="start" x="1238.0091" y="-42.4" font-family="sans-serif" font-weight="bold" font-size="14.00" fill="#000000">Legend</text>
<polygon fill="#ffffb3" stroke="transparent" points="1025,-10 1025,-30 1045,-30 1045,-10 1025,-10"/>
<text text-anchor="start" x="1048.629" y="-15.4" font-family="sans-serif" font-size="14.00" fill="#000000"> &#160;Declarations</text>
<polygon fill="#8dd3c7" stroke="transparent" points="1138,-10 1138,-30 1158,-30 1158,-10 1138,-10"/>
<text text-anchor="start" x="1161.7251" y="-15.4" font-family="sans-serif" font-size="14.00" fill="#000000"> &#160;Module</text>
<polygon fill="#80b1d3" stroke="transparent" points="1224,-10 1224,-30 1244,-30 1244,-10 1224,-10"/>
<text text-anchor="start" x="1247.7812" y="-15.4" font-family="sans-serif" font-size="14.00" fill="#000000"> &#160;Bootstrap</text>
<polygon fill="#fdb462" stroke="transparent" points="1321,-10 1321,-30 1341,-30 1341,-10 1321,-10"/>
<text text-anchor="start" x="1344.6732" y="-15.4" font-family="sans-serif" font-size="14.00" fill="#000000"> &#160;Providers</text>
<polygon fill="#fb8072" stroke="transparent" points="1417,-10 1417,-30 1437,-30 1437,-10 1417,-10"/>
<text text-anchor="start" x="1440.7258" y="-15.4" font-family="sans-serif" font-size="14.00" fill="#000000"> &#160;Exports</text>
<g id="clust1" class="cluster">
<title>cluster_AnalysisModule</title>
<polygon fill="none" stroke="#000000" stroke-dasharray="1,5" points="8,-70 8,-195 2510,-195 2510,-70 8,-70"/>
</g>
<g id="clust2" class="cluster">
<title>cluster_AnalysisModule_declarations</title>
<polygon fill="none" stroke="#000000" points="310,-78 310,-130 2502,-130 2502,-78 310,-78"/>
</g>
<g id="clust17" class="cluster">
<title>cluster_AnalysisModule_imports</title>
<polygon fill="none" stroke="#000000" points="16,-78 16,-130 302,-130 302,-78 16,-78"/>
</g>
<!-- CrowdComponent -->
<g id="node1" class="node">
<title>CrowdComponent</title>
<polygon fill="#ffffb3" stroke="#000000" points="2493.937,-122 2374.063,-122 2374.063,-86 2493.937,-86 2493.937,-122"/>
<text text-anchor="middle" x="2434" y="-99.8" font-family="Times,serif" font-size="14.00" fill="#000000">CrowdComponent</text>
</g>
<!-- AnalysisModule -->
<g id="node15" class="node">
<title>AnalysisModule</title>
<polygon fill="#8dd3c7" stroke="#000000" points="1317.0424,-187 1314.0424,-191 1293.0424,-191 1290.0424,-187 1208.9576,-187 1208.9576,-151 1317.0424,-151 1317.0424,-187"/>
<text text-anchor="middle" x="1263" y="-164.8" font-family="Times,serif" font-size="14.00" fill="#000000">AnalysisModule</text>
</g>
<!-- CrowdComponent&#45;&gt;AnalysisModule -->
<g id="edge1" class="edge">
<title>CrowdComponent&#45;&gt;AnalysisModule</title>
<path fill="none" stroke="#000000" d="M2434,-122.3228C2434,-145.6602 2434,-183 2434,-183 2434,-183 1327.1312,-183 1327.1312,-183"/>
<polygon fill="#000000" stroke="#000000" points="1327.1313,-179.5001 1317.1312,-183 1327.1312,-186.5001 1327.1313,-179.5001"/>
</g>
<!-- PreferenceComponent -->
<g id="node2" class="node">
<title>PreferenceComponent</title>
<polygon fill="#ffffb3" stroke="#000000" points="2356.6699,-122 2215.3301,-122 2215.3301,-86 2356.6699,-86 2356.6699,-122"/>
<text text-anchor="middle" x="2286" y="-99.8" font-family="Times,serif" font-size="14.00" fill="#000000">PreferenceComponent</text>
</g>
<!-- PreferenceComponent&#45;&gt;AnalysisModule -->
<g id="edge2" class="edge">
<title>PreferenceComponent&#45;&gt;AnalysisModule</title>
<path fill="none" stroke="#000000" d="M2286,-122.2921C2286,-144.2057 2286,-178 2286,-178 2286,-178 1327.2786,-178 1327.2786,-178"/>
<polygon fill="#000000" stroke="#000000" points="1327.2787,-174.5001 1317.2786,-178 1327.2786,-181.5001 1327.2787,-174.5001"/>
</g>
<!-- PopulationComponent -->
<g id="node3" class="node">
<title>PopulationComponent</title>
<polygon fill="#ffffb3" stroke="#000000" points="2197.0014,-122 2054.9986,-122 2054.9986,-86 2197.0014,-86 2197.0014,-122"/>
<text text-anchor="middle" x="2126" y="-99.8" font-family="Times,serif" font-size="14.00" fill="#000000">PopulationComponent</text>
</g>
<!-- PopulationComponent&#45;&gt;AnalysisModule -->
<g id="edge3" class="edge">
<title>PopulationComponent&#45;&gt;AnalysisModule</title>
<path fill="none" stroke="#000000" d="M2126,-122.0267C2126,-142.7672 2126,-174 2126,-174 2126,-174 1327.3114,-174 1327.3114,-174"/>
<polygon fill="#000000" stroke="#000000" points="1327.3115,-170.5001 1317.3114,-174 1327.3114,-177.5001 1327.3115,-170.5001"/>
</g>
<!-- EquipmentComponent -->
<g id="node4" class="node">
<title>EquipmentComponent</title>
<polygon fill="#ffffb3" stroke="#000000" points="2037.2716,-122 1894.7284,-122 1894.7284,-86 2037.2716,-86 2037.2716,-122"/>
<text text-anchor="middle" x="1966" y="-99.8" font-family="Times,serif" font-size="14.00" fill="#000000">EquipmentComponent</text>
</g>
<!-- EquipmentComponent&#45;&gt;AnalysisModule -->
<g id="edge4" class="edge">
<title>EquipmentComponent&#45;&gt;AnalysisModule</title>
<path fill="none" stroke="#000000" d="M1966,-122.1061C1966,-141.3391 1966,-169 1966,-169 1966,-169 1327.2868,-169 1327.2868,-169"/>
<polygon fill="#000000" stroke="#000000" points="1327.2868,-165.5001 1317.2868,-169 1327.2867,-172.5001 1327.2868,-165.5001"/>
</g>
<!-- ScenePortraitComponent -->
<g id="node5" class="node">
<title>ScenePortraitComponent</title>
<polygon fill="#ffffb3" stroke="#000000" points="1876.2492,-122 1719.7508,-122 1719.7508,-86 1876.2492,-86 1876.2492,-122"/>
<text text-anchor="middle" x="1798" y="-99.8" font-family="Times,serif" font-size="14.00" fill="#000000">ScenePortraitComponent</text>
</g>
<!-- ScenePortraitComponent&#45;&gt;AnalysisModule -->
<g id="edge5" class="edge">
<title>ScenePortraitComponent&#45;&gt;AnalysisModule</title>
<path fill="none" stroke="#000000" d="M1798,-122.302C1798,-140.2699 1798,-165 1798,-165 1798,-165 1327.2428,-165 1327.2428,-165"/>
<polygon fill="#000000" stroke="#000000" points="1327.2429,-161.5001 1317.2428,-165 1327.2428,-168.5001 1327.2429,-161.5001"/>
</g>
<!-- PermeabilityComponent -->
<g id="node6" class="node">
<title>PermeabilityComponent</title>
<polygon fill="#ffffb3" stroke="#000000" points="1701.3725,-122 1548.6275,-122 1548.6275,-86 1701.3725,-86 1701.3725,-122"/>
<text text-anchor="middle" x="1625" y="-99.8" font-family="Times,serif" font-size="14.00" fill="#000000">PermeabilityComponent</text>
</g>
<!-- PermeabilityComponent&#45;&gt;AnalysisModule -->
<g id="edge6" class="edge">
<title>PermeabilityComponent&#45;&gt;AnalysisModule</title>
<path fill="none" stroke="#000000" d="M1625,-122.027C1625,-138.3976 1625,-160 1625,-160 1625,-160 1327.1951,-160 1327.1951,-160"/>
<polygon fill="#000000" stroke="#000000" points="1327.1951,-156.5001 1317.1951,-160 1327.195,-163.5001 1327.1951,-156.5001"/>
</g>
<!-- AgeComponent -->
<g id="node7" class="node">
<title>AgeComponent</title>
<polygon fill="#ffffb3" stroke="#000000" points="1530.1542,-122 1425.8458,-122 1425.8458,-86 1530.1542,-86 1530.1542,-122"/>
<text text-anchor="middle" x="1478" y="-99.8" font-family="Times,serif" font-size="14.00" fill="#000000">AgeComponent</text>
</g>
<!-- AgeComponent&#45;&gt;AnalysisModule -->
<g id="edge7" class="edge">
<title>AgeComponent&#45;&gt;AnalysisModule</title>
<path fill="none" stroke="#000000" d="M1478,-122.1871C1478,-137.1824 1478,-156 1478,-156 1478,-156 1327.2536,-156 1327.2536,-156"/>
<polygon fill="#000000" stroke="#000000" points="1327.2536,-152.5001 1317.2536,-156 1327.2535,-159.5001 1327.2536,-152.5001"/>
</g>
<!-- ConsumerComponent -->
<g id="node8" class="node">
<title>ConsumerComponent</title>
<polygon fill="#ffffb3" stroke="#000000" points="1407.3795,-122 1268.6205,-122 1268.6205,-86 1407.3795,-86 1407.3795,-122"/>
<text text-anchor="middle" x="1338" y="-99.8" font-family="Times,serif" font-size="14.00" fill="#000000">ConsumerComponent</text>
</g>
<!-- ConsumerComponent&#45;&gt;AnalysisModule -->
<g id="edge8" class="edge">
<title>ConsumerComponent&#45;&gt;AnalysisModule</title>
<path fill="none" stroke="#000000" d="M1292.9155,-122.1061C1292.9155,-122.1061 1292.9155,-140.991 1292.9155,-140.991"/>
<polygon fill="#000000" stroke="#000000" points="1289.4156,-140.9909 1292.9155,-150.991 1296.4156,-140.991 1289.4156,-140.9909"/>
</g>
<!-- GenderComponent -->
<g id="node9" class="node">
<title>GenderComponent</title>
<polygon fill="#ffffb3" stroke="#000000" points="1250.0297,-122 1127.9703,-122 1127.9703,-86 1250.0297,-86 1250.0297,-122"/>
<text text-anchor="middle" x="1189" y="-99.8" font-family="Times,serif" font-size="14.00" fill="#000000">GenderComponent</text>
</g>
<!-- GenderComponent&#45;&gt;AnalysisModule -->
<g id="edge9" class="edge">
<title>GenderComponent&#45;&gt;AnalysisModule</title>
<path fill="none" stroke="#000000" d="M1229.4969,-122.1061C1229.4969,-122.1061 1229.4969,-140.991 1229.4969,-140.991"/>
<polygon fill="#000000" stroke="#000000" points="1225.9969,-140.9909 1229.4969,-150.991 1232.9969,-140.991 1225.9969,-140.9909"/>
</g>
<!-- BrandComponent -->
<g id="node10" class="node">
<title>BrandComponent</title>
<polygon fill="#ffffb3" stroke="#000000" points="1109.5451,-122 994.4549,-122 994.4549,-86 1109.5451,-86 1109.5451,-122"/>
<text text-anchor="middle" x="1052" y="-99.8" font-family="Times,serif" font-size="14.00" fill="#000000">BrandComponent</text>
</g>
<!-- BrandComponent&#45;&gt;AnalysisModule -->
<g id="edge10" class="edge">
<title>BrandComponent&#45;&gt;AnalysisModule</title>
<path fill="none" stroke="#000000" d="M1052,-122.1871C1052,-137.1824 1052,-156 1052,-156 1052,-156 1198.9363,-156 1198.9363,-156"/>
<polygon fill="#000000" stroke="#000000" points="1198.9363,-159.5001 1208.9363,-156 1198.9362,-152.5001 1198.9363,-159.5001"/>
</g>
<!-- OperatorsComponent -->
<g id="node11" class="node">
<title>OperatorsComponent</title>
<polygon fill="#ffffb3" stroke="#000000" points="976.0254,-122 839.9746,-122 839.9746,-86 976.0254,-86 976.0254,-122"/>
<text text-anchor="middle" x="908" y="-99.8" font-family="Times,serif" font-size="14.00" fill="#000000">OperatorsComponent</text>
</g>
<!-- OperatorsComponent&#45;&gt;AnalysisModule -->
<g id="edge11" class="edge">
<title>OperatorsComponent&#45;&gt;AnalysisModule</title>
<path fill="none" stroke="#000000" d="M908,-122.027C908,-138.3976 908,-160 908,-160 908,-160 1198.6967,-160 1198.6967,-160"/>
<polygon fill="#000000" stroke="#000000" points="1198.6967,-163.5001 1208.6967,-160 1198.6967,-156.5001 1198.6967,-163.5001"/>
</g>
<!-- RegionComponent -->
<g id="node12" class="node">
<title>RegionComponent</title>
<polygon fill="#ffffb3" stroke="#000000" points="821.7744,-122 700.2256,-122 700.2256,-86 821.7744,-86 821.7744,-122"/>
<text text-anchor="middle" x="761" y="-99.8" font-family="Times,serif" font-size="14.00" fill="#000000">RegionComponent</text>
</g>
<!-- RegionComponent&#45;&gt;AnalysisModule -->
<g id="edge12" class="edge">
<title>RegionComponent&#45;&gt;AnalysisModule</title>
<path fill="none" stroke="#000000" d="M761,-122.302C761,-140.2699 761,-165 761,-165 761,-165 1198.8002,-165 1198.8002,-165"/>
<polygon fill="#000000" stroke="#000000" points="1198.8003,-168.5001 1208.8002,-165 1198.8002,-161.5001 1198.8003,-168.5001"/>
</g>
<!-- EquipmentBrandComponent -->
<g id="node13" class="node">
<title>EquipmentBrandComponent</title>
<polygon fill="#ffffb3" stroke="#000000" points="682.4832,-122 505.5168,-122 505.5168,-86 682.4832,-86 682.4832,-122"/>
<text text-anchor="middle" x="594" y="-99.8" font-family="Times,serif" font-size="14.00" fill="#000000">EquipmentBrandComponent</text>
</g>
<!-- EquipmentBrandComponent&#45;&gt;AnalysisModule -->
<g id="edge13" class="edge">
<title>EquipmentBrandComponent&#45;&gt;AnalysisModule</title>
<path fill="none" stroke="#000000" d="M594,-122.1061C594,-141.3391 594,-169 594,-169 594,-169 1198.8196,-169 1198.8196,-169"/>
<polygon fill="#000000" stroke="#000000" points="1198.8196,-172.5001 1208.8196,-169 1198.8196,-165.5001 1198.8196,-172.5001"/>
</g>
<!-- PreferenceFieldComponent -->
<g id="node14" class="node">
<title>PreferenceFieldComponent</title>
<polygon fill="#ffffb3" stroke="#000000" points="487.9482,-122 318.0518,-122 318.0518,-86 487.9482,-86 487.9482,-122"/>
<text text-anchor="middle" x="403" y="-99.8" font-family="Times,serif" font-size="14.00" fill="#000000">PreferenceFieldComponent</text>
</g>
<!-- PreferenceFieldComponent&#45;&gt;AnalysisModule -->
<g id="edge14" class="edge">
<title>PreferenceFieldComponent&#45;&gt;AnalysisModule</title>
<path fill="none" stroke="#000000" d="M403,-122.0267C403,-142.7672 403,-174 403,-174 403,-174 1198.8774,-174 1198.8774,-174"/>
<polygon fill="#000000" stroke="#000000" points="1198.8774,-177.5001 1208.8774,-174 1198.8773,-170.5001 1198.8774,-177.5001"/>
</g>
<!-- SharedModule -->
<g id="node16" class="node">
<title>SharedModule</title>
<polygon fill="#8dd3c7" stroke="#000000" points="294.4231,-122 291.4231,-126 270.4231,-126 267.4231,-122 195.5769,-122 195.5769,-86 294.4231,-86 294.4231,-122"/>
<text text-anchor="middle" x="245" y="-99.8" font-family="Times,serif" font-size="14.00" fill="#000000">SharedModule</text>
</g>
<!-- SharedModule&#45;&gt;AnalysisModule -->
<g id="edge15" class="edge">
<title>SharedModule&#45;&gt;AnalysisModule</title>
<path fill="none" stroke="#000000" d="M245,-122.2921C245,-144.2057 245,-178 245,-178 245,-178 1198.6278,-178 1198.6278,-178"/>
<polygon fill="#000000" stroke="#000000" points="1198.6278,-181.5001 1208.6278,-178 1198.6278,-174.5001 1198.6278,-181.5001"/>
</g>
<!-- AnalysisRoutingModule -->
<g id="node17" class="node">
<title>AnalysisRoutingModule</title>
<polygon fill="#8dd3c7" stroke="#000000" points="177.6596,-122 174.6596,-126 153.6596,-126 150.6596,-122 24.3404,-122 24.3404,-86 177.6596,-86 177.6596,-122"/>
<text text-anchor="middle" x="101" y="-99.8" font-family="Times,serif" font-size="14.00" fill="#000000">AnalysisRoutingModule</text>
</g>
<!-- AnalysisRoutingModule&#45;&gt;AnalysisModule -->
<g id="edge16" class="edge">
<title>AnalysisRoutingModule&#45;&gt;AnalysisModule</title>
<path fill="none" stroke="#000000" d="M101,-122.3228C101,-145.6602 101,-183 101,-183 101,-183 1198.8995,-183 1198.8995,-183"/>
<polygon fill="#000000" stroke="#000000" points="1198.8995,-186.5001 1208.8995,-183 1198.8994,-179.5001 1198.8995,-186.5001"/>
</g>
</g>
</svg>
