<?xml version="1.0" encoding="UTF-8" standalone="no"?>
<!DOCTYPE svg PUBLIC "-//W3C//DTD SVG 1.1//EN"
 "http://www.w3.org/Graphics/SVG/1.1/DTD/svg11.dtd">
<!-- Generated by graphviz version 2.40.1 (20161225.0304)
 -->
<!-- Title: dependencies Pages: 1 -->
<svg width="1124pt" height="211pt"
 viewBox="0.00 0.00 1124.00 211.00" xmlns="http://www.w3.org/2000/svg" xmlns:xlink="http://www.w3.org/1999/xlink">
<g id="graph0" class="graph" transform="scale(1 1) rotate(0) translate(4 207)">
<title>dependencies</title>
<polygon fill="#ffffff" stroke="transparent" points="-4,4 -4,-207 1120,-207 1120,4 -4,4"/>
<text text-anchor="start" x="537.0091" y="-42.4" font-family="sans-serif" font-weight="bold" font-size="14.00" fill="#000000">Legend</text>
<polygon fill="#ffffb3" stroke="transparent" points="324,-10 324,-30 344,-30 344,-10 324,-10"/>
<text text-anchor="start" x="347.629" y="-15.4" font-family="sans-serif" font-size="14.00" fill="#000000"> &#160;Declarations</text>
<polygon fill="#8dd3c7" stroke="transparent" points="437,-10 437,-30 457,-30 457,-10 437,-10"/>
<text text-anchor="start" x="460.7251" y="-15.4" font-family="sans-serif" font-size="14.00" fill="#000000"> &#160;Module</text>
<polygon fill="#80b1d3" stroke="transparent" points="523,-10 523,-30 543,-30 543,-10 523,-10"/>
<text text-anchor="start" x="546.7812" y="-15.4" font-family="sans-serif" font-size="14.00" fill="#000000"> &#160;Bootstrap</text>
<polygon fill="#fdb462" stroke="transparent" points="620,-10 620,-30 640,-30 640,-10 620,-10"/>
<text text-anchor="start" x="643.6732" y="-15.4" font-family="sans-serif" font-size="14.00" fill="#000000"> &#160;Providers</text>
<polygon fill="#fb8072" stroke="transparent" points="716,-10 716,-30 736,-30 736,-10 716,-10"/>
<text text-anchor="start" x="739.7258" y="-15.4" font-family="sans-serif" font-size="14.00" fill="#000000"> &#160;Exports</text>
<g id="clust1" class="cluster">
<title>cluster_AnalysisModule</title>
<polygon fill="none" stroke="#000000" stroke-dasharray="1,5" points="8,-70 8,-195 1108,-195 1108,-70 8,-70"/>
</g>
<g id="clust2" class="cluster">
<title>cluster_AnalysisModule_declarations</title>
<polygon fill="none" stroke="#000000" points="310,-78 310,-130 1100,-130 1100,-78 310,-78"/>
</g>
<g id="clust8" class="cluster">
<title>cluster_AnalysisModule_imports</title>
<polygon fill="none" stroke="#000000" points="16,-78 16,-130 302,-130 302,-78 16,-78"/>
</g>
<!-- CrowdComponent -->
<g id="node1" class="node">
<title>CrowdComponent</title>
<polygon fill="#ffffb3" stroke="#000000" points="1091.937,-122 972.063,-122 972.063,-86 1091.937,-86 1091.937,-122"/>
<text text-anchor="middle" x="1032" y="-99.8" font-family="Times,serif" font-size="14.00" fill="#000000">CrowdComponent</text>
</g>
<!-- AnalysisModule -->
<g id="node6" class="node">
<title>AnalysisModule</title>
<polygon fill="#8dd3c7" stroke="#000000" points="618.0424,-187 615.0424,-191 594.0424,-191 591.0424,-187 509.9576,-187 509.9576,-151 618.0424,-151 618.0424,-187"/>
<text text-anchor="middle" x="564" y="-164.8" font-family="Times,serif" font-size="14.00" fill="#000000">AnalysisModule</text>
</g>
<!-- CrowdComponent&#45;&gt;AnalysisModule -->
<g id="edge1" class="edge">
<title>CrowdComponent&#45;&gt;AnalysisModule</title>
<path fill="none" stroke="#000000" d="M1032,-122.2921C1032,-144.2057 1032,-178 1032,-178 1032,-178 628.1427,-178 628.1427,-178"/>
<polygon fill="#000000" stroke="#000000" points="628.1428,-174.5001 618.1427,-178 628.1427,-181.5001 628.1428,-174.5001"/>
</g>
<!-- PreferenceComponent -->
<g id="node2" class="node">
<title>PreferenceComponent</title>
<polygon fill="#ffffb3" stroke="#000000" points="954.6699,-122 813.3301,-122 813.3301,-86 954.6699,-86 954.6699,-122"/>
<text text-anchor="middle" x="884" y="-99.8" font-family="Times,serif" font-size="14.00" fill="#000000">PreferenceComponent</text>
</g>
<!-- PreferenceComponent&#45;&gt;AnalysisModule -->
<g id="edge2" class="edge">
<title>PreferenceComponent&#45;&gt;AnalysisModule</title>
<path fill="none" stroke="#000000" d="M884,-122.1061C884,-141.3391 884,-169 884,-169 884,-169 628.2836,-169 628.2836,-169"/>
<polygon fill="#000000" stroke="#000000" points="628.2837,-165.5001 618.2836,-169 628.2836,-172.5001 628.2837,-165.5001"/>
</g>
<!-- PopulationComponent -->
<g id="node3" class="node">
<title>PopulationComponent</title>
<polygon fill="#ffffb3" stroke="#000000" points="795.0014,-122 652.9986,-122 652.9986,-86 795.0014,-86 795.0014,-122"/>
<text text-anchor="middle" x="724" y="-99.8" font-family="Times,serif" font-size="14.00" fill="#000000">PopulationComponent</text>
</g>
<!-- PopulationComponent&#45;&gt;AnalysisModule -->
<g id="edge3" class="edge">
<title>PopulationComponent&#45;&gt;AnalysisModule</title>
<path fill="none" stroke="#000000" d="M724,-122.027C724,-138.3976 724,-160 724,-160 724,-160 628.1687,-160 628.1687,-160"/>
<polygon fill="#000000" stroke="#000000" points="628.1687,-156.5001 618.1687,-160 628.1687,-163.5001 628.1687,-156.5001"/>
</g>
<!-- EquipmentComponent -->
<g id="node4" class="node">
<title>EquipmentComponent</title>
<polygon fill="#ffffb3" stroke="#000000" points="635.2716,-122 492.7284,-122 492.7284,-86 635.2716,-86 635.2716,-122"/>
<text text-anchor="middle" x="564" y="-99.8" font-family="Times,serif" font-size="14.00" fill="#000000">EquipmentComponent</text>
</g>
<!-- EquipmentComponent&#45;&gt;AnalysisModule -->
<g id="edge4" class="edge">
<title>EquipmentComponent&#45;&gt;AnalysisModule</title>
<path fill="none" stroke="#000000" d="M564,-122.1061C564,-122.1061 564,-140.991 564,-140.991"/>
<polygon fill="#000000" stroke="#000000" points="560.5001,-140.9909 564,-150.991 567.5001,-140.991 560.5001,-140.9909"/>
</g>
<!-- ScenePortraitComponent -->
<g id="node5" class="node">
<title>ScenePortraitComponent</title>
<polygon fill="#ffffb3" stroke="#000000" points="474.2492,-122 317.7508,-122 317.7508,-86 474.2492,-86 474.2492,-122"/>
<text text-anchor="middle" x="396" y="-99.8" font-family="Times,serif" font-size="14.00" fill="#000000">ScenePortraitComponent</text>
</g>
<!-- ScenePortraitComponent&#45;&gt;AnalysisModule -->
<g id="edge5" class="edge">
<title>ScenePortraitComponent&#45;&gt;AnalysisModule</title>
<path fill="none" stroke="#000000" d="M396,-122.027C396,-138.3976 396,-160 396,-160 396,-160 499.919,-160 499.919,-160"/>
<polygon fill="#000000" stroke="#000000" points="499.919,-163.5001 509.919,-160 499.919,-156.5001 499.919,-163.5001"/>
</g>
<!-- SharedModule -->
<g id="node7" class="node">
<title>SharedModule</title>
<polygon fill="#8dd3c7" stroke="#000000" points="294.4231,-122 291.4231,-126 270.4231,-126 267.4231,-122 195.5769,-122 195.5769,-86 294.4231,-86 294.4231,-122"/>
<text text-anchor="middle" x="245" y="-99.8" font-family="Times,serif" font-size="14.00" fill="#000000">SharedModule</text>
</g>
<!-- SharedModule&#45;&gt;AnalysisModule -->
<g id="edge6" class="edge">
<title>SharedModule&#45;&gt;AnalysisModule</title>
<path fill="none" stroke="#000000" d="M245,-122.1061C245,-141.3391 245,-169 245,-169 245,-169 499.886,-169 499.886,-169"/>
<polygon fill="#000000" stroke="#000000" points="499.886,-172.5001 509.886,-169 499.886,-165.5001 499.886,-172.5001"/>
</g>
<!-- AnalysisRoutingModule -->
<g id="node8" class="node">
<title>AnalysisRoutingModule</title>
<polygon fill="#8dd3c7" stroke="#000000" points="177.6596,-122 174.6596,-126 153.6596,-126 150.6596,-122 24.3404,-122 24.3404,-86 177.6596,-86 177.6596,-122"/>
<text text-anchor="middle" x="101" y="-99.8" font-family="Times,serif" font-size="14.00" fill="#000000">AnalysisRoutingModule</text>
</g>
<!-- AnalysisRoutingModule&#45;&gt;AnalysisModule -->
<g id="edge7" class="edge">
<title>AnalysisRoutingModule&#45;&gt;AnalysisModule</title>
<path fill="none" stroke="#000000" d="M101,-122.2921C101,-144.2057 101,-178 101,-178 101,-178 499.5265,-178 499.5265,-178"/>
<polygon fill="#000000" stroke="#000000" points="499.5266,-181.5001 509.5265,-178 499.5265,-174.5001 499.5266,-181.5001"/>
</g>
</g>
</svg>
