<svg xmlns="http://www.w3.org/2000/svg" width="802.459" height="733"><path fill="#D4ECFF" d="M605.357 645.419l-1.178-2.009 34.726-20.355a13.632 13.632 0 0113.888.063l28.698 17.145-1.193 2-28.7-17.148a11.304 11.304 0 00-11.515-.05l-34.726 20.354zm103.33-5.624l-1.18-2.005 90.086-53.232a2.79 2.79 0 001.377-2.407 2.779 2.779 0 00-1.361-2.416L767.7 561.369l1.217-1.98 29.899 18.36a5.078 5.078 0 012.479 4.412 5.09 5.09 0 01-2.523 4.401l-90.085 53.233zm-98.106-73.325l-1.157-2.017 87.794-50.553a2.87 2.87 0 001.451-2.514 2.874 2.874 0 00-1.456-2.512l-46.465-26.688a20.597 20.597 0 01-10.317-17.818V311.483a19.092 19.092 0 018.364-15.804l6.978-4.747 1.309 1.922-6.979 4.746a16.778 16.778 0 00-7.346 13.883v152.886a18.266 18.266 0 009.151 15.802l46.465 26.688a5.166 5.166 0 012.622 4.524 5.18 5.18 0 01-2.614 4.533l-87.8 50.554z"/><path fill="#9629E6" d="M604.771 614.75a2.309 2.309 0 01-2.008-1.15 2.323 2.323 0 01.828-3.179l34.726-20.355a14.768 14.768 0 0115.069.063l28.7 17.145a2.325 2.325 0 11-2.385 3.993l-28.698-17.144a10.15 10.15 0 00-10.333-.047l-34.726 20.355a2.285 2.285 0 01-1.173.319z"/><path fill="#D4ECFF" d="M555.524 723.6L362.298 612.043c-6.72-3.88-5.876-10.654 1.88-15.132 7.758-4.479 19.491-4.966 26.209-1.086l193.227 111.56c6.719 3.877 5.876 10.65-1.881 15.131-7.757 4.477-19.491 4.964-26.209 1.084zm184.813-295.171c-1.442-.831-2.996-1.557-4.612-2.204l.047-.004-8.872-3.934.668 1.551c-6.724-1.338-14.022-1.423-20.807-.221l.414-1.722-10.438 4.625.062.005c-1.355.576-2.674 1.193-3.902 1.903-13.1 7.564-13.1 19.826.001 27.388 13.101 7.564 34.341 7.564 47.439.002 13.099-7.563 13.099-19.825 0-27.389z"/><path fill="#5793CE" d="M727.733 435.568c-6.141 3.548-16.093 3.548-22.231 0-6.139-3.543-6.139-9.288 0-12.831 6.139-3.544 16.091-3.544 22.231 0 6.137 3.543 6.137 9.288 0 12.831z"/><g fill="#5793CE"><path d="M716.616 431.599a5.342 5.342 0 01-5.341-5.343v-67.551h10.686v67.551a5.345 5.345 0 01-5.345 5.343z"/><path d="M720.376 361.158c-2.131 1.229-5.584 1.229-7.715 0-2.13-1.23-2.13-3.224 0-4.454 2.131-1.229 5.584-1.229 7.715 0 2.13 1.231 2.13 3.224 0 4.454z"/></g><path fill="#D4ECFF" d="M716.616 361.027a4.33 4.33 0 01-4.331-4.333v-63.5h8.663v63.5a4.332 4.332 0 01-4.332 4.333z"/><path fill="#396CAA" d="M778.902 326.469v-2.485l3.513-.508 3.933-2.942c.637-.478 1.854-.522 2.591-.097l2.902 1.675 2.874-.417v2.52l-.011.003c-.016.286-.23.567-.66.759l-9.159 4.08c-.727.323-1.752.286-2.4-.09l-3.051-1.761c-.349-.201-.515-.469-.515-.738l-.017.001z"/><path fill="#5793CE" d="M779.279 323.315l7.068-5.287c.637-.478 1.854-.523 2.591-.098l5.271 3.043c.737.427.658 1.129-.166 1.496l-9.159 4.08c-.727.323-1.752.284-2.4-.09l-3.051-1.759c-.646-.375-.712-.968-.154-1.385z"/><path fill="#D4ECFF" d="M767.36 335.312c1.01 0 2.021-.236 2.827-.698l10.981-6.342a1.267 1.267 0 10-1.269-2.195l-10.979 6.34c-.816.471-2.306.471-3.123 0l-18.252-10.57a1.264 1.264 0 00-1.73.464 1.263 1.263 0 00.466 1.73l18.249 10.569c.805.465 1.815.702 2.83.702z"/><radialGradient id="a" cx="545.146" cy="298.945" r="108.859" gradientUnits="userSpaceOnUse"><stop offset="0" stop-color="#01c8ef"/><stop offset=".089" stop-color="#03bee9"/><stop offset=".239" stop-color="#08a5d7"/><stop offset=".429" stop-color="#107bbb"/><stop offset=".446" stop-color="#1177b8"/><stop offset="1" stop-color="#112564"/></radialGradient><path fill="url(#a)" d="M661.775 312.079l17.634-10.249-9.881-4.463-8.452 5.993z"/><path fill="#5793CE" d="M775.005 296.864a23.209 23.209 0 01-2.966-1.847l-37.575-27.535c-6.781-4.975-13.768-6.256-19.167-3.517-.141.073-.262.171-.397.247l-.041-.013-51.895 30.106 4.664 1.553L685.8 304.1l24.725 17.539 19.512 10.354.885.188c4.552-3.831 9.644-7.12 12.437-12.707 4.832-8.455 18.282-10.874 26.19-17.727.799.506 1.598.98 2.395 1.39 1.632-1.602 2.073-3.885 3.061-6.273z"/><path fill="#396CAA" d="M791.489 284.447c-.808 0-1.54.284-2.13.743l-.009-.01-50.78 29.394 1.854 7.595 1.903-.909c-2.907 4.535-7.367 7.519-11.407 10.923l5.74 1.216 49.731-28.938c.231-.101.467-.187.691-.298a12.653 12.653 0 001.914-1.22l.087-.05-.032.003c3.787-2.922 5.924-8.011 5.924-14.361v-.598a3.488 3.488 0 00-3.486-3.49z"/><path fill="#EAEAEA" d="M721.945 262.564c3.171.115 6.568 1.204 9.972 3.225-3.403-2.02-6.801-3.109-9.972-3.225z"/><path fill="#5793CE" d="M745.072 316.94v-.597a3.489 3.489 0 00-3.491-3.487 3.488 3.488 0 00-3.489 3.487v.597c0 4.665-1.482 8.093-4.069 9.405-2.924 1.478-7.365.391-11.886-2.921l-37.576-27.535c-5.781-4.238-11.705-5.765-16.672-4.439l31.033-18.004-35.958 20.86 4.664 1.553 18.172 8.242 24.725 17.539 19.512 10.354.885.187c4.552-3.829 9.644-7.118 12.437-12.705.48-.842 1.068-1.61 1.707-2.342-.002-.066.006-.127.006-.194z"/><path fill="#D4ECFF" d="M730.018 335.107c-4.11.002-8.638-1.672-13.078-4.927l-37.576-27.534c-4.518-3.311-8.959-4.4-11.886-2.919-2.587 1.311-4.069 4.736-4.069 9.402a3.49 3.49 0 11-6.98 0c0-7.39 2.878-13.085 7.892-15.629 5.397-2.734 12.386-1.454 19.17 3.516l37.574 27.536c4.521 3.312 8.964 4.399 11.886 2.918 2.588-1.31 4.072-4.737 4.072-9.4v-.598a3.49 3.49 0 016.978 0v.598c0 7.388-2.877 13.083-7.896 15.627-1.866.946-3.918 1.41-6.087 1.41z"/><path fill="#173D7A" d="M700.487 396.668s-7.075-3.568-11.424 1.743c-4.344 5.315-10.557 17.86-10.749 26.337-.194 8.479 6.706 7.904 10.809 5.896 4.102-2.004 16.085-19.388 16.811-22.793.725-3.405-.857-8.012-2.008-8.91-1.154-.902-3.439-2.273-3.439-2.273z"/><path fill="#5793CE" d="M702.031 394.96l.327 7.333c.07 1.56-.714 3.043-2.07 3.813-1.236.703-3.032 1.239-5.459.852-5.33-.857-5.808-2.381-6.188-9.711-.381-7.331 13.39-2.287 13.39-2.287z"/><path fill="#173D7A" d="M674.582 382.57s-7.075-3.571-11.424 1.746c-4.343 5.312-10.557 17.859-10.749 26.333-.194 8.478 6.706 7.905 10.809 5.9 4.103-2.009 16.086-19.39 16.811-22.797.725-3.405-.856-8.009-2.008-8.911-1.154-.901-3.439-2.271-3.439-2.271z"/><path fill="#5793CE" d="M676.126 380.865l.327 7.331c.071 1.56-.713 3.045-2.07 3.813-1.235.703-3.03 1.24-5.459.849-5.33-.856-5.807-2.379-6.187-9.708-.383-7.332 13.389-2.285 13.389-2.285z"/><path fill="#FDD762" d="M739.274 246.258c-2.095-34.08-36.909 5.015-36.909 5.015l-23.826 23.354-21.456 23.569a21.145 21.145 0 00-5.328 16.99l8.679 66.093a6.494 6.494 0 006.512 5.643 21.788 21.788 0 003.217-.282c7.744-1.205 7.172-8.567 7.172-8.567l-1.587-61.814 45.057-27.161c-.001-.002 20.563-8.759 18.469-42.84z"/><path fill="#FDD762" d="M765.176 259.244c-2.094-34.08-36.905 5.013-36.905 5.013l-23.826 23.354-21.458 23.57a21.155 21.155 0 00-5.33 16.99l8.683 66.09c.428 3.263 3.222 5.67 6.512 5.646.93-.008 1.995-.095 3.216-.282 7.741-1.208 7.173-8.567 7.173-8.567l-1.589-61.814 45.059-27.161c-.002-.001 20.559-8.76 18.465-42.839z"/><path fill="#983BE9" d="M744.581 149.846c26.396 10.941 25.865 26.544 25.865 26.544s-5.171 57.196-3.405 95.396c.739 15.97-84.844 17.188-72.081-25.414 15.048-50.231 9.409-90.897 16.452-97.031 7.046-6.133 26.342-2.325 33.169.505z"/><ellipse transform="rotate(14.442 739.865 160.273)" fill="#FFC2B0" cx="739.891" cy="160.284" rx="13.613" ry="10.02"/><path fill="#FFF" d="M741.895 171.829c-1.582 0-3.206-.203-4.817-.62-3.782-.975-7.066-2.986-9.255-5.67-2.278-2.791-3.105-5.976-2.335-8.967 1.553-6.022 9.275-9.25 17.219-7.214 3.78.974 7.064 2.986 9.251 5.67 2.277 2.792 3.107 5.976 2.337 8.968-.771 2.989-3.034 5.376-6.377 6.722-1.844.738-3.896 1.111-6.023 1.111zm-4.022-20.569c-4.903 0-8.998 2.28-9.943 5.943-.565 2.193.092 4.589 1.849 6.741 1.851 2.268 4.664 3.982 7.929 4.82 3.263.843 6.553.697 9.267-.39 2.58-1.039 4.313-2.817 4.877-5.009v-.002c.566-2.192-.092-4.586-1.848-6.741-1.851-2.267-4.665-3.979-7.929-4.82a16.93 16.93 0 00-4.202-.542z"/><path fill="#FFC2B0" d="M733.999 148.656s.227 1.06-.229 9.423c-.144 2.629 9.062 5.086 11.442 2.705 2.38-2.38 1.429-4.855 2-13.804.572-8.947-13.213 1.676-13.213 1.676z"/><path fill="#EA9C92" d="M747.213 146.98s-2.268 8.297-13.442 11.479l.169-7.54 13.273-3.939z"/><circle fill="#FFC2B0" cx="734.623" cy="130.985" r="20.316"/><path fill="#EA9C92" d="M739.289 131.729s-11.187 4.793-18.931 4.848c-7.745.054-6.038-6.43-6.038-6.43l22.989-3.323 1.98 4.905z"/><path fill="#173D7A" d="M718.05 132.993s9.745-4.136 18.293-2.41c2.009.404 3.871 1.479 5.166 3.068.422.52.957.992 1.563 1.131 1.515.344 3.997-5.945 6.944-6.089 2.945-.143 4.909 1.943 2.495 5.81-2.415 3.868-1.598 8.197-.487 8.818 1.112.62 12.9-8.408 2.503-29.012-10.4-20.601-36.816-9.505-40.927-5.329 0 0-4.329 3.771-7.847.415 0 .001-3.946 29.555 12.297 23.598z"/><path fill="#FFC2B0" d="M755.641 218.178v15.456a6.293 6.293 0 01-2.055 4.652l-31.751 28.945 3.608 5.518 41.93-30.408a8.526 8.526 0 003.471-6.009l2.834-26.952-18.037 8.798z"/><path fill="#8A2AE3" d="M768.212 168.661s9.632 14.486 13.222 52.616c0 0-16.454 5.322-25.793 2.301-9.338-3.02 12.571-54.917 12.571-54.917z"/><path fill="#5D5D5D" d="M753.881 186.977s-3.771 20.182-3.983 29.667a6.054 6.054 0 003.983 5.848v-35.515z"/><path fill="#173D7A" d="M745.645 287.33l-7.019-.928-45.298-26.152c-1.452-.838-3.988-.733-5.665.235l-32.098 18.524-4.242-.561v4.226h.002c-.027.556.291 1.09.975 1.486l51.335 29.64c1.454.838 3.991.732 5.668-.235l34.957-20.177c.941-.543 1.412-1.244 1.385-1.904v-4.154z"/><path fill="#396CAA" d="M711.607 270.802l-3.218-1.856h-35.382l-17.442 10.064-4.242-.561v4.226h.002c-.027.556.291 1.09.975 1.486l51.335 29.64c.769.441 1.84.619 2.927.547l5.045-43.546z"/><path fill="#5793CE" d="M653.204 278.698l-1.881-.249v4.226h.002c-.027.556.291 1.09.975 1.486l.904.523v-5.986z"/><path fill="#274F89" d="M704.153 314.041c1.376.521 3.343.408 4.812-.3v-7.187h-4.812v7.487z"/><path fill="#FFF" d="M703.635 309.578L652.3 279.94c-1.452-.84-1.269-2.302.406-3.272l34.957-20.174c1.677-.969 4.213-1.074 5.665-.234l51.338 29.638c1.451.839 1.27 2.303-.406 3.271l-34.957 20.175c-1.677.968-4.214 1.074-5.668.234z"/><path fill="#D4ECFF" d="M702.768 305.087l-42.687-24.644c-1.206-.697-1.058-1.915.339-2.722l18.731-10.532c1.395-.808 3.506-.894 4.712-.196l42.686 24.646c1.209.697 1.056 1.914-.338 2.719l-18.731 10.535c-1.395.803-3.503.892-4.712.194z"/><path fill="#FFC2B0" d="M689.648 255.52l-.532 3.544a26.219 26.219 0 00.231 9.082l.633 3.12a4.385 4.385 0 003.517 3.448 2.422 2.422 0 002.842-2.112l.846-7.572s1.938 2.539 2.873 2.539c.935 0-1.046-7.584-3.164-11.876-2.115-4.292-7.246-.173-7.246-.173z"/><path fill="#FFC2B0" d="M707.05 199.226l-5.509 10.902a21.4 21.4 0 00-2.254 8.273l-2.394 37.291-7.245-.173-3.29-41.875a15.404 15.404 0 01.188-3.872l3.757-21.238 16.747 10.692z"/><path fill="#173D7A" d="M701.897 312.426l-4.304-5.618-45.266-26.21c-1.454-.838-2.627-3.09-2.624-5.026l.038-37.061-2.604-3.398 2.446-1.416.003.004c.467-.304 1.09-.293 1.775.102l51.3 29.702c1.453.84 2.626 3.092 2.623 5.028l-.044 40.358c-.001 1.091-.373 1.848-.959 2.152l-2.384 1.383z"/><path fill="#396CAA" d="M670.594 291.175l-3.216-1.862-17.654-30.664.019-20.138-2.604-3.398 2.446-1.416.003.004c.467-.304 1.09-.293 1.775.102l51.3 29.702c.769.443 1.454 1.283 1.934 2.262l-34.003 25.408z"/><path fill="#5793CE" d="M648.295 236.62l-1.156-1.508 2.446-1.416.003.004c.467-.304 1.09-.293 1.775.102l.904.524-3.972 2.294z"/><path fill="#274F89" d="M703.129 263.833c1.141.933 2.024 2.694 2.145 4.319l-5.013 2.896-2.403-4.172 5.271-3.043z"/><path fill="#5793CE" d="M700.221 264.919l-51.301-29.702c-1.452-.84-2.629.05-2.633 1.985l-.043 40.359c-.003 1.938 1.172 4.188 2.623 5.026l51.302 29.704c1.449.84 2.628-.049 2.632-1.985l.041-40.359c.004-1.938-1.171-4.188-2.621-5.028z"/><path fill="#FFC2B0" d="M725.443 272.749l-.824 1.705a11.407 11.407 0 01-4.284 4.75l-5.097 3.142c-1.586.978-3.591 1.059-5.202.12-.056-.033-.116-.067-.173-.104-1.618-1.014-1.766-3.339-.434-4.71l5.324-5.475s-2.992 2.294-3.829 1.369c-.616-.677 2.9-3.976 5.602-4.086 2.699-.107 5.309-2.229 5.309-2.229l3.608 5.518z"/><path fill="#8A2AE3" d="M711.942 149.26s-19.521 21.24-27.396 40.726c0 0 6.676 12.026 23.014 16.746 16.34 4.718 4.382-57.472 4.382-57.472z"/><path fill="#6614CF" d="M703.885 205.471l3.165-30.564-7.455 28.636a42.993 42.993 0 004.29 1.928z"/><path fill="#FFF" d="M726.563 144.974l-5.244-1.44s2.502 3.939 6.159 4.943c3.654 1.004 4.225-2.091 4.225-2.091l-5.14-1.412z"/><path fill="#9629E6" d="M590.512 132.597L382.313 12.37c-6.841-3.949-13.056-4.047-17.755-1.083l-.009-.047-26.123 15.131 17.518 3.268a43.46 43.46 0 00-.106 2.746v491.057c0 19.497 11.853 42.145 26.476 50.588l205.272 118.537a7923.36 7923.36 0 01-5.846 18.197l25.547-14.816h-.008c5.924-3.054 9.707-10.697 9.707-21.706v-491.06c-.001-19.496-11.853-42.144-26.474-50.585z"/><path fill="#D4ECFF" d="M786.214 554.149l-31.271-18.053-31.267 18.053 31.267 18.054z"/><path fill="#E8A200" d="M754.943 555.458v-20.344l37.361-21.567v20.343z"/><path fill="#F9BF30" d="M754.943 535.114l-37.357-21.567v20.343l37.357 21.568z"/><path fill="#FDD762" d="M792.304 513.547l-37.361-21.569-37.357 21.569 37.357 21.567z"/><path fill="#FFF" d="M662.697 278.657c0 3.198-2.245 4.493-5.014 2.895-2.77-1.598-5.015-5.486-5.015-8.683s2.245-4.493 5.015-2.894c2.769 1.599 5.014 5.486 5.014 8.682z"/><path fill="#9629E6" d="M610.004 552.143a2.323 2.323 0 01-2.017-1.168 2.325 2.325 0 01.854-3.177l87.796-50.551c.785-.455.87-1.207.87-1.509s-.086-1.051-.873-1.502l-46.466-26.688a21.76 21.76 0 01-10.9-18.826v-152.89a20.254 20.254 0 018.872-16.764l6.979-4.747a2.326 2.326 0 112.616 3.848l-6.978 4.747a15.6 15.6 0 00-6.837 12.915v152.89a17.094 17.094 0 008.565 14.792l46.466 26.688a6.322 6.322 0 013.207 5.534 6.326 6.326 0 01-3.2 5.54l-87.796 50.553a2.277 2.277 0 01-1.158.315z"/><path fill="#9629E6" d="M355.837 523.441c0 19.497 11.853 42.145 26.476 50.588l205.272 118.537a7923.36 7923.36 0 01-5.846 18.197l25.547-14.816h-.008c5.924-3.054 9.707-10.697 9.707-21.706v-491.06c0-10.171-3.245-21.184-8.408-30.603l-252.74 145.919v224.944z"/><path fill="#6730E3" d="M564.246 709.469L356.049 589.242c-14.62-8.44-26.476-31.091-26.476-50.585V47.601c0-19.496 11.855-28.456 26.476-20.016l208.197 120.227c14.622 8.442 26.476 31.091 26.476 50.586v491.06c0 19.491-11.854 28.455-26.476 20.011z"/><path fill="#D3008D" d="M363.999 181.393L347.881 170.3l-6.292-20.649-6.299 13.379-5.739-2.676v11.372l1.849 2.886-1.849 8.203v7.822l12.038-1.598 13.849 17.831-3.664-20.494z"/><path fill="#FFF" d="M560.37 693.213L360.314 577.686c-10.867-6.273-19.68-23.106-19.68-37.596V56.006c0-14.491 8.813-21.149 19.68-14.878L560.37 156.653c10.866 6.275 19.677 23.108 19.677 37.6v484.083c0 14.492-8.811 21.151-19.677 14.877z"/><path fill="#EDEDED" d="M478.534 544.537l-98.198-56.695V249.128l46.268 26.712a103.864 103.864 0 0151.931 89.948v178.749z"/><path fill="#D4ECFF" d="M345.225 226.036l.01.019c-9.91-5.901-23.681-5.175-38.89 3.605-30.11 17.387-54.604 59.812-54.604 94.579v25.091l1.033.607 98.377 57.872 1.492-30.021 1.225-11.659 5.218-18.104.598-2.771 11.188-22.541 8.81-11.007 7.144-8.517 17.404-13.704 1.53-1.138 8.556-3.682 11.507-2.992h8.975l10.035 1.758-99.608-57.395z"/><path fill="#D4ECFF" d="M357.763 458.074l3.189-1.84V341.927c-1.658 2.257-2.432 5.151-3.189 8.092v108.055z"/><path fill="#D4ECFF" d="M457.176 515.35l-99.413-57.276 1.025-108.21 3.796-10.928 11.506-19.79 13.615-16.148 12.274-9.819 13.27-8.055 24.077-2.76 12.735 7.212 7.115 10.891 2.241 16.722-.765 180.876z"/><path fill="#5793CE" d="M345.234 226.055c-8.29-4.938-19.291-5.215-31.567-.034L414.958 284.5l10.863-2.826h8.975l10.035 1.758-99.606-57.396.009.019z"/><path fill="#E9F6FF" d="M316.053 225.076c-3.152 1.163-6.392 2.673-9.708 4.584a79.082 79.082 0 00-6.547 4.252l100.974 58.295 3.457-2.722 1.53-1.138 8.556-3.682 3.414-.886-101.676-58.703z"/><path fill="#FFF" d="M387.678 302.516l13.738-10.816-100.942-58.278c-4.571 3.206-8.973 6.966-13.139 11.163l100.343 57.931z"/><path fill="#5793CE" d="M460.363 513.509l-3.188 1.841V320.303c0-32.735-23.065-46.053-51.417-29.684-28.353 16.369-51.419 56.318-51.419 89.057v26.294l-3.188 1.84v-26.295c0-34.766 24.495-77.192 54.607-94.577 30.11-17.385 54.604-3.242 54.604 31.525v195.046z"/><path fill="#AEDEED" d="M281.892 305.59l-5.596 22.875 2.798 36.958-7.092-4.176-9.081-20.089 7.949-25.388z"/><path opacity=".4" fill="#FFF" d="M444.55 451.981c-.604 0-1.234-.181-1.862-.546l-72.295-41.74c-2.128-1.227-3.797-4.366-3.797-7.15v-56.882c0-1.671.618-2.986 1.695-3.607.954-.556 2.117-.494 3.266.171l72.293 41.738c2.13 1.228 3.798 4.37 3.798 7.15v56.883c0 1.671-.617 2.987-1.693 3.612a2.83 2.83 0 01-1.405.371zm-74.852-107.972a.514.514 0 00-.245.06c-.245.145-.531.646-.531 1.595v56.882c0 1.961 1.205 4.313 2.635 5.137l72.293 41.74c.188.104.648.33.942.172.244-.142.529-.644.529-1.596v-56.883c0-1.959-1.206-4.313-2.634-5.136l-72.295-41.74c-.137-.081-.432-.231-.694-.231z"/><path fill="#B2D3EA" d="M392.836 412.016l-.508-.293c-1.886-1.089-3.411-4.007-3.411-6.521v-27.104c0-2.515 1.525-3.669 3.411-2.58l.508.295c1.887 1.086 3.413 4.005 3.413 6.519v27.105c0 2.511-1.526 3.665-3.413 2.579zm14.542 8.394l-.51-.296c-1.884-1.084-3.412-4.008-3.412-6.519v-15.863c0-2.515 1.528-3.668 3.412-2.58l.51.293c1.883 1.088 3.412 4.009 3.412 6.521v15.862c0 2.513-1.529 3.669-3.412 2.582z"/><path fill="#396CAA" d="M421.918 428.806l-.509-.295c-1.886-1.086-3.413-4.008-3.413-6.521v-37.764c0-2.51 1.527-3.668 3.413-2.579l.509.295c1.885 1.087 3.41 4.006 3.41 6.518v37.765c0 2.511-1.525 3.669-3.41 2.581z"/><path fill="#D4ECFF" d="M261.509 709.601c24.29 14.023 63.675 14.023 87.965-.002 24.29-14.023 24.29-36.759 0-50.783-24.29-14.022-63.672-14.022-87.961 0-24.292 14.024-24.292 36.761-.004 50.785z"/><path fill="#173D7A" d="M267.38 665.176c-4.334 1.853-7.061 6.682-6.7 11.873.172 2.449.467 4.732.977 5.804 1.381 2.895 5.9 6.866 13.112 4.018 7.214-2.852 23.23-17.9 23.831-27.756 1.114-18.298-19.809 1.189-31.22 6.061zm42.378 30.267s-1.729 10.552-.892 12.482c.843 1.938 5.862 6.063 13.279 5.172 7.414-.894 28.752-8.251 33.503-22.311 7.367-21.802-41.185 1.635-41.185 1.635l-4.705 3.022z"/><path fill="#FDD762" d="M330.608 526.771l1.649 164.711c-.174 5.729-3.927 10.566-8.97 11.418-.626.106-1.294.191-2.01.253-5.107.45-8.086-1.745-9.785-4.049-1.374-1.863-2.098-4.229-2.201-6.65l-2.103-70.31-10.496-62.868-14.522 111.267c-.234 3.009-1.675 5.792-3.994 7.324-1.599 1.061-3.77 1.884-6.62 1.799-4.157-.126-7.043-2.354-8.803-4.339-1.396-1.571-2.13-3.736-2.102-5.955l5.754-66.946 2.144-85.393 62.059 9.738z"/><path fill="#FFC2B0" d="M309.277 379.337l-2.604 15.006s-.097 5.123 5.621 6.542c5.717 1.419 7.485-2.273 7.485-2.273l2.585-16.902-13.087-2.373z"/><path fill="#FFC2B0" d="M340.787 371.114c-4.059 12.857-16.619 20.32-28.055 16.67-11.435-3.654-17.416-17.039-13.357-29.894 4.06-12.859 16.622-20.323 28.057-16.67 11.433 3.653 17.416 17.037 13.355 29.894z"/><path fill="#983BE9" d="M309.956 394.619c-.395-.162-24.258-15.525-33.078.552-14.383 26.219-3.863 56.278-8.994 121.547-.858 10.921 14.697 17.575 22.051 21.777 6.546 3.737 13.867 6.029 21.404 6.088 7.457.059 21.755-6.57 21.238-16.317-2.388-44.836 1.575-82.628 5.237-119.299 0 0-4.576-4.926-27.858-14.348z"/><path fill="#D8892B" d="M296.693 559.276L282.17 670.545c-.234 3.007-1.675 5.79-3.994 7.322-.376.252-.793.487-1.237.702 3.015-2.26 11.819-95.655 13.446-106.043 1.629-10.394 6.308-13.25 6.308-13.25z"/><path fill="#FFC2B0" d="M387.331 408.201l19.977-39.653-6.268-3.959-20.704 30.204zm-131.773-42.106l9.716-44.212 7.741.082-2.905 36.67z"/><path fill="#983BE9" d="M337.814 408.967s22.344 8.814 41.545-15.403c1.688-2.135 5.164-1.896 6.164.403 1.728 3.97 3.889 9.967 1.268 15.596-11.604 24.902-51.195 24.038-60.734 37.998-9.539 13.959 11.757-38.594 11.757-38.594zm-42.993-19.859s-18.45 1.419-21.105-14.55c-1.368-8.223-1.777-13.136-1.855-15.966a3.22 3.22 0 00-3.617-3.13c-4.418.549-11.258 1.866-12.188 4.829-1.386 4.422-3.991 26.106 14.233 59.381 11.939 21.799 24.532-30.564 24.532-30.564z"/><path fill="#FFC2B0" d="M265.234 321.991l.177-5.042a10.379 10.379 0 011.509-5.034l5.108-8.396 1.333-1.678a3.882 3.882 0 015.108-.874l1.174.74a4.82 4.82 0 012.248 4.395l-2.643 7.175 3.344-.646a1.185 1.185 0 011.392.953 1.18 1.18 0 01-.723 1.311l-5.459 2.204-4.96 7.017-7.608-2.125zm142.22 46.809l2.34-4.471a10.37 10.37 0 001.177-5.121l-.292-9.823-.33-2.119a3.884 3.884 0 00-4.008-3.283l-1.389.062a4.83 4.83 0 00-4.128 2.712l-1.247 7.543-2.583-2.214a1.186 1.186 0 00-1.685.14 1.181 1.181 0 00-.017 1.496l3.657 4.614.945 9.611 7.56.853z"/><path fill="#721BD5" d="M323.244 442.566c-1.942 8.855 9.756 75.657-3.253 100.085 6.504-2.635 12.936-7.792 12.586-14.386-1.709-32.064-.165-60.516 2.192-87.539 11.124-5.636 28.507-8.998 40.804-18.002-13.184 4.859-50.596 11.936-52.329 19.842z"/><path fill="#FFF" d="M301.378 390.378l3.312-3.401s5.451 5.568 9.83 6.533c0 0 5.269 1.492 7.845 1.622l2.134 5.882c-.001 0-17.357-1.244-23.121-10.636z"/><path fill="#173D7A" d="M325.223 371.515c.914-.017 1.764-.432 2.283-1.184.907-1.314.335-7.341 3.128-8.339 4.362-1.557 14.712 3.905 15.82-11.835.573-8.185-3.408-10.358-3.39-14.84 0 0 .346 2.247-20.709.849-21.051-1.4-27.896 17.295-28.395 26.2-.498 8.904 3.811 23.545 18.199 25.555 2.387.333 12.405-7.726 12.146-8.782-.259-1.056-4.041-.998-3.494-4.073.458-2.563 2.02-3.507 4.412-3.551z"/><path fill="#EDEDED" d="M433.219 181.382l-63.609-36.725c-2.827-1.634-5.118-6.012-5.118-9.78V87.579c0-3.769 2.291-5.502 5.118-3.87l63.609 36.727c2.829 1.631 5.121 6.01 5.121 9.777v47.299c0 3.77-2.292 5.502-5.121 3.87z"/><path fill="#721BD5" d="M426.925 106.347l-63.61-36.725c-1.257-.728-2.396-.755-3.288-.265l.004-.04-6.169 3.563s2.73.997 4.334 1.585v46.323c0 3.77 2.292 8.147 5.119 9.779l60.798 35.102v5.437l6.235-3.592-.033-.01c1.055-.642 1.729-2.053 1.729-4.08v-47.298c-.001-3.77-2.292-8.147-5.119-9.779z"/><path fill="#983BE9" d="M420.643 170.916l-63.612-36.727c-2.824-1.633-5.117-6.01-5.117-9.779V77.113c0-3.769 2.293-5.502 5.117-3.87l63.612 36.725c2.825 1.634 5.117 6.01 5.117 9.78v47.298c0 3.768-2.292 5.5-5.117 3.87z"/><path fill="#FFF" d="M420.643 109.968L357.03 73.243c-1.606-.928-3.022-.736-3.961.264.684-.056 1.444.105 2.258.576l63.612 36.727c2.825 1.631 5.117 6.01 5.117 9.777v47.299c0 1.627-.445 2.843-1.155 3.604 1.687-.141 2.858-1.763 2.858-4.444V119.75c.001-3.772-2.291-8.15-5.116-9.782z"/><path d="M378.423 117.891c0 2.737-1.922 3.846-4.292 2.479-2.37-1.369-4.292-4.698-4.292-7.436 0-2.735 1.922-3.845 4.292-2.477 2.37 1.369 4.292 4.696 4.292 7.434zm13.004 7.505c0 2.737-1.923 3.847-4.294 2.479-2.37-1.369-4.293-4.697-4.293-7.434s1.923-3.847 4.293-2.478c2.371 1.37 4.294 4.698 4.294 7.433zm13.001 7.509c0 2.735-1.921 3.845-4.294 2.477-2.367-1.369-4.29-4.696-4.29-7.434s1.923-3.847 4.29-2.479c2.373 1.371 4.294 4.699 4.294 7.436z" fill="#FFF"/><path fill="#EDEDED" d="M559.804 431.056l-63.612-36.727c-2.827-1.63-5.117-6.007-5.117-9.777V278.105c0-3.771 2.29-5.502 5.117-3.87l63.612 36.727c2.826 1.632 5.118 6.01 5.118 9.777v106.448c0 3.769-2.292 5.502-5.118 3.869z"/><path fill="#5793CE" d="M553.508 296.873l-63.609-36.725c-1.26-.728-2.398-.755-3.29-.266a.452.452 0 00.006-.041l-6.17 3.565s2.732.995 4.336 1.585v105.472c0 3.769 2.292 8.146 5.118 9.779l60.8 35.103v5.434l6.233-3.589-.034-.01c1.053-.643 1.73-2.054 1.73-4.081V306.651c0-3.768-2.293-8.146-5.12-9.778z"/><path fill="#D4ECFF" d="M547.226 420.59l-63.61-36.727c-2.828-1.632-5.121-6.01-5.121-9.778V267.639c0-3.769 2.293-5.501 5.121-3.87l63.61 36.726c2.825 1.632 5.117 6.01 5.117 9.78v106.447c0 3.768-2.292 5.501-5.117 3.868z"/><path fill="#FFF" d="M547.226 300.494l-63.61-36.726c-1.608-.927-3.026-.737-3.961.266.683-.056 1.442.104 2.257.575l63.611 36.727c2.825 1.632 5.116 6.01 5.116 9.777V417.56c0 1.627-.441 2.843-1.156 3.604 1.691-.139 2.86-1.763 2.86-4.442V310.274c0-3.77-2.292-8.149-5.117-9.78z"/><path fill="#EDEDED" d="M559.804 574.873l-63.612-36.724c-2.827-1.634-5.117-6.01-5.117-9.777V421.923c0-3.769 2.29-5.501 5.117-3.87l63.612 36.727c2.826 1.634 5.118 6.011 5.118 9.78v106.446c0 3.767-2.292 5.501-5.118 3.867z"/><path fill="#D3008D" d="M553.508 440.691l-63.609-36.727c-1.26-.728-2.398-.754-3.29-.264a.495.495 0 00.006-.04l-6.17 3.566s2.732.995 4.336 1.583V514.28c0 3.769 2.292 8.148 5.118 9.778l60.8 35.105v5.434l6.233-3.588-.034-.014c1.053-.644 1.73-2.053 1.73-4.081V450.471c0-3.769-2.293-8.149-5.12-9.78z"/><path fill="#FF2C9C" d="M547.226 564.407l-63.61-36.725c-2.828-1.632-5.121-6.009-5.121-9.778V411.457c0-3.769 2.293-5.501 5.121-3.873l63.61 36.731c2.825 1.629 5.117 6.01 5.117 9.777v106.446c0 3.77-2.292 5.502-5.117 3.869z"/><path fill="#FFF" d="M547.226 444.311l-63.61-36.727c-1.608-.926-3.026-.732-3.961.268.683-.056 1.442.104 2.257.575l63.611 36.728c2.825 1.63 5.116 6.011 5.116 9.776v106.448c0 1.624-.441 2.843-1.156 3.605 1.691-.142 2.86-1.763 2.86-4.445V454.093c0-3.772-2.292-8.149-5.117-9.782z"/><path fill="#D4ECFF" d="M132.936 621.122l55.906-31.501c2.485-1.401 6.795-1.178 9.629.498l35.57 21.035c2.836 1.673 3.116 4.167.633 5.567l-55.906 31.504c-2.485 1.4-6.797 1.177-9.63-.5l-35.568-21.034c-2.835-1.678-3.117-4.168-.634-5.569z"/><path fill="#F9BF30" d="M177.958 632.391l63.991-36.063c1.267-.712 1.871-1.677 1.903-2.692.003 0 .03.022.03.022l.074-7.126s-2.25 1.845-3.572 2.926l-39.871-23.58c-3.244-1.918-8.181-2.175-11.023-.572l-61.165 34.466-4.678-2.767-.084 7.193.028-.024c.018 1.233.888 2.533 2.631 3.567l40.713 24.077c3.245 1.916 8.179 2.174 11.023.573z"/><path fill="#FDD762" d="M125.58 594.112l63.991-36.058c2.844-1.603 7.779-1.346 11.024.57l40.712 24.077c3.245 1.921 3.568 4.772.726 6.376l-63.994 36.058c-2.841 1.604-7.777 1.346-11.021-.574l-40.713-24.076c-3.244-1.917-3.569-4.769-.725-6.373z"/><path fill="#FFF" d="M178.042 625.136l63.99-36.058c1.615-.912 2.174-2.228 1.788-3.546-.3.62-.825 1.189-1.644 1.652l-63.993 36.057c-2.844 1.603-7.779 1.35-11.022-.574l-40.713-24.073c-1.399-.829-2.22-1.828-2.513-2.83-.739 1.523.061 3.358 2.369 4.722l40.713 24.076c3.245 1.923 8.18 2.177 11.025.574z"/><path d="M192.712 584.763c-2.356-1.392-2.333-3.61.05-4.954 2.386-1.344 6.229-1.307 8.584.088 2.356 1.396 2.332 3.614-.051 4.959-2.383 1.34-6.226 1.302-8.583-.093zm-13.081 7.371c-2.355-1.392-2.332-3.61.052-4.954 2.386-1.346 6.227-1.303 8.583.088 2.356 1.395 2.333 3.612-.051 4.954-2.386 1.345-6.227 1.303-8.584-.088zm-13.079 7.371c-2.356-1.395-2.333-3.61.053-4.956 2.384-1.346 6.226-1.304 8.583.091 2.356 1.392 2.333 3.611-.051 4.956-2.387 1.341-6.229 1.303-8.585-.091z" fill="#FFF"/><path fill="#D4ECFF" d="M111.157 563.439c-17.47 10.088-45.795 10.084-63.266 0-17.471-10.086-17.472-26.438-.001-36.524 17.47-10.089 45.796-10.089 63.267 0 17.469 10.086 17.469 26.439 0 36.524z"/><path fill="#6614CF" d="M54.234 232.944s1.151 23.712 2.956 39.648c1.804 15.937 40.185-12.239 40.185-12.239v-18.145l-43.141-9.264z"/><path fill="#173D7A" d="M74.678 527.967c.576 1.441 10.52 13.547 20.464 16.572 4.324 1.315 7.229 1.487 9.135 1.261 1.912-.226 3.093-2.197 2.448-4.013-1.711-4.814-6.616-14.849-19.078-21.026-16.861-8.361-12.969 7.206-12.969 7.206zm-3.316 4.651s3.747 8.789 4.899 16.139c.705 4.483-1.756 10.307-3.783 14.17-1.257 2.394-4.444 2.936-6.448 1.115-3.25-2.949-7.386-8.071-8.07-15.429-1.153-12.395 0-14.557 0-14.557l13.402-1.438z"/><path fill="#FDD762" d="M47.407 382.816s-1.297 15.634 0 32.928c1.298 17.294 5.94 98.171 6.805 117.627 0 0-.433 5.892 10.971 4.593 11.403-1.297 10.485-7.837 10.485-7.837s16.014-.215 16.519-9.655c.503-9.437 16.403-112.723 16.403-149.855l-61.183 12.199z"/><path fill="#FFC2B0" d="M114.513 301.98l7.847 12.151 26.971 32.575s-.929 3.024-4.286 3.816c-2.624.617-25.307-21.024-35.103-30.52a7.523 7.523 0 01-1.034-9.561l5.605-8.461z"/><path fill="#8A2AE3" d="M99.207 252.099s12.464-.323 16.802 17.689c4.34 18.015 7.733 40.569 3.959 42.443-11.327 5.625-18.496-.958-18.496-.958l-2.265-59.174z"/><path fill="#983BE9" d="M102.937 252.864a10.185 10.185 0 00-6.727-.371c-10.619 3.051-50.544 14.766-57.125 20.393-7.603 6.498 11.401 43.013 11.127 54.984-.274 11.972-1.624 26.087-2.682 39.102-1.057 13.014-2.49 20.149 8.156 25.683 10.645 5.531 28.82 5.788 42.427-4.576 13.604-10.369 11.136-17.462 10.57-24.988-.566-7.524-5.199-40.074-4.799-49.314 0 0 4.794-3.532 8.345-9.587 3.552-6.06-2.721-17.19-5.325-24.428-2.604-7.236 1.469-15.514.664-21.418-.415-3.044-2.358-4.531-4.631-5.48z"/><ellipse transform="rotate(-7.297 75.181 267.279)" fill="#FFF" cx="75.173" cy="267.234" rx="15.123" ry="12.005"/><ellipse transform="rotate(-7.297 75.194 267.31)" fill="#FFC2B0" cx="75.172" cy="267.233" rx="10.808" ry="8.58"/><path fill="#FFC2B0" d="M80.01 250.428s-7.207-5.927-8.625-2.926c-1.414 3.004-2.581 15.887-2.581 15.887l14.313 3.845-2.173-13.054s2.865-2.43-.934-3.752z"/><path fill="#FFC2B0" d="M102.378 236.309c-.695 11.783-10.811 20.771-22.592 20.075-11.783-.698-20.769-10.812-20.073-22.594.695-11.783 10.811-20.769 22.592-20.073 11.782.696 20.77 10.81 20.073 22.592z"/><path fill="#EA9C92" d="M70.389 251.236a69.488 69.488 0 00-.364 2.132c1.438 7.436 12.564 10.689 12.564 10.689l-1.644-9.878s1.349-1.143.967-2.289c-4.398-1.386-9.939-2.617-11.523-.654z"/><path fill="#FFC2B0" d="M102.378 236.309c-.695 11.783-10.811 20.771-22.592 20.075-11.783-.698-20.769-10.812-20.073-22.594.695-11.783 10.811-20.769 22.592-20.073 11.782.696 20.77 10.81 20.073 22.592zm-73.987 89.202l2.393 57.187 8.36.861 5.442-51.482z"/><path fill="#8A2AE3" d="M55.867 320.729c-.452-1.99-4.111-3.63-4.67-6.225-2.871-13.321-3.562-32.965-3.562-32.965l-2.336 26.833c2.695 7.958 5.011 15.265 4.915 19.497-.162 7.026-.695 14.795-1.321 22.643l.001.022c-.001.001 9.74-17.593 6.973-29.805z"/><path fill="#B45EF4" d="M40.681 271.713s-6.685 2.555-10.468 23.09c-3.784 20.533-6.613 41.104.132 43.755 6.745 2.649 12.38 4.644 14.365-.85 1.983-5.492 3.212-31.956 3.461-41.475.248-9.517.612-22.639-7.49-24.52z"/><path fill="#FFC2B0" d="M147.329 344.327s3.622 1.331 6.237 4.183c2.147 2.339 3.323 4.321 4.262 5.722 2.083 3.106 3.839 9.82 2.569 10.656-1.27.837-8.533-11.242-9.703-8.434-1.171 2.81.01 5.407-1.492 5.45-1.501.043-6.72-12.142-10.824-15.919-4.105-3.777 8.951-1.658 8.951-1.658z"/><path fill="#D8892B" d="M75.668 530.127s1.984-.026 4.575-.472l3.137-125.721-7.712 126.193z"/><path fill="#983BE9" d="M63.567 462.218l-4.448-5.805-46.783-27.087c-1.499-.869-2.713-3.196-2.711-5.196l.042-38.302-2.69-3.511 2.528-1.464.001.002c.484-.31 1.127-.303 1.835.106l53.019 30.696c1.499.868 2.712 3.196 2.711 5.195l-.045 41.71c-.001 1.128-.387 1.912-.992 2.227l-2.467 1.429z"/><path fill="#D29FFF" d="M31.215 440.255l-3.325-1.923L9.646 406.64l.02-20.812-2.69-3.511 2.528-1.464.001.002c.484-.31 1.127-.303 1.835.106l53.019 30.696c.793.459 1.502 1.327 1.997 2.338l-35.141 26.26z"/><path fill="#D29FFF" d="M8.168 383.874l-1.193-1.557 2.528-1.464.001.002c.484-.31 1.127-.303 1.835.106l.935.542-4.106 2.371z"/><path fill="#983BE9" d="M64.84 411.997c1.176.966 2.09 2.784 2.214 4.466l-5.181 2.993-2.482-4.313 5.449-3.146z"/><path fill="#B45EF4" d="M61.833 413.12L8.815 382.424c-1.499-.867-2.718.05-2.721 2.052l-.044 41.712c-.003 2.003 1.21 4.327 2.711 5.195l53.018 30.696c1.5.87 2.718-.049 2.72-2.051l.045-41.712c.003-1.999-1.211-4.327-2.711-5.196z"/><path fill="#FFF" d="M50.941 443.038l-2.524-1.459v-21.693l2.524 1.457zm-5.899-3.407l-2.524-1.457v-21.693l2.524 1.458zm-5.9-3.404l-2.524-1.459v-21.694l2.524 1.457z"/><path fill="#FFC2B0" d="M30.85 382.218s-2.21 13.351-1.876 17.626c.333 4.276 2.62 11.328 4.357 11.177 1.736-.148.057-17.192 3.107-15.496 3.05 1.7 3.371 4.612 4.751 3.582 1.382-1.028-2.409-15.594-1.398-21.911 1.012-6.318-8.941 5.022-8.941 5.022z"/><path fill="#EA9C92" d="M89.253 236.916c10.72 3.806 12.807 1.483 12.91 1.36a20.81 20.81 0 00.215-1.968 21.318 21.318 0 00-.711-6.827l-27.813-3.756c-.001.001 4.391 7.279 15.399 11.191z"/><path fill="#6614CF" d="M103.148 215.019c-2.526-2.165-11.644-12.873-27.976-10.346-10.208 1.58-18.812 8.541-20.72 24.426-1.286 10.702 2.643 21.244 9.878 29.037.392-.184.797-.349 1.16-.586 4.091-2.693 4.532-4.173 4.531-4.187l.904-8.107c-.028-1.149-.889-2.174-2.038-2.245-.888-.056-1.967-.482-2.992-1.824-2.346-3.066-1.265-7.851 3.428-8.031 2.451-.094 3.4-1.421 3.748-2.665a1.916 1.916 0 012.503-1.302c5.338 1.932 18.49 6.097 26.955 3.695 10.829-3.066 3.146-15.7.619-17.865z"/><path fill="#FFF" d="M90.97 246.569l6.537-1.796s-3.121 4.907-7.677 6.16c-4.557 1.252-5.265-2.605-5.265-2.605l6.405-1.759z"/><path fill="#D29FFF" d="M41.965 398.693l-5.57-3.189 2.091 3.414 2.817 1.04z"/><path fill="#6730E3" d="M164.911 407.81l63.837-36.332c1.263-.719 1.862-1.687 1.89-2.704l.03.024.044-7.126s-2.241 1.854-3.559 2.942l-39.973-23.41c-3.252-1.904-8.187-2.14-11.025-.527l-61.017 34.728-4.69-2.748-.053 7.193.028-.021c.023 1.231.897 2.528 2.647 3.553l40.814 23.903c3.254 1.905 8.19 2.139 11.027.525z"/><path fill="#9629E6" d="M112.368 369.758l63.837-36.331c2.837-1.615 7.772-1.38 11.025.524l40.815 23.902c3.253 1.904 3.588 4.756.752 6.371l-63.837 36.333c-2.835 1.613-7.773 1.379-11.024-.525l-40.814-23.903c-3.254-1.904-3.591-4.756-.754-6.371z"/><path fill="#FFF" d="M164.96 400.558l63.836-36.333c1.613-.918 2.165-2.234 1.774-3.553-.298.618-.821 1.192-1.637 1.658l-63.839 36.331c-2.837 1.616-7.773 1.378-11.024-.524l-40.814-23.903c-1.403-.82-2.229-1.816-2.526-2.817-.732 1.527.075 3.357 2.39 4.713l40.814 23.903c3.254 1.904 8.19 2.138 11.026.525z"/><path d="M179.46 360.122c-2.363-1.383-2.35-3.604.031-4.955 2.378-1.354 6.222-1.33 8.583.053s2.348 3.604-.031 4.956c-2.378 1.353-6.223 1.329-8.583-.054zm-13.049 7.425c-2.362-1.383-2.348-3.603.031-4.955 2.379-1.354 6.222-1.328 8.583.053 2.363 1.383 2.35 3.604-.031 4.956-2.377 1.354-6.222 1.33-8.583-.054zm-13.048 7.427c-2.362-1.383-2.347-3.601.03-4.954 2.38-1.354 6.222-1.331 8.584.052 2.362 1.383 2.348 3.604-.032 4.957-2.377 1.352-6.219 1.327-8.582-.055z" fill="#FFF"/><path d="M524.699 458.736c0 5.921-4.154 8.319-9.279 5.36-5.126-2.961-9.28-10.154-9.28-16.073 0-5.917 4.154-8.315 9.28-5.357 5.125 2.959 9.279 10.154 9.279 16.07zm3.869 16.731a7.207 7.207 0 00-.04-.274c-.397-2.494-2.757-4.683-4.313-4.127-2.403.855-5.462.438-8.796-1.487-3.332-1.925-6.394-5.037-8.798-8.671-1.556-2.352-3.914-2.889-4.312-.852l-.041.228-4.399 27.951 35.1 20.265-4.401-33.033z" fill="#D3008D"/><path d="M524.699 458.736c0 5.921-4.154 8.319-9.279 5.36-5.126-2.961-9.28-10.154-9.28-16.073 0-5.917 4.154-8.315 9.28-5.357 5.125 2.959 9.279 10.154 9.279 16.07zm3.869 16.731a7.207 7.207 0 00-.04-.274c-.397-2.494-2.757-4.683-4.313-4.127-2.403.855-5.462.438-8.796-1.487-3.332-1.925-6.394-5.037-8.798-8.671-1.556-2.352-3.914-2.889-4.312-.852l-.041.228-4.399 27.951 35.1 20.265-4.401-33.033zm6.886 54.302l-42.611-24.604v-3.07l42.611 24.601zm-12.867 5.991l-29.744-17.173v-3.073l29.744 17.174zm-4.011-9.027l-25.733-14.858v-3.071l25.733 14.86zm16.878 9.745l-12.867-7.427v-3.072l12.867 7.428z" fill="#FFF"/><path d="M535.553 324.534l-42.614-24.603v-3.072l42.614 24.602zm-12.867 5.991l-29.747-17.174v-3.073l29.747 17.176zm-4.011-9.027l-25.736-14.856v-3.074l25.736 14.86zm16.878 9.744l-12.867-7.428v-3.071l12.867 7.429zm0 19.208l-42.614-24.602v-3.072l42.614 24.604zm-12.867 5.992l-29.747-17.173v-3.073l29.747 17.173zm-4.011-9.028l-25.736-14.857v-3.07l25.736 14.858zm16.878 9.748l-12.867-7.431v-3.071l12.867 7.43zm0 19.207l-42.614-24.603v-3.073l42.614 24.603zm-12.867 5.992l-29.747-17.174v-3.074l29.747 17.176zm-4.011-9.028l-25.736-14.855v-3.074l25.736 14.859zm16.878 9.745l-12.867-7.429v-3.07l12.867 7.429z" fill="#5793CE"/><path d="M401.263 449.067l-30.398-17.552v-2.837l30.398 17.551zm18.841 10.877l-12.98-7.496v-2.836l12.98 7.494zm-17.794-4.093l-12.98-7.496v-2.836l12.98 7.494zm28.118 16.23l-23.304-13.452v-2.84l23.304 13.456zm15.95 15.391l-34.467-19.904v-2.834l34.467 19.9zm-7.704-16.807l-12.982-7.494v-2.839l12.982 7.496zm-54.827-25.477l-12.982-7.492v-2.84l12.982 7.495zm22.498 19.169l-35.544-20.519v-2.84l35.544 20.522zm-13.685-1.721l-21.442-12.383v-2.838l21.442 12.381z" fill="#FFF"/><path fill="#FDD762" d="M708.099 612.247a2.328 2.328 0 01-1.185-4.33L797 554.681a1.61 1.61 0 00.807-1.408c0-.281-.074-.981-.797-1.413l-24.584-14.752a2.326 2.326 0 012.394-3.988l24.583 14.752a6.229 6.229 0 013.056 5.42 6.239 6.239 0 01-3.093 5.396l-90.086 53.237c-.372.218-.78.322-1.181.322z"/><path fill="#D4ECFF" d="M725.714 653.028l-31.27-18.053-31.271 18.053 31.271 18.055z"/><path fill="#6730E3" d="M694.444 654.336v-20.344l37.356-21.568v20.344zm0-20.344l-37.361-21.568v20.344l37.361 21.568z"/><path fill="#9629E6" d="M731.8 612.424l-37.356-21.569-37.361 21.569 37.361 21.568z"/><path fill="#EDEDED" d="M392.953 179.052l6.296 20.651 16.115 11.09-12.225 4.982 3.664 20.496-13.85-17.83-13.851 1.837 3.664-16.263-12.226-19.1 16.117 7.519zm51.365 29.403l6.296 20.65 16.115 11.09-12.224 4.985 3.665 20.494-13.852-17.829-13.852 1.835 3.664-16.264-12.224-19.101 16.116 7.52zm-80.319-27.062L347.881 170.3l-6.292-20.649-.954 2.018v37.495l.954-.125 13.849 17.831-3.664-20.494z"/><path fill="#E8A200" d="M228.045 77.275l6.297 20.651 16.116 11.091L238.231 114l3.665 20.495-13.851-17.832-13.851 1.839 3.665-16.265-12.226-19.098 16.116 7.517z"/><path fill="#F9BF30" d="M198.113 87.457l7.52-4.318 11.615 5.419s-.039 7.809 0 7.995c.041.185-4.786.416-5.11.416-.326 0-14.025-9.512-14.025-9.512z"/><path fill="#E8A200" d="M241.896 134.495l-7.521 4.316-3.663-20.494s3.646-3.848 3.63-3.848c-.018 0 4.1.697 4.1.697l3.454 19.329z"/><path fill="#FDD762" d="M220.523 81.595l6.298 20.648 16.116 11.092-12.225 4.982 3.663 20.495-13.852-17.831-13.849 1.837 3.665-16.263-12.226-19.098 16.116 7.517z"/><path fill="#FFF" d="M234.375 138.812l-3.663-20.494 12.225-4.982-16.115-11.092-6.298-20.648-6.294 13.38-16.117-7.518 1.124 1.752 15.528 7.244 5.539-11.77 5.563 18.257 14.737 10.142-11.147 4.543 3.45 19.296 1.468 1.89z"/><path fill="#E8A200" d="M220.523 81.595l7.522-4.32 6.297 20.651-7.521 4.317z"/><path fill="#F9BF30" d="M250.458 109.017l-7.521 4.318-16.116-11.092 7.521-4.317z"/><path fill="#FFF" d="M227.195 102.763l-1.146-.662 8.123-4.725.17.55.534.369z"/><path fill="#E8A200" d="M279.41 106.678l6.296 20.65 16.115 11.091-12.225 4.984 3.666 20.494-13.852-17.83-13.851 1.837 3.664-16.265L257 112.541l16.114 7.519z"/><path fill="#F9BF30" d="M249.479 116.858l7.521-4.317 11.614 5.417s-.041 7.812 0 7.996c.041.186-4.789.418-5.113.418s-14.022-9.514-14.022-9.514z"/><path fill="#E8A200" d="M293.262 163.897l-7.521 4.317-3.664-20.495s3.647-3.847 3.63-3.847c-.015 0 4.1.694 4.1.694l3.455 19.331z"/><path fill="#FDD762" d="M271.891 110.995l6.296 20.651 16.115 11.088-12.226 4.986 3.664 20.495-13.849-17.83-13.852 1.835 3.667-16.263-12.227-19.099 16.117 7.518z"/><path fill="#FFF" d="M285.74 168.215l-3.664-20.495 12.226-4.985-16.115-11.089-6.296-20.65-6.295 13.381-16.116-7.518 1.122 1.753 15.529 7.242 5.539-11.767 5.562 18.254 14.74 10.143-11.15 4.544 3.45 19.295 1.468 1.892z"/><path fill="#E8A200" d="M271.891 110.995l7.519-4.317 6.296 20.65-7.519 4.318z"/><path fill="#F9BF30" d="M301.821 138.419l-7.519 4.315-16.115-11.088 7.519-4.318z"/><path fill="#FFF" d="M278.561 132.164l-1.145-.661 8.122-4.727.168.552.534.368z"/><path fill="#E8A200" d="M330.775 136.079l6.296 20.65 16.117 11.091-12.225 4.984 3.664 20.496-13.852-17.831-13.851 1.836 3.666-16.262-12.226-19.102 16.115 7.519z"/><path fill="#F9BF30" d="M300.846 146.261l7.519-4.319 11.615 5.42s-.041 7.809 0 7.995c.04.185-4.788.418-5.113.418-.325-.001-14.021-9.514-14.021-9.514z"/><path fill="#E8A200" d="M344.627 193.3l-7.522 4.317-3.662-20.496s3.646-3.847 3.629-3.847c-.016 0 4.101.697 4.101.697l3.454 19.329z"/><path fill="#FDD762" d="M323.256 140.398l6.295 20.65 16.115 11.091-12.224 4.982 3.662 20.496-13.848-17.832-13.853 1.839 3.668-16.266-12.225-19.097 16.115 7.516z"/><path fill="#FFF" d="M337.104 197.617l-3.662-20.496 12.224-4.982-16.115-11.093-6.295-20.647-6.295 13.381-16.115-7.519 1.121 1.754 15.531 7.242 5.537-11.77 5.562 18.257 14.74 10.143-11.151 4.542 3.45 19.295 1.468 1.893z"/><path fill="#E8A200" d="M323.256 140.398l7.519-4.319 6.296 20.65-7.52 4.319z"/><path fill="#F9BF30" d="M353.188 167.82l-7.522 4.319-16.115-11.091 7.52-4.319z"/><path fill="#FFF" d="M329.926 161.567l-1.145-.663 8.123-4.724.167.549.534.37z"/><path fill="#E8A200" d="M382.14 165.483l6.296 20.65 16.117 11.09-12.225 4.984 3.663 20.494-13.851-17.83-13.849 1.837 3.664-16.264-12.224-19.099 16.116 7.517z"/><path fill="#F9BF30" d="M352.212 175.661l7.52-4.316 11.612 5.417s-.04 7.812 0 7.996c.041.186-4.786.418-5.112.418-.326 0-14.02-9.515-14.02-9.515z"/><path fill="#E8A200" d="M395.991 222.701l-7.518 4.316-3.667-20.492s3.646-3.849 3.629-3.849c-.015 0 4.102.694 4.102.694l3.454 19.331z"/><path fill="#FDD762" d="M374.622 169.799l6.294 20.652 16.115 11.089-12.224 4.985 3.667 20.493-13.852-17.83-13.851 1.837 3.665-16.264-12.224-19.1 16.114 7.519z"/><path fill="#FFF" d="M388.474 227.02l-3.667-20.494 12.225-4.985-16.115-11.089-6.294-20.652-6.296 13.381-16.114-7.519 1.121 1.754 15.529 7.244 5.537-11.769 5.564 18.255 14.737 10.142-11.15 4.544 3.453 19.296 1.47 1.892z"/><path fill="#E8A200" d="M374.622 169.799l7.518-4.316 6.296 20.65-7.52 4.318z"/><path fill="#F9BF30" d="M404.553 197.223l-7.522 4.317-16.115-11.089 7.52-4.318z"/><path fill="#FFF" d="M381.294 190.967l-1.148-.66 8.123-4.727.167.553.536.367z"/><path fill="#E8A200" d="M433.506 194.885l6.297 20.65 16.115 11.088-12.225 4.986 3.665 20.494-13.852-17.83-13.849 1.836 3.663-16.262-12.224-19.102 16.116 7.519z"/><path fill="#F9BF30" d="M403.576 205.064l7.52-4.319 11.614 5.421s-.041 7.809 0 7.996c.04.185-4.787.417-5.111.417-.328 0-14.023-9.515-14.023-9.515z"/><path fill="#E8A200" d="M447.358 252.103l-7.52 4.318-3.664-20.494s3.643-3.849 3.628-3.849c-.018 0 4.099.697 4.099.697l3.457 19.328z"/><path fill="#FDD762" d="M425.987 199.201l6.297 20.65 16.115 11.091-12.224 4.985 3.664 20.494-13.852-17.832-13.85 1.839 3.663-16.266-12.224-19.098 16.115 7.519z"/><path fill="#FFF" d="M439.839 256.421l-3.664-20.494 12.225-4.984-16.115-11.091-6.297-20.65-6.296 13.382-16.115-7.519 1.122 1.754 15.529 7.242 5.538-11.77 5.563 18.257 14.737 10.143-11.148 4.542 3.451 19.296 1.47 1.892z"/><path fill="#E8A200" d="M425.987 199.201l7.519-4.316 6.297 20.65-7.519 4.316z"/><path fill="#F9BF30" d="M455.918 226.623l-7.519 4.319-16.115-11.091 7.519-4.316z"/><path fill="#FFF" d="M432.659 220.372l-1.147-.662 8.122-4.727.169.552.535.367z"/></svg>