<?xml version="1.0" encoding="UTF-8" standalone="no"?>
<!DOCTYPE svg PUBLIC "-//W3C//DTD SVG 1.1//EN"
 "http://www.w3.org/Graphics/SVG/1.1/DTD/svg11.dtd">
<!-- Generated by graphviz version 2.40.1 (20161225.0304)
 -->
<!-- Title: dependencies Pages: 1 -->
<svg width="920pt" height="284pt"
 viewBox="0.00 0.00 920.00 284.00" xmlns="http://www.w3.org/2000/svg" xmlns:xlink="http://www.w3.org/1999/xlink">
<g id="graph0" class="graph" transform="scale(1 1) rotate(0) translate(4 280)">
<title>dependencies</title>
<polygon fill="#ffffff" stroke="transparent" points="-4,4 -4,-280 916,-280 916,4 -4,4"/>
<text text-anchor="start" x="435.0091" y="-42.4" font-family="sans-serif" font-weight="bold" font-size="14.00" fill="#000000">Legend</text>
<polygon fill="#ffffb3" stroke="transparent" points="222,-10 222,-30 242,-30 242,-10 222,-10"/>
<text text-anchor="start" x="245.629" y="-15.4" font-family="sans-serif" font-size="14.00" fill="#000000"> &#160;Declarations</text>
<polygon fill="#8dd3c7" stroke="transparent" points="335,-10 335,-30 355,-30 355,-10 335,-10"/>
<text text-anchor="start" x="358.7251" y="-15.4" font-family="sans-serif" font-size="14.00" fill="#000000"> &#160;Module</text>
<polygon fill="#80b1d3" stroke="transparent" points="421,-10 421,-30 441,-30 441,-10 421,-10"/>
<text text-anchor="start" x="444.7812" y="-15.4" font-family="sans-serif" font-size="14.00" fill="#000000"> &#160;Bootstrap</text>
<polygon fill="#fdb462" stroke="transparent" points="518,-10 518,-30 538,-30 538,-10 518,-10"/>
<text text-anchor="start" x="541.6732" y="-15.4" font-family="sans-serif" font-size="14.00" fill="#000000"> &#160;Providers</text>
<polygon fill="#fb8072" stroke="transparent" points="614,-10 614,-30 634,-30 634,-10 614,-10"/>
<text text-anchor="start" x="637.7258" y="-15.4" font-family="sans-serif" font-size="14.00" fill="#000000"> &#160;Exports</text>
<g id="clust1" class="cluster">
<title>cluster_DatePickerModule</title>
<polygon fill="none" stroke="#000000" stroke-dasharray="1,5" points="8,-70 8,-268 904,-268 904,-70 8,-70"/>
</g>
<g id="clust2" class="cluster">
<title>cluster_DatePickerModule_declarations</title>
<polygon fill="none" stroke="#000000" points="16,-78 16,-130 896,-130 896,-78 16,-78"/>
</g>
<g id="clust10" class="cluster">
<title>cluster_DatePickerModule_exports</title>
<polygon fill="none" stroke="#000000" points="344,-208 344,-260 508,-260 508,-208 344,-208"/>
</g>
<!-- CalendarComponent -->
<g id="node1" class="node">
<title>CalendarComponent</title>
<polygon fill="#ffffb3" stroke="#000000" points="887.8641,-122 756.1359,-122 756.1359,-86 887.8641,-86 887.8641,-122"/>
<text text-anchor="middle" x="822" y="-99.8" font-family="Times,serif" font-size="14.00" fill="#000000">CalendarComponent</text>
</g>
<!-- DatePickerModule -->
<g id="node7" class="node">
<title>DatePickerModule</title>
<polygon fill="#8dd3c7" stroke="#000000" points="486.7395,-187 483.7395,-191 462.7395,-191 459.7395,-187 365.2605,-187 365.2605,-151 486.7395,-151 486.7395,-187"/>
<text text-anchor="middle" x="426" y="-164.8" font-family="Times,serif" font-size="14.00" fill="#000000">DatePickerModule</text>
</g>
<!-- CalendarComponent&#45;&gt;DatePickerModule -->
<g id="edge1" class="edge">
<title>CalendarComponent&#45;&gt;DatePickerModule</title>
<path fill="none" stroke="#000000" d="M822,-122.2843C822,-143.3211 822,-175 822,-175 822,-175 497.0072,-175 497.0072,-175"/>
<polygon fill="#000000" stroke="#000000" points="497.0072,-171.5001 487.0072,-175 497.0071,-178.5001 497.0072,-171.5001"/>
</g>
<!-- DateDisplayComponent -->
<g id="node2" class="node">
<title>DateDisplayComponent</title>
<polygon fill="#ffffb3" stroke="#000000" points="737.8061,-122 586.1939,-122 586.1939,-86 737.8061,-86 737.8061,-122"/>
<text text-anchor="middle" x="662" y="-99.8" font-family="Times,serif" font-size="14.00" fill="#000000">DateDisplayComponent</text>
</g>
<!-- DateDisplayComponent&#45;&gt;DatePickerModule -->
<g id="edge2" class="edge">
<title>DateDisplayComponent&#45;&gt;DatePickerModule</title>
<path fill="none" stroke="#000000" d="M662,-122.0225C662,-139.3734 662,-163 662,-163 662,-163 496.7759,-163 496.7759,-163"/>
<polygon fill="#000000" stroke="#000000" points="496.7759,-159.5001 486.7759,-163 496.7758,-166.5001 496.7759,-159.5001"/>
</g>
<!-- DatePickerComponent -->
<g id="node3" class="node">
<title>DatePickerComponent</title>
<polygon fill="#ffffb3" stroke="#000000" points="568.5226,-122 425.4774,-122 425.4774,-86 568.5226,-86 568.5226,-122"/>
<text text-anchor="middle" x="497" y="-99.8" font-family="Times,serif" font-size="14.00" fill="#000000">DatePickerComponent</text>
</g>
<!-- DatePickerComponent&#45;&gt;DatePickerModule -->
<g id="edge3" class="edge">
<title>DatePickerComponent&#45;&gt;DatePickerModule</title>
<path fill="none" stroke="#000000" d="M456.0544,-122.1061C456.0544,-122.1061 456.0544,-140.991 456.0544,-140.991"/>
<polygon fill="#000000" stroke="#000000" points="452.5544,-140.9909 456.0544,-150.991 459.5544,-140.991 452.5544,-140.9909"/>
</g>
<!-- DatePickerPipe -->
<g id="node4" class="node">
<title>DatePickerPipe</title>
<polygon fill="#ffffb3" stroke="#000000" points="407.5772,-122 304.4228,-122 304.4228,-86 407.5772,-86 407.5772,-122"/>
<text text-anchor="middle" x="356" y="-99.8" font-family="Times,serif" font-size="14.00" fill="#000000">DatePickerPipe</text>
</g>
<!-- DatePickerPipe&#45;&gt;DatePickerModule -->
<g id="edge4" class="edge">
<title>DatePickerPipe&#45;&gt;DatePickerModule</title>
<path fill="none" stroke="#000000" d="M386.3345,-122.1061C386.3345,-122.1061 386.3345,-140.991 386.3345,-140.991"/>
<polygon fill="#000000" stroke="#000000" points="382.8346,-140.9909 386.3345,-150.991 389.8346,-140.991 382.8346,-140.9909"/>
</g>
<!-- MonthComponent -->
<g id="node5" class="node">
<title>MonthComponent</title>
<polygon fill="#ffffb3" stroke="#000000" points="286.1681,-122 167.8319,-122 167.8319,-86 286.1681,-86 286.1681,-122"/>
<text text-anchor="middle" x="227" y="-99.8" font-family="Times,serif" font-size="14.00" fill="#000000">MonthComponent</text>
</g>
<!-- MonthComponent&#45;&gt;DatePickerModule -->
<g id="edge5" class="edge">
<title>MonthComponent&#45;&gt;DatePickerModule</title>
<path fill="none" stroke="#000000" d="M227,-122.0225C227,-139.3734 227,-163 227,-163 227,-163 355.2121,-163 355.2121,-163"/>
<polygon fill="#000000" stroke="#000000" points="355.2122,-166.5001 365.2121,-163 355.2121,-159.5001 355.2122,-166.5001"/>
</g>
<!-- ToolbarComponent -->
<g id="node6" class="node">
<title>ToolbarComponent</title>
<polygon fill="#ffffb3" stroke="#000000" points="149.6513,-122 24.3487,-122 24.3487,-86 149.6513,-86 149.6513,-122"/>
<text text-anchor="middle" x="87" y="-99.8" font-family="Times,serif" font-size="14.00" fill="#000000">ToolbarComponent</text>
</g>
<!-- ToolbarComponent&#45;&gt;DatePickerModule -->
<g id="edge6" class="edge">
<title>ToolbarComponent&#45;&gt;DatePickerModule</title>
<path fill="none" stroke="#000000" d="M87,-122.2843C87,-143.3211 87,-175 87,-175 87,-175 355.0021,-175 355.0021,-175"/>
<polygon fill="#000000" stroke="#000000" points="355.0021,-178.5001 365.0021,-175 355.002,-171.5001 355.0021,-178.5001"/>
</g>
<!-- DatePickerComponent  -->
<g id="node8" class="node">
<title>DatePickerComponent </title>
<polygon fill="#fb8072" stroke="#000000" points="499.5218,-252 352.4782,-252 352.4782,-216 499.5218,-216 499.5218,-252"/>
<text text-anchor="middle" x="426" y="-229.8" font-family="Times,serif" font-size="14.00" fill="#000000">DatePickerComponent </text>
</g>
<!-- DatePickerModule&#45;&gt;DatePickerComponent  -->
<g id="edge7" class="edge">
<title>DatePickerModule&#45;&gt;DatePickerComponent </title>
<path fill="none" stroke="#000000" stroke-dasharray="5,2" d="M426,-187.1061C426,-187.1061 426,-205.991 426,-205.991"/>
<polygon fill="#000000" stroke="#000000" points="422.5001,-205.9909 426,-215.991 429.5001,-205.991 422.5001,-205.9909"/>
</g>
</g>
</svg>
