<?xml version="1.0" encoding="UTF-8" standalone="no"?>
<!DOCTYPE svg PUBLIC "-//W3C//DTD SVG 1.1//EN"
 "http://www.w3.org/Graphics/SVG/1.1/DTD/svg11.dtd">
<!-- Generated by graphviz version 2.40.1 (20161225.0304)
 -->
<!-- Title: dependencies Pages: 1 -->
<svg width="1080pt" height="284pt"
 viewBox="0.00 0.00 1080.00 284.00" xmlns="http://www.w3.org/2000/svg" xmlns:xlink="http://www.w3.org/1999/xlink">
<g id="graph0" class="graph" transform="scale(1 1) rotate(0) translate(4 280)">
<title>dependencies</title>
<polygon fill="#ffffff" stroke="transparent" points="-4,4 -4,-280 1076,-280 1076,4 -4,4"/>
<text text-anchor="start" x="515.0091" y="-42.4" font-family="sans-serif" font-weight="bold" font-size="14.00" fill="#000000">Legend</text>
<polygon fill="#ffffb3" stroke="transparent" points="302,-10 302,-30 322,-30 322,-10 302,-10"/>
<text text-anchor="start" x="325.629" y="-15.4" font-family="sans-serif" font-size="14.00" fill="#000000"> &#160;Declarations</text>
<polygon fill="#8dd3c7" stroke="transparent" points="415,-10 415,-30 435,-30 435,-10 415,-10"/>
<text text-anchor="start" x="438.7251" y="-15.4" font-family="sans-serif" font-size="14.00" fill="#000000"> &#160;Module</text>
<polygon fill="#80b1d3" stroke="transparent" points="501,-10 501,-30 521,-30 521,-10 501,-10"/>
<text text-anchor="start" x="524.7812" y="-15.4" font-family="sans-serif" font-size="14.00" fill="#000000"> &#160;Bootstrap</text>
<polygon fill="#fdb462" stroke="transparent" points="598,-10 598,-30 618,-30 618,-10 598,-10"/>
<text text-anchor="start" x="621.6732" y="-15.4" font-family="sans-serif" font-size="14.00" fill="#000000"> &#160;Providers</text>
<polygon fill="#fb8072" stroke="transparent" points="694,-10 694,-30 714,-30 714,-10 694,-10"/>
<text text-anchor="start" x="717.7258" y="-15.4" font-family="sans-serif" font-size="14.00" fill="#000000"> &#160;Exports</text>
<g id="clust1" class="cluster">
<title>cluster_DatePickerModule</title>
<polygon fill="none" stroke="#000000" stroke-dasharray="1,5" points="8,-70 8,-268 1064,-268 1064,-70 8,-70"/>
</g>
<g id="clust2" class="cluster">
<title>cluster_DatePickerModule_declarations</title>
<polygon fill="none" stroke="#000000" points="16,-78 16,-130 1056,-130 1056,-78 16,-78"/>
</g>
<g id="clust11" class="cluster">
<title>cluster_DatePickerModule_exports</title>
<polygon fill="none" stroke="#000000" points="442,-208 442,-260 606,-260 606,-208 442,-208"/>
</g>
<!-- DatePickerComponent -->
<g id="node1" class="node">
<title>DatePickerComponent</title>
<polygon fill="#ffffb3" stroke="#000000" points="1047.5226,-122 904.4774,-122 904.4774,-86 1047.5226,-86 1047.5226,-122"/>
<text text-anchor="middle" x="976" y="-99.8" font-family="Times,serif" font-size="14.00" fill="#000000">DatePickerComponent</text>
</g>
<!-- DatePickerModule -->
<g id="node8" class="node">
<title>DatePickerModule</title>
<polygon fill="#8dd3c7" stroke="#000000" points="584.7395,-187 581.7395,-191 560.7395,-191 557.7395,-187 463.2605,-187 463.2605,-151 584.7395,-151 584.7395,-187"/>
<text text-anchor="middle" x="524" y="-164.8" font-family="Times,serif" font-size="14.00" fill="#000000">DatePickerModule</text>
</g>
<!-- DatePickerComponent&#45;&gt;DatePickerModule -->
<g id="edge1" class="edge">
<title>DatePickerComponent&#45;&gt;DatePickerModule</title>
<path fill="none" stroke="#000000" d="M976,-122.2843C976,-143.3211 976,-175 976,-175 976,-175 594.9587,-175 594.9587,-175"/>
<polygon fill="#000000" stroke="#000000" points="594.9588,-171.5001 584.9587,-175 594.9587,-178.5001 594.9588,-171.5001"/>
</g>
<!-- CalendarComponent -->
<g id="node2" class="node">
<title>CalendarComponent</title>
<polygon fill="#ffffb3" stroke="#000000" points="885.8641,-122 754.1359,-122 754.1359,-86 885.8641,-86 885.8641,-122"/>
<text text-anchor="middle" x="820" y="-99.8" font-family="Times,serif" font-size="14.00" fill="#000000">CalendarComponent</text>
</g>
<!-- CalendarComponent&#45;&gt;DatePickerModule -->
<g id="edge2" class="edge">
<title>CalendarComponent&#45;&gt;DatePickerModule</title>
<path fill="none" stroke="#000000" d="M820,-122.0225C820,-139.3734 820,-163 820,-163 820,-163 594.9725,-163 594.9725,-163"/>
<polygon fill="#000000" stroke="#000000" points="594.9725,-159.5001 584.9725,-163 594.9725,-166.5001 594.9725,-159.5001"/>
</g>
<!-- DayButtonComponent -->
<g id="node3" class="node">
<title>DayButtonComponent</title>
<polygon fill="#ffffb3" stroke="#000000" points="736.2716,-122 593.7284,-122 593.7284,-86 736.2716,-86 736.2716,-122"/>
<text text-anchor="middle" x="665" y="-99.8" font-family="Times,serif" font-size="14.00" fill="#000000">DayButtonComponent</text>
</g>
<!-- DayButtonComponent&#45;&gt;DatePickerModule -->
<g id="edge3" class="edge">
<title>DayButtonComponent&#45;&gt;DatePickerModule</title>
<path fill="none" stroke="#000000" d="M593.4535,-104C585.5038,-104 580.2041,-104 580.2041,-104 580.2041,-104 580.2041,-140.8939 580.2041,-140.8939"/>
<polygon fill="#000000" stroke="#000000" points="576.7042,-140.8938 580.2041,-150.8939 583.7042,-140.8939 576.7042,-140.8938"/>
</g>
<!-- DatePickerPipe -->
<g id="node4" class="node">
<title>DatePickerPipe</title>
<polygon fill="#ffffb3" stroke="#000000" points="575.5772,-122 472.4228,-122 472.4228,-86 575.5772,-86 575.5772,-122"/>
<text text-anchor="middle" x="524" y="-99.8" font-family="Times,serif" font-size="14.00" fill="#000000">DatePickerPipe</text>
</g>
<!-- DatePickerPipe&#45;&gt;DatePickerModule -->
<g id="edge4" class="edge">
<title>DatePickerPipe&#45;&gt;DatePickerModule</title>
<path fill="none" stroke="#000000" d="M524,-122.1061C524,-122.1061 524,-140.991 524,-140.991"/>
<polygon fill="#000000" stroke="#000000" points="520.5001,-140.9909 524,-150.991 527.5001,-140.991 520.5001,-140.9909"/>
</g>
<!-- ToolbarComponent -->
<g id="node5" class="node">
<title>ToolbarComponent</title>
<polygon fill="#ffffb3" stroke="#000000" points="454.6513,-122 329.3487,-122 329.3487,-86 454.6513,-86 454.6513,-122"/>
<text text-anchor="middle" x="392" y="-99.8" font-family="Times,serif" font-size="14.00" fill="#000000">ToolbarComponent</text>
</g>
<!-- ToolbarComponent&#45;&gt;DatePickerModule -->
<g id="edge5" class="edge">
<title>ToolbarComponent&#45;&gt;DatePickerModule</title>
<path fill="none" stroke="#000000" d="M454.9382,-104C462.6041,-104 467.7959,-104 467.7959,-104 467.7959,-104 467.7959,-140.8939 467.7959,-140.8939"/>
<polygon fill="#000000" stroke="#000000" points="464.296,-140.8938 467.7959,-150.8939 471.296,-140.8939 464.296,-140.8938"/>
</g>
<!-- DateDisplayComponent -->
<g id="node6" class="node">
<title>DateDisplayComponent</title>
<polygon fill="#ffffb3" stroke="#000000" points="311.8061,-122 160.1939,-122 160.1939,-86 311.8061,-86 311.8061,-122"/>
<text text-anchor="middle" x="236" y="-99.8" font-family="Times,serif" font-size="14.00" fill="#000000">DateDisplayComponent</text>
</g>
<!-- DateDisplayComponent&#45;&gt;DatePickerModule -->
<g id="edge6" class="edge">
<title>DateDisplayComponent&#45;&gt;DatePickerModule</title>
<path fill="none" stroke="#000000" d="M236,-122.0225C236,-139.3734 236,-163 236,-163 236,-163 452.9226,-163 452.9226,-163"/>
<polygon fill="#000000" stroke="#000000" points="452.9226,-166.5001 462.9226,-163 452.9226,-159.5001 452.9226,-166.5001"/>
</g>
<!-- MonthComponent -->
<g id="node7" class="node">
<title>MonthComponent</title>
<polygon fill="#ffffb3" stroke="#000000" points="142.1681,-122 23.8319,-122 23.8319,-86 142.1681,-86 142.1681,-122"/>
<text text-anchor="middle" x="83" y="-99.8" font-family="Times,serif" font-size="14.00" fill="#000000">MonthComponent</text>
</g>
<!-- MonthComponent&#45;&gt;DatePickerModule -->
<g id="edge7" class="edge">
<title>MonthComponent&#45;&gt;DatePickerModule</title>
<path fill="none" stroke="#000000" d="M83,-122.2843C83,-143.3211 83,-175 83,-175 83,-175 453.1438,-175 453.1438,-175"/>
<polygon fill="#000000" stroke="#000000" points="453.1439,-178.5001 463.1438,-175 453.1438,-171.5001 453.1439,-178.5001"/>
</g>
<!-- DatePickerComponent  -->
<g id="node9" class="node">
<title>DatePickerComponent </title>
<polygon fill="#fb8072" stroke="#000000" points="597.5218,-252 450.4782,-252 450.4782,-216 597.5218,-216 597.5218,-252"/>
<text text-anchor="middle" x="524" y="-229.8" font-family="Times,serif" font-size="14.00" fill="#000000">DatePickerComponent </text>
</g>
<!-- DatePickerModule&#45;&gt;DatePickerComponent  -->
<g id="edge8" class="edge">
<title>DatePickerModule&#45;&gt;DatePickerComponent </title>
<path fill="none" stroke="#000000" stroke-dasharray="5,2" d="M524,-187.1061C524,-187.1061 524,-205.991 524,-205.991"/>
<polygon fill="#000000" stroke="#000000" points="520.5001,-205.9909 524,-215.991 527.5001,-205.991 520.5001,-205.9909"/>
</g>
</g>
</svg>
