<?xml version="1.0" encoding="UTF-8" standalone="no"?>
<!DOCTYPE svg PUBLIC "-//W3C//DTD SVG 1.1//EN"
 "http://www.w3.org/Graphics/SVG/1.1/DTD/svg11.dtd">
<!-- Generated by graphviz version 2.40.1 (20161225.0304)
 -->
<!-- Title: dependencies Pages: 1 -->
<svg width="990pt" height="211pt"
 viewBox="0.00 0.00 990.00 211.00" xmlns="http://www.w3.org/2000/svg" xmlns:xlink="http://www.w3.org/1999/xlink">
<g id="graph0" class="graph" transform="scale(1 1) rotate(0) translate(4 207)">
<title>dependencies</title>
<polygon fill="#ffffff" stroke="transparent" points="-4,4 -4,-207 986,-207 986,4 -4,4"/>
<text text-anchor="start" x="470.0091" y="-42.4" font-family="sans-serif" font-weight="bold" font-size="14.00" fill="#000000">Legend</text>
<polygon fill="#ffffb3" stroke="transparent" points="257,-10 257,-30 277,-30 277,-10 257,-10"/>
<text text-anchor="start" x="280.629" y="-15.4" font-family="sans-serif" font-size="14.00" fill="#000000"> &#160;Declarations</text>
<polygon fill="#8dd3c7" stroke="transparent" points="370,-10 370,-30 390,-30 390,-10 370,-10"/>
<text text-anchor="start" x="393.7251" y="-15.4" font-family="sans-serif" font-size="14.00" fill="#000000"> &#160;Module</text>
<polygon fill="#80b1d3" stroke="transparent" points="456,-10 456,-30 476,-30 476,-10 456,-10"/>
<text text-anchor="start" x="479.7812" y="-15.4" font-family="sans-serif" font-size="14.00" fill="#000000"> &#160;Bootstrap</text>
<polygon fill="#fdb462" stroke="transparent" points="553,-10 553,-30 573,-30 573,-10 553,-10"/>
<text text-anchor="start" x="576.6732" y="-15.4" font-family="sans-serif" font-size="14.00" fill="#000000"> &#160;Providers</text>
<polygon fill="#fb8072" stroke="transparent" points="649,-10 649,-30 669,-30 669,-10 649,-10"/>
<text text-anchor="start" x="672.7258" y="-15.4" font-family="sans-serif" font-size="14.00" fill="#000000"> &#160;Exports</text>
<g id="clust1" class="cluster">
<title>cluster_ApmModule</title>
<polygon fill="none" stroke="#000000" stroke-dasharray="1,5" points="8,-70 8,-195 974,-195 974,-70 8,-70"/>
</g>
<g id="clust2" class="cluster">
<title>cluster_ApmModule_declarations</title>
<polygon fill="none" stroke="#000000" points="405,-78 405,-130 966,-130 966,-78 405,-78"/>
</g>
<g id="clust7" class="cluster">
<title>cluster_ApmModule_imports</title>
<polygon fill="none" stroke="#000000" points="16,-78 16,-130 397,-130 397,-78 16,-78"/>
</g>
<!-- ErrorComponent -->
<g id="node1" class="node">
<title>ErrorComponent</title>
<polygon fill="#ffffb3" stroke="#000000" points="958.3669,-122 847.6331,-122 847.6331,-86 958.3669,-86 958.3669,-122"/>
<text text-anchor="middle" x="903" y="-99.8" font-family="Times,serif" font-size="14.00" fill="#000000">ErrorComponent</text>
</g>
<!-- ApmModule -->
<g id="node5" class="node">
<title>ApmModule</title>
<polygon fill="#8dd3c7" stroke="#000000" points="512.5482,-187 509.5482,-191 488.5482,-191 485.5482,-187 425.4518,-187 425.4518,-151 512.5482,-151 512.5482,-187"/>
<text text-anchor="middle" x="469" y="-164.8" font-family="Times,serif" font-size="14.00" fill="#000000">ApmModule</text>
</g>
<!-- ErrorComponent&#45;&gt;ApmModule -->
<g id="edge1" class="edge">
<title>ErrorComponent&#45;&gt;ApmModule</title>
<path fill="none" stroke="#000000" d="M903,-122.2921C903,-144.2057 903,-178 903,-178 903,-178 522.6007,-178 522.6007,-178"/>
<polygon fill="#000000" stroke="#000000" points="522.6007,-174.5001 512.6007,-178 522.6006,-181.5001 522.6007,-174.5001"/>
</g>
<!-- PerformanceComponent -->
<g id="node2" class="node">
<title>PerformanceComponent</title>
<polygon fill="#ffffb3" stroke="#000000" points="829.3459,-122 676.6541,-122 676.6541,-86 829.3459,-86 829.3459,-122"/>
<text text-anchor="middle" x="753" y="-99.8" font-family="Times,serif" font-size="14.00" fill="#000000">PerformanceComponent</text>
</g>
<!-- PerformanceComponent&#45;&gt;ApmModule -->
<g id="edge2" class="edge">
<title>PerformanceComponent&#45;&gt;ApmModule</title>
<path fill="none" stroke="#000000" d="M753,-122.1061C753,-141.3391 753,-169 753,-169 753,-169 522.7526,-169 522.7526,-169"/>
<polygon fill="#000000" stroke="#000000" points="522.7526,-165.5001 512.7526,-169 522.7526,-172.5001 522.7526,-165.5001"/>
</g>
<!-- DetailComponent -->
<g id="node3" class="node">
<title>DetailComponent</title>
<polygon fill="#ffffb3" stroke="#000000" points="658.5409,-122 543.4591,-122 543.4591,-86 658.5409,-86 658.5409,-122"/>
<text text-anchor="middle" x="601" y="-99.8" font-family="Times,serif" font-size="14.00" fill="#000000">DetailComponent</text>
</g>
<!-- DetailComponent&#45;&gt;ApmModule -->
<g id="edge3" class="edge">
<title>DetailComponent&#45;&gt;ApmModule</title>
<path fill="none" stroke="#000000" d="M601,-122.027C601,-138.3976 601,-160 601,-160 601,-160 522.5876,-160 522.5876,-160"/>
<polygon fill="#000000" stroke="#000000" points="522.5876,-156.5001 512.5876,-160 522.5875,-163.5001 522.5876,-156.5001"/>
</g>
<!-- ViewComponent -->
<g id="node4" class="node">
<title>ViewComponent</title>
<polygon fill="#ffffb3" stroke="#000000" points="524.6513,-122 413.3487,-122 413.3487,-86 524.6513,-86 524.6513,-122"/>
<text text-anchor="middle" x="469" y="-99.8" font-family="Times,serif" font-size="14.00" fill="#000000">ViewComponent</text>
</g>
<!-- ViewComponent&#45;&gt;ApmModule -->
<g id="edge4" class="edge">
<title>ViewComponent&#45;&gt;ApmModule</title>
<path fill="none" stroke="#000000" d="M469,-122.1061C469,-122.1061 469,-140.991 469,-140.991"/>
<polygon fill="#000000" stroke="#000000" points="465.5001,-140.9909 469,-150.991 472.5001,-140.991 465.5001,-140.9909"/>
</g>
<!-- SharedModule -->
<g id="node6" class="node">
<title>SharedModule</title>
<polygon fill="#8dd3c7" stroke="#000000" points="389.4231,-122 386.4231,-126 365.4231,-126 362.4231,-122 290.5769,-122 290.5769,-86 389.4231,-86 389.4231,-122"/>
<text text-anchor="middle" x="340" y="-99.8" font-family="Times,serif" font-size="14.00" fill="#000000">SharedModule</text>
</g>
<!-- SharedModule&#45;&gt;ApmModule -->
<g id="edge5" class="edge">
<title>SharedModule&#45;&gt;ApmModule</title>
<path fill="none" stroke="#000000" d="M340,-122.027C340,-138.3976 340,-160 340,-160 340,-160 415.3265,-160 415.3265,-160"/>
<polygon fill="#000000" stroke="#000000" points="415.3265,-163.5001 425.3265,-160 415.3264,-156.5001 415.3265,-163.5001"/>
</g>
<!-- ApmRoutingModule -->
<g id="node7" class="node">
<title>ApmRoutingModule</title>
<polygon fill="#8dd3c7" stroke="#000000" points="272.1652,-122 269.1652,-126 248.1652,-126 245.1652,-122 139.8348,-122 139.8348,-86 272.1652,-86 272.1652,-122"/>
<text text-anchor="middle" x="206" y="-99.8" font-family="Times,serif" font-size="14.00" fill="#000000">ApmRoutingModule</text>
</g>
<!-- ApmRoutingModule&#45;&gt;ApmModule -->
<g id="edge6" class="edge">
<title>ApmRoutingModule&#45;&gt;ApmModule</title>
<path fill="none" stroke="#000000" d="M206,-122.1061C206,-141.3391 206,-169 206,-169 206,-169 415.2757,-169 415.2757,-169"/>
<polygon fill="#000000" stroke="#000000" points="415.2757,-172.5001 425.2757,-169 415.2756,-165.5001 415.2757,-172.5001"/>
</g>
<!-- SearchModule -->
<g id="node8" class="node">
<title>SearchModule</title>
<polygon fill="#8dd3c7" stroke="#000000" points="121.6375,-122 118.6375,-126 97.6375,-126 94.6375,-122 24.3625,-122 24.3625,-86 121.6375,-86 121.6375,-122"/>
<text text-anchor="middle" x="73" y="-99.8" font-family="Times,serif" font-size="14.00" fill="#000000">SearchModule</text>
</g>
<!-- SearchModule&#45;&gt;ApmModule -->
<g id="edge7" class="edge">
<title>SearchModule&#45;&gt;ApmModule</title>
<path fill="none" stroke="#000000" d="M73,-122.2921C73,-144.2057 73,-178 73,-178 73,-178 415.108,-178 415.108,-178"/>
<polygon fill="#000000" stroke="#000000" points="415.1081,-181.5001 425.108,-178 415.108,-174.5001 415.1081,-181.5001"/>
</g>
</g>
</svg>
