<?xml version="1.0" encoding="UTF-8" standalone="no"?>
<!DOCTYPE svg PUBLIC "-//W3C//DTD SVG 1.1//EN"
 "http://www.w3.org/Graphics/SVG/1.1/DTD/svg11.dtd">
<!-- Generated by graphviz version 2.40.1 (20161225.0304)
 -->
<!-- Title: dependencies Pages: 1 -->
<svg width="989pt" height="211pt"
 viewBox="0.00 0.00 989.00 211.00" xmlns="http://www.w3.org/2000/svg" xmlns:xlink="http://www.w3.org/1999/xlink">
<g id="graph0" class="graph" transform="scale(1 1) rotate(0) translate(4 207)">
<title>dependencies</title>
<polygon fill="#ffffff" stroke="transparent" points="-4,4 -4,-207 985,-207 985,4 -4,4"/>
<text text-anchor="start" x="469.5091" y="-42.4" font-family="sans-serif" font-weight="bold" font-size="14.00" fill="#000000">Legend</text>
<polygon fill="#ffffb3" stroke="transparent" points="256.5,-10 256.5,-30 276.5,-30 276.5,-10 256.5,-10"/>
<text text-anchor="start" x="280.129" y="-15.4" font-family="sans-serif" font-size="14.00" fill="#000000"> &#160;Declarations</text>
<polygon fill="#8dd3c7" stroke="transparent" points="369.5,-10 369.5,-30 389.5,-30 389.5,-10 369.5,-10"/>
<text text-anchor="start" x="393.2251" y="-15.4" font-family="sans-serif" font-size="14.00" fill="#000000"> &#160;Module</text>
<polygon fill="#80b1d3" stroke="transparent" points="455.5,-10 455.5,-30 475.5,-30 475.5,-10 455.5,-10"/>
<text text-anchor="start" x="479.2812" y="-15.4" font-family="sans-serif" font-size="14.00" fill="#000000"> &#160;Bootstrap</text>
<polygon fill="#fdb462" stroke="transparent" points="552.5,-10 552.5,-30 572.5,-30 572.5,-10 552.5,-10"/>
<text text-anchor="start" x="576.1732" y="-15.4" font-family="sans-serif" font-size="14.00" fill="#000000"> &#160;Providers</text>
<polygon fill="#fb8072" stroke="transparent" points="648.5,-10 648.5,-30 668.5,-30 668.5,-10 648.5,-10"/>
<text text-anchor="start" x="672.2258" y="-15.4" font-family="sans-serif" font-size="14.00" fill="#000000"> &#160;Exports</text>
<g id="clust1" class="cluster">
<title>cluster_ApmModule</title>
<polygon fill="none" stroke="#000000" stroke-dasharray="1,5" points="8,-70 8,-195 973,-195 973,-70 8,-70"/>
</g>
<g id="clust2" class="cluster">
<title>cluster_ApmModule_declarations</title>
<polygon fill="none" stroke="#000000" points="404,-78 404,-130 965,-130 965,-78 404,-78"/>
</g>
<g id="clust7" class="cluster">
<title>cluster_ApmModule_imports</title>
<polygon fill="none" stroke="#000000" points="16,-78 16,-130 396,-130 396,-78 16,-78"/>
</g>
<!-- DetailComponent -->
<g id="node1" class="node">
<title>DetailComponent</title>
<polygon fill="#ffffb3" stroke="#000000" points="956.5409,-122 841.4591,-122 841.4591,-86 956.5409,-86 956.5409,-122"/>
<text text-anchor="middle" x="899" y="-99.8" font-family="Times,serif" font-size="14.00" fill="#000000">DetailComponent</text>
</g>
<!-- ApmModule -->
<g id="node5" class="node">
<title>ApmModule</title>
<polygon fill="#8dd3c7" stroke="#000000" points="511.5482,-187 508.5482,-191 487.5482,-191 484.5482,-187 424.4518,-187 424.4518,-151 511.5482,-151 511.5482,-187"/>
<text text-anchor="middle" x="468" y="-164.8" font-family="Times,serif" font-size="14.00" fill="#000000">ApmModule</text>
</g>
<!-- DetailComponent&#45;&gt;ApmModule -->
<g id="edge1" class="edge">
<title>DetailComponent&#45;&gt;ApmModule</title>
<path fill="none" stroke="#000000" d="M899,-122.2921C899,-144.2057 899,-178 899,-178 899,-178 521.6984,-178 521.6984,-178"/>
<polygon fill="#000000" stroke="#000000" points="521.6985,-174.5001 511.6984,-178 521.6984,-181.5001 521.6985,-174.5001"/>
</g>
<!-- ErrorComponent -->
<g id="node2" class="node">
<title>ErrorComponent</title>
<polygon fill="#ffffb3" stroke="#000000" points="823.3669,-122 712.6331,-122 712.6331,-86 823.3669,-86 823.3669,-122"/>
<text text-anchor="middle" x="768" y="-99.8" font-family="Times,serif" font-size="14.00" fill="#000000">ErrorComponent</text>
</g>
<!-- ErrorComponent&#45;&gt;ApmModule -->
<g id="edge2" class="edge">
<title>ErrorComponent&#45;&gt;ApmModule</title>
<path fill="none" stroke="#000000" d="M768,-122.1061C768,-141.3391 768,-169 768,-169 768,-169 521.6226,-169 521.6226,-169"/>
<polygon fill="#000000" stroke="#000000" points="521.6226,-165.5001 511.6226,-169 521.6225,-172.5001 521.6226,-165.5001"/>
</g>
<!-- PerformanceComponent -->
<g id="node3" class="node">
<title>PerformanceComponent</title>
<polygon fill="#ffffb3" stroke="#000000" points="694.3459,-122 541.6541,-122 541.6541,-86 694.3459,-86 694.3459,-122"/>
<text text-anchor="middle" x="618" y="-99.8" font-family="Times,serif" font-size="14.00" fill="#000000">PerformanceComponent</text>
</g>
<!-- PerformanceComponent&#45;&gt;ApmModule -->
<g id="edge3" class="edge">
<title>PerformanceComponent&#45;&gt;ApmModule</title>
<path fill="none" stroke="#000000" d="M618,-122.027C618,-138.3976 618,-160 618,-160 618,-160 521.7894,-160 521.7894,-160"/>
<polygon fill="#000000" stroke="#000000" points="521.7895,-156.5001 511.7894,-160 521.7894,-163.5001 521.7895,-156.5001"/>
</g>
<!-- ViewComponent -->
<g id="node4" class="node">
<title>ViewComponent</title>
<polygon fill="#ffffb3" stroke="#000000" points="523.6513,-122 412.3487,-122 412.3487,-86 523.6513,-86 523.6513,-122"/>
<text text-anchor="middle" x="468" y="-99.8" font-family="Times,serif" font-size="14.00" fill="#000000">ViewComponent</text>
</g>
<!-- ViewComponent&#45;&gt;ApmModule -->
<g id="edge4" class="edge">
<title>ViewComponent&#45;&gt;ApmModule</title>
<path fill="none" stroke="#000000" d="M468,-122.1061C468,-122.1061 468,-140.991 468,-140.991"/>
<polygon fill="#000000" stroke="#000000" points="464.5001,-140.9909 468,-150.991 471.5001,-140.991 464.5001,-140.9909"/>
</g>
<!-- ApmRoutingModule -->
<g id="node6" class="node">
<title>ApmRoutingModule</title>
<polygon fill="#8dd3c7" stroke="#000000" points="388.1652,-122 385.1652,-126 364.1652,-126 361.1652,-122 255.8348,-122 255.8348,-86 388.1652,-86 388.1652,-122"/>
<text text-anchor="middle" x="322" y="-99.8" font-family="Times,serif" font-size="14.00" fill="#000000">ApmRoutingModule</text>
</g>
<!-- ApmRoutingModule&#45;&gt;ApmModule -->
<g id="edge5" class="edge">
<title>ApmRoutingModule&#45;&gt;ApmModule</title>
<path fill="none" stroke="#000000" d="M322,-122.027C322,-138.3976 322,-160 322,-160 322,-160 414.1952,-160 414.1952,-160"/>
<polygon fill="#000000" stroke="#000000" points="414.1952,-163.5001 424.1952,-160 414.1952,-156.5001 414.1952,-163.5001"/>
</g>
<!-- SearchModule -->
<g id="node7" class="node">
<title>SearchModule</title>
<polygon fill="#8dd3c7" stroke="#000000" points="237.6375,-122 234.6375,-126 213.6375,-126 210.6375,-122 140.3625,-122 140.3625,-86 237.6375,-86 237.6375,-122"/>
<text text-anchor="middle" x="189" y="-99.8" font-family="Times,serif" font-size="14.00" fill="#000000">SearchModule</text>
</g>
<!-- SearchModule&#45;&gt;ApmModule -->
<g id="edge6" class="edge">
<title>SearchModule&#45;&gt;ApmModule</title>
<path fill="none" stroke="#000000" d="M189,-122.1061C189,-141.3391 189,-169 189,-169 189,-169 414.4063,-169 414.4063,-169"/>
<polygon fill="#000000" stroke="#000000" points="414.4063,-172.5001 424.4063,-169 414.4062,-165.5001 414.4063,-172.5001"/>
</g>
<!-- SharedModule -->
<g id="node8" class="node">
<title>SharedModule</title>
<polygon fill="#8dd3c7" stroke="#000000" points="122.4231,-122 119.4231,-126 98.4231,-126 95.4231,-122 23.5769,-122 23.5769,-86 122.4231,-86 122.4231,-122"/>
<text text-anchor="middle" x="73" y="-99.8" font-family="Times,serif" font-size="14.00" fill="#000000">SharedModule</text>
</g>
<!-- SharedModule&#45;&gt;ApmModule -->
<g id="edge7" class="edge">
<title>SharedModule&#45;&gt;ApmModule</title>
<path fill="none" stroke="#000000" d="M73,-122.2921C73,-144.2057 73,-178 73,-178 73,-178 414.2189,-178 414.2189,-178"/>
<polygon fill="#000000" stroke="#000000" points="414.2189,-181.5001 424.2189,-178 414.2188,-174.5001 414.2189,-181.5001"/>
</g>
</g>
</svg>
